{
	"asset":{
		"generator":"Khronos glTF Blender I/O v4.2.57",
		"version":"2.0"
	},
	"extensionsUsed":[
		"KHR_materials_specular"
	],
	"scene":0,
	"scenes":[
		{
			"name":"Scene",
			"nodes":[
				0
			]
		}
	],
	"nodes":[
		{
			"mesh":0,
			"name":"obj_text"
		}
	],
	"materials":[
		{
			"alphaMode":"BLEND",
			"emissiveFactor":[
				1,
				0.3419147729873657,
				0.028426136821508408
			],
			"extensions":{
				"KHR_materials_specular":{
					"specularFactor":0
				}
			},
			"name":"obj_text02",
			"pbrMetallicRoughness":{
				"baseColorFactor":[
					1,
					0.3419147729873657,
					0.028426136821508408,
					1
				],
				"baseColorTexture":{
					"index":0
				},
				"metallicFactor":0
			}
		},
		{
			"emissiveFactor":[
				1,
				0.3419147729873657,
				0.028426136821508408
			],
			"name":"obj_emission01",
			"pbrMetallicRoughness":{
				"baseColorFactor":[
					1,
					0.3419203758239746,
					0.028426364064216614,
					1
				],
				"metallicFactor":0
			}
		},
		{
			"alphaMode":"BLEND",
			"doubleSided":true,
			"emissiveFactor":[
				1,
				0.3419147729873657,
				0.028426136821508408
			],
			"extensions":{
				"KHR_materials_specular":{
					"specularFactor":0
				}
			},
			"name":"obj_text01",
			"pbrMetallicRoughness":{
				"baseColorFactor":[
					1,
					0.3419147729873657,
					0.028426136821508408,
					1
				],
				"baseColorTexture":{
					"index":1
				},
				"metallicFactor":0
			}
		}
	],
	"meshes":[
		{
			"name":"Text.002",
			"primitives":[
				{
					"attributes":{
						"POSITION":0,
						"NORMAL":1,
						"TEXCOORD_0":2
					},
					"indices":3,
					"material":0
				},
				{
					"attributes":{
						"POSITION":4,
						"NORMAL":5,
						"TEXCOORD_0":6
					},
					"indices":7,
					"material":1
				},
				{
					"attributes":{
						"POSITION":8,
						"NORMAL":9,
						"TEXCOORD_0":10
					},
					"indices":11,
					"material":2
				}
			]
		}
	],
	"textures":[
		{
			"sampler":0,
			"source":0
		},
		{
			"sampler":0,
			"source":1
		}
	],
	"images":[
		{
			"mimeType":"image/png",
			"name":"obj_text02",
			"uri":"textures/obj_text02.png"
		},
		{
			"mimeType":"image/png",
			"name":"obj_text01",
			"uri":"textures/obj_text01.png"
		}
	],
	"accessors":[
		{
			"bufferView":0,
			"componentType":5126,
			"count":20,
			"max":[
				1.6552534103393555,
				0.39877432584762573,
				6.597631454467773
			],
			"min":[
				-1.6552543640136719,
				0.004999995231628418,
				-1.5278372764587402
			],
			"type":"VEC3"
		},
		{
			"bufferView":1,
			"componentType":5126,
			"count":20,
			"type":"VEC3"
		},
		{
			"bufferView":2,
			"componentType":5126,
			"count":20,
			"type":"VEC2"
		},
		{
			"bufferView":3,
			"componentType":5123,
			"count":30,
			"type":"SCALAR"
		},
		{
			"bufferView":4,
			"componentType":5126,
			"count":1121,
			"max":[
				6.810664176940918,
				6.786836624145508,
				5.861184120178223
			],
			"min":[
				-6.814576148986816,
				1.8972491025924683,
				-6.360064506530762
			],
			"type":"VEC3"
		},
		{
			"bufferView":5,
			"componentType":5126,
			"count":1121,
			"type":"VEC3"
		},
		{
			"bufferView":6,
			"componentType":5126,
			"count":1121,
			"type":"VEC2"
		},
		{
			"bufferView":7,
			"componentType":5123,
			"count":1338,
			"type":"SCALAR"
		},
		{
			"bufferView":8,
			"componentType":5126,
			"count":4,
			"max":[
				-6.886402606964111,
				2.382418155670166,
				5.190008163452148
			],
			"min":[
				-6.886402606964111,
				0.3943512439727783,
				3.734814167022705
			],
			"type":"VEC3"
		},
		{
			"bufferView":9,
			"componentType":5126,
			"count":4,
			"type":"VEC3"
		},
		{
			"bufferView":10,
			"componentType":5126,
			"count":4,
			"type":"VEC2"
		},
		{
			"bufferView":11,
			"componentType":5123,
			"count":6,
			"type":"SCALAR"
		}
	],
	"bufferViews":[
		{
			"buffer":0,
			"byteLength":240,
			"byteOffset":0,
			"target":34962
		},
		{
			"buffer":0,
			"byteLength":240,
			"byteOffset":240,
			"target":34962
		},
		{
			"buffer":0,
			"byteLength":160,
			"byteOffset":480,
			"target":34962
		},
		{
			"buffer":0,
			"byteLength":60,
			"byteOffset":640,
			"target":34963
		},
		{
			"buffer":0,
			"byteLength":13452,
			"byteOffset":700,
			"target":34962
		},
		{
			"buffer":0,
			"byteLength":13452,
			"byteOffset":14152,
			"target":34962
		},
		{
			"buffer":0,
			"byteLength":8968,
			"byteOffset":27604,
			"target":34962
		},
		{
			"buffer":0,
			"byteLength":2676,
			"byteOffset":36572,
			"target":34963
		},
		{
			"buffer":0,
			"byteLength":48,
			"byteOffset":39248,
			"target":34962
		},
		{
			"buffer":0,
			"byteLength":48,
			"byteOffset":39296,
			"target":34962
		},
		{
			"buffer":0,
			"byteLength":32,
			"byteOffset":39344,
			"target":34962
		},
		{
			"buffer":0,
			"byteLength":12,
			"byteOffset":39376,
			"target":34963
		}
	],
	"samplers":[
		{
			"magFilter":9729,
			"minFilter":9987
		}
	],
	"buffers":[
		{
			"byteLength":39388,
			"uri":"obj_text.bin"
		}
	]
}
