{
	"asset":{
		"generator":"Khronos glTF Blender I/O v4.2.57",
		"version":"2.0"
	},
	"scene":0,
	"scenes":[
		{
			"name":"Scene",
			"nodes":[
				0,
				1
			]
		}
	],
	"nodes":[
		{
			"mesh":0,
			"name":"obj_railings"
		},
		{
			"mesh":1,
			"name":"obj_railings_collider"
		}
	],
	"materials":[
		{
			"emissiveFactor":[
				1,
				0.3419147729873657,
				0.028426136821508408
			],
			"name":"obj_emission01",
			"pbrMetallicRoughness":{
				"baseColorFactor":[
					1,
					0.3419203758239746,
					0.028426364064216614,
					1
				],
				"metallicFactor":0
			}
		}
	],
	"meshes":[
		{
			"name":"obj_railings.006",
			"primitives":[
				{
					"attributes":{
						"POSITION":0,
						"NORMAL":1,
						"TEXCOORD_0":2
					},
					"indices":3,
					"material":0
				}
			]
		},
		{
			"name":"obj_railings.001",
			"primitives":[
				{
					"attributes":{
						"POSITION":4,
						"NORMAL":5,
						"TEXCOORD_0":6
					},
					"indices":3
				}
			]
		}
	],
	"accessors":[
		{
			"bufferView":0,
			"componentType":5126,
			"count":1151,
			"max":[
				7.874035358428955,
				0.7933011651039124,
				7.882829189300537
			],
			"min":[
				-7.874035358428955,
				0.10669770836830139,
				-7.639318943023682
			],
			"type":"VEC3"
		},
		{
			"bufferView":1,
			"componentType":5126,
			"count":1151,
			"type":"VEC3"
		},
		{
			"bufferView":2,
			"componentType":5126,
			"count":1151,
			"type":"VEC2"
		},
		{
			"bufferView":3,
			"componentType":5123,
			"count":3672,
			"type":"SCALAR"
		},
		{
			"bufferView":4,
			"componentType":5126,
			"count":1151,
			"max":[
				7.874035358428955,
				0.7933011651039124,
				7.882829189300537
			],
			"min":[
				-7.874035358428955,
				0.10669770836830139,
				-7.639318943023682
			],
			"type":"VEC3"
		},
		{
			"bufferView":5,
			"componentType":5126,
			"count":1151,
			"type":"VEC3"
		},
		{
			"bufferView":6,
			"componentType":5126,
			"count":1151,
			"type":"VEC2"
		}
	],
	"bufferViews":[
		{
			"buffer":0,
			"byteLength":13812,
			"byteOffset":0,
			"target":34962
		},
		{
			"buffer":0,
			"byteLength":13812,
			"byteOffset":13812,
			"target":34962
		},
		{
			"buffer":0,
			"byteLength":9208,
			"byteOffset":27624,
			"target":34962
		},
		{
			"buffer":0,
			"byteLength":7344,
			"byteOffset":36832,
			"target":34963
		},
		{
			"buffer":0,
			"byteLength":13812,
			"byteOffset":44176,
			"target":34962
		},
		{
			"buffer":0,
			"byteLength":13812,
			"byteOffset":57988,
			"target":34962
		},
		{
			"buffer":0,
			"byteLength":9208,
			"byteOffset":71800,
			"target":34962
		}
	],
	"buffers":[
		{
			"byteLength":81008,
			"uri":"obj_railings.bin"
		}
	]
}
