{
	"asset":{
		"generator":"Khronos glTF Blender I/O v4.2.57",
		"version":"2.0"
	},
	"extensionsUsed":[
		"KHR_materials_specular"
	],
	"scene":0,
	"scenes":[
		{
			"name":"Scene",
			"nodes":[
				7
			]
		}
	],
	"nodes":[
		{
			"mesh":0,
			"name":"obj_rocket_collider"
		},
		{
			"name":"door01",
			"rotation":[
				0.0037572747096419334,
				-0.0137778390198946,
				-0.9998692870140076,
				0.0075786178931593895
			],
			"scale":[
				1,
				0.9999998211860657,
				1.000000238418579
			],
			"translation":[
				-0.9437742233276367,
				1.8580687046051025,
				-0.42735639214515686
			]
		},
		{
			"name":"door02",
			"rotation":[
				0.5713678002357483,
				0.007028907537460327,
				0.8205434679985046,
				0.014066226780414581
			],
			"scale":[
				1,
				0.9999998807907104,
				1.0000001192092896
			],
			"translation":[
				0.9437742233276367,
				1.8580687046051025,
				-0.42735639214515686
			]
		},
		{
			"children":[
				1,
				2
			],
			"name":"rocket"
		},
		{
			"name":"neutral_bone",
			"rotation":[
				-0.7071067690849304,
				0,
				0,
				0.7071067690849304
			]
		},
		{
			"mesh":1,
			"name":"obj_rocket_doors",
			"skin":0
		},
		{
			"mesh":2,
			"name":"obj_rocket_mesh",
			"skin":0
		},
		{
			"children":[
				0,
				5,
				6,
				3,
				4
			],
			"name":"Armature"
		}
	],
	"animations":[
		{
			"channels":[
				{
					"sampler":0,
					"target":{
						"node":3,
						"path":"translation"
					}
				},
				{
					"sampler":1,
					"target":{
						"node":3,
						"path":"rotation"
					}
				},
				{
					"sampler":2,
					"target":{
						"node":3,
						"path":"scale"
					}
				},
				{
					"sampler":3,
					"target":{
						"node":1,
						"path":"translation"
					}
				},
				{
					"sampler":4,
					"target":{
						"node":1,
						"path":"rotation"
					}
				},
				{
					"sampler":5,
					"target":{
						"node":1,
						"path":"scale"
					}
				},
				{
					"sampler":6,
					"target":{
						"node":2,
						"path":"translation"
					}
				},
				{
					"sampler":7,
					"target":{
						"node":2,
						"path":"rotation"
					}
				},
				{
					"sampler":8,
					"target":{
						"node":2,
						"path":"scale"
					}
				}
			],
			"name":"stand",
			"samplers":[
				{
					"input":19,
					"interpolation":"STEP",
					"output":20
				},
				{
					"input":19,
					"interpolation":"STEP",
					"output":21
				},
				{
					"input":22,
					"interpolation":"LINEAR",
					"output":23
				},
				{
					"input":19,
					"interpolation":"STEP",
					"output":24
				},
				{
					"input":19,
					"interpolation":"STEP",
					"output":25
				},
				{
					"input":19,
					"interpolation":"STEP",
					"output":26
				},
				{
					"input":19,
					"interpolation":"STEP",
					"output":27
				},
				{
					"input":19,
					"interpolation":"STEP",
					"output":28
				},
				{
					"input":19,
					"interpolation":"STEP",
					"output":29
				}
			]
		},
		{
			"channels":[
				{
					"sampler":0,
					"target":{
						"node":3,
						"path":"translation"
					}
				},
				{
					"sampler":1,
					"target":{
						"node":3,
						"path":"rotation"
					}
				},
				{
					"sampler":2,
					"target":{
						"node":3,
						"path":"scale"
					}
				},
				{
					"sampler":3,
					"target":{
						"node":1,
						"path":"translation"
					}
				},
				{
					"sampler":4,
					"target":{
						"node":1,
						"path":"rotation"
					}
				},
				{
					"sampler":5,
					"target":{
						"node":1,
						"path":"scale"
					}
				},
				{
					"sampler":6,
					"target":{
						"node":2,
						"path":"translation"
					}
				},
				{
					"sampler":7,
					"target":{
						"node":2,
						"path":"rotation"
					}
				},
				{
					"sampler":8,
					"target":{
						"node":2,
						"path":"scale"
					}
				}
			],
			"name":"idle1",
			"samplers":[
				{
					"input":19,
					"interpolation":"STEP",
					"output":30
				},
				{
					"input":19,
					"interpolation":"STEP",
					"output":31
				},
				{
					"input":22,
					"interpolation":"LINEAR",
					"output":32
				},
				{
					"input":19,
					"interpolation":"STEP",
					"output":33
				},
				{
					"input":19,
					"interpolation":"STEP",
					"output":34
				},
				{
					"input":19,
					"interpolation":"STEP",
					"output":35
				},
				{
					"input":19,
					"interpolation":"STEP",
					"output":36
				},
				{
					"input":19,
					"interpolation":"STEP",
					"output":37
				},
				{
					"input":19,
					"interpolation":"STEP",
					"output":38
				}
			]
		},
		{
			"channels":[
				{
					"sampler":0,
					"target":{
						"node":3,
						"path":"translation"
					}
				},
				{
					"sampler":1,
					"target":{
						"node":3,
						"path":"rotation"
					}
				},
				{
					"sampler":2,
					"target":{
						"node":3,
						"path":"scale"
					}
				},
				{
					"sampler":3,
					"target":{
						"node":1,
						"path":"translation"
					}
				},
				{
					"sampler":4,
					"target":{
						"node":1,
						"path":"rotation"
					}
				},
				{
					"sampler":5,
					"target":{
						"node":1,
						"path":"scale"
					}
				},
				{
					"sampler":6,
					"target":{
						"node":2,
						"path":"translation"
					}
				},
				{
					"sampler":7,
					"target":{
						"node":2,
						"path":"rotation"
					}
				},
				{
					"sampler":8,
					"target":{
						"node":2,
						"path":"scale"
					}
				}
			],
			"name":"idle2",
			"samplers":[
				{
					"input":19,
					"interpolation":"STEP",
					"output":39
				},
				{
					"input":19,
					"interpolation":"STEP",
					"output":40
				},
				{
					"input":22,
					"interpolation":"LINEAR",
					"output":41
				},
				{
					"input":19,
					"interpolation":"STEP",
					"output":42
				},
				{
					"input":19,
					"interpolation":"STEP",
					"output":43
				},
				{
					"input":19,
					"interpolation":"STEP",
					"output":44
				},
				{
					"input":19,
					"interpolation":"STEP",
					"output":45
				},
				{
					"input":19,
					"interpolation":"STEP",
					"output":46
				},
				{
					"input":19,
					"interpolation":"STEP",
					"output":47
				}
			]
		}
	],
	"materials":[
		{
			"doubleSided":true,
			"extensions":{
				"KHR_materials_specular":{
					"specularFactor":0
				}
			},
			"name":"Material",
			"pbrMetallicRoughness":{
				"baseColorTexture":{
					"index":0
				},
				"metallicFactor":0
			}
		}
	],
	"meshes":[
		{
			"name":"Bounding Box Mesh.008",
			"primitives":[
				{
					"attributes":{
						"POSITION":0,
						"NORMAL":1,
						"JOINTS_0":2,
						"WEIGHTS_0":3
					},
					"indices":4
				}
			]
		},
		{
			"name":"Mesh.004",
			"primitives":[
				{
					"attributes":{
						"POSITION":5,
						"NORMAL":6,
						"TEXCOORD_0":7,
						"JOINTS_0":8,
						"WEIGHTS_0":9
					},
					"indices":10,
					"material":0
				}
			]
		},
		{
			"name":"Mesh.005",
			"primitives":[
				{
					"attributes":{
						"POSITION":12,
						"NORMAL":13,
						"TEXCOORD_0":14,
						"TEXCOORD_1":15,
						"JOINTS_0":16,
						"WEIGHTS_0":17
					},
					"indices":18,
					"material":0
				}
			]
		}
	],
	"textures":[
		{
			"sampler":0,
			"source":0
		}
	],
	"images":[
		{
			"mimeType":"image/png",
			"name":"obj_rocket",
			"uri":"textures/obj_rocket.png"
		}
	],
	"skins":[
		{
			"inverseBindMatrices":11,
			"joints":[
				3,
				1,
				2,
				4
			],
			"name":"Armature"
		}
	],
	"accessors":[
		{
			"bufferView":0,
			"componentType":5126,
			"count":24,
			"max":[
				1.880214810371399,
				4.387797832489014,
				1.1914693117141724
			],
			"min":[
				-1.880214810371399,
				0,
				-1.1914693117141724
			],
			"type":"VEC3"
		},
		{
			"bufferView":1,
			"componentType":5126,
			"count":24,
			"type":"VEC3"
		},
		{
			"bufferView":2,
			"componentType":5121,
			"count":24,
			"type":"VEC4"
		},
		{
			"bufferView":3,
			"componentType":5126,
			"count":24,
			"type":"VEC4"
		},
		{
			"bufferView":4,
			"componentType":5123,
			"count":36,
			"type":"SCALAR"
		},
		{
			"bufferView":5,
			"componentType":5126,
			"count":202,
			"max":[
				1.0447553396224976,
				2.1964473724365234,
				0.427356094121933
			],
			"min":[
				-1.0447553396224976,
				0.8913238048553467,
				-0.42735639214515686
			],
			"type":"VEC3"
		},
		{
			"bufferView":6,
			"componentType":5126,
			"count":202,
			"type":"VEC3"
		},
		{
			"bufferView":7,
			"componentType":5126,
			"count":202,
			"type":"VEC2"
		},
		{
			"bufferView":8,
			"componentType":5121,
			"count":202,
			"type":"VEC4"
		},
		{
			"bufferView":9,
			"componentType":5126,
			"count":202,
			"type":"VEC4"
		},
		{
			"bufferView":10,
			"componentType":5123,
			"count":684,
			"type":"SCALAR"
		},
		{
			"bufferView":11,
			"componentType":5126,
			"count":4,
			"type":"MAT4"
		},
		{
			"bufferView":12,
			"componentType":5126,
			"count":1657,
			"max":[
				1.880214810371399,
				4.387797832489014,
				1.1914693117141724
			],
			"min":[
				-1.880214810371399,
				-3.428194261800854e-08,
				-1.1914693117141724
			],
			"type":"VEC3"
		},
		{
			"bufferView":13,
			"componentType":5126,
			"count":1657,
			"type":"VEC3"
		},
		{
			"bufferView":14,
			"componentType":5126,
			"count":1657,
			"type":"VEC2"
		},
		{
			"bufferView":15,
			"componentType":5126,
			"count":1657,
			"type":"VEC2"
		},
		{
			"bufferView":16,
			"componentType":5121,
			"count":1657,
			"type":"VEC4"
		},
		{
			"bufferView":17,
			"componentType":5126,
			"count":1657,
			"type":"VEC4"
		},
		{
			"bufferView":18,
			"componentType":5123,
			"count":5280,
			"type":"SCALAR"
		},
		{
			"bufferView":19,
			"componentType":5126,
			"count":2,
			"max":[
				0.625
			],
			"min":[
				0
			],
			"type":"SCALAR"
		},
		{
			"bufferView":20,
			"componentType":5126,
			"count":2,
			"type":"VEC3"
		},
		{
			"bufferView":21,
			"componentType":5126,
			"count":2,
			"type":"VEC4"
		},
		{
			"bufferView":22,
			"componentType":5126,
			"count":16,
			"max":[
				0.625
			],
			"min":[
				0
			],
			"type":"SCALAR"
		},
		{
			"bufferView":23,
			"componentType":5126,
			"count":16,
			"type":"VEC3"
		},
		{
			"bufferView":24,
			"componentType":5126,
			"count":2,
			"type":"VEC3"
		},
		{
			"bufferView":25,
			"componentType":5126,
			"count":2,
			"type":"VEC4"
		},
		{
			"bufferView":26,
			"componentType":5126,
			"count":2,
			"type":"VEC3"
		},
		{
			"bufferView":27,
			"componentType":5126,
			"count":2,
			"type":"VEC3"
		},
		{
			"bufferView":28,
			"componentType":5126,
			"count":2,
			"type":"VEC4"
		},
		{
			"bufferView":29,
			"componentType":5126,
			"count":2,
			"type":"VEC3"
		},
		{
			"bufferView":30,
			"componentType":5126,
			"count":2,
			"type":"VEC3"
		},
		{
			"bufferView":31,
			"componentType":5126,
			"count":2,
			"type":"VEC4"
		},
		{
			"bufferView":32,
			"componentType":5126,
			"count":16,
			"type":"VEC3"
		},
		{
			"bufferView":33,
			"componentType":5126,
			"count":2,
			"type":"VEC3"
		},
		{
			"bufferView":34,
			"componentType":5126,
			"count":2,
			"type":"VEC4"
		},
		{
			"bufferView":35,
			"componentType":5126,
			"count":2,
			"type":"VEC3"
		},
		{
			"bufferView":36,
			"componentType":5126,
			"count":2,
			"type":"VEC3"
		},
		{
			"bufferView":37,
			"componentType":5126,
			"count":2,
			"type":"VEC4"
		},
		{
			"bufferView":38,
			"componentType":5126,
			"count":2,
			"type":"VEC3"
		},
		{
			"bufferView":39,
			"componentType":5126,
			"count":2,
			"type":"VEC3"
		},
		{
			"bufferView":40,
			"componentType":5126,
			"count":2,
			"type":"VEC4"
		},
		{
			"bufferView":41,
			"componentType":5126,
			"count":16,
			"type":"VEC3"
		},
		{
			"bufferView":42,
			"componentType":5126,
			"count":2,
			"type":"VEC3"
		},
		{
			"bufferView":43,
			"componentType":5126,
			"count":2,
			"type":"VEC4"
		},
		{
			"bufferView":44,
			"componentType":5126,
			"count":2,
			"type":"VEC3"
		},
		{
			"bufferView":45,
			"componentType":5126,
			"count":2,
			"type":"VEC3"
		},
		{
			"bufferView":46,
			"componentType":5126,
			"count":2,
			"type":"VEC4"
		},
		{
			"bufferView":47,
			"componentType":5126,
			"count":2,
			"type":"VEC3"
		}
	],
	"bufferViews":[
		{
			"buffer":0,
			"byteLength":288,
			"byteOffset":0,
			"target":34962
		},
		{
			"buffer":0,
			"byteLength":288,
			"byteOffset":288,
			"target":34962
		},
		{
			"buffer":0,
			"byteLength":96,
			"byteOffset":576,
			"target":34962
		},
		{
			"buffer":0,
			"byteLength":384,
			"byteOffset":672,
			"target":34962
		},
		{
			"buffer":0,
			"byteLength":72,
			"byteOffset":1056,
			"target":34963
		},
		{
			"buffer":0,
			"byteLength":2424,
			"byteOffset":1128,
			"target":34962
		},
		{
			"buffer":0,
			"byteLength":2424,
			"byteOffset":3552,
			"target":34962
		},
		{
			"buffer":0,
			"byteLength":1616,
			"byteOffset":5976,
			"target":34962
		},
		{
			"buffer":0,
			"byteLength":808,
			"byteOffset":7592,
			"target":34962
		},
		{
			"buffer":0,
			"byteLength":3232,
			"byteOffset":8400,
			"target":34962
		},
		{
			"buffer":0,
			"byteLength":1368,
			"byteOffset":11632,
			"target":34963
		},
		{
			"buffer":0,
			"byteLength":256,
			"byteOffset":13000
		},
		{
			"buffer":0,
			"byteLength":19884,
			"byteOffset":13256,
			"target":34962
		},
		{
			"buffer":0,
			"byteLength":19884,
			"byteOffset":33140,
			"target":34962
		},
		{
			"buffer":0,
			"byteLength":13256,
			"byteOffset":53024,
			"target":34962
		},
		{
			"buffer":0,
			"byteLength":13256,
			"byteOffset":66280,
			"target":34962
		},
		{
			"buffer":0,
			"byteLength":6628,
			"byteOffset":79536,
			"target":34962
		},
		{
			"buffer":0,
			"byteLength":26512,
			"byteOffset":86164,
			"target":34962
		},
		{
			"buffer":0,
			"byteLength":10560,
			"byteOffset":112676,
			"target":34963
		},
		{
			"buffer":0,
			"byteLength":8,
			"byteOffset":123236
		},
		{
			"buffer":0,
			"byteLength":24,
			"byteOffset":123244
		},
		{
			"buffer":0,
			"byteLength":32,
			"byteOffset":123268
		},
		{
			"buffer":0,
			"byteLength":64,
			"byteOffset":123300
		},
		{
			"buffer":0,
			"byteLength":192,
			"byteOffset":123364
		},
		{
			"buffer":0,
			"byteLength":24,
			"byteOffset":123556
		},
		{
			"buffer":0,
			"byteLength":32,
			"byteOffset":123580
		},
		{
			"buffer":0,
			"byteLength":24,
			"byteOffset":123612
		},
		{
			"buffer":0,
			"byteLength":24,
			"byteOffset":123636
		},
		{
			"buffer":0,
			"byteLength":32,
			"byteOffset":123660
		},
		{
			"buffer":0,
			"byteLength":24,
			"byteOffset":123692
		},
		{
			"buffer":0,
			"byteLength":24,
			"byteOffset":123716
		},
		{
			"buffer":0,
			"byteLength":32,
			"byteOffset":123740
		},
		{
			"buffer":0,
			"byteLength":192,
			"byteOffset":123772
		},
		{
			"buffer":0,
			"byteLength":24,
			"byteOffset":123964
		},
		{
			"buffer":0,
			"byteLength":32,
			"byteOffset":123988
		},
		{
			"buffer":0,
			"byteLength":24,
			"byteOffset":124020
		},
		{
			"buffer":0,
			"byteLength":24,
			"byteOffset":124044
		},
		{
			"buffer":0,
			"byteLength":32,
			"byteOffset":124068
		},
		{
			"buffer":0,
			"byteLength":24,
			"byteOffset":124100
		},
		{
			"buffer":0,
			"byteLength":24,
			"byteOffset":124124
		},
		{
			"buffer":0,
			"byteLength":32,
			"byteOffset":124148
		},
		{
			"buffer":0,
			"byteLength":192,
			"byteOffset":124180
		},
		{
			"buffer":0,
			"byteLength":24,
			"byteOffset":124372
		},
		{
			"buffer":0,
			"byteLength":32,
			"byteOffset":124396
		},
		{
			"buffer":0,
			"byteLength":24,
			"byteOffset":124428
		},
		{
			"buffer":0,
			"byteLength":24,
			"byteOffset":124452
		},
		{
			"buffer":0,
			"byteLength":32,
			"byteOffset":124476
		},
		{
			"buffer":0,
			"byteLength":24,
			"byteOffset":124508
		}
	],
	"samplers":[
		{
			"magFilter":9729,
			"minFilter":9987
		}
	],
	"buffers":[
		{
			"byteLength":124532,
			"uri":"obj_rocket.bin"
		}
	]
}
