{
	"asset":{
		"generator":"Khronos glTF Blender I/O v4.2.57",
		"version":"2.0"
	},
	"scene":0,
	"scenes":[
		{
			"name":"Scene",
			"nodes":[
				0
			]
		}
	],
	"nodes":[
		{
			"mesh":0,
			"name":"obj_railings"
		}
	],
	"materials":[
		{
			"doubleSided":true,
			"emissiveFactor":[
				1,
				0.33973193168640137,
				0.02814362570643425
			],
			"name":"obj_emission01",
			"pbrMetallicRoughness":{
				"baseColorFactor":[
					1,
					0.3419203758239746,
					0.028426364064216614,
					1
				],
				"metallicFactor":0
			}
		}
	],
	"meshes":[
		{
			"name":"obj_railings.006",
			"primitives":[
				{
					"attributes":{
						"POSITION":0,
						"NORMAL":1,
						"TEXCOORD_0":2
					},
					"indices":3,
					"material":0
				}
			]
		}
	],
	"accessors":[
		{
			"bufferView":0,
			"componentType":5126,
			"count":1291,
			"max":[
				7.874035358428955,
				0.7933013439178467,
				7.882829189300537
			],
			"min":[
				-7.874035358428955,
				0.10669770836830139,
				-7.639318943023682
			],
			"type":"VEC3"
		},
		{
			"bufferView":1,
			"componentType":5126,
			"count":1291,
			"type":"VEC3"
		},
		{
			"bufferView":2,
			"componentType":5126,
			"count":1291,
			"type":"VEC2"
		},
		{
			"bufferView":3,
			"componentType":5123,
			"count":4320,
			"type":"SCALAR"
		}
	],
	"bufferViews":[
		{
			"buffer":0,
			"byteLength":15492,
			"byteOffset":0,
			"target":34962
		},
		{
			"buffer":0,
			"byteLength":15492,
			"byteOffset":15492,
			"target":34962
		},
		{
			"buffer":0,
			"byteLength":10328,
			"byteOffset":30984,
			"target":34962
		},
		{
			"buffer":0,
			"byteLength":8640,
			"byteOffset":41312,
			"target":34963
		}
	],
	"buffers":[
		{
			"byteLength":49952,
			"uri":"obj_railings.bin"
		}
	]
}
