{
	"asset":{
		"generator":"Khronos glTF Blender I/O v4.3.47",
		"version":"2.0"
	},
	"extensionsUsed":[
		"KHR_materials_specular"
	],
	"scene":0,
	"scenes":[
		{
			"name":"Scene",
			"nodes":[
				6
			]
		}
	],
	"nodes":[
		{
			"mesh":0,
			"name":"obj_bus_collider"
		},
		{
			"name":"doors",
			"rotation":[
				-3.421430108119239e-07,
				7.407559223793214e-06,
				-0.99656742811203,
				0.08278506994247437
			],
			"scale":[
				0.9999927878379822,
				0.9999999403953552,
				1
			],
			"translation":[
				0.673123836517334,
				1.410354495048523,
				-0.0676519125699997
			]
		},
		{
			"children":[
				1
			],
			"name":"bus"
		},
		{
			"name":"neutral_bone",
			"rotation":[
				-0.7071067690849304,
				0,
				0,
				0.7071067690849304
			]
		},
		{
			"mesh":1,
			"name":"obj_bus_doors",
			"skin":0
		},
		{
			"mesh":2,
			"name":"obj_bus_mesh",
			"skin":0
		},
		{
			"children":[
				0,
				4,
				5,
				2,
				3
			],
			"name":"obj_bus"
		}
	],
	"animations":[
		{
			"channels":[
				{
					"sampler":0,
					"target":{
						"node":2,
						"path":"translation"
					}
				},
				{
					"sampler":1,
					"target":{
						"node":2,
						"path":"rotation"
					}
				},
				{
					"sampler":2,
					"target":{
						"node":2,
						"path":"scale"
					}
				},
				{
					"sampler":3,
					"target":{
						"node":1,
						"path":"translation"
					}
				},
				{
					"sampler":4,
					"target":{
						"node":1,
						"path":"rotation"
					}
				},
				{
					"sampler":5,
					"target":{
						"node":1,
						"path":"scale"
					}
				}
			],
			"name":"stand",
			"samplers":[
				{
					"input":19,
					"interpolation":"STEP",
					"output":20
				},
				{
					"input":19,
					"interpolation":"STEP",
					"output":21
				},
				{
					"input":22,
					"interpolation":"LINEAR",
					"output":23
				},
				{
					"input":19,
					"interpolation":"STEP",
					"output":24
				},
				{
					"input":19,
					"interpolation":"STEP",
					"output":25
				},
				{
					"input":19,
					"interpolation":"STEP",
					"output":26
				}
			]
		},
		{
			"channels":[
				{
					"sampler":0,
					"target":{
						"node":2,
						"path":"translation"
					}
				},
				{
					"sampler":1,
					"target":{
						"node":2,
						"path":"rotation"
					}
				},
				{
					"sampler":2,
					"target":{
						"node":2,
						"path":"scale"
					}
				},
				{
					"sampler":3,
					"target":{
						"node":1,
						"path":"translation"
					}
				},
				{
					"sampler":4,
					"target":{
						"node":1,
						"path":"rotation"
					}
				},
				{
					"sampler":5,
					"target":{
						"node":1,
						"path":"scale"
					}
				}
			],
			"name":"idle1",
			"samplers":[
				{
					"input":19,
					"interpolation":"STEP",
					"output":27
				},
				{
					"input":19,
					"interpolation":"STEP",
					"output":28
				},
				{
					"input":22,
					"interpolation":"LINEAR",
					"output":29
				},
				{
					"input":19,
					"interpolation":"STEP",
					"output":30
				},
				{
					"input":19,
					"interpolation":"STEP",
					"output":31
				},
				{
					"input":19,
					"interpolation":"STEP",
					"output":32
				}
			]
		}
	],
	"materials":[
		{
			"emissiveFactor":[
				0.10000000149011612,
				0.10000000149011612,
				0.10000000149011612
			],
			"emissiveTexture":{
				"index":0
			},
			"extensions":{
				"KHR_materials_specular":{
					"specularFactor":0
				}
			},
			"name":"obj_bus",
			"pbrMetallicRoughness":{
				"baseColorTexture":{
					"index":1
				},
				"metallicFactor":0
			}
		}
	],
	"meshes":[
		{
			"name":"obj_bus_collider",
			"primitives":[
				{
					"attributes":{
						"POSITION":0,
						"NORMAL":1,
						"TEXCOORD_0":2,
						"JOINTS_0":3,
						"WEIGHTS_0":4
					},
					"indices":5
				}
			]
		},
		{
			"name":"obj_bus_doors",
			"primitives":[
				{
					"attributes":{
						"POSITION":6,
						"NORMAL":7,
						"TEXCOORD_0":8,
						"JOINTS_0":9,
						"WEIGHTS_0":10
					},
					"indices":11,
					"material":0
				}
			]
		},
		{
			"name":"obj_bus_mesh",
			"primitives":[
				{
					"attributes":{
						"POSITION":13,
						"NORMAL":14,
						"TEXCOORD_0":15,
						"JOINTS_0":16,
						"WEIGHTS_0":17
					},
					"indices":18,
					"material":0
				}
			]
		}
	],
	"textures":[
		{
			"sampler":0,
			"source":0
		},
		{
			"sampler":0,
			"source":0
		}
	],
	"images":[
		{
			"mimeType":"image/png",
			"name":"obj_bus",
			"uri":"textures/obj_bus.png"
		}
	],
	"skins":[
		{
			"inverseBindMatrices":12,
			"joints":[
				2,
				1,
				3
			],
			"name":"obj_bus"
		}
	],
	"accessors":[
		{
			"bufferView":0,
			"componentType":5126,
			"count":24,
			"max":[
				1.2484149932861328,
				2.577906847000122,
				1.682332158088684
			],
			"min":[
				-1.2484149932861328,
				0,
				-1.682332158088684
			],
			"type":"VEC3"
		},
		{
			"bufferView":1,
			"componentType":5126,
			"count":24,
			"type":"VEC3"
		},
		{
			"bufferView":2,
			"componentType":5126,
			"count":24,
			"type":"VEC2"
		},
		{
			"bufferView":3,
			"componentType":5121,
			"count":24,
			"type":"VEC4"
		},
		{
			"bufferView":4,
			"componentType":5126,
			"count":24,
			"type":"VEC4"
		},
		{
			"bufferView":5,
			"componentType":5123,
			"count":36,
			"type":"SCALAR"
		},
		{
			"bufferView":6,
			"componentType":5126,
			"count":128,
			"max":[
				0.8434653282165527,
				1.410354495048523,
				0.3712061047554016
			],
			"min":[
				0.6407217979431152,
				0.39492154121398926,
				-0.5065252184867859
			],
			"type":"VEC3"
		},
		{
			"bufferView":7,
			"componentType":5126,
			"count":128,
			"type":"VEC3"
		},
		{
			"bufferView":8,
			"componentType":5126,
			"count":128,
			"type":"VEC2"
		},
		{
			"bufferView":9,
			"componentType":5121,
			"count":128,
			"type":"VEC4"
		},
		{
			"bufferView":10,
			"componentType":5126,
			"count":128,
			"type":"VEC4"
		},
		{
			"bufferView":11,
			"componentType":5123,
			"count":312,
			"type":"SCALAR"
		},
		{
			"bufferView":12,
			"componentType":5126,
			"count":3,
			"type":"MAT4"
		},
		{
			"bufferView":13,
			"componentType":5126,
			"count":3394,
			"max":[
				1.0818918943405151,
				1.704627513885498,
				1.649095892906189
			],
			"min":[
				-1.0818918943405151,
				0.001565607264637947,
				-1.4806082248687744
			],
			"type":"VEC3"
		},
		{
			"bufferView":14,
			"componentType":5126,
			"count":3394,
			"type":"VEC3"
		},
		{
			"bufferView":15,
			"componentType":5126,
			"count":3394,
			"type":"VEC2"
		},
		{
			"bufferView":16,
			"componentType":5121,
			"count":3394,
			"type":"VEC4"
		},
		{
			"bufferView":17,
			"componentType":5126,
			"count":3394,
			"type":"VEC4"
		},
		{
			"bufferView":18,
			"componentType":5123,
			"count":10944,
			"type":"SCALAR"
		},
		{
			"bufferView":19,
			"componentType":5126,
			"count":2,
			"max":[
				0.625
			],
			"min":[
				0
			],
			"type":"SCALAR"
		},
		{
			"bufferView":20,
			"componentType":5126,
			"count":2,
			"type":"VEC3"
		},
		{
			"bufferView":21,
			"componentType":5126,
			"count":2,
			"type":"VEC4"
		},
		{
			"bufferView":22,
			"componentType":5126,
			"count":16,
			"max":[
				0.625
			],
			"min":[
				0
			],
			"type":"SCALAR"
		},
		{
			"bufferView":23,
			"componentType":5126,
			"count":16,
			"type":"VEC3"
		},
		{
			"bufferView":24,
			"componentType":5126,
			"count":2,
			"type":"VEC3"
		},
		{
			"bufferView":25,
			"componentType":5126,
			"count":2,
			"type":"VEC4"
		},
		{
			"bufferView":26,
			"componentType":5126,
			"count":2,
			"type":"VEC3"
		},
		{
			"bufferView":27,
			"componentType":5126,
			"count":2,
			"type":"VEC3"
		},
		{
			"bufferView":28,
			"componentType":5126,
			"count":2,
			"type":"VEC4"
		},
		{
			"bufferView":29,
			"componentType":5126,
			"count":16,
			"type":"VEC3"
		},
		{
			"bufferView":30,
			"componentType":5126,
			"count":2,
			"type":"VEC3"
		},
		{
			"bufferView":31,
			"componentType":5126,
			"count":2,
			"type":"VEC4"
		},
		{
			"bufferView":32,
			"componentType":5126,
			"count":2,
			"type":"VEC3"
		}
	],
	"bufferViews":[
		{
			"buffer":0,
			"byteLength":288,
			"byteOffset":0,
			"target":34962
		},
		{
			"buffer":0,
			"byteLength":288,
			"byteOffset":288,
			"target":34962
		},
		{
			"buffer":0,
			"byteLength":192,
			"byteOffset":576,
			"target":34962
		},
		{
			"buffer":0,
			"byteLength":96,
			"byteOffset":768,
			"target":34962
		},
		{
			"buffer":0,
			"byteLength":384,
			"byteOffset":864,
			"target":34962
		},
		{
			"buffer":0,
			"byteLength":72,
			"byteOffset":1248,
			"target":34963
		},
		{
			"buffer":0,
			"byteLength":1536,
			"byteOffset":1320,
			"target":34962
		},
		{
			"buffer":0,
			"byteLength":1536,
			"byteOffset":2856,
			"target":34962
		},
		{
			"buffer":0,
			"byteLength":1024,
			"byteOffset":4392,
			"target":34962
		},
		{
			"buffer":0,
			"byteLength":512,
			"byteOffset":5416,
			"target":34962
		},
		{
			"buffer":0,
			"byteLength":2048,
			"byteOffset":5928,
			"target":34962
		},
		{
			"buffer":0,
			"byteLength":624,
			"byteOffset":7976,
			"target":34963
		},
		{
			"buffer":0,
			"byteLength":192,
			"byteOffset":8600
		},
		{
			"buffer":0,
			"byteLength":40728,
			"byteOffset":8792,
			"target":34962
		},
		{
			"buffer":0,
			"byteLength":40728,
			"byteOffset":49520,
			"target":34962
		},
		{
			"buffer":0,
			"byteLength":27152,
			"byteOffset":90248,
			"target":34962
		},
		{
			"buffer":0,
			"byteLength":13576,
			"byteOffset":117400,
			"target":34962
		},
		{
			"buffer":0,
			"byteLength":54304,
			"byteOffset":130976,
			"target":34962
		},
		{
			"buffer":0,
			"byteLength":21888,
			"byteOffset":185280,
			"target":34963
		},
		{
			"buffer":0,
			"byteLength":8,
			"byteOffset":207168
		},
		{
			"buffer":0,
			"byteLength":24,
			"byteOffset":207176
		},
		{
			"buffer":0,
			"byteLength":32,
			"byteOffset":207200
		},
		{
			"buffer":0,
			"byteLength":64,
			"byteOffset":207232
		},
		{
			"buffer":0,
			"byteLength":192,
			"byteOffset":207296
		},
		{
			"buffer":0,
			"byteLength":24,
			"byteOffset":207488
		},
		{
			"buffer":0,
			"byteLength":32,
			"byteOffset":207512
		},
		{
			"buffer":0,
			"byteLength":24,
			"byteOffset":207544
		},
		{
			"buffer":0,
			"byteLength":24,
			"byteOffset":207568
		},
		{
			"buffer":0,
			"byteLength":32,
			"byteOffset":207592
		},
		{
			"buffer":0,
			"byteLength":192,
			"byteOffset":207624
		},
		{
			"buffer":0,
			"byteLength":24,
			"byteOffset":207816
		},
		{
			"buffer":0,
			"byteLength":32,
			"byteOffset":207840
		},
		{
			"buffer":0,
			"byteLength":24,
			"byteOffset":207872
		}
	],
	"samplers":[
		{
			"magFilter":9729,
			"minFilter":9987
		}
	],
	"buffers":[
		{
			"byteLength":207896,
			"uri":"obj_bus.bin"
		}
	]
}
