{
	"asset":{
		"generator":"Khronos glTF Blender I/O v4.2.57",
		"version":"2.0"
	},
	"scene":0,
	"scenes":[
		{
			"name":"Scene",
			"nodes":[
				0,
				1
			]
		}
	],
	"nodes":[
		{
			"mesh":0,
			"name":"obj_panel",
			"rotation":[
				-0.27059805393218994,
				-0.27059805393218994,
				-0.6532815098762512,
				0.6532815098762512
			],
			"translation":[
				0,
				0.6356138586997986,
				-2.4102509021759033
			]
		},
		{
			"mesh":1,
			"name":"obj_panel_collider",
			"rotation":[
				-0.27059805393218994,
				-0.27059805393218994,
				-0.6532815098762512,
				0.6532815098762512
			],
			"translation":[
				0,
				0.6356138586997986,
				-2.4102509021759033
			]
		}
	],
	"materials":[
		{
			"doubleSided":true,
			"name":"purple",
			"pbrMetallicRoughness":{
				"baseColorFactor":[
					0.25415199995040894,
					0.2122267186641693,
					1,
					1
				],
				"metallicFactor":0,
				"roughnessFactor":0.5
			}
		}
	],
	"meshes":[
		{
			"name":"Plane.102",
			"primitives":[
				{
					"attributes":{
						"POSITION":0,
						"NORMAL":1,
						"TEXCOORD_0":2
					},
					"indices":3,
					"material":0
				}
			]
		},
		{
			"name":"Plane.029",
			"primitives":[
				{
					"attributes":{
						"POSITION":4,
						"NORMAL":5,
						"TEXCOORD_0":6
					},
					"indices":3
				}
			]
		}
	],
	"accessors":[
		{
			"bufferView":0,
			"componentType":5126,
			"count":96,
			"max":[
				0.49979403614997864,
				1.2601096630096436,
				0.1342565268278122
			],
			"min":[
				-0.49979403614997864,
				-1.260109543800354,
				-3.068952025842009e-07
			],
			"type":"VEC3"
		},
		{
			"bufferView":1,
			"componentType":5126,
			"count":96,
			"type":"VEC3"
		},
		{
			"bufferView":2,
			"componentType":5126,
			"count":96,
			"type":"VEC2"
		},
		{
			"bufferView":3,
			"componentType":5123,
			"count":204,
			"type":"SCALAR"
		},
		{
			"bufferView":4,
			"componentType":5126,
			"count":96,
			"max":[
				0.49979403614997864,
				1.2601096630096436,
				0.1342565268278122
			],
			"min":[
				-0.49979403614997864,
				-1.260109543800354,
				-3.068952025842009e-07
			],
			"type":"VEC3"
		},
		{
			"bufferView":5,
			"componentType":5126,
			"count":96,
			"type":"VEC3"
		},
		{
			"bufferView":6,
			"componentType":5126,
			"count":96,
			"type":"VEC2"
		}
	],
	"bufferViews":[
		{
			"buffer":0,
			"byteLength":1152,
			"byteOffset":0,
			"target":34962
		},
		{
			"buffer":0,
			"byteLength":1152,
			"byteOffset":1152,
			"target":34962
		},
		{
			"buffer":0,
			"byteLength":768,
			"byteOffset":2304,
			"target":34962
		},
		{
			"buffer":0,
			"byteLength":408,
			"byteOffset":3072,
			"target":34963
		},
		{
			"buffer":0,
			"byteLength":1152,
			"byteOffset":3480,
			"target":34962
		},
		{
			"buffer":0,
			"byteLength":1152,
			"byteOffset":4632,
			"target":34962
		},
		{
			"buffer":0,
			"byteLength":768,
			"byteOffset":5784,
			"target":34962
		}
	],
	"buffers":[
		{
			"byteLength":6552,
			"uri":"obj_panel.bin"
		}
	]
}
