{
	"asset":{
		"generator":"Khronos glTF Blender I/O v4.3.47",
		"version":"2.0"
	},
	"extensionsUsed":[
		"KHR_materials_specular"
	],
	"scene":0,
	"scenes":[
		{
			"name":"Scene",
			"nodes":[
				0,
				1
			]
		}
	],
	"nodes":[
		{
			"mesh":0,
			"name":"obj_bench",
			"scale":[
				1,
				1.160962700843811,
				1
			],
			"translation":[
				-4.818319320678711,
				0.4000000059604645,
				2.3978657722473145
			]
		},
		{
			"mesh":1,
			"name":"obj_bench_collider",
			"scale":[
				1,
				1.160962700843811,
				1
			],
			"translation":[
				-4.818319320678711,
				0.4000000059604645,
				2.3978657722473145
			]
		}
	],
	"materials":[
		{
			"emissiveFactor":[
				0.10000000149011612,
				0.10000000149011612,
				0.10000000149011612
			],
			"emissiveTexture":{
				"index":0
			},
			"extensions":{
				"KHR_materials_specular":{
					"specularFactor":0
				}
			},
			"name":"obj_bench",
			"pbrMetallicRoughness":{
				"baseColorTexture":{
					"index":1
				},
				"metallicFactor":0
			}
		}
	],
	"meshes":[
		{
			"name":"obj_bench",
			"primitives":[
				{
					"attributes":{
						"POSITION":0,
						"NORMAL":1,
						"TEXCOORD_0":2
					},
					"indices":3,
					"material":0
				}
			]
		},
		{
			"name":"obj_bench_collider",
			"primitives":[
				{
					"attributes":{
						"POSITION":4,
						"NORMAL":5,
						"TEXCOORD_0":6
					},
					"indices":7
				}
			]
		}
	],
	"textures":[
		{
			"sampler":0,
			"source":0
		},
		{
			"sampler":0,
			"source":0
		}
	],
	"images":[
		{
			"mimeType":"image/png",
			"name":"obj_bench",
			"uri":"textures/obj_bench.png"
		}
	],
	"accessors":[
		{
			"bufferView":0,
			"componentType":5126,
			"count":1884,
			"max":[
				10.64480972290039,
				0.8203781843185425,
				0.5350338816642761
			],
			"min":[
				-1.008171558380127,
				-1.1920928955078125e-07,
				-0.4653228521347046
			],
			"type":"VEC3"
		},
		{
			"bufferView":1,
			"componentType":5126,
			"count":1884,
			"type":"VEC3"
		},
		{
			"bufferView":2,
			"componentType":5126,
			"count":1884,
			"type":"VEC2"
		},
		{
			"bufferView":3,
			"componentType":5123,
			"count":3072,
			"type":"SCALAR"
		},
		{
			"bufferView":4,
			"componentType":5126,
			"count":432,
			"max":[
				10.650094985961914,
				0.8250032067298889,
				0.5616030097007751
			],
			"min":[
				-1.0134565830230713,
				-0.0038339432794600725,
				-0.4906071722507477
			],
			"type":"VEC3"
		},
		{
			"bufferView":5,
			"componentType":5126,
			"count":432,
			"type":"VEC3"
		},
		{
			"bufferView":6,
			"componentType":5126,
			"count":432,
			"type":"VEC2"
		},
		{
			"bufferView":7,
			"componentType":5123,
			"count":774,
			"type":"SCALAR"
		}
	],
	"bufferViews":[
		{
			"buffer":0,
			"byteLength":22608,
			"byteOffset":0,
			"target":34962
		},
		{
			"buffer":0,
			"byteLength":22608,
			"byteOffset":22608,
			"target":34962
		},
		{
			"buffer":0,
			"byteLength":15072,
			"byteOffset":45216,
			"target":34962
		},
		{
			"buffer":0,
			"byteLength":6144,
			"byteOffset":60288,
			"target":34963
		},
		{
			"buffer":0,
			"byteLength":5184,
			"byteOffset":66432,
			"target":34962
		},
		{
			"buffer":0,
			"byteLength":5184,
			"byteOffset":71616,
			"target":34962
		},
		{
			"buffer":0,
			"byteLength":3456,
			"byteOffset":76800,
			"target":34962
		},
		{
			"buffer":0,
			"byteLength":1548,
			"byteOffset":80256,
			"target":34963
		}
	],
	"samplers":[
		{
			"magFilter":9729,
			"minFilter":9987
		}
	],
	"buffers":[
		{
			"byteLength":81804,
			"uri":"obj_bench.bin"
		}
	]
}
