{
	"asset":{
		"generator":"Khronos glTF Blender I/O v4.2.57",
		"version":"2.0"
	},
	"extensionsUsed":[
		"KHR_materials_specular"
	],
	"scene":0,
	"scenes":[
		{
			"name":"Scene",
			"nodes":[
				0,
				1
			]
		}
	],
	"nodes":[
		{
			"mesh":0,
			"name":"obj_floor"
		},
		{
			"mesh":1,
			"name":"obj_floor_collider"
		}
	],
	"materials":[
		{
			"doubleSided":true,
			"extensions":{
				"KHR_materials_specular":{
					"specularFactor":0
				}
			},
			"name":"obj_floor",
			"pbrMetallicRoughness":{
				"baseColorTexture":{
					"index":0
				},
				"metallicFactor":0
			}
		}
	],
	"meshes":[
		{
			"name":"Plane.026",
			"primitives":[
				{
					"attributes":{
						"POSITION":0,
						"NORMAL":1,
						"TEXCOORD_0":2
					},
					"indices":3,
					"material":0
				}
			]
		},
		{
			"name":"Plane.004",
			"primitives":[
				{
					"attributes":{
						"POSITION":4,
						"NORMAL":5,
						"TEXCOORD_0":6
					},
					"indices":3
				}
			]
		}
	],
	"textures":[
		{
			"sampler":0,
			"source":0
		}
	],
	"images":[
		{
			"mimeType":"image/png",
			"name":"obj_floor",
			"uri":"textures/obj_floor.png"
		}
	],
	"accessors":[
		{
			"bufferView":0,
			"componentType":5126,
			"count":213,
			"max":[
				8.001325607299805,
				0.15000098943710327,
				8
			],
			"min":[
				-8.001325607299805,
				-3.4488764413254103e-06,
				-7.76632833480835
			],
			"type":"VEC3"
		},
		{
			"bufferView":1,
			"componentType":5126,
			"count":213,
			"type":"VEC3"
		},
		{
			"bufferView":2,
			"componentType":5126,
			"count":213,
			"type":"VEC2"
		},
		{
			"bufferView":3,
			"componentType":5123,
			"count":507,
			"type":"SCALAR"
		},
		{
			"bufferView":4,
			"componentType":5126,
			"count":213,
			"max":[
				8.001325607299805,
				0.15000098943710327,
				8
			],
			"min":[
				-8.001325607299805,
				-3.4488764413254103e-06,
				-7.76632833480835
			],
			"type":"VEC3"
		},
		{
			"bufferView":5,
			"componentType":5126,
			"count":213,
			"type":"VEC3"
		},
		{
			"bufferView":6,
			"componentType":5126,
			"count":213,
			"type":"VEC2"
		}
	],
	"bufferViews":[
		{
			"buffer":0,
			"byteLength":2556,
			"byteOffset":0,
			"target":34962
		},
		{
			"buffer":0,
			"byteLength":2556,
			"byteOffset":2556,
			"target":34962
		},
		{
			"buffer":0,
			"byteLength":1704,
			"byteOffset":5112,
			"target":34962
		},
		{
			"buffer":0,
			"byteLength":1014,
			"byteOffset":6816,
			"target":34963
		},
		{
			"buffer":0,
			"byteLength":2556,
			"byteOffset":7832,
			"target":34962
		},
		{
			"buffer":0,
			"byteLength":2556,
			"byteOffset":10388,
			"target":34962
		},
		{
			"buffer":0,
			"byteLength":1704,
			"byteOffset":12944,
			"target":34962
		}
	],
	"samplers":[
		{
			"magFilter":9729,
			"minFilter":9987
		}
	],
	"buffers":[
		{
			"byteLength":14648,
			"uri":"obj_floor.bin"
		}
	]
}
