{
	"asset":{
		"generator":"Khronos glTF Blender I/O v4.2.57",
		"version":"2.0"
	},
	"extensionsUsed":[
		"KHR_materials_specular"
	],
	"scene":0,
	"scenes":[
		{
			"name":"Scene",
			"nodes":[
				0,
				1
			]
		}
	],
	"nodes":[
		{
			"mesh":0,
			"name":"obj_bench",
			"scale":[
				1,
				1.160962700843811,
				1
			],
			"translation":[
				0,
				0.11883614212274551,
				4.310177803039551
			]
		},
		{
			"mesh":1,
			"name":"obj_bench_collider",
			"scale":[
				1,
				1.160962700843811,
				1
			],
			"translation":[
				0,
				0.11883614212274551,
				4.310177803039551
			]
		}
	],
	"materials":[
		{
			"doubleSided":true,
			"emissiveFactor":[
				0.10000000149011612,
				0.10000000149011612,
				0.10000000149011612
			],
			"emissiveTexture":{
				"index":0
			},
			"extensions":{
				"KHR_materials_specular":{
					"specularFactor":0
				}
			},
			"name":"Material.001",
			"pbrMetallicRoughness":{
				"baseColorTexture":{
					"index":1
				},
				"metallicFactor":0
			}
		}
	],
	"meshes":[
		{
			"name":"Bounding Box Mesh.011",
			"primitives":[
				{
					"attributes":{
						"POSITION":0,
						"NORMAL":1,
						"TEXCOORD_0":2
					},
					"indices":3,
					"material":0
				}
			]
		},
		{
			"name":"Bounding Box Mesh.013",
			"primitives":[
				{
					"attributes":{
						"POSITION":4,
						"NORMAL":5,
						"TEXCOORD_0":6
					},
					"indices":3
				}
			]
		}
	],
	"textures":[
		{
			"sampler":0,
			"source":0
		},
		{
			"sampler":0,
			"source":0
		}
	],
	"images":[
		{
			"mimeType":"image/png",
			"name":"obj_bench",
			"uri":"textures/obj_bench.png"
		}
	],
	"accessors":[
		{
			"bufferView":0,
			"componentType":5126,
			"count":3264,
			"max":[
				6.6924333572387695,
				1.0194369554519653,
				3.2252142429351807
			],
			"min":[
				-6.6924333572387695,
				0.1990586519241333,
				-3.2252142429351807
			],
			"type":"VEC3"
		},
		{
			"bufferView":1,
			"componentType":5126,
			"count":3264,
			"type":"VEC3"
		},
		{
			"bufferView":2,
			"componentType":5126,
			"count":3264,
			"type":"VEC2"
		},
		{
			"bufferView":3,
			"componentType":5123,
			"count":11712,
			"type":"SCALAR"
		},
		{
			"bufferView":4,
			"componentType":5126,
			"count":3264,
			"max":[
				6.6924333572387695,
				1.0194369554519653,
				3.2252142429351807
			],
			"min":[
				-6.6924333572387695,
				0.1990586519241333,
				-3.2252142429351807
			],
			"type":"VEC3"
		},
		{
			"bufferView":5,
			"componentType":5126,
			"count":3264,
			"type":"VEC3"
		},
		{
			"bufferView":6,
			"componentType":5126,
			"count":3264,
			"type":"VEC2"
		}
	],
	"bufferViews":[
		{
			"buffer":0,
			"byteLength":39168,
			"byteOffset":0,
			"target":34962
		},
		{
			"buffer":0,
			"byteLength":39168,
			"byteOffset":39168,
			"target":34962
		},
		{
			"buffer":0,
			"byteLength":26112,
			"byteOffset":78336,
			"target":34962
		},
		{
			"buffer":0,
			"byteLength":23424,
			"byteOffset":104448,
			"target":34963
		},
		{
			"buffer":0,
			"byteLength":39168,
			"byteOffset":127872,
			"target":34962
		},
		{
			"buffer":0,
			"byteLength":39168,
			"byteOffset":167040,
			"target":34962
		},
		{
			"buffer":0,
			"byteLength":26112,
			"byteOffset":206208,
			"target":34962
		}
	],
	"samplers":[
		{
			"magFilter":9729,
			"minFilter":9987
		}
	],
	"buffers":[
		{
			"byteLength":232320,
			"uri":"obj_bench.bin"
		}
	]
}
