{
	"asset":{
		"generator":"Khronos glTF Blender I/O v4.3.47",
		"version":"2.0"
	},
	"extensionsUsed":[
		"KHR_materials_specular"
	],
	"scene":0,
	"scenes":[
		{
			"name":"Scene",
			"nodes":[
				0,
				1
			]
		}
	],
	"nodes":[
		{
			"mesh":0,
			"name":"obj_wall"
		},
		{
			"mesh":1,
			"name":"obj_wall_collider"
		}
	],
	"materials":[
		{
			"emissiveFactor":[
				0.10000000149011612,
				0.10000000149011612,
				0.10000000149011612
			],
			"emissiveTexture":{
				"index":0
			},
			"extensions":{
				"KHR_materials_specular":{
					"specularFactor":0
				}
			},
			"name":"obj_wall",
			"pbrMetallicRoughness":{
				"baseColorTexture":{
					"index":1
				},
				"metallicFactor":0
			}
		}
	],
	"meshes":[
		{
			"name":"obj_wall",
			"primitives":[
				{
					"attributes":{
						"POSITION":0,
						"NORMAL":1,
						"TEXCOORD_0":2
					},
					"indices":3,
					"material":0
				}
			]
		},
		{
			"name":"obj_wall_collider",
			"primitives":[
				{
					"attributes":{
						"POSITION":4,
						"NORMAL":5,
						"TEXCOORD_0":6
					},
					"indices":7
				}
			]
		}
	],
	"textures":[
		{
			"sampler":0,
			"source":0
		},
		{
			"sampler":0,
			"source":0
		}
	],
	"images":[
		{
			"mimeType":"image/png",
			"name":"obj_wall",
			"uri":"textures/obj_wall.png"
		}
	],
	"accessors":[
		{
			"bufferView":0,
			"componentType":5126,
			"count":2388,
			"max":[
				7.197134017944336,
				8.663333892822266,
				7.484223365783691
			],
			"min":[
				-7.197134971618652,
				0.1438581496477127,
				-7.081614971160889
			],
			"type":"VEC3"
		},
		{
			"bufferView":1,
			"componentType":5126,
			"count":2388,
			"type":"VEC3"
		},
		{
			"bufferView":2,
			"componentType":5126,
			"count":2388,
			"type":"VEC2"
		},
		{
			"bufferView":3,
			"componentType":5123,
			"count":5832,
			"type":"SCALAR"
		},
		{
			"bufferView":4,
			"componentType":5126,
			"count":470,
			"max":[
				7.19976806640625,
				8.663333892822266,
				7.487207889556885
			],
			"min":[
				-7.201100826263428,
				0.1438581496477127,
				-7.086467266082764
			],
			"type":"VEC3"
		},
		{
			"bufferView":5,
			"componentType":5126,
			"count":470,
			"type":"VEC3"
		},
		{
			"bufferView":6,
			"componentType":5126,
			"count":470,
			"type":"VEC2"
		},
		{
			"bufferView":7,
			"componentType":5123,
			"count":1098,
			"type":"SCALAR"
		}
	],
	"bufferViews":[
		{
			"buffer":0,
			"byteLength":28656,
			"byteOffset":0,
			"target":34962
		},
		{
			"buffer":0,
			"byteLength":28656,
			"byteOffset":28656,
			"target":34962
		},
		{
			"buffer":0,
			"byteLength":19104,
			"byteOffset":57312,
			"target":34962
		},
		{
			"buffer":0,
			"byteLength":11664,
			"byteOffset":76416,
			"target":34963
		},
		{
			"buffer":0,
			"byteLength":5640,
			"byteOffset":88080,
			"target":34962
		},
		{
			"buffer":0,
			"byteLength":5640,
			"byteOffset":93720,
			"target":34962
		},
		{
			"buffer":0,
			"byteLength":3760,
			"byteOffset":99360,
			"target":34962
		},
		{
			"buffer":0,
			"byteLength":2196,
			"byteOffset":103120,
			"target":34963
		}
	],
	"samplers":[
		{
			"magFilter":9729,
			"minFilter":9987
		}
	],
	"buffers":[
		{
			"byteLength":105316,
			"uri":"obj_wall.bin"
		}
	]
}
