{
	"asset":{
		"generator":"Khronos glTF Blender I/O v4.3.47",
		"version":"2.0"
	},
	"extensionsUsed":[
		"KHR_materials_specular"
	],
	"scene":0,
	"scenes":[
		{
			"name":"Scene",
			"nodes":[
				0,
				1
			]
		}
	],
	"nodes":[
		{
			"mesh":0,
			"name":"obj_clouds"
		},
		{
			"mesh":1,
			"name":"obj_clouds_collider"
		}
	],
	"materials":[
		{
			"emissiveFactor":[
				0.15000000596046448,
				0.15000000596046448,
				0.15000000596046448
			],
			"emissiveTexture":{
				"index":0
			},
			"extensions":{
				"KHR_materials_specular":{
					"specularFactor":0
				}
			},
			"name":"obj_clouds",
			"pbrMetallicRoughness":{
				"baseColorTexture":{
					"index":1
				},
				"metallicFactor":0
			}
		}
	],
	"meshes":[
		{
			"name":"obj_clouds",
			"primitives":[
				{
					"attributes":{
						"POSITION":0,
						"NORMAL":1,
						"TEXCOORD_0":2
					},
					"indices":3,
					"material":0
				}
			]
		},
		{
			"name":"obj_clouds_collider",
			"primitives":[
				{
					"attributes":{
						"POSITION":4,
						"NORMAL":5,
						"TEXCOORD_0":6
					},
					"indices":7
				}
			]
		}
	],
	"textures":[
		{
			"sampler":0,
			"source":0
		},
		{
			"sampler":0,
			"source":0
		}
	],
	"images":[
		{
			"mimeType":"image/png",
			"name":"obj_clouds",
			"uri":"textures/obj_clouds.png"
		}
	],
	"accessors":[
		{
			"bufferView":0,
			"componentType":5126,
			"count":1503,
			"max":[
				7.529086112976074,
				5.063962459564209,
				7.67446231842041
			],
			"min":[
				-7.529086112976074,
				0.13461899757385254,
				-7.382769584655762
			],
			"type":"VEC3"
		},
		{
			"bufferView":1,
			"componentType":5126,
			"count":1503,
			"type":"VEC3"
		},
		{
			"bufferView":2,
			"componentType":5126,
			"count":1503,
			"type":"VEC2"
		},
		{
			"bufferView":3,
			"componentType":5123,
			"count":3981,
			"type":"SCALAR"
		},
		{
			"bufferView":4,
			"componentType":5126,
			"count":512,
			"max":[
				7.529086112976074,
				3.944617748260498,
				7.67446231842041
			],
			"min":[
				-7.529086112976074,
				0.13461899757385254,
				-7.382769584655762
			],
			"type":"VEC3"
		},
		{
			"bufferView":5,
			"componentType":5126,
			"count":512,
			"type":"VEC3"
		},
		{
			"bufferView":6,
			"componentType":5126,
			"count":512,
			"type":"VEC2"
		},
		{
			"bufferView":7,
			"componentType":5123,
			"count":1302,
			"type":"SCALAR"
		}
	],
	"bufferViews":[
		{
			"buffer":0,
			"byteLength":18036,
			"byteOffset":0,
			"target":34962
		},
		{
			"buffer":0,
			"byteLength":18036,
			"byteOffset":18036,
			"target":34962
		},
		{
			"buffer":0,
			"byteLength":12024,
			"byteOffset":36072,
			"target":34962
		},
		{
			"buffer":0,
			"byteLength":7962,
			"byteOffset":48096,
			"target":34963
		},
		{
			"buffer":0,
			"byteLength":6144,
			"byteOffset":56060,
			"target":34962
		},
		{
			"buffer":0,
			"byteLength":6144,
			"byteOffset":62204,
			"target":34962
		},
		{
			"buffer":0,
			"byteLength":4096,
			"byteOffset":68348,
			"target":34962
		},
		{
			"buffer":0,
			"byteLength":2604,
			"byteOffset":72444,
			"target":34963
		}
	],
	"samplers":[
		{
			"magFilter":9729,
			"minFilter":9987
		}
	],
	"buffers":[
		{
			"byteLength":75048,
			"uri":"obj_clouds.bin"
		}
	]
}
