{
	"asset":{
		"generator":"Khronos glTF Blender I/O v4.2.57",
		"version":"2.0"
	},
	"extensionsUsed":[
		"KHR_materials_specular",
		"KHR_materials_ior"
	],
	"scene":0,
	"scenes":[
		{
			"name":"Scene",
			"nodes":[
				0,
				1
			]
		}
	],
	"nodes":[
		{
			"mesh":0,
			"name":"obj_wall"
		},
		{
			"mesh":1,
			"name":"obj_wall_collider"
		}
	],
	"materials":[
		{
			"alphaMode":"MASK",
			"doubleSided":true,
			"extensions":{
				"KHR_materials_specular":{
					"specularFactor":0
				},
				"KHR_materials_ior":{
					"ior":1.4500000476837158
				}
			},
			"name":"obj_circus03",
			"pbrMetallicRoughness":{
				"baseColorTexture":{
					"index":0
				},
				"metallicFactor":0
			}
		},
		{
			"doubleSided":true,
			"extensions":{
				"KHR_materials_specular":{
					"specularFactor":0
				},
				"KHR_materials_ior":{
					"ior":1.4500000476837158
				}
			},
			"name":"obj_circus01",
			"pbrMetallicRoughness":{
				"baseColorTexture":{
					"index":1
				},
				"metallicFactor":0
			}
		},
		{
			"alphaMode":"MASK",
			"doubleSided":true,
			"extensions":{
				"KHR_materials_specular":{
					"specularFactor":0
				},
				"KHR_materials_ior":{
					"ior":1.4500000476837158
				}
			},
			"name":"obj_circus02",
			"pbrMetallicRoughness":{
				"baseColorTexture":{
					"index":2
				},
				"metallicFactor":0
			}
		},
		{
			"doubleSided":true,
			"emissiveFactor":[
				0.8962693810462952,
				0.4620766043663025,
				0.001821317127905786
			],
			"name":"obj_circus_emission",
			"pbrMetallicRoughness":{
				"baseColorFactor":[
					0.8962693810462952,
					0.4620766043663025,
					0.001821317127905786,
					1
				],
				"metallicFactor":0,
				"roughnessFactor":0.5
			}
		}
	],
	"meshes":[
		{
			"name":"Mesh.168",
			"primitives":[
				{
					"attributes":{
						"POSITION":0,
						"NORMAL":1,
						"TEXCOORD_0":2
					},
					"indices":3,
					"material":0
				},
				{
					"attributes":{
						"POSITION":4,
						"NORMAL":5,
						"TEXCOORD_0":6
					},
					"indices":7,
					"material":1
				},
				{
					"attributes":{
						"POSITION":8,
						"NORMAL":9,
						"TEXCOORD_0":10
					},
					"indices":11,
					"material":2
				},
				{
					"attributes":{
						"POSITION":12,
						"NORMAL":13,
						"TEXCOORD_0":14
					},
					"indices":15,
					"material":3
				}
			]
		},
		{
			"name":"Mesh.002",
			"primitives":[
				{
					"attributes":{
						"POSITION":16,
						"NORMAL":17,
						"TEXCOORD_0":18
					},
					"indices":19
				}
			]
		}
	],
	"textures":[
		{
			"sampler":0,
			"source":0
		},
		{
			"sampler":0,
			"source":1
		},
		{
			"sampler":0,
			"source":2
		}
	],
	"images":[
		{
			"mimeType":"image/png",
			"name":"obj_circus03",
			"uri":"textures/obj_circus03.png"
		},
		{
			"mimeType":"image/png",
			"name":"obj_circus01",
			"uri":"textures/obj_circus01.png"
		},
		{
			"mimeType":"image/png",
			"name":"obj_circus02",
			"uri":"textures/obj_circus02.png"
		}
	],
	"accessors":[
		{
			"bufferView":0,
			"componentType":5126,
			"count":1286,
			"max":[
				7.529999732971191,
				6.8598127365112305,
				6.86714506149292
			],
			"min":[
				-7.529999732971191,
				0.1366097629070282,
				-7.600001811981201
			],
			"type":"VEC3"
		},
		{
			"bufferView":1,
			"componentType":5126,
			"count":1286,
			"type":"VEC3"
		},
		{
			"bufferView":2,
			"componentType":5126,
			"count":1286,
			"type":"VEC2"
		},
		{
			"bufferView":3,
			"componentType":5123,
			"count":5700,
			"type":"SCALAR"
		},
		{
			"bufferView":4,
			"componentType":5126,
			"count":3010,
			"max":[
				7.584267616271973,
				9.655816078186035,
				7.78176212310791
			],
			"min":[
				-7.584268569946289,
				-0.06586669385433197,
				-7.76617431640625
			],
			"type":"VEC3"
		},
		{
			"bufferView":5,
			"componentType":5126,
			"count":3010,
			"type":"VEC3"
		},
		{
			"bufferView":6,
			"componentType":5126,
			"count":3010,
			"type":"VEC2"
		},
		{
			"bufferView":7,
			"componentType":5123,
			"count":9102,
			"type":"SCALAR"
		},
		{
			"bufferView":8,
			"componentType":5126,
			"count":2196,
			"max":[
				7.980826377868652,
				9.318486213684082,
				7.45906925201416
			],
			"min":[
				-7.980826377868652,
				0.1500002145767212,
				-7.865564823150635
			],
			"type":"VEC3"
		},
		{
			"bufferView":9,
			"componentType":5126,
			"count":2196,
			"type":"VEC3"
		},
		{
			"bufferView":10,
			"componentType":5126,
			"count":2196,
			"type":"VEC2"
		},
		{
			"bufferView":11,
			"componentType":5123,
			"count":5760,
			"type":"SCALAR"
		},
		{
			"bufferView":12,
			"componentType":5126,
			"count":1197,
			"max":[
				6.579001426696777,
				6.069746494293213,
				7.084226131439209
			],
			"min":[
				-6.579002380371094,
				-0.004658340010792017,
				-6.500284194946289
			],
			"type":"VEC3"
		},
		{
			"bufferView":13,
			"componentType":5126,
			"count":1197,
			"type":"VEC3"
		},
		{
			"bufferView":14,
			"componentType":5126,
			"count":1197,
			"type":"VEC2"
		},
		{
			"bufferView":15,
			"componentType":5123,
			"count":3192,
			"type":"SCALAR"
		},
		{
			"bufferView":16,
			"componentType":5126,
			"count":7689,
			"max":[
				7.980826377868652,
				9.655816078186035,
				7.78176212310791
			],
			"min":[
				-7.980826377868652,
				-0.06586669385433197,
				-7.865564823150635
			],
			"type":"VEC3"
		},
		{
			"bufferView":17,
			"componentType":5126,
			"count":7689,
			"type":"VEC3"
		},
		{
			"bufferView":18,
			"componentType":5126,
			"count":7689,
			"type":"VEC2"
		},
		{
			"bufferView":19,
			"componentType":5123,
			"count":23754,
			"type":"SCALAR"
		}
	],
	"bufferViews":[
		{
			"buffer":0,
			"byteLength":15432,
			"byteOffset":0,
			"target":34962
		},
		{
			"buffer":0,
			"byteLength":15432,
			"byteOffset":15432,
			"target":34962
		},
		{
			"buffer":0,
			"byteLength":10288,
			"byteOffset":30864,
			"target":34962
		},
		{
			"buffer":0,
			"byteLength":11400,
			"byteOffset":41152,
			"target":34963
		},
		{
			"buffer":0,
			"byteLength":36120,
			"byteOffset":52552,
			"target":34962
		},
		{
			"buffer":0,
			"byteLength":36120,
			"byteOffset":88672,
			"target":34962
		},
		{
			"buffer":0,
			"byteLength":24080,
			"byteOffset":124792,
			"target":34962
		},
		{
			"buffer":0,
			"byteLength":18204,
			"byteOffset":148872,
			"target":34963
		},
		{
			"buffer":0,
			"byteLength":26352,
			"byteOffset":167076,
			"target":34962
		},
		{
			"buffer":0,
			"byteLength":26352,
			"byteOffset":193428,
			"target":34962
		},
		{
			"buffer":0,
			"byteLength":17568,
			"byteOffset":219780,
			"target":34962
		},
		{
			"buffer":0,
			"byteLength":11520,
			"byteOffset":237348,
			"target":34963
		},
		{
			"buffer":0,
			"byteLength":14364,
			"byteOffset":248868,
			"target":34962
		},
		{
			"buffer":0,
			"byteLength":14364,
			"byteOffset":263232,
			"target":34962
		},
		{
			"buffer":0,
			"byteLength":9576,
			"byteOffset":277596,
			"target":34962
		},
		{
			"buffer":0,
			"byteLength":6384,
			"byteOffset":287172,
			"target":34963
		},
		{
			"buffer":0,
			"byteLength":92268,
			"byteOffset":293556,
			"target":34962
		},
		{
			"buffer":0,
			"byteLength":92268,
			"byteOffset":385824,
			"target":34962
		},
		{
			"buffer":0,
			"byteLength":61512,
			"byteOffset":478092,
			"target":34962
		},
		{
			"buffer":0,
			"byteLength":47508,
			"byteOffset":539604,
			"target":34963
		}
	],
	"samplers":[
		{
			"magFilter":9729,
			"minFilter":9987
		}
	],
	"buffers":[
		{
			"byteLength":587112,
			"uri":"obj_wall.bin"
		}
	]
}
