{
	"asset":{
		"generator":"Khronos glTF Blender I/O v4.3.47",
		"version":"2.0"
	},
	"extensionsUsed":[
		"KHR_materials_specular"
	],
	"scene":0,
	"scenes":[
		{
			"name":"Scene",
			"nodes":[
				0,
				1
			]
		}
	],
	"nodes":[
		{
			"mesh":0,
			"name":"obj_bench"
		},
		{
			"mesh":1,
			"name":"obj_bench_collider"
		}
	],
	"materials":[
		{
			"emissiveFactor":[
				0.05000000074505806,
				0.05000000074505806,
				0.05000000074505806
			],
			"emissiveTexture":{
				"index":0
			},
			"extensions":{
				"KHR_materials_specular":{
					"specularFactor":0
				}
			},
			"name":"obj_circus05",
			"pbrMetallicRoughness":{
				"baseColorTexture":{
					"index":1
				},
				"metallicFactor":0
			}
		}
	],
	"meshes":[
		{
			"name":"obj_bench",
			"primitives":[
				{
					"attributes":{
						"POSITION":0,
						"NORMAL":1,
						"TEXCOORD_0":2
					},
					"indices":3,
					"material":0
				}
			]
		},
		{
			"name":"obj_bench_collider",
			"primitives":[
				{
					"attributes":{
						"POSITION":4,
						"NORMAL":5,
						"TEXCOORD_0":6
					},
					"indices":7
				}
			]
		}
	],
	"textures":[
		{
			"sampler":0,
			"source":0
		},
		{
			"sampler":0,
			"source":0
		}
	],
	"images":[
		{
			"mimeType":"image/png",
			"name":"obj_circus05",
			"uri":"textures/obj_circus05.png"
		}
	],
	"accessors":[
		{
			"bufferView":0,
			"componentType":5126,
			"count":664,
			"max":[
				5.461647033691406,
				0.7611053586006165,
				6.495269775390625
			],
			"min":[
				-5.469192981719971,
				0.1500001698732376,
				1.6791822910308838
			],
			"type":"VEC3"
		},
		{
			"bufferView":1,
			"componentType":5126,
			"count":664,
			"type":"VEC3"
		},
		{
			"bufferView":2,
			"componentType":5126,
			"count":664,
			"type":"VEC2"
		},
		{
			"bufferView":3,
			"componentType":5123,
			"count":2148,
			"type":"SCALAR"
		},
		{
			"bufferView":4,
			"componentType":5126,
			"count":132,
			"max":[
				5.480454444885254,
				0.7611067891120911,
				6.514077186584473
			],
			"min":[
				-5.488000392913818,
				0.15000079572200775,
				1.6603747606277466
			],
			"type":"VEC3"
		},
		{
			"bufferView":5,
			"componentType":5126,
			"count":132,
			"type":"VEC3"
		},
		{
			"bufferView":6,
			"componentType":5126,
			"count":132,
			"type":"VEC2"
		},
		{
			"bufferView":7,
			"componentType":5123,
			"count":288,
			"type":"SCALAR"
		}
	],
	"bufferViews":[
		{
			"buffer":0,
			"byteLength":7968,
			"byteOffset":0,
			"target":34962
		},
		{
			"buffer":0,
			"byteLength":7968,
			"byteOffset":7968,
			"target":34962
		},
		{
			"buffer":0,
			"byteLength":5312,
			"byteOffset":15936,
			"target":34962
		},
		{
			"buffer":0,
			"byteLength":4296,
			"byteOffset":21248,
			"target":34963
		},
		{
			"buffer":0,
			"byteLength":1584,
			"byteOffset":25544,
			"target":34962
		},
		{
			"buffer":0,
			"byteLength":1584,
			"byteOffset":27128,
			"target":34962
		},
		{
			"buffer":0,
			"byteLength":1056,
			"byteOffset":28712,
			"target":34962
		},
		{
			"buffer":0,
			"byteLength":576,
			"byteOffset":29768,
			"target":34963
		}
	],
	"samplers":[
		{
			"magFilter":9729,
			"minFilter":9987
		}
	],
	"buffers":[
		{
			"byteLength":30344,
			"uri":"obj_bench.bin"
		}
	]
}
