{
	"asset":{
		"generator":"Khronos glTF Blender I/O v4.2.57",
		"version":"2.0"
	},
	"extensionsUsed":[
		"KHR_materials_specular"
	],
	"scene":0,
	"scenes":[
		{
			"name":"Scene",
			"nodes":[
				0,
				1
			]
		}
	],
	"nodes":[
		{
			"mesh":0,
			"name":"obj_logo"
		},
		{
			"mesh":1,
			"name":"obj_logo_collider"
		}
	],
	"materials":[
		{
			"doubleSided":true,
			"emissiveFactor":[
				0.10000000149011612,
				0.10000000149011612,
				0.10000000149011612
			],
			"emissiveTexture":{
				"index":0
			},
			"extensions":{
				"KHR_materials_specular":{
					"specularFactor":0
				}
			},
			"name":"obj_logo",
			"pbrMetallicRoughness":{
				"baseColorTexture":{
					"index":1
				},
				"metallicFactor":0
			}
		}
	],
	"meshes":[
		{
			"name":"Mesh.025",
			"primitives":[
				{
					"attributes":{
						"POSITION":0,
						"NORMAL":1,
						"TEXCOORD_0":2
					},
					"indices":3,
					"material":0
				}
			]
		},
		{
			"name":"Mesh.029",
			"primitives":[
				{
					"attributes":{
						"POSITION":4,
						"NORMAL":5,
						"TEXCOORD_0":6
					},
					"indices":3
				}
			]
		}
	],
	"textures":[
		{
			"sampler":0,
			"source":0
		},
		{
			"sampler":0,
			"source":0
		}
	],
	"images":[
		{
			"mimeType":"image/png",
			"name":"obj_logo",
			"uri":"textures/obj_logo.png"
		}
	],
	"accessors":[
		{
			"bufferView":0,
			"componentType":5126,
			"count":3012,
			"max":[
				6.427178382873535,
				7.024362564086914,
				6.715628147125244
			],
			"min":[
				-6.418105125427246,
				4.352457523345947,
				-6.306901454925537
			],
			"type":"VEC3"
		},
		{
			"bufferView":1,
			"componentType":5126,
			"count":3012,
			"type":"VEC3"
		},
		{
			"bufferView":2,
			"componentType":5126,
			"count":3012,
			"type":"VEC2"
		},
		{
			"bufferView":3,
			"componentType":5123,
			"count":6060,
			"type":"SCALAR"
		},
		{
			"bufferView":4,
			"componentType":5126,
			"count":3012,
			"max":[
				6.427178382873535,
				7.024362564086914,
				6.715628147125244
			],
			"min":[
				-6.418105125427246,
				4.352457523345947,
				-6.306901454925537
			],
			"type":"VEC3"
		},
		{
			"bufferView":5,
			"componentType":5126,
			"count":3012,
			"type":"VEC3"
		},
		{
			"bufferView":6,
			"componentType":5126,
			"count":3012,
			"type":"VEC2"
		}
	],
	"bufferViews":[
		{
			"buffer":0,
			"byteLength":36144,
			"byteOffset":0,
			"target":34962
		},
		{
			"buffer":0,
			"byteLength":36144,
			"byteOffset":36144,
			"target":34962
		},
		{
			"buffer":0,
			"byteLength":24096,
			"byteOffset":72288,
			"target":34962
		},
		{
			"buffer":0,
			"byteLength":12120,
			"byteOffset":96384,
			"target":34963
		},
		{
			"buffer":0,
			"byteLength":36144,
			"byteOffset":108504,
			"target":34962
		},
		{
			"buffer":0,
			"byteLength":36144,
			"byteOffset":144648,
			"target":34962
		},
		{
			"buffer":0,
			"byteLength":24096,
			"byteOffset":180792,
			"target":34962
		}
	],
	"samplers":[
		{
			"magFilter":9729,
			"minFilter":9987
		}
	],
	"buffers":[
		{
			"byteLength":204888,
			"uri":"obj_logo.bin"
		}
	]
}
