{
	"asset":{
		"generator":"Khronos glTF Blender I/O v4.3.47",
		"version":"2.0"
	},
	"extensionsUsed":[
		"KHR_materials_specular"
	],
	"scene":0,
	"scenes":[
		{
			"name":"Scene",
			"nodes":[
				0
			]
		}
	],
	"nodes":[
		{
			"mesh":0,
			"name":"obj_toy06"
		}
	],
	"materials":[
		{
			"emissiveFactor":[
				0.10000000149011612,
				0.10000000149011612,
				0.10000000149011612
			],
			"emissiveTexture":{
				"index":0
			},
			"extensions":{
				"KHR_materials_specular":{
					"specularFactor":0
				}
			},
			"name":"obj_toy06",
			"pbrMetallicRoughness":{
				"baseColorTexture":{
					"index":1
				},
				"metallicFactor":0
			}
		}
	],
	"meshes":[
		{
			"name":"obj_toy06",
			"primitives":[
				{
					"attributes":{
						"POSITION":0,
						"NORMAL":1,
						"TEXCOORD_0":2
					},
					"indices":3,
					"material":0
				}
			]
		}
	],
	"textures":[
		{
			"sampler":0,
			"source":0
		},
		{
			"sampler":0,
			"source":0
		}
	],
	"images":[
		{
			"mimeType":"image/png",
			"name":"obj_toy06",
			"uri":"textures/obj_toy06.png"
		}
	],
	"accessors":[
		{
			"bufferView":0,
			"componentType":5126,
			"count":1048,
			"max":[
				0.2854895293712616,
				0.18545880913734436,
				0.23541592061519623
			],
			"min":[
				-0.28548315167427063,
				-0.17649085819721222,
				-0.2354150414466858
			],
			"type":"VEC3"
		},
		{
			"bufferView":1,
			"componentType":5126,
			"count":1048,
			"type":"VEC3"
		},
		{
			"bufferView":2,
			"componentType":5126,
			"count":1048,
			"type":"VEC2"
		},
		{
			"bufferView":3,
			"componentType":5123,
			"count":1500,
			"type":"SCALAR"
		}
	],
	"bufferViews":[
		{
			"buffer":0,
			"byteLength":12576,
			"byteOffset":0,
			"target":34962
		},
		{
			"buffer":0,
			"byteLength":12576,
			"byteOffset":12576,
			"target":34962
		},
		{
			"buffer":0,
			"byteLength":8384,
			"byteOffset":25152,
			"target":34962
		},
		{
			"buffer":0,
			"byteLength":3000,
			"byteOffset":33536,
			"target":34963
		}
	],
	"samplers":[
		{
			"magFilter":9729,
			"minFilter":9987
		}
	],
	"buffers":[
		{
			"byteLength":36536,
			"uri":"obj_toy06.bin"
		}
	]
}
