{
	"asset":{
		"generator":"Khronos glTF Blender I/O v4.2.57",
		"version":"2.0"
	},
	"scene":0,
	"scenes":[
		{
			"name":"Scene",
			"nodes":[
				0,
				1
			]
		}
	],
	"nodes":[
		{
			"mesh":0,
			"name":"obj_floor"
		},
		{
			"mesh":1,
			"name":"obj_floor_collider"
		}
	],
	"materials":[
		{
			"doubleSided":true,
			"name":"Floor3",
			"pbrMetallicRoughness":{
				"baseColorFactor":[
					0.5,
					0.5,
					0.5,
					1
				],
				"metallicFactor":0,
				"roughnessFactor":0.5527864098548889
			}
		},
		{
			"doubleSided":true,
			"name":"Floor2",
			"pbrMetallicRoughness":{
				"baseColorFactor":[
					0.5,
					0.5,
					0.5,
					1
				],
				"metallicFactor":0,
				"roughnessFactor":0.5527864098548889
			}
		}
	],
	"meshes":[
		{
			"name":"Mesh.221",
			"primitives":[
				{
					"attributes":{
						"POSITION":0,
						"NORMAL":1,
						"TEXCOORD_0":2
					},
					"indices":3,
					"material":0
				},
				{
					"attributes":{
						"POSITION":4,
						"NORMAL":5,
						"TEXCOORD_0":6
					},
					"indices":7,
					"material":1
				}
			]
		},
		{
			"name":"Mesh.319",
			"primitives":[
				{
					"attributes":{
						"POSITION":8,
						"NORMAL":9,
						"TEXCOORD_0":10
					},
					"indices":11
				}
			]
		}
	],
	"accessors":[
		{
			"bufferView":0,
			"componentType":5126,
			"count":217,
			"max":[
				8,
				0.2154291570186615,
				8
			],
			"min":[
				-8,
				-6.039831532689277e-07,
				-8
			],
			"type":"VEC3"
		},
		{
			"bufferView":1,
			"componentType":5126,
			"count":217,
			"type":"VEC3"
		},
		{
			"bufferView":2,
			"componentType":5126,
			"count":217,
			"type":"VEC2"
		},
		{
			"bufferView":3,
			"componentType":5123,
			"count":636,
			"type":"SCALAR"
		},
		{
			"bufferView":4,
			"componentType":5126,
			"count":158,
			"max":[
				7.53000020980835,
				0.6287219524383545,
				-0.07000255584716797
			],
			"min":[
				-7.53000020980835,
				0.14999920129776,
				-7.600002288818359
			],
			"type":"VEC3"
		},
		{
			"bufferView":5,
			"componentType":5126,
			"count":158,
			"type":"VEC3"
		},
		{
			"bufferView":6,
			"componentType":5126,
			"count":158,
			"type":"VEC2"
		},
		{
			"bufferView":7,
			"componentType":5123,
			"count":444,
			"type":"SCALAR"
		},
		{
			"bufferView":8,
			"componentType":5126,
			"count":375,
			"max":[
				8,
				0.6287219524383545,
				8
			],
			"min":[
				-8,
				-6.039831532689277e-07,
				-8
			],
			"type":"VEC3"
		},
		{
			"bufferView":9,
			"componentType":5126,
			"count":375,
			"type":"VEC3"
		},
		{
			"bufferView":10,
			"componentType":5126,
			"count":375,
			"type":"VEC2"
		},
		{
			"bufferView":11,
			"componentType":5123,
			"count":1080,
			"type":"SCALAR"
		}
	],
	"bufferViews":[
		{
			"buffer":0,
			"byteLength":2604,
			"byteOffset":0,
			"target":34962
		},
		{
			"buffer":0,
			"byteLength":2604,
			"byteOffset":2604,
			"target":34962
		},
		{
			"buffer":0,
			"byteLength":1736,
			"byteOffset":5208,
			"target":34962
		},
		{
			"buffer":0,
			"byteLength":1272,
			"byteOffset":6944,
			"target":34963
		},
		{
			"buffer":0,
			"byteLength":1896,
			"byteOffset":8216,
			"target":34962
		},
		{
			"buffer":0,
			"byteLength":1896,
			"byteOffset":10112,
			"target":34962
		},
		{
			"buffer":0,
			"byteLength":1264,
			"byteOffset":12008,
			"target":34962
		},
		{
			"buffer":0,
			"byteLength":888,
			"byteOffset":13272,
			"target":34963
		},
		{
			"buffer":0,
			"byteLength":4500,
			"byteOffset":14160,
			"target":34962
		},
		{
			"buffer":0,
			"byteLength":4500,
			"byteOffset":18660,
			"target":34962
		},
		{
			"buffer":0,
			"byteLength":3000,
			"byteOffset":23160,
			"target":34962
		},
		{
			"buffer":0,
			"byteLength":2160,
			"byteOffset":26160,
			"target":34963
		}
	],
	"buffers":[
		{
			"byteLength":28320,
			"uri":"obj_floor.bin"
		}
	]
}
