{
	"asset":{
		"generator":"Khronos glTF Blender I/O v4.2.57",
		"version":"2.0"
	},
	"scene":0,
	"scenes":[
		{
			"name":"Scene",
			"nodes":[
				0,
				1
			]
		}
	],
	"nodes":[
		{
			"mesh":0,
			"name":"obj_fence"
		},
		{
			"mesh":1,
			"name":"obj_fence_collider"
		}
	],
	"materials":[
		{
			"doubleSided":true,
			"name":"Floor2",
			"pbrMetallicRoughness":{
				"baseColorFactor":[
					0.5,
					0.5,
					0.5,
					1
				],
				"metallicFactor":0,
				"roughnessFactor":0.5527864098548889
			}
		}
	],
	"meshes":[
		{
			"name":"Mesh.231",
			"primitives":[
				{
					"attributes":{
						"POSITION":0,
						"NORMAL":1,
						"TEXCOORD_0":2
					},
					"indices":3,
					"material":0
				}
			]
		},
		{
			"name":"Mesh.318",
			"primitives":[
				{
					"attributes":{
						"POSITION":4,
						"NORMAL":5,
						"TEXCOORD_0":6
					},
					"indices":3
				}
			]
		}
	],
	"accessors":[
		{
			"bufferView":0,
			"componentType":5126,
			"count":1443,
			"max":[
				6.019599914550781,
				1.359327793121338,
				7.236343860626221
			],
			"min":[
				-6.091574668884277,
				0.15000006556510925,
				0.9951257705688477
			],
			"type":"VEC3"
		},
		{
			"bufferView":1,
			"componentType":5126,
			"count":1443,
			"type":"VEC3"
		},
		{
			"bufferView":2,
			"componentType":5126,
			"count":1443,
			"type":"VEC2"
		},
		{
			"bufferView":3,
			"componentType":5123,
			"count":5148,
			"type":"SCALAR"
		},
		{
			"bufferView":4,
			"componentType":5126,
			"count":1443,
			"max":[
				6.019599914550781,
				1.359327793121338,
				7.236343860626221
			],
			"min":[
				-6.091574668884277,
				0.15000006556510925,
				0.9951257705688477
			],
			"type":"VEC3"
		},
		{
			"bufferView":5,
			"componentType":5126,
			"count":1443,
			"type":"VEC3"
		},
		{
			"bufferView":6,
			"componentType":5126,
			"count":1443,
			"type":"VEC2"
		}
	],
	"bufferViews":[
		{
			"buffer":0,
			"byteLength":17316,
			"byteOffset":0,
			"target":34962
		},
		{
			"buffer":0,
			"byteLength":17316,
			"byteOffset":17316,
			"target":34962
		},
		{
			"buffer":0,
			"byteLength":11544,
			"byteOffset":34632,
			"target":34962
		},
		{
			"buffer":0,
			"byteLength":10296,
			"byteOffset":46176,
			"target":34963
		},
		{
			"buffer":0,
			"byteLength":17316,
			"byteOffset":56472,
			"target":34962
		},
		{
			"buffer":0,
			"byteLength":17316,
			"byteOffset":73788,
			"target":34962
		},
		{
			"buffer":0,
			"byteLength":11544,
			"byteOffset":91104,
			"target":34962
		}
	],
	"buffers":[
		{
			"byteLength":102648,
			"uri":"obj_fence.bin"
		}
	]
}
