{
	"asset":{
		"generator":"Khronos glTF Blender I/O v4.3.47",
		"version":"2.0"
	},
	"extensionsUsed":[
		"KHR_materials_specular"
	],
	"scene":0,
	"scenes":[
		{
			"name":"Scene",
			"nodes":[
				0,
				1
			]
		}
	],
	"nodes":[
		{
			"mesh":0,
			"name":"obj_logo"
		},
		{
			"mesh":1,
			"name":"obj_logo_collider"
		}
	],
	"materials":[
		{
			"emissiveFactor":[
				0.10000000149011612,
				0.10000000149011612,
				0.10000000149011612
			],
			"emissiveTexture":{
				"index":0
			},
			"extensions":{
				"KHR_materials_specular":{
					"specularFactor":0
				}
			},
			"name":"obj_logo",
			"pbrMetallicRoughness":{
				"baseColorTexture":{
					"index":1
				},
				"metallicFactor":0
			}
		}
	],
	"meshes":[
		{
			"name":"obj_logo",
			"primitives":[
				{
					"attributes":{
						"POSITION":0,
						"NORMAL":1,
						"TEXCOORD_0":2
					},
					"indices":3,
					"material":0
				}
			]
		},
		{
			"name":"obj_logo_collider",
			"primitives":[
				{
					"attributes":{
						"POSITION":4,
						"NORMAL":5
					},
					"indices":6,
					"material":0
				}
			]
		}
	],
	"textures":[
		{
			"sampler":0,
			"source":0
		},
		{
			"sampler":0,
			"source":0
		}
	],
	"images":[
		{
			"mimeType":"image/png",
			"name":"obj_logo",
			"uri":"textures/obj_logo.png"
		}
	],
	"accessors":[
		{
			"bufferView":0,
			"componentType":5126,
			"count":3326,
			"max":[
				6.427178382873535,
				6.787952899932861,
				6.7156267166137695
			],
			"min":[
				-6.41810417175293,
				4.197963714599609,
				-6.303483963012695
			],
			"type":"VEC3"
		},
		{
			"bufferView":1,
			"componentType":5126,
			"count":3326,
			"type":"VEC3"
		},
		{
			"bufferView":2,
			"componentType":5126,
			"count":3326,
			"type":"VEC2"
		},
		{
			"bufferView":3,
			"componentType":5123,
			"count":6684,
			"type":"SCALAR"
		},
		{
			"bufferView":4,
			"componentType":5126,
			"count":72,
			"max":[
				6.427178382873535,
				6.787952899932861,
				6.7156267166137695
			],
			"min":[
				-6.41810417175293,
				4.197963714599609,
				-6.303483963012695
			],
			"type":"VEC3"
		},
		{
			"bufferView":5,
			"componentType":5126,
			"count":72,
			"type":"VEC3"
		},
		{
			"bufferView":6,
			"componentType":5123,
			"count":108,
			"type":"SCALAR"
		}
	],
	"bufferViews":[
		{
			"buffer":0,
			"byteLength":39912,
			"byteOffset":0,
			"target":34962
		},
		{
			"buffer":0,
			"byteLength":39912,
			"byteOffset":39912,
			"target":34962
		},
		{
			"buffer":0,
			"byteLength":26608,
			"byteOffset":79824,
			"target":34962
		},
		{
			"buffer":0,
			"byteLength":13368,
			"byteOffset":106432,
			"target":34963
		},
		{
			"buffer":0,
			"byteLength":864,
			"byteOffset":119800,
			"target":34962
		},
		{
			"buffer":0,
			"byteLength":864,
			"byteOffset":120664,
			"target":34962
		},
		{
			"buffer":0,
			"byteLength":216,
			"byteOffset":121528,
			"target":34963
		}
	],
	"samplers":[
		{
			"magFilter":9729,
			"minFilter":9987
		}
	],
	"buffers":[
		{
			"byteLength":121744,
			"uri":"obj_logo.bin"
		}
	]
}
