{
	"asset":{
		"generator":"Khronos glTF Blender I/O v4.2.57",
		"version":"2.0"
	},
	"scene":0,
	"scenes":[
		{
			"name":"Scene",
			"nodes":[
				0,
				1
			]
		}
	],
	"nodes":[
		{
			"mesh":0,
			"name":"obj_frame"
		},
		{
			"mesh":1,
			"name":"obj_frame_collider"
		}
	],
	"materials":[
		{
			"doubleSided":true,
			"name":"Floor2",
			"pbrMetallicRoughness":{
				"baseColorFactor":[
					0.5,
					0.5,
					0.5,
					1
				],
				"metallicFactor":0,
				"roughnessFactor":0.5527864098548889
			}
		}
	],
	"meshes":[
		{
			"name":"Mesh.280",
			"primitives":[
				{
					"attributes":{
						"POSITION":0,
						"NORMAL":1,
						"TEXCOORD_0":2,
						"TEXCOORD_1":3
					},
					"indices":4,
					"material":0
				}
			]
		},
		{
			"name":"Mesh.320",
			"primitives":[
				{
					"attributes":{
						"POSITION":5,
						"NORMAL":6,
						"TEXCOORD_0":7,
						"TEXCOORD_1":8
					},
					"indices":4
				}
			]
		}
	],
	"accessors":[
		{
			"bufferView":0,
			"componentType":5126,
			"count":336,
			"max":[
				6.732849597930908,
				3.5300309658050537,
				5.499240875244141
			],
			"min":[
				-6.732849597930908,
				0.661496639251709,
				2.731797456741333
			],
			"type":"VEC3"
		},
		{
			"bufferView":1,
			"componentType":5126,
			"count":336,
			"type":"VEC3"
		},
		{
			"bufferView":2,
			"componentType":5126,
			"count":336,
			"type":"VEC2"
		},
		{
			"bufferView":3,
			"componentType":5126,
			"count":336,
			"type":"VEC2"
		},
		{
			"bufferView":4,
			"componentType":5123,
			"count":840,
			"type":"SCALAR"
		},
		{
			"bufferView":5,
			"componentType":5126,
			"count":336,
			"max":[
				6.732849597930908,
				3.5300309658050537,
				5.499240875244141
			],
			"min":[
				-6.732849597930908,
				0.661496639251709,
				2.731797456741333
			],
			"type":"VEC3"
		},
		{
			"bufferView":6,
			"componentType":5126,
			"count":336,
			"type":"VEC3"
		},
		{
			"bufferView":7,
			"componentType":5126,
			"count":336,
			"type":"VEC2"
		},
		{
			"bufferView":8,
			"componentType":5126,
			"count":336,
			"type":"VEC2"
		}
	],
	"bufferViews":[
		{
			"buffer":0,
			"byteLength":4032,
			"byteOffset":0,
			"target":34962
		},
		{
			"buffer":0,
			"byteLength":4032,
			"byteOffset":4032,
			"target":34962
		},
		{
			"buffer":0,
			"byteLength":2688,
			"byteOffset":8064,
			"target":34962
		},
		{
			"buffer":0,
			"byteLength":2688,
			"byteOffset":10752,
			"target":34962
		},
		{
			"buffer":0,
			"byteLength":1680,
			"byteOffset":13440,
			"target":34963
		},
		{
			"buffer":0,
			"byteLength":4032,
			"byteOffset":15120,
			"target":34962
		},
		{
			"buffer":0,
			"byteLength":4032,
			"byteOffset":19152,
			"target":34962
		},
		{
			"buffer":0,
			"byteLength":2688,
			"byteOffset":23184,
			"target":34962
		},
		{
			"buffer":0,
			"byteLength":2688,
			"byteOffset":25872,
			"target":34962
		}
	],
	"buffers":[
		{
			"byteLength":28560,
			"uri":"obj_frame.bin"
		}
	]
}
