{
	"asset":{
		"generator":"Khronos glTF Blender I/O v4.3.47",
		"version":"2.0"
	},
	"extensionsUsed":[
		"KHR_materials_specular"
	],
	"scene":0,
	"scenes":[
		{
			"name":"Scene",
			"nodes":[
				0,
				1
			]
		}
	],
	"nodes":[
		{
			"mesh":0,
			"name":"obj_door"
		},
		{
			"mesh":1,
			"name":"obj_door_collider"
		}
	],
	"materials":[
		{
			"emissiveFactor":[
				0.05000000074505806,
				0.05000000074505806,
				0.05000000074505806
			],
			"emissiveTexture":{
				"index":0
			},
			"extensions":{
				"KHR_materials_specular":{
					"specularFactor":0
				}
			},
			"name":"obj_circus01",
			"pbrMetallicRoughness":{
				"baseColorTexture":{
					"index":1
				},
				"metallicFactor":0
			}
		}
	],
	"meshes":[
		{
			"name":"obj_door",
			"primitives":[
				{
					"attributes":{
						"POSITION":0,
						"NORMAL":1,
						"TEXCOORD_0":2
					},
					"indices":3,
					"material":0
				}
			]
		},
		{
			"name":"obj_door_collider",
			"primitives":[
				{
					"attributes":{
						"POSITION":4,
						"NORMAL":5,
						"TEXCOORD_0":6
					},
					"indices":3
				}
			]
		}
	],
	"textures":[
		{
			"sampler":0,
			"source":0
		},
		{
			"sampler":0,
			"source":0
		}
	],
	"images":[
		{
			"mimeType":"image/png",
			"name":"obj_circus01",
			"uri":"textures/obj_circus01.png"
		}
	],
	"accessors":[
		{
			"bufferView":0,
			"componentType":5126,
			"count":24,
			"max":[
				0.7596704959869385,
				0.7596690654754639,
				0
			],
			"min":[
				0,
				-2.868497883667942e-09,
				-0.03799446299672127
			],
			"type":"VEC3"
		},
		{
			"bufferView":1,
			"componentType":5126,
			"count":24,
			"type":"VEC3"
		},
		{
			"bufferView":2,
			"componentType":5126,
			"count":24,
			"type":"VEC2"
		},
		{
			"bufferView":3,
			"componentType":5123,
			"count":36,
			"type":"SCALAR"
		},
		{
			"bufferView":4,
			"componentType":5126,
			"count":24,
			"max":[
				0.7596704959869385,
				0.7596690654754639,
				0
			],
			"min":[
				0,
				-2.868497883667942e-09,
				-0.03799446299672127
			],
			"type":"VEC3"
		},
		{
			"bufferView":5,
			"componentType":5126,
			"count":24,
			"type":"VEC3"
		},
		{
			"bufferView":6,
			"componentType":5126,
			"count":24,
			"type":"VEC2"
		}
	],
	"bufferViews":[
		{
			"buffer":0,
			"byteLength":288,
			"byteOffset":0,
			"target":34962
		},
		{
			"buffer":0,
			"byteLength":288,
			"byteOffset":288,
			"target":34962
		},
		{
			"buffer":0,
			"byteLength":192,
			"byteOffset":576,
			"target":34962
		},
		{
			"buffer":0,
			"byteLength":72,
			"byteOffset":768,
			"target":34963
		},
		{
			"buffer":0,
			"byteLength":288,
			"byteOffset":840,
			"target":34962
		},
		{
			"buffer":0,
			"byteLength":288,
			"byteOffset":1128,
			"target":34962
		},
		{
			"buffer":0,
			"byteLength":192,
			"byteOffset":1416,
			"target":34962
		}
	],
	"samplers":[
		{
			"magFilter":9729,
			"minFilter":9987
		}
	],
	"buffers":[
		{
			"byteLength":1608,
			"uri":"obj_door.bin"
		}
	]
}
