{
	"asset":{
		"generator":"Khronos glTF Blender I/O v4.3.47",
		"version":"2.0"
	},
	"extensionsUsed":[
		"KHR_materials_specular"
	],
	"scene":0,
	"scenes":[
		{
			"name":"Scene",
			"nodes":[
				0,
				1
			]
		}
	],
	"nodes":[
		{
			"mesh":0,
			"name":"obj_bench"
		},
		{
			"mesh":1,
			"name":"obj_bench_collider"
		}
	],
	"materials":[
		{
			"doubleSided":true,
			"emissiveFactor":[
				0.10000000149011612,
				0.10000000149011612,
				0.10000000149011612
			],
			"emissiveTexture":{
				"index":0
			},
			"extensions":{
				"KHR_materials_specular":{
					"specularFactor":0
				}
			},
			"name":"obj_bench",
			"pbrMetallicRoughness":{
				"baseColorTexture":{
					"index":1
				},
				"metallicFactor":0
			}
		}
	],
	"meshes":[
		{
			"name":"obj_bench",
			"primitives":[
				{
					"attributes":{
						"POSITION":0,
						"NORMAL":1,
						"TEXCOORD_0":2
					},
					"indices":3,
					"material":0
				}
			]
		},
		{
			"name":"obj_bench_collider",
			"primitives":[
				{
					"attributes":{
						"POSITION":4,
						"NORMAL":5,
						"TEXCOORD_0":6
					},
					"indices":7
				}
			]
		}
	],
	"textures":[
		{
			"sampler":0,
			"source":0
		},
		{
			"sampler":0,
			"source":0
		}
	],
	"images":[
		{
			"mimeType":"image/png",
			"name":"obj_bench",
			"uri":"textures/obj_bench.png"
		}
	],
	"accessors":[
		{
			"bufferView":0,
			"componentType":5126,
			"count":5162,
			"max":[
				6.247561454772949,
				1.7216421365737915,
				6.879636764526367
			],
			"min":[
				-6.235095977783203,
				0.15000104904174805,
				1.3807717561721802
			],
			"type":"VEC3"
		},
		{
			"bufferView":1,
			"componentType":5126,
			"count":5162,
			"type":"VEC3"
		},
		{
			"bufferView":2,
			"componentType":5126,
			"count":5162,
			"type":"VEC2"
		},
		{
			"bufferView":3,
			"componentType":5123,
			"count":14172,
			"type":"SCALAR"
		},
		{
			"bufferView":4,
			"componentType":5126,
			"count":1372,
			"max":[
				6.247561454772949,
				1.7216418981552124,
				6.850045680999756
			],
			"min":[
				-6.235095977783203,
				0.15000110864639282,
				1.4104087352752686
			],
			"type":"VEC3"
		},
		{
			"bufferView":5,
			"componentType":5126,
			"count":1372,
			"type":"VEC3"
		},
		{
			"bufferView":6,
			"componentType":5126,
			"count":1372,
			"type":"VEC2"
		},
		{
			"bufferView":7,
			"componentType":5123,
			"count":2988,
			"type":"SCALAR"
		}
	],
	"bufferViews":[
		{
			"buffer":0,
			"byteLength":61944,
			"byteOffset":0,
			"target":34962
		},
		{
			"buffer":0,
			"byteLength":61944,
			"byteOffset":61944,
			"target":34962
		},
		{
			"buffer":0,
			"byteLength":41296,
			"byteOffset":123888,
			"target":34962
		},
		{
			"buffer":0,
			"byteLength":28344,
			"byteOffset":165184,
			"target":34963
		},
		{
			"buffer":0,
			"byteLength":16464,
			"byteOffset":193528,
			"target":34962
		},
		{
			"buffer":0,
			"byteLength":16464,
			"byteOffset":209992,
			"target":34962
		},
		{
			"buffer":0,
			"byteLength":10976,
			"byteOffset":226456,
			"target":34962
		},
		{
			"buffer":0,
			"byteLength":5976,
			"byteOffset":237432,
			"target":34963
		}
	],
	"samplers":[
		{
			"magFilter":9729,
			"minFilter":9987
		}
	],
	"buffers":[
		{
			"byteLength":243408,
			"uri":"obj_bench.bin"
		}
	]
}
