{
	"asset":{
		"generator":"Khronos glTF Blender I/O v4.2.57",
		"version":"2.0"
	},
	"scene":0,
	"scenes":[
		{
			"name":"Scene",
			"nodes":[
				0,
				1
			]
		}
	],
	"nodes":[
		{
			"mesh":0,
			"name":"obj_wall"
		},
		{
			"mesh":1,
			"name":"obj_wall_collider"
		}
	],
	"materials":[
		{
			"doubleSided":true,
			"name":"material1",
			"pbrMetallicRoughness":{
				"baseColorFactor":[
					0.5,
					0.5,
					0.5,
					1
				],
				"metallicFactor":0,
				"roughnessFactor":0.5527864098548889
			}
		},
		{
			"doubleSided":true,
			"name":"Floor2",
			"pbrMetallicRoughness":{
				"baseColorFactor":[
					0.5,
					0.5,
					0.5,
					1
				],
				"metallicFactor":0,
				"roughnessFactor":0.5527864098548889
			}
		},
		{
			"doubleSided":true,
			"name":"material2",
			"pbrMetallicRoughness":{
				"baseColorFactor":[
					0.5,
					0.5,
					0.5,
					1
				],
				"metallicFactor":0,
				"roughnessFactor":0.5527864098548889
			}
		}
	],
	"meshes":[
		{
			"name":"Mesh.162",
			"primitives":[
				{
					"attributes":{
						"POSITION":0,
						"NORMAL":1,
						"TEXCOORD_0":2
					},
					"indices":3,
					"material":0
				},
				{
					"attributes":{
						"POSITION":4,
						"NORMAL":5,
						"TEXCOORD_0":6
					},
					"indices":7,
					"material":1
				},
				{
					"attributes":{
						"POSITION":8,
						"NORMAL":9,
						"TEXCOORD_0":10
					},
					"indices":11,
					"material":2
				}
			]
		},
		{
			"name":"Mesh.323",
			"primitives":[
				{
					"attributes":{
						"POSITION":12,
						"NORMAL":13,
						"TEXCOORD_0":14
					},
					"indices":15
				}
			]
		}
	],
	"accessors":[
		{
			"bufferView":0,
			"componentType":5126,
			"count":4207,
			"max":[
				7.584267616271973,
				11.248851776123047,
				7.78176212310791
			],
			"min":[
				-7.584268569946289,
				-0.06586669385433197,
				-7.795498847961426
			],
			"type":"VEC3"
		},
		{
			"bufferView":1,
			"componentType":5126,
			"count":4207,
			"type":"VEC3"
		},
		{
			"bufferView":2,
			"componentType":5126,
			"count":4207,
			"type":"VEC2"
		},
		{
			"bufferView":3,
			"componentType":5123,
			"count":12294,
			"type":"SCALAR"
		},
		{
			"bufferView":4,
			"componentType":5126,
			"count":480,
			"max":[
				6.742434501647949,
				4.031292915344238,
				6.86714506149292
			],
			"min":[
				-6.742434501647949,
				0.21686214208602905,
				1.365829348564148
			],
			"type":"VEC3"
		},
		{
			"bufferView":5,
			"componentType":5126,
			"count":480,
			"type":"VEC3"
		},
		{
			"bufferView":6,
			"componentType":5126,
			"count":480,
			"type":"VEC2"
		},
		{
			"bufferView":7,
			"componentType":5123,
			"count":2376,
			"type":"SCALAR"
		},
		{
			"bufferView":8,
			"componentType":5126,
			"count":1363,
			"max":[
				7.452457904815674,
				6.588804244995117,
				7.45906925201416
			],
			"min":[
				-7.452457904815674,
				0.1500002145767212,
				-7.085346221923828
			],
			"type":"VEC3"
		},
		{
			"bufferView":9,
			"componentType":5126,
			"count":1363,
			"type":"VEC3"
		},
		{
			"bufferView":10,
			"componentType":5126,
			"count":1363,
			"type":"VEC2"
		},
		{
			"bufferView":11,
			"componentType":5123,
			"count":2820,
			"type":"SCALAR"
		},
		{
			"bufferView":12,
			"componentType":5126,
			"count":6050,
			"max":[
				7.584267616271973,
				11.248851776123047,
				7.78176212310791
			],
			"min":[
				-7.584268569946289,
				-0.06586669385433197,
				-7.795498847961426
			],
			"type":"VEC3"
		},
		{
			"bufferView":13,
			"componentType":5126,
			"count":6050,
			"type":"VEC3"
		},
		{
			"bufferView":14,
			"componentType":5126,
			"count":6050,
			"type":"VEC2"
		},
		{
			"bufferView":15,
			"componentType":5123,
			"count":17490,
			"type":"SCALAR"
		}
	],
	"bufferViews":[
		{
			"buffer":0,
			"byteLength":50484,
			"byteOffset":0,
			"target":34962
		},
		{
			"buffer":0,
			"byteLength":50484,
			"byteOffset":50484,
			"target":34962
		},
		{
			"buffer":0,
			"byteLength":33656,
			"byteOffset":100968,
			"target":34962
		},
		{
			"buffer":0,
			"byteLength":24588,
			"byteOffset":134624,
			"target":34963
		},
		{
			"buffer":0,
			"byteLength":5760,
			"byteOffset":159212,
			"target":34962
		},
		{
			"buffer":0,
			"byteLength":5760,
			"byteOffset":164972,
			"target":34962
		},
		{
			"buffer":0,
			"byteLength":3840,
			"byteOffset":170732,
			"target":34962
		},
		{
			"buffer":0,
			"byteLength":4752,
			"byteOffset":174572,
			"target":34963
		},
		{
			"buffer":0,
			"byteLength":16356,
			"byteOffset":179324,
			"target":34962
		},
		{
			"buffer":0,
			"byteLength":16356,
			"byteOffset":195680,
			"target":34962
		},
		{
			"buffer":0,
			"byteLength":10904,
			"byteOffset":212036,
			"target":34962
		},
		{
			"buffer":0,
			"byteLength":5640,
			"byteOffset":222940,
			"target":34963
		},
		{
			"buffer":0,
			"byteLength":72600,
			"byteOffset":228580,
			"target":34962
		},
		{
			"buffer":0,
			"byteLength":72600,
			"byteOffset":301180,
			"target":34962
		},
		{
			"buffer":0,
			"byteLength":48400,
			"byteOffset":373780,
			"target":34962
		},
		{
			"buffer":0,
			"byteLength":34980,
			"byteOffset":422180,
			"target":34963
		}
	],
	"buffers":[
		{
			"byteLength":457160,
			"uri":"obj_wall.bin"
		}
	]
}
