{
	"asset":{
		"generator":"Khronos glTF Blender I/O v4.3.47",
		"version":"2.0"
	},
	"extensionsUsed":[
		"KHR_materials_specular"
	],
	"scene":0,
	"scenes":[
		{
			"name":"Scene",
			"nodes":[
				0
			]
		}
	],
	"nodes":[
		{
			"mesh":0,
			"name":"obj_toy14"
		}
	],
	"materials":[
		{
			"emissiveFactor":[
				0.10000000149011612,
				0.10000000149011612,
				0.10000000149011612
			],
			"emissiveTexture":{
				"index":0
			},
			"extensions":{
				"KHR_materials_specular":{
					"specularFactor":0
				}
			},
			"name":"obj_toy14",
			"pbrMetallicRoughness":{
				"baseColorTexture":{
					"index":1
				},
				"metallicFactor":0
			}
		}
	],
	"meshes":[
		{
			"name":"obj_toy14",
			"primitives":[
				{
					"attributes":{
						"POSITION":0,
						"NORMAL":1,
						"TEXCOORD_0":2
					},
					"indices":3,
					"material":0
				}
			]
		}
	],
	"textures":[
		{
			"sampler":0,
			"source":0
		},
		{
			"sampler":0,
			"source":0
		}
	],
	"images":[
		{
			"mimeType":"image/png",
			"name":"obj_toy14",
			"uri":"textures/obj_toy14.png"
		}
	],
	"accessors":[
		{
			"bufferView":0,
			"componentType":5126,
			"count":1004,
			"max":[
				0.2414739578962326,
				0.2716078460216522,
				0.017038343474268913
			],
			"min":[
				-0.24147412180900574,
				-0.2716078460216522,
				-0.017038343474268913
			],
			"type":"VEC3"
		},
		{
			"bufferView":1,
			"componentType":5126,
			"count":1004,
			"type":"VEC3"
		},
		{
			"bufferView":2,
			"componentType":5126,
			"count":1004,
			"type":"VEC2"
		},
		{
			"bufferView":3,
			"componentType":5123,
			"count":2154,
			"type":"SCALAR"
		}
	],
	"bufferViews":[
		{
			"buffer":0,
			"byteLength":12048,
			"byteOffset":0,
			"target":34962
		},
		{
			"buffer":0,
			"byteLength":12048,
			"byteOffset":12048,
			"target":34962
		},
		{
			"buffer":0,
			"byteLength":8032,
			"byteOffset":24096,
			"target":34962
		},
		{
			"buffer":0,
			"byteLength":4308,
			"byteOffset":32128,
			"target":34963
		}
	],
	"samplers":[
		{
			"magFilter":9729,
			"minFilter":9987
		}
	],
	"buffers":[
		{
			"byteLength":36436,
			"uri":"obj_toy14.bin"
		}
	]
}
