{
	"asset":{
		"generator":"Khronos glTF Blender I/O v4.3.47",
		"version":"2.0"
	},
	"extensionsUsed":[
		"KHR_materials_specular"
	],
	"scene":0,
	"scenes":[
		{
			"name":"Scene",
			"nodes":[
				0,
				1
			]
		}
	],
	"nodes":[
		{
			"mesh":0,
			"name":"obj_snowman"
		},
		{
			"mesh":1,
			"name":"obj_snowman_collider"
		}
	],
	"materials":[
		{
			"emissiveFactor":[
				0.10000000149011612,
				0.10000000149011612,
				0.10000000149011612
			],
			"emissiveTexture":{
				"index":0
			},
			"extensions":{
				"KHR_materials_specular":{
					"specularFactor":0
				}
			},
			"name":"obj_snowman",
			"pbrMetallicRoughness":{
				"baseColorTexture":{
					"index":1
				},
				"metallicFactor":0
			}
		}
	],
	"meshes":[
		{
			"name":"obj_snowman",
			"primitives":[
				{
					"attributes":{
						"POSITION":0,
						"NORMAL":1,
						"TEXCOORD_0":2
					},
					"indices":3,
					"material":0
				}
			]
		},
		{
			"name":"obj_snowman_collider",
			"primitives":[
				{
					"attributes":{
						"POSITION":4,
						"NORMAL":5,
						"TEXCOORD_0":6
					},
					"indices":7
				}
			]
		}
	],
	"textures":[
		{
			"sampler":0,
			"source":0
		},
		{
			"sampler":0,
			"source":0
		}
	],
	"images":[
		{
			"mimeType":"image/png",
			"name":"obj_snowman",
			"uri":"textures/obj_snowman.png"
		}
	],
	"accessors":[
		{
			"bufferView":0,
			"componentType":5126,
			"count":1302,
			"max":[
				7.903316974639893,
				3.0482237339019775,
				0.7584370374679565
			],
			"min":[
				-7.932981491088867,
				0.1499999314546585,
				-2.4537973403930664
			],
			"type":"VEC3"
		},
		{
			"bufferView":1,
			"componentType":5126,
			"count":1302,
			"type":"VEC3"
		},
		{
			"bufferView":2,
			"componentType":5126,
			"count":1302,
			"type":"VEC2"
		},
		{
			"bufferView":3,
			"componentType":5123,
			"count":4968,
			"type":"SCALAR"
		},
		{
			"bufferView":4,
			"componentType":5126,
			"count":224,
			"max":[
				7.922699928283691,
				3.088582754135132,
				0.7771386504173279
			],
			"min":[
				-7.922699928283691,
				0.1499999314546585,
				-3.771615505218506
			],
			"type":"VEC3"
		},
		{
			"bufferView":5,
			"componentType":5126,
			"count":224,
			"type":"VEC3"
		},
		{
			"bufferView":6,
			"componentType":5126,
			"count":224,
			"type":"VEC2"
		},
		{
			"bufferView":7,
			"componentType":5123,
			"count":360,
			"type":"SCALAR"
		}
	],
	"bufferViews":[
		{
			"buffer":0,
			"byteLength":15624,
			"byteOffset":0,
			"target":34962
		},
		{
			"buffer":0,
			"byteLength":15624,
			"byteOffset":15624,
			"target":34962
		},
		{
			"buffer":0,
			"byteLength":10416,
			"byteOffset":31248,
			"target":34962
		},
		{
			"buffer":0,
			"byteLength":9936,
			"byteOffset":41664,
			"target":34963
		},
		{
			"buffer":0,
			"byteLength":2688,
			"byteOffset":51600,
			"target":34962
		},
		{
			"buffer":0,
			"byteLength":2688,
			"byteOffset":54288,
			"target":34962
		},
		{
			"buffer":0,
			"byteLength":1792,
			"byteOffset":56976,
			"target":34962
		},
		{
			"buffer":0,
			"byteLength":720,
			"byteOffset":58768,
			"target":34963
		}
	],
	"samplers":[
		{
			"magFilter":9729,
			"minFilter":9987
		}
	],
	"buffers":[
		{
			"byteLength":59488,
			"uri":"obj_snowman.bin"
		}
	]
}
