{
	"asset":{
		"generator":"Khronos glTF Blender I/O v4.2.57",
		"version":"2.0"
	},
	"scene":0,
	"scenes":[
		{
			"name":"Scene",
			"nodes":[
				0,
				1
			]
		}
	],
	"nodes":[
		{
			"mesh":0,
			"name":"obj_bench"
		},
		{
			"mesh":1,
			"name":"obj_bench_collider"
		}
	],
	"materials":[
		{
			"doubleSided":true,
			"name":"Objects",
			"pbrMetallicRoughness":{
				"baseColorFactor":[
					0.5,
					0.5,
					0.5,
					1
				],
				"metallicFactor":0,
				"roughnessFactor":0.5527864098548889
			}
		}
	],
	"meshes":[
		{
			"name":"Mesh.224",
			"primitives":[
				{
					"attributes":{
						"POSITION":0,
						"NORMAL":1,
						"TEXCOORD_0":2
					},
					"indices":3,
					"material":0
				}
			]
		},
		{
			"name":"Mesh.316",
			"primitives":[
				{
					"attributes":{
						"POSITION":4,
						"NORMAL":5,
						"TEXCOORD_0":6
					},
					"indices":3
				}
			]
		}
	],
	"accessors":[
		{
			"bufferView":0,
			"componentType":5126,
			"count":668,
			"max":[
				5.461647033691406,
				0.7611053586006165,
				6.495269775390625
			],
			"min":[
				-5.469192981719971,
				0.1500001698732376,
				1.6791822910308838
			],
			"type":"VEC3"
		},
		{
			"bufferView":1,
			"componentType":5126,
			"count":668,
			"type":"VEC3"
		},
		{
			"bufferView":2,
			"componentType":5126,
			"count":668,
			"type":"VEC2"
		},
		{
			"bufferView":3,
			"componentType":5123,
			"count":2148,
			"type":"SCALAR"
		},
		{
			"bufferView":4,
			"componentType":5126,
			"count":668,
			"max":[
				5.461647033691406,
				0.7611053586006165,
				6.495269775390625
			],
			"min":[
				-5.469192981719971,
				0.1500001698732376,
				1.6791822910308838
			],
			"type":"VEC3"
		},
		{
			"bufferView":5,
			"componentType":5126,
			"count":668,
			"type":"VEC3"
		},
		{
			"bufferView":6,
			"componentType":5126,
			"count":668,
			"type":"VEC2"
		}
	],
	"bufferViews":[
		{
			"buffer":0,
			"byteLength":8016,
			"byteOffset":0,
			"target":34962
		},
		{
			"buffer":0,
			"byteLength":8016,
			"byteOffset":8016,
			"target":34962
		},
		{
			"buffer":0,
			"byteLength":5344,
			"byteOffset":16032,
			"target":34962
		},
		{
			"buffer":0,
			"byteLength":4296,
			"byteOffset":21376,
			"target":34963
		},
		{
			"buffer":0,
			"byteLength":8016,
			"byteOffset":25672,
			"target":34962
		},
		{
			"buffer":0,
			"byteLength":8016,
			"byteOffset":33688,
			"target":34962
		},
		{
			"buffer":0,
			"byteLength":5344,
			"byteOffset":41704,
			"target":34962
		}
	],
	"buffers":[
		{
			"byteLength":47048,
			"uri":"obj_bench.bin"
		}
	]
}
