{
	"asset":{
		"generator":"Khronos glTF Blender I/O v4.3.47",
		"version":"2.0"
	},
	"extensionsUsed":[
		"KHR_materials_specular"
	],
	"scene":0,
	"scenes":[
		{
			"name":"Scene",
			"nodes":[
				0
			]
		}
	],
	"nodes":[
		{
			"mesh":0,
			"name":"obj_toy04"
		}
	],
	"materials":[
		{
			"emissiveFactor":[
				0.10000000149011612,
				0.10000000149011612,
				0.10000000149011612
			],
			"emissiveTexture":{
				"index":0
			},
			"extensions":{
				"KHR_materials_specular":{
					"specularFactor":0
				}
			},
			"name":"obj_toy04",
			"pbrMetallicRoughness":{
				"baseColorTexture":{
					"index":1
				},
				"metallicFactor":0
			}
		}
	],
	"meshes":[
		{
			"name":"obj_toy04",
			"primitives":[
				{
					"attributes":{
						"POSITION":0,
						"NORMAL":1,
						"TEXCOORD_0":2
					},
					"indices":3,
					"material":0
				}
			]
		}
	],
	"textures":[
		{
			"sampler":0,
			"source":0
		},
		{
			"sampler":0,
			"source":0
		}
	],
	"images":[
		{
			"mimeType":"image/png",
			"name":"obj_toy04",
			"uri":"textures/obj_toy04.png"
		}
	],
	"accessors":[
		{
			"bufferView":0,
			"componentType":5126,
			"count":549,
			"max":[
				0.16423670947551727,
				0.30603134632110596,
				0.11748889833688736
			],
			"min":[
				-0.16188466548919678,
				-0.29202553629875183,
				-0.13380616903305054
			],
			"type":"VEC3"
		},
		{
			"bufferView":1,
			"componentType":5126,
			"count":549,
			"type":"VEC3"
		},
		{
			"bufferView":2,
			"componentType":5126,
			"count":549,
			"type":"VEC2"
		},
		{
			"bufferView":3,
			"componentType":5123,
			"count":2562,
			"type":"SCALAR"
		}
	],
	"bufferViews":[
		{
			"buffer":0,
			"byteLength":6588,
			"byteOffset":0,
			"target":34962
		},
		{
			"buffer":0,
			"byteLength":6588,
			"byteOffset":6588,
			"target":34962
		},
		{
			"buffer":0,
			"byteLength":4392,
			"byteOffset":13176,
			"target":34962
		},
		{
			"buffer":0,
			"byteLength":5124,
			"byteOffset":17568,
			"target":34963
		}
	],
	"samplers":[
		{
			"magFilter":9729,
			"minFilter":9987
		}
	],
	"buffers":[
		{
			"byteLength":22692,
			"uri":"obj_toy04.bin"
		}
	]
}
