{
	"asset":{
		"generator":"Khronos glTF Blender I/O v4.3.47",
		"version":"2.0"
	},
	"extensionsUsed":[
		"KHR_materials_specular"
	],
	"scene":0,
	"scenes":[
		{
			"name":"Scene",
			"nodes":[
				0
			]
		}
	],
	"nodes":[
		{
			"mesh":0,
			"name":"obj_toy02"
		}
	],
	"materials":[
		{
			"emissiveFactor":[
				0.10000000149011612,
				0.10000000149011612,
				0.10000000149011612
			],
			"emissiveTexture":{
				"index":0
			},
			"extensions":{
				"KHR_materials_specular":{
					"specularFactor":0
				}
			},
			"name":"obj_toy02",
			"pbrMetallicRoughness":{
				"baseColorTexture":{
					"index":1
				},
				"metallicFactor":0
			}
		}
	],
	"meshes":[
		{
			"name":"obj_toy02",
			"primitives":[
				{
					"attributes":{
						"POSITION":0,
						"NORMAL":1,
						"TEXCOORD_0":2
					},
					"indices":3,
					"material":0
				}
			]
		}
	],
	"textures":[
		{
			"sampler":0,
			"source":0
		},
		{
			"sampler":0,
			"source":0
		}
	],
	"images":[
		{
			"mimeType":"image/png",
			"name":"obj_toy02",
			"uri":"textures/obj_toy02.png"
		}
	],
	"accessors":[
		{
			"bufferView":0,
			"componentType":5126,
			"count":437,
			"max":[
				0.2713499069213867,
				0.1305229216814041,
				0.07090012729167938
			],
			"min":[
				-0.27006739377975464,
				-0.2531633973121643,
				-0.07535627484321594
			],
			"type":"VEC3"
		},
		{
			"bufferView":1,
			"componentType":5126,
			"count":437,
			"type":"VEC3"
		},
		{
			"bufferView":2,
			"componentType":5126,
			"count":437,
			"type":"VEC2"
		},
		{
			"bufferView":3,
			"componentType":5123,
			"count":1272,
			"type":"SCALAR"
		}
	],
	"bufferViews":[
		{
			"buffer":0,
			"byteLength":5244,
			"byteOffset":0,
			"target":34962
		},
		{
			"buffer":0,
			"byteLength":5244,
			"byteOffset":5244,
			"target":34962
		},
		{
			"buffer":0,
			"byteLength":3496,
			"byteOffset":10488,
			"target":34962
		},
		{
			"buffer":0,
			"byteLength":2544,
			"byteOffset":13984,
			"target":34963
		}
	],
	"samplers":[
		{
			"magFilter":9729,
			"minFilter":9987
		}
	],
	"buffers":[
		{
			"byteLength":16528,
			"uri":"obj_toy02.bin"
		}
	]
}
