{
	"asset":{
		"generator":"Khronos glTF Blender I/O v4.3.47",
		"version":"2.0"
	},
	"extensionsUsed":[
		"KHR_materials_specular"
	],
	"scene":0,
	"scenes":[
		{
			"name":"Scene",
			"nodes":[
				0,
				1
			]
		}
	],
	"nodes":[
		{
			"mesh":0,
			"name":"obj_fence"
		},
		{
			"mesh":1,
			"name":"obj_fence_collider"
		}
	],
	"materials":[
		{
			"doubleSided":true,
			"emissiveFactor":[
				0.10000000149011612,
				0.10000000149011612,
				0.10000000149011612
			],
			"emissiveTexture":{
				"index":0
			},
			"extensions":{
				"KHR_materials_specular":{
					"specularFactor":0
				}
			},
			"name":"obj_fence",
			"pbrMetallicRoughness":{
				"baseColorTexture":{
					"index":1
				},
				"metallicFactor":0
			}
		}
	],
	"meshes":[
		{
			"name":"obj_fence",
			"primitives":[
				{
					"attributes":{
						"POSITION":0,
						"NORMAL":1,
						"TEXCOORD_0":2
					},
					"indices":3,
					"material":0
				}
			]
		},
		{
			"name":"obj_fence_collider",
			"primitives":[
				{
					"attributes":{
						"POSITION":4,
						"NORMAL":5,
						"TEXCOORD_0":6
					},
					"indices":7
				}
			]
		}
	],
	"textures":[
		{
			"sampler":0,
			"source":0
		},
		{
			"sampler":0,
			"source":0
		}
	],
	"images":[
		{
			"mimeType":"image/png",
			"name":"obj_fence",
			"uri":"textures/obj_fence.png"
		}
	],
	"accessors":[
		{
			"bufferView":0,
			"componentType":5126,
			"count":3305,
			"max":[
				6.162632465362549,
				1.4190614223480225,
				7.074686050415039
			],
			"min":[
				-6.227169036865234,
				0.15000197291374207,
				0.9260942935943604
			],
			"type":"VEC3"
		},
		{
			"bufferView":1,
			"componentType":5126,
			"count":3305,
			"type":"VEC3"
		},
		{
			"bufferView":2,
			"componentType":5126,
			"count":3305,
			"type":"VEC2"
		},
		{
			"bufferView":3,
			"componentType":5123,
			"count":10404,
			"type":"SCALAR"
		},
		{
			"bufferView":4,
			"componentType":5126,
			"count":274,
			"max":[
				6.543591022491455,
				1.4190614223480225,
				7.074634075164795
			],
			"min":[
				-6.543591022491455,
				0.15000197291374207,
				0.9168965220451355
			],
			"type":"VEC3"
		},
		{
			"bufferView":5,
			"componentType":5126,
			"count":274,
			"type":"VEC3"
		},
		{
			"bufferView":6,
			"componentType":5126,
			"count":274,
			"type":"VEC2"
		},
		{
			"bufferView":7,
			"componentType":5123,
			"count":588,
			"type":"SCALAR"
		}
	],
	"bufferViews":[
		{
			"buffer":0,
			"byteLength":39660,
			"byteOffset":0,
			"target":34962
		},
		{
			"buffer":0,
			"byteLength":39660,
			"byteOffset":39660,
			"target":34962
		},
		{
			"buffer":0,
			"byteLength":26440,
			"byteOffset":79320,
			"target":34962
		},
		{
			"buffer":0,
			"byteLength":20808,
			"byteOffset":105760,
			"target":34963
		},
		{
			"buffer":0,
			"byteLength":3288,
			"byteOffset":126568,
			"target":34962
		},
		{
			"buffer":0,
			"byteLength":3288,
			"byteOffset":129856,
			"target":34962
		},
		{
			"buffer":0,
			"byteLength":2192,
			"byteOffset":133144,
			"target":34962
		},
		{
			"buffer":0,
			"byteLength":1176,
			"byteOffset":135336,
			"target":34963
		}
	],
	"samplers":[
		{
			"magFilter":9729,
			"minFilter":9987
		}
	],
	"buffers":[
		{
			"byteLength":136512,
			"uri":"obj_fence.bin"
		}
	]
}
