{
	"asset":{
		"generator":"Khronos glTF Blender I/O v4.2.57",
		"version":"2.0"
	},
	"extensionsUsed":[
		"KHR_materials_specular",
		"KHR_materials_ior"
	],
	"scene":0,
	"scenes":[
		{
			"name":"Scene",
			"nodes":[
				0,
				1
			]
		}
	],
	"nodes":[
		{
			"mesh":0,
			"name":"obj_fence"
		},
		{
			"mesh":1,
			"name":"obj_fence_collider"
		}
	],
	"materials":[
		{
			"alphaMode":"MASK",
			"doubleSided":true,
			"emissiveFactor":[
				0.05000000074505806,
				0.05000000074505806,
				0.05000000074505806
			],
			"emissiveTexture":{
				"index":0
			},
			"extensions":{
				"KHR_materials_specular":{
					"specularFactor":0
				},
				"KHR_materials_ior":{
					"ior":1.4500000476837158
				}
			},
			"name":"obj_circus03",
			"pbrMetallicRoughness":{
				"baseColorTexture":{
					"index":1
				},
				"metallicFactor":0
			}
		}
	],
	"meshes":[
		{
			"name":"Mesh.169",
			"primitives":[
				{
					"attributes":{
						"POSITION":0,
						"NORMAL":1,
						"TEXCOORD_0":2
					},
					"indices":3,
					"material":0
				}
			]
		},
		{
			"name":"Mesh.176",
			"primitives":[
				{
					"attributes":{
						"POSITION":4,
						"NORMAL":5,
						"TEXCOORD_0":6
					},
					"indices":3
				}
			]
		}
	],
	"textures":[
		{
			"sampler":0,
			"source":0
		},
		{
			"sampler":0,
			"source":0
		}
	],
	"images":[
		{
			"mimeType":"image/png",
			"name":"obj_circus03",
			"uri":"textures/obj_circus03.png"
		}
	],
	"accessors":[
		{
			"bufferView":0,
			"componentType":5126,
			"count":1443,
			"max":[
				6.019599914550781,
				1.359327793121338,
				7.236343860626221
			],
			"min":[
				-6.091574668884277,
				0.15000006556510925,
				0.9951257109642029
			],
			"type":"VEC3"
		},
		{
			"bufferView":1,
			"componentType":5126,
			"count":1443,
			"type":"VEC3"
		},
		{
			"bufferView":2,
			"componentType":5126,
			"count":1443,
			"type":"VEC2"
		},
		{
			"bufferView":3,
			"componentType":5123,
			"count":5148,
			"type":"SCALAR"
		},
		{
			"bufferView":4,
			"componentType":5126,
			"count":1443,
			"max":[
				6.019599914550781,
				1.359327793121338,
				7.236343860626221
			],
			"min":[
				-6.091574668884277,
				0.15000006556510925,
				0.9951257109642029
			],
			"type":"VEC3"
		},
		{
			"bufferView":5,
			"componentType":5126,
			"count":1443,
			"type":"VEC3"
		},
		{
			"bufferView":6,
			"componentType":5126,
			"count":1443,
			"type":"VEC2"
		}
	],
	"bufferViews":[
		{
			"buffer":0,
			"byteLength":17316,
			"byteOffset":0,
			"target":34962
		},
		{
			"buffer":0,
			"byteLength":17316,
			"byteOffset":17316,
			"target":34962
		},
		{
			"buffer":0,
			"byteLength":11544,
			"byteOffset":34632,
			"target":34962
		},
		{
			"buffer":0,
			"byteLength":10296,
			"byteOffset":46176,
			"target":34963
		},
		{
			"buffer":0,
			"byteLength":17316,
			"byteOffset":56472,
			"target":34962
		},
		{
			"buffer":0,
			"byteLength":17316,
			"byteOffset":73788,
			"target":34962
		},
		{
			"buffer":0,
			"byteLength":11544,
			"byteOffset":91104,
			"target":34962
		}
	],
	"samplers":[
		{
			"magFilter":9729,
			"minFilter":9987
		}
	],
	"buffers":[
		{
			"byteLength":102648,
			"uri":"obj_fence.bin"
		}
	]
}
