{
	"asset":{
		"generator":"Khronos glTF Blender I/O v4.2.57",
		"version":"2.0"
	},
	"scene":0,
	"scenes":[
		{
			"name":"Scene",
			"nodes":[
				0,
				1
			]
		}
	],
	"nodes":[
		{
			"mesh":0,
			"name":"obj_tower"
		},
		{
			"mesh":1,
			"name":"obj_tower_collider"
		}
	],
	"materials":[
		{
			"doubleSided":true,
			"name":"material2",
			"pbrMetallicRoughness":{
				"baseColorFactor":[
					0.5,
					0.5,
					0.5,
					1
				],
				"metallicFactor":0,
				"roughnessFactor":0.5527864098548889
			}
		},
		{
			"doubleSided":true,
			"name":"Floor2",
			"pbrMetallicRoughness":{
				"baseColorFactor":[
					0.5,
					0.5,
					0.5,
					1
				],
				"metallicFactor":0,
				"roughnessFactor":0.5527864098548889
			}
		}
	],
	"meshes":[
		{
			"name":"Mesh.270",
			"primitives":[
				{
					"attributes":{
						"POSITION":0,
						"NORMAL":1,
						"TEXCOORD_0":2
					},
					"indices":3,
					"material":0
				},
				{
					"attributes":{
						"POSITION":4,
						"NORMAL":5,
						"TEXCOORD_0":6
					},
					"indices":7,
					"material":1
				}
			]
		},
		{
			"name":"Mesh.322",
			"primitives":[
				{
					"attributes":{
						"POSITION":8,
						"NORMAL":9,
						"TEXCOORD_0":10
					},
					"indices":11
				}
			]
		}
	],
	"accessors":[
		{
			"bufferView":0,
			"componentType":5126,
			"count":833,
			"max":[
				7.980826377868652,
				9.318486213684082,
				-4.864834785461426
			],
			"min":[
				-7.980826377868652,
				0.3893604278564453,
				-7.865564823150635
			],
			"type":"VEC3"
		},
		{
			"bufferView":1,
			"componentType":5126,
			"count":833,
			"type":"VEC3"
		},
		{
			"bufferView":2,
			"componentType":5126,
			"count":833,
			"type":"VEC2"
		},
		{
			"bufferView":3,
			"componentType":5123,
			"count":2940,
			"type":"SCALAR"
		},
		{
			"bufferView":4,
			"componentType":5126,
			"count":648,
			"max":[
				7.426608562469482,
				6.8598127365112305,
				0.16758036613464355
			],
			"min":[
				-7.426608562469482,
				0.1366097629070282,
				-6.00841760635376
			],
			"type":"VEC3"
		},
		{
			"bufferView":5,
			"componentType":5126,
			"count":648,
			"type":"VEC3"
		},
		{
			"bufferView":6,
			"componentType":5126,
			"count":648,
			"type":"VEC2"
		},
		{
			"bufferView":7,
			"componentType":5123,
			"count":2880,
			"type":"SCALAR"
		},
		{
			"bufferView":8,
			"componentType":5126,
			"count":1481,
			"max":[
				7.980826377868652,
				9.318486213684082,
				0.16758036613464355
			],
			"min":[
				-7.980826377868652,
				0.1366097629070282,
				-7.865564823150635
			],
			"type":"VEC3"
		},
		{
			"bufferView":9,
			"componentType":5126,
			"count":1481,
			"type":"VEC3"
		},
		{
			"bufferView":10,
			"componentType":5126,
			"count":1481,
			"type":"VEC2"
		},
		{
			"bufferView":11,
			"componentType":5123,
			"count":5820,
			"type":"SCALAR"
		}
	],
	"bufferViews":[
		{
			"buffer":0,
			"byteLength":9996,
			"byteOffset":0,
			"target":34962
		},
		{
			"buffer":0,
			"byteLength":9996,
			"byteOffset":9996,
			"target":34962
		},
		{
			"buffer":0,
			"byteLength":6664,
			"byteOffset":19992,
			"target":34962
		},
		{
			"buffer":0,
			"byteLength":5880,
			"byteOffset":26656,
			"target":34963
		},
		{
			"buffer":0,
			"byteLength":7776,
			"byteOffset":32536,
			"target":34962
		},
		{
			"buffer":0,
			"byteLength":7776,
			"byteOffset":40312,
			"target":34962
		},
		{
			"buffer":0,
			"byteLength":5184,
			"byteOffset":48088,
			"target":34962
		},
		{
			"buffer":0,
			"byteLength":5760,
			"byteOffset":53272,
			"target":34963
		},
		{
			"buffer":0,
			"byteLength":17772,
			"byteOffset":59032,
			"target":34962
		},
		{
			"buffer":0,
			"byteLength":17772,
			"byteOffset":76804,
			"target":34962
		},
		{
			"buffer":0,
			"byteLength":11848,
			"byteOffset":94576,
			"target":34962
		},
		{
			"buffer":0,
			"byteLength":11640,
			"byteOffset":106424,
			"target":34963
		}
	],
	"buffers":[
		{
			"byteLength":118064,
			"uri":"obj_tower.bin"
		}
	]
}
