{
	"asset":{
		"generator":"Khronos glTF Blender I/O v4.3.47",
		"version":"2.0"
	},
	"extensionsUsed":[
		"KHR_materials_specular"
	],
	"scene":0,
	"scenes":[
		{
			"name":"Scene",
			"nodes":[
				0
			]
		}
	],
	"nodes":[
		{
			"mesh":0,
			"name":"obj_toy09"
		}
	],
	"materials":[
		{
			"emissiveFactor":[
				0.10000000149011612,
				0.10000000149011612,
				0.10000000149011612
			],
			"emissiveTexture":{
				"index":0
			},
			"extensions":{
				"KHR_materials_specular":{
					"specularFactor":0
				}
			},
			"name":"obj_toy09",
			"pbrMetallicRoughness":{
				"baseColorTexture":{
					"index":1
				},
				"metallicFactor":0
			}
		}
	],
	"meshes":[
		{
			"name":"obj_toy09",
			"primitives":[
				{
					"attributes":{
						"POSITION":0,
						"NORMAL":1,
						"TEXCOORD_0":2
					},
					"indices":3,
					"material":0
				}
			]
		}
	],
	"textures":[
		{
			"sampler":0,
			"source":0
		},
		{
			"sampler":0,
			"source":0
		}
	],
	"images":[
		{
			"mimeType":"image/png",
			"name":"obj_toy09",
			"uri":"textures/obj_toy09.png"
		}
	],
	"accessors":[
		{
			"bufferView":0,
			"componentType":5126,
			"count":422,
			"max":[
				0.2029532641172409,
				0.2618587613105774,
				0.1312958002090454
			],
			"min":[
				-0.1437733918428421,
				-0.2747151553630829,
				-0.12929758429527283
			],
			"type":"VEC3"
		},
		{
			"bufferView":1,
			"componentType":5126,
			"count":422,
			"type":"VEC3"
		},
		{
			"bufferView":2,
			"componentType":5126,
			"count":422,
			"type":"VEC2"
		},
		{
			"bufferView":3,
			"componentType":5123,
			"count":1470,
			"type":"SCALAR"
		}
	],
	"bufferViews":[
		{
			"buffer":0,
			"byteLength":5064,
			"byteOffset":0,
			"target":34962
		},
		{
			"buffer":0,
			"byteLength":5064,
			"byteOffset":5064,
			"target":34962
		},
		{
			"buffer":0,
			"byteLength":3376,
			"byteOffset":10128,
			"target":34962
		},
		{
			"buffer":0,
			"byteLength":2940,
			"byteOffset":13504,
			"target":34963
		}
	],
	"samplers":[
		{
			"magFilter":9729,
			"minFilter":9987
		}
	],
	"buffers":[
		{
			"byteLength":16444,
			"uri":"obj_toy09.bin"
		}
	]
}
