{
	"asset":{
		"generator":"Khronos glTF Blender I/O v4.3.47",
		"version":"2.0"
	},
	"extensionsUsed":[
		"KHR_materials_specular"
	],
	"scene":0,
	"scenes":[
		{
			"name":"Scene",
			"nodes":[
				0,
				1
			]
		}
	],
	"nodes":[
		{
			"mesh":0,
			"name":"obj_terminal"
		},
		{
			"mesh":1,
			"name":"obj_terminal_collider"
		}
	],
	"materials":[
		{
			"emissiveFactor":[
				0.05000000074505806,
				0.05000000074505806,
				0.05000000074505806
			],
			"emissiveTexture":{
				"index":0
			},
			"extensions":{
				"KHR_materials_specular":{
					"specularFactor":0
				}
			},
			"name":"obj_circus05",
			"pbrMetallicRoughness":{
				"baseColorTexture":{
					"index":1
				},
				"metallicFactor":0
			}
		}
	],
	"meshes":[
		{
			"name":"obj_terminal",
			"primitives":[
				{
					"attributes":{
						"POSITION":0,
						"NORMAL":1,
						"TEXCOORD_0":2
					},
					"indices":3,
					"material":0
				}
			]
		},
		{
			"name":"obj_terminal_collider",
			"primitives":[
				{
					"attributes":{
						"POSITION":4,
						"NORMAL":5,
						"TEXCOORD_0":6
					},
					"indices":7
				}
			]
		}
	],
	"textures":[
		{
			"sampler":0,
			"source":0
		},
		{
			"sampler":0,
			"source":0
		}
	],
	"images":[
		{
			"mimeType":"image/png",
			"name":"obj_circus05",
			"uri":"textures/obj_circus05.png"
		}
	],
	"accessors":[
		{
			"bufferView":0,
			"componentType":5126,
			"count":207,
			"max":[
				0.5811094045639038,
				1.259837031364441,
				2.347689151763916
			],
			"min":[
				-0.5811094045639038,
				0.15000011026859283,
				1.5729765892028809
			],
			"type":"VEC3"
		},
		{
			"bufferView":1,
			"componentType":5126,
			"count":207,
			"type":"VEC3"
		},
		{
			"bufferView":2,
			"componentType":5126,
			"count":207,
			"type":"VEC2"
		},
		{
			"bufferView":3,
			"componentType":5123,
			"count":726,
			"type":"SCALAR"
		},
		{
			"bufferView":4,
			"componentType":5126,
			"count":108,
			"max":[
				0.5811094045639038,
				1.2598373889923096,
				2.347689151763916
			],
			"min":[
				-0.5811094045639038,
				0.15000048279762268,
				1.5729762315750122
			],
			"type":"VEC3"
		},
		{
			"bufferView":5,
			"componentType":5126,
			"count":108,
			"type":"VEC3"
		},
		{
			"bufferView":6,
			"componentType":5126,
			"count":108,
			"type":"VEC2"
		},
		{
			"bufferView":7,
			"componentType":5123,
			"count":168,
			"type":"SCALAR"
		}
	],
	"bufferViews":[
		{
			"buffer":0,
			"byteLength":2484,
			"byteOffset":0,
			"target":34962
		},
		{
			"buffer":0,
			"byteLength":2484,
			"byteOffset":2484,
			"target":34962
		},
		{
			"buffer":0,
			"byteLength":1656,
			"byteOffset":4968,
			"target":34962
		},
		{
			"buffer":0,
			"byteLength":1452,
			"byteOffset":6624,
			"target":34963
		},
		{
			"buffer":0,
			"byteLength":1296,
			"byteOffset":8076,
			"target":34962
		},
		{
			"buffer":0,
			"byteLength":1296,
			"byteOffset":9372,
			"target":34962
		},
		{
			"buffer":0,
			"byteLength":864,
			"byteOffset":10668,
			"target":34962
		},
		{
			"buffer":0,
			"byteLength":336,
			"byteOffset":11532,
			"target":34963
		}
	],
	"samplers":[
		{
			"magFilter":9729,
			"minFilter":9987
		}
	],
	"buffers":[
		{
			"byteLength":11868,
			"uri":"obj_terminal.bin"
		}
	]
}
