{
	"asset":{
		"generator":"Khronos glTF Blender I/O v4.3.47",
		"version":"2.0"
	},
	"extensionsUsed":[
		"KHR_materials_specular"
	],
	"scene":0,
	"scenes":[
		{
			"name":"Scene",
			"nodes":[
				0
			]
		}
	],
	"nodes":[
		{
			"mesh":0,
			"name":"obj_toy07"
		}
	],
	"materials":[
		{
			"emissiveFactor":[
				0.15000000596046448,
				0.15000000596046448,
				0.15000000596046448
			],
			"emissiveTexture":{
				"index":0
			},
			"extensions":{
				"KHR_materials_specular":{
					"specularFactor":0
				}
			},
			"name":"obj_toy",
			"pbrMetallicRoughness":{
				"baseColorTexture":{
					"index":1
				},
				"metallicFactor":0
			}
		}
	],
	"meshes":[
		{
			"name":"obj_toy07",
			"primitives":[
				{
					"attributes":{
						"POSITION":0,
						"NORMAL":1,
						"TEXCOORD_0":2
					},
					"indices":3,
					"material":0
				}
			]
		}
	],
	"textures":[
		{
			"sampler":0,
			"source":0
		},
		{
			"sampler":0,
			"source":0
		}
	],
	"images":[
		{
			"mimeType":"image/png",
			"name":"obj_toy",
			"uri":"textures/obj_toy.png"
		}
	],
	"accessors":[
		{
			"bufferView":0,
			"componentType":5126,
			"count":208,
			"max":[
				0.09713561087846756,
				0.28051823377609253,
				0.09713572263717651
			],
			"min":[
				-0.09713564068078995,
				-0.3185204267501831,
				-0.09713563323020935
			],
			"type":"VEC3"
		},
		{
			"bufferView":1,
			"componentType":5126,
			"count":208,
			"type":"VEC3"
		},
		{
			"bufferView":2,
			"componentType":5126,
			"count":208,
			"type":"VEC2"
		},
		{
			"bufferView":3,
			"componentType":5123,
			"count":936,
			"type":"SCALAR"
		}
	],
	"bufferViews":[
		{
			"buffer":0,
			"byteLength":2496,
			"byteOffset":0,
			"target":34962
		},
		{
			"buffer":0,
			"byteLength":2496,
			"byteOffset":2496,
			"target":34962
		},
		{
			"buffer":0,
			"byteLength":1664,
			"byteOffset":4992,
			"target":34962
		},
		{
			"buffer":0,
			"byteLength":1872,
			"byteOffset":6656,
			"target":34963
		}
	],
	"samplers":[
		{
			"magFilter":9729,
			"minFilter":9987
		}
	],
	"buffers":[
		{
			"byteLength":8528,
			"uri":"obj_toy07.bin"
		}
	]
}
