{
	"asset":{
		"generator":"Khronos glTF Blender I/O v4.3.47",
		"version":"2.0"
	},
	"extensionsUsed":[
		"KHR_materials_specular"
	],
	"scene":0,
	"scenes":[
		{
			"name":"Scene",
			"nodes":[
				0,
				1
			]
		}
	],
	"nodes":[
		{
			"mesh":0,
			"name":"obj_gift"
		},
		{
			"mesh":1,
			"name":"obj_gift_collider"
		}
	],
	"materials":[
		{
			"doubleSided":true,
			"emissiveFactor":[
				0.10000000149011612,
				0.10000000149011612,
				0.10000000149011612
			],
			"emissiveTexture":{
				"index":0
			},
			"extensions":{
				"KHR_materials_specular":{
					"specularFactor":0
				}
			},
			"name":"obj_gift",
			"pbrMetallicRoughness":{
				"baseColorTexture":{
					"index":1
				},
				"metallicFactor":0
			}
		}
	],
	"meshes":[
		{
			"name":"obj_gift",
			"primitives":[
				{
					"attributes":{
						"POSITION":0,
						"NORMAL":1,
						"TEXCOORD_0":2
					},
					"indices":3,
					"material":0
				}
			]
		},
		{
			"name":"obj_gift_collider",
			"primitives":[
				{
					"attributes":{
						"POSITION":4,
						"NORMAL":5,
						"TEXCOORD_0":6
					},
					"indices":7
				}
			]
		}
	],
	"textures":[
		{
			"sampler":0,
			"source":0
		},
		{
			"sampler":0,
			"source":0
		}
	],
	"images":[
		{
			"mimeType":"image/png",
			"name":"obj_gift",
			"uri":"textures/obj_gift.png"
		}
	],
	"accessors":[
		{
			"bufferView":0,
			"componentType":5126,
			"count":6938,
			"max":[
				7.484249114990234,
				1.8836922645568848,
				6.984861850738525
			],
			"min":[
				-7.484249114990234,
				0.1404416859149933,
				-7.173933982849121
			],
			"type":"VEC3"
		},
		{
			"bufferView":1,
			"componentType":5126,
			"count":6938,
			"type":"VEC3"
		},
		{
			"bufferView":2,
			"componentType":5126,
			"count":6938,
			"type":"VEC2"
		},
		{
			"bufferView":3,
			"componentType":5123,
			"count":16056,
			"type":"SCALAR"
		},
		{
			"bufferView":4,
			"componentType":5126,
			"count":720,
			"max":[
				7.491817951202393,
				1.7559382915496826,
				6.981805324554443
			],
			"min":[
				-7.484249114990234,
				0.1363525688648224,
				-7.172038555145264
			],
			"type":"VEC3"
		},
		{
			"bufferView":5,
			"componentType":5126,
			"count":720,
			"type":"VEC3"
		},
		{
			"bufferView":6,
			"componentType":5126,
			"count":720,
			"type":"VEC2"
		},
		{
			"bufferView":7,
			"componentType":5123,
			"count":1080,
			"type":"SCALAR"
		}
	],
	"bufferViews":[
		{
			"buffer":0,
			"byteLength":83256,
			"byteOffset":0,
			"target":34962
		},
		{
			"buffer":0,
			"byteLength":83256,
			"byteOffset":83256,
			"target":34962
		},
		{
			"buffer":0,
			"byteLength":55504,
			"byteOffset":166512,
			"target":34962
		},
		{
			"buffer":0,
			"byteLength":32112,
			"byteOffset":222016,
			"target":34963
		},
		{
			"buffer":0,
			"byteLength":8640,
			"byteOffset":254128,
			"target":34962
		},
		{
			"buffer":0,
			"byteLength":8640,
			"byteOffset":262768,
			"target":34962
		},
		{
			"buffer":0,
			"byteLength":5760,
			"byteOffset":271408,
			"target":34962
		},
		{
			"buffer":0,
			"byteLength":2160,
			"byteOffset":277168,
			"target":34963
		}
	],
	"samplers":[
		{
			"magFilter":9729,
			"minFilter":9987
		}
	],
	"buffers":[
		{
			"byteLength":279328,
			"uri":"obj_gift.bin"
		}
	]
}
