{
	"asset":{
		"generator":"Khronos glTF Blender I/O v4.3.47",
		"version":"2.0"
	},
	"extensionsUsed":[
		"KHR_materials_specular"
	],
	"scene":0,
	"scenes":[
		{
			"name":"Scene",
			"nodes":[
				0,
				1
			]
		}
	],
	"nodes":[
		{
			"mesh":0,
			"name":"obj_wall"
		},
		{
			"mesh":1,
			"name":"obj_wall_collider"
		}
	],
	"materials":[
		{
			"emissiveFactor":[
				0.10000000149011612,
				0.10000000149011612,
				0.10000000149011612
			],
			"emissiveTexture":{
				"index":0
			},
			"extensions":{
				"KHR_materials_specular":{
					"specularFactor":0
				}
			},
			"name":"obj_frame",
			"pbrMetallicRoughness":{
				"baseColorTexture":{
					"index":1
				},
				"metallicFactor":0
			}
		},
		{
			"emissiveFactor":[
				0.10000000149011612,
				0.10000000149011612,
				0.10000000149011612
			],
			"emissiveTexture":{
				"index":2
			},
			"extensions":{
				"KHR_materials_specular":{
					"specularFactor":0
				}
			},
			"name":"obj_door",
			"pbrMetallicRoughness":{
				"baseColorTexture":{
					"index":3
				},
				"metallicFactor":0
			}
		},
		{
			"emissiveFactor":[
				0.8962693810462952,
				0.4620766043663025,
				0.001821317127905786
			],
			"extensions":{
				"KHR_materials_specular":{
					"specularFactor":0
				}
			},
			"name":"obj_circus_emission",
			"pbrMetallicRoughness":{
				"baseColorFactor":[
					0.8962644934654236,
					0.46207743883132935,
					0.0018212837167084217,
					1
				],
				"metallicFactor":0
			}
		},
		{
			"alphaMode":"MASK",
			"doubleSided":true,
			"emissiveFactor":[
				0.10000000149011612,
				0.10000000149011612,
				0.10000000149011612
			],
			"emissiveTexture":{
				"index":4
			},
			"extensions":{
				"KHR_materials_specular":{
					"specularFactor":0
				}
			},
			"name":"obj_curtains",
			"pbrMetallicRoughness":{
				"baseColorTexture":{
					"index":5
				},
				"metallicFactor":0
			}
		}
	],
	"meshes":[
		{
			"name":"obj_wall",
			"primitives":[
				{
					"attributes":{
						"POSITION":0,
						"NORMAL":1,
						"TEXCOORD_0":2
					},
					"indices":3,
					"material":0
				},
				{
					"attributes":{
						"POSITION":4,
						"NORMAL":5,
						"TEXCOORD_0":6
					},
					"indices":7,
					"material":1
				},
				{
					"attributes":{
						"POSITION":8,
						"NORMAL":9,
						"TEXCOORD_0":10
					},
					"indices":11,
					"material":2
				},
				{
					"attributes":{
						"POSITION":12,
						"NORMAL":13,
						"TEXCOORD_0":14
					},
					"indices":15,
					"material":3
				}
			]
		},
		{
			"name":"obj_wall_collider",
			"primitives":[
				{
					"attributes":{
						"POSITION":16,
						"NORMAL":17,
						"TEXCOORD_0":18
					},
					"indices":19
				}
			]
		}
	],
	"textures":[
		{
			"sampler":0,
			"source":0
		},
		{
			"sampler":0,
			"source":0
		},
		{
			"sampler":0,
			"source":1
		},
		{
			"sampler":0,
			"source":1
		},
		{
			"sampler":0,
			"source":2
		},
		{
			"sampler":0,
			"source":2
		}
	],
	"images":[
		{
			"mimeType":"image/png",
			"name":"obj_frame",
			"uri":"textures/obj_frame.png"
		},
		{
			"mimeType":"image/png",
			"name":"obj_door",
			"uri":"textures/obj_door.png"
		},
		{
			"mimeType":"image/png",
			"name":"obj_curtains",
			"uri":"textures/obj_curtains.png"
		}
	],
	"accessors":[
		{
			"bufferView":0,
			"componentType":5126,
			"count":1279,
			"max":[
				6.995571136474609,
				9.655813217163086,
				7.187712669372559
			],
			"min":[
				-6.995571136474609,
				-0.05512430891394615,
				-6.750018119812012
			],
			"type":"VEC3"
		},
		{
			"bufferView":1,
			"componentType":5126,
			"count":1279,
			"type":"VEC3"
		},
		{
			"bufferView":2,
			"componentType":5126,
			"count":1279,
			"type":"VEC2"
		},
		{
			"bufferView":3,
			"componentType":5123,
			"count":2670,
			"type":"SCALAR"
		},
		{
			"bufferView":4,
			"componentType":5126,
			"count":1233,
			"max":[
				7.584407329559326,
				8.593774795532227,
				7.623751163482666
			],
			"min":[
				-7.584407329559326,
				-0.055195458233356476,
				-7.766180038452148
			],
			"type":"VEC3"
		},
		{
			"bufferView":5,
			"componentType":5126,
			"count":1233,
			"type":"VEC3"
		},
		{
			"bufferView":6,
			"componentType":5126,
			"count":1233,
			"type":"VEC2"
		},
		{
			"bufferView":7,
			"componentType":5123,
			"count":2526,
			"type":"SCALAR"
		},
		{
			"bufferView":8,
			"componentType":5126,
			"count":1215,
			"max":[
				6.579288005828857,
				6.069745063781738,
				7.085402011871338
			],
			"min":[
				-6.579288005828857,
				0.006074997130781412,
				-6.500286102294922
			],
			"type":"VEC3"
		},
		{
			"bufferView":9,
			"componentType":5126,
			"count":1215,
			"type":"VEC3"
		},
		{
			"bufferView":10,
			"componentType":5126,
			"count":1215,
			"type":"VEC2"
		},
		{
			"bufferView":11,
			"componentType":5123,
			"count":3240,
			"type":"SCALAR"
		},
		{
			"bufferView":12,
			"componentType":5126,
			"count":662,
			"max":[
				6.919548988342285,
				4.363138198852539,
				6.967963218688965
			],
			"min":[
				-6.919548988342285,
				0.21686246991157532,
				1.2650115489959717
			],
			"type":"VEC3"
		},
		{
			"bufferView":13,
			"componentType":5126,
			"count":662,
			"type":"VEC3"
		},
		{
			"bufferView":14,
			"componentType":5126,
			"count":662,
			"type":"VEC2"
		},
		{
			"bufferView":15,
			"componentType":5123,
			"count":2916,
			"type":"SCALAR"
		},
		{
			"bufferView":16,
			"componentType":5126,
			"count":587,
			"max":[
				7.584407329559326,
				9.655813217163086,
				7.623751163482666
			],
			"min":[
				-7.584407329559326,
				-0.05512429028749466,
				-7.766180038452148
			],
			"type":"VEC3"
		},
		{
			"bufferView":17,
			"componentType":5126,
			"count":587,
			"type":"VEC3"
		},
		{
			"bufferView":18,
			"componentType":5126,
			"count":587,
			"type":"VEC2"
		},
		{
			"bufferView":19,
			"componentType":5123,
			"count":1428,
			"type":"SCALAR"
		}
	],
	"bufferViews":[
		{
			"buffer":0,
			"byteLength":15348,
			"byteOffset":0,
			"target":34962
		},
		{
			"buffer":0,
			"byteLength":15348,
			"byteOffset":15348,
			"target":34962
		},
		{
			"buffer":0,
			"byteLength":10232,
			"byteOffset":30696,
			"target":34962
		},
		{
			"buffer":0,
			"byteLength":5340,
			"byteOffset":40928,
			"target":34963
		},
		{
			"buffer":0,
			"byteLength":14796,
			"byteOffset":46268,
			"target":34962
		},
		{
			"buffer":0,
			"byteLength":14796,
			"byteOffset":61064,
			"target":34962
		},
		{
			"buffer":0,
			"byteLength":9864,
			"byteOffset":75860,
			"target":34962
		},
		{
			"buffer":0,
			"byteLength":5052,
			"byteOffset":85724,
			"target":34963
		},
		{
			"buffer":0,
			"byteLength":14580,
			"byteOffset":90776,
			"target":34962
		},
		{
			"buffer":0,
			"byteLength":14580,
			"byteOffset":105356,
			"target":34962
		},
		{
			"buffer":0,
			"byteLength":9720,
			"byteOffset":119936,
			"target":34962
		},
		{
			"buffer":0,
			"byteLength":6480,
			"byteOffset":129656,
			"target":34963
		},
		{
			"buffer":0,
			"byteLength":7944,
			"byteOffset":136136,
			"target":34962
		},
		{
			"buffer":0,
			"byteLength":7944,
			"byteOffset":144080,
			"target":34962
		},
		{
			"buffer":0,
			"byteLength":5296,
			"byteOffset":152024,
			"target":34962
		},
		{
			"buffer":0,
			"byteLength":5832,
			"byteOffset":157320,
			"target":34963
		},
		{
			"buffer":0,
			"byteLength":7044,
			"byteOffset":163152,
			"target":34962
		},
		{
			"buffer":0,
			"byteLength":7044,
			"byteOffset":170196,
			"target":34962
		},
		{
			"buffer":0,
			"byteLength":4696,
			"byteOffset":177240,
			"target":34962
		},
		{
			"buffer":0,
			"byteLength":2856,
			"byteOffset":181936,
			"target":34963
		}
	],
	"samplers":[
		{
			"magFilter":9729,
			"minFilter":9987
		}
	],
	"buffers":[
		{
			"byteLength":184792,
			"uri":"obj_wall.bin"
		}
	]
}
