{
	"asset":{
		"generator":"Khronos glTF Blender I/O v4.3.47",
		"version":"2.0"
	},
	"extensionsUsed":[
		"KHR_materials_specular"
	],
	"scene":0,
	"scenes":[
		{
			"name":"Scene",
			"nodes":[
				0,
				1
			]
		}
	],
	"nodes":[
		{
			"mesh":0,
			"name":"obj_tree"
		},
		{
			"mesh":1,
			"name":"obj_tree_collider"
		}
	],
	"materials":[
		{
			"doubleSided":true,
			"emissiveFactor":[
				0.10000000149011612,
				0.10000000149011612,
				0.10000000149011612
			],
			"emissiveTexture":{
				"index":0
			},
			"extensions":{
				"KHR_materials_specular":{
					"specularFactor":0
				}
			},
			"name":"obj_tree",
			"pbrMetallicRoughness":{
				"baseColorTexture":{
					"index":1
				},
				"metallicFactor":0
			}
		}
	],
	"meshes":[
		{
			"name":"obj_tree",
			"primitives":[
				{
					"attributes":{
						"POSITION":0,
						"NORMAL":1,
						"TEXCOORD_0":2
					},
					"indices":3,
					"material":0
				}
			]
		},
		{
			"name":"obj_tree_collider",
			"primitives":[
				{
					"attributes":{
						"POSITION":4,
						"NORMAL":5,
						"TEXCOORD_0":6
					},
					"indices":7
				}
			]
		}
	],
	"textures":[
		{
			"sampler":0,
			"source":0
		},
		{
			"sampler":0,
			"source":0
		}
	],
	"images":[
		{
			"mimeType":"image/png",
			"name":"obj_tree",
			"uri":"textures/obj_tree.png"
		}
	],
	"accessors":[
		{
			"bufferView":0,
			"componentType":5126,
			"count":9336,
			"max":[
				7.827526092529297,
				8.303210258483887,
				-2.976102828979492
			],
			"min":[
				-7.892918586730957,
				0.6282007694244385,
				-7.662441730499268
			],
			"type":"VEC3"
		},
		{
			"bufferView":1,
			"componentType":5126,
			"count":9336,
			"type":"VEC3"
		},
		{
			"bufferView":2,
			"componentType":5126,
			"count":9336,
			"type":"VEC2"
		},
		{
			"bufferView":3,
			"componentType":5123,
			"count":28986,
			"type":"SCALAR"
		},
		{
			"bufferView":4,
			"componentType":5126,
			"count":160,
			"max":[
				8.229082107543945,
				8.281750679016113,
				-3.0384232997894287
			],
			"min":[
				-8.229082107543945,
				0.628721296787262,
				-7.843994140625
			],
			"type":"VEC3"
		},
		{
			"bufferView":5,
			"componentType":5126,
			"count":160,
			"type":"VEC3"
		},
		{
			"bufferView":6,
			"componentType":5126,
			"count":160,
			"type":"VEC2"
		},
		{
			"bufferView":7,
			"componentType":5123,
			"count":372,
			"type":"SCALAR"
		}
	],
	"bufferViews":[
		{
			"buffer":0,
			"byteLength":112032,
			"byteOffset":0,
			"target":34962
		},
		{
			"buffer":0,
			"byteLength":112032,
			"byteOffset":112032,
			"target":34962
		},
		{
			"buffer":0,
			"byteLength":74688,
			"byteOffset":224064,
			"target":34962
		},
		{
			"buffer":0,
			"byteLength":57972,
			"byteOffset":298752,
			"target":34963
		},
		{
			"buffer":0,
			"byteLength":1920,
			"byteOffset":356724,
			"target":34962
		},
		{
			"buffer":0,
			"byteLength":1920,
			"byteOffset":358644,
			"target":34962
		},
		{
			"buffer":0,
			"byteLength":1280,
			"byteOffset":360564,
			"target":34962
		},
		{
			"buffer":0,
			"byteLength":744,
			"byteOffset":361844,
			"target":34963
		}
	],
	"samplers":[
		{
			"magFilter":9729,
			"minFilter":9987
		}
	],
	"buffers":[
		{
			"byteLength":362588,
			"uri":"obj_tree.bin"
		}
	]
}
