{
	"asset":{
		"generator":"Khronos glTF Blender I/O v4.1.63",
		"version":"2.0"
	},
	"scene":0,
	"scenes":[
		{
			"name":"Scene",
			"nodes":[
				0
			]
		}
	],
	"nodes":[
		{
			"mesh":0,
			"name":"target3_5"
		}
	],
	"meshes":[
		{
			"name":"Mesh.089",
			"primitives":[
				{
					"attributes":{
						"POSITION":0,
						"NORMAL":1,
						"TEXCOORD_0":2
					},
					"indices":3
				}
			]
		}
	],
	"accessors":[
		{
			"bufferView":0,
			"componentType":5126,
			"count":26,
			"max":[
				0.10135787725448608,
				0.04564575105905533,
				3.4461813402941743e-09
			],
			"min":[
				-0.10135787725448608,
				-0.0456460565328598,
				-3.446158247655262e-09
			],
			"type":"VEC3"
		},
		{
			"bufferView":1,
			"componentType":5126,
			"count":26,
			"type":"VEC3"
		},
		{
			"bufferView":2,
			"componentType":5126,
			"count":26,
			"type":"VEC2"
		},
		{
			"bufferView":3,
			"componentType":5123,
			"count":72,
			"type":"SCALAR"
		}
	],
	"bufferViews":[
		{
			"buffer":0,
			"byteLength":312,
			"byteOffset":0,
			"target":34962
		},
		{
			"buffer":0,
			"byteLength":312,
			"byteOffset":312,
			"target":34962
		},
		{
			"buffer":0,
			"byteLength":208,
			"byteOffset":624,
			"target":34962
		},
		{
			"buffer":0,
			"byteLength":144,
			"byteOffset":832,
			"target":34963
		}
	],
	"buffers":[
		{
			"byteLength":976,
			"uri":"target3_5.bin"
		}
	]
}
