{
	"asset":{
		"generator":"Khronos glTF Blender I/O v4.1.63",
		"version":"2.0"
	},
	"scene":0,
	"scenes":[
		{
			"name":"Scene",
			"nodes":[
				0
			]
		}
	],
	"nodes":[
		{
			"mesh":0,
			"name":"target3_17"
		}
	],
	"meshes":[
		{
			"name":"Mesh.077",
			"primitives":[
				{
					"attributes":{
						"POSITION":0,
						"NORMAL":1,
						"TEXCOORD_0":2
					},
					"indices":3
				}
			]
		}
	],
	"accessors":[
		{
			"bufferView":0,
			"componentType":5126,
			"count":11,
			"max":[
				0.04357360675930977,
				0.03898712247610092,
				2.9434226167524002e-09
			],
			"min":[
				-0.043573569506406784,
				-0.03898681700229645,
				-2.9434457093913124e-09
			],
			"type":"VEC3"
		},
		{
			"bufferView":1,
			"componentType":5126,
			"count":11,
			"type":"VEC3"
		},
		{
			"bufferView":2,
			"componentType":5126,
			"count":11,
			"type":"VEC2"
		},
		{
			"bufferView":3,
			"componentType":5123,
			"count":27,
			"type":"SCALAR"
		}
	],
	"bufferViews":[
		{
			"buffer":0,
			"byteLength":132,
			"byteOffset":0,
			"target":34962
		},
		{
			"buffer":0,
			"byteLength":132,
			"byteOffset":132,
			"target":34962
		},
		{
			"buffer":0,
			"byteLength":88,
			"byteOffset":264,
			"target":34962
		},
		{
			"buffer":0,
			"byteLength":54,
			"byteOffset":352,
			"target":34963
		}
	],
	"buffers":[
		{
			"byteLength":408,
			"uri":"target3_17.bin"
		}
	]
}
