{
    "asset" : {
        "generator" : "Khronos glTF Blender I/O v3.4.50",
        "version" : "2.0"
    },
    "extensionsUsed" : [
        "KHR_materials_specular"
    ],
    "scene" : 0,
    "scenes" : [
        {
            "name" : "Scene",
            "nodes" : [
                0
            ]
        }
    ],
    "nodes" : [
        {
            "mesh" : 0,
            "name" : "obj_station.145",
            "rotation" : [
                0,
                -0.14364361763000488,
                0,
                0.9896295666694641
            ],
            "scale" : [
                0.7484040856361389,
                1,
                0.9832110404968262
            ],
            "translation" : [
                0,
                0.5013568997383118,
                0
            ]
        }
    ],
    "materials" : [
        {
            "emissiveFactor" : [
                0.10000000149011612,
                0.10000000149011612,
                0.10000000149011612
            ],
            "emissiveTexture" : {
                "index" : 0
            },
            "extensions" : {
                "KHR_materials_specular" : {
                    "specularColorTexture" : {
                        "index" : 1
                    },
                    "specularColorFactor" : [
                        1,
                        1,
                        1.2777777910232542
                    ]
                }
            },
            "name" : "obj_station01",
            "pbrMetallicRoughness" : {
                "baseColorTexture" : {
                    "index" : 2
                },
                "metallicFactor" : 0
            }
        }
    ],
    "meshes" : [
        {
            "name" : "obj_station.145",
            "primitives" : [
                {
                    "attributes" : {
                        "POSITION" : 0,
                        "TEXCOORD_0" : 1,
                        "NORMAL" : 2
                    },
                    "indices" : 3,
                    "material" : 0
                }
            ]
        }
    ],
    "textures" : [
        {
            "sampler" : 0,
            "source" : 0
        },
        {
            "sampler" : 0,
            "source" : 1
        },
        {
            "sampler" : 0,
            "source" : 0
        }
    ],
    "images" : [
        {
            "mimeType" : "image/png",
            "name" : "obj_station01",
            "uri" : "textures/obj_station01.png"
        },
        {
            "mimeType" : "image/png",
            "name" : "Image",
            "uri" : "Image.png"
        }
    ],
    "accessors" : [
        {
            "bufferView" : 0,
            "componentType" : 5126,
            "count" : 9,
            "max" : [
                0.06776812672615051,
                8.220458403229713e-05,
                0.04244732856750488
            ],
            "min" : [
                -0.05498763173818588,
                -1.000307559967041,
                -0.024524815380573273
            ],
            "type" : "VEC3"
        },
        {
            "bufferView" : 1,
            "componentType" : 5126,
            "count" : 9,
            "type" : "VEC2"
        },
        {
            "bufferView" : 2,
            "componentType" : 5126,
            "count" : 9,
            "type" : "VEC3"
        },
        {
            "bufferView" : 3,
            "componentType" : 5123,
            "count" : 27,
            "type" : "SCALAR"
        }
    ],
    "bufferViews" : [
        {
            "buffer" : 0,
            "byteLength" : 108,
            "byteOffset" : 0,
            "target" : 34962
        },
        {
            "buffer" : 0,
            "byteLength" : 72,
            "byteOffset" : 108,
            "target" : 34962
        },
        {
            "buffer" : 0,
            "byteLength" : 108,
            "byteOffset" : 180,
            "target" : 34962
        },
        {
            "buffer" : 0,
            "byteLength" : 54,
            "byteOffset" : 288,
            "target" : 34963
        }
    ],
    "samplers" : [
        {
            "magFilter" : 9729,
            "minFilter" : 9987
        }
    ],
    "buffers" : [
        {
            "byteLength" : 344,
            "uri" : "obj_pipe.bin"
        }
    ]
}
