{
	"asset":{
		"generator":"Khronos glTF Blender I/O v4.3.47",
		"version":"2.0"
	},
	"extensionsUsed":[
		"KHR_materials_specular"
	],
	"scene":0,
	"scenes":[
		{
			"name":"Scene",
			"nodes":[
				0,
				1
			]
		}
	],
	"nodes":[
		{
			"mesh":0,
			"name":"obj_station"
		},
		{
			"mesh":1,
			"name":"obj_station_collider"
		}
	],
	"materials":[
		{
			"doubleSided":true,
			"emissiveFactor":[
				0.10000000149011612,
				0.10000000149011612,
				0.10000000149011612
			],
			"emissiveTexture":{
				"index":0
			},
			"extensions":{
				"KHR_materials_specular":{
					"specularFactor":0
				}
			},
			"name":"obj_station02",
			"pbrMetallicRoughness":{
				"baseColorTexture":{
					"index":1
				},
				"metallicFactor":0
			}
		},
		{
			"doubleSided":true,
			"emissiveFactor":[
				0.10000000149011612,
				0.10000000149011612,
				0.10000000149011612
			],
			"emissiveTexture":{
				"index":2
			},
			"extensions":{
				"KHR_materials_specular":{
					"specularFactor":0
				}
			},
			"name":"obj_station01",
			"pbrMetallicRoughness":{
				"baseColorTexture":{
					"index":3
				},
				"metallicFactor":0
			}
		}
	],
	"meshes":[
		{
			"name":"Mesh.005",
			"primitives":[
				{
					"attributes":{
						"POSITION":0,
						"NORMAL":1,
						"TEXCOORD_0":2
					},
					"indices":3,
					"material":0
				},
				{
					"attributes":{
						"POSITION":4,
						"NORMAL":5,
						"TEXCOORD_0":6
					},
					"indices":7,
					"material":1
				}
			]
		},
		{
			"name":"Mesh.006",
			"primitives":[
				{
					"attributes":{
						"POSITION":8,
						"NORMAL":9,
						"TEXCOORD_0":10
					},
					"indices":11
				}
			]
		}
	],
	"textures":[
		{
			"sampler":0,
			"source":0
		},
		{
			"sampler":0,
			"source":0
		},
		{
			"sampler":0,
			"source":1
		},
		{
			"sampler":0,
			"source":1
		}
	],
	"images":[
		{
			"mimeType":"image/png",
			"name":"obj_station02",
			"uri":"textures/obj_station02.png"
		},
		{
			"mimeType":"image/png",
			"name":"obj_station01",
			"uri":"textures/obj_station01.png"
		}
	],
	"accessors":[
		{
			"bufferView":0,
			"componentType":5126,
			"count":1049,
			"max":[
				3.6495022773742676,
				5.103742599487305,
				-5.276716232299805
			],
			"min":[
				-2.6395792961120605,
				1.0564104318618774,
				-6.54136323928833
			],
			"type":"VEC3"
		},
		{
			"bufferView":1,
			"componentType":5126,
			"count":1049,
			"type":"VEC3"
		},
		{
			"bufferView":2,
			"componentType":5126,
			"count":1049,
			"type":"VEC2"
		},
		{
			"bufferView":3,
			"componentType":5123,
			"count":2844,
			"type":"SCALAR"
		},
		{
			"bufferView":4,
			"componentType":5126,
			"count":212,
			"max":[
				3.812453508377075,
				5.213659286499023,
				-6.197067737579346
			],
			"min":[
				-3.2565062046051025,
				-5.028793452765967e-07,
				-8.000001907348633
			],
			"type":"VEC3"
		},
		{
			"bufferView":5,
			"componentType":5126,
			"count":212,
			"type":"VEC3"
		},
		{
			"bufferView":6,
			"componentType":5126,
			"count":212,
			"type":"VEC2"
		},
		{
			"bufferView":7,
			"componentType":5123,
			"count":552,
			"type":"SCALAR"
		},
		{
			"bufferView":8,
			"componentType":5126,
			"count":351,
			"max":[
				3.812453508377075,
				5.213659286499023,
				-5.2759833335876465
			],
			"min":[
				-3.2565062046051025,
				-5.028793452765967e-07,
				-8.000001907348633
			],
			"type":"VEC3"
		},
		{
			"bufferView":9,
			"componentType":5126,
			"count":351,
			"type":"VEC3"
		},
		{
			"bufferView":10,
			"componentType":5126,
			"count":351,
			"type":"VEC2"
		},
		{
			"bufferView":11,
			"componentType":5123,
			"count":573,
			"type":"SCALAR"
		}
	],
	"bufferViews":[
		{
			"buffer":0,
			"byteLength":12588,
			"byteOffset":0,
			"target":34962
		},
		{
			"buffer":0,
			"byteLength":12588,
			"byteOffset":12588,
			"target":34962
		},
		{
			"buffer":0,
			"byteLength":8392,
			"byteOffset":25176,
			"target":34962
		},
		{
			"buffer":0,
			"byteLength":5688,
			"byteOffset":33568,
			"target":34963
		},
		{
			"buffer":0,
			"byteLength":2544,
			"byteOffset":39256,
			"target":34962
		},
		{
			"buffer":0,
			"byteLength":2544,
			"byteOffset":41800,
			"target":34962
		},
		{
			"buffer":0,
			"byteLength":1696,
			"byteOffset":44344,
			"target":34962
		},
		{
			"buffer":0,
			"byteLength":1104,
			"byteOffset":46040,
			"target":34963
		},
		{
			"buffer":0,
			"byteLength":4212,
			"byteOffset":47144,
			"target":34962
		},
		{
			"buffer":0,
			"byteLength":4212,
			"byteOffset":51356,
			"target":34962
		},
		{
			"buffer":0,
			"byteLength":2808,
			"byteOffset":55568,
			"target":34962
		},
		{
			"buffer":0,
			"byteLength":1146,
			"byteOffset":58376,
			"target":34963
		}
	],
	"samplers":[
		{
			"magFilter":9729,
			"minFilter":9987
		}
	],
	"buffers":[
		{
			"byteLength":59524,
			"uri":"obj_station.bin"
		}
	]
}
