{
	"asset":{
		"generator":"Khronos glTF Blender I/O v4.3.47",
		"version":"2.0"
	},
	"extensionsUsed":[
		"KHR_materials_specular"
	],
	"scene":0,
	"scenes":[
		{
			"name":"Scene",
			"nodes":[
				0,
				1
			]
		}
	],
	"nodes":[
		{
			"mesh":0,
			"name":"obj_station"
		},
		{
			"mesh":1,
			"name":"obj_station_collider"
		}
	],
	"materials":[
		{
			"emissiveFactor":[
				0.10000000149011612,
				0.10000000149011612,
				0.10000000149011612
			],
			"emissiveTexture":{
				"index":0
			},
			"extensions":{
				"KHR_materials_specular":{
					"specularFactor":0
				}
			},
			"name":"obj_station02",
			"pbrMetallicRoughness":{
				"baseColorTexture":{
					"index":1
				},
				"metallicFactor":0
			}
		},
		{
			"emissiveFactor":[
				0.10000000149011612,
				0.10000000149011612,
				0.10000000149011612
			],
			"emissiveTexture":{
				"index":2
			},
			"extensions":{
				"KHR_materials_specular":{
					"specularFactor":0
				}
			},
			"name":"obj_station01",
			"pbrMetallicRoughness":{
				"baseColorTexture":{
					"index":3
				},
				"metallicFactor":0
			}
		},
		{
			"doubleSided":true,
			"emissiveFactor":[
				0.10000000149011612,
				0.10000000149011612,
				0.10000000149011612
			],
			"emissiveTexture":{
				"index":4
			},
			"extensions":{
				"KHR_materials_specular":{
					"specularFactor":0
				}
			},
			"name":"obj_wall01",
			"pbrMetallicRoughness":{
				"baseColorTexture":{
					"index":5
				},
				"metallicFactor":0
			}
		},
		{
			"doubleSided":true,
			"emissiveFactor":[
				0.10000000149011612,
				0.10000000149011612,
				0.10000000149011612
			],
			"emissiveTexture":{
				"index":6
			},
			"extensions":{
				"KHR_materials_specular":{
					"specularFactor":0
				}
			},
			"name":"obj_wall07",
			"pbrMetallicRoughness":{
				"baseColorTexture":{
					"index":7
				},
				"metallicFactor":0
			}
		}
	],
	"meshes":[
		{
			"name":"obj_station",
			"primitives":[
				{
					"attributes":{
						"POSITION":0,
						"NORMAL":1,
						"TEXCOORD_0":2
					},
					"indices":3,
					"material":0
				},
				{
					"attributes":{
						"POSITION":4,
						"NORMAL":5,
						"TEXCOORD_0":6
					},
					"indices":7,
					"material":1
				},
				{
					"attributes":{
						"POSITION":8,
						"NORMAL":9,
						"TEXCOORD_0":10
					},
					"indices":11,
					"material":2
				},
				{
					"attributes":{
						"POSITION":12,
						"NORMAL":13,
						"TEXCOORD_0":14
					},
					"indices":15,
					"material":3
				}
			]
		},
		{
			"name":"obj_station_collider",
			"primitives":[
				{
					"attributes":{
						"POSITION":16,
						"NORMAL":17,
						"TEXCOORD_0":18
					},
					"indices":19
				}
			]
		}
	],
	"textures":[
		{
			"sampler":0,
			"source":0
		},
		{
			"sampler":0,
			"source":0
		},
		{
			"sampler":0,
			"source":1
		},
		{
			"sampler":0,
			"source":1
		},
		{
			"sampler":0,
			"source":2
		},
		{
			"sampler":0,
			"source":2
		},
		{
			"sampler":0,
			"source":3
		},
		{
			"sampler":0,
			"source":3
		}
	],
	"images":[
		{
			"mimeType":"image/png",
			"name":"obj_station02",
			"uri":"textures/obj_station02.png"
		},
		{
			"mimeType":"image/png",
			"name":"obj_station01",
			"uri":"textures/obj_station01.png"
		},
		{
			"mimeType":"image/png",
			"name":"obj_wall01",
			"uri":"textures/obj_wall01.png"
		},
		{
			"mimeType":"image/png",
			"name":"obj_wall07",
			"uri":"textures/obj_wall07.png"
		}
	],
	"accessors":[
		{
			"bufferView":0,
			"componentType":5126,
			"count":1018,
			"max":[
				3.6495022773742676,
				5.103742599487305,
				-5.276716232299805
			],
			"min":[
				-2.6395792961120605,
				1.0564104318618774,
				-6.54136323928833
			],
			"type":"VEC3"
		},
		{
			"bufferView":1,
			"componentType":5126,
			"count":1018,
			"type":"VEC3"
		},
		{
			"bufferView":2,
			"componentType":5126,
			"count":1018,
			"type":"VEC2"
		},
		{
			"bufferView":3,
			"componentType":5123,
			"count":2697,
			"type":"SCALAR"
		},
		{
			"bufferView":4,
			"componentType":5126,
			"count":212,
			"max":[
				3.812453508377075,
				5.213659286499023,
				-6.197067737579346
			],
			"min":[
				-3.2565062046051025,
				-5.028793452765967e-07,
				-8.000001907348633
			],
			"type":"VEC3"
		},
		{
			"bufferView":5,
			"componentType":5126,
			"count":212,
			"type":"VEC3"
		},
		{
			"bufferView":6,
			"componentType":5126,
			"count":212,
			"type":"VEC2"
		},
		{
			"bufferView":7,
			"componentType":5123,
			"count":552,
			"type":"SCALAR"
		},
		{
			"bufferView":8,
			"componentType":5126,
			"count":612,
			"max":[
				2.773271083831787,
				4.505118370056152,
				-6.281710147857666
			],
			"min":[
				-2.2663469314575195,
				1.3664875030517578,
				-6.485368728637695
			],
			"type":"VEC3"
		},
		{
			"bufferView":9,
			"componentType":5126,
			"count":612,
			"type":"VEC3"
		},
		{
			"bufferView":10,
			"componentType":5126,
			"count":612,
			"type":"VEC2"
		},
		{
			"bufferView":11,
			"componentType":5123,
			"count":3048,
			"type":"SCALAR"
		},
		{
			"bufferView":12,
			"componentType":5126,
			"count":792,
			"max":[
				2.1279280185699463,
				2.950814723968506,
				-5.84636116027832
			],
			"min":[
				-1.5488512516021729,
				2.4303677082061768,
				-6.400521755218506
			],
			"type":"VEC3"
		},
		{
			"bufferView":13,
			"componentType":5126,
			"count":792,
			"type":"VEC3"
		},
		{
			"bufferView":14,
			"componentType":5126,
			"count":792,
			"type":"VEC2"
		},
		{
			"bufferView":15,
			"componentType":5123,
			"count":3840,
			"type":"SCALAR"
		},
		{
			"bufferView":16,
			"componentType":5126,
			"count":351,
			"max":[
				3.812453508377075,
				5.213659286499023,
				-5.2759833335876465
			],
			"min":[
				-3.2565062046051025,
				-5.028793452765967e-07,
				-8.000001907348633
			],
			"type":"VEC3"
		},
		{
			"bufferView":17,
			"componentType":5126,
			"count":351,
			"type":"VEC3"
		},
		{
			"bufferView":18,
			"componentType":5126,
			"count":351,
			"type":"VEC2"
		},
		{
			"bufferView":19,
			"componentType":5123,
			"count":573,
			"type":"SCALAR"
		}
	],
	"bufferViews":[
		{
			"buffer":0,
			"byteLength":12216,
			"byteOffset":0,
			"target":34962
		},
		{
			"buffer":0,
			"byteLength":12216,
			"byteOffset":12216,
			"target":34962
		},
		{
			"buffer":0,
			"byteLength":8144,
			"byteOffset":24432,
			"target":34962
		},
		{
			"buffer":0,
			"byteLength":5394,
			"byteOffset":32576,
			"target":34963
		},
		{
			"buffer":0,
			"byteLength":2544,
			"byteOffset":37972,
			"target":34962
		},
		{
			"buffer":0,
			"byteLength":2544,
			"byteOffset":40516,
			"target":34962
		},
		{
			"buffer":0,
			"byteLength":1696,
			"byteOffset":43060,
			"target":34962
		},
		{
			"buffer":0,
			"byteLength":1104,
			"byteOffset":44756,
			"target":34963
		},
		{
			"buffer":0,
			"byteLength":7344,
			"byteOffset":45860,
			"target":34962
		},
		{
			"buffer":0,
			"byteLength":7344,
			"byteOffset":53204,
			"target":34962
		},
		{
			"buffer":0,
			"byteLength":4896,
			"byteOffset":60548,
			"target":34962
		},
		{
			"buffer":0,
			"byteLength":6096,
			"byteOffset":65444,
			"target":34963
		},
		{
			"buffer":0,
			"byteLength":9504,
			"byteOffset":71540,
			"target":34962
		},
		{
			"buffer":0,
			"byteLength":9504,
			"byteOffset":81044,
			"target":34962
		},
		{
			"buffer":0,
			"byteLength":6336,
			"byteOffset":90548,
			"target":34962
		},
		{
			"buffer":0,
			"byteLength":7680,
			"byteOffset":96884,
			"target":34963
		},
		{
			"buffer":0,
			"byteLength":4212,
			"byteOffset":104564,
			"target":34962
		},
		{
			"buffer":0,
			"byteLength":4212,
			"byteOffset":108776,
			"target":34962
		},
		{
			"buffer":0,
			"byteLength":2808,
			"byteOffset":112988,
			"target":34962
		},
		{
			"buffer":0,
			"byteLength":1146,
			"byteOffset":115796,
			"target":34963
		}
	],
	"samplers":[
		{
			"magFilter":9729,
			"minFilter":9987
		}
	],
	"buffers":[
		{
			"byteLength":116944,
			"uri":"obj_station.bin"
		}
	]
}
