{
	"asset":{
		"generator":"Khronos glTF Blender I/O v4.3.47",
		"version":"2.0"
	},
	"extensionsUsed":[
		"KHR_materials_specular",
		"KHR_materials_ior"
	],
	"scene":0,
	"scenes":[
		{
			"name":"Scene",
			"nodes":[
				0
			]
		}
	],
	"nodes":[
		{
			"mesh":0,
			"name":"obj_glass"
		}
	],
	"materials":[
		{
			"alphaMode":"BLEND",
			"emissiveFactor":[
				0.10000000149011612,
				0.10000000149011612,
				0.10000000149011612
			],
			"emissiveTexture":{
				"index":0
			},
			"extensions":{
				"KHR_materials_specular":{
					"specularFactor":0
				},
				"KHR_materials_ior":{
					"ior":1.4500000476837158
				}
			},
			"name":"obj_glass01",
			"pbrMetallicRoughness":{
				"baseColorTexture":{
					"index":1
				},
				"metallicFactor":0
			}
		},
		{
			"alphaMode":"BLEND",
			"doubleSided":true,
			"emissiveFactor":[
				0.10000000149011612,
				0.10000000149011612,
				0.10000000149011612
			],
			"emissiveTexture":{
				"index":2
			},
			"extensions":{
				"KHR_materials_specular":{
					"specularFactor":0
				},
				"KHR_materials_ior":{
					"ior":1.4500000476837158
				}
			},
			"name":"obj_glass02",
			"pbrMetallicRoughness":{
				"baseColorTexture":{
					"index":3
				},
				"metallicFactor":0
			}
		},
		{
			"alphaMode":"BLEND",
			"emissiveFactor":[
				0.10000000149011612,
				0.10000000149011612,
				0.10000000149011612
			],
			"emissiveTexture":{
				"index":4
			},
			"extensions":{
				"KHR_materials_specular":{
					"specularFactor":0
				},
				"KHR_materials_ior":{
					"ior":1.4500000476837158
				}
			},
			"name":"obj_glass03",
			"pbrMetallicRoughness":{
				"baseColorTexture":{
					"index":5
				},
				"metallicFactor":0
			}
		},
		{
			"alphaMode":"BLEND",
			"doubleSided":true,
			"emissiveFactor":[
				0.10000000149011612,
				0.10000000149011612,
				0.10000000149011612
			],
			"emissiveTexture":{
				"index":6
			},
			"extensions":{
				"KHR_materials_specular":{
					"specularFactor":0
				},
				"KHR_materials_ior":{
					"ior":1.4500000476837158
				}
			},
			"name":"obj_glass04",
			"pbrMetallicRoughness":{
				"baseColorTexture":{
					"index":7
				},
				"metallicFactor":0
			}
		}
	],
	"meshes":[
		{
			"name":"Mesh.010",
			"primitives":[
				{
					"attributes":{
						"POSITION":0,
						"NORMAL":1,
						"TEXCOORD_0":2
					},
					"indices":3,
					"material":0
				},
				{
					"attributes":{
						"POSITION":4,
						"NORMAL":5,
						"TEXCOORD_0":6
					},
					"indices":7,
					"material":1
				},
				{
					"attributes":{
						"POSITION":8,
						"NORMAL":9,
						"TEXCOORD_0":10
					},
					"indices":11,
					"material":2
				},
				{
					"attributes":{
						"POSITION":12,
						"NORMAL":13,
						"TEXCOORD_0":14
					},
					"indices":15,
					"material":3
				}
			]
		}
	],
	"textures":[
		{
			"sampler":0,
			"source":0
		},
		{
			"sampler":0,
			"source":0
		},
		{
			"sampler":0,
			"source":1
		},
		{
			"sampler":0,
			"source":1
		},
		{
			"sampler":0,
			"source":2
		},
		{
			"sampler":0,
			"source":2
		},
		{
			"sampler":0,
			"source":3
		},
		{
			"sampler":0,
			"source":3
		}
	],
	"images":[
		{
			"mimeType":"image/png",
			"name":"obj_glass01",
			"uri":"textures/obj_glass01.png"
		},
		{
			"mimeType":"image/png",
			"name":"obj_glass02",
			"uri":"textures/obj_glass02.png"
		},
		{
			"mimeType":"image/png",
			"name":"obj_glass03",
			"uri":"textures/obj_glass03.png"
		},
		{
			"mimeType":"image/png",
			"name":"obj_glass04",
			"uri":"textures/obj_glass04.png"
		}
	],
	"accessors":[
		{
			"bufferView":0,
			"componentType":5126,
			"count":123,
			"max":[
				4.7785773277282715,
				7.642796993255615,
				-6.20803689956665
			],
			"min":[
				3.3673131465911865,
				6.227023124694824,
				-7.67214822769165
			],
			"type":"VEC3"
		},
		{
			"bufferView":1,
			"componentType":5126,
			"count":123,
			"type":"VEC3"
		},
		{
			"bufferView":2,
			"componentType":5126,
			"count":123,
			"type":"VEC2"
		},
		{
			"bufferView":3,
			"componentType":5123,
			"count":672,
			"type":"SCALAR"
		},
		{
			"bufferView":4,
			"componentType":5126,
			"count":784,
			"max":[
				7.2856950759887695,
				4.115320682525635,
				6.068636417388916
			],
			"min":[
				-7.2856950759887695,
				0.3546565771102905,
				1.8941823244094849
			],
			"type":"VEC3"
		},
		{
			"bufferView":5,
			"componentType":5126,
			"count":784,
			"type":"VEC3"
		},
		{
			"bufferView":6,
			"componentType":5126,
			"count":784,
			"type":"VEC2"
		},
		{
			"bufferView":7,
			"componentType":5123,
			"count":2784,
			"type":"SCALAR"
		},
		{
			"bufferView":8,
			"componentType":5126,
			"count":832,
			"max":[
				7.975688457489014,
				3.540024995803833,
				1.3109208345413208
			],
			"min":[
				-7.975688457489014,
				0.3224264681339264,
				-1.1414202451705933
			],
			"type":"VEC3"
		},
		{
			"bufferView":9,
			"componentType":5126,
			"count":832,
			"type":"VEC3"
		},
		{
			"bufferView":10,
			"componentType":5126,
			"count":832,
			"type":"VEC2"
		},
		{
			"bufferView":11,
			"componentType":5123,
			"count":2184,
			"type":"SCALAR"
		},
		{
			"bufferView":12,
			"componentType":5126,
			"count":1222,
			"max":[
				5.860734939575195,
				3.8934202194213867,
				7.795324325561523
			],
			"min":[
				-5.925760746002197,
				0.1773715764284134,
				-7.858443260192871
			],
			"type":"VEC3"
		},
		{
			"bufferView":13,
			"componentType":5126,
			"count":1222,
			"type":"VEC3"
		},
		{
			"bufferView":14,
			"componentType":5126,
			"count":1222,
			"type":"VEC2"
		},
		{
			"bufferView":15,
			"componentType":5123,
			"count":5184,
			"type":"SCALAR"
		}
	],
	"bufferViews":[
		{
			"buffer":0,
			"byteLength":1476,
			"byteOffset":0,
			"target":34962
		},
		{
			"buffer":0,
			"byteLength":1476,
			"byteOffset":1476,
			"target":34962
		},
		{
			"buffer":0,
			"byteLength":984,
			"byteOffset":2952,
			"target":34962
		},
		{
			"buffer":0,
			"byteLength":1344,
			"byteOffset":3936,
			"target":34963
		},
		{
			"buffer":0,
			"byteLength":9408,
			"byteOffset":5280,
			"target":34962
		},
		{
			"buffer":0,
			"byteLength":9408,
			"byteOffset":14688,
			"target":34962
		},
		{
			"buffer":0,
			"byteLength":6272,
			"byteOffset":24096,
			"target":34962
		},
		{
			"buffer":0,
			"byteLength":5568,
			"byteOffset":30368,
			"target":34963
		},
		{
			"buffer":0,
			"byteLength":9984,
			"byteOffset":35936,
			"target":34962
		},
		{
			"buffer":0,
			"byteLength":9984,
			"byteOffset":45920,
			"target":34962
		},
		{
			"buffer":0,
			"byteLength":6656,
			"byteOffset":55904,
			"target":34962
		},
		{
			"buffer":0,
			"byteLength":4368,
			"byteOffset":62560,
			"target":34963
		},
		{
			"buffer":0,
			"byteLength":14664,
			"byteOffset":66928,
			"target":34962
		},
		{
			"buffer":0,
			"byteLength":14664,
			"byteOffset":81592,
			"target":34962
		},
		{
			"buffer":0,
			"byteLength":9776,
			"byteOffset":96256,
			"target":34962
		},
		{
			"buffer":0,
			"byteLength":10368,
			"byteOffset":106032,
			"target":34963
		}
	],
	"samplers":[
		{
			"magFilter":9729,
			"minFilter":9987
		}
	],
	"buffers":[
		{
			"byteLength":116400,
			"uri":"obj_glass.bin"
		}
	]
}
