{
	"asset":{
		"generator":"Khronos glTF Blender I/O v4.3.47",
		"version":"2.0"
	},
	"extensionsUsed":[
		"KHR_materials_specular",
		"KHR_materials_ior"
	],
	"scene":0,
	"scenes":[
		{
			"name":"Scene",
			"nodes":[
				0,
				1
			]
		}
	],
	"nodes":[
		{
			"mesh":0,
			"name":"obj_wall"
		},
		{
			"mesh":1,
			"name":"obj_wall_collider"
		}
	],
	"materials":[
		{
			"doubleSided":true,
			"emissiveFactor":[
				0.10000000149011612,
				0.10000000149011612,
				0.10000000149011612
			],
			"emissiveTexture":{
				"index":0
			},
			"extensions":{
				"KHR_materials_specular":{
					"specularFactor":0
				},
				"KHR_materials_ior":{
					"ior":1.4500000476837158
				}
			},
			"name":"obj_wall01",
			"pbrMetallicRoughness":{
				"baseColorTexture":{
					"index":1
				},
				"metallicFactor":0
			}
		},
		{
			"doubleSided":true,
			"emissiveFactor":[
				0.10000000149011612,
				0.10000000149011612,
				0.10000000149011612
			],
			"emissiveTexture":{
				"index":2
			},
			"extensions":{
				"KHR_materials_specular":{
					"specularFactor":0
				},
				"KHR_materials_ior":{
					"ior":1.4500000476837158
				}
			},
			"name":"obj_wall02",
			"pbrMetallicRoughness":{
				"baseColorTexture":{
					"index":3
				},
				"metallicFactor":0
			}
		},
		{
			"doubleSided":true,
			"emissiveFactor":[
				0.10000000149011612,
				0.10000000149011612,
				0.10000000149011612
			],
			"emissiveTexture":{
				"index":4
			},
			"extensions":{
				"KHR_materials_specular":{
					"specularFactor":0
				},
				"KHR_materials_ior":{
					"ior":1.4500000476837158
				}
			},
			"name":"obj_wall03",
			"pbrMetallicRoughness":{
				"baseColorTexture":{
					"index":5
				},
				"metallicFactor":0
			}
		},
		{
			"doubleSided":true,
			"emissiveFactor":[
				0.10000000149011612,
				0.10000000149011612,
				0.10000000149011612
			],
			"emissiveTexture":{
				"index":6
			},
			"extensions":{
				"KHR_materials_specular":{
					"specularFactor":0
				},
				"KHR_materials_ior":{
					"ior":1.4500000476837158
				}
			},
			"name":"obj_wall04",
			"pbrMetallicRoughness":{
				"baseColorTexture":{
					"index":7
				},
				"metallicFactor":0
			}
		},
		{
			"doubleSided":true,
			"emissiveFactor":[
				0.10000000149011612,
				0.10000000149011612,
				0.10000000149011612
			],
			"emissiveTexture":{
				"index":8
			},
			"extensions":{
				"KHR_materials_specular":{
					"specularFactor":0
				},
				"KHR_materials_ior":{
					"ior":1.4500000476837158
				}
			},
			"name":"obj_wall05",
			"pbrMetallicRoughness":{
				"baseColorTexture":{
					"index":9
				},
				"metallicFactor":0
			}
		},
		{
			"doubleSided":true,
			"emissiveFactor":[
				0.10000000149011612,
				0.10000000149011612,
				0.10000000149011612
			],
			"emissiveTexture":{
				"index":10
			},
			"extensions":{
				"KHR_materials_specular":{
					"specularFactor":0
				},
				"KHR_materials_ior":{
					"ior":1.4500000476837158
				}
			},
			"name":"obj_wall06",
			"pbrMetallicRoughness":{
				"baseColorTexture":{
					"index":11
				},
				"metallicFactor":0
			}
		},
		{
			"doubleSided":true,
			"emissiveFactor":[
				0.10000000149011612,
				0.10000000149011612,
				0.10000000149011612
			],
			"emissiveTexture":{
				"index":12
			},
			"extensions":{
				"KHR_materials_specular":{
					"specularFactor":0
				},
				"KHR_materials_ior":{
					"ior":1.4500000476837158
				}
			},
			"name":"obj_wall07",
			"pbrMetallicRoughness":{
				"baseColorTexture":{
					"index":13
				},
				"metallicFactor":0
			}
		},
		{
			"doubleSided":true,
			"emissiveFactor":[
				0.10000000149011612,
				0.10000000149011612,
				0.10000000149011612
			],
			"emissiveTexture":{
				"index":14
			},
			"extensions":{
				"KHR_materials_specular":{
					"specularFactor":0
				},
				"KHR_materials_ior":{
					"ior":1.4500000476837158
				}
			},
			"name":"obj_wall08",
			"pbrMetallicRoughness":{
				"baseColorTexture":{
					"index":15
				},
				"metallicFactor":0
			}
		},
		{
			"doubleSided":true,
			"emissiveFactor":[
				0.10000000149011612,
				0.10000000149011612,
				0.10000000149011612
			],
			"emissiveTexture":{
				"index":16
			},
			"extensions":{
				"KHR_materials_specular":{
					"specularFactor":0
				},
				"KHR_materials_ior":{
					"ior":1.4500000476837158
				}
			},
			"name":"obj_wall09",
			"pbrMetallicRoughness":{
				"baseColorTexture":{
					"index":17
				},
				"metallicFactor":0
			}
		},
		{
			"doubleSided":true,
			"emissiveFactor":[
				0.10000000149011612,
				0.10000000149011612,
				0.10000000149011612
			],
			"emissiveTexture":{
				"index":18
			},
			"extensions":{
				"KHR_materials_specular":{
					"specularFactor":0
				},
				"KHR_materials_ior":{
					"ior":1.4500000476837158
				}
			},
			"name":"obj_glass05",
			"pbrMetallicRoughness":{
				"baseColorTexture":{
					"index":19
				},
				"metallicFactor":0
			}
		}
	],
	"meshes":[
		{
			"name":"Mesh.011",
			"primitives":[
				{
					"attributes":{
						"POSITION":0,
						"NORMAL":1,
						"TEXCOORD_0":2
					},
					"indices":3,
					"material":0
				},
				{
					"attributes":{
						"POSITION":4,
						"NORMAL":5,
						"TEXCOORD_0":6
					},
					"indices":7,
					"material":1
				},
				{
					"attributes":{
						"POSITION":8,
						"NORMAL":9,
						"TEXCOORD_0":10
					},
					"indices":11,
					"material":2
				},
				{
					"attributes":{
						"POSITION":12,
						"NORMAL":13,
						"TEXCOORD_0":14
					},
					"indices":15,
					"material":3
				},
				{
					"attributes":{
						"POSITION":16,
						"NORMAL":17,
						"TEXCOORD_0":18
					},
					"indices":19,
					"material":4
				},
				{
					"attributes":{
						"POSITION":20,
						"NORMAL":21,
						"TEXCOORD_0":22
					},
					"indices":23,
					"material":5
				},
				{
					"attributes":{
						"POSITION":24,
						"NORMAL":25,
						"TEXCOORD_0":26
					},
					"indices":27,
					"material":6
				},
				{
					"attributes":{
						"POSITION":28,
						"NORMAL":29,
						"TEXCOORD_0":30
					},
					"indices":31,
					"material":7
				},
				{
					"attributes":{
						"POSITION":32,
						"NORMAL":33,
						"TEXCOORD_0":34
					},
					"indices":35,
					"material":8
				},
				{
					"attributes":{
						"POSITION":36,
						"NORMAL":37,
						"TEXCOORD_0":38
					},
					"indices":39,
					"material":9
				}
			]
		},
		{
			"name":"Mesh",
			"primitives":[
				{
					"attributes":{
						"POSITION":40,
						"NORMAL":41,
						"TEXCOORD_0":42
					},
					"indices":43
				}
			]
		}
	],
	"textures":[
		{
			"sampler":0,
			"source":0
		},
		{
			"sampler":0,
			"source":0
		},
		{
			"sampler":0,
			"source":1
		},
		{
			"sampler":0,
			"source":1
		},
		{
			"sampler":0,
			"source":2
		},
		{
			"sampler":0,
			"source":2
		},
		{
			"sampler":0,
			"source":3
		},
		{
			"sampler":0,
			"source":3
		},
		{
			"sampler":0,
			"source":4
		},
		{
			"sampler":0,
			"source":4
		},
		{
			"sampler":0,
			"source":5
		},
		{
			"sampler":0,
			"source":5
		},
		{
			"sampler":0,
			"source":6
		},
		{
			"sampler":0,
			"source":6
		},
		{
			"sampler":0,
			"source":7
		},
		{
			"sampler":0,
			"source":7
		},
		{
			"sampler":0,
			"source":8
		},
		{
			"sampler":0,
			"source":8
		},
		{
			"sampler":0,
			"source":9
		},
		{
			"sampler":0,
			"source":9
		}
	],
	"images":[
		{
			"mimeType":"image/png",
			"name":"obj_wall01",
			"uri":"textures/obj_wall01.png"
		},
		{
			"mimeType":"image/png",
			"name":"obj_wall02",
			"uri":"textures/obj_wall02.png"
		},
		{
			"mimeType":"image/png",
			"name":"obj_wall03",
			"uri":"textures/obj_wall03.png"
		},
		{
			"mimeType":"image/png",
			"name":"obj_wall04",
			"uri":"textures/obj_wall04.png"
		},
		{
			"mimeType":"image/png",
			"name":"obj_wall05",
			"uri":"textures/obj_wall05.png"
		},
		{
			"mimeType":"image/png",
			"name":"obj_wall06",
			"uri":"textures/obj_wall06.png"
		},
		{
			"mimeType":"image/png",
			"name":"obj_wall07",
			"uri":"textures/obj_wall07.png"
		},
		{
			"mimeType":"image/png",
			"name":"obj_wall08",
			"uri":"textures/obj_wall08.png"
		},
		{
			"mimeType":"image/png",
			"name":"obj_wall09",
			"uri":"textures/obj_wall09.png"
		},
		{
			"mimeType":"image/png",
			"name":"obj_glass05",
			"uri":"textures/obj_glass05.png"
		}
	],
	"accessors":[
		{
			"bufferView":0,
			"componentType":5126,
			"count":810,
			"max":[
				7.084270477294922,
				7.096207141876221,
				-1.078412652015686
			],
			"min":[
				3.7728545665740967,
				0.20977826416492462,
				-7.1389031410217285
			],
			"type":"VEC3"
		},
		{
			"bufferView":1,
			"componentType":5126,
			"count":810,
			"type":"VEC3"
		},
		{
			"bufferView":2,
			"componentType":5126,
			"count":810,
			"type":"VEC2"
		},
		{
			"bufferView":3,
			"componentType":5123,
			"count":4068,
			"type":"SCALAR"
		},
		{
			"bufferView":4,
			"componentType":5126,
			"count":184,
			"max":[
				3.2212822437286377,
				5.063018321990967,
				-6.314080715179443
			],
			"min":[
				-3.2212822437286377,
				7.209669092844706e-07,
				-7.912811279296875
			],
			"type":"VEC3"
		},
		{
			"bufferView":5,
			"componentType":5126,
			"count":184,
			"type":"VEC3"
		},
		{
			"bufferView":6,
			"componentType":5126,
			"count":184,
			"type":"VEC2"
		},
		{
			"bufferView":7,
			"componentType":5123,
			"count":504,
			"type":"SCALAR"
		},
		{
			"bufferView":8,
			"componentType":5126,
			"count":970,
			"max":[
				7.975680828094482,
				5.045409202575684,
				0.984731137752533
			],
			"min":[
				-7.975680828094482,
				-7.249404632148071e-08,
				-1.1414203643798828
			],
			"type":"VEC3"
		},
		{
			"bufferView":9,
			"componentType":5126,
			"count":970,
			"type":"VEC3"
		},
		{
			"bufferView":10,
			"componentType":5126,
			"count":970,
			"type":"VEC2"
		},
		{
			"bufferView":11,
			"componentType":5123,
			"count":3024,
			"type":"SCALAR"
		},
		{
			"bufferView":12,
			"componentType":5126,
			"count":280,
			"max":[
				7.167212963104248,
				2.785813093185425,
				6.035922527313232
			],
			"min":[
				-7.167212963104248,
				0.3848157525062561,
				2.0211050510406494
			],
			"type":"VEC3"
		},
		{
			"bufferView":13,
			"componentType":5126,
			"count":280,
			"type":"VEC3"
		},
		{
			"bufferView":14,
			"componentType":5126,
			"count":280,
			"type":"VEC2"
		},
		{
			"bufferView":15,
			"componentType":5123,
			"count":912,
			"type":"SCALAR"
		},
		{
			"bufferView":16,
			"componentType":5126,
			"count":410,
			"max":[
				5.816366672515869,
				6.91074275970459,
				7.75234317779541
			],
			"min":[
				-5.856201171875,
				0.25087055563926697,
				-7.788884162902832
			],
			"type":"VEC3"
		},
		{
			"bufferView":17,
			"componentType":5126,
			"count":410,
			"type":"VEC3"
		},
		{
			"bufferView":18,
			"componentType":5126,
			"count":410,
			"type":"VEC2"
		},
		{
			"bufferView":19,
			"componentType":5123,
			"count":1632,
			"type":"SCALAR"
		},
		{
			"bufferView":20,
			"componentType":5126,
			"count":898,
			"max":[
				7.528693675994873,
				3.3556320667266846,
				6.682400226593018
			],
			"min":[
				-7.528693675994873,
				0.15000145137310028,
				1.5125579833984375
			],
			"type":"VEC3"
		},
		{
			"bufferView":21,
			"componentType":5126,
			"count":898,
			"type":"VEC3"
		},
		{
			"bufferView":22,
			"componentType":5126,
			"count":898,
			"type":"VEC2"
		},
		{
			"bufferView":23,
			"componentType":5123,
			"count":3348,
			"type":"SCALAR"
		},
		{
			"bufferView":24,
			"componentType":5126,
			"count":1566,
			"max":[
				7.080647945404053,
				5.473963737487793,
				7.147493362426758
			],
			"min":[
				-7.08318567276001,
				0.20977826416492462,
				-7.164196014404297
			],
			"type":"VEC3"
		},
		{
			"bufferView":25,
			"componentType":5126,
			"count":1566,
			"type":"VEC3"
		},
		{
			"bufferView":26,
			"componentType":5126,
			"count":1566,
			"type":"VEC2"
		},
		{
			"bufferView":27,
			"componentType":5123,
			"count":7776,
			"type":"SCALAR"
		},
		{
			"bufferView":28,
			"componentType":5126,
			"count":284,
			"max":[
				5.612801551818848,
				0.9397298693656921,
				-4.887501239776611
			],
			"min":[
				-5.612801551818848,
				0.09267845749855042,
				-7.992677211761475
			],
			"type":"VEC3"
		},
		{
			"bufferView":29,
			"componentType":5126,
			"count":284,
			"type":"VEC3"
		},
		{
			"bufferView":30,
			"componentType":5126,
			"count":284,
			"type":"VEC2"
		},
		{
			"bufferView":31,
			"componentType":5123,
			"count":954,
			"type":"SCALAR"
		},
		{
			"bufferView":32,
			"componentType":5126,
			"count":2052,
			"max":[
				6.343923091888428,
				1.1507643461227417,
				1.432808756828308
			],
			"min":[
				-6.352969646453857,
				0.15000052750110626,
				1.1694751977920532
			],
			"type":"VEC3"
		},
		{
			"bufferView":33,
			"componentType":5126,
			"count":2052,
			"type":"VEC3"
		},
		{
			"bufferView":34,
			"componentType":5126,
			"count":2052,
			"type":"VEC2"
		},
		{
			"bufferView":35,
			"componentType":5123,
			"count":7848,
			"type":"SCALAR"
		},
		{
			"bufferView":36,
			"componentType":5126,
			"count":171,
			"max":[
				3.4006381034851074,
				7.2070817947387695,
				-6.643479347229004
			],
			"min":[
				-3.8606250286102295,
				-5.428368581306131e-07,
				-7.236705780029297
			],
			"type":"VEC3"
		},
		{
			"bufferView":37,
			"componentType":5126,
			"count":171,
			"type":"VEC3"
		},
		{
			"bufferView":38,
			"componentType":5126,
			"count":171,
			"type":"VEC2"
		},
		{
			"bufferView":39,
			"componentType":5123,
			"count":816,
			"type":"SCALAR"
		},
		{
			"bufferView":40,
			"componentType":5126,
			"count":1010,
			"max":[
				7.967663288116455,
				7.700711250305176,
				7.844671249389648
			],
			"min":[
				-7.967663288116455,
				-5.428368581306131e-07,
				-7.992676734924316
			],
			"type":"VEC3"
		},
		{
			"bufferView":41,
			"componentType":5126,
			"count":1010,
			"type":"VEC3"
		},
		{
			"bufferView":42,
			"componentType":5126,
			"count":1010,
			"type":"VEC2"
		},
		{
			"bufferView":43,
			"componentType":5123,
			"count":2460,
			"type":"SCALAR"
		}
	],
	"bufferViews":[
		{
			"buffer":0,
			"byteLength":9720,
			"byteOffset":0,
			"target":34962
		},
		{
			"buffer":0,
			"byteLength":9720,
			"byteOffset":9720,
			"target":34962
		},
		{
			"buffer":0,
			"byteLength":6480,
			"byteOffset":19440,
			"target":34962
		},
		{
			"buffer":0,
			"byteLength":8136,
			"byteOffset":25920,
			"target":34963
		},
		{
			"buffer":0,
			"byteLength":2208,
			"byteOffset":34056,
			"target":34962
		},
		{
			"buffer":0,
			"byteLength":2208,
			"byteOffset":36264,
			"target":34962
		},
		{
			"buffer":0,
			"byteLength":1472,
			"byteOffset":38472,
			"target":34962
		},
		{
			"buffer":0,
			"byteLength":1008,
			"byteOffset":39944,
			"target":34963
		},
		{
			"buffer":0,
			"byteLength":11640,
			"byteOffset":40952,
			"target":34962
		},
		{
			"buffer":0,
			"byteLength":11640,
			"byteOffset":52592,
			"target":34962
		},
		{
			"buffer":0,
			"byteLength":7760,
			"byteOffset":64232,
			"target":34962
		},
		{
			"buffer":0,
			"byteLength":6048,
			"byteOffset":71992,
			"target":34963
		},
		{
			"buffer":0,
			"byteLength":3360,
			"byteOffset":78040,
			"target":34962
		},
		{
			"buffer":0,
			"byteLength":3360,
			"byteOffset":81400,
			"target":34962
		},
		{
			"buffer":0,
			"byteLength":2240,
			"byteOffset":84760,
			"target":34962
		},
		{
			"buffer":0,
			"byteLength":1824,
			"byteOffset":87000,
			"target":34963
		},
		{
			"buffer":0,
			"byteLength":4920,
			"byteOffset":88824,
			"target":34962
		},
		{
			"buffer":0,
			"byteLength":4920,
			"byteOffset":93744,
			"target":34962
		},
		{
			"buffer":0,
			"byteLength":3280,
			"byteOffset":98664,
			"target":34962
		},
		{
			"buffer":0,
			"byteLength":3264,
			"byteOffset":101944,
			"target":34963
		},
		{
			"buffer":0,
			"byteLength":10776,
			"byteOffset":105208,
			"target":34962
		},
		{
			"buffer":0,
			"byteLength":10776,
			"byteOffset":115984,
			"target":34962
		},
		{
			"buffer":0,
			"byteLength":7184,
			"byteOffset":126760,
			"target":34962
		},
		{
			"buffer":0,
			"byteLength":6696,
			"byteOffset":133944,
			"target":34963
		},
		{
			"buffer":0,
			"byteLength":18792,
			"byteOffset":140640,
			"target":34962
		},
		{
			"buffer":0,
			"byteLength":18792,
			"byteOffset":159432,
			"target":34962
		},
		{
			"buffer":0,
			"byteLength":12528,
			"byteOffset":178224,
			"target":34962
		},
		{
			"buffer":0,
			"byteLength":15552,
			"byteOffset":190752,
			"target":34963
		},
		{
			"buffer":0,
			"byteLength":3408,
			"byteOffset":206304,
			"target":34962
		},
		{
			"buffer":0,
			"byteLength":3408,
			"byteOffset":209712,
			"target":34962
		},
		{
			"buffer":0,
			"byteLength":2272,
			"byteOffset":213120,
			"target":34962
		},
		{
			"buffer":0,
			"byteLength":1908,
			"byteOffset":215392,
			"target":34963
		},
		{
			"buffer":0,
			"byteLength":24624,
			"byteOffset":217300,
			"target":34962
		},
		{
			"buffer":0,
			"byteLength":24624,
			"byteOffset":241924,
			"target":34962
		},
		{
			"buffer":0,
			"byteLength":16416,
			"byteOffset":266548,
			"target":34962
		},
		{
			"buffer":0,
			"byteLength":15696,
			"byteOffset":282964,
			"target":34963
		},
		{
			"buffer":0,
			"byteLength":2052,
			"byteOffset":298660,
			"target":34962
		},
		{
			"buffer":0,
			"byteLength":2052,
			"byteOffset":300712,
			"target":34962
		},
		{
			"buffer":0,
			"byteLength":1368,
			"byteOffset":302764,
			"target":34962
		},
		{
			"buffer":0,
			"byteLength":1632,
			"byteOffset":304132,
			"target":34963
		},
		{
			"buffer":0,
			"byteLength":12120,
			"byteOffset":305764,
			"target":34962
		},
		{
			"buffer":0,
			"byteLength":12120,
			"byteOffset":317884,
			"target":34962
		},
		{
			"buffer":0,
			"byteLength":8080,
			"byteOffset":330004,
			"target":34962
		},
		{
			"buffer":0,
			"byteLength":4920,
			"byteOffset":338084,
			"target":34963
		}
	],
	"samplers":[
		{
			"magFilter":9729,
			"minFilter":9987
		}
	],
	"buffers":[
		{
			"byteLength":343004,
			"uri":"obj_wall.bin"
		}
	]
}
