{
	"asset":{
		"generator":"Khronos glTF Blender I/O v4.3.47",
		"version":"2.0"
	},
	"extensionsUsed":[
		"KHR_materials_specular",
		"KHR_materials_ior"
	],
	"scene":0,
	"scenes":[
		{
			"name":"Scene",
			"nodes":[
				0,
				1
			]
		}
	],
	"nodes":[
		{
			"mesh":0,
			"name":"obj_terminal"
		},
		{
			"mesh":1,
			"name":"obj_terminal_collider"
		}
	],
	"materials":[
		{
			"doubleSided":true,
			"emissiveFactor":[
				0.10000000149011612,
				0.10000000149011612,
				0.10000000149011612
			],
			"emissiveTexture":{
				"index":0
			},
			"extensions":{
				"KHR_materials_specular":{
					"specularFactor":0
				},
				"KHR_materials_ior":{
					"ior":1.4500000476837158
				}
			},
			"name":"obj_terminal01",
			"pbrMetallicRoughness":{
				"baseColorTexture":{
					"index":1
				},
				"metallicFactor":0
			}
		},
		{
			"doubleSided":true,
			"emissiveFactor":[
				0.10000000149011612,
				0.10000000149011612,
				0.10000000149011612
			],
			"emissiveTexture":{
				"index":2
			},
			"extensions":{
				"KHR_materials_specular":{
					"specularFactor":0
				},
				"KHR_materials_ior":{
					"ior":1.4500000476837158
				}
			},
			"name":"obj_terminal03",
			"pbrMetallicRoughness":{
				"baseColorTexture":{
					"index":3
				},
				"metallicFactor":0
			}
		}
	],
	"meshes":[
		{
			"name":"Mesh.012",
			"primitives":[
				{
					"attributes":{
						"POSITION":0,
						"NORMAL":1,
						"TEXCOORD_0":2
					},
					"indices":3,
					"material":0
				},
				{
					"attributes":{
						"POSITION":4,
						"NORMAL":5,
						"TEXCOORD_0":6
					},
					"indices":7,
					"material":1
				}
			]
		},
		{
			"name":"Mesh.013",
			"primitives":[
				{
					"attributes":{
						"POSITION":8,
						"NORMAL":9,
						"TEXCOORD_0":10
					},
					"indices":11
				}
			]
		}
	],
	"textures":[
		{
			"sampler":0,
			"source":0
		},
		{
			"sampler":0,
			"source":0
		},
		{
			"sampler":0,
			"source":1
		},
		{
			"sampler":0,
			"source":1
		}
	],
	"images":[
		{
			"mimeType":"image/png",
			"name":"obj_terminal01",
			"uri":"textures/obj_terminal01.png"
		},
		{
			"mimeType":"image/png",
			"name":"obj_terminal03",
			"uri":"textures/obj_terminal03.png"
		}
	],
	"accessors":[
		{
			"bufferView":0,
			"componentType":5126,
			"count":519,
			"max":[
				0.7270629405975342,
				1.259837031364441,
				2.5297207832336426
			],
			"min":[
				-0.7270629405975342,
				0.15000011026859283,
				1.5007045269012451
			],
			"type":"VEC3"
		},
		{
			"bufferView":1,
			"componentType":5126,
			"count":519,
			"type":"VEC3"
		},
		{
			"bufferView":2,
			"componentType":5126,
			"count":519,
			"type":"VEC2"
		},
		{
			"bufferView":3,
			"componentType":5123,
			"count":1098,
			"type":"SCALAR"
		},
		{
			"bufferView":4,
			"componentType":5126,
			"count":252,
			"max":[
				0.6402531266212463,
				1.7123335599899292,
				1.7120954990386963
			],
			"min":[
				-0.6402531266212463,
				1.259837031364441,
				1.591589093208313
			],
			"type":"VEC3"
		},
		{
			"bufferView":5,
			"componentType":5126,
			"count":252,
			"type":"VEC3"
		},
		{
			"bufferView":6,
			"componentType":5126,
			"count":252,
			"type":"VEC2"
		},
		{
			"bufferView":7,
			"componentType":5123,
			"count":1200,
			"type":"SCALAR"
		},
		{
			"bufferView":8,
			"componentType":5126,
			"count":132,
			"max":[
				0.7234939336776733,
				1.7020294666290283,
				2.5297207832336426
			],
			"min":[
				-0.7234939336776733,
				0.15000011026859283,
				1.5007045269012451
			],
			"type":"VEC3"
		},
		{
			"bufferView":9,
			"componentType":5126,
			"count":132,
			"type":"VEC3"
		},
		{
			"bufferView":10,
			"componentType":5126,
			"count":132,
			"type":"VEC2"
		},
		{
			"bufferView":11,
			"componentType":5123,
			"count":264,
			"type":"SCALAR"
		}
	],
	"bufferViews":[
		{
			"buffer":0,
			"byteLength":6228,
			"byteOffset":0,
			"target":34962
		},
		{
			"buffer":0,
			"byteLength":6228,
			"byteOffset":6228,
			"target":34962
		},
		{
			"buffer":0,
			"byteLength":4152,
			"byteOffset":12456,
			"target":34962
		},
		{
			"buffer":0,
			"byteLength":2196,
			"byteOffset":16608,
			"target":34963
		},
		{
			"buffer":0,
			"byteLength":3024,
			"byteOffset":18804,
			"target":34962
		},
		{
			"buffer":0,
			"byteLength":3024,
			"byteOffset":21828,
			"target":34962
		},
		{
			"buffer":0,
			"byteLength":2016,
			"byteOffset":24852,
			"target":34962
		},
		{
			"buffer":0,
			"byteLength":2400,
			"byteOffset":26868,
			"target":34963
		},
		{
			"buffer":0,
			"byteLength":1584,
			"byteOffset":29268,
			"target":34962
		},
		{
			"buffer":0,
			"byteLength":1584,
			"byteOffset":30852,
			"target":34962
		},
		{
			"buffer":0,
			"byteLength":1056,
			"byteOffset":32436,
			"target":34962
		},
		{
			"buffer":0,
			"byteLength":528,
			"byteOffset":33492,
			"target":34963
		}
	],
	"samplers":[
		{
			"magFilter":9729,
			"minFilter":9987
		}
	],
	"buffers":[
		{
			"byteLength":34020,
			"uri":"obj_terminal.bin"
		}
	]
}
