{
	"asset":{
		"generator":"Khronos glTF Blender I/O v4.1.63",
		"version":"2.0"
	},
	"scene":0,
	"scenes":[
		{
			"name":"Scene",
			"nodes":[
				0
			]
		}
	],
	"nodes":[
		{
			"mesh":0,
			"name":"target2_14"
		}
	],
	"meshes":[
		{
			"name":"Mesh.059",
			"primitives":[
				{
					"attributes":{
						"POSITION":0,
						"NORMAL":1,
						"TEXCOORD_0":2
					},
					"indices":3
				}
			]
		}
	],
	"accessors":[
		{
			"bufferView":0,
			"componentType":5126,
			"count":9,
			"max":[
				0.1011417955160141,
				0.07438000291585922,
				6.314964107190235e-09
			],
			"min":[
				-0.09601260721683502,
				-0.08364423364400864,
				-5.615534259817423e-09
			],
			"type":"VEC3"
		},
		{
			"bufferView":1,
			"componentType":5126,
			"count":9,
			"type":"VEC3"
		},
		{
			"bufferView":2,
			"componentType":5126,
			"count":9,
			"type":"VEC2"
		},
		{
			"bufferView":3,
			"componentType":5123,
			"count":15,
			"type":"SCALAR"
		}
	],
	"bufferViews":[
		{
			"buffer":0,
			"byteLength":108,
			"byteOffset":0,
			"target":34962
		},
		{
			"buffer":0,
			"byteLength":108,
			"byteOffset":108,
			"target":34962
		},
		{
			"buffer":0,
			"byteLength":72,
			"byteOffset":216,
			"target":34962
		},
		{
			"buffer":0,
			"byteLength":30,
			"byteOffset":288,
			"target":34963
		}
	],
	"buffers":[
		{
			"byteLength":320,
			"uri":"target2_14.bin"
		}
	]
}
