{
	"asset":{
		"generator":"Khronos glTF Blender I/O v4.2.57",
		"version":"2.0"
	},
	"extensionsUsed":[
		"KHR_materials_specular"
	],
	"scene":0,
	"scenes":[
		{
			"name":"obj_gear04_base",
			"nodes":[
				0,
				1
			]
		}
	],
	"nodes":[
		{
			"mesh":0,
			"name":"obj_gear04_base"
		},
		{
			"mesh":1,
			"name":"obj_gear04_base_collider"
		}
	],
	"materials":[
		{
			"doubleSided":true,
			"emissiveFactor":[
				0.05000000074505806,
				0.05000000074505806,
				0.05000000074505806
			],
			"emissiveTexture":{
				"index":0
			},
			"extensions":{
				"KHR_materials_specular":{
					"specularFactor":0
				}
			},
			"name":"obj_global_steampunk01",
			"pbrMetallicRoughness":{
				"baseColorTexture":{
					"index":1
				},
				"metallicFactor":0
			}
		}
	],
	"meshes":[
		{
			"name":"Cylinder.203",
			"primitives":[
				{
					"attributes":{
						"POSITION":0,
						"NORMAL":1,
						"TEXCOORD_0":2
					},
					"indices":3,
					"material":0
				}
			]
		},
		{
			"name":"Cylinder.204",
			"primitives":[
				{
					"attributes":{
						"POSITION":4,
						"NORMAL":5,
						"TEXCOORD_0":6
					},
					"indices":7
				}
			]
		}
	],
	"textures":[
		{
			"sampler":0,
			"source":0
		},
		{
			"sampler":0,
			"source":0
		}
	],
	"images":[
		{
			"mimeType":"image/png",
			"name":"obj_global_steampunk",
			"uri":"textures/obj_global_steampunk.png"
		}
	],
	"accessors":[
		{
			"bufferView":0,
			"componentType":5126,
			"count":1028,
			"max":[
				0.17008920013904572,
				0.06981050223112106,
				0.17242760956287384
			],
			"min":[
				-0.1700892448425293,
				-0.00012494222028180957,
				-0.17242760956287384
			],
			"type":"VEC3"
		},
		{
			"bufferView":1,
			"componentType":5126,
			"count":1028,
			"type":"VEC3"
		},
		{
			"bufferView":2,
			"componentType":5126,
			"count":1028,
			"type":"VEC2"
		},
		{
			"bufferView":3,
			"componentType":5123,
			"count":1548,
			"type":"SCALAR"
		},
		{
			"bufferView":4,
			"componentType":5126,
			"count":36,
			"max":[
				0.17117714881896973,
				0.07644032686948776,
				0.19765834510326385
			],
			"min":[
				-0.17117714881896973,
				0,
				-0.19765834510326385
			],
			"type":"VEC3"
		},
		{
			"bufferView":5,
			"componentType":5126,
			"count":36,
			"type":"VEC3"
		},
		{
			"bufferView":6,
			"componentType":5126,
			"count":36,
			"type":"VEC2"
		},
		{
			"bufferView":7,
			"componentType":5123,
			"count":60,
			"type":"SCALAR"
		}
	],
	"bufferViews":[
		{
			"buffer":0,
			"byteLength":12336,
			"byteOffset":0,
			"target":34962
		},
		{
			"buffer":0,
			"byteLength":12336,
			"byteOffset":12336,
			"target":34962
		},
		{
			"buffer":0,
			"byteLength":8224,
			"byteOffset":24672,
			"target":34962
		},
		{
			"buffer":0,
			"byteLength":3096,
			"byteOffset":32896,
			"target":34963
		},
		{
			"buffer":0,
			"byteLength":432,
			"byteOffset":35992,
			"target":34962
		},
		{
			"buffer":0,
			"byteLength":432,
			"byteOffset":36424,
			"target":34962
		},
		{
			"buffer":0,
			"byteLength":288,
			"byteOffset":36856,
			"target":34962
		},
		{
			"buffer":0,
			"byteLength":120,
			"byteOffset":37144,
			"target":34963
		}
	],
	"samplers":[
		{
			"magFilter":9729,
			"minFilter":9987
		}
	],
	"buffers":[
		{
			"byteLength":37264,
			"uri":"obj_gear04_base.bin"
		}
	]
}
