{
	"asset":{
		"generator":"Khronos glTF Blender I/O v4.2.57",
		"version":"2.0"
	},
	"extensionsUsed":[
		"KHR_materials_specular"
	],
	"scene":0,
	"scenes":[
		{
			"name":"obj_bench01_base",
			"nodes":[
				0,
				1
			]
		}
	],
	"nodes":[
		{
			"mesh":0,
			"name":"obj_bench01_base"
		},
		{
			"mesh":1,
			"name":"obj_bench01_base_collider"
		}
	],
	"materials":[
		{
			"doubleSided":true,
			"emissiveFactor":[
				0.05000000074505806,
				0.05000000074505806,
				0.05000000074505806
			],
			"emissiveTexture":{
				"index":0
			},
			"extensions":{
				"KHR_materials_specular":{
					"specularFactor":0
				}
			},
			"name":"obj_global_steampunk01",
			"pbrMetallicRoughness":{
				"baseColorTexture":{
					"index":1
				},
				"metallicFactor":0
			}
		}
	],
	"meshes":[
		{
			"name":"Cube.082",
			"primitives":[
				{
					"attributes":{
						"POSITION":0,
						"NORMAL":1,
						"TEXCOORD_0":2
					},
					"indices":3,
					"material":0
				}
			]
		},
		{
			"name":"Cube.083",
			"primitives":[
				{
					"attributes":{
						"POSITION":4,
						"NORMAL":5,
						"TEXCOORD_0":6
					},
					"indices":7
				}
			]
		}
	],
	"textures":[
		{
			"sampler":0,
			"source":0
		},
		{
			"sampler":0,
			"source":0
		}
	],
	"images":[
		{
			"mimeType":"image/png",
			"name":"obj_global_steampunk",
			"uri":"textures/obj_global_steampunk.png"
		}
	],
	"accessors":[
		{
			"bufferView":0,
			"componentType":5126,
			"count":1433,
			"max":[
				0.430375337600708,
				1.8534882068634033,
				0.4041648507118225
			],
			"min":[
				-0.3038228750228882,
				-0.002627346431836486,
				-0.4719165861606598
			],
			"type":"VEC3"
		},
		{
			"bufferView":1,
			"componentType":5126,
			"count":1433,
			"type":"VEC3"
		},
		{
			"bufferView":2,
			"componentType":5126,
			"count":1433,
			"type":"VEC2"
		},
		{
			"bufferView":3,
			"componentType":5123,
			"count":2013,
			"type":"SCALAR"
		},
		{
			"bufferView":4,
			"componentType":5126,
			"count":156,
			"max":[
				0.43001654744148254,
				1.8473176956176758,
				0.4040148854255676
			],
			"min":[
				-0.3442041873931885,
				0.007243085652589798,
				-0.5264977216720581
			],
			"type":"VEC3"
		},
		{
			"bufferView":5,
			"componentType":5126,
			"count":156,
			"type":"VEC3"
		},
		{
			"bufferView":6,
			"componentType":5126,
			"count":156,
			"type":"VEC2"
		},
		{
			"bufferView":7,
			"componentType":5123,
			"count":240,
			"type":"SCALAR"
		}
	],
	"bufferViews":[
		{
			"buffer":0,
			"byteLength":17196,
			"byteOffset":0,
			"target":34962
		},
		{
			"buffer":0,
			"byteLength":17196,
			"byteOffset":17196,
			"target":34962
		},
		{
			"buffer":0,
			"byteLength":11464,
			"byteOffset":34392,
			"target":34962
		},
		{
			"buffer":0,
			"byteLength":4026,
			"byteOffset":45856,
			"target":34963
		},
		{
			"buffer":0,
			"byteLength":1872,
			"byteOffset":49884,
			"target":34962
		},
		{
			"buffer":0,
			"byteLength":1872,
			"byteOffset":51756,
			"target":34962
		},
		{
			"buffer":0,
			"byteLength":1248,
			"byteOffset":53628,
			"target":34962
		},
		{
			"buffer":0,
			"byteLength":480,
			"byteOffset":54876,
			"target":34963
		}
	],
	"samplers":[
		{
			"magFilter":9729,
			"minFilter":9987
		}
	],
	"buffers":[
		{
			"byteLength":55356,
			"uri":"obj_bench01_base.bin"
		}
	]
}
