{
	"asset":{
		"generator":"Khronos glTF Blender I/O v4.2.57",
		"version":"2.0"
	},
	"extensionsUsed":[
		"KHR_materials_specular"
	],
	"scene":0,
	"scenes":[
		{
			"name":"Scene",
			"nodes":[
				0,
				1
			]
		}
	],
	"nodes":[
		{
			"mesh":0,
			"name":"obj_pipes"
		},
		{
			"mesh":1,
			"name":"obj_pipes_collider"
		}
	],
	"materials":[
		{
			"doubleSided":true,
			"emissiveFactor":[
				0.05000000074505806,
				0.05000000074505806,
				0.05000000074505806
			],
			"emissiveTexture":{
				"index":0
			},
			"extensions":{
				"KHR_materials_specular":{
					"specularFactor":0
				}
			},
			"name":"PaletteWithToxicColors",
			"pbrMetallicRoughness":{
				"baseColorTexture":{
					"index":1
				},
				"metallicFactor":0
			}
		}
	],
	"meshes":[
		{
			"name":"Cylinder.020",
			"primitives":[
				{
					"attributes":{
						"POSITION":0,
						"NORMAL":1,
						"TEXCOORD_0":2
					},
					"indices":3,
					"material":0
				}
			]
		},
		{
			"name":"Cylinder.040",
			"primitives":[
				{
					"attributes":{
						"POSITION":4,
						"NORMAL":5,
						"TEXCOORD_0":6
					},
					"indices":3
				}
			]
		}
	],
	"textures":[
		{
			"sampler":0,
			"source":0
		},
		{
			"sampler":0,
			"source":0
		}
	],
	"images":[
		{
			"mimeType":"image/jpeg",
			"name":"PaletteWithToxicColors",
			"uri":"textures/PaletteWithToxicColors.jpg"
		}
	],
	"accessors":[
		{
			"bufferView":0,
			"componentType":5126,
			"count":4760,
			"max":[
				7.208601951599121,
				0.21407249569892883,
				1.323776125907898
			],
			"min":[
				-7.208601951599121,
				-0.04576066881418228,
				-6.763897895812988
			],
			"type":"VEC3"
		},
		{
			"bufferView":1,
			"componentType":5126,
			"count":4760,
			"type":"VEC3"
		},
		{
			"bufferView":2,
			"componentType":5126,
			"count":4760,
			"type":"VEC2"
		},
		{
			"bufferView":3,
			"componentType":5123,
			"count":7056,
			"type":"SCALAR"
		},
		{
			"bufferView":4,
			"componentType":5126,
			"count":4760,
			"max":[
				7.208601951599121,
				0.21407249569892883,
				1.323776125907898
			],
			"min":[
				-7.208601951599121,
				-0.04576066881418228,
				-6.763897895812988
			],
			"type":"VEC3"
		},
		{
			"bufferView":5,
			"componentType":5126,
			"count":4760,
			"type":"VEC3"
		},
		{
			"bufferView":6,
			"componentType":5126,
			"count":4760,
			"type":"VEC2"
		}
	],
	"bufferViews":[
		{
			"buffer":0,
			"byteLength":57120,
			"byteOffset":0,
			"target":34962
		},
		{
			"buffer":0,
			"byteLength":57120,
			"byteOffset":57120,
			"target":34962
		},
		{
			"buffer":0,
			"byteLength":38080,
			"byteOffset":114240,
			"target":34962
		},
		{
			"buffer":0,
			"byteLength":14112,
			"byteOffset":152320,
			"target":34963
		},
		{
			"buffer":0,
			"byteLength":57120,
			"byteOffset":166432,
			"target":34962
		},
		{
			"buffer":0,
			"byteLength":57120,
			"byteOffset":223552,
			"target":34962
		},
		{
			"buffer":0,
			"byteLength":38080,
			"byteOffset":280672,
			"target":34962
		}
	],
	"samplers":[
		{
			"magFilter":9729,
			"minFilter":9987
		}
	],
	"buffers":[
		{
			"byteLength":318752,
			"uri":"obj_pipes.bin"
		}
	]
}
