{
	"asset":{
		"generator":"Khronos glTF Blender I/O v4.2.57",
		"version":"2.0"
	},
	"extensionsUsed":[
		"KHR_materials_specular",
		"KHR_materials_ior"
	],
	"scene":0,
	"scenes":[
		{
			"name":"obj_gear01_alt",
			"nodes":[
				0,
				1
			]
		}
	],
	"nodes":[
		{
			"mesh":0,
			"name":"obj_gear01_alt"
		},
		{
			"mesh":1,
			"name":"obj_gear01_alt_collider"
		}
	],
	"materials":[
		{
			"doubleSided":true,
			"emissiveFactor":[
				0.10000000149011612,
				0.10000000149011612,
				0.10000000149011612
			],
			"emissiveTexture":{
				"index":0
			},
			"extensions":{
				"KHR_materials_specular":{
					"specularFactor":0
				},
				"KHR_materials_ior":{
					"ior":1.4500000476837158
				}
			},
			"name":"obj_gear01_alt",
			"pbrMetallicRoughness":{
				"baseColorTexture":{
					"index":1
				},
				"metallicFactor":0
			}
		}
	],
	"meshes":[
		{
			"name":"Mesh.068",
			"primitives":[
				{
					"attributes":{
						"POSITION":0,
						"NORMAL":1,
						"TEXCOORD_0":2
					},
					"indices":3,
					"material":0
				}
			]
		},
		{
			"name":"Mesh.069",
			"primitives":[
				{
					"attributes":{
						"POSITION":4,
						"NORMAL":5,
						"TEXCOORD_0":6
					},
					"indices":7
				}
			]
		}
	],
	"textures":[
		{
			"sampler":0,
			"source":0
		},
		{
			"sampler":0,
			"source":0
		}
	],
	"images":[
		{
			"mimeType":"image/jpeg",
			"name":"obj_gear01_alt",
			"uri":"textures/obj_gear01_alt.jpg"
		}
	],
	"accessors":[
		{
			"bufferView":0,
			"componentType":5126,
			"count":190,
			"max":[
				0.16249267756938934,
				0.10849721729755402,
				0.16454344987869263
			],
			"min":[
				-0.15048782527446747,
				-0.000792596023529768,
				-0.1645437628030777
			],
			"type":"VEC3"
		},
		{
			"bufferView":1,
			"componentType":5126,
			"count":190,
			"type":"VEC3"
		},
		{
			"bufferView":2,
			"componentType":5126,
			"count":190,
			"type":"VEC2"
		},
		{
			"bufferView":3,
			"componentType":5123,
			"count":348,
			"type":"SCALAR"
		},
		{
			"bufferView":4,
			"componentType":5126,
			"count":36,
			"max":[
				0.16341859102249146,
				0.10466737300157547,
				0.1865958422422409
			],
			"min":[
				-0.16341859102249146,
				-4.448596158113105e-08,
				-0.18659581243991852
			],
			"type":"VEC3"
		},
		{
			"bufferView":5,
			"componentType":5126,
			"count":36,
			"type":"VEC3"
		},
		{
			"bufferView":6,
			"componentType":5126,
			"count":36,
			"type":"VEC2"
		},
		{
			"bufferView":7,
			"componentType":5123,
			"count":60,
			"type":"SCALAR"
		}
	],
	"bufferViews":[
		{
			"buffer":0,
			"byteLength":2280,
			"byteOffset":0,
			"target":34962
		},
		{
			"buffer":0,
			"byteLength":2280,
			"byteOffset":2280,
			"target":34962
		},
		{
			"buffer":0,
			"byteLength":1520,
			"byteOffset":4560,
			"target":34962
		},
		{
			"buffer":0,
			"byteLength":696,
			"byteOffset":6080,
			"target":34963
		},
		{
			"buffer":0,
			"byteLength":432,
			"byteOffset":6776,
			"target":34962
		},
		{
			"buffer":0,
			"byteLength":432,
			"byteOffset":7208,
			"target":34962
		},
		{
			"buffer":0,
			"byteLength":288,
			"byteOffset":7640,
			"target":34962
		},
		{
			"buffer":0,
			"byteLength":120,
			"byteOffset":7928,
			"target":34963
		}
	],
	"samplers":[
		{
			"magFilter":9729,
			"minFilter":9987
		}
	],
	"buffers":[
		{
			"byteLength":8048,
			"uri":"obj_gear01_alt.bin"
		}
	]
}
