{
	"asset":{
		"generator":"Khronos glTF Blender I/O v4.2.57",
		"version":"2.0"
	},
	"extensionsUsed":[
		"KHR_materials_specular",
		"KHR_materials_ior"
	],
	"scene":0,
	"scenes":[
		{
			"name":"obj_num06_base",
			"nodes":[
				0,
				1,
				2
			]
		}
	],
	"nodes":[
		{
			"mesh":0,
			"name":"obj_num06_glass"
		},
		{
			"mesh":1,
			"name":"obj_num06_base"
		},
		{
			"mesh":2,
			"name":"obj_num06_base_collider"
		}
	],
	"materials":[
		{
			"alphaMode":"BLEND",
			"doubleSided":true,
			"extensions":{
				"KHR_materials_specular":{
					"specularFactor":0
				},
				"KHR_materials_ior":{
					"ior":1.4500000476837158
				}
			},
			"name":"obj_num00_glass",
			"pbrMetallicRoughness":{
				"baseColorFactor":[
					1,
					1,
					1,
					0.10000000149011612
				],
				"metallicFactor":0
			}
		},
		{
			"doubleSided":true,
			"emissiveFactor":[
				0.10000000149011612,
				0.10000000149011612,
				0.10000000149011612
			],
			"emissiveTexture":{
				"index":0
			},
			"extensions":{
				"KHR_materials_specular":{
					"specularFactor":0
				},
				"KHR_materials_ior":{
					"ior":1.4500000476837158
				}
			},
			"name":"obj_num06_base",
			"pbrMetallicRoughness":{
				"baseColorTexture":{
					"index":1
				},
				"metallicFactor":0
			}
		}
	],
	"meshes":[
		{
			"name":"Mesh.051",
			"primitives":[
				{
					"attributes":{
						"POSITION":0,
						"NORMAL":1,
						"TEXCOORD_0":2
					},
					"indices":3,
					"material":0
				}
			]
		},
		{
			"name":"Mesh.050",
			"primitives":[
				{
					"attributes":{
						"POSITION":4,
						"NORMAL":5,
						"TEXCOORD_0":6
					},
					"indices":7,
					"material":1
				}
			]
		},
		{
			"name":"Mesh.052",
			"primitives":[
				{
					"attributes":{
						"POSITION":8,
						"NORMAL":9,
						"TEXCOORD_0":10
					},
					"indices":11
				}
			]
		}
	],
	"textures":[
		{
			"sampler":0,
			"source":0
		},
		{
			"sampler":0,
			"source":0
		}
	],
	"images":[
		{
			"mimeType":"image/jpeg",
			"name":"obj_num06_base",
			"uri":"textures/obj_num06_base.jpg"
		}
	],
	"accessors":[
		{
			"bufferView":0,
			"componentType":5126,
			"count":161,
			"max":[
				0.1568799614906311,
				0.7134968638420105,
				0.1557946652173996
			],
			"min":[
				-0.15611518919467926,
				0.07353425025939941,
				-0.15445329248905182
			],
			"type":"VEC3"
		},
		{
			"bufferView":1,
			"componentType":5126,
			"count":161,
			"type":"VEC3"
		},
		{
			"bufferView":2,
			"componentType":5126,
			"count":161,
			"type":"VEC2"
		},
		{
			"bufferView":3,
			"componentType":5123,
			"count":636,
			"type":"SCALAR"
		},
		{
			"bufferView":4,
			"componentType":5126,
			"count":406,
			"max":[
				0.14944897592067719,
				0.6547473669052124,
				0.16111867129802704
			],
			"min":[
				-0.16353276371955872,
				-0.0028156121261417866,
				-0.16394148766994476
			],
			"type":"VEC3"
		},
		{
			"bufferView":5,
			"componentType":5126,
			"count":406,
			"type":"VEC3"
		},
		{
			"bufferView":6,
			"componentType":5126,
			"count":406,
			"type":"VEC2"
		},
		{
			"bufferView":7,
			"componentType":5123,
			"count":1098,
			"type":"SCALAR"
		},
		{
			"bufferView":8,
			"componentType":5126,
			"count":30,
			"max":[
				0.18022005259990692,
				0.6958586573600769,
				0.1533043384552002
			],
			"min":[
				-0.18022002279758453,
				-4.515184315323495e-08,
				-0.18949474394321442
			],
			"type":"VEC3"
		},
		{
			"bufferView":9,
			"componentType":5126,
			"count":30,
			"type":"VEC3"
		},
		{
			"bufferView":10,
			"componentType":5126,
			"count":30,
			"type":"VEC2"
		},
		{
			"bufferView":11,
			"componentType":5123,
			"count":48,
			"type":"SCALAR"
		}
	],
	"bufferViews":[
		{
			"buffer":0,
			"byteLength":1932,
			"byteOffset":0,
			"target":34962
		},
		{
			"buffer":0,
			"byteLength":1932,
			"byteOffset":1932,
			"target":34962
		},
		{
			"buffer":0,
			"byteLength":1288,
			"byteOffset":3864,
			"target":34962
		},
		{
			"buffer":0,
			"byteLength":1272,
			"byteOffset":5152,
			"target":34963
		},
		{
			"buffer":0,
			"byteLength":4872,
			"byteOffset":6424,
			"target":34962
		},
		{
			"buffer":0,
			"byteLength":4872,
			"byteOffset":11296,
			"target":34962
		},
		{
			"buffer":0,
			"byteLength":3248,
			"byteOffset":16168,
			"target":34962
		},
		{
			"buffer":0,
			"byteLength":2196,
			"byteOffset":19416,
			"target":34963
		},
		{
			"buffer":0,
			"byteLength":360,
			"byteOffset":21612,
			"target":34962
		},
		{
			"buffer":0,
			"byteLength":360,
			"byteOffset":21972,
			"target":34962
		},
		{
			"buffer":0,
			"byteLength":240,
			"byteOffset":22332,
			"target":34962
		},
		{
			"buffer":0,
			"byteLength":96,
			"byteOffset":22572,
			"target":34963
		}
	],
	"samplers":[
		{
			"magFilter":9729,
			"minFilter":9987
		}
	],
	"buffers":[
		{
			"byteLength":22668,
			"uri":"obj_num06_base.bin"
		}
	]
}
