{
	"asset":{
		"generator":"Khronos glTF Blender I/O v4.2.57",
		"version":"2.0"
	},
	"extensionsUsed":[
		"KHR_materials_specular",
		"KHR_materials_ior"
	],
	"scene":0,
	"scenes":[
		{
			"name":"obj_key02_easy",
			"nodes":[
				0,
				1
			]
		}
	],
	"nodes":[
		{
			"mesh":0,
			"name":"obj_key02_easy_collider"
		},
		{
			"mesh":1,
			"name":"obj_key02_easy"
		}
	],
	"materials":[
		{
			"doubleSided":true,
			"emissiveFactor":[
				0.10000000149011612,
				0.10000000149011612,
				0.10000000149011612
			],
			"emissiveTexture":{
				"index":0
			},
			"extensions":{
				"KHR_materials_specular":{
					"specularFactor":0
				},
				"KHR_materials_ior":{
					"ior":1.4500000476837158
				}
			},
			"name":"obj_key02_alt",
			"pbrMetallicRoughness":{
				"baseColorTexture":{
					"index":1
				},
				"metallicFactor":0
			}
		}
	],
	"meshes":[
		{
			"name":"Cube.110",
			"primitives":[
				{
					"attributes":{
						"POSITION":0,
						"NORMAL":1,
						"TEXCOORD_0":2
					},
					"indices":3
				}
			]
		},
		{
			"name":"Mesh.064",
			"primitives":[
				{
					"attributes":{
						"POSITION":4,
						"NORMAL":5,
						"TEXCOORD_0":6
					},
					"indices":7,
					"material":0
				}
			]
		}
	],
	"textures":[
		{
			"sampler":0,
			"source":0
		},
		{
			"sampler":0,
			"source":0
		}
	],
	"images":[
		{
			"mimeType":"image/jpeg",
			"name":"obj_key02_alt",
			"uri":"textures/obj_key02_alt.jpg"
		}
	],
	"accessors":[
		{
			"bufferView":0,
			"componentType":5126,
			"count":24,
			"max":[
				0.16764713823795319,
				0.04510003700852394,
				0.06307665258646011
			],
			"min":[
				-0.29286330938339233,
				0.0012527676299214363,
				-0.05526672676205635
			],
			"type":"VEC3"
		},
		{
			"bufferView":1,
			"componentType":5126,
			"count":24,
			"type":"VEC3"
		},
		{
			"bufferView":2,
			"componentType":5126,
			"count":24,
			"type":"VEC2"
		},
		{
			"bufferView":3,
			"componentType":5123,
			"count":36,
			"type":"SCALAR"
		},
		{
			"bufferView":4,
			"componentType":5126,
			"count":218,
			"max":[
				0.16421735286712646,
				0.04455440491437912,
				0.0652097761631012
			],
			"min":[
				-0.2921872138977051,
				0.001832114183343947,
				-0.0701754093170166
			],
			"type":"VEC3"
		},
		{
			"bufferView":5,
			"componentType":5126,
			"count":218,
			"type":"VEC3"
		},
		{
			"bufferView":6,
			"componentType":5126,
			"count":218,
			"type":"VEC2"
		},
		{
			"bufferView":7,
			"componentType":5123,
			"count":408,
			"type":"SCALAR"
		}
	],
	"bufferViews":[
		{
			"buffer":0,
			"byteLength":288,
			"byteOffset":0,
			"target":34962
		},
		{
			"buffer":0,
			"byteLength":288,
			"byteOffset":288,
			"target":34962
		},
		{
			"buffer":0,
			"byteLength":192,
			"byteOffset":576,
			"target":34962
		},
		{
			"buffer":0,
			"byteLength":72,
			"byteOffset":768,
			"target":34963
		},
		{
			"buffer":0,
			"byteLength":2616,
			"byteOffset":840,
			"target":34962
		},
		{
			"buffer":0,
			"byteLength":2616,
			"byteOffset":3456,
			"target":34962
		},
		{
			"buffer":0,
			"byteLength":1744,
			"byteOffset":6072,
			"target":34962
		},
		{
			"buffer":0,
			"byteLength":816,
			"byteOffset":7816,
			"target":34963
		}
	],
	"samplers":[
		{
			"magFilter":9729,
			"minFilter":9987
		}
	],
	"buffers":[
		{
			"byteLength":8632,
			"uri":"obj_key02_easy.bin"
		}
	]
}
