{
	"asset":{
		"generator":"Khronos glTF Blender I/O v4.2.57",
		"version":"2.0"
	},
	"extensionsUsed":[
		"KHR_materials_specular"
	],
	"scene":0,
	"scenes":[
		{
			"name":"obj_bench02_alt",
			"nodes":[
				0,
				1
			]
		}
	],
	"nodes":[
		{
			"mesh":0,
			"name":"obj_bench02_alt"
		},
		{
			"mesh":1,
			"name":"obj_bench02_alt_collider"
		}
	],
	"materials":[
		{
			"doubleSided":true,
			"emissiveFactor":[
				0.05000000074505806,
				0.05000000074505806,
				0.05000000074505806
			],
			"emissiveTexture":{
				"index":0
			},
			"extensions":{
				"KHR_materials_specular":{
					"specularFactor":0
				}
			},
			"name":"obj_global_steampunk02",
			"pbrMetallicRoughness":{
				"baseColorTexture":{
					"index":1
				},
				"metallicFactor":0
			}
		}
	],
	"meshes":[
		{
			"name":"Cylinder.224",
			"primitives":[
				{
					"attributes":{
						"POSITION":0,
						"NORMAL":1,
						"TEXCOORD_0":2
					},
					"indices":3,
					"material":0
				}
			]
		},
		{
			"name":"Cylinder.225",
			"primitives":[
				{
					"attributes":{
						"POSITION":4,
						"NORMAL":5,
						"TEXCOORD_0":6
					},
					"indices":7
				}
			]
		}
	],
	"textures":[
		{
			"sampler":0,
			"source":0
		},
		{
			"sampler":0,
			"source":0
		}
	],
	"images":[
		{
			"mimeType":"image/png",
			"name":"obj_global_steampunk02",
			"uri":"textures/obj_global_steampunk02.png"
		}
	],
	"accessors":[
		{
			"bufferView":0,
			"componentType":5126,
			"count":1001,
			"max":[
				0.3063969910144806,
				0.8400527238845825,
				0.2721341848373413
			],
			"min":[
				-0.24439826607704163,
				-0.007631910964846611,
				-0.27123579382896423
			],
			"type":"VEC3"
		},
		{
			"bufferView":1,
			"componentType":5126,
			"count":1001,
			"type":"VEC3"
		},
		{
			"bufferView":2,
			"componentType":5126,
			"count":1001,
			"type":"VEC2"
		},
		{
			"bufferView":3,
			"componentType":5123,
			"count":1296,
			"type":"SCALAR"
		},
		{
			"bufferView":4,
			"componentType":5126,
			"count":30,
			"max":[
				0.318424791097641,
				0.8429978489875793,
				0.27086833119392395
			],
			"min":[
				-0.3184247612953186,
				0,
				-0.33481165766716003
			],
			"type":"VEC3"
		},
		{
			"bufferView":5,
			"componentType":5126,
			"count":30,
			"type":"VEC3"
		},
		{
			"bufferView":6,
			"componentType":5126,
			"count":30,
			"type":"VEC2"
		},
		{
			"bufferView":7,
			"componentType":5123,
			"count":48,
			"type":"SCALAR"
		}
	],
	"bufferViews":[
		{
			"buffer":0,
			"byteLength":12012,
			"byteOffset":0,
			"target":34962
		},
		{
			"buffer":0,
			"byteLength":12012,
			"byteOffset":12012,
			"target":34962
		},
		{
			"buffer":0,
			"byteLength":8008,
			"byteOffset":24024,
			"target":34962
		},
		{
			"buffer":0,
			"byteLength":2592,
			"byteOffset":32032,
			"target":34963
		},
		{
			"buffer":0,
			"byteLength":360,
			"byteOffset":34624,
			"target":34962
		},
		{
			"buffer":0,
			"byteLength":360,
			"byteOffset":34984,
			"target":34962
		},
		{
			"buffer":0,
			"byteLength":240,
			"byteOffset":35344,
			"target":34962
		},
		{
			"buffer":0,
			"byteLength":96,
			"byteOffset":35584,
			"target":34963
		}
	],
	"samplers":[
		{
			"magFilter":9729,
			"minFilter":9987
		}
	],
	"buffers":[
		{
			"byteLength":35680,
			"uri":"obj_bench02_alt.bin"
		}
	]
}
