{
	"asset":{
		"generator":"Khronos glTF Blender I/O v4.2.57",
		"version":"2.0"
	},
	"extensionsUsed":[
		"KHR_materials_transmission",
		"KHR_materials_specular"
	],
	"scene":0,
	"scenes":[
		{
			"name":"obj_num00_base",
			"nodes":[
				0,
				1
			]
		}
	],
	"nodes":[
		{
			"mesh":0,
			"name":"obj_num00_base"
		},
		{
			"mesh":1,
			"name":"obj_num00_base_collider"
		}
	],
	"materials":[
		{
			"doubleSided":true,
			"emissiveFactor":[
				0.05000000074505806,
				0.05000000074505806,
				0.05000000074505806
			],
			"emissiveTexture":{
				"index":0
			},
			"extensions":{
				"KHR_materials_specular":{
					"specularFactor":0
				}
			},
			"name":"obj_global_steampunk01",
			"pbrMetallicRoughness":{
				"baseColorTexture":{
					"index":1
				},
				"metallicFactor":0
			}
		},
		{
			"alphaMode":"BLEND",
			"doubleSided":true,
			"extensions":{
				"KHR_materials_transmission":{
					"transmissionFactor":0.7573529481887817
				}
			},
			"name":"obj_global_glass",
			"pbrMetallicRoughness":{
				"baseColorFactor":[
					1,
					1,
					1,
					0.12259356677532196
				],
				"baseColorTexture":{
					"index":2
				},
				"metallicFactor":0
			}
		}
	],
	"meshes":[
		{
			"name":"0123456789.004",
			"primitives":[
				{
					"attributes":{
						"POSITION":0,
						"NORMAL":1,
						"TEXCOORD_0":2
					},
					"indices":3,
					"material":0
				},
				{
					"attributes":{
						"POSITION":4,
						"NORMAL":5,
						"TEXCOORD_0":6
					},
					"indices":7,
					"material":1
				}
			]
		},
		{
			"name":"Cylinder.177",
			"primitives":[
				{
					"attributes":{
						"POSITION":8,
						"NORMAL":9,
						"TEXCOORD_0":10
					},
					"indices":11
				}
			]
		}
	],
	"textures":[
		{
			"sampler":0,
			"source":0
		},
		{
			"sampler":0,
			"source":0
		},
		{
			"sampler":0,
			"source":0
		}
	],
	"images":[
		{
			"mimeType":"image/png",
			"name":"obj_global_steampunk",
			"uri":"textures/obj_global_steampunk.png"
		}
	],
	"accessors":[
		{
			"bufferView":0,
			"componentType":5126,
			"count":799,
			"max":[
				0.20876942574977875,
				0.8055232167243958,
				0.205642968416214
			],
			"min":[
				-0.2077871710062027,
				-0.0021256955806165934,
				-0.20438003540039062
			],
			"type":"VEC3"
		},
		{
			"bufferView":1,
			"componentType":5126,
			"count":799,
			"type":"VEC3"
		},
		{
			"bufferView":2,
			"componentType":5126,
			"count":799,
			"type":"VEC2"
		},
		{
			"bufferView":3,
			"componentType":5123,
			"count":1107,
			"type":"SCALAR"
		},
		{
			"bufferView":4,
			"componentType":5126,
			"count":448,
			"max":[
				0.20222117006778717,
				0.9164360761642456,
				0.20010727643966675
			],
			"min":[
				-0.19979894161224365,
				0.09444953501224518,
				-0.19838421046733856
			],
			"type":"VEC3"
		},
		{
			"bufferView":5,
			"componentType":5126,
			"count":448,
			"type":"VEC3"
		},
		{
			"bufferView":6,
			"componentType":5126,
			"count":448,
			"type":"VEC2"
		},
		{
			"bufferView":7,
			"componentType":5123,
			"count":636,
			"type":"SCALAR"
		},
		{
			"bufferView":8,
			"componentType":5126,
			"count":30,
			"max":[
				0.23147988319396973,
				0.8937811255455017,
				0.19690856337547302
			],
			"min":[
				-0.23147986829280853,
				0,
				-0.24339234828948975
			],
			"type":"VEC3"
		},
		{
			"bufferView":9,
			"componentType":5126,
			"count":30,
			"type":"VEC3"
		},
		{
			"bufferView":10,
			"componentType":5126,
			"count":30,
			"type":"VEC2"
		},
		{
			"bufferView":11,
			"componentType":5123,
			"count":48,
			"type":"SCALAR"
		}
	],
	"bufferViews":[
		{
			"buffer":0,
			"byteLength":9588,
			"byteOffset":0,
			"target":34962
		},
		{
			"buffer":0,
			"byteLength":9588,
			"byteOffset":9588,
			"target":34962
		},
		{
			"buffer":0,
			"byteLength":6392,
			"byteOffset":19176,
			"target":34962
		},
		{
			"buffer":0,
			"byteLength":2214,
			"byteOffset":25568,
			"target":34963
		},
		{
			"buffer":0,
			"byteLength":5376,
			"byteOffset":27784,
			"target":34962
		},
		{
			"buffer":0,
			"byteLength":5376,
			"byteOffset":33160,
			"target":34962
		},
		{
			"buffer":0,
			"byteLength":3584,
			"byteOffset":38536,
			"target":34962
		},
		{
			"buffer":0,
			"byteLength":1272,
			"byteOffset":42120,
			"target":34963
		},
		{
			"buffer":0,
			"byteLength":360,
			"byteOffset":43392,
			"target":34962
		},
		{
			"buffer":0,
			"byteLength":360,
			"byteOffset":43752,
			"target":34962
		},
		{
			"buffer":0,
			"byteLength":240,
			"byteOffset":44112,
			"target":34962
		},
		{
			"buffer":0,
			"byteLength":96,
			"byteOffset":44352,
			"target":34963
		}
	],
	"samplers":[
		{
			"magFilter":9729,
			"minFilter":9987
		}
	],
	"buffers":[
		{
			"byteLength":44448,
			"uri":"obj_num00_base.bin"
		}
	]
}
