{
	"asset":{
		"generator":"Khronos glTF Blender I/O v4.2.57",
		"version":"2.0"
	},
	"extensionsUsed":[
		"KHR_materials_specular"
	],
	"scene":0,
	"scenes":[
		{
			"name":"obj_lamp02_base",
			"nodes":[
				0,
				1
			]
		}
	],
	"nodes":[
		{
			"mesh":0,
			"name":"obj_lamp02_base"
		},
		{
			"mesh":1,
			"name":"obj_lamp02_base_collider"
		}
	],
	"materials":[
		{
			"doubleSided":true,
			"emissiveFactor":[
				0.05000000074505806,
				0.05000000074505806,
				0.05000000074505806
			],
			"emissiveTexture":{
				"index":0
			},
			"extensions":{
				"KHR_materials_specular":{
					"specularFactor":0
				}
			},
			"name":"obj_global_steampunk01",
			"pbrMetallicRoughness":{
				"baseColorTexture":{
					"index":1
				},
				"metallicFactor":0
			}
		}
	],
	"meshes":[
		{
			"name":"Cylinder.217",
			"primitives":[
				{
					"attributes":{
						"POSITION":0,
						"NORMAL":1,
						"TEXCOORD_0":2
					},
					"indices":3,
					"material":0
				}
			]
		},
		{
			"name":"Cube.073",
			"primitives":[
				{
					"attributes":{
						"POSITION":4,
						"NORMAL":5,
						"TEXCOORD_0":6
					},
					"indices":7
				}
			]
		}
	],
	"textures":[
		{
			"sampler":0,
			"source":0
		},
		{
			"sampler":0,
			"source":0
		}
	],
	"images":[
		{
			"mimeType":"image/png",
			"name":"obj_global_steampunk",
			"uri":"textures/obj_global_steampunk.png"
		}
	],
	"accessors":[
		{
			"bufferView":0,
			"componentType":5126,
			"count":1499,
			"max":[
				0.2019052803516388,
				1.1197998523712158,
				0.3879585266113281
			],
			"min":[
				-0.20134024322032928,
				-0.0006866439362056553,
				-0.20169509947299957
			],
			"type":"VEC3"
		},
		{
			"bufferView":1,
			"componentType":5126,
			"count":1499,
			"type":"VEC3"
		},
		{
			"bufferView":2,
			"componentType":5126,
			"count":1499,
			"type":"VEC2"
		},
		{
			"bufferView":3,
			"componentType":5123,
			"count":2115,
			"type":"SCALAR"
		},
		{
			"bufferView":4,
			"componentType":5126,
			"count":48,
			"max":[
				0.20534023642539978,
				1.116143822669983,
				0.3962741792201996
			],
			"min":[
				-0.20534023642539978,
				-0.0015894330572336912,
				-0.20534023642539978
			],
			"type":"VEC3"
		},
		{
			"bufferView":5,
			"componentType":5126,
			"count":48,
			"type":"VEC3"
		},
		{
			"bufferView":6,
			"componentType":5126,
			"count":48,
			"type":"VEC2"
		},
		{
			"bufferView":7,
			"componentType":5123,
			"count":72,
			"type":"SCALAR"
		}
	],
	"bufferViews":[
		{
			"buffer":0,
			"byteLength":17988,
			"byteOffset":0,
			"target":34962
		},
		{
			"buffer":0,
			"byteLength":17988,
			"byteOffset":17988,
			"target":34962
		},
		{
			"buffer":0,
			"byteLength":11992,
			"byteOffset":35976,
			"target":34962
		},
		{
			"buffer":0,
			"byteLength":4230,
			"byteOffset":47968,
			"target":34963
		},
		{
			"buffer":0,
			"byteLength":576,
			"byteOffset":52200,
			"target":34962
		},
		{
			"buffer":0,
			"byteLength":576,
			"byteOffset":52776,
			"target":34962
		},
		{
			"buffer":0,
			"byteLength":384,
			"byteOffset":53352,
			"target":34962
		},
		{
			"buffer":0,
			"byteLength":144,
			"byteOffset":53736,
			"target":34963
		}
	],
	"samplers":[
		{
			"magFilter":9729,
			"minFilter":9987
		}
	],
	"buffers":[
		{
			"byteLength":53880,
			"uri":"obj_lamp02_base.bin"
		}
	]
}
