{
	"asset":{
		"generator":"Khronos glTF Blender I/O v4.2.57",
		"version":"2.0"
	},
	"extensionsUsed":[
		"KHR_materials_specular"
	],
	"scene":0,
	"scenes":[
		{
			"name":"obj_gear09_medium",
			"nodes":[
				0,
				1
			]
		}
	],
	"nodes":[
		{
			"mesh":0,
			"name":"obj_gear09_medium"
		},
		{
			"mesh":1,
			"name":"obj_gear09_medium_collider"
		}
	],
	"materials":[
		{
			"doubleSided":true,
			"emissiveFactor":[
				0.05000000074505806,
				0.05000000074505806,
				0.05000000074505806
			],
			"emissiveTexture":{
				"index":0
			},
			"extensions":{
				"KHR_materials_specular":{
					"specularFactor":0
				}
			},
			"name":"obj_global_steampunk02",
			"pbrMetallicRoughness":{
				"baseColorTexture":{
					"index":1
				},
				"metallicFactor":0
			}
		}
	],
	"meshes":[
		{
			"name":"Gear.028",
			"primitives":[
				{
					"attributes":{
						"POSITION":0,
						"NORMAL":1,
						"TEXCOORD_0":2
					},
					"indices":3,
					"material":0
				}
			]
		},
		{
			"name":"Cylinder.269",
			"primitives":[
				{
					"attributes":{
						"POSITION":4,
						"NORMAL":5,
						"TEXCOORD_0":6
					},
					"indices":7
				}
			]
		}
	],
	"textures":[
		{
			"sampler":0,
			"source":0
		},
		{
			"sampler":0,
			"source":0
		}
	],
	"images":[
		{
			"mimeType":"image/png",
			"name":"obj_global_steampunk02",
			"uri":"textures/obj_global_steampunk02.png"
		}
	],
	"accessors":[
		{
			"bufferView":0,
			"componentType":5126,
			"count":985,
			"max":[
				0.18339745700359344,
				0.16296760737895966,
				0.19777575135231018
			],
			"min":[
				-0.18339745700359344,
				-0.00019579003856051713,
				-0.1972942352294922
			],
			"type":"VEC3"
		},
		{
			"bufferView":1,
			"componentType":5126,
			"count":985,
			"type":"VEC3"
		},
		{
			"bufferView":2,
			"componentType":5126,
			"count":985,
			"type":"VEC2"
		},
		{
			"bufferView":3,
			"componentType":5123,
			"count":1752,
			"type":"SCALAR"
		},
		{
			"bufferView":4,
			"componentType":5126,
			"count":60,
			"max":[
				0.22832439839839935,
				0.16198678314685822,
				0.1977347582578659
			],
			"min":[
				-0.22832436859607697,
				-0.00021190270490478724,
				-0.19773471355438232
			],
			"type":"VEC3"
		},
		{
			"bufferView":5,
			"componentType":5126,
			"count":60,
			"type":"VEC3"
		},
		{
			"bufferView":6,
			"componentType":5126,
			"count":60,
			"type":"VEC2"
		},
		{
			"bufferView":7,
			"componentType":5123,
			"count":96,
			"type":"SCALAR"
		}
	],
	"bufferViews":[
		{
			"buffer":0,
			"byteLength":11820,
			"byteOffset":0,
			"target":34962
		},
		{
			"buffer":0,
			"byteLength":11820,
			"byteOffset":11820,
			"target":34962
		},
		{
			"buffer":0,
			"byteLength":7880,
			"byteOffset":23640,
			"target":34962
		},
		{
			"buffer":0,
			"byteLength":3504,
			"byteOffset":31520,
			"target":34963
		},
		{
			"buffer":0,
			"byteLength":720,
			"byteOffset":35024,
			"target":34962
		},
		{
			"buffer":0,
			"byteLength":720,
			"byteOffset":35744,
			"target":34962
		},
		{
			"buffer":0,
			"byteLength":480,
			"byteOffset":36464,
			"target":34962
		},
		{
			"buffer":0,
			"byteLength":192,
			"byteOffset":36944,
			"target":34963
		}
	],
	"samplers":[
		{
			"magFilter":9729,
			"minFilter":9987
		}
	],
	"buffers":[
		{
			"byteLength":37136,
			"uri":"obj_gear09_medium.bin"
		}
	]
}
