{
	"asset":{
		"generator":"Khronos glTF Blender I/O v4.2.57",
		"version":"2.0"
	},
	"extensionsUsed":[
		"KHR_materials_specular"
	],
	"scene":0,
	"scenes":[
		{
			"name":"Scene",
			"nodes":[
				0,
				1
			]
		}
	],
	"nodes":[
		{
			"mesh":0,
			"name":"obj_hydrant"
		},
		{
			"mesh":1,
			"name":"obj_hydrant_collider"
		}
	],
	"materials":[
		{
			"doubleSided":true,
			"emissiveFactor":[
				0.05000000074505806,
				0.05000000074505806,
				0.05000000074505806
			],
			"emissiveTexture":{
				"index":0
			},
			"extensions":{
				"KHR_materials_specular":{
					"specularFactor":0
				}
			},
			"name":"PaletteWithToxicColors",
			"pbrMetallicRoughness":{
				"baseColorTexture":{
					"index":1
				},
				"metallicFactor":0
			}
		}
	],
	"meshes":[
		{
			"name":"Cylinder.005",
			"primitives":[
				{
					"attributes":{
						"POSITION":0,
						"NORMAL":1,
						"TEXCOORD_0":2
					},
					"indices":3,
					"material":0
				}
			]
		},
		{
			"name":"Cylinder.006",
			"primitives":[
				{
					"attributes":{
						"POSITION":4,
						"NORMAL":5,
						"TEXCOORD_0":6
					},
					"indices":3
				}
			]
		}
	],
	"textures":[
		{
			"sampler":0,
			"source":0
		},
		{
			"sampler":0,
			"source":0
		}
	],
	"images":[
		{
			"mimeType":"image/jpeg",
			"name":"PaletteWithToxicColors",
			"uri":"textures/PaletteWithToxicColors.jpg"
		}
	],
	"accessors":[
		{
			"bufferView":0,
			"componentType":5126,
			"count":1616,
			"max":[
				3.0273375511169434,
				1.0919466018676758,
				7.911832332611084
			],
			"min":[
				-3.0273375511169434,
				-0.0012423379812389612,
				7.226283073425293
			],
			"type":"VEC3"
		},
		{
			"bufferView":1,
			"componentType":5126,
			"count":1616,
			"type":"VEC3"
		},
		{
			"bufferView":2,
			"componentType":5126,
			"count":1616,
			"type":"VEC2"
		},
		{
			"bufferView":3,
			"componentType":5123,
			"count":2220,
			"type":"SCALAR"
		},
		{
			"bufferView":4,
			"componentType":5126,
			"count":1616,
			"max":[
				3.0273375511169434,
				1.0919466018676758,
				7.911832332611084
			],
			"min":[
				-3.0273375511169434,
				-0.0012423379812389612,
				7.226283073425293
			],
			"type":"VEC3"
		},
		{
			"bufferView":5,
			"componentType":5126,
			"count":1616,
			"type":"VEC3"
		},
		{
			"bufferView":6,
			"componentType":5126,
			"count":1616,
			"type":"VEC2"
		}
	],
	"bufferViews":[
		{
			"buffer":0,
			"byteLength":19392,
			"byteOffset":0,
			"target":34962
		},
		{
			"buffer":0,
			"byteLength":19392,
			"byteOffset":19392,
			"target":34962
		},
		{
			"buffer":0,
			"byteLength":12928,
			"byteOffset":38784,
			"target":34962
		},
		{
			"buffer":0,
			"byteLength":4440,
			"byteOffset":51712,
			"target":34963
		},
		{
			"buffer":0,
			"byteLength":19392,
			"byteOffset":56152,
			"target":34962
		},
		{
			"buffer":0,
			"byteLength":19392,
			"byteOffset":75544,
			"target":34962
		},
		{
			"buffer":0,
			"byteLength":12928,
			"byteOffset":94936,
			"target":34962
		}
	],
	"samplers":[
		{
			"magFilter":9729,
			"minFilter":9987
		}
	],
	"buffers":[
		{
			"byteLength":107864,
			"uri":"obj_hydrant.bin"
		}
	]
}
