{
	"asset":{
		"generator":"Khronos glTF Blender I/O v4.2.57",
		"version":"2.0"
	},
	"extensionsUsed":[
		"KHR_materials_specular"
	],
	"scene":0,
	"scenes":[
		{
			"name":"obj_key01_alt",
			"nodes":[
				0,
				1
			]
		}
	],
	"nodes":[
		{
			"mesh":0,
			"name":"obj_key01_alt"
		},
		{
			"mesh":1,
			"name":"obj_key01_alt_collider"
		}
	],
	"materials":[
		{
			"doubleSided":true,
			"emissiveFactor":[
				0.05000000074505806,
				0.05000000074505806,
				0.05000000074505806
			],
			"emissiveTexture":{
				"index":0
			},
			"extensions":{
				"KHR_materials_specular":{
					"specularFactor":0
				}
			},
			"name":"obj_global_steampunk02",
			"pbrMetallicRoughness":{
				"baseColorTexture":{
					"index":1
				},
				"metallicFactor":0
			}
		}
	],
	"meshes":[
		{
			"name":"Gear.001",
			"primitives":[
				{
					"attributes":{
						"POSITION":0,
						"NORMAL":1,
						"TEXCOORD_0":2
					},
					"indices":3,
					"material":0
				}
			]
		},
		{
			"name":"Cube.002",
			"primitives":[
				{
					"attributes":{
						"POSITION":4,
						"NORMAL":5,
						"TEXCOORD_0":6
					},
					"indices":7
				}
			]
		}
	],
	"textures":[
		{
			"sampler":0,
			"source":0
		},
		{
			"sampler":0,
			"source":0
		}
	],
	"images":[
		{
			"mimeType":"image/png",
			"name":"obj_global_steampunk02",
			"uri":"textures/obj_global_steampunk02.png"
		}
	],
	"accessors":[
		{
			"bufferView":0,
			"componentType":5126,
			"count":1978,
			"max":[
				0.5134392380714417,
				0.1064167469739914,
				0.18736925721168518
			],
			"min":[
				-0.5637277364730835,
				0.011961270123720169,
				-0.19984501600265503
			],
			"type":"VEC3"
		},
		{
			"bufferView":1,
			"componentType":5126,
			"count":1978,
			"type":"VEC3"
		},
		{
			"bufferView":2,
			"componentType":5126,
			"count":1978,
			"type":"VEC2"
		},
		{
			"bufferView":3,
			"componentType":5123,
			"count":2298,
			"type":"SCALAR"
		},
		{
			"bufferView":4,
			"componentType":5126,
			"count":24,
			"max":[
				0.5166037678718567,
				0.09729732573032379,
				0.2063940018415451
			],
			"min":[
				-0.5687832236289978,
				0.0027026794850826263,
				-0.2063940018415451
			],
			"type":"VEC3"
		},
		{
			"bufferView":5,
			"componentType":5126,
			"count":24,
			"type":"VEC3"
		},
		{
			"bufferView":6,
			"componentType":5126,
			"count":24,
			"type":"VEC2"
		},
		{
			"bufferView":7,
			"componentType":5123,
			"count":36,
			"type":"SCALAR"
		}
	],
	"bufferViews":[
		{
			"buffer":0,
			"byteLength":23736,
			"byteOffset":0,
			"target":34962
		},
		{
			"buffer":0,
			"byteLength":23736,
			"byteOffset":23736,
			"target":34962
		},
		{
			"buffer":0,
			"byteLength":15824,
			"byteOffset":47472,
			"target":34962
		},
		{
			"buffer":0,
			"byteLength":4596,
			"byteOffset":63296,
			"target":34963
		},
		{
			"buffer":0,
			"byteLength":288,
			"byteOffset":67892,
			"target":34962
		},
		{
			"buffer":0,
			"byteLength":288,
			"byteOffset":68180,
			"target":34962
		},
		{
			"buffer":0,
			"byteLength":192,
			"byteOffset":68468,
			"target":34962
		},
		{
			"buffer":0,
			"byteLength":72,
			"byteOffset":68660,
			"target":34963
		}
	],
	"samplers":[
		{
			"magFilter":9729,
			"minFilter":9987
		}
	],
	"buffers":[
		{
			"byteLength":68732,
			"uri":"obj_key01_alt.bin"
		}
	]
}
