{
	"asset":{
		"generator":"Khronos glTF Blender I/O v4.2.57",
		"version":"2.0"
	},
	"extensionsUsed":[
		"KHR_materials_specular",
		"KHR_materials_ior"
	],
	"scene":0,
	"scenes":[
		{
			"name":"obj_gear03_hard",
			"nodes":[
				0,
				1
			]
		}
	],
	"nodes":[
		{
			"mesh":0,
			"name":"obj_gear03_hard_collider"
		},
		{
			"mesh":1,
			"name":"obj_gear03_hard"
		}
	],
	"materials":[
		{
			"doubleSided":true,
			"emissiveFactor":[
				0.10000000149011612,
				0.10000000149011612,
				0.10000000149011612
			],
			"emissiveTexture":{
				"index":0
			},
			"extensions":{
				"KHR_materials_specular":{
					"specularFactor":0
				},
				"KHR_materials_ior":{
					"ior":1.4500000476837158
				}
			},
			"name":"obj_gear03_alt",
			"pbrMetallicRoughness":{
				"baseColorTexture":{
					"index":1
				},
				"metallicFactor":0
			}
		}
	],
	"meshes":[
		{
			"name":"Cylinder.262",
			"primitives":[
				{
					"attributes":{
						"POSITION":0,
						"NORMAL":1,
						"TEXCOORD_0":2
					},
					"indices":3
				}
			]
		},
		{
			"name":"Mesh.072",
			"primitives":[
				{
					"attributes":{
						"POSITION":4,
						"NORMAL":5,
						"TEXCOORD_0":6
					},
					"indices":7,
					"material":0
				}
			]
		}
	],
	"textures":[
		{
			"sampler":0,
			"source":0
		},
		{
			"sampler":0,
			"source":0
		}
	],
	"images":[
		{
			"mimeType":"image/jpeg",
			"name":"obj_gear03_alt",
			"uri":"textures/obj_gear03_alt.jpg"
		}
	],
	"accessors":[
		{
			"bufferView":0,
			"componentType":5126,
			"count":36,
			"max":[
				0.14725500345230103,
				0.07519251108169556,
				0.17003542184829712
			],
			"min":[
				-0.14725500345230103,
				0,
				-0.17003542184829712
			],
			"type":"VEC3"
		},
		{
			"bufferView":1,
			"componentType":5126,
			"count":36,
			"type":"VEC3"
		},
		{
			"bufferView":2,
			"componentType":5126,
			"count":36,
			"type":"VEC2"
		},
		{
			"bufferView":3,
			"componentType":5123,
			"count":60,
			"type":"SCALAR"
		},
		{
			"bufferView":4,
			"componentType":5126,
			"count":592,
			"max":[
				0.1458263397216797,
				0.07541152834892273,
				0.14565245807170868
			],
			"min":[
				-0.14554771780967712,
				0.0004772556130774319,
				-0.14570151269435883
			],
			"type":"VEC3"
		},
		{
			"bufferView":5,
			"componentType":5126,
			"count":592,
			"type":"VEC3"
		},
		{
			"bufferView":6,
			"componentType":5126,
			"count":592,
			"type":"VEC2"
		},
		{
			"bufferView":7,
			"componentType":5123,
			"count":1104,
			"type":"SCALAR"
		}
	],
	"bufferViews":[
		{
			"buffer":0,
			"byteLength":432,
			"byteOffset":0,
			"target":34962
		},
		{
			"buffer":0,
			"byteLength":432,
			"byteOffset":432,
			"target":34962
		},
		{
			"buffer":0,
			"byteLength":288,
			"byteOffset":864,
			"target":34962
		},
		{
			"buffer":0,
			"byteLength":120,
			"byteOffset":1152,
			"target":34963
		},
		{
			"buffer":0,
			"byteLength":7104,
			"byteOffset":1272,
			"target":34962
		},
		{
			"buffer":0,
			"byteLength":7104,
			"byteOffset":8376,
			"target":34962
		},
		{
			"buffer":0,
			"byteLength":4736,
			"byteOffset":15480,
			"target":34962
		},
		{
			"buffer":0,
			"byteLength":2208,
			"byteOffset":20216,
			"target":34963
		}
	],
	"samplers":[
		{
			"magFilter":9729,
			"minFilter":9987
		}
	],
	"buffers":[
		{
			"byteLength":22424,
			"uri":"obj_gear03_hard.bin"
		}
	]
}
