{
	"asset":{
		"generator":"Khronos glTF Blender I/O v4.2.57",
		"version":"2.0"
	},
	"extensionsUsed":[
		"KHR_materials_specular"
	],
	"scene":0,
	"scenes":[
		{
			"name":"Scene",
			"nodes":[
				0,
				1
			]
		}
	],
	"nodes":[
		{
			"mesh":0,
			"name":"obj_bench"
		},
		{
			"mesh":1,
			"name":"obj_bench_collider"
		}
	],
	"materials":[
		{
			"doubleSided":true,
			"emissiveFactor":[
				0.05000000074505806,
				0.05000000074505806,
				0.05000000074505806
			],
			"emissiveTexture":{
				"index":0
			},
			"extensions":{
				"KHR_materials_specular":{
					"specularFactor":0
				}
			},
			"name":"PaletteWithToxicColors",
			"pbrMetallicRoughness":{
				"baseColorTexture":{
					"index":1
				},
				"metallicFactor":0
			}
		}
	],
	"meshes":[
		{
			"name":"Cube.008",
			"primitives":[
				{
					"attributes":{
						"POSITION":0,
						"NORMAL":1,
						"TEXCOORD_0":2
					},
					"indices":3,
					"material":0
				}
			]
		},
		{
			"name":"Cube.009",
			"primitives":[
				{
					"attributes":{
						"POSITION":4,
						"NORMAL":5,
						"TEXCOORD_0":6
					},
					"indices":3
				}
			]
		}
	],
	"textures":[
		{
			"sampler":0,
			"source":0
		},
		{
			"sampler":0,
			"source":0
		}
	],
	"images":[
		{
			"mimeType":"image/jpeg",
			"name":"PaletteWithToxicColors",
			"uri":"textures/PaletteWithToxicColors.jpg"
		}
	],
	"accessors":[
		{
			"bufferView":0,
			"componentType":5126,
			"count":5544,
			"max":[
				7.2204179763793945,
				0.8691705465316772,
				7.673712253570557
			],
			"min":[
				-7.22041654586792,
				-0.0006203429074957967,
				5.822922229766846
			],
			"type":"VEC3"
		},
		{
			"bufferView":1,
			"componentType":5126,
			"count":5544,
			"type":"VEC3"
		},
		{
			"bufferView":2,
			"componentType":5126,
			"count":5544,
			"type":"VEC2"
		},
		{
			"bufferView":3,
			"componentType":5123,
			"count":7488,
			"type":"SCALAR"
		},
		{
			"bufferView":4,
			"componentType":5126,
			"count":5544,
			"max":[
				7.2204179763793945,
				0.8691705465316772,
				7.673712253570557
			],
			"min":[
				-7.22041654586792,
				-0.0006203429074957967,
				5.822922229766846
			],
			"type":"VEC3"
		},
		{
			"bufferView":5,
			"componentType":5126,
			"count":5544,
			"type":"VEC3"
		},
		{
			"bufferView":6,
			"componentType":5126,
			"count":5544,
			"type":"VEC2"
		}
	],
	"bufferViews":[
		{
			"buffer":0,
			"byteLength":66528,
			"byteOffset":0,
			"target":34962
		},
		{
			"buffer":0,
			"byteLength":66528,
			"byteOffset":66528,
			"target":34962
		},
		{
			"buffer":0,
			"byteLength":44352,
			"byteOffset":133056,
			"target":34962
		},
		{
			"buffer":0,
			"byteLength":14976,
			"byteOffset":177408,
			"target":34963
		},
		{
			"buffer":0,
			"byteLength":66528,
			"byteOffset":192384,
			"target":34962
		},
		{
			"buffer":0,
			"byteLength":66528,
			"byteOffset":258912,
			"target":34962
		},
		{
			"buffer":0,
			"byteLength":44352,
			"byteOffset":325440,
			"target":34962
		}
	],
	"samplers":[
		{
			"magFilter":9729,
			"minFilter":9987
		}
	],
	"buffers":[
		{
			"byteLength":369792,
			"uri":"obj_bench.bin"
		}
	]
}
