{
	"asset":{
		"generator":"Khronos glTF Blender I/O v4.2.57",
		"version":"2.0"
	},
	"extensionsUsed":[
		"KHR_materials_specular"
	],
	"scene":0,
	"scenes":[
		{
			"name":"obj_bucket01_alt",
			"nodes":[
				0,
				1
			]
		}
	],
	"nodes":[
		{
			"mesh":0,
			"name":"obj_bucket01_alt"
		},
		{
			"mesh":1,
			"name":"obj_bucket01_alt_collider",
			"scale":[
				0.17119300365447998,
				0.17119300365447998,
				0.17119300365447998
			]
		}
	],
	"materials":[
		{
			"doubleSided":true,
			"emissiveFactor":[
				0.05000000074505806,
				0.05000000074505806,
				0.05000000074505806
			],
			"emissiveTexture":{
				"index":0
			},
			"extensions":{
				"KHR_materials_specular":{
					"specularFactor":0
				}
			},
			"name":"obj_global_steampunk02",
			"pbrMetallicRoughness":{
				"baseColorTexture":{
					"index":1
				},
				"metallicFactor":0
			}
		}
	],
	"meshes":[
		{
			"name":"Cylinder.119",
			"primitives":[
				{
					"attributes":{
						"POSITION":0,
						"NORMAL":1,
						"TEXCOORD_0":2
					},
					"indices":3,
					"material":0
				}
			]
		},
		{
			"name":"Cylinder.120",
			"primitives":[
				{
					"attributes":{
						"POSITION":4,
						"NORMAL":5,
						"TEXCOORD_0":6
					},
					"indices":7
				}
			]
		}
	],
	"textures":[
		{
			"sampler":0,
			"source":0
		},
		{
			"sampler":0,
			"source":0
		}
	],
	"images":[
		{
			"mimeType":"image/png",
			"name":"obj_global_steampunk02",
			"uri":"textures/obj_global_steampunk02.png"
		}
	],
	"accessors":[
		{
			"bufferView":0,
			"componentType":5126,
			"count":420,
			"max":[
				0.22945502400398254,
				0.6692686080932617,
				0.2438436895608902
			],
			"min":[
				-0.2328222393989563,
				-0.0024945884943008423,
				-0.2365671992301941
			],
			"type":"VEC3"
		},
		{
			"bufferView":1,
			"componentType":5126,
			"count":420,
			"type":"VEC3"
		},
		{
			"bufferView":2,
			"componentType":5126,
			"count":420,
			"type":"VEC2"
		},
		{
			"bufferView":3,
			"componentType":5123,
			"count":588,
			"type":"SCALAR"
		},
		{
			"bufferView":4,
			"componentType":5126,
			"count":62,
			"max":[
				1.294608473777771,
				3.891798973083496,
				1.4948850870132446
			],
			"min":[
				-1.294608473777771,
				0,
				-1.4948850870132446
			],
			"type":"VEC3"
		},
		{
			"bufferView":5,
			"componentType":5126,
			"count":62,
			"type":"VEC3"
		},
		{
			"bufferView":6,
			"componentType":5126,
			"count":62,
			"type":"VEC2"
		},
		{
			"bufferView":7,
			"componentType":5123,
			"count":96,
			"type":"SCALAR"
		}
	],
	"bufferViews":[
		{
			"buffer":0,
			"byteLength":5040,
			"byteOffset":0,
			"target":34962
		},
		{
			"buffer":0,
			"byteLength":5040,
			"byteOffset":5040,
			"target":34962
		},
		{
			"buffer":0,
			"byteLength":3360,
			"byteOffset":10080,
			"target":34962
		},
		{
			"buffer":0,
			"byteLength":1176,
			"byteOffset":13440,
			"target":34963
		},
		{
			"buffer":0,
			"byteLength":744,
			"byteOffset":14616,
			"target":34962
		},
		{
			"buffer":0,
			"byteLength":744,
			"byteOffset":15360,
			"target":34962
		},
		{
			"buffer":0,
			"byteLength":496,
			"byteOffset":16104,
			"target":34962
		},
		{
			"buffer":0,
			"byteLength":192,
			"byteOffset":16600,
			"target":34963
		}
	],
	"samplers":[
		{
			"magFilter":9729,
			"minFilter":9987
		}
	],
	"buffers":[
		{
			"byteLength":16792,
			"uri":"obj_bucket01_alt.bin"
		}
	]
}
