{
	"asset":{
		"generator":"Khronos glTF Blender I/O v4.2.57",
		"version":"2.0"
	},
	"extensionsUsed":[
		"KHR_materials_specular"
	],
	"scene":0,
	"scenes":[
		{
			"name":"Scene",
			"nodes":[
				0,
				1
			]
		}
	],
	"nodes":[
		{
			"mesh":0,
			"name":"obj_clock"
		},
		{
			"mesh":1,
			"name":"obj_clock_collider"
		}
	],
	"materials":[
		{
			"doubleSided":true,
			"emissiveFactor":[
				0.05000000074505806,
				0.05000000074505806,
				0.05000000074505806
			],
			"emissiveTexture":{
				"index":0
			},
			"extensions":{
				"KHR_materials_specular":{
					"specularFactor":0
				}
			},
			"name":"PaletteWithToxicColors",
			"pbrMetallicRoughness":{
				"baseColorTexture":{
					"index":1
				},
				"metallicFactor":0
			}
		}
	],
	"meshes":[
		{
			"name":"Cylinder.008",
			"primitives":[
				{
					"attributes":{
						"POSITION":0,
						"NORMAL":1,
						"TEXCOORD_0":2
					},
					"indices":3,
					"material":0
				}
			]
		},
		{
			"name":"Cylinder.011",
			"primitives":[
				{
					"attributes":{
						"POSITION":4,
						"NORMAL":5,
						"TEXCOORD_0":6
					},
					"indices":3
				}
			]
		}
	],
	"textures":[
		{
			"sampler":0,
			"source":0
		},
		{
			"sampler":0,
			"source":0
		}
	],
	"images":[
		{
			"mimeType":"image/jpeg",
			"name":"PaletteWithToxicColors",
			"uri":"textures/PaletteWithToxicColors.jpg"
		}
	],
	"accessors":[
		{
			"bufferView":0,
			"componentType":5126,
			"count":763,
			"max":[
				1.7335535287857056,
				3.875041961669922,
				-6.2040114402771
			],
			"min":[
				-1.6969655752182007,
				0.2865709066390991,
				-7.061176300048828
			],
			"type":"VEC3"
		},
		{
			"bufferView":1,
			"componentType":5126,
			"count":763,
			"type":"VEC3"
		},
		{
			"bufferView":2,
			"componentType":5126,
			"count":763,
			"type":"VEC2"
		},
		{
			"bufferView":3,
			"componentType":5123,
			"count":1089,
			"type":"SCALAR"
		},
		{
			"bufferView":4,
			"componentType":5126,
			"count":763,
			"max":[
				1.7335535287857056,
				3.875041961669922,
				-6.2040114402771
			],
			"min":[
				-1.6969655752182007,
				0.2865709066390991,
				-7.061176300048828
			],
			"type":"VEC3"
		},
		{
			"bufferView":5,
			"componentType":5126,
			"count":763,
			"type":"VEC3"
		},
		{
			"bufferView":6,
			"componentType":5126,
			"count":763,
			"type":"VEC2"
		}
	],
	"bufferViews":[
		{
			"buffer":0,
			"byteLength":9156,
			"byteOffset":0,
			"target":34962
		},
		{
			"buffer":0,
			"byteLength":9156,
			"byteOffset":9156,
			"target":34962
		},
		{
			"buffer":0,
			"byteLength":6104,
			"byteOffset":18312,
			"target":34962
		},
		{
			"buffer":0,
			"byteLength":2178,
			"byteOffset":24416,
			"target":34963
		},
		{
			"buffer":0,
			"byteLength":9156,
			"byteOffset":26596,
			"target":34962
		},
		{
			"buffer":0,
			"byteLength":9156,
			"byteOffset":35752,
			"target":34962
		},
		{
			"buffer":0,
			"byteLength":6104,
			"byteOffset":44908,
			"target":34962
		}
	],
	"samplers":[
		{
			"magFilter":9729,
			"minFilter":9987
		}
	],
	"buffers":[
		{
			"byteLength":51012,
			"uri":"obj_clock.bin"
		}
	]
}
