{
	"asset":{
		"generator":"Khronos glTF Blender I/O v4.2.57",
		"version":"2.0"
	},
	"extensionsUsed":[
		"KHR_materials_specular"
	],
	"scene":0,
	"scenes":[
		{
			"name":"Scene",
			"nodes":[
				0,
				1
			]
		}
	],
	"nodes":[
		{
			"mesh":0,
			"name":"obj_lamp"
		},
		{
			"mesh":1,
			"name":"obj_lamp_collider"
		}
	],
	"materials":[
		{
			"doubleSided":true,
			"emissiveFactor":[
				0.05000000074505806,
				0.05000000074505806,
				0.05000000074505806
			],
			"emissiveTexture":{
				"index":0
			},
			"extensions":{
				"KHR_materials_specular":{
					"specularFactor":0
				}
			},
			"name":"PaletteWithToxicColors",
			"pbrMetallicRoughness":{
				"baseColorTexture":{
					"index":1
				},
				"metallicFactor":0
			}
		}
	],
	"meshes":[
		{
			"name":"Mesh.004",
			"primitives":[
				{
					"attributes":{
						"POSITION":0,
						"NORMAL":1,
						"TEXCOORD_0":2
					},
					"indices":3,
					"material":0
				}
			]
		},
		{
			"name":"Mesh.002",
			"primitives":[
				{
					"attributes":{
						"POSITION":4,
						"NORMAL":5,
						"TEXCOORD_0":6
					},
					"indices":3
				}
			]
		}
	],
	"textures":[
		{
			"sampler":0,
			"source":0
		},
		{
			"sampler":0,
			"source":0
		}
	],
	"images":[
		{
			"mimeType":"image/jpeg",
			"name":"PaletteWithToxicColors",
			"uri":"textures/PaletteWithToxicColors.jpg"
		}
	],
	"accessors":[
		{
			"bufferView":0,
			"componentType":5126,
			"count":3230,
			"max":[
				7.306961536407471,
				4.0006537437438965,
				2.728172540664673
			],
			"min":[
				-7.306961536407471,
				-0.0033419153187423944,
				1.9460368156433105
			],
			"type":"VEC3"
		},
		{
			"bufferView":1,
			"componentType":5126,
			"count":3230,
			"type":"VEC3"
		},
		{
			"bufferView":2,
			"componentType":5126,
			"count":3230,
			"type":"VEC2"
		},
		{
			"bufferView":3,
			"componentType":5123,
			"count":4614,
			"type":"SCALAR"
		},
		{
			"bufferView":4,
			"componentType":5126,
			"count":3230,
			"max":[
				7.306961536407471,
				4.0006537437438965,
				2.728172540664673
			],
			"min":[
				-7.306961536407471,
				-0.0033419153187423944,
				1.9460368156433105
			],
			"type":"VEC3"
		},
		{
			"bufferView":5,
			"componentType":5126,
			"count":3230,
			"type":"VEC3"
		},
		{
			"bufferView":6,
			"componentType":5126,
			"count":3230,
			"type":"VEC2"
		}
	],
	"bufferViews":[
		{
			"buffer":0,
			"byteLength":38760,
			"byteOffset":0,
			"target":34962
		},
		{
			"buffer":0,
			"byteLength":38760,
			"byteOffset":38760,
			"target":34962
		},
		{
			"buffer":0,
			"byteLength":25840,
			"byteOffset":77520,
			"target":34962
		},
		{
			"buffer":0,
			"byteLength":9228,
			"byteOffset":103360,
			"target":34963
		},
		{
			"buffer":0,
			"byteLength":38760,
			"byteOffset":112588,
			"target":34962
		},
		{
			"buffer":0,
			"byteLength":38760,
			"byteOffset":151348,
			"target":34962
		},
		{
			"buffer":0,
			"byteLength":25840,
			"byteOffset":190108,
			"target":34962
		}
	],
	"samplers":[
		{
			"magFilter":9729,
			"minFilter":9987
		}
	],
	"buffers":[
		{
			"byteLength":215948,
			"uri":"obj_lamp.bin"
		}
	]
}
