{
	"asset":{
		"generator":"Khronos glTF Blender I/O v4.2.57",
		"version":"2.0"
	},
	"extensionsUsed":[
		"KHR_materials_specular"
	],
	"scene":0,
	"scenes":[
		{
			"name":"obj_hydrant01_easy",
			"nodes":[
				0,
				1
			]
		}
	],
	"nodes":[
		{
			"mesh":0,
			"name":"obj_hydrant01_easy"
		},
		{
			"mesh":1,
			"name":"obj_hydrant01_easy_collider"
		}
	],
	"materials":[
		{
			"doubleSided":true,
			"emissiveFactor":[
				0.05000000074505806,
				0.05000000074505806,
				0.05000000074505806
			],
			"emissiveTexture":{
				"index":0
			},
			"extensions":{
				"KHR_materials_specular":{
					"specularFactor":0
				}
			},
			"name":"obj_global_steampunk02",
			"pbrMetallicRoughness":{
				"baseColorTexture":{
					"index":1
				},
				"metallicFactor":0
			}
		}
	],
	"meshes":[
		{
			"name":"Cylinder.275",
			"primitives":[
				{
					"attributes":{
						"POSITION":0,
						"NORMAL":1,
						"TEXCOORD_0":2
					},
					"indices":3,
					"material":0
				}
			]
		},
		{
			"name":"Cylinder.276",
			"primitives":[
				{
					"attributes":{
						"POSITION":4,
						"NORMAL":5,
						"TEXCOORD_0":6
					},
					"indices":7
				}
			]
		}
	],
	"textures":[
		{
			"sampler":0,
			"source":0
		},
		{
			"sampler":0,
			"source":0
		}
	],
	"images":[
		{
			"mimeType":"image/png",
			"name":"obj_global_steampunk02",
			"uri":"textures/obj_global_steampunk02.png"
		}
	],
	"accessors":[
		{
			"bufferView":0,
			"componentType":5126,
			"count":1318,
			"max":[
				0.3409084677696228,
				1.0919466018676758,
				0.3581843376159668
			],
			"min":[
				-0.3409084677696228,
				-0.0012422717409208417,
				-0.3581843376159668
			],
			"type":"VEC3"
		},
		{
			"bufferView":1,
			"componentType":5126,
			"count":1318,
			"type":"VEC3"
		},
		{
			"bufferView":2,
			"componentType":5126,
			"count":1318,
			"type":"VEC2"
		},
		{
			"bufferView":3,
			"componentType":5123,
			"count":2364,
			"type":"SCALAR"
		},
		{
			"bufferView":4,
			"componentType":5126,
			"count":60,
			"max":[
				0.3844701051712036,
				1.1782337427139282,
				0.39999818801879883
			],
			"min":[
				-0.3844701051712036,
				-0.0012422717409208417,
				-0.39999818801879883
			],
			"type":"VEC3"
		},
		{
			"bufferView":5,
			"componentType":5126,
			"count":60,
			"type":"VEC3"
		},
		{
			"bufferView":6,
			"componentType":5126,
			"count":60,
			"type":"VEC2"
		},
		{
			"bufferView":7,
			"componentType":5123,
			"count":96,
			"type":"SCALAR"
		}
	],
	"bufferViews":[
		{
			"buffer":0,
			"byteLength":15816,
			"byteOffset":0,
			"target":34962
		},
		{
			"buffer":0,
			"byteLength":15816,
			"byteOffset":15816,
			"target":34962
		},
		{
			"buffer":0,
			"byteLength":10544,
			"byteOffset":31632,
			"target":34962
		},
		{
			"buffer":0,
			"byteLength":4728,
			"byteOffset":42176,
			"target":34963
		},
		{
			"buffer":0,
			"byteLength":720,
			"byteOffset":46904,
			"target":34962
		},
		{
			"buffer":0,
			"byteLength":720,
			"byteOffset":47624,
			"target":34962
		},
		{
			"buffer":0,
			"byteLength":480,
			"byteOffset":48344,
			"target":34962
		},
		{
			"buffer":0,
			"byteLength":192,
			"byteOffset":48824,
			"target":34963
		}
	],
	"samplers":[
		{
			"magFilter":9729,
			"minFilter":9987
		}
	],
	"buffers":[
		{
			"byteLength":49016,
			"uri":"obj_hydrant01_easy.bin"
		}
	]
}
