{
	"asset":{
		"generator":"Khronos glTF Blender I/O v4.2.57",
		"version":"2.0"
	},
	"extensionsUsed":[
		"KHR_materials_specular"
	],
	"scene":0,
	"scenes":[
		{
			"name":"obj_gun01_medium",
			"nodes":[
				0,
				1
			]
		}
	],
	"nodes":[
		{
			"mesh":0,
			"name":"obj_gun01_medium"
		},
		{
			"mesh":1,
			"name":"obj_gun01_medium_collider"
		}
	],
	"materials":[
		{
			"doubleSided":true,
			"emissiveFactor":[
				0.05000000074505806,
				0.05000000074505806,
				0.05000000074505806
			],
			"emissiveTexture":{
				"index":0
			},
			"extensions":{
				"KHR_materials_specular":{
					"specularFactor":0
				}
			},
			"name":"obj_global_steampunk02",
			"pbrMetallicRoughness":{
				"baseColorTexture":{
					"index":1
				},
				"metallicFactor":0
			}
		}
	],
	"meshes":[
		{
			"name":"Cube.112",
			"primitives":[
				{
					"attributes":{
						"POSITION":0,
						"NORMAL":1,
						"TEXCOORD_0":2
					},
					"indices":3,
					"material":0
				}
			]
		},
		{
			"name":"Cube.113",
			"primitives":[
				{
					"attributes":{
						"POSITION":4,
						"NORMAL":5,
						"TEXCOORD_0":6
					},
					"indices":7
				}
			]
		}
	],
	"textures":[
		{
			"sampler":0,
			"source":0
		},
		{
			"sampler":0,
			"source":0
		}
	],
	"images":[
		{
			"mimeType":"image/png",
			"name":"obj_global_steampunk02",
			"uri":"textures/obj_global_steampunk02.png"
		}
	],
	"accessors":[
		{
			"bufferView":0,
			"componentType":5126,
			"count":2004,
			"max":[
				0.29044681787490845,
				0.03542177379131317,
				0.11660076677799225
			],
			"min":[
				-0.34225690364837646,
				-0.03793167322874069,
				-0.12788702547550201
			],
			"type":"VEC3"
		},
		{
			"bufferView":1,
			"componentType":5126,
			"count":2004,
			"type":"VEC3"
		},
		{
			"bufferView":2,
			"componentType":5126,
			"count":2004,
			"type":"VEC2"
		},
		{
			"bufferView":3,
			"componentType":5123,
			"count":2835,
			"type":"SCALAR"
		},
		{
			"bufferView":4,
			"componentType":5126,
			"count":24,
			"max":[
				0.6382165551185608,
				0.0762605369091034,
				0.1818917989730835
			],
			"min":[
				-2.7351081371307373e-05,
				0.00010193139314651489,
				0.00022535771131515503
			],
			"type":"VEC3"
		},
		{
			"bufferView":5,
			"componentType":5126,
			"count":24,
			"type":"VEC3"
		},
		{
			"bufferView":6,
			"componentType":5126,
			"count":24,
			"type":"VEC2"
		},
		{
			"bufferView":7,
			"componentType":5123,
			"count":36,
			"type":"SCALAR"
		}
	],
	"bufferViews":[
		{
			"buffer":0,
			"byteLength":24048,
			"byteOffset":0,
			"target":34962
		},
		{
			"buffer":0,
			"byteLength":24048,
			"byteOffset":24048,
			"target":34962
		},
		{
			"buffer":0,
			"byteLength":16032,
			"byteOffset":48096,
			"target":34962
		},
		{
			"buffer":0,
			"byteLength":5670,
			"byteOffset":64128,
			"target":34963
		},
		{
			"buffer":0,
			"byteLength":288,
			"byteOffset":69800,
			"target":34962
		},
		{
			"buffer":0,
			"byteLength":288,
			"byteOffset":70088,
			"target":34962
		},
		{
			"buffer":0,
			"byteLength":192,
			"byteOffset":70376,
			"target":34962
		},
		{
			"buffer":0,
			"byteLength":72,
			"byteOffset":70568,
			"target":34963
		}
	],
	"samplers":[
		{
			"magFilter":9729,
			"minFilter":9987
		}
	],
	"buffers":[
		{
			"byteLength":70640,
			"uri":"obj_gun01_medium.bin"
		}
	]
}
