{
	"asset":{
		"generator":"Khronos glTF Blender I/O v4.2.57",
		"version":"2.0"
	},
	"extensionsUsed":[
		"KHR_materials_specular"
	],
	"scene":0,
	"scenes":[
		{
			"name":"obj_gear04_easy",
			"nodes":[
				0,
				1
			]
		}
	],
	"nodes":[
		{
			"mesh":0,
			"name":"obj_gear04_easy"
		},
		{
			"mesh":1,
			"name":"obj_gear04_easy_collider"
		}
	],
	"materials":[
		{
			"doubleSided":true,
			"emissiveFactor":[
				0.05000000074505806,
				0.05000000074505806,
				0.05000000074505806
			],
			"emissiveTexture":{
				"index":0
			},
			"extensions":{
				"KHR_materials_specular":{
					"specularFactor":0
				}
			},
			"name":"obj_global_steampunk02",
			"pbrMetallicRoughness":{
				"baseColorTexture":{
					"index":1
				},
				"metallicFactor":0
			}
		}
	],
	"meshes":[
		{
			"name":"Cylinder.263",
			"primitives":[
				{
					"attributes":{
						"POSITION":0,
						"NORMAL":1,
						"TEXCOORD_0":2
					},
					"indices":3,
					"material":0
				}
			]
		},
		{
			"name":"Cylinder.264",
			"primitives":[
				{
					"attributes":{
						"POSITION":4,
						"NORMAL":5,
						"TEXCOORD_0":6
					},
					"indices":7
				}
			]
		}
	],
	"textures":[
		{
			"sampler":0,
			"source":0
		},
		{
			"sampler":0,
			"source":0
		}
	],
	"images":[
		{
			"mimeType":"image/png",
			"name":"obj_global_steampunk02",
			"uri":"textures/obj_global_steampunk02.png"
		}
	],
	"accessors":[
		{
			"bufferView":0,
			"componentType":5126,
			"count":895,
			"max":[
				0.17008920013904572,
				0.06981050223112106,
				0.17242760956287384
			],
			"min":[
				-0.1700892448425293,
				-0.00012494222028180957,
				-0.17242760956287384
			],
			"type":"VEC3"
		},
		{
			"bufferView":1,
			"componentType":5126,
			"count":895,
			"type":"VEC3"
		},
		{
			"bufferView":2,
			"componentType":5126,
			"count":895,
			"type":"VEC2"
		},
		{
			"bufferView":3,
			"componentType":5123,
			"count":1314,
			"type":"SCALAR"
		},
		{
			"bufferView":4,
			"componentType":5126,
			"count":36,
			"max":[
				0.17117714881896973,
				0.07644032686948776,
				0.19765834510326385
			],
			"min":[
				-0.17117714881896973,
				0,
				-0.19765834510326385
			],
			"type":"VEC3"
		},
		{
			"bufferView":5,
			"componentType":5126,
			"count":36,
			"type":"VEC3"
		},
		{
			"bufferView":6,
			"componentType":5126,
			"count":36,
			"type":"VEC2"
		},
		{
			"bufferView":7,
			"componentType":5123,
			"count":60,
			"type":"SCALAR"
		}
	],
	"bufferViews":[
		{
			"buffer":0,
			"byteLength":10740,
			"byteOffset":0,
			"target":34962
		},
		{
			"buffer":0,
			"byteLength":10740,
			"byteOffset":10740,
			"target":34962
		},
		{
			"buffer":0,
			"byteLength":7160,
			"byteOffset":21480,
			"target":34962
		},
		{
			"buffer":0,
			"byteLength":2628,
			"byteOffset":28640,
			"target":34963
		},
		{
			"buffer":0,
			"byteLength":432,
			"byteOffset":31268,
			"target":34962
		},
		{
			"buffer":0,
			"byteLength":432,
			"byteOffset":31700,
			"target":34962
		},
		{
			"buffer":0,
			"byteLength":288,
			"byteOffset":32132,
			"target":34962
		},
		{
			"buffer":0,
			"byteLength":120,
			"byteOffset":32420,
			"target":34963
		}
	],
	"samplers":[
		{
			"magFilter":9729,
			"minFilter":9987
		}
	],
	"buffers":[
		{
			"byteLength":32540,
			"uri":"obj_gear04_easy.bin"
		}
	]
}
