{
	"asset":{
		"generator":"Khronos glTF Blender I/O v4.2.57",
		"version":"2.0"
	},
	"extensionsUsed":[
		"KHR_materials_specular"
	],
	"scene":0,
	"scenes":[
		{
			"name":"Scene",
			"nodes":[
				0,
				1
			]
		}
	],
	"nodes":[
		{
			"mesh":0,
			"name":"obj_frame"
		},
		{
			"mesh":1,
			"name":"obj_frame_collider"
		}
	],
	"materials":[
		{
			"doubleSided":true,
			"emissiveFactor":[
				0.05000000074505806,
				0.05000000074505806,
				0.05000000074505806
			],
			"emissiveTexture":{
				"index":0
			},
			"extensions":{
				"KHR_materials_specular":{
					"specularFactor":0
				}
			},
			"name":"PaletteWithToxicColors",
			"pbrMetallicRoughness":{
				"baseColorTexture":{
					"index":1
				},
				"metallicFactor":0
			}
		}
	],
	"meshes":[
		{
			"name":"Plane.002",
			"primitives":[
				{
					"attributes":{
						"POSITION":0,
						"NORMAL":1,
						"TEXCOORD_0":2
					},
					"indices":3,
					"material":0
				}
			]
		},
		{
			"name":"Plane.001",
			"primitives":[
				{
					"attributes":{
						"POSITION":4,
						"NORMAL":5,
						"TEXCOORD_0":6
					},
					"indices":3
				}
			]
		}
	],
	"textures":[
		{
			"sampler":0,
			"source":0
		},
		{
			"sampler":0,
			"source":0
		}
	],
	"images":[
		{
			"mimeType":"image/jpeg",
			"name":"PaletteWithToxicColors",
			"uri":"textures/PaletteWithToxicColors.jpg"
		}
	],
	"accessors":[
		{
			"bufferView":0,
			"componentType":5126,
			"count":4054,
			"max":[
				7.299677848815918,
				3.004979133605957,
				5.437942981719971
			],
			"min":[
				-7.299677848815918,
				0.3711535930633545,
				2.8022620677948
			],
			"type":"VEC3"
		},
		{
			"bufferView":1,
			"componentType":5126,
			"count":4054,
			"type":"VEC3"
		},
		{
			"bufferView":2,
			"componentType":5126,
			"count":4054,
			"type":"VEC2"
		},
		{
			"bufferView":3,
			"componentType":5123,
			"count":6348,
			"type":"SCALAR"
		},
		{
			"bufferView":4,
			"componentType":5126,
			"count":4054,
			"max":[
				7.299677848815918,
				3.004979133605957,
				5.437942981719971
			],
			"min":[
				-7.299677848815918,
				0.3711535930633545,
				2.8022620677948
			],
			"type":"VEC3"
		},
		{
			"bufferView":5,
			"componentType":5126,
			"count":4054,
			"type":"VEC3"
		},
		{
			"bufferView":6,
			"componentType":5126,
			"count":4054,
			"type":"VEC2"
		}
	],
	"bufferViews":[
		{
			"buffer":0,
			"byteLength":48648,
			"byteOffset":0,
			"target":34962
		},
		{
			"buffer":0,
			"byteLength":48648,
			"byteOffset":48648,
			"target":34962
		},
		{
			"buffer":0,
			"byteLength":32432,
			"byteOffset":97296,
			"target":34962
		},
		{
			"buffer":0,
			"byteLength":12696,
			"byteOffset":129728,
			"target":34963
		},
		{
			"buffer":0,
			"byteLength":48648,
			"byteOffset":142424,
			"target":34962
		},
		{
			"buffer":0,
			"byteLength":48648,
			"byteOffset":191072,
			"target":34962
		},
		{
			"buffer":0,
			"byteLength":32432,
			"byteOffset":239720,
			"target":34962
		}
	],
	"samplers":[
		{
			"magFilter":9729,
			"minFilter":9987
		}
	],
	"buffers":[
		{
			"byteLength":272152,
			"uri":"obj_frame.bin"
		}
	]
}
