{
	"asset":{
		"generator":"Khronos glTF Blender I/O v4.2.57",
		"version":"2.0"
	},
	"extensionsUsed":[
		"KHR_materials_specular",
		"KHR_materials_ior"
	],
	"scene":0,
	"scenes":[
		{
			"name":"obj_chest01_medium",
			"nodes":[
				0,
				1
			]
		}
	],
	"nodes":[
		{
			"mesh":0,
			"name":"obj_chest01_medium_collider"
		},
		{
			"mesh":1,
			"name":"obj_chest01_medium"
		}
	],
	"materials":[
		{
			"doubleSided":true,
			"emissiveFactor":[
				0.10000000149011612,
				0.10000000149011612,
				0.10000000149011612
			],
			"emissiveTexture":{
				"index":0
			},
			"extensions":{
				"KHR_materials_specular":{
					"specularFactor":0
				},
				"KHR_materials_ior":{
					"ior":1.4500000476837158
				}
			},
			"name":"obj_chest01_alt",
			"pbrMetallicRoughness":{
				"baseColorTexture":{
					"index":1
				},
				"metallicFactor":0
			}
		}
	],
	"meshes":[
		{
			"name":"Cylinder.279",
			"primitives":[
				{
					"attributes":{
						"POSITION":0,
						"NORMAL":1,
						"TEXCOORD_0":2
					},
					"indices":3
				}
			]
		},
		{
			"name":"Mesh.010",
			"primitives":[
				{
					"attributes":{
						"POSITION":4,
						"NORMAL":5,
						"TEXCOORD_0":6
					},
					"indices":7,
					"material":0
				}
			]
		}
	],
	"textures":[
		{
			"sampler":0,
			"source":0
		},
		{
			"sampler":0,
			"source":0
		}
	],
	"images":[
		{
			"mimeType":"image/jpeg",
			"name":"obj_chest01_alt",
			"uri":"textures/obj_chest01_alt.jpg"
		}
	],
	"accessors":[
		{
			"bufferView":0,
			"componentType":5126,
			"count":50,
			"max":[
				0.6089028120040894,
				1.003954291343689,
				0.517963707447052
			],
			"min":[
				-0.6089028120040894,
				0,
				-0.6402382254600525
			],
			"type":"VEC3"
		},
		{
			"bufferView":1,
			"componentType":5126,
			"count":50,
			"type":"VEC3"
		},
		{
			"bufferView":2,
			"componentType":5126,
			"count":50,
			"type":"VEC2"
		},
		{
			"bufferView":3,
			"componentType":5123,
			"count":78,
			"type":"SCALAR"
		},
		{
			"bufferView":4,
			"componentType":5126,
			"count":874,
			"max":[
				0.5780534744262695,
				1.0060160160064697,
				0.5692453384399414
			],
			"min":[
				-0.5076981782913208,
				-1.0904653890975169e-07,
				-0.5532203316688538
			],
			"type":"VEC3"
		},
		{
			"bufferView":5,
			"componentType":5126,
			"count":874,
			"type":"VEC3"
		},
		{
			"bufferView":6,
			"componentType":5126,
			"count":874,
			"type":"VEC2"
		},
		{
			"bufferView":7,
			"componentType":5123,
			"count":1554,
			"type":"SCALAR"
		}
	],
	"bufferViews":[
		{
			"buffer":0,
			"byteLength":600,
			"byteOffset":0,
			"target":34962
		},
		{
			"buffer":0,
			"byteLength":600,
			"byteOffset":600,
			"target":34962
		},
		{
			"buffer":0,
			"byteLength":400,
			"byteOffset":1200,
			"target":34962
		},
		{
			"buffer":0,
			"byteLength":156,
			"byteOffset":1600,
			"target":34963
		},
		{
			"buffer":0,
			"byteLength":10488,
			"byteOffset":1756,
			"target":34962
		},
		{
			"buffer":0,
			"byteLength":10488,
			"byteOffset":12244,
			"target":34962
		},
		{
			"buffer":0,
			"byteLength":6992,
			"byteOffset":22732,
			"target":34962
		},
		{
			"buffer":0,
			"byteLength":3108,
			"byteOffset":29724,
			"target":34963
		}
	],
	"samplers":[
		{
			"magFilter":9729,
			"minFilter":9987
		}
	],
	"buffers":[
		{
			"byteLength":32832,
			"uri":"obj_chest01_medium.bin"
		}
	]
}
