{
	"asset":{
		"generator":"Khronos glTF Blender I/O v4.2.57",
		"version":"2.0"
	},
	"extensionsUsed":[
		"KHR_materials_specular"
	],
	"scene":0,
	"scenes":[
		{
			"name":"obj_gear09_base",
			"nodes":[
				0,
				1
			]
		}
	],
	"nodes":[
		{
			"mesh":0,
			"name":"obj_gear09_base"
		},
		{
			"mesh":1,
			"name":"obj_gear09_base_collider"
		}
	],
	"materials":[
		{
			"doubleSided":true,
			"emissiveFactor":[
				0.05000000074505806,
				0.05000000074505806,
				0.05000000074505806
			],
			"emissiveTexture":{
				"index":0
			},
			"extensions":{
				"KHR_materials_specular":{
					"specularFactor":0
				}
			},
			"name":"obj_global_steampunk01",
			"pbrMetallicRoughness":{
				"baseColorTexture":{
					"index":1
				},
				"metallicFactor":0
			}
		}
	],
	"meshes":[
		{
			"name":"Cylinder.210",
			"primitives":[
				{
					"attributes":{
						"POSITION":0,
						"NORMAL":1,
						"TEXCOORD_0":2
					},
					"indices":3,
					"material":0
				}
			]
		},
		{
			"name":"Cylinder.211",
			"primitives":[
				{
					"attributes":{
						"POSITION":4,
						"NORMAL":5,
						"TEXCOORD_0":6
					},
					"indices":7
				}
			]
		}
	],
	"textures":[
		{
			"sampler":0,
			"source":0
		},
		{
			"sampler":0,
			"source":0
		}
	],
	"images":[
		{
			"mimeType":"image/png",
			"name":"obj_global_steampunk",
			"uri":"textures/obj_global_steampunk.png"
		}
	],
	"accessors":[
		{
			"bufferView":0,
			"componentType":5126,
			"count":658,
			"max":[
				0.1607019156217575,
				0.1646939516067505,
				0.1607019454240799
			],
			"min":[
				-0.1607019305229187,
				-1.6483843864989467e-05,
				-0.16070188581943512
			],
			"type":"VEC3"
		},
		{
			"bufferView":1,
			"componentType":5126,
			"count":658,
			"type":"VEC3"
		},
		{
			"bufferView":2,
			"componentType":5126,
			"count":658,
			"type":"VEC2"
		},
		{
			"bufferView":3,
			"componentType":5123,
			"count":972,
			"type":"SCALAR"
		},
		{
			"bufferView":4,
			"componentType":5126,
			"count":60,
			"max":[
				0.1626274287700653,
				0.1645859032869339,
				0.18778596818447113
			],
			"min":[
				-0.1626274287700653,
				-1.6480133126606233e-05,
				-0.18778596818447113
			],
			"type":"VEC3"
		},
		{
			"bufferView":5,
			"componentType":5126,
			"count":60,
			"type":"VEC3"
		},
		{
			"bufferView":6,
			"componentType":5126,
			"count":60,
			"type":"VEC2"
		},
		{
			"bufferView":7,
			"componentType":5123,
			"count":96,
			"type":"SCALAR"
		}
	],
	"bufferViews":[
		{
			"buffer":0,
			"byteLength":7896,
			"byteOffset":0,
			"target":34962
		},
		{
			"buffer":0,
			"byteLength":7896,
			"byteOffset":7896,
			"target":34962
		},
		{
			"buffer":0,
			"byteLength":5264,
			"byteOffset":15792,
			"target":34962
		},
		{
			"buffer":0,
			"byteLength":1944,
			"byteOffset":21056,
			"target":34963
		},
		{
			"buffer":0,
			"byteLength":720,
			"byteOffset":23000,
			"target":34962
		},
		{
			"buffer":0,
			"byteLength":720,
			"byteOffset":23720,
			"target":34962
		},
		{
			"buffer":0,
			"byteLength":480,
			"byteOffset":24440,
			"target":34962
		},
		{
			"buffer":0,
			"byteLength":192,
			"byteOffset":24920,
			"target":34963
		}
	],
	"samplers":[
		{
			"magFilter":9729,
			"minFilter":9987
		}
	],
	"buffers":[
		{
			"byteLength":25112,
			"uri":"obj_gear09_base.bin"
		}
	]
}
