{
	"asset":{
		"generator":"Khronos glTF Blender I/O v4.2.57",
		"version":"2.0"
	},
	"extensionsUsed":[
		"KHR_materials_specular"
	],
	"scene":0,
	"scenes":[
		{
			"name":"obj_well01_alt",
			"nodes":[
				0,
				1
			]
		}
	],
	"nodes":[
		{
			"mesh":0,
			"name":"obj_well01_alt"
		},
		{
			"mesh":1,
			"name":"obj_well01_alt_collider"
		}
	],
	"materials":[
		{
			"doubleSided":true,
			"emissiveFactor":[
				0.05000000074505806,
				0.05000000074505806,
				0.05000000074505806
			],
			"emissiveTexture":{
				"index":0
			},
			"extensions":{
				"KHR_materials_specular":{
					"specularFactor":0
				}
			},
			"name":"obj_global_steampunk02",
			"pbrMetallicRoughness":{
				"baseColorTexture":{
					"index":1
				},
				"metallicFactor":0
			}
		}
	],
	"meshes":[
		{
			"name":"Cylinder.220",
			"primitives":[
				{
					"attributes":{
						"POSITION":0,
						"NORMAL":1,
						"TEXCOORD_0":2
					},
					"indices":3,
					"material":0
				}
			]
		},
		{
			"name":"Cylinder.221",
			"primitives":[
				{
					"attributes":{
						"POSITION":4,
						"NORMAL":5,
						"TEXCOORD_0":6
					},
					"indices":7
				}
			]
		}
	],
	"textures":[
		{
			"sampler":0,
			"source":0
		},
		{
			"sampler":0,
			"source":0
		}
	],
	"images":[
		{
			"mimeType":"image/png",
			"name":"obj_global_steampunk02",
			"uri":"textures/obj_global_steampunk02.png"
		}
	],
	"accessors":[
		{
			"bufferView":0,
			"componentType":5126,
			"count":2944,
			"max":[
				0.8065416812896729,
				1.5144766569137573,
				0.6157205700874329
			],
			"min":[
				-0.4975283443927765,
				-0.0015572377014905214,
				-0.6095001101493835
			],
			"type":"VEC3"
		},
		{
			"bufferView":1,
			"componentType":5126,
			"count":2944,
			"type":"VEC3"
		},
		{
			"bufferView":2,
			"componentType":5126,
			"count":2944,
			"type":"VEC2"
		},
		{
			"bufferView":3,
			"componentType":5123,
			"count":4260,
			"type":"SCALAR"
		},
		{
			"bufferView":4,
			"componentType":5126,
			"count":70,
			"max":[
				0.8060537576675415,
				1.400855541229248,
				0.50825434923172
			],
			"min":[
				-0.5974887013435364,
				0,
				-0.6282368898391724
			],
			"type":"VEC3"
		},
		{
			"bufferView":5,
			"componentType":5126,
			"count":70,
			"type":"VEC3"
		},
		{
			"bufferView":6,
			"componentType":5126,
			"count":70,
			"type":"VEC2"
		},
		{
			"bufferView":7,
			"componentType":5123,
			"count":102,
			"type":"SCALAR"
		}
	],
	"bufferViews":[
		{
			"buffer":0,
			"byteLength":35328,
			"byteOffset":0,
			"target":34962
		},
		{
			"buffer":0,
			"byteLength":35328,
			"byteOffset":35328,
			"target":34962
		},
		{
			"buffer":0,
			"byteLength":23552,
			"byteOffset":70656,
			"target":34962
		},
		{
			"buffer":0,
			"byteLength":8520,
			"byteOffset":94208,
			"target":34963
		},
		{
			"buffer":0,
			"byteLength":840,
			"byteOffset":102728,
			"target":34962
		},
		{
			"buffer":0,
			"byteLength":840,
			"byteOffset":103568,
			"target":34962
		},
		{
			"buffer":0,
			"byteLength":560,
			"byteOffset":104408,
			"target":34962
		},
		{
			"buffer":0,
			"byteLength":204,
			"byteOffset":104968,
			"target":34963
		}
	],
	"samplers":[
		{
			"magFilter":9729,
			"minFilter":9987
		}
	],
	"buffers":[
		{
			"byteLength":105172,
			"uri":"obj_well01_alt.bin"
		}
	]
}
