{
	"asset":{
		"generator":"Khronos glTF Blender I/O v4.2.57",
		"version":"2.0"
	},
	"extensionsUsed":[
		"KHR_materials_specular"
	],
	"scene":0,
	"scenes":[
		{
			"name":"obj_key02_easy",
			"nodes":[
				0,
				1
			]
		}
	],
	"nodes":[
		{
			"mesh":0,
			"name":"obj_key02_easy"
		},
		{
			"mesh":1,
			"name":"obj_key02_easy_collider"
		}
	],
	"materials":[
		{
			"doubleSided":true,
			"emissiveFactor":[
				0.05000000074505806,
				0.05000000074505806,
				0.05000000074505806
			],
			"emissiveTexture":{
				"index":0
			},
			"extensions":{
				"KHR_materials_specular":{
					"specularFactor":0
				}
			},
			"name":"obj_global_steampunk02",
			"pbrMetallicRoughness":{
				"baseColorTexture":{
					"index":1
				},
				"metallicFactor":0
			}
		}
	],
	"meshes":[
		{
			"name":"Cylinder.256",
			"primitives":[
				{
					"attributes":{
						"POSITION":0,
						"NORMAL":1,
						"TEXCOORD_0":2
					},
					"indices":3,
					"material":0
				}
			]
		},
		{
			"name":"Cube.110",
			"primitives":[
				{
					"attributes":{
						"POSITION":4,
						"NORMAL":5,
						"TEXCOORD_0":6
					},
					"indices":7
				}
			]
		}
	],
	"textures":[
		{
			"sampler":0,
			"source":0
		},
		{
			"sampler":0,
			"source":0
		}
	],
	"images":[
		{
			"mimeType":"image/png",
			"name":"obj_global_steampunk02",
			"uri":"textures/obj_global_steampunk02.png"
		}
	],
	"accessors":[
		{
			"bufferView":0,
			"componentType":5126,
			"count":265,
			"max":[
				0.16421735286712646,
				0.04455438628792763,
				0.0647117868065834
			],
			"min":[
				-0.2921872138977051,
				0.001832126989029348,
				-0.0701754093170166
			],
			"type":"VEC3"
		},
		{
			"bufferView":1,
			"componentType":5126,
			"count":265,
			"type":"VEC3"
		},
		{
			"bufferView":2,
			"componentType":5126,
			"count":265,
			"type":"VEC2"
		},
		{
			"bufferView":3,
			"componentType":5123,
			"count":384,
			"type":"SCALAR"
		},
		{
			"bufferView":4,
			"componentType":5126,
			"count":24,
			"max":[
				0.16764713823795319,
				0.04510003700852394,
				0.06307665258646011
			],
			"min":[
				-0.29286330938339233,
				0.0012527676299214363,
				-0.05526672676205635
			],
			"type":"VEC3"
		},
		{
			"bufferView":5,
			"componentType":5126,
			"count":24,
			"type":"VEC3"
		},
		{
			"bufferView":6,
			"componentType":5126,
			"count":24,
			"type":"VEC2"
		},
		{
			"bufferView":7,
			"componentType":5123,
			"count":36,
			"type":"SCALAR"
		}
	],
	"bufferViews":[
		{
			"buffer":0,
			"byteLength":3180,
			"byteOffset":0,
			"target":34962
		},
		{
			"buffer":0,
			"byteLength":3180,
			"byteOffset":3180,
			"target":34962
		},
		{
			"buffer":0,
			"byteLength":2120,
			"byteOffset":6360,
			"target":34962
		},
		{
			"buffer":0,
			"byteLength":768,
			"byteOffset":8480,
			"target":34963
		},
		{
			"buffer":0,
			"byteLength":288,
			"byteOffset":9248,
			"target":34962
		},
		{
			"buffer":0,
			"byteLength":288,
			"byteOffset":9536,
			"target":34962
		},
		{
			"buffer":0,
			"byteLength":192,
			"byteOffset":9824,
			"target":34962
		},
		{
			"buffer":0,
			"byteLength":72,
			"byteOffset":10016,
			"target":34963
		}
	],
	"samplers":[
		{
			"magFilter":9729,
			"minFilter":9987
		}
	],
	"buffers":[
		{
			"byteLength":10088,
			"uri":"obj_key02_easy.bin"
		}
	]
}
