{
	"asset":{
		"generator":"Khronos glTF Blender I/O v4.2.57",
		"version":"2.0"
	},
	"extensionsUsed":[
		"KHR_materials_specular"
	],
	"scene":0,
	"scenes":[
		{
			"name":"Scene",
			"nodes":[
				0,
				1
			]
		}
	],
	"nodes":[
		{
			"mesh":0,
			"name":"obj_fence"
		},
		{
			"mesh":1,
			"name":"obj_fence_collider",
			"translation":[
				0,
				0,
				-2.985351324081421
			]
		}
	],
	"materials":[
		{
			"doubleSided":true,
			"emissiveFactor":[
				0.05000000074505806,
				0.05000000074505806,
				0.05000000074505806
			],
			"emissiveTexture":{
				"index":0
			},
			"extensions":{
				"KHR_materials_specular":{
					"specularFactor":0
				}
			},
			"name":"PaletteWithToxicColors",
			"pbrMetallicRoughness":{
				"baseColorTexture":{
					"index":1
				},
				"metallicFactor":0
			}
		}
	],
	"meshes":[
		{
			"name":"Cylinder.090",
			"primitives":[
				{
					"attributes":{
						"POSITION":0,
						"NORMAL":1,
						"TEXCOORD_0":2
					},
					"indices":3,
					"material":0
				}
			]
		},
		{
			"name":"Cube",
			"primitives":[
				{
					"attributes":{
						"POSITION":4,
						"NORMAL":5,
						"TEXCOORD_0":6
					},
					"indices":7
				}
			]
		}
	],
	"textures":[
		{
			"sampler":0,
			"source":0
		},
		{
			"sampler":0,
			"source":0
		}
	],
	"images":[
		{
			"mimeType":"image/jpeg",
			"name":"PaletteWithToxicColors",
			"uri":"textures/PaletteWithToxicColors.jpg"
		}
	],
	"accessors":[
		{
			"bufferView":0,
			"componentType":5126,
			"count":15350,
			"max":[
				7.941812515258789,
				1.3311899900436401,
				1.9077842235565186
			],
			"min":[
				-7.941812515258789,
				0,
				-7.8988165855407715
			],
			"type":"VEC3"
		},
		{
			"bufferView":1,
			"componentType":5126,
			"count":15350,
			"type":"VEC3"
		},
		{
			"bufferView":2,
			"componentType":5126,
			"count":15350,
			"type":"VEC2"
		},
		{
			"bufferView":3,
			"componentType":5123,
			"count":21801,
			"type":"SCALAR"
		},
		{
			"bufferView":4,
			"componentType":5126,
			"count":40,
			"max":[
				7.9902825355529785,
				0.5691417455673218,
				5.007232666015625
			],
			"min":[
				-7.9902825355529785,
				-0.7729429006576538,
				-5.007232666015625
			],
			"type":"VEC3"
		},
		{
			"bufferView":5,
			"componentType":5126,
			"count":40,
			"type":"VEC3"
		},
		{
			"bufferView":6,
			"componentType":5126,
			"count":40,
			"type":"VEC2"
		},
		{
			"bufferView":7,
			"componentType":5123,
			"count":72,
			"type":"SCALAR"
		}
	],
	"bufferViews":[
		{
			"buffer":0,
			"byteLength":184200,
			"byteOffset":0,
			"target":34962
		},
		{
			"buffer":0,
			"byteLength":184200,
			"byteOffset":184200,
			"target":34962
		},
		{
			"buffer":0,
			"byteLength":122800,
			"byteOffset":368400,
			"target":34962
		},
		{
			"buffer":0,
			"byteLength":43602,
			"byteOffset":491200,
			"target":34963
		},
		{
			"buffer":0,
			"byteLength":480,
			"byteOffset":534804,
			"target":34962
		},
		{
			"buffer":0,
			"byteLength":480,
			"byteOffset":535284,
			"target":34962
		},
		{
			"buffer":0,
			"byteLength":320,
			"byteOffset":535764,
			"target":34962
		},
		{
			"buffer":0,
			"byteLength":144,
			"byteOffset":536084,
			"target":34963
		}
	],
	"samplers":[
		{
			"magFilter":9729,
			"minFilter":9987
		}
	],
	"buffers":[
		{
			"byteLength":536228,
			"uri":"obj_fence.bin"
		}
	]
}
