{
	"asset":{
		"generator":"Khronos glTF Blender I/O v4.2.57",
		"version":"2.0"
	},
	"extensionsUsed":[
		"KHR_materials_specular"
	],
	"scene":0,
	"scenes":[
		{
			"name":"obj_well01_alt",
			"nodes":[
				0,
				1
			]
		}
	],
	"nodes":[
		{
			"mesh":0,
			"name":"obj_well01_alt"
		},
		{
			"mesh":1,
			"name":"obj_well01_alt_collider",
			"scale":[
				1,
				1.077573299407959,
				1
			]
		}
	],
	"materials":[
		{
			"doubleSided":true,
			"emissiveFactor":[
				0.05000000074505806,
				0.05000000074505806,
				0.05000000074505806
			],
			"emissiveTexture":{
				"index":0
			},
			"extensions":{
				"KHR_materials_specular":{
					"specularFactor":0
				}
			},
			"name":"obj_global_steampunk02",
			"pbrMetallicRoughness":{
				"baseColorTexture":{
					"index":1
				},
				"metallicFactor":0
			}
		}
	],
	"meshes":[
		{
			"name":"Cylinder.126",
			"primitives":[
				{
					"attributes":{
						"POSITION":0,
						"NORMAL":1,
						"TEXCOORD_0":2
					},
					"indices":3,
					"material":0
				}
			]
		},
		{
			"name":"Cylinder.127",
			"primitives":[
				{
					"attributes":{
						"POSITION":4,
						"NORMAL":5,
						"TEXCOORD_0":6
					},
					"indices":7
				}
			]
		}
	],
	"textures":[
		{
			"sampler":0,
			"source":0
		},
		{
			"sampler":0,
			"source":0
		}
	],
	"images":[
		{
			"mimeType":"image/png",
			"name":"obj_global_steampunk",
			"uri":"textures/obj_global_steampunk.png"
		}
	],
	"accessors":[
		{
			"bufferView":0,
			"componentType":5126,
			"count":2946,
			"max":[
				1.5950212478637695,
				2.995037317276001,
				1.217652440071106
			],
			"min":[
				-0.9839147925376892,
				-0.0030796017963439226,
				-1.2053507566452026
			],
			"type":"VEC3"
		},
		{
			"bufferView":1,
			"componentType":5126,
			"count":2946,
			"type":"VEC3"
		},
		{
			"bufferView":2,
			"componentType":5126,
			"count":2946,
			"type":"VEC2"
		},
		{
			"bufferView":3,
			"componentType":5123,
			"count":4260,
			"type":"SCALAR"
		},
		{
			"bufferView":4,
			"componentType":5126,
			"count":70,
			"max":[
				1.5940563678741455,
				2.7703397274017334,
				1.0051265954971313
			],
			"min":[
				-1.1815969944000244,
				0,
				-1.2424046993255615
			],
			"type":"VEC3"
		},
		{
			"bufferView":5,
			"componentType":5126,
			"count":70,
			"type":"VEC3"
		},
		{
			"bufferView":6,
			"componentType":5126,
			"count":70,
			"type":"VEC2"
		},
		{
			"bufferView":7,
			"componentType":5123,
			"count":102,
			"type":"SCALAR"
		}
	],
	"bufferViews":[
		{
			"buffer":0,
			"byteLength":35352,
			"byteOffset":0,
			"target":34962
		},
		{
			"buffer":0,
			"byteLength":35352,
			"byteOffset":35352,
			"target":34962
		},
		{
			"buffer":0,
			"byteLength":23568,
			"byteOffset":70704,
			"target":34962
		},
		{
			"buffer":0,
			"byteLength":8520,
			"byteOffset":94272,
			"target":34963
		},
		{
			"buffer":0,
			"byteLength":840,
			"byteOffset":102792,
			"target":34962
		},
		{
			"buffer":0,
			"byteLength":840,
			"byteOffset":103632,
			"target":34962
		},
		{
			"buffer":0,
			"byteLength":560,
			"byteOffset":104472,
			"target":34962
		},
		{
			"buffer":0,
			"byteLength":204,
			"byteOffset":105032,
			"target":34963
		}
	],
	"samplers":[
		{
			"magFilter":9729,
			"minFilter":9987
		}
	],
	"buffers":[
		{
			"byteLength":105236,
			"uri":"obj_well01_alt.bin"
		}
	]
}
