{
	"asset":{
		"generator":"Khronos glTF Blender I/O v4.2.57",
		"version":"2.0"
	},
	"extensionsUsed":[
		"KHR_materials_specular",
		"KHR_materials_ior"
	],
	"scene":0,
	"scenes":[
		{
			"name":"obj_hydrant01_alt",
			"nodes":[
				0,
				1
			]
		}
	],
	"nodes":[
		{
			"mesh":0,
			"name":"obj_hydrant01_alt"
		},
		{
			"mesh":1,
			"name":"obj_hydrant01_alt_collider"
		}
	],
	"materials":[
		{
			"doubleSided":true,
			"emissiveFactor":[
				0.10000000149011612,
				0.10000000149011612,
				0.10000000149011612
			],
			"emissiveTexture":{
				"index":0
			},
			"extensions":{
				"KHR_materials_specular":{
					"specularFactor":0
				},
				"KHR_materials_ior":{
					"ior":1.4500000476837158
				}
			},
			"name":"obj_hydrant01_alt",
			"pbrMetallicRoughness":{
				"baseColorTexture":{
					"index":1
				},
				"metallicFactor":0
			}
		}
	],
	"meshes":[
		{
			"name":"Mesh.024",
			"primitives":[
				{
					"attributes":{
						"POSITION":0,
						"NORMAL":1,
						"TEXCOORD_0":2
					},
					"indices":3,
					"material":0
				}
			]
		},
		{
			"name":"Mesh.025",
			"primitives":[
				{
					"attributes":{
						"POSITION":4,
						"NORMAL":5,
						"TEXCOORD_0":6
					},
					"indices":7
				}
			]
		}
	],
	"textures":[
		{
			"sampler":0,
			"source":0
		},
		{
			"sampler":0,
			"source":0
		}
	],
	"images":[
		{
			"mimeType":"image/jpeg",
			"name":"obj_hydrant01_alt",
			"uri":"textures/obj_hydrant01_alt.jpg"
		}
	],
	"accessors":[
		{
			"bufferView":0,
			"componentType":5126,
			"count":445,
			"max":[
				0.3611243963241577,
				1.0919466018676758,
				0.3595941662788391
			],
			"min":[
				-0.35894137620925903,
				-0.0012423794250935316,
				-0.3594907224178314
			],
			"type":"VEC3"
		},
		{
			"bufferView":1,
			"componentType":5126,
			"count":445,
			"type":"VEC3"
		},
		{
			"bufferView":2,
			"componentType":5126,
			"count":445,
			"type":"VEC2"
		},
		{
			"bufferView":3,
			"componentType":5123,
			"count":1110,
			"type":"SCALAR"
		},
		{
			"bufferView":4,
			"componentType":5126,
			"count":60,
			"max":[
				0.384470134973526,
				1.1782337427139282,
				0.39999815821647644
			],
			"min":[
				-0.384470134973526,
				-0.0012423667358234525,
				-0.39999818801879883
			],
			"type":"VEC3"
		},
		{
			"bufferView":5,
			"componentType":5126,
			"count":60,
			"type":"VEC3"
		},
		{
			"bufferView":6,
			"componentType":5126,
			"count":60,
			"type":"VEC2"
		},
		{
			"bufferView":7,
			"componentType":5123,
			"count":96,
			"type":"SCALAR"
		}
	],
	"bufferViews":[
		{
			"buffer":0,
			"byteLength":5340,
			"byteOffset":0,
			"target":34962
		},
		{
			"buffer":0,
			"byteLength":5340,
			"byteOffset":5340,
			"target":34962
		},
		{
			"buffer":0,
			"byteLength":3560,
			"byteOffset":10680,
			"target":34962
		},
		{
			"buffer":0,
			"byteLength":2220,
			"byteOffset":14240,
			"target":34963
		},
		{
			"buffer":0,
			"byteLength":720,
			"byteOffset":16460,
			"target":34962
		},
		{
			"buffer":0,
			"byteLength":720,
			"byteOffset":17180,
			"target":34962
		},
		{
			"buffer":0,
			"byteLength":480,
			"byteOffset":17900,
			"target":34962
		},
		{
			"buffer":0,
			"byteLength":192,
			"byteOffset":18380,
			"target":34963
		}
	],
	"samplers":[
		{
			"magFilter":9729,
			"minFilter":9987
		}
	],
	"buffers":[
		{
			"byteLength":18572,
			"uri":"obj_hydrant01_alt.bin"
		}
	]
}
