{
	"asset":{
		"generator":"Khronos glTF Blender I/O v4.2.57",
		"version":"2.0"
	},
	"extensionsUsed":[
		"KHR_materials_specular"
	],
	"scene":0,
	"scenes":[
		{
			"name":"obj_gear06_base",
			"nodes":[
				0,
				1
			]
		}
	],
	"nodes":[
		{
			"mesh":0,
			"name":"obj_gear06_base"
		},
		{
			"mesh":1,
			"name":"obj_gear06_base_collider"
		}
	],
	"materials":[
		{
			"doubleSided":true,
			"emissiveFactor":[
				0.05000000074505806,
				0.05000000074505806,
				0.05000000074505806
			],
			"emissiveTexture":{
				"index":0
			},
			"extensions":{
				"KHR_materials_specular":{
					"specularFactor":0
				}
			},
			"name":"obj_global_steampunk01",
			"pbrMetallicRoughness":{
				"baseColorTexture":{
					"index":1
				},
				"metallicFactor":0
			}
		}
	],
	"meshes":[
		{
			"name":"Gear.020",
			"primitives":[
				{
					"attributes":{
						"POSITION":0,
						"NORMAL":1,
						"TEXCOORD_0":2
					},
					"indices":3,
					"material":0
				}
			]
		},
		{
			"name":"Cylinder.207",
			"primitives":[
				{
					"attributes":{
						"POSITION":4,
						"NORMAL":5,
						"TEXCOORD_0":6
					},
					"indices":7
				}
			]
		}
	],
	"textures":[
		{
			"sampler":0,
			"source":0
		},
		{
			"sampler":0,
			"source":0
		}
	],
	"images":[
		{
			"mimeType":"image/png",
			"name":"obj_global_steampunk",
			"uri":"textures/obj_global_steampunk.png"
		}
	],
	"accessors":[
		{
			"bufferView":0,
			"componentType":5126,
			"count":1512,
			"max":[
				0.5948003530502319,
				0.3059074878692627,
				0.5929741263389587
			],
			"min":[
				-0.594645619392395,
				0.004087895154953003,
				-0.5964691638946533
			],
			"type":"VEC3"
		},
		{
			"bufferView":1,
			"componentType":5126,
			"count":1512,
			"type":"VEC3"
		},
		{
			"bufferView":2,
			"componentType":5126,
			"count":1512,
			"type":"VEC2"
		},
		{
			"bufferView":3,
			"componentType":5123,
			"count":2142,
			"type":"SCALAR"
		},
		{
			"bufferView":4,
			"componentType":5126,
			"count":60,
			"max":[
				0.6951087117195129,
				0.2956852912902832,
				0.6054905652999878
			],
			"min":[
				-0.6951087117195129,
				0.008940760046243668,
				-0.598473072052002
			],
			"type":"VEC3"
		},
		{
			"bufferView":5,
			"componentType":5126,
			"count":60,
			"type":"VEC3"
		},
		{
			"bufferView":6,
			"componentType":5126,
			"count":60,
			"type":"VEC2"
		},
		{
			"bufferView":7,
			"componentType":5123,
			"count":96,
			"type":"SCALAR"
		}
	],
	"bufferViews":[
		{
			"buffer":0,
			"byteLength":18144,
			"byteOffset":0,
			"target":34962
		},
		{
			"buffer":0,
			"byteLength":18144,
			"byteOffset":18144,
			"target":34962
		},
		{
			"buffer":0,
			"byteLength":12096,
			"byteOffset":36288,
			"target":34962
		},
		{
			"buffer":0,
			"byteLength":4284,
			"byteOffset":48384,
			"target":34963
		},
		{
			"buffer":0,
			"byteLength":720,
			"byteOffset":52668,
			"target":34962
		},
		{
			"buffer":0,
			"byteLength":720,
			"byteOffset":53388,
			"target":34962
		},
		{
			"buffer":0,
			"byteLength":480,
			"byteOffset":54108,
			"target":34962
		},
		{
			"buffer":0,
			"byteLength":192,
			"byteOffset":54588,
			"target":34963
		}
	],
	"samplers":[
		{
			"magFilter":9729,
			"minFilter":9987
		}
	],
	"buffers":[
		{
			"byteLength":54780,
			"uri":"obj_gear06_base.bin"
		}
	]
}
