{
	"asset":{
		"generator":"Khronos glTF Blender I/O v4.2.57",
		"version":"2.0"
	},
	"extensionsUsed":[
		"KHR_materials_specular"
	],
	"scene":0,
	"scenes":[
		{
			"name":"obj_gun01_alt",
			"nodes":[
				0,
				1
			]
		}
	],
	"nodes":[
		{
			"mesh":0,
			"name":"obj_gun01_alt"
		},
		{
			"mesh":1,
			"name":"obj_gun01_alt_collider"
		}
	],
	"materials":[
		{
			"doubleSided":true,
			"emissiveFactor":[
				0.05000000074505806,
				0.05000000074505806,
				0.05000000074505806
			],
			"emissiveTexture":{
				"index":0
			},
			"extensions":{
				"KHR_materials_specular":{
					"specularFactor":0
				}
			},
			"name":"obj_global_steampunk02",
			"pbrMetallicRoughness":{
				"baseColorTexture":{
					"index":1
				},
				"metallicFactor":0
			}
		}
	],
	"meshes":[
		{
			"name":"Cube.067",
			"primitives":[
				{
					"attributes":{
						"POSITION":0,
						"NORMAL":1,
						"TEXCOORD_0":2
					},
					"indices":3,
					"material":0
				}
			]
		},
		{
			"name":"Cube.068",
			"primitives":[
				{
					"attributes":{
						"POSITION":4,
						"NORMAL":5,
						"TEXCOORD_0":6
					},
					"indices":7
				}
			]
		}
	],
	"textures":[
		{
			"sampler":0,
			"source":0
		},
		{
			"sampler":0,
			"source":0
		}
	],
	"images":[
		{
			"mimeType":"image/png",
			"name":"obj_global_steampunk02",
			"uri":"textures/obj_global_steampunk02.png"
		}
	],
	"accessors":[
		{
			"bufferView":0,
			"componentType":5126,
			"count":2040,
			"max":[
				0.15624292194843292,
				0.019054841250181198,
				0.0627242848277092
			],
			"min":[
				-0.18411624431610107,
				-0.020405208691954613,
				-0.06879647076129913
			],
			"type":"VEC3"
		},
		{
			"bufferView":1,
			"componentType":5126,
			"count":2040,
			"type":"VEC3"
		},
		{
			"bufferView":2,
			"componentType":5126,
			"count":2040,
			"type":"VEC2"
		},
		{
			"bufferView":3,
			"componentType":5123,
			"count":2901,
			"type":"SCALAR"
		},
		{
			"bufferView":4,
			"componentType":5126,
			"count":24,
			"max":[
				0.15910737216472626,
				0.02250101789832115,
				0.02898399531841278
			],
			"min":[
				-0.18423211574554443,
				-0.01846804842352867,
				-0.06874237954616547
			],
			"type":"VEC3"
		},
		{
			"bufferView":5,
			"componentType":5126,
			"count":24,
			"type":"VEC3"
		},
		{
			"bufferView":6,
			"componentType":5126,
			"count":24,
			"type":"VEC2"
		},
		{
			"bufferView":7,
			"componentType":5123,
			"count":36,
			"type":"SCALAR"
		}
	],
	"bufferViews":[
		{
			"buffer":0,
			"byteLength":24480,
			"byteOffset":0,
			"target":34962
		},
		{
			"buffer":0,
			"byteLength":24480,
			"byteOffset":24480,
			"target":34962
		},
		{
			"buffer":0,
			"byteLength":16320,
			"byteOffset":48960,
			"target":34962
		},
		{
			"buffer":0,
			"byteLength":5802,
			"byteOffset":65280,
			"target":34963
		},
		{
			"buffer":0,
			"byteLength":288,
			"byteOffset":71084,
			"target":34962
		},
		{
			"buffer":0,
			"byteLength":288,
			"byteOffset":71372,
			"target":34962
		},
		{
			"buffer":0,
			"byteLength":192,
			"byteOffset":71660,
			"target":34962
		},
		{
			"buffer":0,
			"byteLength":72,
			"byteOffset":71852,
			"target":34963
		}
	],
	"samplers":[
		{
			"magFilter":9729,
			"minFilter":9987
		}
	],
	"buffers":[
		{
			"byteLength":71924,
			"uri":"obj_gun01_alt.bin"
		}
	]
}
