{
	"asset":{
		"generator":"Khronos glTF Blender I/O v4.2.57",
		"version":"2.0"
	},
	"extensionsUsed":[
		"KHR_materials_specular"
	],
	"scene":0,
	"scenes":[
		{
			"name":"obj_lever02_base",
			"nodes":[
				0,
				1
			]
		}
	],
	"nodes":[
		{
			"mesh":0,
			"name":"obj_lever02_base"
		},
		{
			"mesh":1,
			"name":"obj_lever02_base_collider"
		}
	],
	"materials":[
		{
			"doubleSided":true,
			"emissiveFactor":[
				0.05000000074505806,
				0.05000000074505806,
				0.05000000074505806
			],
			"emissiveTexture":{
				"index":0
			},
			"extensions":{
				"KHR_materials_specular":{
					"specularFactor":0
				}
			},
			"name":"obj_global_steampunk01",
			"pbrMetallicRoughness":{
				"baseColorTexture":{
					"index":1
				},
				"metallicFactor":0
			}
		}
	],
	"meshes":[
		{
			"name":"Cube.071",
			"primitives":[
				{
					"attributes":{
						"POSITION":0,
						"NORMAL":1,
						"TEXCOORD_0":2
					},
					"indices":3,
					"material":0
				}
			]
		},
		{
			"name":"Cube.072",
			"primitives":[
				{
					"attributes":{
						"POSITION":4,
						"NORMAL":5,
						"TEXCOORD_0":6
					},
					"indices":7
				}
			]
		}
	],
	"textures":[
		{
			"sampler":0,
			"source":0
		},
		{
			"sampler":0,
			"source":0
		}
	],
	"images":[
		{
			"mimeType":"image/png",
			"name":"obj_global_steampunk",
			"uri":"textures/obj_global_steampunk.png"
		}
	],
	"accessors":[
		{
			"bufferView":0,
			"componentType":5126,
			"count":636,
			"max":[
				0.13757595419883728,
				0.4890504479408264,
				0.21881745755672455
			],
			"min":[
				-0.13757595419883728,
				-0.0010241871932521462,
				-0.21881747245788574
			],
			"type":"VEC3"
		},
		{
			"bufferView":1,
			"componentType":5126,
			"count":636,
			"type":"VEC3"
		},
		{
			"bufferView":2,
			"componentType":5126,
			"count":636,
			"type":"VEC2"
		},
		{
			"bufferView":3,
			"componentType":5123,
			"count":894,
			"type":"SCALAR"
		},
		{
			"bufferView":4,
			"componentType":5126,
			"count":24,
			"max":[
				0.13743677735328674,
				0.48552095890045166,
				0.22004669904708862
			],
			"min":[
				-0.13743677735328674,
				0,
				-0.22004669904708862
			],
			"type":"VEC3"
		},
		{
			"bufferView":5,
			"componentType":5126,
			"count":24,
			"type":"VEC3"
		},
		{
			"bufferView":6,
			"componentType":5126,
			"count":24,
			"type":"VEC2"
		},
		{
			"bufferView":7,
			"componentType":5123,
			"count":36,
			"type":"SCALAR"
		}
	],
	"bufferViews":[
		{
			"buffer":0,
			"byteLength":7632,
			"byteOffset":0,
			"target":34962
		},
		{
			"buffer":0,
			"byteLength":7632,
			"byteOffset":7632,
			"target":34962
		},
		{
			"buffer":0,
			"byteLength":5088,
			"byteOffset":15264,
			"target":34962
		},
		{
			"buffer":0,
			"byteLength":1788,
			"byteOffset":20352,
			"target":34963
		},
		{
			"buffer":0,
			"byteLength":288,
			"byteOffset":22140,
			"target":34962
		},
		{
			"buffer":0,
			"byteLength":288,
			"byteOffset":22428,
			"target":34962
		},
		{
			"buffer":0,
			"byteLength":192,
			"byteOffset":22716,
			"target":34962
		},
		{
			"buffer":0,
			"byteLength":72,
			"byteOffset":22908,
			"target":34963
		}
	],
	"samplers":[
		{
			"magFilter":9729,
			"minFilter":9987
		}
	],
	"buffers":[
		{
			"byteLength":22980,
			"uri":"obj_lever02_base.bin"
		}
	]
}
