{
	"asset":{
		"generator":"Khronos glTF Blender I/O v4.2.57",
		"version":"2.0"
	},
	"extensionsUsed":[
		"KHR_materials_specular"
	],
	"scene":0,
	"scenes":[
		{
			"name":"Scene",
			"nodes":[
				0,
				1
			]
		}
	],
	"nodes":[
		{
			"mesh":0,
			"name":"obj_gear"
		},
		{
			"mesh":1,
			"name":"obj_gear_collider"
		}
	],
	"materials":[
		{
			"doubleSided":true,
			"emissiveFactor":[
				0.05000000074505806,
				0.05000000074505806,
				0.05000000074505806
			],
			"emissiveTexture":{
				"index":0
			},
			"extensions":{
				"KHR_materials_specular":{
					"specularFactor":0
				}
			},
			"name":"PaletteWithToxicColors",
			"pbrMetallicRoughness":{
				"baseColorTexture":{
					"index":1
				},
				"metallicFactor":0
			}
		}
	],
	"meshes":[
		{
			"name":"Cylinder.099",
			"primitives":[
				{
					"attributes":{
						"POSITION":0,
						"NORMAL":1,
						"TEXCOORD_0":2
					},
					"indices":3,
					"material":0
				}
			]
		},
		{
			"name":"Cylinder.101",
			"primitives":[
				{
					"attributes":{
						"POSITION":4,
						"NORMAL":5,
						"TEXCOORD_0":6
					},
					"indices":3
				}
			]
		}
	],
	"textures":[
		{
			"sampler":0,
			"source":0
		},
		{
			"sampler":0,
			"source":0
		}
	],
	"images":[
		{
			"mimeType":"image/jpeg",
			"name":"PaletteWithToxicColors",
			"uri":"textures/PaletteWithToxicColors.jpg"
		}
	],
	"accessors":[
		{
			"bufferView":0,
			"componentType":5126,
			"count":2467,
			"max":[
				7.693907737731934,
				9.660547256469727,
				7.819246768951416
			],
			"min":[
				-7.693907737731934,
				0,
				-7.477485179901123
			],
			"type":"VEC3"
		},
		{
			"bufferView":1,
			"componentType":5126,
			"count":2467,
			"type":"VEC3"
		},
		{
			"bufferView":2,
			"componentType":5126,
			"count":2467,
			"type":"VEC2"
		},
		{
			"bufferView":3,
			"componentType":5123,
			"count":4530,
			"type":"SCALAR"
		},
		{
			"bufferView":4,
			"componentType":5126,
			"count":2467,
			"max":[
				7.693907737731934,
				9.660547256469727,
				7.819246768951416
			],
			"min":[
				-7.693907737731934,
				0,
				-7.477485179901123
			],
			"type":"VEC3"
		},
		{
			"bufferView":5,
			"componentType":5126,
			"count":2467,
			"type":"VEC3"
		},
		{
			"bufferView":6,
			"componentType":5126,
			"count":2467,
			"type":"VEC2"
		}
	],
	"bufferViews":[
		{
			"buffer":0,
			"byteLength":29604,
			"byteOffset":0,
			"target":34962
		},
		{
			"buffer":0,
			"byteLength":29604,
			"byteOffset":29604,
			"target":34962
		},
		{
			"buffer":0,
			"byteLength":19736,
			"byteOffset":59208,
			"target":34962
		},
		{
			"buffer":0,
			"byteLength":9060,
			"byteOffset":78944,
			"target":34963
		},
		{
			"buffer":0,
			"byteLength":29604,
			"byteOffset":88004,
			"target":34962
		},
		{
			"buffer":0,
			"byteLength":29604,
			"byteOffset":117608,
			"target":34962
		},
		{
			"buffer":0,
			"byteLength":19736,
			"byteOffset":147212,
			"target":34962
		}
	],
	"samplers":[
		{
			"magFilter":9729,
			"minFilter":9987
		}
	],
	"buffers":[
		{
			"byteLength":166948,
			"uri":"obj_gear.bin"
		}
	]
}
