{
	"asset":{
		"generator":"Khronos glTF Blender I/O v4.2.57",
		"version":"2.0"
	},
	"extensionsUsed":[
		"KHR_materials_specular"
	],
	"scene":0,
	"scenes":[
		{
			"name":"obj_bench02_alt",
			"nodes":[
				0,
				1
			]
		}
	],
	"nodes":[
		{
			"mesh":0,
			"name":"obj_bench02_alt"
		},
		{
			"mesh":1,
			"name":"obj_bench02_alt_collider"
		}
	],
	"materials":[
		{
			"doubleSided":true,
			"emissiveFactor":[
				0.05000000074505806,
				0.05000000074505806,
				0.05000000074505806
			],
			"emissiveTexture":{
				"index":0
			},
			"extensions":{
				"KHR_materials_specular":{
					"specularFactor":0
				}
			},
			"name":"obj_global_steampunk02",
			"pbrMetallicRoughness":{
				"baseColorTexture":{
					"index":1
				},
				"metallicFactor":0
			}
		}
	],
	"meshes":[
		{
			"name":"Cylinder.132",
			"primitives":[
				{
					"attributes":{
						"POSITION":0,
						"NORMAL":1,
						"TEXCOORD_0":2
					},
					"indices":3,
					"material":0
				}
			]
		},
		{
			"name":"Cylinder.136",
			"primitives":[
				{
					"attributes":{
						"POSITION":4,
						"NORMAL":5,
						"TEXCOORD_0":6
					},
					"indices":7
				}
			]
		}
	],
	"textures":[
		{
			"sampler":0,
			"source":0
		},
		{
			"sampler":0,
			"source":0
		}
	],
	"images":[
		{
			"mimeType":"image/png",
			"name":"obj_global_steampunk02",
			"uri":"textures/obj_global_steampunk02.png"
		}
	],
	"accessors":[
		{
			"bufferView":0,
			"componentType":5126,
			"count":1003,
			"max":[
				0.29216840863227844,
				0.8010420203208923,
				0.25949668884277344
			],
			"min":[
				-0.23304879665374756,
				-0.007277497090399265,
				-0.25864002108573914
			],
			"type":"VEC3"
		},
		{
			"bufferView":1,
			"componentType":5126,
			"count":1003,
			"type":"VEC3"
		},
		{
			"bufferView":2,
			"componentType":5126,
			"count":1003,
			"type":"VEC2"
		},
		{
			"bufferView":3,
			"componentType":5123,
			"count":1296,
			"type":"SCALAR"
		},
		{
			"bufferView":4,
			"componentType":5126,
			"count":30,
			"max":[
				0.30363765358924866,
				0.8038503527641296,
				0.258289635181427
			],
			"min":[
				-0.30363762378692627,
				0,
				-0.3192635178565979
			],
			"type":"VEC3"
		},
		{
			"bufferView":5,
			"componentType":5126,
			"count":30,
			"type":"VEC3"
		},
		{
			"bufferView":6,
			"componentType":5126,
			"count":30,
			"type":"VEC2"
		},
		{
			"bufferView":7,
			"componentType":5123,
			"count":48,
			"type":"SCALAR"
		}
	],
	"bufferViews":[
		{
			"buffer":0,
			"byteLength":12036,
			"byteOffset":0,
			"target":34962
		},
		{
			"buffer":0,
			"byteLength":12036,
			"byteOffset":12036,
			"target":34962
		},
		{
			"buffer":0,
			"byteLength":8024,
			"byteOffset":24072,
			"target":34962
		},
		{
			"buffer":0,
			"byteLength":2592,
			"byteOffset":32096,
			"target":34963
		},
		{
			"buffer":0,
			"byteLength":360,
			"byteOffset":34688,
			"target":34962
		},
		{
			"buffer":0,
			"byteLength":360,
			"byteOffset":35048,
			"target":34962
		},
		{
			"buffer":0,
			"byteLength":240,
			"byteOffset":35408,
			"target":34962
		},
		{
			"buffer":0,
			"byteLength":96,
			"byteOffset":35648,
			"target":34963
		}
	],
	"samplers":[
		{
			"magFilter":9729,
			"minFilter":9987
		}
	],
	"buffers":[
		{
			"byteLength":35744,
			"uri":"obj_bench02_alt.bin"
		}
	]
}
