{
	"asset":{
		"generator":"Khronos glTF Blender I/O v4.2.57",
		"version":"2.0"
	},
	"extensionsUsed":[
		"KHR_materials_transmission",
		"KHR_materials_specular"
	],
	"scene":0,
	"scenes":[
		{
			"name":"obj_num01_easy",
			"nodes":[
				0,
				1
			]
		}
	],
	"nodes":[
		{
			"mesh":0,
			"name":"obj_num01_easy"
		},
		{
			"mesh":1,
			"name":"obj_num01_easy_collider"
		}
	],
	"materials":[
		{
			"doubleSided":true,
			"emissiveFactor":[
				0.05000000074505806,
				0.05000000074505806,
				0.05000000074505806
			],
			"emissiveTexture":{
				"index":0
			},
			"extensions":{
				"KHR_materials_specular":{
					"specularFactor":0
				}
			},
			"name":"obj_global_steampunk02",
			"pbrMetallicRoughness":{
				"baseColorTexture":{
					"index":1
				},
				"metallicFactor":0
			}
		},
		{
			"alphaMode":"BLEND",
			"doubleSided":true,
			"extensions":{
				"KHR_materials_transmission":{
					"transmissionFactor":0.7573529481887817
				}
			},
			"name":"obj_global_glass",
			"pbrMetallicRoughness":{
				"baseColorFactor":[
					1,
					1,
					1,
					0.12259356677532196
				],
				"baseColorTexture":{
					"index":2
				},
				"metallicFactor":0
			}
		}
	],
	"meshes":[
		{
			"name":"Cylinder.238",
			"primitives":[
				{
					"attributes":{
						"POSITION":0,
						"NORMAL":1,
						"TEXCOORD_0":2
					},
					"indices":3,
					"material":0
				},
				{
					"attributes":{
						"POSITION":4,
						"NORMAL":5,
						"TEXCOORD_0":6
					},
					"indices":7,
					"material":1
				}
			]
		},
		{
			"name":"Cylinder.239",
			"primitives":[
				{
					"attributes":{
						"POSITION":8,
						"NORMAL":9,
						"TEXCOORD_0":10
					},
					"indices":11
				}
			]
		}
	],
	"textures":[
		{
			"sampler":0,
			"source":0
		},
		{
			"sampler":0,
			"source":0
		},
		{
			"sampler":0,
			"source":1
		}
	],
	"images":[
		{
			"mimeType":"image/png",
			"name":"obj_global_steampunk02",
			"uri":"textures/obj_global_steampunk02.png"
		},
		{
			"mimeType":"image/png",
			"name":"obj_global_steampunk",
			"uri":"textures/obj_global_steampunk.png"
		}
	],
	"accessors":[
		{
			"bufferView":0,
			"componentType":5126,
			"count":751,
			"max":[
				0.160810649394989,
				0.6728856563568115,
				0.1626787781715393
			],
			"min":[
				-0.16330380737781525,
				-0.002294937614351511,
				-0.15917713940143585
			],
			"type":"VEC3"
		},
		{
			"bufferView":1,
			"componentType":5126,
			"count":751,
			"type":"VEC3"
		},
		{
			"bufferView":2,
			"componentType":5126,
			"count":751,
			"type":"VEC2"
		},
		{
			"bufferView":3,
			"componentType":5123,
			"count":1023,
			"type":"SCALAR"
		},
		{
			"bufferView":4,
			"componentType":5126,
			"count":450,
			"max":[
				0.15631979703903198,
				0.7605593800544739,
				0.15666289627552032
			],
			"min":[
				-0.157765731215477,
				0.07256779819726944,
				-0.15466506779193878
			],
			"type":"VEC3"
		},
		{
			"bufferView":5,
			"componentType":5126,
			"count":450,
			"type":"VEC3"
		},
		{
			"bufferView":6,
			"componentType":5126,
			"count":450,
			"type":"VEC2"
		},
		{
			"bufferView":7,
			"componentType":5123,
			"count":636,
			"type":"SCALAR"
		},
		{
			"bufferView":8,
			"componentType":5126,
			"count":30,
			"max":[
				0.18022005259990692,
				0.6958586573600769,
				0.1533043384552002
			],
			"min":[
				-0.18022003769874573,
				0,
				-0.1894945651292801
			],
			"type":"VEC3"
		},
		{
			"bufferView":9,
			"componentType":5126,
			"count":30,
			"type":"VEC3"
		},
		{
			"bufferView":10,
			"componentType":5126,
			"count":30,
			"type":"VEC2"
		},
		{
			"bufferView":11,
			"componentType":5123,
			"count":48,
			"type":"SCALAR"
		}
	],
	"bufferViews":[
		{
			"buffer":0,
			"byteLength":9012,
			"byteOffset":0,
			"target":34962
		},
		{
			"buffer":0,
			"byteLength":9012,
			"byteOffset":9012,
			"target":34962
		},
		{
			"buffer":0,
			"byteLength":6008,
			"byteOffset":18024,
			"target":34962
		},
		{
			"buffer":0,
			"byteLength":2046,
			"byteOffset":24032,
			"target":34963
		},
		{
			"buffer":0,
			"byteLength":5400,
			"byteOffset":26080,
			"target":34962
		},
		{
			"buffer":0,
			"byteLength":5400,
			"byteOffset":31480,
			"target":34962
		},
		{
			"buffer":0,
			"byteLength":3600,
			"byteOffset":36880,
			"target":34962
		},
		{
			"buffer":0,
			"byteLength":1272,
			"byteOffset":40480,
			"target":34963
		},
		{
			"buffer":0,
			"byteLength":360,
			"byteOffset":41752,
			"target":34962
		},
		{
			"buffer":0,
			"byteLength":360,
			"byteOffset":42112,
			"target":34962
		},
		{
			"buffer":0,
			"byteLength":240,
			"byteOffset":42472,
			"target":34962
		},
		{
			"buffer":0,
			"byteLength":96,
			"byteOffset":42712,
			"target":34963
		}
	],
	"samplers":[
		{
			"magFilter":9729,
			"minFilter":9987
		}
	],
	"buffers":[
		{
			"byteLength":42808,
			"uri":"obj_num01_easy.bin"
		}
	]
}
