{
	"asset":{
		"generator":"Khronos glTF Blender I/O v4.2.57",
		"version":"2.0"
	},
	"extensionsUsed":[
		"KHR_materials_specular"
	],
	"scene":0,
	"scenes":[
		{
			"name":"obj_gear02_easy",
			"nodes":[
				0,
				1
			]
		}
	],
	"nodes":[
		{
			"mesh":0,
			"name":"obj_gear02_easy"
		},
		{
			"mesh":1,
			"name":"obj_gear02_easy_collider"
		}
	],
	"materials":[
		{
			"doubleSided":true,
			"emissiveFactor":[
				0.05000000074505806,
				0.05000000074505806,
				0.05000000074505806
			],
			"emissiveTexture":{
				"index":0
			},
			"extensions":{
				"KHR_materials_specular":{
					"specularFactor":0
				}
			},
			"name":"obj_global_steampunk02",
			"pbrMetallicRoughness":{
				"baseColorTexture":{
					"index":1
				},
				"metallicFactor":0
			}
		}
	],
	"meshes":[
		{
			"name":"Cylinder.259",
			"primitives":[
				{
					"attributes":{
						"POSITION":0,
						"NORMAL":1,
						"TEXCOORD_0":2
					},
					"indices":3,
					"material":0
				}
			]
		},
		{
			"name":"Cylinder.260",
			"primitives":[
				{
					"attributes":{
						"POSITION":4,
						"NORMAL":5,
						"TEXCOORD_0":6
					},
					"indices":7
				}
			]
		}
	],
	"textures":[
		{
			"sampler":0,
			"source":0
		},
		{
			"sampler":0,
			"source":0
		}
	],
	"images":[
		{
			"mimeType":"image/png",
			"name":"obj_global_steampunk02",
			"uri":"textures/obj_global_steampunk02.png"
		}
	],
	"accessors":[
		{
			"bufferView":0,
			"componentType":5126,
			"count":183,
			"max":[
				0.19375079870224,
				0.18457020819187164,
				0.21104764938354492
			],
			"min":[
				-0.2076856940984726,
				0.0016828797524794936,
				-0.21104766428470612
			],
			"type":"VEC3"
		},
		{
			"bufferView":1,
			"componentType":5126,
			"count":183,
			"type":"VEC3"
		},
		{
			"bufferView":2,
			"componentType":5126,
			"count":183,
			"type":"VEC2"
		},
		{
			"bufferView":3,
			"componentType":5123,
			"count":270,
			"type":"SCALAR"
		},
		{
			"bufferView":4,
			"componentType":5126,
			"count":36,
			"max":[
				0.22236433625221252,
				0.18317362666130066,
				0.23177947103977203
			],
			"min":[
				-0.22236433625221252,
				0,
				-0.23177947103977203
			],
			"type":"VEC3"
		},
		{
			"bufferView":5,
			"componentType":5126,
			"count":36,
			"type":"VEC3"
		},
		{
			"bufferView":6,
			"componentType":5126,
			"count":36,
			"type":"VEC2"
		},
		{
			"bufferView":7,
			"componentType":5123,
			"count":60,
			"type":"SCALAR"
		}
	],
	"bufferViews":[
		{
			"buffer":0,
			"byteLength":2196,
			"byteOffset":0,
			"target":34962
		},
		{
			"buffer":0,
			"byteLength":2196,
			"byteOffset":2196,
			"target":34962
		},
		{
			"buffer":0,
			"byteLength":1464,
			"byteOffset":4392,
			"target":34962
		},
		{
			"buffer":0,
			"byteLength":540,
			"byteOffset":5856,
			"target":34963
		},
		{
			"buffer":0,
			"byteLength":432,
			"byteOffset":6396,
			"target":34962
		},
		{
			"buffer":0,
			"byteLength":432,
			"byteOffset":6828,
			"target":34962
		},
		{
			"buffer":0,
			"byteLength":288,
			"byteOffset":7260,
			"target":34962
		},
		{
			"buffer":0,
			"byteLength":120,
			"byteOffset":7548,
			"target":34963
		}
	],
	"samplers":[
		{
			"magFilter":9729,
			"minFilter":9987
		}
	],
	"buffers":[
		{
			"byteLength":7668,
			"uri":"obj_gear02_easy.bin"
		}
	]
}
