{
	"asset":{
		"generator":"Khronos glTF Blender I/O v4.2.57",
		"version":"2.0"
	},
	"extensionsUsed":[
		"KHR_materials_specular"
	],
	"scene":0,
	"scenes":[
		{
			"name":"obj_gear06_base",
			"nodes":[
				0,
				1
			]
		}
	],
	"nodes":[
		{
			"mesh":0,
			"name":"obj_gear06_base"
		},
		{
			"mesh":1,
			"name":"obj_gear06_base_collider"
		}
	],
	"materials":[
		{
			"doubleSided":true,
			"emissiveFactor":[
				0.05000000074505806,
				0.05000000074505806,
				0.05000000074505806
			],
			"emissiveTexture":{
				"index":0
			},
			"extensions":{
				"KHR_materials_specular":{
					"specularFactor":0
				}
			},
			"name":"obj_global_steampunk01",
			"pbrMetallicRoughness":{
				"baseColorTexture":{
					"index":1
				},
				"metallicFactor":0
			}
		}
	],
	"meshes":[
		{
			"name":"Gear.020",
			"primitives":[
				{
					"attributes":{
						"POSITION":0,
						"NORMAL":1,
						"TEXCOORD_0":2
					},
					"indices":3,
					"material":0
				}
			]
		},
		{
			"name":"Cylinder.207",
			"primitives":[
				{
					"attributes":{
						"POSITION":4,
						"NORMAL":5,
						"TEXCOORD_0":6
					},
					"indices":7
				}
			]
		}
	],
	"textures":[
		{
			"sampler":0,
			"source":0
		},
		{
			"sampler":0,
			"source":0
		}
	],
	"images":[
		{
			"mimeType":"image/png",
			"name":"obj_global_steampunk",
			"uri":"textures/obj_global_steampunk.png"
		}
	],
	"accessors":[
		{
			"bufferView":0,
			"componentType":5126,
			"count":1514,
			"max":[
				0.16279089450836182,
				0.08372381329536438,
				0.16229107975959778
			],
			"min":[
				-0.1627485454082489,
				0.0011188159696757793,
				-0.16324763000011444
			],
			"type":"VEC3"
		},
		{
			"bufferView":1,
			"componentType":5126,
			"count":1514,
			"type":"VEC3"
		},
		{
			"bufferView":2,
			"componentType":5126,
			"count":1514,
			"type":"VEC2"
		},
		{
			"bufferView":3,
			"componentType":5123,
			"count":2142,
			"type":"SCALAR"
		},
		{
			"bufferView":4,
			"componentType":5126,
			"count":60,
			"max":[
				0.19024428725242615,
				0.08092610538005829,
				0.16571670770645142
			],
			"min":[
				-0.19024428725242615,
				0.0024469965137541294,
				-0.1637960821390152
			],
			"type":"VEC3"
		},
		{
			"bufferView":5,
			"componentType":5126,
			"count":60,
			"type":"VEC3"
		},
		{
			"bufferView":6,
			"componentType":5126,
			"count":60,
			"type":"VEC2"
		},
		{
			"bufferView":7,
			"componentType":5123,
			"count":96,
			"type":"SCALAR"
		}
	],
	"bufferViews":[
		{
			"buffer":0,
			"byteLength":18168,
			"byteOffset":0,
			"target":34962
		},
		{
			"buffer":0,
			"byteLength":18168,
			"byteOffset":18168,
			"target":34962
		},
		{
			"buffer":0,
			"byteLength":12112,
			"byteOffset":36336,
			"target":34962
		},
		{
			"buffer":0,
			"byteLength":4284,
			"byteOffset":48448,
			"target":34963
		},
		{
			"buffer":0,
			"byteLength":720,
			"byteOffset":52732,
			"target":34962
		},
		{
			"buffer":0,
			"byteLength":720,
			"byteOffset":53452,
			"target":34962
		},
		{
			"buffer":0,
			"byteLength":480,
			"byteOffset":54172,
			"target":34962
		},
		{
			"buffer":0,
			"byteLength":192,
			"byteOffset":54652,
			"target":34963
		}
	],
	"samplers":[
		{
			"magFilter":9729,
			"minFilter":9987
		}
	],
	"buffers":[
		{
			"byteLength":54844,
			"uri":"obj_gear06_base.bin"
		}
	]
}
