{
	"asset":{
		"generator":"Khronos glTF Blender I/O v4.2.57",
		"version":"2.0"
	},
	"extensionsUsed":[
		"KHR_materials_specular"
	],
	"scene":0,
	"scenes":[
		{
			"name":"obj_stone03_medium",
			"nodes":[
				0,
				1
			]
		}
	],
	"nodes":[
		{
			"mesh":0,
			"name":"obj_stone03_medium"
		},
		{
			"mesh":1,
			"name":"obj_stone03_medium_collider"
		}
	],
	"materials":[
		{
			"doubleSided":true,
			"emissiveFactor":[
				0.05000000074505806,
				0.05000000074505806,
				0.05000000074505806
			],
			"emissiveTexture":{
				"index":0
			},
			"extensions":{
				"KHR_materials_specular":{
					"specularFactor":0
				}
			},
			"name":"obj_global_steampunk02",
			"pbrMetallicRoughness":{
				"baseColorTexture":{
					"index":1
				},
				"metallicFactor":0
			}
		}
	],
	"meshes":[
		{
			"name":"Sphere.010",
			"primitives":[
				{
					"attributes":{
						"POSITION":0,
						"NORMAL":1,
						"TEXCOORD_0":2
					},
					"indices":3,
					"material":0
				}
			]
		},
		{
			"name":"Cube.125",
			"primitives":[
				{
					"attributes":{
						"POSITION":4,
						"NORMAL":5,
						"TEXCOORD_0":6
					},
					"indices":7
				}
			]
		}
	],
	"textures":[
		{
			"sampler":0,
			"source":0
		},
		{
			"sampler":0,
			"source":0
		}
	],
	"images":[
		{
			"mimeType":"image/png",
			"name":"obj_global_steampunk02",
			"uri":"textures/obj_global_steampunk02.png"
		}
	],
	"accessors":[
		{
			"bufferView":0,
			"componentType":5126,
			"count":554,
			"max":[
				0.912172257900238,
				1.849007487297058,
				0.8472208976745605
			],
			"min":[
				-0.9156863689422607,
				-0.004104181192815304,
				-0.8637914061546326
			],
			"type":"VEC3"
		},
		{
			"bufferView":1,
			"componentType":5126,
			"count":554,
			"type":"VEC3"
		},
		{
			"bufferView":2,
			"componentType":5126,
			"count":554,
			"type":"VEC2"
		},
		{
			"bufferView":3,
			"componentType":5123,
			"count":720,
			"type":"SCALAR"
		},
		{
			"bufferView":4,
			"componentType":5126,
			"count":24,
			"max":[
				0.8323967456817627,
				1.805195927619934,
				0.8323967456817627
			],
			"min":[
				-0.8323967456817627,
				0,
				-0.8323967456817627
			],
			"type":"VEC3"
		},
		{
			"bufferView":5,
			"componentType":5126,
			"count":24,
			"type":"VEC3"
		},
		{
			"bufferView":6,
			"componentType":5126,
			"count":24,
			"type":"VEC2"
		},
		{
			"bufferView":7,
			"componentType":5123,
			"count":36,
			"type":"SCALAR"
		}
	],
	"bufferViews":[
		{
			"buffer":0,
			"byteLength":6648,
			"byteOffset":0,
			"target":34962
		},
		{
			"buffer":0,
			"byteLength":6648,
			"byteOffset":6648,
			"target":34962
		},
		{
			"buffer":0,
			"byteLength":4432,
			"byteOffset":13296,
			"target":34962
		},
		{
			"buffer":0,
			"byteLength":1440,
			"byteOffset":17728,
			"target":34963
		},
		{
			"buffer":0,
			"byteLength":288,
			"byteOffset":19168,
			"target":34962
		},
		{
			"buffer":0,
			"byteLength":288,
			"byteOffset":19456,
			"target":34962
		},
		{
			"buffer":0,
			"byteLength":192,
			"byteOffset":19744,
			"target":34962
		},
		{
			"buffer":0,
			"byteLength":72,
			"byteOffset":19936,
			"target":34963
		}
	],
	"samplers":[
		{
			"magFilter":9729,
			"minFilter":9987
		}
	],
	"buffers":[
		{
			"byteLength":20008,
			"uri":"obj_stone03_medium.bin"
		}
	]
}
