{
	"asset":{
		"generator":"Khronos glTF Blender I/O v4.2.57",
		"version":"2.0"
	},
	"extensionsUsed":[
		"KHR_materials_specular",
		"KHR_materials_ior"
	],
	"scene":0,
	"scenes":[
		{
			"name":"obj_bench01_alt",
			"nodes":[
				0,
				1
			]
		}
	],
	"nodes":[
		{
			"mesh":0,
			"name":"obj_bench01_alt"
		},
		{
			"mesh":1,
			"name":"obj_bench01_alt_collider"
		}
	],
	"materials":[
		{
			"doubleSided":true,
			"emissiveFactor":[
				0.10000000149011612,
				0.10000000149011612,
				0.10000000149011612
			],
			"emissiveTexture":{
				"index":0
			},
			"extensions":{
				"KHR_materials_specular":{
					"specularFactor":0
				},
				"KHR_materials_ior":{
					"ior":1.4500000476837158
				}
			},
			"name":"obj_bench01_alt",
			"pbrMetallicRoughness":{
				"baseColorTexture":{
					"index":1
				},
				"metallicFactor":0
			}
		}
	],
	"meshes":[
		{
			"name":"Mesh.016",
			"primitives":[
				{
					"attributes":{
						"POSITION":0,
						"NORMAL":1,
						"TEXCOORD_0":2
					},
					"indices":3,
					"material":0
				}
			]
		},
		{
			"name":"Mesh.017",
			"primitives":[
				{
					"attributes":{
						"POSITION":4,
						"NORMAL":5,
						"TEXCOORD_0":6
					},
					"indices":7
				}
			]
		}
	],
	"textures":[
		{
			"sampler":0,
			"source":0
		},
		{
			"sampler":0,
			"source":0
		}
	],
	"images":[
		{
			"mimeType":"image/jpeg",
			"name":"obj_bench01_alt",
			"uri":"textures/obj_bench01_alt.jpg"
		}
	],
	"accessors":[
		{
			"bufferView":0,
			"componentType":5126,
			"count":853,
			"max":[
				0.4303753077983856,
				1.8534883260726929,
				0.4041648507118225
			],
			"min":[
				-0.3038228750228882,
				-0.0026274286210536957,
				-0.4719170033931732
			],
			"type":"VEC3"
		},
		{
			"bufferView":1,
			"componentType":5126,
			"count":853,
			"type":"VEC3"
		},
		{
			"bufferView":2,
			"componentType":5126,
			"count":853,
			"type":"VEC2"
		},
		{
			"bufferView":3,
			"componentType":5123,
			"count":1971,
			"type":"SCALAR"
		},
		{
			"bufferView":4,
			"componentType":5126,
			"count":156,
			"max":[
				0.43001654744148254,
				1.8473175764083862,
				0.4040148854255676
			],
			"min":[
				-0.3442041575908661,
				0.0072429901920259,
				-0.5264981389045715
			],
			"type":"VEC3"
		},
		{
			"bufferView":5,
			"componentType":5126,
			"count":156,
			"type":"VEC3"
		},
		{
			"bufferView":6,
			"componentType":5126,
			"count":156,
			"type":"VEC2"
		},
		{
			"bufferView":7,
			"componentType":5123,
			"count":240,
			"type":"SCALAR"
		}
	],
	"bufferViews":[
		{
			"buffer":0,
			"byteLength":10236,
			"byteOffset":0,
			"target":34962
		},
		{
			"buffer":0,
			"byteLength":10236,
			"byteOffset":10236,
			"target":34962
		},
		{
			"buffer":0,
			"byteLength":6824,
			"byteOffset":20472,
			"target":34962
		},
		{
			"buffer":0,
			"byteLength":3942,
			"byteOffset":27296,
			"target":34963
		},
		{
			"buffer":0,
			"byteLength":1872,
			"byteOffset":31240,
			"target":34962
		},
		{
			"buffer":0,
			"byteLength":1872,
			"byteOffset":33112,
			"target":34962
		},
		{
			"buffer":0,
			"byteLength":1248,
			"byteOffset":34984,
			"target":34962
		},
		{
			"buffer":0,
			"byteLength":480,
			"byteOffset":36232,
			"target":34963
		}
	],
	"samplers":[
		{
			"magFilter":9729,
			"minFilter":9987
		}
	],
	"buffers":[
		{
			"byteLength":36712,
			"uri":"obj_bench01_alt.bin"
		}
	]
}
