{
	"asset":{
		"generator":"Khronos glTF Blender I/O v4.2.57",
		"version":"2.0"
	},
	"extensionsUsed":[
		"KHR_materials_specular",
		"KHR_materials_ior"
	],
	"scene":0,
	"scenes":[
		{
			"name":"obj_stone02_easy",
			"nodes":[
				0,
				1
			]
		}
	],
	"nodes":[
		{
			"mesh":0,
			"name":"obj_stone02_easy_collider"
		},
		{
			"mesh":1,
			"name":"obj_stone02_easy"
		}
	],
	"materials":[
		{
			"doubleSided":true,
			"emissiveFactor":[
				0.10000000149011612,
				0.10000000149011612,
				0.10000000149011612
			],
			"emissiveTexture":{
				"index":0
			},
			"extensions":{
				"KHR_materials_specular":{
					"specularFactor":0
				},
				"KHR_materials_ior":{
					"ior":1.4500000476837158
				}
			},
			"name":"obj_stone02_alt",
			"pbrMetallicRoughness":{
				"baseColorTexture":{
					"index":1
				},
				"metallicFactor":0
			}
		}
	],
	"meshes":[
		{
			"name":"Cube.124",
			"primitives":[
				{
					"attributes":{
						"POSITION":0,
						"NORMAL":1,
						"TEXCOORD_0":2
					},
					"indices":3
				}
			]
		},
		{
			"name":"Mesh.006",
			"primitives":[
				{
					"attributes":{
						"POSITION":4,
						"NORMAL":5,
						"TEXCOORD_0":6
					},
					"indices":7,
					"material":0
				}
			]
		}
	],
	"textures":[
		{
			"sampler":0,
			"source":0
		},
		{
			"sampler":0,
			"source":0
		}
	],
	"images":[
		{
			"mimeType":"image/jpeg",
			"name":"obj_stone02_alt",
			"uri":"textures/obj_stone02_alt.jpg"
		}
	],
	"accessors":[
		{
			"bufferView":0,
			"componentType":5126,
			"count":38,
			"max":[
				0.5579624772071838,
				0.6670382022857666,
				0.3739922046661377
			],
			"min":[
				-0.5732093453407288,
				0,
				-0.4498942196369171
			],
			"type":"VEC3"
		},
		{
			"bufferView":1,
			"componentType":5126,
			"count":38,
			"type":"VEC3"
		},
		{
			"bufferView":2,
			"componentType":5126,
			"count":38,
			"type":"VEC2"
		},
		{
			"bufferView":3,
			"componentType":5123,
			"count":60,
			"type":"SCALAR"
		},
		{
			"bufferView":4,
			"componentType":5126,
			"count":284,
			"max":[
				0.16861769556999207,
				0.5698401927947998,
				0.3552858531475067
			],
			"min":[
				-0.5684237480163574,
				0,
				-0.24266928434371948
			],
			"type":"VEC3"
		},
		{
			"bufferView":5,
			"componentType":5126,
			"count":284,
			"type":"VEC3"
		},
		{
			"bufferView":6,
			"componentType":5126,
			"count":284,
			"type":"VEC2"
		},
		{
			"bufferView":7,
			"componentType":5123,
			"count":534,
			"type":"SCALAR"
		}
	],
	"bufferViews":[
		{
			"buffer":0,
			"byteLength":456,
			"byteOffset":0,
			"target":34962
		},
		{
			"buffer":0,
			"byteLength":456,
			"byteOffset":456,
			"target":34962
		},
		{
			"buffer":0,
			"byteLength":304,
			"byteOffset":912,
			"target":34962
		},
		{
			"buffer":0,
			"byteLength":120,
			"byteOffset":1216,
			"target":34963
		},
		{
			"buffer":0,
			"byteLength":3408,
			"byteOffset":1336,
			"target":34962
		},
		{
			"buffer":0,
			"byteLength":3408,
			"byteOffset":4744,
			"target":34962
		},
		{
			"buffer":0,
			"byteLength":2272,
			"byteOffset":8152,
			"target":34962
		},
		{
			"buffer":0,
			"byteLength":1068,
			"byteOffset":10424,
			"target":34963
		}
	],
	"samplers":[
		{
			"magFilter":9729,
			"minFilter":9987
		}
	],
	"buffers":[
		{
			"byteLength":11492,
			"uri":"obj_stone02_easy.bin"
		}
	]
}
