{
	"asset":{
		"generator":"Khronos glTF Blender I/O v4.2.57",
		"version":"2.0"
	},
	"extensionsUsed":[
		"KHR_materials_specular",
		"KHR_materials_ior"
	],
	"scene":0,
	"scenes":[
		{
			"name":"obj_gear09_base",
			"nodes":[
				0,
				1
			]
		}
	],
	"nodes":[
		{
			"mesh":0,
			"name":"obj_gear09_base"
		},
		{
			"mesh":1,
			"name":"obj_gear09_base_collider"
		}
	],
	"materials":[
		{
			"doubleSided":true,
			"emissiveFactor":[
				0.10000000149011612,
				0.10000000149011612,
				0.10000000149011612
			],
			"emissiveTexture":{
				"index":0
			},
			"extensions":{
				"KHR_materials_specular":{
					"specularFactor":0
				},
				"KHR_materials_ior":{
					"ior":1.4500000476837158
				}
			},
			"name":"obj_gear09_base",
			"pbrMetallicRoughness":{
				"baseColorTexture":{
					"index":1
				},
				"metallicFactor":0
			}
		}
	],
	"meshes":[
		{
			"name":"Mesh.084",
			"primitives":[
				{
					"attributes":{
						"POSITION":0,
						"NORMAL":1,
						"TEXCOORD_0":2
					},
					"indices":3,
					"material":0
				}
			]
		},
		{
			"name":"Mesh.085",
			"primitives":[
				{
					"attributes":{
						"POSITION":4,
						"NORMAL":5,
						"TEXCOORD_0":6
					},
					"indices":7
				}
			]
		}
	],
	"textures":[
		{
			"sampler":0,
			"source":0
		},
		{
			"sampler":0,
			"source":0
		}
	],
	"images":[
		{
			"mimeType":"image/jpeg",
			"name":"obj_gear09_base",
			"uri":"textures/obj_gear09_base.jpg"
		}
	],
	"accessors":[
		{
			"bufferView":0,
			"componentType":5126,
			"count":458,
			"max":[
				0.1607019156217575,
				0.16469396650791168,
				0.1607019305229187
			],
			"min":[
				-0.1607019305229187,
				-1.6484314983244985e-05,
				-0.1607019007205963
			],
			"type":"VEC3"
		},
		{
			"bufferView":1,
			"componentType":5126,
			"count":458,
			"type":"VEC3"
		},
		{
			"bufferView":2,
			"componentType":5126,
			"count":458,
			"type":"VEC2"
		},
		{
			"bufferView":3,
			"componentType":5123,
			"count":972,
			"type":"SCALAR"
		},
		{
			"bufferView":4,
			"componentType":5126,
			"count":60,
			"max":[
				0.1626274287700653,
				0.16458594799041748,
				0.18778593838214874
			],
			"min":[
				-0.1626274287700653,
				-1.6490856069140136e-05,
				-0.18778598308563232
			],
			"type":"VEC3"
		},
		{
			"bufferView":5,
			"componentType":5126,
			"count":60,
			"type":"VEC3"
		},
		{
			"bufferView":6,
			"componentType":5126,
			"count":60,
			"type":"VEC2"
		},
		{
			"bufferView":7,
			"componentType":5123,
			"count":96,
			"type":"SCALAR"
		}
	],
	"bufferViews":[
		{
			"buffer":0,
			"byteLength":5496,
			"byteOffset":0,
			"target":34962
		},
		{
			"buffer":0,
			"byteLength":5496,
			"byteOffset":5496,
			"target":34962
		},
		{
			"buffer":0,
			"byteLength":3664,
			"byteOffset":10992,
			"target":34962
		},
		{
			"buffer":0,
			"byteLength":1944,
			"byteOffset":14656,
			"target":34963
		},
		{
			"buffer":0,
			"byteLength":720,
			"byteOffset":16600,
			"target":34962
		},
		{
			"buffer":0,
			"byteLength":720,
			"byteOffset":17320,
			"target":34962
		},
		{
			"buffer":0,
			"byteLength":480,
			"byteOffset":18040,
			"target":34962
		},
		{
			"buffer":0,
			"byteLength":192,
			"byteOffset":18520,
			"target":34963
		}
	],
	"samplers":[
		{
			"magFilter":9729,
			"minFilter":9987
		}
	],
	"buffers":[
		{
			"byteLength":18712,
			"uri":"obj_gear09_base.bin"
		}
	]
}
