{
	"asset":{
		"generator":"Khronos glTF Blender I/O v4.2.57",
		"version":"2.0"
	},
	"extensionsUsed":[
		"KHR_materials_specular"
	],
	"scene":0,
	"scenes":[
		{
			"name":"obj_num03_easy",
			"nodes":[
				0,
				1
			]
		}
	],
	"nodes":[
		{
			"mesh":0,
			"name":"obj_num03_easy"
		},
		{
			"mesh":1,
			"name":"obj_num03_easy_collider"
		}
	],
	"materials":[
		{
			"doubleSided":true,
			"emissiveFactor":[
				0.05000000074505806,
				0.05000000074505806,
				0.05000000074505806
			],
			"emissiveTexture":{
				"index":0
			},
			"extensions":{
				"KHR_materials_specular":{
					"specularFactor":0
				}
			},
			"name":"obj_global_steampunk02",
			"pbrMetallicRoughness":{
				"baseColorTexture":{
					"index":1
				},
				"metallicFactor":0
			}
		}
	],
	"meshes":[
		{
			"name":"Cylinder.242",
			"primitives":[
				{
					"attributes":{
						"POSITION":0,
						"NORMAL":1,
						"TEXCOORD_0":2
					},
					"indices":3,
					"material":0
				}
			]
		},
		{
			"name":"Cylinder.243",
			"primitives":[
				{
					"attributes":{
						"POSITION":4,
						"NORMAL":5,
						"TEXCOORD_0":6
					},
					"indices":7
				}
			]
		}
	],
	"textures":[
		{
			"sampler":0,
			"source":0
		},
		{
			"sampler":0,
			"source":0
		}
	],
	"images":[
		{
			"mimeType":"image/png",
			"name":"obj_global_steampunk",
			"uri":"textures/obj_global_steampunk.png"
		}
	],
	"accessors":[
		{
			"bufferView":0,
			"componentType":5126,
			"count":863,
			"max":[
				0.21230308711528778,
				0.7764319181442261,
				0.21072357892990112
			],
			"min":[
				-0.20940271019935608,
				-0.005416844971477985,
				-0.2068869173526764
			],
			"type":"VEC3"
		},
		{
			"bufferView":1,
			"componentType":5126,
			"count":863,
			"type":"VEC3"
		},
		{
			"bufferView":2,
			"componentType":5126,
			"count":863,
			"type":"VEC2"
		},
		{
			"bufferView":3,
			"componentType":5123,
			"count":1161,
			"type":"SCALAR"
		},
		{
			"bufferView":4,
			"componentType":5126,
			"count":30,
			"max":[
				0.23147988319396973,
				0.8937811255455017,
				0.19690856337547302
			],
			"min":[
				-0.23147986829280853,
				0,
				-0.24339234828948975
			],
			"type":"VEC3"
		},
		{
			"bufferView":5,
			"componentType":5126,
			"count":30,
			"type":"VEC3"
		},
		{
			"bufferView":6,
			"componentType":5126,
			"count":30,
			"type":"VEC2"
		},
		{
			"bufferView":7,
			"componentType":5123,
			"count":48,
			"type":"SCALAR"
		}
	],
	"bufferViews":[
		{
			"buffer":0,
			"byteLength":10356,
			"byteOffset":0,
			"target":34962
		},
		{
			"buffer":0,
			"byteLength":10356,
			"byteOffset":10356,
			"target":34962
		},
		{
			"buffer":0,
			"byteLength":6904,
			"byteOffset":20712,
			"target":34962
		},
		{
			"buffer":0,
			"byteLength":2322,
			"byteOffset":27616,
			"target":34963
		},
		{
			"buffer":0,
			"byteLength":360,
			"byteOffset":29940,
			"target":34962
		},
		{
			"buffer":0,
			"byteLength":360,
			"byteOffset":30300,
			"target":34962
		},
		{
			"buffer":0,
			"byteLength":240,
			"byteOffset":30660,
			"target":34962
		},
		{
			"buffer":0,
			"byteLength":96,
			"byteOffset":30900,
			"target":34963
		}
	],
	"samplers":[
		{
			"magFilter":9729,
			"minFilter":9987
		}
	],
	"buffers":[
		{
			"byteLength":30996,
			"uri":"obj_num03_easy.bin"
		}
	]
}
