{
	"asset":{
		"generator":"Khronos glTF Blender I/O v4.2.57",
		"version":"2.0"
	},
	"extensionsUsed":[
		"KHR_materials_specular"
	],
	"scene":0,
	"scenes":[
		{
			"name":"obj_stone01_base",
			"nodes":[
				0,
				1
			]
		}
	],
	"nodes":[
		{
			"mesh":0,
			"name":"obj_stone01_base"
		},
		{
			"mesh":1,
			"name":"obj_stone01_base_collider"
		}
	],
	"materials":[
		{
			"doubleSided":true,
			"emissiveFactor":[
				0.05000000074505806,
				0.05000000074505806,
				0.05000000074505806
			],
			"emissiveTexture":{
				"index":0
			},
			"extensions":{
				"KHR_materials_specular":{
					"specularFactor":0
				}
			},
			"name":"obj_global_steampunk01",
			"pbrMetallicRoughness":{
				"baseColorTexture":{
					"index":1
				},
				"metallicFactor":0
			}
		}
	],
	"meshes":[
		{
			"name":"Cube.077",
			"primitives":[
				{
					"attributes":{
						"POSITION":0,
						"NORMAL":1,
						"TEXCOORD_0":2
					},
					"indices":3,
					"material":0
				}
			]
		},
		{
			"name":"Cube.078",
			"primitives":[
				{
					"attributes":{
						"POSITION":4,
						"NORMAL":5,
						"TEXCOORD_0":6
					},
					"indices":7
				}
			]
		}
	],
	"textures":[
		{
			"sampler":0,
			"source":0
		},
		{
			"sampler":0,
			"source":0
		}
	],
	"images":[
		{
			"mimeType":"image/png",
			"name":"obj_global_steampunk",
			"uri":"textures/obj_global_steampunk.png"
		}
	],
	"accessors":[
		{
			"bufferView":0,
			"componentType":5126,
			"count":1095,
			"max":[
				0.49343806505203247,
				2.262425661087036,
				0.49988582730293274
			],
			"min":[
				-0.4981430768966675,
				-0.0016408702358603477,
				-0.5694499015808105
			],
			"type":"VEC3"
		},
		{
			"bufferView":1,
			"componentType":5126,
			"count":1095,
			"type":"VEC3"
		},
		{
			"bufferView":2,
			"componentType":5126,
			"count":1095,
			"type":"VEC2"
		},
		{
			"bufferView":3,
			"componentType":5123,
			"count":1446,
			"type":"SCALAR"
		},
		{
			"bufferView":4,
			"componentType":5126,
			"count":56,
			"max":[
				0.4940003454685211,
				2.2517855167388916,
				0.4940003454685211
			],
			"min":[
				-0.4940003454685211,
				0,
				-0.4940003454685211
			],
			"type":"VEC3"
		},
		{
			"bufferView":5,
			"componentType":5126,
			"count":56,
			"type":"VEC3"
		},
		{
			"bufferView":6,
			"componentType":5126,
			"count":56,
			"type":"VEC2"
		},
		{
			"bufferView":7,
			"componentType":5123,
			"count":84,
			"type":"SCALAR"
		}
	],
	"bufferViews":[
		{
			"buffer":0,
			"byteLength":13140,
			"byteOffset":0,
			"target":34962
		},
		{
			"buffer":0,
			"byteLength":13140,
			"byteOffset":13140,
			"target":34962
		},
		{
			"buffer":0,
			"byteLength":8760,
			"byteOffset":26280,
			"target":34962
		},
		{
			"buffer":0,
			"byteLength":2892,
			"byteOffset":35040,
			"target":34963
		},
		{
			"buffer":0,
			"byteLength":672,
			"byteOffset":37932,
			"target":34962
		},
		{
			"buffer":0,
			"byteLength":672,
			"byteOffset":38604,
			"target":34962
		},
		{
			"buffer":0,
			"byteLength":448,
			"byteOffset":39276,
			"target":34962
		},
		{
			"buffer":0,
			"byteLength":168,
			"byteOffset":39724,
			"target":34963
		}
	],
	"samplers":[
		{
			"magFilter":9729,
			"minFilter":9987
		}
	],
	"buffers":[
		{
			"byteLength":39892,
			"uri":"obj_stone01_base.bin"
		}
	]
}
