{
	"asset":{
		"generator":"Khronos glTF Blender I/O v4.2.57",
		"version":"2.0"
	},
	"extensionsUsed":[
		"KHR_materials_transmission",
		"KHR_materials_specular"
	],
	"scene":0,
	"scenes":[
		{
			"name":"obj_num07_alt",
			"nodes":[
				0,
				1
			]
		}
	],
	"nodes":[
		{
			"mesh":0,
			"name":"obj_num07_alt"
		},
		{
			"mesh":1,
			"name":"obj_num07_alt_collider"
		}
	],
	"materials":[
		{
			"doubleSided":true,
			"emissiveFactor":[
				0.05000000074505806,
				0.05000000074505806,
				0.05000000074505806
			],
			"emissiveTexture":{
				"index":0
			},
			"extensions":{
				"KHR_materials_specular":{
					"specularFactor":0
				}
			},
			"name":"obj_global_steampunk02",
			"pbrMetallicRoughness":{
				"baseColorTexture":{
					"index":1
				},
				"metallicFactor":0
			}
		},
		{
			"alphaMode":"BLEND",
			"doubleSided":true,
			"extensions":{
				"KHR_materials_transmission":{
					"transmissionFactor":0.7573529481887817
				}
			},
			"name":"obj_global_glass",
			"pbrMetallicRoughness":{
				"baseColorFactor":[
					1,
					1,
					1,
					0.12259356677532196
				],
				"baseColorTexture":{
					"index":2
				},
				"metallicFactor":0
			}
		}
	],
	"meshes":[
		{
			"name":"Cylinder.030",
			"primitives":[
				{
					"attributes":{
						"POSITION":0,
						"NORMAL":1,
						"TEXCOORD_0":2
					},
					"indices":3,
					"material":0
				},
				{
					"attributes":{
						"POSITION":4,
						"NORMAL":5,
						"TEXCOORD_0":6
					},
					"indices":7,
					"material":1
				}
			]
		},
		{
			"name":"Cylinder.031",
			"primitives":[
				{
					"attributes":{
						"POSITION":8,
						"NORMAL":9,
						"TEXCOORD_0":10
					},
					"indices":11
				}
			]
		}
	],
	"textures":[
		{
			"sampler":0,
			"source":0
		},
		{
			"sampler":0,
			"source":0
		},
		{
			"sampler":0,
			"source":0
		}
	],
	"images":[
		{
			"mimeType":"image/png",
			"name":"obj_global_steampunk",
			"uri":"textures/obj_global_steampunk.png"
		}
	],
	"accessors":[
		{
			"bufferView":0,
			"componentType":5126,
			"count":718,
			"max":[
				0.22056591510772705,
				0.8091131448745728,
				0.2214026302099228
			],
			"min":[
				-0.21807420253753662,
				-0.004588644951581955,
				-0.22033758461475372
			],
			"type":"VEC3"
		},
		{
			"bufferView":1,
			"componentType":5126,
			"count":718,
			"type":"VEC3"
		},
		{
			"bufferView":2,
			"componentType":5126,
			"count":718,
			"type":"VEC2"
		},
		{
			"bufferView":3,
			"componentType":5123,
			"count":990,
			"type":"SCALAR"
		},
		{
			"bufferView":4,
			"componentType":5126,
			"count":474,
			"max":[
				0.21918664872646332,
				0.918950080871582,
				0.21995991468429565
			],
			"min":[
				-0.20893017947673798,
				0.09217782318592072,
				-0.22033758461475372
			],
			"type":"VEC3"
		},
		{
			"bufferView":5,
			"componentType":5126,
			"count":474,
			"type":"VEC3"
		},
		{
			"bufferView":6,
			"componentType":5126,
			"count":474,
			"type":"VEC2"
		},
		{
			"bufferView":7,
			"componentType":5123,
			"count":666,
			"type":"SCALAR"
		},
		{
			"bufferView":8,
			"componentType":5126,
			"count":30,
			"max":[
				0.23147988319396973,
				0.8937811255455017,
				0.19690856337547302
			],
			"min":[
				-0.23147986829280853,
				0,
				-0.24339234828948975
			],
			"type":"VEC3"
		},
		{
			"bufferView":9,
			"componentType":5126,
			"count":30,
			"type":"VEC3"
		},
		{
			"bufferView":10,
			"componentType":5126,
			"count":30,
			"type":"VEC2"
		},
		{
			"bufferView":11,
			"componentType":5123,
			"count":48,
			"type":"SCALAR"
		}
	],
	"bufferViews":[
		{
			"buffer":0,
			"byteLength":8616,
			"byteOffset":0,
			"target":34962
		},
		{
			"buffer":0,
			"byteLength":8616,
			"byteOffset":8616,
			"target":34962
		},
		{
			"buffer":0,
			"byteLength":5744,
			"byteOffset":17232,
			"target":34962
		},
		{
			"buffer":0,
			"byteLength":1980,
			"byteOffset":22976,
			"target":34963
		},
		{
			"buffer":0,
			"byteLength":5688,
			"byteOffset":24956,
			"target":34962
		},
		{
			"buffer":0,
			"byteLength":5688,
			"byteOffset":30644,
			"target":34962
		},
		{
			"buffer":0,
			"byteLength":3792,
			"byteOffset":36332,
			"target":34962
		},
		{
			"buffer":0,
			"byteLength":1332,
			"byteOffset":40124,
			"target":34963
		},
		{
			"buffer":0,
			"byteLength":360,
			"byteOffset":41456,
			"target":34962
		},
		{
			"buffer":0,
			"byteLength":360,
			"byteOffset":41816,
			"target":34962
		},
		{
			"buffer":0,
			"byteLength":240,
			"byteOffset":42176,
			"target":34962
		},
		{
			"buffer":0,
			"byteLength":96,
			"byteOffset":42416,
			"target":34963
		}
	],
	"samplers":[
		{
			"magFilter":9729,
			"minFilter":9987
		}
	],
	"buffers":[
		{
			"byteLength":42512,
			"uri":"obj_num07_alt.bin"
		}
	]
}
