{
	"asset":{
		"generator":"Khronos glTF Blender I/O v4.2.57",
		"version":"2.0"
	},
	"extensionsUsed":[
		"KHR_materials_transmission",
		"KHR_materials_specular"
	],
	"scene":0,
	"scenes":[
		{
			"name":"obj_num04_hard",
			"nodes":[
				0,
				1
			]
		}
	],
	"nodes":[
		{
			"mesh":0,
			"name":"obj_num04_hard"
		},
		{
			"mesh":1,
			"name":"obj_num04_hard_collider"
		}
	],
	"materials":[
		{
			"doubleSided":true,
			"emissiveFactor":[
				0.05000000074505806,
				0.05000000074505806,
				0.05000000074505806
			],
			"emissiveTexture":{
				"index":0
			},
			"extensions":{
				"KHR_materials_specular":{
					"specularFactor":0
				}
			},
			"name":"obj_global_steampunk02",
			"pbrMetallicRoughness":{
				"baseColorTexture":{
					"index":1
				},
				"metallicFactor":0
			}
		},
		{
			"alphaMode":"BLEND",
			"doubleSided":true,
			"extensions":{
				"KHR_materials_transmission":{
					"transmissionFactor":0.7573529481887817
				}
			},
			"name":"obj_global_glass",
			"pbrMetallicRoughness":{
				"baseColorFactor":[
					1,
					1,
					1,
					0.12259356677532196
				],
				"baseColorTexture":{
					"index":2
				},
				"metallicFactor":0
			}
		}
	],
	"meshes":[
		{
			"name":"Cylinder.244",
			"primitives":[
				{
					"attributes":{
						"POSITION":0,
						"NORMAL":1,
						"TEXCOORD_0":2
					},
					"indices":3,
					"material":0
				},
				{
					"attributes":{
						"POSITION":4,
						"NORMAL":5,
						"TEXCOORD_0":6
					},
					"indices":7,
					"material":1
				}
			]
		},
		{
			"name":"Cylinder.245",
			"primitives":[
				{
					"attributes":{
						"POSITION":8,
						"NORMAL":9,
						"TEXCOORD_0":10
					},
					"indices":11
				}
			]
		}
	],
	"textures":[
		{
			"sampler":0,
			"source":0
		},
		{
			"sampler":0,
			"source":0
		},
		{
			"sampler":0,
			"source":1
		}
	],
	"images":[
		{
			"mimeType":"image/png",
			"name":"obj_global_steampunk02",
			"uri":"textures/obj_global_steampunk02.png"
		},
		{
			"mimeType":"image/png",
			"name":"obj_global_steampunk",
			"uri":"textures/obj_global_steampunk.png"
		}
	],
	"accessors":[
		{
			"bufferView":0,
			"componentType":5126,
			"count":757,
			"max":[
				0.17286035418510437,
				0.6358651518821716,
				0.16473683714866638
			],
			"min":[
				-0.15335018932819366,
				-0.004690668545663357,
				-0.16097036004066467
			],
			"type":"VEC3"
		},
		{
			"bufferView":1,
			"componentType":5126,
			"count":757,
			"type":"VEC3"
		},
		{
			"bufferView":2,
			"componentType":5126,
			"count":757,
			"type":"VEC2"
		},
		{
			"bufferView":3,
			"componentType":5123,
			"count":1038,
			"type":"SCALAR"
		},
		{
			"bufferView":4,
			"componentType":5126,
			"count":444,
			"max":[
				0.16003167629241943,
				0.722200870513916,
				0.15704841911792755
			],
			"min":[
				-0.14679931104183197,
				0.07177401334047318,
				-0.15430787205696106
			],
			"type":"VEC3"
		},
		{
			"bufferView":5,
			"componentType":5126,
			"count":444,
			"type":"VEC3"
		},
		{
			"bufferView":6,
			"componentType":5126,
			"count":444,
			"type":"VEC2"
		},
		{
			"bufferView":7,
			"componentType":5123,
			"count":636,
			"type":"SCALAR"
		},
		{
			"bufferView":8,
			"componentType":5126,
			"count":30,
			"max":[
				0.18022005259990692,
				0.6958586573600769,
				0.1533043384552002
			],
			"min":[
				-0.18022003769874573,
				0,
				-0.1894945651292801
			],
			"type":"VEC3"
		},
		{
			"bufferView":9,
			"componentType":5126,
			"count":30,
			"type":"VEC3"
		},
		{
			"bufferView":10,
			"componentType":5126,
			"count":30,
			"type":"VEC2"
		},
		{
			"bufferView":11,
			"componentType":5123,
			"count":48,
			"type":"SCALAR"
		}
	],
	"bufferViews":[
		{
			"buffer":0,
			"byteLength":9084,
			"byteOffset":0,
			"target":34962
		},
		{
			"buffer":0,
			"byteLength":9084,
			"byteOffset":9084,
			"target":34962
		},
		{
			"buffer":0,
			"byteLength":6056,
			"byteOffset":18168,
			"target":34962
		},
		{
			"buffer":0,
			"byteLength":2076,
			"byteOffset":24224,
			"target":34963
		},
		{
			"buffer":0,
			"byteLength":5328,
			"byteOffset":26300,
			"target":34962
		},
		{
			"buffer":0,
			"byteLength":5328,
			"byteOffset":31628,
			"target":34962
		},
		{
			"buffer":0,
			"byteLength":3552,
			"byteOffset":36956,
			"target":34962
		},
		{
			"buffer":0,
			"byteLength":1272,
			"byteOffset":40508,
			"target":34963
		},
		{
			"buffer":0,
			"byteLength":360,
			"byteOffset":41780,
			"target":34962
		},
		{
			"buffer":0,
			"byteLength":360,
			"byteOffset":42140,
			"target":34962
		},
		{
			"buffer":0,
			"byteLength":240,
			"byteOffset":42500,
			"target":34962
		},
		{
			"buffer":0,
			"byteLength":96,
			"byteOffset":42740,
			"target":34963
		}
	],
	"samplers":[
		{
			"magFilter":9729,
			"minFilter":9987
		}
	],
	"buffers":[
		{
			"byteLength":42836,
			"uri":"obj_num04_hard.bin"
		}
	]
}
