{
	"asset":{
		"generator":"Khronos glTF Blender I/O v4.2.57",
		"version":"2.0"
	},
	"extensionsUsed":[
		"KHR_materials_specular"
	],
	"scene":0,
	"scenes":[
		{
			"name":"Scene",
			"nodes":[
				0,
				1
			]
		}
	],
	"nodes":[
		{
			"mesh":0,
			"name":"obj_exterior_alt"
		},
		{
			"mesh":1,
			"name":"obj_exterior_alt_collider"
		}
	],
	"materials":[
		{
			"doubleSided":true,
			"emissiveFactor":[
				0.05000000074505806,
				0.05000000074505806,
				0.05000000074505806
			],
			"emissiveTexture":{
				"index":0
			},
			"extensions":{
				"KHR_materials_specular":{
					"specularFactor":0
				}
			},
			"name":"obj_global_steampunk02",
			"pbrMetallicRoughness":{
				"baseColorTexture":{
					"index":1
				},
				"metallicFactor":0
			}
		}
	],
	"meshes":[
		{
			"name":"Cylinder.019",
			"primitives":[
				{
					"attributes":{
						"POSITION":0,
						"NORMAL":1,
						"TEXCOORD_0":2
					},
					"indices":3,
					"material":0
				}
			]
		},
		{
			"name":"Cylinder.026",
			"primitives":[
				{
					"attributes":{
						"POSITION":4,
						"NORMAL":5,
						"TEXCOORD_0":6
					},
					"indices":3,
					"material":0
				}
			]
		}
	],
	"textures":[
		{
			"sampler":0,
			"source":0
		},
		{
			"sampler":0,
			"source":0
		}
	],
	"images":[
		{
			"mimeType":"image/png",
			"name":"obj_global_steampunk02",
			"uri":"textures/obj_global_steampunk02.png"
		}
	],
	"accessors":[
		{
			"bufferView":0,
			"componentType":5126,
			"count":79825,
			"max":[
				7.941812515258789,
				9.660547256469727,
				7.911832332611084
			],
			"min":[
				-7.941812515258789,
				-0.04576066881418228,
				-7.8988165855407715
			],
			"type":"VEC3"
		},
		{
			"bufferView":1,
			"componentType":5126,
			"count":79825,
			"type":"VEC3"
		},
		{
			"bufferView":2,
			"componentType":5126,
			"count":79825,
			"type":"VEC2"
		},
		{
			"bufferView":3,
			"componentType":5125,
			"count":104034,
			"type":"SCALAR"
		},
		{
			"bufferView":4,
			"componentType":5126,
			"count":79825,
			"max":[
				7.941812515258789,
				9.660547256469727,
				7.911832332611084
			],
			"min":[
				-7.941812515258789,
				-0.04576066881418228,
				-7.8988165855407715
			],
			"type":"VEC3"
		},
		{
			"bufferView":5,
			"componentType":5126,
			"count":79825,
			"type":"VEC3"
		},
		{
			"bufferView":6,
			"componentType":5126,
			"count":79825,
			"type":"VEC2"
		}
	],
	"bufferViews":[
		{
			"buffer":0,
			"byteLength":957900,
			"byteOffset":0,
			"target":34962
		},
		{
			"buffer":0,
			"byteLength":957900,
			"byteOffset":957900,
			"target":34962
		},
		{
			"buffer":0,
			"byteLength":638600,
			"byteOffset":1915800,
			"target":34962
		},
		{
			"buffer":0,
			"byteLength":416136,
			"byteOffset":2554400,
			"target":34963
		},
		{
			"buffer":0,
			"byteLength":957900,
			"byteOffset":2970536,
			"target":34962
		},
		{
			"buffer":0,
			"byteLength":957900,
			"byteOffset":3928436,
			"target":34962
		},
		{
			"buffer":0,
			"byteLength":638600,
			"byteOffset":4886336,
			"target":34962
		}
	],
	"samplers":[
		{
			"magFilter":9729,
			"minFilter":9987
		}
	],
	"buffers":[
		{
			"byteLength":5524936,
			"uri":"obj_exterior_alt.bin"
		}
	]
}
