{
	"asset":{
		"generator":"Khronos glTF Blender I/O v4.2.57",
		"version":"2.0"
	},
	"extensionsUsed":[
		"KHR_materials_specular"
	],
	"scene":0,
	"scenes":[
		{
			"name":"obj_chest03_medium",
			"nodes":[
				0,
				1
			]
		}
	],
	"nodes":[
		{
			"mesh":0,
			"name":"obj_chest03_medium"
		},
		{
			"mesh":1,
			"name":"obj_chest03_medium_collider"
		}
	],
	"materials":[
		{
			"doubleSided":true,
			"emissiveFactor":[
				0.05000000074505806,
				0.05000000074505806,
				0.05000000074505806
			],
			"emissiveTexture":{
				"index":0
			},
			"extensions":{
				"KHR_materials_specular":{
					"specularFactor":0
				}
			},
			"name":"obj_global_steampunk02",
			"pbrMetallicRoughness":{
				"baseColorTexture":{
					"index":1
				},
				"metallicFactor":0
			}
		}
	],
	"meshes":[
		{
			"name":"Cylinder.282",
			"primitives":[
				{
					"attributes":{
						"POSITION":0,
						"NORMAL":1,
						"TEXCOORD_0":2
					},
					"indices":3,
					"material":0
				}
			]
		},
		{
			"name":"Cylinder.283",
			"primitives":[
				{
					"attributes":{
						"POSITION":4,
						"NORMAL":5,
						"TEXCOORD_0":6
					},
					"indices":7
				}
			]
		}
	],
	"textures":[
		{
			"sampler":0,
			"source":0
		},
		{
			"sampler":0,
			"source":0
		}
	],
	"images":[
		{
			"mimeType":"image/png",
			"name":"obj_global_steampunk",
			"uri":"textures/obj_global_steampunk.png"
		}
	],
	"accessors":[
		{
			"bufferView":0,
			"componentType":5126,
			"count":764,
			"max":[
				0.5094854831695557,
				1.0012707710266113,
				0.5148530602455139
			],
			"min":[
				-0.4913046658039093,
				0.0023282617330551147,
				-0.48365360498428345
			],
			"type":"VEC3"
		},
		{
			"bufferView":1,
			"componentType":5126,
			"count":764,
			"type":"VEC3"
		},
		{
			"bufferView":2,
			"componentType":5126,
			"count":764,
			"type":"VEC2"
		},
		{
			"bufferView":3,
			"componentType":5123,
			"count":990,
			"type":"SCALAR"
		},
		{
			"bufferView":4,
			"componentType":5126,
			"count":30,
			"max":[
				0.5519490242004395,
				0.997624933719635,
				0.5249346494674683
			],
			"min":[
				-0.5519490242004395,
				-0.0008603016030974686,
				-0.524934709072113
			],
			"type":"VEC3"
		},
		{
			"bufferView":5,
			"componentType":5126,
			"count":30,
			"type":"VEC3"
		},
		{
			"bufferView":6,
			"componentType":5126,
			"count":30,
			"type":"VEC2"
		},
		{
			"bufferView":7,
			"componentType":5123,
			"count":48,
			"type":"SCALAR"
		}
	],
	"bufferViews":[
		{
			"buffer":0,
			"byteLength":9168,
			"byteOffset":0,
			"target":34962
		},
		{
			"buffer":0,
			"byteLength":9168,
			"byteOffset":9168,
			"target":34962
		},
		{
			"buffer":0,
			"byteLength":6112,
			"byteOffset":18336,
			"target":34962
		},
		{
			"buffer":0,
			"byteLength":1980,
			"byteOffset":24448,
			"target":34963
		},
		{
			"buffer":0,
			"byteLength":360,
			"byteOffset":26428,
			"target":34962
		},
		{
			"buffer":0,
			"byteLength":360,
			"byteOffset":26788,
			"target":34962
		},
		{
			"buffer":0,
			"byteLength":240,
			"byteOffset":27148,
			"target":34962
		},
		{
			"buffer":0,
			"byteLength":96,
			"byteOffset":27388,
			"target":34963
		}
	],
	"samplers":[
		{
			"magFilter":9729,
			"minFilter":9987
		}
	],
	"buffers":[
		{
			"byteLength":27484,
			"uri":"obj_chest03_medium.bin"
		}
	]
}
