{
	"asset":{
		"generator":"Khronos glTF Blender I/O v4.2.57",
		"version":"2.0"
	},
	"extensionsUsed":[
		"KHR_materials_transmission",
		"KHR_materials_specular"
	],
	"scene":0,
	"scenes":[
		{
			"name":"obj_num03_base",
			"nodes":[
				0,
				1
			]
		}
	],
	"nodes":[
		{
			"mesh":0,
			"name":"obj_num03_base"
		},
		{
			"mesh":1,
			"name":"obj_num03_base_collider"
		}
	],
	"materials":[
		{
			"doubleSided":true,
			"emissiveFactor":[
				0.05000000074505806,
				0.05000000074505806,
				0.05000000074505806
			],
			"emissiveTexture":{
				"index":0
			},
			"extensions":{
				"KHR_materials_specular":{
					"specularFactor":0
				}
			},
			"name":"obj_global_steampunk01",
			"pbrMetallicRoughness":{
				"baseColorTexture":{
					"index":1
				},
				"metallicFactor":0
			}
		},
		{
			"alphaMode":"BLEND",
			"doubleSided":true,
			"extensions":{
				"KHR_materials_transmission":{
					"transmissionFactor":0.7573529481887817
				}
			},
			"name":"obj_global_glass",
			"pbrMetallicRoughness":{
				"baseColorFactor":[
					1,
					1,
					1,
					0.12259356677532196
				],
				"baseColorTexture":{
					"index":2
				},
				"metallicFactor":0
			}
		}
	],
	"meshes":[
		{
			"name":"Cylinder.182",
			"primitives":[
				{
					"attributes":{
						"POSITION":0,
						"NORMAL":1,
						"TEXCOORD_0":2
					},
					"indices":3,
					"material":0
				},
				{
					"attributes":{
						"POSITION":4,
						"NORMAL":5,
						"TEXCOORD_0":6
					},
					"indices":7,
					"material":1
				}
			]
		},
		{
			"name":"Cylinder.183",
			"primitives":[
				{
					"attributes":{
						"POSITION":8,
						"NORMAL":9,
						"TEXCOORD_0":10
					},
					"indices":11
				}
			]
		}
	],
	"textures":[
		{
			"sampler":0,
			"source":0
		},
		{
			"sampler":0,
			"source":0
		},
		{
			"sampler":0,
			"source":0
		}
	],
	"images":[
		{
			"mimeType":"image/png",
			"name":"obj_global_steampunk",
			"uri":"textures/obj_global_steampunk.png"
		}
	],
	"accessors":[
		{
			"bufferView":0,
			"componentType":5126,
			"count":863,
			"max":[
				0.16528983414173126,
				0.6044957041740417,
				0.1640601009130478
			],
			"min":[
				-0.16303172707557678,
				-0.0042173173278570175,
				-0.16107304394245148
			],
			"type":"VEC3"
		},
		{
			"bufferView":1,
			"componentType":5126,
			"count":863,
			"type":"VEC3"
		},
		{
			"bufferView":2,
			"componentType":5126,
			"count":863,
			"type":"VEC2"
		},
		{
			"bufferView":3,
			"componentType":5123,
			"count":1161,
			"type":"SCALAR"
		},
		{
			"bufferView":4,
			"componentType":5126,
			"count":446,
			"max":[
				0.15280912816524506,
				0.6895841360092163,
				0.1539151817560196
			],
			"min":[
				-0.16245895624160767,
				0.07390526682138443,
				-0.15383948385715485
			],
			"type":"VEC3"
		},
		{
			"bufferView":5,
			"componentType":5126,
			"count":446,
			"type":"VEC3"
		},
		{
			"bufferView":6,
			"componentType":5126,
			"count":446,
			"type":"VEC2"
		},
		{
			"bufferView":7,
			"componentType":5123,
			"count":636,
			"type":"SCALAR"
		},
		{
			"bufferView":8,
			"componentType":5126,
			"count":30,
			"max":[
				0.18022005259990692,
				0.6958586573600769,
				0.1533043384552002
			],
			"min":[
				-0.18022003769874573,
				0,
				-0.1894945651292801
			],
			"type":"VEC3"
		},
		{
			"bufferView":9,
			"componentType":5126,
			"count":30,
			"type":"VEC3"
		},
		{
			"bufferView":10,
			"componentType":5126,
			"count":30,
			"type":"VEC2"
		},
		{
			"bufferView":11,
			"componentType":5123,
			"count":48,
			"type":"SCALAR"
		}
	],
	"bufferViews":[
		{
			"buffer":0,
			"byteLength":10356,
			"byteOffset":0,
			"target":34962
		},
		{
			"buffer":0,
			"byteLength":10356,
			"byteOffset":10356,
			"target":34962
		},
		{
			"buffer":0,
			"byteLength":6904,
			"byteOffset":20712,
			"target":34962
		},
		{
			"buffer":0,
			"byteLength":2322,
			"byteOffset":27616,
			"target":34963
		},
		{
			"buffer":0,
			"byteLength":5352,
			"byteOffset":29940,
			"target":34962
		},
		{
			"buffer":0,
			"byteLength":5352,
			"byteOffset":35292,
			"target":34962
		},
		{
			"buffer":0,
			"byteLength":3568,
			"byteOffset":40644,
			"target":34962
		},
		{
			"buffer":0,
			"byteLength":1272,
			"byteOffset":44212,
			"target":34963
		},
		{
			"buffer":0,
			"byteLength":360,
			"byteOffset":45484,
			"target":34962
		},
		{
			"buffer":0,
			"byteLength":360,
			"byteOffset":45844,
			"target":34962
		},
		{
			"buffer":0,
			"byteLength":240,
			"byteOffset":46204,
			"target":34962
		},
		{
			"buffer":0,
			"byteLength":96,
			"byteOffset":46444,
			"target":34963
		}
	],
	"samplers":[
		{
			"magFilter":9729,
			"minFilter":9987
		}
	],
	"buffers":[
		{
			"byteLength":46540,
			"uri":"obj_num03_base.bin"
		}
	]
}
