{
	"asset":{
		"generator":"Khronos glTF Blender I/O v4.2.57",
		"version":"2.0"
	},
	"extensionsUsed":[
		"KHR_materials_specular"
	],
	"scene":0,
	"scenes":[
		{
			"name":"obj_hydrant01_base",
			"nodes":[
				0,
				1
			]
		}
	],
	"nodes":[
		{
			"mesh":0,
			"name":"obj_hydrant01_base"
		},
		{
			"mesh":1,
			"name":"obj_hydrant01_base_collider"
		}
	],
	"materials":[
		{
			"doubleSided":true,
			"emissiveFactor":[
				0.05000000074505806,
				0.05000000074505806,
				0.05000000074505806
			],
			"emissiveTexture":{
				"index":0
			},
			"extensions":{
				"KHR_materials_specular":{
					"specularFactor":0
				}
			},
			"name":"obj_global_steampunk01",
			"pbrMetallicRoughness":{
				"baseColorTexture":{
					"index":1
				},
				"metallicFactor":0
			}
		}
	],
	"meshes":[
		{
			"name":"Cylinder.215",
			"primitives":[
				{
					"attributes":{
						"POSITION":0,
						"NORMAL":1,
						"TEXCOORD_0":2
					},
					"indices":3,
					"material":0
				}
			]
		},
		{
			"name":"Cylinder.216",
			"primitives":[
				{
					"attributes":{
						"POSITION":4,
						"NORMAL":5,
						"TEXCOORD_0":6
					},
					"indices":7
				}
			]
		}
	],
	"textures":[
		{
			"sampler":0,
			"source":0
		},
		{
			"sampler":0,
			"source":0
		}
	],
	"images":[
		{
			"mimeType":"image/png",
			"name":"obj_global_steampunk",
			"uri":"textures/obj_global_steampunk.png"
		}
	],
	"accessors":[
		{
			"bufferView":0,
			"componentType":5126,
			"count":804,
			"max":[
				0.3611243963241577,
				1.0919466018676758,
				0.3595941364765167
			],
			"min":[
				-0.35894134640693665,
				-0.0012423379812389612,
				-0.35949069261550903
			],
			"type":"VEC3"
		},
		{
			"bufferView":1,
			"componentType":5126,
			"count":804,
			"type":"VEC3"
		},
		{
			"bufferView":2,
			"componentType":5126,
			"count":804,
			"type":"VEC2"
		},
		{
			"bufferView":3,
			"componentType":5123,
			"count":1110,
			"type":"SCALAR"
		},
		{
			"bufferView":4,
			"componentType":5126,
			"count":60,
			"max":[
				0.3844701051712036,
				1.1782337427139282,
				0.39999818801879883
			],
			"min":[
				-0.3844701051712036,
				-0.0012422717409208417,
				-0.39999818801879883
			],
			"type":"VEC3"
		},
		{
			"bufferView":5,
			"componentType":5126,
			"count":60,
			"type":"VEC3"
		},
		{
			"bufferView":6,
			"componentType":5126,
			"count":60,
			"type":"VEC2"
		},
		{
			"bufferView":7,
			"componentType":5123,
			"count":96,
			"type":"SCALAR"
		}
	],
	"bufferViews":[
		{
			"buffer":0,
			"byteLength":9648,
			"byteOffset":0,
			"target":34962
		},
		{
			"buffer":0,
			"byteLength":9648,
			"byteOffset":9648,
			"target":34962
		},
		{
			"buffer":0,
			"byteLength":6432,
			"byteOffset":19296,
			"target":34962
		},
		{
			"buffer":0,
			"byteLength":2220,
			"byteOffset":25728,
			"target":34963
		},
		{
			"buffer":0,
			"byteLength":720,
			"byteOffset":27948,
			"target":34962
		},
		{
			"buffer":0,
			"byteLength":720,
			"byteOffset":28668,
			"target":34962
		},
		{
			"buffer":0,
			"byteLength":480,
			"byteOffset":29388,
			"target":34962
		},
		{
			"buffer":0,
			"byteLength":192,
			"byteOffset":29868,
			"target":34963
		}
	],
	"samplers":[
		{
			"magFilter":9729,
			"minFilter":9987
		}
	],
	"buffers":[
		{
			"byteLength":30060,
			"uri":"obj_hydrant01_base.bin"
		}
	]
}
