{
	"asset":{
		"generator":"Khronos glTF Blender I/O v4.2.57",
		"version":"2.0"
	},
	"extensionsUsed":[
		"KHR_materials_specular"
	],
	"scene":0,
	"scenes":[
		{
			"name":"Scene",
			"nodes":[
				0,
				1
			]
		}
	],
	"nodes":[
		{
			"mesh":0,
			"name":"obj_clock_base"
		},
		{
			"mesh":1,
			"name":"obj_clock_base_collider"
		}
	],
	"materials":[
		{
			"doubleSided":true,
			"emissiveFactor":[
				0.05000000074505806,
				0.05000000074505806,
				0.05000000074505806
			],
			"emissiveTexture":{
				"index":0
			},
			"extensions":{
				"KHR_materials_specular":{
					"specularFactor":0
				}
			},
			"name":"obj_global_steampunk01",
			"pbrMetallicRoughness":{
				"baseColorTexture":{
					"index":1
				},
				"metallicFactor":0
			}
		}
	],
	"meshes":[
		{
			"name":"Cylinder.008",
			"primitives":[
				{
					"attributes":{
						"POSITION":0,
						"NORMAL":1,
						"TEXCOORD_0":2
					},
					"indices":3,
					"material":0
				}
			]
		},
		{
			"name":"Cylinder.023",
			"primitives":[
				{
					"attributes":{
						"POSITION":4,
						"NORMAL":5,
						"TEXCOORD_0":6
					},
					"indices":3
				}
			]
		}
	],
	"textures":[
		{
			"sampler":0,
			"source":0
		},
		{
			"sampler":0,
			"source":0
		}
	],
	"images":[
		{
			"mimeType":"image/png",
			"name":"obj_global_steampunk",
			"uri":"textures/obj_global_steampunk.png"
		}
	],
	"accessors":[
		{
			"bufferView":0,
			"componentType":5126,
			"count":753,
			"max":[
				1.7292677164077759,
				1.7407435178756714,
				0.40149760246276855
			],
			"min":[
				-1.7012513875961304,
				-1.8477275371551514,
				-0.45566725730895996
			],
			"type":"VEC3"
		},
		{
			"bufferView":1,
			"componentType":5126,
			"count":753,
			"type":"VEC3"
		},
		{
			"bufferView":2,
			"componentType":5126,
			"count":753,
			"type":"VEC2"
		},
		{
			"bufferView":3,
			"componentType":5123,
			"count":1089,
			"type":"SCALAR"
		},
		{
			"bufferView":4,
			"componentType":5126,
			"count":753,
			"max":[
				1.7292677164077759,
				1.7407435178756714,
				0.40149760246276855
			],
			"min":[
				-1.7012513875961304,
				-1.8477275371551514,
				-0.45566725730895996
			],
			"type":"VEC3"
		},
		{
			"bufferView":5,
			"componentType":5126,
			"count":753,
			"type":"VEC3"
		},
		{
			"bufferView":6,
			"componentType":5126,
			"count":753,
			"type":"VEC2"
		}
	],
	"bufferViews":[
		{
			"buffer":0,
			"byteLength":9036,
			"byteOffset":0,
			"target":34962
		},
		{
			"buffer":0,
			"byteLength":9036,
			"byteOffset":9036,
			"target":34962
		},
		{
			"buffer":0,
			"byteLength":6024,
			"byteOffset":18072,
			"target":34962
		},
		{
			"buffer":0,
			"byteLength":2178,
			"byteOffset":24096,
			"target":34963
		},
		{
			"buffer":0,
			"byteLength":9036,
			"byteOffset":26276,
			"target":34962
		},
		{
			"buffer":0,
			"byteLength":9036,
			"byteOffset":35312,
			"target":34962
		},
		{
			"buffer":0,
			"byteLength":6024,
			"byteOffset":44348,
			"target":34962
		}
	],
	"samplers":[
		{
			"magFilter":9729,
			"minFilter":9987
		}
	],
	"buffers":[
		{
			"byteLength":50372,
			"uri":"obj_clock_base.bin"
		}
	]
}
