{
	"asset":{
		"generator":"Khronos glTF Blender I/O v4.2.57",
		"version":"2.0"
	},
	"extensionsUsed":[
		"KHR_materials_specular"
	],
	"scene":0,
	"scenes":[
		{
			"name":"Scene",
			"nodes":[
				0,
				1
			]
		}
	],
	"nodes":[
		{
			"mesh":0,
			"name":"obj_exterior_base_collider"
		},
		{
			"mesh":1,
			"name":"obj_exterior_base"
		}
	],
	"materials":[
		{
			"doubleSided":true,
			"emissiveFactor":[
				0.05000000074505806,
				0.05000000074505806,
				0.05000000074505806
			],
			"emissiveTexture":{
				"index":0
			},
			"extensions":{
				"KHR_materials_specular":{
					"specularFactor":0
				}
			},
			"name":"obj_global_steampunk01",
			"pbrMetallicRoughness":{
				"baseColorTexture":{
					"index":1
				},
				"metallicFactor":0
			}
		}
	],
	"meshes":[
		{
			"name":"Cylinder.050",
			"primitives":[
				{
					"attributes":{
						"POSITION":0,
						"NORMAL":1,
						"TEXCOORD_0":2
					},
					"indices":3
				}
			]
		},
		{
			"name":"Cylinder.057",
			"primitives":[
				{
					"attributes":{
						"POSITION":4,
						"NORMAL":5,
						"TEXCOORD_0":6
					},
					"indices":7,
					"material":0
				}
			]
		}
	],
	"textures":[
		{
			"sampler":0,
			"source":0
		},
		{
			"sampler":0,
			"source":0
		}
	],
	"images":[
		{
			"mimeType":"image/png",
			"name":"obj_global_steampunk",
			"uri":"textures/obj_global_steampunk.png"
		}
	],
	"accessors":[
		{
			"bufferView":0,
			"componentType":5126,
			"count":17726,
			"max":[
				7.9902825355529785,
				9.660547256469727,
				7.911832332611084
			],
			"min":[
				-7.9902825355529785,
				-0.04576066881418228,
				-7.992584228515625
			],
			"type":"VEC3"
		},
		{
			"bufferView":1,
			"componentType":5126,
			"count":17726,
			"type":"VEC3"
		},
		{
			"bufferView":2,
			"componentType":5126,
			"count":17726,
			"type":"VEC2"
		},
		{
			"bufferView":3,
			"componentType":5123,
			"count":27165,
			"type":"SCALAR"
		},
		{
			"bufferView":4,
			"componentType":5126,
			"count":80570,
			"max":[
				7.941812515258789,
				9.660547256469727,
				7.911832332611084
			],
			"min":[
				-7.941812515258789,
				-0.04576066881418228,
				-7.8988165855407715
			],
			"type":"VEC3"
		},
		{
			"bufferView":5,
			"componentType":5126,
			"count":80570,
			"type":"VEC3"
		},
		{
			"bufferView":6,
			"componentType":5126,
			"count":80570,
			"type":"VEC2"
		},
		{
			"bufferView":7,
			"componentType":5125,
			"count":105123,
			"type":"SCALAR"
		}
	],
	"bufferViews":[
		{
			"buffer":0,
			"byteLength":212712,
			"byteOffset":0,
			"target":34962
		},
		{
			"buffer":0,
			"byteLength":212712,
			"byteOffset":212712,
			"target":34962
		},
		{
			"buffer":0,
			"byteLength":141808,
			"byteOffset":425424,
			"target":34962
		},
		{
			"buffer":0,
			"byteLength":54330,
			"byteOffset":567232,
			"target":34963
		},
		{
			"buffer":0,
			"byteLength":966840,
			"byteOffset":621564,
			"target":34962
		},
		{
			"buffer":0,
			"byteLength":966840,
			"byteOffset":1588404,
			"target":34962
		},
		{
			"buffer":0,
			"byteLength":644560,
			"byteOffset":2555244,
			"target":34962
		},
		{
			"buffer":0,
			"byteLength":420492,
			"byteOffset":3199804,
			"target":34963
		}
	],
	"samplers":[
		{
			"magFilter":9729,
			"minFilter":9987
		}
	],
	"buffers":[
		{
			"byteLength":3620296,
			"uri":"obj_exterior_base.bin"
		}
	]
}
