{
	"asset":{
		"generator":"Khronos glTF Blender I/O v4.2.57",
		"version":"2.0"
	},
	"extensionsUsed":[
		"KHR_materials_specular",
		"KHR_materials_ior"
	],
	"scene":0,
	"scenes":[
		{
			"name":"obj_lever02_alt",
			"nodes":[
				0,
				1
			]
		}
	],
	"nodes":[
		{
			"mesh":0,
			"name":"obj_lever02_alt"
		},
		{
			"mesh":1,
			"name":"obj_lever02_alt_collider"
		}
	],
	"materials":[
		{
			"doubleSided":true,
			"emissiveFactor":[
				0.10000000149011612,
				0.10000000149011612,
				0.10000000149011612
			],
			"emissiveTexture":{
				"index":0
			},
			"extensions":{
				"KHR_materials_specular":{
					"specularFactor":0
				},
				"KHR_materials_ior":{
					"ior":1.4500000476837158
				}
			},
			"name":"obj_lever02_alt",
			"pbrMetallicRoughness":{
				"baseColorTexture":{
					"index":1
				},
				"metallicFactor":0
			}
		}
	],
	"meshes":[
		{
			"name":"Mesh.028",
			"primitives":[
				{
					"attributes":{
						"POSITION":0,
						"NORMAL":1,
						"TEXCOORD_0":2
					},
					"indices":3,
					"material":0
				}
			]
		},
		{
			"name":"Mesh.029",
			"primitives":[
				{
					"attributes":{
						"POSITION":4,
						"NORMAL":5,
						"TEXCOORD_0":6
					},
					"indices":7
				}
			]
		}
	],
	"textures":[
		{
			"sampler":0,
			"source":0
		},
		{
			"sampler":0,
			"source":0
		}
	],
	"images":[
		{
			"mimeType":"image/jpeg",
			"name":"obj_lever02_alt",
			"uri":"textures/obj_lever02_alt.jpg"
		}
	],
	"accessors":[
		{
			"bufferView":0,
			"componentType":5126,
			"count":490,
			"max":[
				0.13757598400115967,
				0.4890504479408264,
				0.21881745755672455
			],
			"min":[
				-0.13757598400115967,
				-0.0010242394637316465,
				-0.21881750226020813
			],
			"type":"VEC3"
		},
		{
			"bufferView":1,
			"componentType":5126,
			"count":490,
			"type":"VEC3"
		},
		{
			"bufferView":2,
			"componentType":5126,
			"count":490,
			"type":"VEC2"
		},
		{
			"bufferView":3,
			"componentType":5123,
			"count":894,
			"type":"SCALAR"
		},
		{
			"bufferView":4,
			"componentType":5126,
			"count":24,
			"max":[
				0.13743677735328674,
				0.48552095890045166,
				0.22004668414592743
			],
			"min":[
				-0.13743677735328674,
				-5.2524860905123205e-08,
				-0.22004668414592743
			],
			"type":"VEC3"
		},
		{
			"bufferView":5,
			"componentType":5126,
			"count":24,
			"type":"VEC3"
		},
		{
			"bufferView":6,
			"componentType":5126,
			"count":24,
			"type":"VEC2"
		},
		{
			"bufferView":7,
			"componentType":5123,
			"count":36,
			"type":"SCALAR"
		}
	],
	"bufferViews":[
		{
			"buffer":0,
			"byteLength":5880,
			"byteOffset":0,
			"target":34962
		},
		{
			"buffer":0,
			"byteLength":5880,
			"byteOffset":5880,
			"target":34962
		},
		{
			"buffer":0,
			"byteLength":3920,
			"byteOffset":11760,
			"target":34962
		},
		{
			"buffer":0,
			"byteLength":1788,
			"byteOffset":15680,
			"target":34963
		},
		{
			"buffer":0,
			"byteLength":288,
			"byteOffset":17468,
			"target":34962
		},
		{
			"buffer":0,
			"byteLength":288,
			"byteOffset":17756,
			"target":34962
		},
		{
			"buffer":0,
			"byteLength":192,
			"byteOffset":18044,
			"target":34962
		},
		{
			"buffer":0,
			"byteLength":72,
			"byteOffset":18236,
			"target":34963
		}
	],
	"samplers":[
		{
			"magFilter":9729,
			"minFilter":9987
		}
	],
	"buffers":[
		{
			"byteLength":18308,
			"uri":"obj_lever02_alt.bin"
		}
	]
}
