{
	"asset":{
		"generator":"Khronos glTF Blender I/O v4.2.57",
		"version":"2.0"
	},
	"extensionsUsed":[
		"KHR_materials_specular",
		"KHR_materials_ior"
	],
	"scene":0,
	"scenes":[
		{
			"name":"obj_gear08_base",
			"nodes":[
				0,
				1
			]
		}
	],
	"nodes":[
		{
			"mesh":0,
			"name":"obj_gear08_base"
		},
		{
			"mesh":1,
			"name":"obj_gear08_base_collider"
		}
	],
	"materials":[
		{
			"doubleSided":true,
			"emissiveFactor":[
				0.10000000149011612,
				0.10000000149011612,
				0.10000000149011612
			],
			"emissiveTexture":{
				"index":0
			},
			"extensions":{
				"KHR_materials_specular":{
					"specularFactor":0
				},
				"KHR_materials_ior":{
					"ior":1.4500000476837158
				}
			},
			"name":"obj_gear08_base",
			"pbrMetallicRoughness":{
				"baseColorTexture":{
					"index":1
				},
				"metallicFactor":0
			}
		}
	],
	"meshes":[
		{
			"name":"Mesh.082",
			"primitives":[
				{
					"attributes":{
						"POSITION":0,
						"NORMAL":1,
						"TEXCOORD_0":2
					},
					"indices":3,
					"material":0
				}
			]
		},
		{
			"name":"Mesh.083",
			"primitives":[
				{
					"attributes":{
						"POSITION":4,
						"NORMAL":5,
						"TEXCOORD_0":6
					},
					"indices":7
				}
			]
		}
	],
	"textures":[
		{
			"sampler":0,
			"source":0
		},
		{
			"sampler":0,
			"source":0
		}
	],
	"images":[
		{
			"mimeType":"image/jpeg",
			"name":"obj_gear08_base",
			"uri":"textures/obj_gear08_base.jpg"
		}
	],
	"accessors":[
		{
			"bufferView":0,
			"componentType":5126,
			"count":588,
			"max":[
				0.16176453232765198,
				0.14386165142059326,
				0.17444677650928497
			],
			"min":[
				-0.16164997220039368,
				-0.00017271008982788771,
				-0.1740221232175827
			],
			"type":"VEC3"
		},
		{
			"bufferView":1,
			"componentType":5126,
			"count":588,
			"type":"VEC3"
		},
		{
			"bufferView":2,
			"componentType":5126,
			"count":588,
			"type":"VEC2"
		},
		{
			"bufferView":3,
			"componentType":5123,
			"count":1260,
			"type":"SCALAR"
		},
		{
			"bufferView":4,
			"componentType":5126,
			"count":60,
			"max":[
				0.2013920396566391,
				0.1428794264793396,
				0.1744106262922287
			],
			"min":[
				-0.20139199495315552,
				-0.00018691086734179407,
				-0.1744106262922287
			],
			"type":"VEC3"
		},
		{
			"bufferView":5,
			"componentType":5126,
			"count":60,
			"type":"VEC3"
		},
		{
			"bufferView":6,
			"componentType":5126,
			"count":60,
			"type":"VEC2"
		},
		{
			"bufferView":7,
			"componentType":5123,
			"count":96,
			"type":"SCALAR"
		}
	],
	"bufferViews":[
		{
			"buffer":0,
			"byteLength":7056,
			"byteOffset":0,
			"target":34962
		},
		{
			"buffer":0,
			"byteLength":7056,
			"byteOffset":7056,
			"target":34962
		},
		{
			"buffer":0,
			"byteLength":4704,
			"byteOffset":14112,
			"target":34962
		},
		{
			"buffer":0,
			"byteLength":2520,
			"byteOffset":18816,
			"target":34963
		},
		{
			"buffer":0,
			"byteLength":720,
			"byteOffset":21336,
			"target":34962
		},
		{
			"buffer":0,
			"byteLength":720,
			"byteOffset":22056,
			"target":34962
		},
		{
			"buffer":0,
			"byteLength":480,
			"byteOffset":22776,
			"target":34962
		},
		{
			"buffer":0,
			"byteLength":192,
			"byteOffset":23256,
			"target":34963
		}
	],
	"samplers":[
		{
			"magFilter":9729,
			"minFilter":9987
		}
	],
	"buffers":[
		{
			"byteLength":23448,
			"uri":"obj_gear08_base.bin"
		}
	]
}
