{
	"asset":{
		"generator":"Khronos glTF Blender I/O v4.2.57",
		"version":"2.0"
	},
	"extensionsUsed":[
		"KHR_materials_specular"
	],
	"scene":0,
	"scenes":[
		{
			"name":"obj_gun01_alt",
			"nodes":[
				0,
				1
			]
		}
	],
	"nodes":[
		{
			"mesh":0,
			"name":"obj_gun01_alt"
		},
		{
			"mesh":1,
			"name":"obj_gun01_alt_collider"
		}
	],
	"materials":[
		{
			"doubleSided":true,
			"emissiveFactor":[
				0.05000000074505806,
				0.05000000074505806,
				0.05000000074505806
			],
			"emissiveTexture":{
				"index":0
			},
			"extensions":{
				"KHR_materials_specular":{
					"specularFactor":0
				}
			},
			"name":"obj_global_steampunk02",
			"pbrMetallicRoughness":{
				"baseColorTexture":{
					"index":1
				},
				"metallicFactor":0
			}
		}
	],
	"meshes":[
		{
			"name":"Cube.067",
			"primitives":[
				{
					"attributes":{
						"POSITION":0,
						"NORMAL":1,
						"TEXCOORD_0":2
					},
					"indices":3,
					"material":0
				}
			]
		},
		{
			"name":"Cube.068",
			"primitives":[
				{
					"attributes":{
						"POSITION":4,
						"NORMAL":5,
						"TEXCOORD_0":6
					},
					"indices":7
				}
			]
		}
	],
	"textures":[
		{
			"sampler":0,
			"source":0
		},
		{
			"sampler":0,
			"source":0
		}
	],
	"images":[
		{
			"mimeType":"image/png",
			"name":"obj_global_steampunk02",
			"uri":"textures/obj_global_steampunk02.png"
		}
	],
	"accessors":[
		{
			"bufferView":0,
			"componentType":5126,
			"count":2040,
			"max":[
				0.34046033024787903,
				0.03757772222161293,
				0.1315878927707672
			],
			"min":[
				0.00010116180055774748,
				-0.0018823269056156278,
				6.71405578032136e-05
			],
			"type":"VEC3"
		},
		{
			"bufferView":1,
			"componentType":5126,
			"count":2040,
			"type":"VEC3"
		},
		{
			"bufferView":2,
			"componentType":5126,
			"count":2040,
			"type":"VEC2"
		},
		{
			"bufferView":3,
			"componentType":5123,
			"count":2901,
			"type":"SCALAR"
		},
		{
			"bufferView":4,
			"componentType":5126,
			"count":24,
			"max":[
				0.34332478046417236,
				0.041023898869752884,
				0.0978476032614708
			],
			"min":[
				-1.4713350537931547e-05,
				5.4833384638186544e-05,
				0.0001212298302561976
			],
			"type":"VEC3"
		},
		{
			"bufferView":5,
			"componentType":5126,
			"count":24,
			"type":"VEC3"
		},
		{
			"bufferView":6,
			"componentType":5126,
			"count":24,
			"type":"VEC2"
		},
		{
			"bufferView":7,
			"componentType":5123,
			"count":36,
			"type":"SCALAR"
		}
	],
	"bufferViews":[
		{
			"buffer":0,
			"byteLength":24480,
			"byteOffset":0,
			"target":34962
		},
		{
			"buffer":0,
			"byteLength":24480,
			"byteOffset":24480,
			"target":34962
		},
		{
			"buffer":0,
			"byteLength":16320,
			"byteOffset":48960,
			"target":34962
		},
		{
			"buffer":0,
			"byteLength":5802,
			"byteOffset":65280,
			"target":34963
		},
		{
			"buffer":0,
			"byteLength":288,
			"byteOffset":71084,
			"target":34962
		},
		{
			"buffer":0,
			"byteLength":288,
			"byteOffset":71372,
			"target":34962
		},
		{
			"buffer":0,
			"byteLength":192,
			"byteOffset":71660,
			"target":34962
		},
		{
			"buffer":0,
			"byteLength":72,
			"byteOffset":71852,
			"target":34963
		}
	],
	"samplers":[
		{
			"magFilter":9729,
			"minFilter":9987
		}
	],
	"buffers":[
		{
			"byteLength":71924,
			"uri":"obj_gun01_alt.bin"
		}
	]
}
