{
	"asset":{
		"generator":"Khronos glTF Blender I/O v4.2.57",
		"version":"2.0"
	},
	"extensionsUsed":[
		"KHR_materials_specular"
	],
	"scene":0,
	"scenes":[
		{
			"name":"obj_gun01_alt",
			"nodes":[
				0,
				1
			]
		}
	],
	"nodes":[
		{
			"mesh":0,
			"name":"obj_gun01_alt"
		},
		{
			"mesh":1,
			"name":"obj_gun01_alt_collider"
		}
	],
	"materials":[
		{
			"doubleSided":true,
			"emissiveFactor":[
				0.05000000074505806,
				0.05000000074505806,
				0.05000000074505806
			],
			"emissiveTexture":{
				"index":0
			},
			"extensions":{
				"KHR_materials_specular":{
					"specularFactor":0
				}
			},
			"name":"obj_global_steampunk02",
			"pbrMetallicRoughness":{
				"baseColorTexture":{
					"index":1
				},
				"metallicFactor":0
			}
		}
	],
	"meshes":[
		{
			"name":"Cube.014",
			"primitives":[
				{
					"attributes":{
						"POSITION":0,
						"NORMAL":1,
						"TEXCOORD_0":2
					},
					"indices":3,
					"material":0
				}
			]
		},
		{
			"name":"Cube.016",
			"primitives":[
				{
					"attributes":{
						"POSITION":4,
						"NORMAL":5,
						"TEXCOORD_0":6
					},
					"indices":7
				}
			]
		}
	],
	"textures":[
		{
			"sampler":0,
			"source":0
		},
		{
			"sampler":0,
			"source":0
		}
	],
	"images":[
		{
			"mimeType":"image/png",
			"name":"obj_global_steampunk02",
			"uri":"textures/obj_global_steampunk02.png"
		}
	],
	"accessors":[
		{
			"bufferView":0,
			"componentType":5126,
			"count":2044,
			"max":[
				0.6328917741775513,
				0.06985433399677277,
				0.24461260437965393
			],
			"min":[
				0.00018805265426635742,
				-0.0034991130232810974,
				0.00012480956502258778
			],
			"type":"VEC3"
		},
		{
			"bufferView":1,
			"componentType":5126,
			"count":2044,
			"type":"VEC3"
		},
		{
			"bufferView":2,
			"componentType":5126,
			"count":2044,
			"type":"VEC2"
		},
		{
			"bufferView":3,
			"componentType":5123,
			"count":2901,
			"type":"SCALAR"
		},
		{
			"bufferView":4,
			"componentType":5126,
			"count":24,
			"max":[
				0.6382165551185608,
				0.0762605369091034,
				0.1818917989730835
			],
			"min":[
				-2.7351081371307373e-05,
				0.00010193139314651489,
				0.00022535771131515503
			],
			"type":"VEC3"
		},
		{
			"bufferView":5,
			"componentType":5126,
			"count":24,
			"type":"VEC3"
		},
		{
			"bufferView":6,
			"componentType":5126,
			"count":24,
			"type":"VEC2"
		},
		{
			"bufferView":7,
			"componentType":5123,
			"count":36,
			"type":"SCALAR"
		}
	],
	"bufferViews":[
		{
			"buffer":0,
			"byteLength":24528,
			"byteOffset":0,
			"target":34962
		},
		{
			"buffer":0,
			"byteLength":24528,
			"byteOffset":24528,
			"target":34962
		},
		{
			"buffer":0,
			"byteLength":16352,
			"byteOffset":49056,
			"target":34962
		},
		{
			"buffer":0,
			"byteLength":5802,
			"byteOffset":65408,
			"target":34963
		},
		{
			"buffer":0,
			"byteLength":288,
			"byteOffset":71212,
			"target":34962
		},
		{
			"buffer":0,
			"byteLength":288,
			"byteOffset":71500,
			"target":34962
		},
		{
			"buffer":0,
			"byteLength":192,
			"byteOffset":71788,
			"target":34962
		},
		{
			"buffer":0,
			"byteLength":72,
			"byteOffset":71980,
			"target":34963
		}
	],
	"samplers":[
		{
			"magFilter":9729,
			"minFilter":9987
		}
	],
	"buffers":[
		{
			"byteLength":72052,
			"uri":"obj_gun01_alt.bin"
		}
	]
}
