{
	"asset":{
		"generator":"Khronos glTF Blender I/O v4.2.57",
		"version":"2.0"
	},
	"extensionsUsed":[
		"KHR_materials_specular"
	],
	"scene":0,
	"scenes":[
		{
			"name":"obj_vase01_base",
			"nodes":[
				0,
				1
			]
		}
	],
	"nodes":[
		{
			"mesh":0,
			"name":"obj_vase01_base"
		},
		{
			"mesh":1,
			"name":"obj_vase01_base_collider"
		}
	],
	"materials":[
		{
			"doubleSided":true,
			"emissiveFactor":[
				0.05000000074505806,
				0.05000000074505806,
				0.05000000074505806
			],
			"emissiveTexture":{
				"index":0
			},
			"extensions":{
				"KHR_materials_specular":{
					"specularFactor":0
				}
			},
			"name":"obj_global_steampunk01",
			"pbrMetallicRoughness":{
				"baseColorTexture":{
					"index":1
				},
				"metallicFactor":0
			}
		}
	],
	"meshes":[
		{
			"name":"Cone.006",
			"primitives":[
				{
					"attributes":{
						"POSITION":0,
						"NORMAL":1,
						"TEXCOORD_0":2
					},
					"indices":3,
					"material":0
				}
			]
		},
		{
			"name":"Cylinder.212",
			"primitives":[
				{
					"attributes":{
						"POSITION":4,
						"NORMAL":5,
						"TEXCOORD_0":6
					},
					"indices":7
				}
			]
		}
	],
	"textures":[
		{
			"sampler":0,
			"source":0
		},
		{
			"sampler":0,
			"source":0
		}
	],
	"images":[
		{
			"mimeType":"image/png",
			"name":"obj_global_steampunk",
			"uri":"textures/obj_global_steampunk.png"
		}
	],
	"accessors":[
		{
			"bufferView":0,
			"componentType":5126,
			"count":953,
			"max":[
				0.1880502998828888,
				0.5289070010185242,
				0.1980471909046173
			],
			"min":[
				-0.18732807040214539,
				-0.0020741319749504328,
				-0.19654244184494019
			],
			"type":"VEC3"
		},
		{
			"bufferView":1,
			"componentType":5126,
			"count":953,
			"type":"VEC3"
		},
		{
			"bufferView":2,
			"componentType":5126,
			"count":953,
			"type":"VEC2"
		},
		{
			"bufferView":3,
			"componentType":5123,
			"count":1230,
			"type":"SCALAR"
		},
		{
			"bufferView":4,
			"componentType":5126,
			"count":100,
			"max":[
				0.19041043519973755,
				0.5279754400253296,
				0.20020939409732819
			],
			"min":[
				-0.19041043519973755,
				0,
				-0.2002093642950058
			],
			"type":"VEC3"
		},
		{
			"bufferView":5,
			"componentType":5126,
			"count":100,
			"type":"VEC3"
		},
		{
			"bufferView":6,
			"componentType":5126,
			"count":100,
			"type":"VEC2"
		},
		{
			"bufferView":7,
			"componentType":5123,
			"count":168,
			"type":"SCALAR"
		}
	],
	"bufferViews":[
		{
			"buffer":0,
			"byteLength":11436,
			"byteOffset":0,
			"target":34962
		},
		{
			"buffer":0,
			"byteLength":11436,
			"byteOffset":11436,
			"target":34962
		},
		{
			"buffer":0,
			"byteLength":7624,
			"byteOffset":22872,
			"target":34962
		},
		{
			"buffer":0,
			"byteLength":2460,
			"byteOffset":30496,
			"target":34963
		},
		{
			"buffer":0,
			"byteLength":1200,
			"byteOffset":32956,
			"target":34962
		},
		{
			"buffer":0,
			"byteLength":1200,
			"byteOffset":34156,
			"target":34962
		},
		{
			"buffer":0,
			"byteLength":800,
			"byteOffset":35356,
			"target":34962
		},
		{
			"buffer":0,
			"byteLength":336,
			"byteOffset":36156,
			"target":34963
		}
	],
	"samplers":[
		{
			"magFilter":9729,
			"minFilter":9987
		}
	],
	"buffers":[
		{
			"byteLength":36492,
			"uri":"obj_vase01_base.bin"
		}
	]
}
