{
	"asset":{
		"generator":"Khronos glTF Blender I/O v4.2.57",
		"version":"2.0"
	},
	"extensionsUsed":[
		"KHR_materials_specular"
	],
	"scene":0,
	"scenes":[
		{
			"name":"obj_bush01_base",
			"nodes":[
				0,
				1
			]
		}
	],
	"nodes":[
		{
			"mesh":0,
			"name":"obj_bush01_base"
		},
		{
			"mesh":1,
			"name":"obj_bush01_base_collider"
		}
	],
	"materials":[
		{
			"doubleSided":true,
			"emissiveFactor":[
				0.05000000074505806,
				0.05000000074505806,
				0.05000000074505806
			],
			"emissiveTexture":{
				"index":0
			},
			"extensions":{
				"KHR_materials_specular":{
					"specularFactor":0
				}
			},
			"name":"obj_global_steampunk01",
			"pbrMetallicRoughness":{
				"baseColorTexture":{
					"index":1
				},
				"metallicFactor":0
			}
		}
	],
	"meshes":[
		{
			"name":"Cone.007",
			"primitives":[
				{
					"attributes":{
						"POSITION":0,
						"NORMAL":1,
						"TEXCOORD_0":2
					},
					"indices":3,
					"material":0
				}
			]
		},
		{
			"name":"Cube.074",
			"primitives":[
				{
					"attributes":{
						"POSITION":4,
						"NORMAL":5,
						"TEXCOORD_0":6
					},
					"indices":7
				}
			]
		}
	],
	"textures":[
		{
			"sampler":0,
			"source":0
		},
		{
			"sampler":0,
			"source":0
		}
	],
	"images":[
		{
			"mimeType":"image/png",
			"name":"obj_global_steampunk",
			"uri":"textures/obj_global_steampunk.png"
		}
	],
	"accessors":[
		{
			"bufferView":0,
			"componentType":5126,
			"count":776,
			"max":[
				0.4933025538921356,
				0.712211549282074,
				0.5200172662734985
			],
			"min":[
				-0.48548322916030884,
				-0.025799373164772987,
				-0.5077270269393921
			],
			"type":"VEC3"
		},
		{
			"bufferView":1,
			"componentType":5126,
			"count":776,
			"type":"VEC3"
		},
		{
			"bufferView":2,
			"componentType":5126,
			"count":776,
			"type":"VEC2"
		},
		{
			"bufferView":3,
			"componentType":5123,
			"count":912,
			"type":"SCALAR"
		},
		{
			"bufferView":4,
			"componentType":5126,
			"count":40,
			"max":[
				0.4683905839920044,
				0.686236560344696,
				0.4683905839920044
			],
			"min":[
				-0.4683905839920044,
				0,
				-0.4683905839920044
			],
			"type":"VEC3"
		},
		{
			"bufferView":5,
			"componentType":5126,
			"count":40,
			"type":"VEC3"
		},
		{
			"bufferView":6,
			"componentType":5126,
			"count":40,
			"type":"VEC2"
		},
		{
			"bufferView":7,
			"componentType":5123,
			"count":60,
			"type":"SCALAR"
		}
	],
	"bufferViews":[
		{
			"buffer":0,
			"byteLength":9312,
			"byteOffset":0,
			"target":34962
		},
		{
			"buffer":0,
			"byteLength":9312,
			"byteOffset":9312,
			"target":34962
		},
		{
			"buffer":0,
			"byteLength":6208,
			"byteOffset":18624,
			"target":34962
		},
		{
			"buffer":0,
			"byteLength":1824,
			"byteOffset":24832,
			"target":34963
		},
		{
			"buffer":0,
			"byteLength":480,
			"byteOffset":26656,
			"target":34962
		},
		{
			"buffer":0,
			"byteLength":480,
			"byteOffset":27136,
			"target":34962
		},
		{
			"buffer":0,
			"byteLength":320,
			"byteOffset":27616,
			"target":34962
		},
		{
			"buffer":0,
			"byteLength":120,
			"byteOffset":27936,
			"target":34963
		}
	],
	"samplers":[
		{
			"magFilter":9729,
			"minFilter":9987
		}
	],
	"buffers":[
		{
			"byteLength":28056,
			"uri":"obj_bush01_base.bin"
		}
	]
}
