{
	"asset":{
		"generator":"Khronos glTF Blender I/O v4.2.57",
		"version":"2.0"
	},
	"extensionsUsed":[
		"KHR_materials_specular",
		"KHR_materials_ior"
	],
	"scene":0,
	"scenes":[
		{
			"name":"obj_bush02_base",
			"nodes":[
				0,
				1
			]
		}
	],
	"nodes":[
		{
			"mesh":0,
			"name":"obj_bush02_base"
		},
		{
			"mesh":1,
			"name":"obj_bush02_base_collider"
		}
	],
	"materials":[
		{
			"doubleSided":true,
			"emissiveFactor":[
				0.10000000149011612,
				0.10000000149011612,
				0.10000000149011612
			],
			"emissiveTexture":{
				"index":0
			},
			"extensions":{
				"KHR_materials_specular":{
					"specularFactor":0
				},
				"KHR_materials_ior":{
					"ior":1.4500000476837158
				}
			},
			"name":"obj_bush02_base",
			"pbrMetallicRoughness":{
				"baseColorTexture":{
					"index":1
				},
				"metallicFactor":0
			}
		}
	],
	"meshes":[
		{
			"name":"Mesh.002",
			"primitives":[
				{
					"attributes":{
						"POSITION":0,
						"NORMAL":1,
						"TEXCOORD_0":2
					},
					"indices":3,
					"material":0
				}
			]
		},
		{
			"name":"Mesh.003",
			"primitives":[
				{
					"attributes":{
						"POSITION":4,
						"NORMAL":5,
						"TEXCOORD_0":6
					},
					"indices":7
				}
			]
		}
	],
	"textures":[
		{
			"sampler":0,
			"source":0
		},
		{
			"sampler":0,
			"source":0
		}
	],
	"images":[
		{
			"mimeType":"image/jpeg",
			"name":"obj_bush02_base",
			"uri":"textures/obj_bush02_base.jpg"
		}
	],
	"accessors":[
		{
			"bufferView":0,
			"componentType":5126,
			"count":904,
			"max":[
				0.5906021595001221,
				2.341635227203369,
				0.6042404770851135
			],
			"min":[
				-0.6081944704055786,
				-0.005765649024397135,
				-0.5979920625686646
			],
			"type":"VEC3"
		},
		{
			"bufferView":1,
			"componentType":5126,
			"count":904,
			"type":"VEC3"
		},
		{
			"bufferView":2,
			"componentType":5126,
			"count":904,
			"type":"VEC2"
		},
		{
			"bufferView":3,
			"componentType":5123,
			"count":1521,
			"type":"SCALAR"
		},
		{
			"bufferView":4,
			"componentType":5126,
			"count":40,
			"max":[
				0.5667238235473633,
				2.2792980670928955,
				0.5667238235473633
			],
			"min":[
				-0.5667238235473633,
				-1.3517365005100146e-07,
				-0.5667238235473633
			],
			"type":"VEC3"
		},
		{
			"bufferView":5,
			"componentType":5126,
			"count":40,
			"type":"VEC3"
		},
		{
			"bufferView":6,
			"componentType":5126,
			"count":40,
			"type":"VEC2"
		},
		{
			"bufferView":7,
			"componentType":5123,
			"count":60,
			"type":"SCALAR"
		}
	],
	"bufferViews":[
		{
			"buffer":0,
			"byteLength":10848,
			"byteOffset":0,
			"target":34962
		},
		{
			"buffer":0,
			"byteLength":10848,
			"byteOffset":10848,
			"target":34962
		},
		{
			"buffer":0,
			"byteLength":7232,
			"byteOffset":21696,
			"target":34962
		},
		{
			"buffer":0,
			"byteLength":3042,
			"byteOffset":28928,
			"target":34963
		},
		{
			"buffer":0,
			"byteLength":480,
			"byteOffset":31972,
			"target":34962
		},
		{
			"buffer":0,
			"byteLength":480,
			"byteOffset":32452,
			"target":34962
		},
		{
			"buffer":0,
			"byteLength":320,
			"byteOffset":32932,
			"target":34962
		},
		{
			"buffer":0,
			"byteLength":120,
			"byteOffset":33252,
			"target":34963
		}
	],
	"samplers":[
		{
			"magFilter":9729,
			"minFilter":9987
		}
	],
	"buffers":[
		{
			"byteLength":33372,
			"uri":"obj_bush02_base.bin"
		}
	]
}
