{
	"asset":{
		"generator":"Khronos glTF Blender I/O v4.2.57",
		"version":"2.0"
	},
	"extensionsUsed":[
		"KHR_materials_specular"
	],
	"scene":0,
	"scenes":[
		{
			"name":"obj_chest01_base",
			"nodes":[
				0,
				1
			]
		}
	],
	"nodes":[
		{
			"mesh":0,
			"name":"obj_chest01_base"
		},
		{
			"mesh":1,
			"name":"obj_chest01_base_collider"
		}
	],
	"materials":[
		{
			"doubleSided":true,
			"emissiveFactor":[
				0.05000000074505806,
				0.05000000074505806,
				0.05000000074505806
			],
			"emissiveTexture":{
				"index":0
			},
			"extensions":{
				"KHR_materials_specular":{
					"specularFactor":0
				}
			},
			"name":"obj_global_steampunk01",
			"pbrMetallicRoughness":{
				"baseColorTexture":{
					"index":1
				},
				"metallicFactor":0
			}
		}
	],
	"meshes":[
		{
			"name":"Cylinder.218",
			"primitives":[
				{
					"attributes":{
						"POSITION":0,
						"NORMAL":1,
						"TEXCOORD_0":2
					},
					"indices":3,
					"material":0
				}
			]
		},
		{
			"name":"Cylinder.219",
			"primitives":[
				{
					"attributes":{
						"POSITION":4,
						"NORMAL":5,
						"TEXCOORD_0":6
					},
					"indices":7
				}
			]
		}
	],
	"textures":[
		{
			"sampler":0,
			"source":0
		},
		{
			"sampler":0,
			"source":0
		}
	],
	"images":[
		{
			"mimeType":"image/png",
			"name":"obj_global_steampunk",
			"uri":"textures/obj_global_steampunk.png"
		}
	],
	"accessors":[
		{
			"bufferView":0,
			"componentType":5126,
			"count":1414,
			"max":[
				0.5780532956123352,
				1.0060160160064697,
				0.5692455172538757
			],
			"min":[
				-0.5076982378959656,
				0,
				-0.5532201528549194
			],
			"type":"VEC3"
		},
		{
			"bufferView":1,
			"componentType":5126,
			"count":1414,
			"type":"VEC3"
		},
		{
			"bufferView":2,
			"componentType":5126,
			"count":1414,
			"type":"VEC2"
		},
		{
			"bufferView":3,
			"componentType":5123,
			"count":1797,
			"type":"SCALAR"
		},
		{
			"bufferView":4,
			"componentType":5126,
			"count":50,
			"max":[
				0.6089028120040894,
				1.003954291343689,
				0.517963707447052
			],
			"min":[
				-0.6089028120040894,
				0,
				-0.6402382254600525
			],
			"type":"VEC3"
		},
		{
			"bufferView":5,
			"componentType":5126,
			"count":50,
			"type":"VEC3"
		},
		{
			"bufferView":6,
			"componentType":5126,
			"count":50,
			"type":"VEC2"
		},
		{
			"bufferView":7,
			"componentType":5123,
			"count":78,
			"type":"SCALAR"
		}
	],
	"bufferViews":[
		{
			"buffer":0,
			"byteLength":16968,
			"byteOffset":0,
			"target":34962
		},
		{
			"buffer":0,
			"byteLength":16968,
			"byteOffset":16968,
			"target":34962
		},
		{
			"buffer":0,
			"byteLength":11312,
			"byteOffset":33936,
			"target":34962
		},
		{
			"buffer":0,
			"byteLength":3594,
			"byteOffset":45248,
			"target":34963
		},
		{
			"buffer":0,
			"byteLength":600,
			"byteOffset":48844,
			"target":34962
		},
		{
			"buffer":0,
			"byteLength":600,
			"byteOffset":49444,
			"target":34962
		},
		{
			"buffer":0,
			"byteLength":400,
			"byteOffset":50044,
			"target":34962
		},
		{
			"buffer":0,
			"byteLength":156,
			"byteOffset":50444,
			"target":34963
		}
	],
	"samplers":[
		{
			"magFilter":9729,
			"minFilter":9987
		}
	],
	"buffers":[
		{
			"byteLength":50600,
			"uri":"obj_chest01_base.bin"
		}
	]
}
