{
	"asset":{
		"generator":"Khronos glTF Blender I/O v4.2.57",
		"version":"2.0"
	},
	"extensionsUsed":[
		"KHR_materials_specular",
		"KHR_materials_ior"
	],
	"scene":0,
	"scenes":[
		{
			"name":"obj_gear06_base",
			"nodes":[
				0,
				1
			]
		}
	],
	"nodes":[
		{
			"mesh":0,
			"name":"obj_gear06_base"
		},
		{
			"mesh":1,
			"name":"obj_gear06_base_collider"
		}
	],
	"materials":[
		{
			"doubleSided":true,
			"emissiveFactor":[
				0.10000000149011612,
				0.10000000149011612,
				0.10000000149011612
			],
			"emissiveTexture":{
				"index":0
			},
			"extensions":{
				"KHR_materials_specular":{
					"specularFactor":0
				},
				"KHR_materials_ior":{
					"ior":1.4500000476837158
				}
			},
			"name":"obj_gear06_base",
			"pbrMetallicRoughness":{
				"baseColorTexture":{
					"index":1
				},
				"metallicFactor":0
			}
		}
	],
	"meshes":[
		{
			"name":"Mesh.078",
			"primitives":[
				{
					"attributes":{
						"POSITION":0,
						"NORMAL":1,
						"TEXCOORD_0":2
					},
					"indices":3,
					"material":0
				}
			]
		},
		{
			"name":"Mesh.079",
			"primitives":[
				{
					"attributes":{
						"POSITION":4,
						"NORMAL":5,
						"TEXCOORD_0":6
					},
					"indices":7
				}
			]
		}
	],
	"textures":[
		{
			"sampler":0,
			"source":0
		},
		{
			"sampler":0,
			"source":0
		}
	],
	"images":[
		{
			"mimeType":"image/jpeg",
			"name":"obj_gear06_base",
			"uri":"textures/obj_gear06_base.jpg"
		}
	],
	"accessors":[
		{
			"bufferView":0,
			"componentType":5126,
			"count":908,
			"max":[
				0.16279089450836182,
				0.08372379094362259,
				0.16229106485843658
			],
			"min":[
				-0.1627485454082489,
				0.0011188118951395154,
				-0.16324764490127563
			],
			"type":"VEC3"
		},
		{
			"bufferView":1,
			"componentType":5126,
			"count":908,
			"type":"VEC3"
		},
		{
			"bufferView":2,
			"componentType":5126,
			"count":908,
			"type":"VEC2"
		},
		{
			"bufferView":3,
			"componentType":5123,
			"count":2142,
			"type":"SCALAR"
		},
		{
			"bufferView":4,
			"componentType":5126,
			"count":60,
			"max":[
				0.19024428725242615,
				0.08092612028121948,
				0.16571670770645142
			],
			"min":[
				-0.19024428725242615,
				0.0024469932541251183,
				-0.1637960821390152
			],
			"type":"VEC3"
		},
		{
			"bufferView":5,
			"componentType":5126,
			"count":60,
			"type":"VEC3"
		},
		{
			"bufferView":6,
			"componentType":5126,
			"count":60,
			"type":"VEC2"
		},
		{
			"bufferView":7,
			"componentType":5123,
			"count":96,
			"type":"SCALAR"
		}
	],
	"bufferViews":[
		{
			"buffer":0,
			"byteLength":10896,
			"byteOffset":0,
			"target":34962
		},
		{
			"buffer":0,
			"byteLength":10896,
			"byteOffset":10896,
			"target":34962
		},
		{
			"buffer":0,
			"byteLength":7264,
			"byteOffset":21792,
			"target":34962
		},
		{
			"buffer":0,
			"byteLength":4284,
			"byteOffset":29056,
			"target":34963
		},
		{
			"buffer":0,
			"byteLength":720,
			"byteOffset":33340,
			"target":34962
		},
		{
			"buffer":0,
			"byteLength":720,
			"byteOffset":34060,
			"target":34962
		},
		{
			"buffer":0,
			"byteLength":480,
			"byteOffset":34780,
			"target":34962
		},
		{
			"buffer":0,
			"byteLength":192,
			"byteOffset":35260,
			"target":34963
		}
	],
	"samplers":[
		{
			"magFilter":9729,
			"minFilter":9987
		}
	],
	"buffers":[
		{
			"byteLength":35452,
			"uri":"obj_gear06_base.bin"
		}
	]
}
