{
	"asset":{
		"generator":"Khronos glTF Blender I/O v4.2.57",
		"version":"2.0"
	},
	"extensionsUsed":[
		"KHR_materials_specular"
	],
	"scene":0,
	"scenes":[
		{
			"name":"Scene",
			"nodes":[
				0,
				1
			]
		}
	],
	"nodes":[
		{
			"mesh":0,
			"name":"obj_plants"
		},
		{
			"mesh":1,
			"name":"obj_plants_collider"
		}
	],
	"materials":[
		{
			"emissiveFactor":[
				0.10000000149011612,
				0.10000000149011612,
				0.10000000149011612
			],
			"emissiveTexture":{
				"index":0
			},
			"extensions":{
				"KHR_materials_specular":{
					"specularFactor":0
				}
			},
			"name":"obj_plants",
			"pbrMetallicRoughness":{
				"baseColorTexture":{
					"index":1
				},
				"metallicFactor":0
			}
		}
	],
	"meshes":[
		{
			"name":"Cylinder.041",
			"primitives":[
				{
					"attributes":{
						"POSITION":0,
						"NORMAL":1,
						"TEXCOORD_0":2
					},
					"indices":3,
					"material":0
				}
			]
		},
		{
			"name":"Cylinder.002",
			"primitives":[
				{
					"attributes":{
						"POSITION":4,
						"NORMAL":5,
						"TEXCOORD_0":6
					},
					"indices":7
				}
			]
		}
	],
	"textures":[
		{
			"sampler":0,
			"source":0
		},
		{
			"sampler":0,
			"source":0
		}
	],
	"images":[
		{
			"mimeType":"image/png",
			"name":"obj_plants",
			"uri":"textures/obj_plants.png"
		}
	],
	"accessors":[
		{
			"bufferView":0,
			"componentType":5126,
			"count":4816,
			"max":[
				7.249117851257324,
				2.0540199279785156,
				6.95599365234375
			],
			"min":[
				-7.249115467071533,
				-0.008536787703633308,
				-6.8201093673706055
			],
			"type":"VEC3"
		},
		{
			"bufferView":1,
			"componentType":5126,
			"count":4816,
			"type":"VEC3"
		},
		{
			"bufferView":2,
			"componentType":5126,
			"count":4816,
			"type":"VEC2"
		},
		{
			"bufferView":3,
			"componentType":5123,
			"count":16536,
			"type":"SCALAR"
		},
		{
			"bufferView":4,
			"componentType":5126,
			"count":712,
			"max":[
				7.237565994262695,
				1.7970871925354004,
				6.951706886291504
			],
			"min":[
				-7.237563133239746,
				-8.940696716308594e-08,
				-6.808413028717041
			],
			"type":"VEC3"
		},
		{
			"bufferView":5,
			"componentType":5126,
			"count":712,
			"type":"VEC3"
		},
		{
			"bufferView":6,
			"componentType":5126,
			"count":712,
			"type":"VEC2"
		},
		{
			"bufferView":7,
			"componentType":5123,
			"count":1488,
			"type":"SCALAR"
		}
	],
	"bufferViews":[
		{
			"buffer":0,
			"byteLength":57792,
			"byteOffset":0,
			"target":34962
		},
		{
			"buffer":0,
			"byteLength":57792,
			"byteOffset":57792,
			"target":34962
		},
		{
			"buffer":0,
			"byteLength":38528,
			"byteOffset":115584,
			"target":34962
		},
		{
			"buffer":0,
			"byteLength":33072,
			"byteOffset":154112,
			"target":34963
		},
		{
			"buffer":0,
			"byteLength":8544,
			"byteOffset":187184,
			"target":34962
		},
		{
			"buffer":0,
			"byteLength":8544,
			"byteOffset":195728,
			"target":34962
		},
		{
			"buffer":0,
			"byteLength":5696,
			"byteOffset":204272,
			"target":34962
		},
		{
			"buffer":0,
			"byteLength":2976,
			"byteOffset":209968,
			"target":34963
		}
	],
	"samplers":[
		{
			"magFilter":9729,
			"minFilter":9987
		}
	],
	"buffers":[
		{
			"byteLength":212944,
			"uri":"obj_plants.bin"
		}
	]
}
