{
	"asset":{
		"generator":"Khronos glTF Blender I/O v4.2.57",
		"version":"2.0"
	},
	"extensionsUsed":[
		"KHR_materials_specular"
	],
	"scene":0,
	"scenes":[
		{
			"name":"Scene",
			"nodes":[
				0,
				1
			]
		}
	],
	"nodes":[
		{
			"mesh":0,
			"name":"obj_stairs"
		},
		{
			"mesh":1,
			"name":"obj_stairs_collider"
		}
	],
	"materials":[
		{
			"emissiveFactor":[
				0.10000000149011612,
				0.10000000149011612,
				0.10000000149011612
			],
			"emissiveTexture":{
				"index":0
			},
			"extensions":{
				"KHR_materials_specular":{
					"specularFactor":0
				}
			},
			"name":"obj_stairs",
			"pbrMetallicRoughness":{
				"baseColorTexture":{
					"index":1
				},
				"metallicFactor":0
			}
		}
	],
	"meshes":[
		{
			"name":"Plane.001",
			"primitives":[
				{
					"attributes":{
						"POSITION":0,
						"NORMAL":1,
						"TEXCOORD_0":2
					},
					"indices":3,
					"material":0
				}
			]
		},
		{
			"name":"Plane.004",
			"primitives":[
				{
					"attributes":{
						"POSITION":4,
						"NORMAL":5,
						"TEXCOORD_0":6
					},
					"indices":7
				}
			]
		}
	],
	"textures":[
		{
			"sampler":0,
			"source":0
		},
		{
			"sampler":0,
			"source":0
		}
	],
	"images":[
		{
			"mimeType":"image/png",
			"name":"obj_stairs",
			"uri":"textures/obj_stairs.png"
		}
	],
	"accessors":[
		{
			"bufferView":0,
			"componentType":5126,
			"count":1160,
			"max":[
				6.989112854003906,
				0.3082330524921417,
				7.024202346801758
			],
			"min":[
				-6.989112854003906,
				-0.004936377517879009,
				-5.035549163818359
			],
			"type":"VEC3"
		},
		{
			"bufferView":1,
			"componentType":5126,
			"count":1160,
			"type":"VEC3"
		},
		{
			"bufferView":2,
			"componentType":5126,
			"count":1160,
			"type":"VEC2"
		},
		{
			"bufferView":3,
			"componentType":5123,
			"count":3324,
			"type":"SCALAR"
		},
		{
			"bufferView":4,
			"componentType":5126,
			"count":488,
			"max":[
				6.853583335876465,
				0.29661238193511963,
				6.897819519042969
			],
			"min":[
				-6.853583335876465,
				-0.004936377517879009,
				-4.883565902709961
			],
			"type":"VEC3"
		},
		{
			"bufferView":5,
			"componentType":5126,
			"count":488,
			"type":"VEC3"
		},
		{
			"bufferView":6,
			"componentType":5126,
			"count":488,
			"type":"VEC2"
		},
		{
			"bufferView":7,
			"componentType":5123,
			"count":876,
			"type":"SCALAR"
		}
	],
	"bufferViews":[
		{
			"buffer":0,
			"byteLength":13920,
			"byteOffset":0,
			"target":34962
		},
		{
			"buffer":0,
			"byteLength":13920,
			"byteOffset":13920,
			"target":34962
		},
		{
			"buffer":0,
			"byteLength":9280,
			"byteOffset":27840,
			"target":34962
		},
		{
			"buffer":0,
			"byteLength":6648,
			"byteOffset":37120,
			"target":34963
		},
		{
			"buffer":0,
			"byteLength":5856,
			"byteOffset":43768,
			"target":34962
		},
		{
			"buffer":0,
			"byteLength":5856,
			"byteOffset":49624,
			"target":34962
		},
		{
			"buffer":0,
			"byteLength":3904,
			"byteOffset":55480,
			"target":34962
		},
		{
			"buffer":0,
			"byteLength":1752,
			"byteOffset":59384,
			"target":34963
		}
	],
	"samplers":[
		{
			"magFilter":9729,
			"minFilter":9987
		}
	],
	"buffers":[
		{
			"byteLength":61136,
			"uri":"obj_stairs.bin"
		}
	]
}
