{
	"asset":{
		"generator":"Khronos glTF Blender I/O v4.2.57",
		"version":"2.0"
	},
	"extensionsUsed":[
		"KHR_materials_specular"
	],
	"scene":0,
	"scenes":[
		{
			"name":"Scene",
			"nodes":[
				0,
				1
			]
		}
	],
	"nodes":[
		{
			"mesh":0,
			"name":"obj_bench"
		},
		{
			"mesh":1,
			"name":"obj_bench_collider"
		}
	],
	"materials":[
		{
			"emissiveFactor":[
				0.10000000149011612,
				0.10000000149011612,
				0.10000000149011612
			],
			"emissiveTexture":{
				"index":0
			},
			"extensions":{
				"KHR_materials_specular":{
					"specularFactor":0
				}
			},
			"name":"obj_bench",
			"pbrMetallicRoughness":{
				"baseColorTexture":{
					"index":1
				},
				"metallicFactor":0
			}
		}
	],
	"meshes":[
		{
			"name":"Plane.137",
			"primitives":[
				{
					"attributes":{
						"POSITION":0,
						"NORMAL":1,
						"TEXCOORD_0":2
					},
					"indices":3,
					"material":0
				}
			]
		},
		{
			"name":"Plane.138",
			"primitives":[
				{
					"attributes":{
						"POSITION":4,
						"NORMAL":5,
						"TEXCOORD_0":6
					},
					"indices":7
				}
			]
		}
	],
	"textures":[
		{
			"sampler":0,
			"source":0
		},
		{
			"sampler":0,
			"source":0
		}
	],
	"images":[
		{
			"mimeType":"image/png",
			"name":"obj_bench",
			"uri":"textures/obj_bench.png"
		}
	],
	"accessors":[
		{
			"bufferView":0,
			"componentType":5126,
			"count":2144,
			"max":[
				5.395504951477051,
				1.6058070659637451,
				6.670022010803223
			],
			"min":[
				-5.395506381988525,
				0.4093908667564392,
				2.3299782276153564
			],
			"type":"VEC3"
		},
		{
			"bufferView":1,
			"componentType":5126,
			"count":2144,
			"type":"VEC3"
		},
		{
			"bufferView":2,
			"componentType":5126,
			"count":2144,
			"type":"VEC2"
		},
		{
			"bufferView":3,
			"componentType":5123,
			"count":9984,
			"type":"SCALAR"
		},
		{
			"bufferView":4,
			"componentType":5126,
			"count":320,
			"max":[
				5.411109447479248,
				1.6328072547912598,
				6.687326908111572
			],
			"min":[
				-5.411109447479248,
				0.38645467162132263,
				2.314271926879883
			],
			"type":"VEC3"
		},
		{
			"bufferView":5,
			"componentType":5126,
			"count":320,
			"type":"VEC3"
		},
		{
			"bufferView":6,
			"componentType":5126,
			"count":320,
			"type":"VEC2"
		},
		{
			"bufferView":7,
			"componentType":5123,
			"count":1824,
			"type":"SCALAR"
		}
	],
	"bufferViews":[
		{
			"buffer":0,
			"byteLength":25728,
			"byteOffset":0,
			"target":34962
		},
		{
			"buffer":0,
			"byteLength":25728,
			"byteOffset":25728,
			"target":34962
		},
		{
			"buffer":0,
			"byteLength":17152,
			"byteOffset":51456,
			"target":34962
		},
		{
			"buffer":0,
			"byteLength":19968,
			"byteOffset":68608,
			"target":34963
		},
		{
			"buffer":0,
			"byteLength":3840,
			"byteOffset":88576,
			"target":34962
		},
		{
			"buffer":0,
			"byteLength":3840,
			"byteOffset":92416,
			"target":34962
		},
		{
			"buffer":0,
			"byteLength":2560,
			"byteOffset":96256,
			"target":34962
		},
		{
			"buffer":0,
			"byteLength":3648,
			"byteOffset":98816,
			"target":34963
		}
	],
	"samplers":[
		{
			"magFilter":9729,
			"minFilter":9987
		}
	],
	"buffers":[
		{
			"byteLength":102464,
			"uri":"obj_bench.bin"
		}
	]
}
