{
	"asset":{
		"generator":"Khronos glTF Blender I/O v4.2.57",
		"version":"2.0"
	},
	"extensionsUsed":[
		"KHR_materials_specular"
	],
	"scene":0,
	"scenes":[
		{
			"name":"Scene",
			"nodes":[
				5
			]
		}
	],
	"nodes":[
		{
			"mesh":1,
			"name":"obj_title_collider"
		},
		{
			"children":[
				0
			],
			"name":"title"
		},
		{
			"mesh":2,
			"name":"obj_name_collider"
		},
		{
			"children":[
				2
			],
			"name":"name"
		},
		{
			"mesh":0,
			"name":"obj_title",
			"skin":0
		},
		{
			"children":[
				4,
				1,
				3
			],
			"name":"Armature"
		}
	],
	"animations":[
		{
			"channels":[
				{
					"sampler":0,
					"target":{
						"node":1,
						"path":"translation"
					}
				},
				{
					"sampler":1,
					"target":{
						"node":1,
						"path":"rotation"
					}
				},
				{
					"sampler":2,
					"target":{
						"node":1,
						"path":"scale"
					}
				},
				{
					"sampler":3,
					"target":{
						"node":3,
						"path":"translation"
					}
				},
				{
					"sampler":4,
					"target":{
						"node":3,
						"path":"rotation"
					}
				},
				{
					"sampler":5,
					"target":{
						"node":3,
						"path":"scale"
					}
				}
			],
			"name":"stand",
			"samplers":[
				{
					"input":27,
					"interpolation":"LINEAR",
					"output":28
				},
				{
					"input":29,
					"interpolation":"STEP",
					"output":30
				},
				{
					"input":29,
					"interpolation":"STEP",
					"output":31
				},
				{
					"input":29,
					"interpolation":"STEP",
					"output":32
				},
				{
					"input":29,
					"interpolation":"STEP",
					"output":33
				},
				{
					"input":29,
					"interpolation":"STEP",
					"output":34
				}
			]
		}
	],
	"materials":[
		{
			"emissiveFactor":[
				0.125,
				0.125,
				0.125
			],
			"emissiveTexture":{
				"index":0
			},
			"extensions":{
				"KHR_materials_specular":{
					"specularFactor":0
				}
			},
			"name":"obj_title",
			"pbrMetallicRoughness":{
				"baseColorTexture":{
					"index":1
				},
				"metallicFactor":0
			}
		},
		{
			"emissiveFactor":[
				0.4000000059604645,
				0.4000000059604645,
				0.4000000059604645
			],
			"name":"obj_emission01",
			"pbrMetallicRoughness":{
				"baseColorFactor":[
					0.800000011920929,
					0.800000011920929,
					0.800000011920929,
					1
				],
				"metallicFactor":0
			}
		},
		{
			"emissiveFactor":[
				0.10000000149011612,
				0.10000000149011612,
				0.10000000149011612
			],
			"emissiveTexture":{
				"index":2
			},
			"extensions":{
				"KHR_materials_specular":{
					"specularFactor":0
				}
			},
			"name":"obj_title.001",
			"pbrMetallicRoughness":{
				"baseColorTexture":{
					"index":3
				},
				"metallicFactor":0
			}
		}
	],
	"meshes":[
		{
			"name":"Cube.037",
			"primitives":[
				{
					"attributes":{
						"POSITION":0,
						"NORMAL":1,
						"TEXCOORD_0":2,
						"JOINTS_0":3,
						"WEIGHTS_0":4
					},
					"indices":5,
					"material":0
				},
				{
					"attributes":{
						"POSITION":6,
						"NORMAL":7,
						"TEXCOORD_0":8,
						"JOINTS_0":9,
						"WEIGHTS_0":10
					},
					"indices":11,
					"material":1
				},
				{
					"attributes":{
						"POSITION":12,
						"NORMAL":13,
						"TEXCOORD_0":14,
						"JOINTS_0":15,
						"WEIGHTS_0":16
					},
					"indices":17,
					"material":2
				}
			]
		},
		{
			"name":"Cube.001",
			"primitives":[
				{
					"attributes":{
						"POSITION":19,
						"NORMAL":20,
						"TEXCOORD_0":21
					},
					"indices":22
				}
			]
		},
		{
			"name":"Cube.002",
			"primitives":[
				{
					"attributes":{
						"POSITION":23,
						"NORMAL":24,
						"TEXCOORD_0":25
					},
					"indices":26
				}
			]
		}
	],
	"textures":[
		{
			"sampler":0,
			"source":0
		},
		{
			"sampler":0,
			"source":0
		},
		{
			"sampler":0,
			"source":0
		},
		{
			"sampler":0,
			"source":0
		}
	],
	"images":[
		{
			"mimeType":"image/png",
			"name":"obj_title",
			"uri":"textures/obj_title.png"
		}
	],
	"skins":[
		{
			"inverseBindMatrices":18,
			"joints":[
				1,
				3
			],
			"name":"Armature"
		}
	],
	"accessors":[
		{
			"bufferView":0,
			"componentType":5126,
			"count":396,
			"max":[
				7.618104457855225,
				7.215569972991943,
				5.747622489929199
			],
			"min":[
				-7.618104934692383,
				3.729959487915039,
				-7.668158531188965
			],
			"type":"VEC3"
		},
		{
			"bufferView":1,
			"componentType":5126,
			"count":396,
			"type":"VEC3"
		},
		{
			"bufferView":2,
			"componentType":5126,
			"count":396,
			"type":"VEC2"
		},
		{
			"bufferView":3,
			"componentType":5121,
			"count":396,
			"type":"VEC4"
		},
		{
			"bufferView":4,
			"componentType":5126,
			"count":396,
			"type":"VEC4"
		},
		{
			"bufferView":5,
			"componentType":5123,
			"count":936,
			"type":"SCALAR"
		},
		{
			"bufferView":6,
			"componentType":5126,
			"count":604,
			"max":[
				7.400000095367432,
				6.833220481872559,
				5.392314910888672
			],
			"min":[
				-7.400000095367432,
				4.027499198913574,
				-7.349999904632568
			],
			"type":"VEC3"
		},
		{
			"bufferView":7,
			"componentType":5126,
			"count":604,
			"type":"VEC3"
		},
		{
			"bufferView":8,
			"componentType":5126,
			"count":604,
			"type":"VEC2"
		},
		{
			"bufferView":9,
			"componentType":5121,
			"count":604,
			"type":"VEC4"
		},
		{
			"bufferView":10,
			"componentType":5126,
			"count":604,
			"type":"VEC4"
		},
		{
			"bufferView":11,
			"componentType":5123,
			"count":1488,
			"type":"SCALAR"
		},
		{
			"bufferView":12,
			"componentType":5126,
			"count":132,
			"max":[
				1.8584401607513428,
				5.531285762786865,
				-6.880586624145508
			],
			"min":[
				-1.8584401607513428,
				4.792225360870361,
				-7.161801338195801
			],
			"type":"VEC3"
		},
		{
			"bufferView":13,
			"componentType":5126,
			"count":132,
			"type":"VEC3"
		},
		{
			"bufferView":14,
			"componentType":5126,
			"count":132,
			"type":"VEC2"
		},
		{
			"bufferView":15,
			"componentType":5121,
			"count":132,
			"type":"VEC4"
		},
		{
			"bufferView":16,
			"componentType":5126,
			"count":132,
			"type":"VEC4"
		},
		{
			"bufferView":17,
			"componentType":5123,
			"count":312,
			"type":"SCALAR"
		},
		{
			"bufferView":18,
			"componentType":5126,
			"count":2,
			"type":"MAT4"
		},
		{
			"bufferView":19,
			"componentType":5126,
			"count":180,
			"max":[
				7.618104457855225,
				7.215569972991943,
				5.747622489929199
			],
			"min":[
				-7.618104934692383,
				3.729959487915039,
				-7.668158531188965
			],
			"type":"VEC3"
		},
		{
			"bufferView":20,
			"componentType":5126,
			"count":180,
			"type":"VEC3"
		},
		{
			"bufferView":21,
			"componentType":5126,
			"count":180,
			"type":"VEC2"
		},
		{
			"bufferView":22,
			"componentType":5123,
			"count":468,
			"type":"SCALAR"
		},
		{
			"bufferView":23,
			"componentType":5126,
			"count":60,
			"max":[
				1.8584401607513428,
				5.531285762786865,
				-6.880586624145508
			],
			"min":[
				-1.8584401607513428,
				4.792225360870361,
				-7.161801338195801
			],
			"type":"VEC3"
		},
		{
			"bufferView":24,
			"componentType":5126,
			"count":60,
			"type":"VEC3"
		},
		{
			"bufferView":25,
			"componentType":5126,
			"count":60,
			"type":"VEC2"
		},
		{
			"bufferView":26,
			"componentType":5123,
			"count":156,
			"type":"SCALAR"
		},
		{
			"bufferView":27,
			"componentType":5126,
			"count":121,
			"max":[
				4
			],
			"min":[
				0
			],
			"type":"SCALAR"
		},
		{
			"bufferView":28,
			"componentType":5126,
			"count":121,
			"type":"VEC3"
		},
		{
			"bufferView":29,
			"componentType":5126,
			"count":2,
			"max":[
				4
			],
			"min":[
				0
			],
			"type":"SCALAR"
		},
		{
			"bufferView":30,
			"componentType":5126,
			"count":2,
			"type":"VEC4"
		},
		{
			"bufferView":31,
			"componentType":5126,
			"count":2,
			"type":"VEC3"
		},
		{
			"bufferView":32,
			"componentType":5126,
			"count":2,
			"type":"VEC3"
		},
		{
			"bufferView":33,
			"componentType":5126,
			"count":2,
			"type":"VEC4"
		},
		{
			"bufferView":34,
			"componentType":5126,
			"count":2,
			"type":"VEC3"
		}
	],
	"bufferViews":[
		{
			"buffer":0,
			"byteLength":4752,
			"byteOffset":0,
			"target":34962
		},
		{
			"buffer":0,
			"byteLength":4752,
			"byteOffset":4752,
			"target":34962
		},
		{
			"buffer":0,
			"byteLength":3168,
			"byteOffset":9504,
			"target":34962
		},
		{
			"buffer":0,
			"byteLength":1584,
			"byteOffset":12672,
			"target":34962
		},
		{
			"buffer":0,
			"byteLength":6336,
			"byteOffset":14256,
			"target":34962
		},
		{
			"buffer":0,
			"byteLength":1872,
			"byteOffset":20592,
			"target":34963
		},
		{
			"buffer":0,
			"byteLength":7248,
			"byteOffset":22464,
			"target":34962
		},
		{
			"buffer":0,
			"byteLength":7248,
			"byteOffset":29712,
			"target":34962
		},
		{
			"buffer":0,
			"byteLength":4832,
			"byteOffset":36960,
			"target":34962
		},
		{
			"buffer":0,
			"byteLength":2416,
			"byteOffset":41792,
			"target":34962
		},
		{
			"buffer":0,
			"byteLength":9664,
			"byteOffset":44208,
			"target":34962
		},
		{
			"buffer":0,
			"byteLength":2976,
			"byteOffset":53872,
			"target":34963
		},
		{
			"buffer":0,
			"byteLength":1584,
			"byteOffset":56848,
			"target":34962
		},
		{
			"buffer":0,
			"byteLength":1584,
			"byteOffset":58432,
			"target":34962
		},
		{
			"buffer":0,
			"byteLength":1056,
			"byteOffset":60016,
			"target":34962
		},
		{
			"buffer":0,
			"byteLength":528,
			"byteOffset":61072,
			"target":34962
		},
		{
			"buffer":0,
			"byteLength":2112,
			"byteOffset":61600,
			"target":34962
		},
		{
			"buffer":0,
			"byteLength":624,
			"byteOffset":63712,
			"target":34963
		},
		{
			"buffer":0,
			"byteLength":128,
			"byteOffset":64336
		},
		{
			"buffer":0,
			"byteLength":2160,
			"byteOffset":64464,
			"target":34962
		},
		{
			"buffer":0,
			"byteLength":2160,
			"byteOffset":66624,
			"target":34962
		},
		{
			"buffer":0,
			"byteLength":1440,
			"byteOffset":68784,
			"target":34962
		},
		{
			"buffer":0,
			"byteLength":936,
			"byteOffset":70224,
			"target":34963
		},
		{
			"buffer":0,
			"byteLength":720,
			"byteOffset":71160,
			"target":34962
		},
		{
			"buffer":0,
			"byteLength":720,
			"byteOffset":71880,
			"target":34962
		},
		{
			"buffer":0,
			"byteLength":480,
			"byteOffset":72600,
			"target":34962
		},
		{
			"buffer":0,
			"byteLength":312,
			"byteOffset":73080,
			"target":34963
		},
		{
			"buffer":0,
			"byteLength":484,
			"byteOffset":73392
		},
		{
			"buffer":0,
			"byteLength":1452,
			"byteOffset":73876
		},
		{
			"buffer":0,
			"byteLength":8,
			"byteOffset":75328
		},
		{
			"buffer":0,
			"byteLength":32,
			"byteOffset":75336
		},
		{
			"buffer":0,
			"byteLength":24,
			"byteOffset":75368
		},
		{
			"buffer":0,
			"byteLength":24,
			"byteOffset":75392
		},
		{
			"buffer":0,
			"byteLength":32,
			"byteOffset":75416
		},
		{
			"buffer":0,
			"byteLength":24,
			"byteOffset":75448
		}
	],
	"samplers":[
		{
			"magFilter":9729,
			"minFilter":9987
		}
	],
	"buffers":[
		{
			"byteLength":75472,
			"uri":"obj_title.bin"
		}
	]
}
