{
	"asset":{
		"generator":"Khronos glTF Blender I/O v4.3.47",
		"version":"2.0"
	},
	"extensionsUsed":[
		"KHR_materials_specular"
	],
	"scene":0,
	"scenes":[
		{
			"name":"Scene",
			"nodes":[
				5
			]
		}
	],
	"nodes":[
		{
			"mesh":1,
			"name":"obj_title_collider"
		},
		{
			"children":[
				0
			],
			"name":"title"
		},
		{
			"mesh":2,
			"name":"obj_name_collider"
		},
		{
			"children":[
				2
			],
			"name":"name"
		},
		{
			"mesh":0,
			"name":"obj_title",
			"skin":0
		},
		{
			"children":[
				4,
				1,
				3
			],
			"name":"Armature"
		}
	],
	"animations":[
		{
			"channels":[
				{
					"sampler":0,
					"target":{
						"node":1,
						"path":"translation"
					}
				},
				{
					"sampler":1,
					"target":{
						"node":1,
						"path":"rotation"
					}
				},
				{
					"sampler":2,
					"target":{
						"node":1,
						"path":"scale"
					}
				},
				{
					"sampler":3,
					"target":{
						"node":3,
						"path":"translation"
					}
				},
				{
					"sampler":4,
					"target":{
						"node":3,
						"path":"rotation"
					}
				},
				{
					"sampler":5,
					"target":{
						"node":3,
						"path":"scale"
					}
				}
			],
			"name":"stand",
			"samplers":[
				{
					"input":21,
					"interpolation":"LINEAR",
					"output":22
				},
				{
					"input":23,
					"interpolation":"STEP",
					"output":24
				},
				{
					"input":23,
					"interpolation":"STEP",
					"output":25
				},
				{
					"input":23,
					"interpolation":"STEP",
					"output":26
				},
				{
					"input":23,
					"interpolation":"STEP",
					"output":27
				},
				{
					"input":23,
					"interpolation":"STEP",
					"output":28
				}
			]
		}
	],
	"materials":[
		{
			"emissiveFactor":[
				0.125,
				0.125,
				0.125
			],
			"emissiveTexture":{
				"index":0
			},
			"extensions":{
				"KHR_materials_specular":{
					"specularFactor":0
				}
			},
			"name":"obj_title",
			"pbrMetallicRoughness":{
				"baseColorTexture":{
					"index":1
				},
				"metallicFactor":0
			}
		},
		{
			"emissiveFactor":[
				0.4000000059604645,
				0.4000000059604645,
				0.4000000059604645
			],
			"name":"obj_emission01",
			"pbrMetallicRoughness":{
				"baseColorFactor":[
					0.800000011920929,
					0.800000011920929,
					0.800000011920929,
					1
				],
				"metallicFactor":0
			}
		}
	],
	"meshes":[
		{
			"name":"obj_title",
			"primitives":[
				{
					"attributes":{
						"POSITION":0,
						"NORMAL":1,
						"TEXCOORD_0":2,
						"JOINTS_0":3,
						"WEIGHTS_0":4
					},
					"indices":5,
					"material":0
				},
				{
					"attributes":{
						"POSITION":6,
						"NORMAL":7,
						"TEXCOORD_0":8,
						"JOINTS_0":9,
						"WEIGHTS_0":10
					},
					"indices":11,
					"material":1
				}
			]
		},
		{
			"name":"obj_title_collider",
			"primitives":[
				{
					"attributes":{
						"POSITION":13,
						"NORMAL":14,
						"TEXCOORD_0":15
					},
					"indices":16
				}
			]
		},
		{
			"name":"obj_name_collider",
			"primitives":[
				{
					"attributes":{
						"POSITION":17,
						"NORMAL":18,
						"TEXCOORD_0":19
					},
					"indices":20
				}
			]
		}
	],
	"textures":[
		{
			"sampler":0,
			"source":0
		},
		{
			"sampler":0,
			"source":0
		}
	],
	"images":[
		{
			"mimeType":"image/png",
			"name":"obj_title",
			"uri":"textures/obj_title.png"
		}
	],
	"skins":[
		{
			"inverseBindMatrices":12,
			"joints":[
				1,
				3
			],
			"name":"Armature"
		}
	],
	"accessors":[
		{
			"bufferView":0,
			"componentType":5126,
			"count":528,
			"max":[
				7.618104457855225,
				7.215569972991943,
				5.747622489929199
			],
			"min":[
				-7.618104934692383,
				3.729959487915039,
				-7.668158531188965
			],
			"type":"VEC3"
		},
		{
			"bufferView":1,
			"componentType":5126,
			"count":528,
			"type":"VEC3"
		},
		{
			"bufferView":2,
			"componentType":5126,
			"count":528,
			"type":"VEC2"
		},
		{
			"bufferView":3,
			"componentType":5121,
			"count":528,
			"type":"VEC4"
		},
		{
			"bufferView":4,
			"componentType":5126,
			"count":528,
			"type":"VEC4"
		},
		{
			"bufferView":5,
			"componentType":5123,
			"count":1248,
			"type":"SCALAR"
		},
		{
			"bufferView":6,
			"componentType":5126,
			"count":604,
			"max":[
				7.400000095367432,
				6.833220481872559,
				5.392314910888672
			],
			"min":[
				-7.400000095367432,
				4.027499198913574,
				-7.349999904632568
			],
			"type":"VEC3"
		},
		{
			"bufferView":7,
			"componentType":5126,
			"count":604,
			"type":"VEC3"
		},
		{
			"bufferView":8,
			"componentType":5126,
			"count":604,
			"type":"VEC2"
		},
		{
			"bufferView":9,
			"componentType":5121,
			"count":604,
			"type":"VEC4"
		},
		{
			"bufferView":10,
			"componentType":5126,
			"count":604,
			"type":"VEC4"
		},
		{
			"bufferView":11,
			"componentType":5123,
			"count":1488,
			"type":"SCALAR"
		},
		{
			"bufferView":12,
			"componentType":5126,
			"count":2,
			"type":"MAT4"
		},
		{
			"bufferView":13,
			"componentType":5126,
			"count":48,
			"max":[
				7.6165924072265625,
				7.215569972991943,
				5.771565914154053
			],
			"min":[
				-7.6165924072265625,
				3.729959487915039,
				-7.666004657745361
			],
			"type":"VEC3"
		},
		{
			"bufferView":14,
			"componentType":5126,
			"count":48,
			"type":"VEC3"
		},
		{
			"bufferView":15,
			"componentType":5126,
			"count":48,
			"type":"VEC2"
		},
		{
			"bufferView":16,
			"componentType":5123,
			"count":108,
			"type":"SCALAR"
		},
		{
			"bufferView":17,
			"componentType":5126,
			"count":16,
			"max":[
				1.8584401607513428,
				5.531285762786865,
				-6.882387638092041
			],
			"min":[
				-1.8584401607513428,
				4.792225360870361,
				-7.160000324249268
			],
			"type":"VEC3"
		},
		{
			"bufferView":18,
			"componentType":5126,
			"count":16,
			"type":"VEC3"
		},
		{
			"bufferView":19,
			"componentType":5126,
			"count":16,
			"type":"VEC2"
		},
		{
			"bufferView":20,
			"componentType":5123,
			"count":36,
			"type":"SCALAR"
		},
		{
			"bufferView":21,
			"componentType":5126,
			"count":121,
			"max":[
				4
			],
			"min":[
				0
			],
			"type":"SCALAR"
		},
		{
			"bufferView":22,
			"componentType":5126,
			"count":121,
			"type":"VEC3"
		},
		{
			"bufferView":23,
			"componentType":5126,
			"count":2,
			"max":[
				4
			],
			"min":[
				0
			],
			"type":"SCALAR"
		},
		{
			"bufferView":24,
			"componentType":5126,
			"count":2,
			"type":"VEC4"
		},
		{
			"bufferView":25,
			"componentType":5126,
			"count":2,
			"type":"VEC3"
		},
		{
			"bufferView":26,
			"componentType":5126,
			"count":2,
			"type":"VEC3"
		},
		{
			"bufferView":27,
			"componentType":5126,
			"count":2,
			"type":"VEC4"
		},
		{
			"bufferView":28,
			"componentType":5126,
			"count":2,
			"type":"VEC3"
		}
	],
	"bufferViews":[
		{
			"buffer":0,
			"byteLength":6336,
			"byteOffset":0,
			"target":34962
		},
		{
			"buffer":0,
			"byteLength":6336,
			"byteOffset":6336,
			"target":34962
		},
		{
			"buffer":0,
			"byteLength":4224,
			"byteOffset":12672,
			"target":34962
		},
		{
			"buffer":0,
			"byteLength":2112,
			"byteOffset":16896,
			"target":34962
		},
		{
			"buffer":0,
			"byteLength":8448,
			"byteOffset":19008,
			"target":34962
		},
		{
			"buffer":0,
			"byteLength":2496,
			"byteOffset":27456,
			"target":34963
		},
		{
			"buffer":0,
			"byteLength":7248,
			"byteOffset":29952,
			"target":34962
		},
		{
			"buffer":0,
			"byteLength":7248,
			"byteOffset":37200,
			"target":34962
		},
		{
			"buffer":0,
			"byteLength":4832,
			"byteOffset":44448,
			"target":34962
		},
		{
			"buffer":0,
			"byteLength":2416,
			"byteOffset":49280,
			"target":34962
		},
		{
			"buffer":0,
			"byteLength":9664,
			"byteOffset":51696,
			"target":34962
		},
		{
			"buffer":0,
			"byteLength":2976,
			"byteOffset":61360,
			"target":34963
		},
		{
			"buffer":0,
			"byteLength":128,
			"byteOffset":64336
		},
		{
			"buffer":0,
			"byteLength":576,
			"byteOffset":64464,
			"target":34962
		},
		{
			"buffer":0,
			"byteLength":576,
			"byteOffset":65040,
			"target":34962
		},
		{
			"buffer":0,
			"byteLength":384,
			"byteOffset":65616,
			"target":34962
		},
		{
			"buffer":0,
			"byteLength":216,
			"byteOffset":66000,
			"target":34963
		},
		{
			"buffer":0,
			"byteLength":192,
			"byteOffset":66216,
			"target":34962
		},
		{
			"buffer":0,
			"byteLength":192,
			"byteOffset":66408,
			"target":34962
		},
		{
			"buffer":0,
			"byteLength":128,
			"byteOffset":66600,
			"target":34962
		},
		{
			"buffer":0,
			"byteLength":72,
			"byteOffset":66728,
			"target":34963
		},
		{
			"buffer":0,
			"byteLength":484,
			"byteOffset":66800
		},
		{
			"buffer":0,
			"byteLength":1452,
			"byteOffset":67284
		},
		{
			"buffer":0,
			"byteLength":8,
			"byteOffset":68736
		},
		{
			"buffer":0,
			"byteLength":32,
			"byteOffset":68744
		},
		{
			"buffer":0,
			"byteLength":24,
			"byteOffset":68776
		},
		{
			"buffer":0,
			"byteLength":24,
			"byteOffset":68800
		},
		{
			"buffer":0,
			"byteLength":32,
			"byteOffset":68824
		},
		{
			"buffer":0,
			"byteLength":24,
			"byteOffset":68856
		}
	],
	"samplers":[
		{
			"magFilter":9729,
			"minFilter":9987
		}
	],
	"buffers":[
		{
			"byteLength":68880,
			"uri":"obj_title.bin"
		}
	]
}
