{
	"asset":{
		"generator":"Khronos glTF Blender I/O v4.3.47",
		"version":"2.0"
	},
	"extensionsUsed":[
		"KHR_materials_specular"
	],
	"scene":0,
	"scenes":[
		{
			"name":"Scene",
			"nodes":[
				0,
				1
			]
		}
	],
	"nodes":[
		{
			"mesh":0,
			"name":"obj_sign"
		},
		{
			"mesh":1,
			"name":"obj_sign_collider",
			"translation":[
				0,
				0,
				-7.5
			]
		}
	],
	"materials":[
		{
			"emissiveFactor":[
				0.10000000149011612,
				0.10000000149011612,
				0.10000000149011612
			],
			"emissiveTexture":{
				"index":0
			},
			"extensions":{
				"KHR_materials_specular":{
					"specularFactor":0
				}
			},
			"name":"obj_sign",
			"pbrMetallicRoughness":{
				"baseColorTexture":{
					"index":1
				},
				"metallicFactor":0
			}
		}
	],
	"meshes":[
		{
			"name":"obj_sign",
			"primitives":[
				{
					"attributes":{
						"POSITION":0,
						"NORMAL":1,
						"TEXCOORD_0":2
					},
					"indices":3,
					"material":0
				}
			]
		},
		{
			"name":"obj_sign_collider",
			"primitives":[
				{
					"attributes":{
						"POSITION":4,
						"NORMAL":5,
						"TEXCOORD_0":6
					},
					"indices":7
				}
			]
		}
	],
	"textures":[
		{
			"sampler":0,
			"source":0
		},
		{
			"sampler":0,
			"source":0
		}
	],
	"images":[
		{
			"mimeType":"image/png",
			"name":"obj_sign",
			"uri":"textures/obj_sign.png"
		}
	],
	"accessors":[
		{
			"bufferView":0,
			"componentType":5126,
			"count":1550,
			"max":[
				7.744250297546387,
				5.819093704223633,
				7.76097297668457
			],
			"min":[
				-7.744250297546387,
				0.2647646367549896,
				-7.848928928375244
			],
			"type":"VEC3"
		},
		{
			"bufferView":1,
			"componentType":5126,
			"count":1550,
			"type":"VEC3"
		},
		{
			"bufferView":2,
			"componentType":5126,
			"count":1550,
			"type":"VEC2"
		},
		{
			"bufferView":3,
			"componentType":5123,
			"count":4464,
			"type":"SCALAR"
		},
		{
			"bufferView":4,
			"componentType":5126,
			"count":264,
			"max":[
				7.701532363891602,
				5.818559646606445,
				15.290497779846191
			],
			"min":[
				-7.701532363891602,
				0.2797584533691406,
				-0.33262205123901367
			],
			"type":"VEC3"
		},
		{
			"bufferView":5,
			"componentType":5126,
			"count":264,
			"type":"VEC3"
		},
		{
			"bufferView":6,
			"componentType":5126,
			"count":264,
			"type":"VEC2"
		},
		{
			"bufferView":7,
			"componentType":5123,
			"count":396,
			"type":"SCALAR"
		}
	],
	"bufferViews":[
		{
			"buffer":0,
			"byteLength":18600,
			"byteOffset":0,
			"target":34962
		},
		{
			"buffer":0,
			"byteLength":18600,
			"byteOffset":18600,
			"target":34962
		},
		{
			"buffer":0,
			"byteLength":12400,
			"byteOffset":37200,
			"target":34962
		},
		{
			"buffer":0,
			"byteLength":8928,
			"byteOffset":49600,
			"target":34963
		},
		{
			"buffer":0,
			"byteLength":3168,
			"byteOffset":58528,
			"target":34962
		},
		{
			"buffer":0,
			"byteLength":3168,
			"byteOffset":61696,
			"target":34962
		},
		{
			"buffer":0,
			"byteLength":2112,
			"byteOffset":64864,
			"target":34962
		},
		{
			"buffer":0,
			"byteLength":792,
			"byteOffset":66976,
			"target":34963
		}
	],
	"samplers":[
		{
			"magFilter":9729,
			"minFilter":9987
		}
	],
	"buffers":[
		{
			"byteLength":67768,
			"uri":"obj_sign.bin"
		}
	]
}
