{
	"asset":{
		"generator":"Khronos glTF Blender I/O v4.2.57",
		"version":"2.0"
	},
	"extensionsUsed":[
		"KHR_materials_specular"
	],
	"scene":0,
	"scenes":[
		{
			"name":"Scene",
			"nodes":[
				3
			]
		}
	],
	"nodes":[
		{
			"name":"title"
		},
		{
			"mesh":0,
			"name":"obj_title",
			"skin":0
		},
		{
			"mesh":1,
			"name":"obj_title_collider",
			"skin":0
		},
		{
			"children":[
				1,
				2,
				0
			],
			"name":"Armature"
		}
	],
	"animations":[
		{
			"channels":[
				{
					"sampler":0,
					"target":{
						"node":0,
						"path":"translation"
					}
				},
				{
					"sampler":1,
					"target":{
						"node":0,
						"path":"rotation"
					}
				},
				{
					"sampler":2,
					"target":{
						"node":0,
						"path":"scale"
					}
				}
			],
			"name":"stand",
			"samplers":[
				{
					"input":19,
					"interpolation":"LINEAR",
					"output":20
				},
				{
					"input":21,
					"interpolation":"STEP",
					"output":22
				},
				{
					"input":21,
					"interpolation":"STEP",
					"output":23
				}
			]
		}
	],
	"materials":[
		{
			"emissiveFactor":[
				0.125,
				0.125,
				0.125
			],
			"emissiveTexture":{
				"index":0
			},
			"extensions":{
				"KHR_materials_specular":{
					"specularFactor":0
				}
			},
			"name":"obj_title",
			"pbrMetallicRoughness":{
				"baseColorTexture":{
					"index":1
				},
				"metallicFactor":0
			}
		},
		{
			"emissiveFactor":[
				0.4000000059604645,
				0.4000000059604645,
				0.4000000059604645
			],
			"name":"obj_emission01",
			"pbrMetallicRoughness":{
				"baseColorFactor":[
					0.800000011920929,
					0.800000011920929,
					0.800000011920929,
					1
				],
				"metallicFactor":0
			}
		}
	],
	"meshes":[
		{
			"name":"Cube.037",
			"primitives":[
				{
					"attributes":{
						"POSITION":0,
						"NORMAL":1,
						"TEXCOORD_0":2,
						"JOINTS_0":3,
						"WEIGHTS_0":4
					},
					"indices":5,
					"material":0
				},
				{
					"attributes":{
						"POSITION":6,
						"NORMAL":7,
						"TEXCOORD_0":8,
						"JOINTS_0":9,
						"WEIGHTS_0":10
					},
					"indices":11,
					"material":1
				}
			]
		},
		{
			"name":"Cube.039",
			"primitives":[
				{
					"attributes":{
						"POSITION":13,
						"NORMAL":14,
						"TEXCOORD_0":15,
						"JOINTS_0":16,
						"WEIGHTS_0":17
					},
					"indices":18
				}
			]
		}
	],
	"textures":[
		{
			"sampler":0,
			"source":0
		},
		{
			"sampler":0,
			"source":0
		}
	],
	"images":[
		{
			"mimeType":"image/png",
			"name":"obj_title",
			"uri":"textures/obj_title.png"
		}
	],
	"skins":[
		{
			"inverseBindMatrices":12,
			"joints":[
				0
			],
			"name":"Armature"
		}
	],
	"accessors":[
		{
			"bufferView":0,
			"componentType":5126,
			"count":396,
			"max":[
				7.618104457855225,
				6.348056316375732,
				5.747622489929199
			],
			"min":[
				-7.618104934692383,
				3.729959487915039,
				-7.668158531188965
			],
			"type":"VEC3"
		},
		{
			"bufferView":1,
			"componentType":5126,
			"count":396,
			"type":"VEC3"
		},
		{
			"bufferView":2,
			"componentType":5126,
			"count":396,
			"type":"VEC2"
		},
		{
			"bufferView":3,
			"componentType":5121,
			"count":396,
			"type":"VEC4"
		},
		{
			"bufferView":4,
			"componentType":5126,
			"count":396,
			"type":"VEC4"
		},
		{
			"bufferView":5,
			"componentType":5123,
			"count":936,
			"type":"SCALAR"
		},
		{
			"bufferView":6,
			"componentType":5126,
			"count":604,
			"max":[
				7.400000095367432,
				5.965706825256348,
				5.392314910888672
			],
			"min":[
				-7.400000095367432,
				4.027499198913574,
				-7.349999904632568
			],
			"type":"VEC3"
		},
		{
			"bufferView":7,
			"componentType":5126,
			"count":604,
			"type":"VEC3"
		},
		{
			"bufferView":8,
			"componentType":5126,
			"count":604,
			"type":"VEC2"
		},
		{
			"bufferView":9,
			"componentType":5121,
			"count":604,
			"type":"VEC4"
		},
		{
			"bufferView":10,
			"componentType":5126,
			"count":604,
			"type":"VEC4"
		},
		{
			"bufferView":11,
			"componentType":5123,
			"count":1488,
			"type":"SCALAR"
		},
		{
			"bufferView":12,
			"componentType":5126,
			"count":1,
			"type":"MAT4"
		},
		{
			"bufferView":13,
			"componentType":5126,
			"count":216,
			"max":[
				7.59224796295166,
				6.309962272644043,
				5.720865249633789
			],
			"min":[
				-7.592248916625977,
				3.7567145824432373,
				-7.631343364715576
			],
			"type":"VEC3"
		},
		{
			"bufferView":14,
			"componentType":5126,
			"count":216,
			"type":"VEC3"
		},
		{
			"bufferView":15,
			"componentType":5126,
			"count":216,
			"type":"VEC2"
		},
		{
			"bufferView":16,
			"componentType":5121,
			"count":216,
			"type":"VEC4"
		},
		{
			"bufferView":17,
			"componentType":5126,
			"count":216,
			"type":"VEC4"
		},
		{
			"bufferView":18,
			"componentType":5123,
			"count":468,
			"type":"SCALAR"
		},
		{
			"bufferView":19,
			"componentType":5126,
			"count":121,
			"max":[
				4
			],
			"min":[
				0
			],
			"type":"SCALAR"
		},
		{
			"bufferView":20,
			"componentType":5126,
			"count":121,
			"type":"VEC3"
		},
		{
			"bufferView":21,
			"componentType":5126,
			"count":2,
			"max":[
				4
			],
			"min":[
				0
			],
			"type":"SCALAR"
		},
		{
			"bufferView":22,
			"componentType":5126,
			"count":2,
			"type":"VEC4"
		},
		{
			"bufferView":23,
			"componentType":5126,
			"count":2,
			"type":"VEC3"
		}
	],
	"bufferViews":[
		{
			"buffer":0,
			"byteLength":4752,
			"byteOffset":0,
			"target":34962
		},
		{
			"buffer":0,
			"byteLength":4752,
			"byteOffset":4752,
			"target":34962
		},
		{
			"buffer":0,
			"byteLength":3168,
			"byteOffset":9504,
			"target":34962
		},
		{
			"buffer":0,
			"byteLength":1584,
			"byteOffset":12672,
			"target":34962
		},
		{
			"buffer":0,
			"byteLength":6336,
			"byteOffset":14256,
			"target":34962
		},
		{
			"buffer":0,
			"byteLength":1872,
			"byteOffset":20592,
			"target":34963
		},
		{
			"buffer":0,
			"byteLength":7248,
			"byteOffset":22464,
			"target":34962
		},
		{
			"buffer":0,
			"byteLength":7248,
			"byteOffset":29712,
			"target":34962
		},
		{
			"buffer":0,
			"byteLength":4832,
			"byteOffset":36960,
			"target":34962
		},
		{
			"buffer":0,
			"byteLength":2416,
			"byteOffset":41792,
			"target":34962
		},
		{
			"buffer":0,
			"byteLength":9664,
			"byteOffset":44208,
			"target":34962
		},
		{
			"buffer":0,
			"byteLength":2976,
			"byteOffset":53872,
			"target":34963
		},
		{
			"buffer":0,
			"byteLength":64,
			"byteOffset":56848
		},
		{
			"buffer":0,
			"byteLength":2592,
			"byteOffset":56912,
			"target":34962
		},
		{
			"buffer":0,
			"byteLength":2592,
			"byteOffset":59504,
			"target":34962
		},
		{
			"buffer":0,
			"byteLength":1728,
			"byteOffset":62096,
			"target":34962
		},
		{
			"buffer":0,
			"byteLength":864,
			"byteOffset":63824,
			"target":34962
		},
		{
			"buffer":0,
			"byteLength":3456,
			"byteOffset":64688,
			"target":34962
		},
		{
			"buffer":0,
			"byteLength":936,
			"byteOffset":68144,
			"target":34963
		},
		{
			"buffer":0,
			"byteLength":484,
			"byteOffset":69080
		},
		{
			"buffer":0,
			"byteLength":1452,
			"byteOffset":69564
		},
		{
			"buffer":0,
			"byteLength":8,
			"byteOffset":71016
		},
		{
			"buffer":0,
			"byteLength":32,
			"byteOffset":71024
		},
		{
			"buffer":0,
			"byteLength":24,
			"byteOffset":71056
		}
	],
	"samplers":[
		{
			"magFilter":9729,
			"minFilter":9987
		}
	],
	"buffers":[
		{
			"byteLength":71080,
			"uri":"obj_title.bin"
		}
	]
}
