{
	"asset":{
		"generator":"Khronos glTF Blender I/O v4.2.57",
		"version":"2.0"
	},
	"extensionsUsed":[
		"KHR_materials_specular"
	],
	"scene":0,
	"scenes":[
		{
			"name":"Scene",
			"nodes":[
				0,
				1
			]
		}
	],
	"nodes":[
		{
			"mesh":0,
			"name":"obj_stairs_mesh"
		},
		{
			"mesh":1,
			"name":"obj_stairs_collider"
		}
	],
	"materials":[
		{
			"emissiveFactor":[
				0.10000000149011612,
				0.10000000149011612,
				0.10000000149011612
			],
			"emissiveTexture":{
				"index":0
			},
			"extensions":{
				"KHR_materials_specular":{
					"specularFactor":0
				}
			},
			"name":"obj_stairs",
			"pbrMetallicRoughness":{
				"baseColorTexture":{
					"index":1
				},
				"metallicFactor":0
			}
		}
	],
	"meshes":[
		{
			"name":"Plane.025",
			"primitives":[
				{
					"attributes":{
						"POSITION":0,
						"NORMAL":1,
						"TEXCOORD_0":2
					},
					"indices":3,
					"material":0
				}
			]
		},
		{
			"name":"Plane.076",
			"primitives":[
				{
					"attributes":{
						"POSITION":4,
						"NORMAL":5,
						"TEXCOORD_0":6
					},
					"indices":7
				}
			]
		}
	],
	"textures":[
		{
			"sampler":0,
			"source":0
		},
		{
			"sampler":0,
			"source":0
		}
	],
	"images":[
		{
			"mimeType":"image/png",
			"name":"obj_stairs",
			"uri":"textures/obj_stairs.png"
		}
	],
	"accessors":[
		{
			"bufferView":0,
			"componentType":5126,
			"count":1132,
			"max":[
				6.866280555725098,
				0.31416943669319153,
				6.920658588409424
			],
			"min":[
				-6.866280555725098,
				0.00014016032218933105,
				-4.906463623046875
			],
			"type":"VEC3"
		},
		{
			"bufferView":1,
			"componentType":5126,
			"count":1132,
			"type":"VEC3"
		},
		{
			"bufferView":2,
			"componentType":5126,
			"count":1132,
			"type":"VEC2"
		},
		{
			"bufferView":3,
			"componentType":5123,
			"count":3252,
			"type":"SCALAR"
		},
		{
			"bufferView":4,
			"componentType":5126,
			"count":532,
			"max":[
				6.838723182678223,
				0.30254873633384705,
				6.896430492401123
			],
			"min":[
				-6.838723182678223,
				0.0009999702451750636,
				-4.877372741699219
			],
			"type":"VEC3"
		},
		{
			"bufferView":5,
			"componentType":5126,
			"count":532,
			"type":"VEC3"
		},
		{
			"bufferView":6,
			"componentType":5126,
			"count":532,
			"type":"VEC2"
		},
		{
			"bufferView":7,
			"componentType":5123,
			"count":1236,
			"type":"SCALAR"
		}
	],
	"bufferViews":[
		{
			"buffer":0,
			"byteLength":13584,
			"byteOffset":0,
			"target":34962
		},
		{
			"buffer":0,
			"byteLength":13584,
			"byteOffset":13584,
			"target":34962
		},
		{
			"buffer":0,
			"byteLength":9056,
			"byteOffset":27168,
			"target":34962
		},
		{
			"buffer":0,
			"byteLength":6504,
			"byteOffset":36224,
			"target":34963
		},
		{
			"buffer":0,
			"byteLength":6384,
			"byteOffset":42728,
			"target":34962
		},
		{
			"buffer":0,
			"byteLength":6384,
			"byteOffset":49112,
			"target":34962
		},
		{
			"buffer":0,
			"byteLength":4256,
			"byteOffset":55496,
			"target":34962
		},
		{
			"buffer":0,
			"byteLength":2472,
			"byteOffset":59752,
			"target":34963
		}
	],
	"samplers":[
		{
			"magFilter":9729,
			"minFilter":9987
		}
	],
	"buffers":[
		{
			"byteLength":62224,
			"uri":"obj_stairs.bin"
		}
	]
}
