{
	"asset":{
		"generator":"Khronos glTF Blender I/O v4.2.57",
		"version":"2.0"
	},
	"extensionsUsed":[
		"KHR_materials_specular"
	],
	"scene":0,
	"scenes":[
		{
			"name":"Scene",
			"nodes":[
				0,
				1
			]
		}
	],
	"nodes":[
		{
			"mesh":0,
			"name":"obj_plants_collider"
		},
		{
			"mesh":1,
			"name":"obj_plants"
		}
	],
	"materials":[
		{
			"emissiveFactor":[
				0.10000000149011612,
				0.10000000149011612,
				0.10000000149011612
			],
			"emissiveTexture":{
				"index":0
			},
			"extensions":{
				"KHR_materials_specular":{
					"specularFactor":0
				}
			},
			"name":"obj_plants",
			"pbrMetallicRoughness":{
				"baseColorTexture":{
					"index":1
				},
				"metallicFactor":0
			}
		}
	],
	"meshes":[
		{
			"name":"Cylinder.040",
			"primitives":[
				{
					"attributes":{
						"POSITION":0,
						"NORMAL":1,
						"TEXCOORD_0":2
					},
					"indices":3
				}
			]
		},
		{
			"name":"Cylinder.041",
			"primitives":[
				{
					"attributes":{
						"POSITION":4,
						"NORMAL":5,
						"TEXCOORD_0":6
					},
					"indices":7,
					"material":0
				}
			]
		}
	],
	"textures":[
		{
			"sampler":0,
			"source":0
		},
		{
			"sampler":0,
			"source":0
		}
	],
	"images":[
		{
			"mimeType":"image/png",
			"name":"obj_plants",
			"uri":"textures/obj_plants.png"
		}
	],
	"accessors":[
		{
			"bufferView":0,
			"componentType":5126,
			"count":100,
			"max":[
				7.415466785430908,
				2.2420105934143066,
				7.054937362670898
			],
			"min":[
				-7.415466785430908,
				-0.0008048303425312042,
				-6.9900736808776855
			],
			"type":"VEC3"
		},
		{
			"bufferView":1,
			"componentType":5126,
			"count":100,
			"type":"VEC3"
		},
		{
			"bufferView":2,
			"componentType":5126,
			"count":100,
			"type":"VEC2"
		},
		{
			"bufferView":3,
			"componentType":5123,
			"count":288,
			"type":"SCALAR"
		},
		{
			"bufferView":4,
			"componentType":5126,
			"count":4816,
			"max":[
				7.249117851257324,
				2.0540199279785156,
				6.95599365234375
			],
			"min":[
				-7.249115467071533,
				-0.008536787703633308,
				-6.8201093673706055
			],
			"type":"VEC3"
		},
		{
			"bufferView":5,
			"componentType":5126,
			"count":4816,
			"type":"VEC3"
		},
		{
			"bufferView":6,
			"componentType":5126,
			"count":4816,
			"type":"VEC2"
		},
		{
			"bufferView":7,
			"componentType":5123,
			"count":16536,
			"type":"SCALAR"
		}
	],
	"bufferViews":[
		{
			"buffer":0,
			"byteLength":1200,
			"byteOffset":0,
			"target":34962
		},
		{
			"buffer":0,
			"byteLength":1200,
			"byteOffset":1200,
			"target":34962
		},
		{
			"buffer":0,
			"byteLength":800,
			"byteOffset":2400,
			"target":34962
		},
		{
			"buffer":0,
			"byteLength":576,
			"byteOffset":3200,
			"target":34963
		},
		{
			"buffer":0,
			"byteLength":57792,
			"byteOffset":3776,
			"target":34962
		},
		{
			"buffer":0,
			"byteLength":57792,
			"byteOffset":61568,
			"target":34962
		},
		{
			"buffer":0,
			"byteLength":38528,
			"byteOffset":119360,
			"target":34962
		},
		{
			"buffer":0,
			"byteLength":33072,
			"byteOffset":157888,
			"target":34963
		}
	],
	"samplers":[
		{
			"magFilter":9729,
			"minFilter":9987
		}
	],
	"buffers":[
		{
			"byteLength":190960,
			"uri":"obj_plants.bin"
		}
	]
}
