{
	"asset":{
		"generator":"Khronos glTF Blender I/O v4.3.47",
		"version":"2.0"
	},
	"extensionsUsed":[
		"KHR_materials_specular",
		"KHR_materials_ior"
	],
	"scene":0,
	"scenes":[
		{
			"name":"Scene",
			"nodes":[
				0,
				1
			]
		}
	],
	"nodes":[
		{
			"mesh":0,
			"name":"obj_wall"
		},
		{
			"mesh":1,
			"name":"obj_wall_collider"
		}
	],
	"materials":[
		{
			"emissiveFactor":[
				0.10000000149011612,
				0.10000000149011612,
				0.10000000149011612
			],
			"emissiveTexture":{
				"index":0
			},
			"extensions":{
				"KHR_materials_specular":{
					"specularFactor":0
				},
				"KHR_materials_ior":{
					"ior":1.4500000476837158
				}
			},
			"name":"obj_wall01",
			"pbrMetallicRoughness":{
				"baseColorTexture":{
					"index":1
				},
				"metallicFactor":0
			}
		},
		{
			"emissiveFactor":[
				0.10000000149011612,
				0.10000000149011612,
				0.10000000149011612
			],
			"emissiveTexture":{
				"index":2
			},
			"extensions":{
				"KHR_materials_specular":{
					"specularFactor":0
				},
				"KHR_materials_ior":{
					"ior":1.4500000476837158
				}
			},
			"name":"obj_wall02",
			"pbrMetallicRoughness":{
				"baseColorTexture":{
					"index":3
				},
				"metallicFactor":0
			}
		},
		{
			"emissiveFactor":[
				0.10000000149011612,
				0.10000000149011612,
				0.10000000149011612
			],
			"emissiveTexture":{
				"index":4
			},
			"extensions":{
				"KHR_materials_specular":{
					"specularFactor":0
				},
				"KHR_materials_ior":{
					"ior":1.4500000476837158
				}
			},
			"name":"obj_wall03",
			"pbrMetallicRoughness":{
				"baseColorTexture":{
					"index":5
				},
				"metallicFactor":0
			}
		},
		{
			"emissiveFactor":[
				0.10000000149011612,
				0.10000000149011612,
				0.10000000149011612
			],
			"emissiveTexture":{
				"index":6
			},
			"extensions":{
				"KHR_materials_specular":{
					"specularFactor":0
				},
				"KHR_materials_ior":{
					"ior":1.4500000476837158
				}
			},
			"name":"obj_wall04",
			"pbrMetallicRoughness":{
				"baseColorTexture":{
					"index":7
				},
				"metallicFactor":0
			}
		},
		{
			"emissiveFactor":[
				0.10000000149011612,
				0.10000000149011612,
				0.10000000149011612
			],
			"emissiveTexture":{
				"index":8
			},
			"extensions":{
				"KHR_materials_specular":{
					"specularFactor":0
				},
				"KHR_materials_ior":{
					"ior":1.4500000476837158
				}
			},
			"name":"obj_wall05",
			"pbrMetallicRoughness":{
				"baseColorTexture":{
					"index":9
				},
				"metallicFactor":0
			}
		}
	],
	"meshes":[
		{
			"name":"obj_wall",
			"primitives":[
				{
					"attributes":{
						"POSITION":0,
						"NORMAL":1,
						"TEXCOORD_0":2
					},
					"indices":3,
					"material":0
				},
				{
					"attributes":{
						"POSITION":4,
						"NORMAL":5,
						"TEXCOORD_0":6
					},
					"indices":7,
					"material":1
				},
				{
					"attributes":{
						"POSITION":8,
						"NORMAL":9,
						"TEXCOORD_0":10
					},
					"indices":11,
					"material":2
				},
				{
					"attributes":{
						"POSITION":12,
						"NORMAL":13,
						"TEXCOORD_0":14
					},
					"indices":15,
					"material":3
				},
				{
					"attributes":{
						"POSITION":16,
						"NORMAL":17,
						"TEXCOORD_0":18
					},
					"indices":19,
					"material":4
				}
			]
		},
		{
			"name":"obj_wall_collider",
			"primitives":[
				{
					"attributes":{
						"POSITION":20,
						"NORMAL":21,
						"TEXCOORD_0":22
					},
					"indices":23
				}
			]
		}
	],
	"textures":[
		{
			"sampler":0,
			"source":0
		},
		{
			"sampler":0,
			"source":0
		},
		{
			"sampler":0,
			"source":1
		},
		{
			"sampler":0,
			"source":1
		},
		{
			"sampler":0,
			"source":2
		},
		{
			"sampler":0,
			"source":2
		},
		{
			"sampler":0,
			"source":3
		},
		{
			"sampler":0,
			"source":3
		},
		{
			"sampler":0,
			"source":4
		},
		{
			"sampler":0,
			"source":4
		}
	],
	"images":[
		{
			"mimeType":"image/png",
			"name":"obj_wall01",
			"uri":"textures/obj_wall01.png"
		},
		{
			"mimeType":"image/png",
			"name":"obj_wall02",
			"uri":"textures/obj_wall02.png"
		},
		{
			"mimeType":"image/png",
			"name":"obj_wall03",
			"uri":"textures/obj_wall03.png"
		},
		{
			"mimeType":"image/png",
			"name":"obj_wall04",
			"uri":"textures/obj_wall04.png"
		},
		{
			"mimeType":"image/png",
			"name":"obj_wall05",
			"uri":"textures/obj_wall05.png"
		}
	],
	"accessors":[
		{
			"bufferView":0,
			"componentType":5126,
			"count":288,
			"max":[
				7.899039268493652,
				5.743062973022461,
				7.777627468109131
			],
			"min":[
				-7.899039268493652,
				0.3950057923793793,
				-7.907832145690918
			],
			"type":"VEC3"
		},
		{
			"bufferView":1,
			"componentType":5126,
			"count":288,
			"type":"VEC3"
		},
		{
			"bufferView":2,
			"componentType":5126,
			"count":288,
			"type":"VEC2"
		},
		{
			"bufferView":3,
			"componentType":5123,
			"count":432,
			"type":"SCALAR"
		},
		{
			"bufferView":4,
			"componentType":5126,
			"count":1536,
			"max":[
				7.228067398071289,
				5.513279438018799,
				7.537333011627197
			],
			"min":[
				-7.228067398071289,
				0.3950057923793793,
				-7.105295181274414
			],
			"type":"VEC3"
		},
		{
			"bufferView":5,
			"componentType":5126,
			"count":1536,
			"type":"VEC3"
		},
		{
			"bufferView":6,
			"componentType":5126,
			"count":1536,
			"type":"VEC2"
		},
		{
			"bufferView":7,
			"componentType":5123,
			"count":2304,
			"type":"SCALAR"
		},
		{
			"bufferView":8,
			"componentType":5126,
			"count":584,
			"max":[
				6.759621620178223,
				7.251720428466797,
				7.776097774505615
			],
			"min":[
				-6.759621620178223,
				0.16084060072898865,
				-6.444990158081055
			],
			"type":"VEC3"
		},
		{
			"bufferView":9,
			"componentType":5126,
			"count":584,
			"type":"VEC3"
		},
		{
			"bufferView":10,
			"componentType":5126,
			"count":584,
			"type":"VEC2"
		},
		{
			"bufferView":11,
			"componentType":5123,
			"count":2064,
			"type":"SCALAR"
		},
		{
			"bufferView":12,
			"componentType":5126,
			"count":490,
			"max":[
				7.211382865905762,
				3.11594557762146,
				5.694370746612549
			],
			"min":[
				-7.211382865905762,
				0.38777703046798706,
				-6.9870219230651855
			],
			"type":"VEC3"
		},
		{
			"bufferView":13,
			"componentType":5126,
			"count":490,
			"type":"VEC3"
		},
		{
			"bufferView":14,
			"componentType":5126,
			"count":490,
			"type":"VEC2"
		},
		{
			"bufferView":15,
			"componentType":5123,
			"count":1056,
			"type":"SCALAR"
		},
		{
			"bufferView":16,
			"componentType":5126,
			"count":648,
			"max":[
				4.745062828063965,
				5.206032752990723,
				-6.535826683044434
			],
			"min":[
				-4.745062828063965,
				1.0340380668640137,
				-6.987022399902344
			],
			"type":"VEC3"
		},
		{
			"bufferView":17,
			"componentType":5126,
			"count":648,
			"type":"VEC3"
		},
		{
			"bufferView":18,
			"componentType":5126,
			"count":648,
			"type":"VEC2"
		},
		{
			"bufferView":19,
			"componentType":5123,
			"count":972,
			"type":"SCALAR"
		},
		{
			"bufferView":20,
			"componentType":5126,
			"count":1078,
			"max":[
				7.899037837982178,
				7.25441837310791,
				7.777625560760498
			],
			"min":[
				-7.899037837982178,
				0.16084222495555878,
				-7.907833576202393
			],
			"type":"VEC3"
		},
		{
			"bufferView":21,
			"componentType":5126,
			"count":1078,
			"type":"VEC3"
		},
		{
			"bufferView":22,
			"componentType":5126,
			"count":1078,
			"type":"VEC2"
		},
		{
			"bufferView":23,
			"componentType":5123,
			"count":1794,
			"type":"SCALAR"
		}
	],
	"bufferViews":[
		{
			"buffer":0,
			"byteLength":3456,
			"byteOffset":0,
			"target":34962
		},
		{
			"buffer":0,
			"byteLength":3456,
			"byteOffset":3456,
			"target":34962
		},
		{
			"buffer":0,
			"byteLength":2304,
			"byteOffset":6912,
			"target":34962
		},
		{
			"buffer":0,
			"byteLength":864,
			"byteOffset":9216,
			"target":34963
		},
		{
			"buffer":0,
			"byteLength":18432,
			"byteOffset":10080,
			"target":34962
		},
		{
			"buffer":0,
			"byteLength":18432,
			"byteOffset":28512,
			"target":34962
		},
		{
			"buffer":0,
			"byteLength":12288,
			"byteOffset":46944,
			"target":34962
		},
		{
			"buffer":0,
			"byteLength":4608,
			"byteOffset":59232,
			"target":34963
		},
		{
			"buffer":0,
			"byteLength":7008,
			"byteOffset":63840,
			"target":34962
		},
		{
			"buffer":0,
			"byteLength":7008,
			"byteOffset":70848,
			"target":34962
		},
		{
			"buffer":0,
			"byteLength":4672,
			"byteOffset":77856,
			"target":34962
		},
		{
			"buffer":0,
			"byteLength":4128,
			"byteOffset":82528,
			"target":34963
		},
		{
			"buffer":0,
			"byteLength":5880,
			"byteOffset":86656,
			"target":34962
		},
		{
			"buffer":0,
			"byteLength":5880,
			"byteOffset":92536,
			"target":34962
		},
		{
			"buffer":0,
			"byteLength":3920,
			"byteOffset":98416,
			"target":34962
		},
		{
			"buffer":0,
			"byteLength":2112,
			"byteOffset":102336,
			"target":34963
		},
		{
			"buffer":0,
			"byteLength":7776,
			"byteOffset":104448,
			"target":34962
		},
		{
			"buffer":0,
			"byteLength":7776,
			"byteOffset":112224,
			"target":34962
		},
		{
			"buffer":0,
			"byteLength":5184,
			"byteOffset":120000,
			"target":34962
		},
		{
			"buffer":0,
			"byteLength":1944,
			"byteOffset":125184,
			"target":34963
		},
		{
			"buffer":0,
			"byteLength":12936,
			"byteOffset":127128,
			"target":34962
		},
		{
			"buffer":0,
			"byteLength":12936,
			"byteOffset":140064,
			"target":34962
		},
		{
			"buffer":0,
			"byteLength":8624,
			"byteOffset":153000,
			"target":34962
		},
		{
			"buffer":0,
			"byteLength":3588,
			"byteOffset":161624,
			"target":34963
		}
	],
	"samplers":[
		{
			"magFilter":9729,
			"minFilter":9987
		}
	],
	"buffers":[
		{
			"byteLength":165212,
			"uri":"obj_wall.bin"
		}
	]
}
