{
	"asset":{
		"generator":"Khronos glTF Blender I/O v4.3.47",
		"version":"2.0"
	},
	"extensionsUsed":[
		"KHR_materials_specular",
		"KHR_materials_ior"
	],
	"scene":0,
	"scenes":[
		{
			"name":"Scene",
			"nodes":[
				0,
				1
			]
		}
	],
	"nodes":[
		{
			"mesh":0,
			"name":"obj_fence"
		},
		{
			"mesh":1,
			"name":"obj_fence_collider"
		}
	],
	"materials":[
		{
			"doubleSided":true,
			"emissiveFactor":[
				0.10000000149011612,
				0.10000000149011612,
				0.10000000149011612
			],
			"emissiveTexture":{
				"index":0
			},
			"extensions":{
				"KHR_materials_specular":{
					"specularFactor":0
				},
				"KHR_materials_ior":{
					"ior":1.4500000476837158
				}
			},
			"name":"obj_fence",
			"pbrMetallicRoughness":{
				"baseColorTexture":{
					"index":1
				},
				"metallicFactor":0
			}
		},
		{
			"doubleSided":true,
			"emissiveFactor":[
				0.10000000149011612,
				0.10000000149011612,
				0.10000000149011612
			],
			"emissiveTexture":{
				"index":2
			},
			"extensions":{
				"KHR_materials_specular":{
					"specularFactor":0
				},
				"KHR_materials_ior":{
					"ior":1.4500000476837158
				}
			},
			"name":"obj_cactus",
			"pbrMetallicRoughness":{
				"baseColorTexture":{
					"index":3
				},
				"metallicFactor":0
			}
		},
		{
			"doubleSided":true,
			"emissiveFactor":[
				0.10000000149011612,
				0.10000000149011612,
				0.10000000149011612
			],
			"emissiveTexture":{
				"index":4
			},
			"extensions":{
				"KHR_materials_specular":{
					"specularFactor":0
				},
				"KHR_materials_ior":{
					"ior":1.4500000476837158
				}
			},
			"name":"obj_rock",
			"pbrMetallicRoughness":{
				"baseColorTexture":{
					"index":5
				},
				"metallicFactor":0
			}
		}
	],
	"meshes":[
		{
			"name":"Mesh.010",
			"primitives":[
				{
					"attributes":{
						"POSITION":0,
						"NORMAL":1,
						"TEXCOORD_0":2
					},
					"indices":3,
					"material":0
				},
				{
					"attributes":{
						"POSITION":4,
						"NORMAL":5,
						"TEXCOORD_0":6
					},
					"indices":7,
					"material":1
				},
				{
					"attributes":{
						"POSITION":8,
						"NORMAL":9,
						"TEXCOORD_0":10
					},
					"indices":11,
					"material":2
				}
			]
		},
		{
			"name":"Mesh.038",
			"primitives":[
				{
					"attributes":{
						"POSITION":12,
						"NORMAL":13,
						"TEXCOORD_0":14
					},
					"indices":15
				}
			]
		}
	],
	"textures":[
		{
			"sampler":0,
			"source":0
		},
		{
			"sampler":0,
			"source":0
		},
		{
			"sampler":0,
			"source":1
		},
		{
			"sampler":0,
			"source":1
		},
		{
			"sampler":0,
			"source":2
		},
		{
			"sampler":0,
			"source":2
		}
	],
	"images":[
		{
			"mimeType":"image/png",
			"name":"obj_fence",
			"uri":"textures/obj_fence.png"
		},
		{
			"mimeType":"image/png",
			"name":"obj_cactus",
			"uri":"textures/obj_cactus.png"
		},
		{
			"mimeType":"image/png",
			"name":"obj_rock",
			"uri":"textures/obj_rock.png"
		}
	],
	"accessors":[
		{
			"bufferView":0,
			"componentType":5126,
			"count":1368,
			"max":[
				7.855020523071289,
				1.800000548362732,
				7.610467433929443
			],
			"min":[
				-7.855020046234131,
				-5.834924650116591e-07,
				-7.80531120300293
			],
			"type":"VEC3"
		},
		{
			"bufferView":1,
			"componentType":5126,
			"count":1368,
			"type":"VEC3"
		},
		{
			"bufferView":2,
			"componentType":5126,
			"count":1368,
			"type":"VEC2"
		},
		{
			"bufferView":3,
			"componentType":5123,
			"count":2052,
			"type":"SCALAR"
		},
		{
			"bufferView":4,
			"componentType":5126,
			"count":2340,
			"max":[
				7.795596599578857,
				3.2907726764678955,
				1.0791009664535522
			],
			"min":[
				-7.795596599578857,
				-0.0064100660383701324,
				-6.842520713806152
			],
			"type":"VEC3"
		},
		{
			"bufferView":5,
			"componentType":5126,
			"count":2340,
			"type":"VEC3"
		},
		{
			"bufferView":6,
			"componentType":5126,
			"count":2340,
			"type":"VEC2"
		},
		{
			"bufferView":7,
			"componentType":5123,
			"count":10608,
			"type":"SCALAR"
		},
		{
			"bufferView":8,
			"componentType":5126,
			"count":2922,
			"max":[
				7.951881408691406,
				1.3741369247436523,
				1.0495468378067017
			],
			"min":[
				-7.951881408691406,
				-0.14594680070877075,
				-7.77154541015625
			],
			"type":"VEC3"
		},
		{
			"bufferView":9,
			"componentType":5126,
			"count":2922,
			"type":"VEC3"
		},
		{
			"bufferView":10,
			"componentType":5126,
			"count":2922,
			"type":"VEC2"
		},
		{
			"bufferView":11,
			"componentType":5123,
			"count":4812,
			"type":"SCALAR"
		},
		{
			"bufferView":12,
			"componentType":5126,
			"count":1184,
			"max":[
				7.951137065887451,
				3.28739333152771,
				7.610467433929443
			],
			"min":[
				-7.951137065887451,
				-5.801018119200307e-07,
				-7.8053107261657715
			],
			"type":"VEC3"
		},
		{
			"bufferView":13,
			"componentType":5126,
			"count":1184,
			"type":"VEC3"
		},
		{
			"bufferView":14,
			"componentType":5126,
			"count":1184,
			"type":"VEC2"
		},
		{
			"bufferView":15,
			"componentType":5123,
			"count":1860,
			"type":"SCALAR"
		}
	],
	"bufferViews":[
		{
			"buffer":0,
			"byteLength":16416,
			"byteOffset":0,
			"target":34962
		},
		{
			"buffer":0,
			"byteLength":16416,
			"byteOffset":16416,
			"target":34962
		},
		{
			"buffer":0,
			"byteLength":10944,
			"byteOffset":32832,
			"target":34962
		},
		{
			"buffer":0,
			"byteLength":4104,
			"byteOffset":43776,
			"target":34963
		},
		{
			"buffer":0,
			"byteLength":28080,
			"byteOffset":47880,
			"target":34962
		},
		{
			"buffer":0,
			"byteLength":28080,
			"byteOffset":75960,
			"target":34962
		},
		{
			"buffer":0,
			"byteLength":18720,
			"byteOffset":104040,
			"target":34962
		},
		{
			"buffer":0,
			"byteLength":21216,
			"byteOffset":122760,
			"target":34963
		},
		{
			"buffer":0,
			"byteLength":35064,
			"byteOffset":143976,
			"target":34962
		},
		{
			"buffer":0,
			"byteLength":35064,
			"byteOffset":179040,
			"target":34962
		},
		{
			"buffer":0,
			"byteLength":23376,
			"byteOffset":214104,
			"target":34962
		},
		{
			"buffer":0,
			"byteLength":9624,
			"byteOffset":237480,
			"target":34963
		},
		{
			"buffer":0,
			"byteLength":14208,
			"byteOffset":247104,
			"target":34962
		},
		{
			"buffer":0,
			"byteLength":14208,
			"byteOffset":261312,
			"target":34962
		},
		{
			"buffer":0,
			"byteLength":9472,
			"byteOffset":275520,
			"target":34962
		},
		{
			"buffer":0,
			"byteLength":3720,
			"byteOffset":284992,
			"target":34963
		}
	],
	"samplers":[
		{
			"magFilter":9729,
			"minFilter":9987
		}
	],
	"buffers":[
		{
			"byteLength":288712,
			"uri":"obj_fence.bin"
		}
	]
}
