{
	"asset":{
		"generator":"Khronos glTF Blender I/O v4.3.47",
		"version":"2.0"
	},
	"extensionsUsed":[
		"KHR_materials_specular",
		"KHR_materials_ior"
	],
	"scene":0,
	"scenes":[
		{
			"name":"Scene",
			"nodes":[
				0,
				1
			]
		}
	],
	"nodes":[
		{
			"mesh":0,
			"name":"obj_barrel"
		},
		{
			"mesh":1,
			"name":"obj_barrel_collider"
		}
	],
	"materials":[
		{
			"doubleSided":true,
			"emissiveFactor":[
				0.10000000149011612,
				0.10000000149011612,
				0.10000000149011612
			],
			"emissiveTexture":{
				"index":0
			},
			"extensions":{
				"KHR_materials_specular":{
					"specularFactor":0
				},
				"KHR_materials_ior":{
					"ior":1.4500000476837158
				}
			},
			"name":"obj_barrel",
			"pbrMetallicRoughness":{
				"baseColorTexture":{
					"index":1
				},
				"metallicFactor":0
			}
		}
	],
	"meshes":[
		{
			"name":"Mesh.014",
			"primitives":[
				{
					"attributes":{
						"POSITION":0,
						"NORMAL":1,
						"TEXCOORD_0":2
					},
					"indices":3,
					"material":0
				}
			]
		},
		{
			"name":"Mesh.035",
			"primitives":[
				{
					"attributes":{
						"POSITION":4,
						"NORMAL":5,
						"TEXCOORD_0":6
					},
					"indices":7,
					"material":0
				}
			]
		}
	],
	"textures":[
		{
			"sampler":0,
			"source":0
		},
		{
			"sampler":0,
			"source":0
		}
	],
	"images":[
		{
			"mimeType":"image/png",
			"name":"obj_barrel",
			"uri":"textures/obj_barrel.png"
		}
	],
	"accessors":[
		{
			"bufferView":0,
			"componentType":5126,
			"count":5404,
			"max":[
				6.720391273498535,
				1.6172904968261719,
				7.375675678253174
			],
			"min":[
				-6.720391273498535,
				0.3850002586841583,
				1.3232725858688354
			],
			"type":"VEC3"
		},
		{
			"bufferView":1,
			"componentType":5126,
			"count":5404,
			"type":"VEC3"
		},
		{
			"bufferView":2,
			"componentType":5126,
			"count":5404,
			"type":"VEC2"
		},
		{
			"bufferView":3,
			"componentType":5123,
			"count":16368,
			"type":"SCALAR"
		},
		{
			"bufferView":4,
			"componentType":5126,
			"count":456,
			"max":[
				6.743552207946777,
				1.6163274049758911,
				7.418412685394287
			],
			"min":[
				-6.761420249938965,
				0.38500022888183594,
				1.2959367036819458
			],
			"type":"VEC3"
		},
		{
			"bufferView":5,
			"componentType":5126,
			"count":456,
			"type":"VEC3"
		},
		{
			"bufferView":6,
			"componentType":5126,
			"count":456,
			"type":"VEC2"
		},
		{
			"bufferView":7,
			"componentType":5123,
			"count":864,
			"type":"SCALAR"
		}
	],
	"bufferViews":[
		{
			"buffer":0,
			"byteLength":64848,
			"byteOffset":0,
			"target":34962
		},
		{
			"buffer":0,
			"byteLength":64848,
			"byteOffset":64848,
			"target":34962
		},
		{
			"buffer":0,
			"byteLength":43232,
			"byteOffset":129696,
			"target":34962
		},
		{
			"buffer":0,
			"byteLength":32736,
			"byteOffset":172928,
			"target":34963
		},
		{
			"buffer":0,
			"byteLength":5472,
			"byteOffset":205664,
			"target":34962
		},
		{
			"buffer":0,
			"byteLength":5472,
			"byteOffset":211136,
			"target":34962
		},
		{
			"buffer":0,
			"byteLength":3648,
			"byteOffset":216608,
			"target":34962
		},
		{
			"buffer":0,
			"byteLength":1728,
			"byteOffset":220256,
			"target":34963
		}
	],
	"samplers":[
		{
			"magFilter":9729,
			"minFilter":9987
		}
	],
	"buffers":[
		{
			"byteLength":221984,
			"uri":"obj_barrel.bin"
		}
	]
}
