{
	"asset":{
		"generator":"Khronos glTF Blender I/O v4.2.57",
		"version":"2.0"
	},
	"scene":0,
	"scenes":[
		{
			"name":"Scene",
			"nodes":[
				0,
				1,
				2,
				3,
				4,
				5,
				6,
				7,
				8,
				9,
				10,
				11,
				12,
				13,
				14,
				15
			]
		}
	],
	"nodes":[
		{
			"mesh":0,
			"name":"level01",
			"rotation":[
				0.7071068286895752,
				0,
				0,
				0.7071067690849304
			],
			"scale":[
				0.4363631010055542,
				0.4363631010055542,
				0.4363631010055542
			],
			"translation":[
				-3.26442813873291,
				4.049124240875244,
				-6.914530277252197
			]
		},
		{
			"mesh":1,
			"name":"level03",
			"rotation":[
				0.7071068286895752,
				0,
				0,
				0.7071067690849304
			],
			"scale":[
				0.4363631010055542,
				0.4363631010055542,
				0.4363631010055542
			],
			"translation":[
				-3.26442813873291,
				3.549124240875244,
				-6.914530277252197
			]
		},
		{
			"mesh":2,
			"name":"level05",
			"rotation":[
				0.7071068286895752,
				0,
				0,
				0.7071067690849304
			],
			"scale":[
				0.4363631010055542,
				0.4363631010055542,
				0.4363631010055542
			],
			"translation":[
				-3.26442813873291,
				3.049124240875244,
				-6.914530277252197
			]
		},
		{
			"mesh":3,
			"name":"level07",
			"rotation":[
				0.7071068286895752,
				0,
				0,
				0.7071067690849304
			],
			"scale":[
				0.4363631010055542,
				0.4363631010055542,
				0.4363631010055542
			],
			"translation":[
				-3.26442813873291,
				2.549124240875244,
				-6.914530277252197
			]
		},
		{
			"mesh":4,
			"name":"level09",
			"rotation":[
				0.7071068286895752,
				0,
				0,
				0.7071067690849304
			],
			"scale":[
				0.4363631010055542,
				0.4363631010055542,
				0.4363631010055542
			],
			"translation":[
				-3.26442813873291,
				2.049124240875244,
				-6.914530277252197
			]
		},
		{
			"mesh":5,
			"name":"sfx",
			"rotation":[
				0.7071068286895752,
				0,
				0,
				0.7071067690849304
			],
			"scale":[
				0.4363631010055542,
				0.4363631010055542,
				0.4363631010055542
			],
			"translation":[
				2.6513805389404297,
				1.7783178091049194,
				-6.914530277252197
			]
		},
		{
			"mesh":6,
			"name":"undo",
			"rotation":[
				0.7071068286895752,
				0,
				0,
				0.7071067690849304
			],
			"scale":[
				0.4363631010055542,
				0.4363631010055542,
				0.4363631010055542
			],
			"translation":[
				-3.26442813873291,
				1.3005372285842896,
				-6.914530277252197
			]
		},
		{
			"mesh":7,
			"name":"exit",
			"rotation":[
				0.7071068286895752,
				0,
				0,
				0.7071067690849304
			],
			"scale":[
				0.4363631010055542,
				0.4363631010055542,
				0.4363631010055542
			],
			"translation":[
				2.957981586456299,
				1.2783178091049194,
				-6.914530277252197
			]
		},
		{
			"mesh":8,
			"name":"level02",
			"rotation":[
				0.7071068286895752,
				0,
				0,
				0.7071067690849304
			],
			"scale":[
				0.4363631010055542,
				0.4363631010055542,
				0.4363631010055542
			],
			"translation":[
				-2.6515331268310547,
				4.049124240875244,
				-6.914530277252197
			]
		},
		{
			"mesh":9,
			"name":"level04",
			"rotation":[
				0.7071068286895752,
				0,
				0,
				0.7071067690849304
			],
			"scale":[
				0.4363631010055542,
				0.4363631010055542,
				0.4363631010055542
			],
			"translation":[
				-2.6515331268310547,
				3.549124240875244,
				-6.914530277252197
			]
		},
		{
			"mesh":10,
			"name":"level06",
			"rotation":[
				0.7071068286895752,
				0,
				0,
				0.7071067690849304
			],
			"scale":[
				0.4363631010055542,
				0.4363631010055542,
				0.4363631010055542
			],
			"translation":[
				-2.6515331268310547,
				3.049124240875244,
				-6.914530277252197
			]
		},
		{
			"mesh":11,
			"name":"level08",
			"rotation":[
				0.7071068286895752,
				0,
				0,
				0.7071067690849304
			],
			"scale":[
				0.4363631010055542,
				0.4363631010055542,
				0.4363631010055542
			],
			"translation":[
				-2.6515331268310547,
				2.549124240875244,
				-6.914530277252197
			]
		},
		{
			"mesh":12,
			"name":"music",
			"rotation":[
				0.7071068286895752,
				0,
				0,
				0.7071067690849304
			],
			"scale":[
				0.4363631010055542,
				0.4363631010055542,
				0.4363631010055542
			],
			"translation":[
				3.264582633972168,
				1.7783178091049194,
				-6.914530277252197
			]
		},
		{
			"mesh":13,
			"name":"restart",
			"rotation":[
				0.7071068286895752,
				0,
				0,
				0.7071067690849304
			],
			"scale":[
				0.4363631010055542,
				0.4363631010055542,
				0.4363631010055542
			],
			"translation":[
				-2.6515331268310547,
				1.3005372285842896,
				-6.914530277252197
			]
		},
		{
			"mesh":14,
			"name":"timer",
			"rotation":[
				0.7071068286895752,
				0,
				0,
				0.7071067690849304
			],
			"scale":[
				0.4363631010055542,
				0.4363631010055542,
				0.4363631010055542
			],
			"translation":[
				2.957981586456299,
				4.053521156311035,
				-6.914530277252197
			]
		},
		{
			"mesh":15,
			"name":"steps",
			"rotation":[
				0.7071068286895752,
				0,
				0,
				0.7071067690849304
			],
			"scale":[
				0.4363631010055542,
				0.4363631010055542,
				0.4363631010055542
			],
			"translation":[
				2.957981586456299,
				3.552783727645874,
				-6.914530277252197
			]
		}
	],
	"materials":[
		{
			"doubleSided":true,
			"name":"black",
			"pbrMetallicRoughness":{
				"baseColorFactor":[
					0.800000011920929,
					0.800000011920929,
					0.800000011920929,
					1
				],
				"metallicFactor":0,
				"roughnessFactor":0.5
			}
		}
	],
	"meshes":[
		{
			"name":"Plane.013",
			"primitives":[
				{
					"attributes":{
						"POSITION":0,
						"NORMAL":1,
						"TEXCOORD_0":2
					},
					"indices":3,
					"material":0
				}
			]
		},
		{
			"name":"Plane.039",
			"primitives":[
				{
					"attributes":{
						"POSITION":4,
						"NORMAL":5,
						"TEXCOORD_0":6
					},
					"indices":3,
					"material":0
				}
			]
		},
		{
			"name":"Plane.051",
			"primitives":[
				{
					"attributes":{
						"POSITION":7,
						"NORMAL":8,
						"TEXCOORD_0":9
					},
					"indices":3,
					"material":0
				}
			]
		},
		{
			"name":"Plane.061",
			"primitives":[
				{
					"attributes":{
						"POSITION":10,
						"NORMAL":11,
						"TEXCOORD_0":12
					},
					"indices":3,
					"material":0
				}
			]
		},
		{
			"name":"Plane.063",
			"primitives":[
				{
					"attributes":{
						"POSITION":13,
						"NORMAL":14,
						"TEXCOORD_0":15
					},
					"indices":3,
					"material":0
				}
			]
		},
		{
			"name":"Plane.069",
			"primitives":[
				{
					"attributes":{
						"POSITION":16,
						"NORMAL":17,
						"TEXCOORD_0":18
					},
					"indices":3,
					"material":0
				}
			]
		},
		{
			"name":"Plane.070",
			"primitives":[
				{
					"attributes":{
						"POSITION":19,
						"NORMAL":20,
						"TEXCOORD_0":21
					},
					"indices":3,
					"material":0
				}
			]
		},
		{
			"name":"Plane.091",
			"primitives":[
				{
					"attributes":{
						"POSITION":22,
						"NORMAL":23,
						"TEXCOORD_0":24
					},
					"indices":3,
					"material":0
				}
			]
		},
		{
			"name":"Plane.110",
			"primitives":[
				{
					"attributes":{
						"POSITION":25,
						"NORMAL":26,
						"TEXCOORD_0":27
					},
					"indices":3,
					"material":0
				}
			]
		},
		{
			"name":"Plane.111",
			"primitives":[
				{
					"attributes":{
						"POSITION":28,
						"NORMAL":29,
						"TEXCOORD_0":30
					},
					"indices":3,
					"material":0
				}
			]
		},
		{
			"name":"Plane.112",
			"primitives":[
				{
					"attributes":{
						"POSITION":31,
						"NORMAL":32,
						"TEXCOORD_0":33
					},
					"indices":3,
					"material":0
				}
			]
		},
		{
			"name":"Plane.113",
			"primitives":[
				{
					"attributes":{
						"POSITION":34,
						"NORMAL":35,
						"TEXCOORD_0":36
					},
					"indices":3,
					"material":0
				}
			]
		},
		{
			"name":"Plane.114",
			"primitives":[
				{
					"attributes":{
						"POSITION":37,
						"NORMAL":38,
						"TEXCOORD_0":39
					},
					"indices":3,
					"material":0
				}
			]
		},
		{
			"name":"Plane.115",
			"primitives":[
				{
					"attributes":{
						"POSITION":40,
						"NORMAL":41,
						"TEXCOORD_0":42
					},
					"indices":3,
					"material":0
				}
			]
		},
		{
			"name":"Plane.119",
			"primitives":[
				{
					"attributes":{
						"POSITION":43,
						"NORMAL":44,
						"TEXCOORD_0":45
					},
					"indices":3,
					"material":0
				}
			]
		},
		{
			"name":"Plane.120",
			"primitives":[
				{
					"attributes":{
						"POSITION":46,
						"NORMAL":47,
						"TEXCOORD_0":48
					},
					"indices":3,
					"material":0
				}
			]
		}
	],
	"accessors":[
		{
			"bufferView":0,
			"componentType":5126,
			"count":4,
			"max":[
				0.5,
				0,
				0.5
			],
			"min":[
				-0.5,
				0,
				-0.5
			],
			"type":"VEC3"
		},
		{
			"bufferView":1,
			"componentType":5126,
			"count":4,
			"type":"VEC3"
		},
		{
			"bufferView":2,
			"componentType":5126,
			"count":4,
			"type":"VEC2"
		},
		{
			"bufferView":3,
			"componentType":5123,
			"count":6,
			"type":"SCALAR"
		},
		{
			"bufferView":4,
			"componentType":5126,
			"count":4,
			"max":[
				0.5,
				0,
				0.5
			],
			"min":[
				-0.5,
				0,
				-0.5
			],
			"type":"VEC3"
		},
		{
			"bufferView":5,
			"componentType":5126,
			"count":4,
			"type":"VEC3"
		},
		{
			"bufferView":6,
			"componentType":5126,
			"count":4,
			"type":"VEC2"
		},
		{
			"bufferView":7,
			"componentType":5126,
			"count":4,
			"max":[
				0.5,
				0,
				0.5
			],
			"min":[
				-0.5,
				0,
				-0.5
			],
			"type":"VEC3"
		},
		{
			"bufferView":8,
			"componentType":5126,
			"count":4,
			"type":"VEC3"
		},
		{
			"bufferView":9,
			"componentType":5126,
			"count":4,
			"type":"VEC2"
		},
		{
			"bufferView":10,
			"componentType":5126,
			"count":4,
			"max":[
				0.5,
				0,
				0.5
			],
			"min":[
				-0.5,
				0,
				-0.5
			],
			"type":"VEC3"
		},
		{
			"bufferView":11,
			"componentType":5126,
			"count":4,
			"type":"VEC3"
		},
		{
			"bufferView":12,
			"componentType":5126,
			"count":4,
			"type":"VEC2"
		},
		{
			"bufferView":13,
			"componentType":5126,
			"count":4,
			"max":[
				0.5,
				0,
				0.5
			],
			"min":[
				-0.5,
				0,
				-0.5
			],
			"type":"VEC3"
		},
		{
			"bufferView":14,
			"componentType":5126,
			"count":4,
			"type":"VEC3"
		},
		{
			"bufferView":15,
			"componentType":5126,
			"count":4,
			"type":"VEC2"
		},
		{
			"bufferView":16,
			"componentType":5126,
			"count":4,
			"max":[
				0.5,
				0,
				0.5
			],
			"min":[
				-0.5,
				0,
				-0.5
			],
			"type":"VEC3"
		},
		{
			"bufferView":17,
			"componentType":5126,
			"count":4,
			"type":"VEC3"
		},
		{
			"bufferView":18,
			"componentType":5126,
			"count":4,
			"type":"VEC2"
		},
		{
			"bufferView":19,
			"componentType":5126,
			"count":4,
			"max":[
				0.5,
				0,
				0.5
			],
			"min":[
				-0.5,
				0,
				-0.5
			],
			"type":"VEC3"
		},
		{
			"bufferView":20,
			"componentType":5126,
			"count":4,
			"type":"VEC3"
		},
		{
			"bufferView":21,
			"componentType":5126,
			"count":4,
			"type":"VEC2"
		},
		{
			"bufferView":22,
			"componentType":5126,
			"count":4,
			"max":[
				1.202628254890442,
				0,
				0.5
			],
			"min":[
				-1.202628254890442,
				0,
				-0.5
			],
			"type":"VEC3"
		},
		{
			"bufferView":23,
			"componentType":5126,
			"count":4,
			"type":"VEC3"
		},
		{
			"bufferView":24,
			"componentType":5126,
			"count":4,
			"type":"VEC2"
		},
		{
			"bufferView":25,
			"componentType":5126,
			"count":4,
			"max":[
				0.5,
				3.2584136988589307e-07,
				0.4999999403953552
			],
			"min":[
				-0.5,
				-3.2584136988589307e-07,
				-0.4999999701976776
			],
			"type":"VEC3"
		},
		{
			"bufferView":26,
			"componentType":5126,
			"count":4,
			"type":"VEC3"
		},
		{
			"bufferView":27,
			"componentType":5126,
			"count":4,
			"type":"VEC2"
		},
		{
			"bufferView":28,
			"componentType":5126,
			"count":4,
			"max":[
				0.5,
				3.2584134146418364e-07,
				0.4999999701976776
			],
			"min":[
				-0.5,
				-3.2584134146418364e-07,
				-0.4999999701976776
			],
			"type":"VEC3"
		},
		{
			"bufferView":29,
			"componentType":5126,
			"count":4,
			"type":"VEC3"
		},
		{
			"bufferView":30,
			"componentType":5126,
			"count":4,
			"type":"VEC2"
		},
		{
			"bufferView":31,
			"componentType":5126,
			"count":4,
			"max":[
				0.5,
				3.2584134146418364e-07,
				0.4999999701976776
			],
			"min":[
				-0.5,
				-3.2584134146418364e-07,
				-0.4999999701976776
			],
			"type":"VEC3"
		},
		{
			"bufferView":32,
			"componentType":5126,
			"count":4,
			"type":"VEC3"
		},
		{
			"bufferView":33,
			"componentType":5126,
			"count":4,
			"type":"VEC2"
		},
		{
			"bufferView":34,
			"componentType":5126,
			"count":4,
			"max":[
				0.5,
				3.2584134146418364e-07,
				0.4999999701976776
			],
			"min":[
				-0.5,
				-3.2584136988589307e-07,
				-0.4999999701976776
			],
			"type":"VEC3"
		},
		{
			"bufferView":35,
			"componentType":5126,
			"count":4,
			"type":"VEC3"
		},
		{
			"bufferView":36,
			"componentType":5126,
			"count":4,
			"type":"VEC2"
		},
		{
			"bufferView":37,
			"componentType":5126,
			"count":4,
			"max":[
				0.5,
				3.2584136988589307e-07,
				0.4999999403953552
			],
			"min":[
				-0.5,
				-3.2584136988589307e-07,
				-0.4999999701976776
			],
			"type":"VEC3"
		},
		{
			"bufferView":38,
			"componentType":5126,
			"count":4,
			"type":"VEC3"
		},
		{
			"bufferView":39,
			"componentType":5126,
			"count":4,
			"type":"VEC2"
		},
		{
			"bufferView":40,
			"componentType":5126,
			"count":4,
			"max":[
				0.5,
				3.2584134146418364e-07,
				0.4999999701976776
			],
			"min":[
				-0.5,
				-3.2584136988589307e-07,
				-0.4999999701976776
			],
			"type":"VEC3"
		},
		{
			"bufferView":41,
			"componentType":5126,
			"count":4,
			"type":"VEC3"
		},
		{
			"bufferView":42,
			"componentType":5126,
			"count":4,
			"type":"VEC2"
		},
		{
			"bufferView":43,
			"componentType":5126,
			"count":4,
			"max":[
				1.202628254890442,
				0,
				0.5
			],
			"min":[
				-1.202628254890442,
				0,
				-0.5
			],
			"type":"VEC3"
		},
		{
			"bufferView":44,
			"componentType":5126,
			"count":4,
			"type":"VEC3"
		},
		{
			"bufferView":45,
			"componentType":5126,
			"count":4,
			"type":"VEC2"
		},
		{
			"bufferView":46,
			"componentType":5126,
			"count":4,
			"max":[
				1.202628254890442,
				0,
				0.5
			],
			"min":[
				-1.202628254890442,
				0,
				-0.5
			],
			"type":"VEC3"
		},
		{
			"bufferView":47,
			"componentType":5126,
			"count":4,
			"type":"VEC3"
		},
		{
			"bufferView":48,
			"componentType":5126,
			"count":4,
			"type":"VEC2"
		}
	],
	"bufferViews":[
		{
			"buffer":0,
			"byteLength":48,
			"byteOffset":0,
			"target":34962
		},
		{
			"buffer":0,
			"byteLength":48,
			"byteOffset":48,
			"target":34962
		},
		{
			"buffer":0,
			"byteLength":32,
			"byteOffset":96,
			"target":34962
		},
		{
			"buffer":0,
			"byteLength":12,
			"byteOffset":128,
			"target":34963
		},
		{
			"buffer":0,
			"byteLength":48,
			"byteOffset":140,
			"target":34962
		},
		{
			"buffer":0,
			"byteLength":48,
			"byteOffset":188,
			"target":34962
		},
		{
			"buffer":0,
			"byteLength":32,
			"byteOffset":236,
			"target":34962
		},
		{
			"buffer":0,
			"byteLength":48,
			"byteOffset":268,
			"target":34962
		},
		{
			"buffer":0,
			"byteLength":48,
			"byteOffset":316,
			"target":34962
		},
		{
			"buffer":0,
			"byteLength":32,
			"byteOffset":364,
			"target":34962
		},
		{
			"buffer":0,
			"byteLength":48,
			"byteOffset":396,
			"target":34962
		},
		{
			"buffer":0,
			"byteLength":48,
			"byteOffset":444,
			"target":34962
		},
		{
			"buffer":0,
			"byteLength":32,
			"byteOffset":492,
			"target":34962
		},
		{
			"buffer":0,
			"byteLength":48,
			"byteOffset":524,
			"target":34962
		},
		{
			"buffer":0,
			"byteLength":48,
			"byteOffset":572,
			"target":34962
		},
		{
			"buffer":0,
			"byteLength":32,
			"byteOffset":620,
			"target":34962
		},
		{
			"buffer":0,
			"byteLength":48,
			"byteOffset":652,
			"target":34962
		},
		{
			"buffer":0,
			"byteLength":48,
			"byteOffset":700,
			"target":34962
		},
		{
			"buffer":0,
			"byteLength":32,
			"byteOffset":748,
			"target":34962
		},
		{
			"buffer":0,
			"byteLength":48,
			"byteOffset":780,
			"target":34962
		},
		{
			"buffer":0,
			"byteLength":48,
			"byteOffset":828,
			"target":34962
		},
		{
			"buffer":0,
			"byteLength":32,
			"byteOffset":876,
			"target":34962
		},
		{
			"buffer":0,
			"byteLength":48,
			"byteOffset":908,
			"target":34962
		},
		{
			"buffer":0,
			"byteLength":48,
			"byteOffset":956,
			"target":34962
		},
		{
			"buffer":0,
			"byteLength":32,
			"byteOffset":1004,
			"target":34962
		},
		{
			"buffer":0,
			"byteLength":48,
			"byteOffset":1036,
			"target":34962
		},
		{
			"buffer":0,
			"byteLength":48,
			"byteOffset":1084,
			"target":34962
		},
		{
			"buffer":0,
			"byteLength":32,
			"byteOffset":1132,
			"target":34962
		},
		{
			"buffer":0,
			"byteLength":48,
			"byteOffset":1164,
			"target":34962
		},
		{
			"buffer":0,
			"byteLength":48,
			"byteOffset":1212,
			"target":34962
		},
		{
			"buffer":0,
			"byteLength":32,
			"byteOffset":1260,
			"target":34962
		},
		{
			"buffer":0,
			"byteLength":48,
			"byteOffset":1292,
			"target":34962
		},
		{
			"buffer":0,
			"byteLength":48,
			"byteOffset":1340,
			"target":34962
		},
		{
			"buffer":0,
			"byteLength":32,
			"byteOffset":1388,
			"target":34962
		},
		{
			"buffer":0,
			"byteLength":48,
			"byteOffset":1420,
			"target":34962
		},
		{
			"buffer":0,
			"byteLength":48,
			"byteOffset":1468,
			"target":34962
		},
		{
			"buffer":0,
			"byteLength":32,
			"byteOffset":1516,
			"target":34962
		},
		{
			"buffer":0,
			"byteLength":48,
			"byteOffset":1548,
			"target":34962
		},
		{
			"buffer":0,
			"byteLength":48,
			"byteOffset":1596,
			"target":34962
		},
		{
			"buffer":0,
			"byteLength":32,
			"byteOffset":1644,
			"target":34962
		},
		{
			"buffer":0,
			"byteLength":48,
			"byteOffset":1676,
			"target":34962
		},
		{
			"buffer":0,
			"byteLength":48,
			"byteOffset":1724,
			"target":34962
		},
		{
			"buffer":0,
			"byteLength":32,
			"byteOffset":1772,
			"target":34962
		},
		{
			"buffer":0,
			"byteLength":48,
			"byteOffset":1804,
			"target":34962
		},
		{
			"buffer":0,
			"byteLength":48,
			"byteOffset":1852,
			"target":34962
		},
		{
			"buffer":0,
			"byteLength":32,
			"byteOffset":1900,
			"target":34962
		},
		{
			"buffer":0,
			"byteLength":48,
			"byteOffset":1932,
			"target":34962
		},
		{
			"buffer":0,
			"byteLength":48,
			"byteOffset":1980,
			"target":34962
		},
		{
			"buffer":0,
			"byteLength":32,
			"byteOffset":2028,
			"target":34962
		}
	],
	"buffers":[
		{
			"byteLength":2060,
			"uri":"obj_buttons.bin"
		}
	]
}
