{
	"asset":{
		"generator":"Khronos glTF Blender I/O v4.1.63",
		"version":"2.0"
	},
	"scene":0,
	"scenes":[
		{
			"name":"Scene",
			"nodes":[
				0
			]
		}
	],
	"nodes":[
		{
			"mesh":0,
			"name":"target1_14"
		}
	],
	"meshes":[
		{
			"name":"Mesh.103",
			"primitives":[
				{
					"attributes":{
						"POSITION":0,
						"NORMAL":1,
						"TEXCOORD_0":2
					},
					"indices":3
				}
			]
		}
	],
	"accessors":[
		{
			"bufferView":0,
			"componentType":5126,
			"count":10,
			"max":[
				0.0889797955751419,
				0.3197115957736969,
				-5.692477245133887e-08
			],
			"min":[
				-0.08897987008094788,
				-0.31971144676208496,
				-1.0519986659573988e-07
			],
			"type":"VEC3"
		},
		{
			"bufferView":1,
			"componentType":5126,
			"count":10,
			"type":"VEC3"
		},
		{
			"bufferView":2,
			"componentType":5126,
			"count":10,
			"type":"VEC2"
		},
		{
			"bufferView":3,
			"componentType":5123,
			"count":18,
			"type":"SCALAR"
		}
	],
	"bufferViews":[
		{
			"buffer":0,
			"byteLength":120,
			"byteOffset":0,
			"target":34962
		},
		{
			"buffer":0,
			"byteLength":120,
			"byteOffset":120,
			"target":34962
		},
		{
			"buffer":0,
			"byteLength":80,
			"byteOffset":240,
			"target":34962
		},
		{
			"buffer":0,
			"byteLength":36,
			"byteOffset":320,
			"target":34963
		}
	],
	"buffers":[
		{
			"byteLength":356,
			"uri":"target1_14.bin"
		}
	]
}
