{
	"asset":{
		"generator":"Khronos glTF Blender I/O v4.2.57",
		"version":"2.0"
	},
	"extensionsUsed":[
		"KHR_materials_specular"
	],
	"scene":0,
	"scenes":[
		{
			"name":"Scene",
			"nodes":[
				0,
				1
			]
		}
	],
	"nodes":[
		{
			"mesh":0,
			"name":"obj_wall",
			"scale":[
				0.3889170289039612,
				0.3889170289039612,
				0.3889170289039612
			]
		},
		{
			"mesh":1,
			"name":"obj_wall_collider",
			"scale":[
				0.3889170289039612,
				0.3889170289039612,
				0.3889170289039612
			]
		}
	],
	"materials":[
		{
			"doubleSided":true,
			"extensions":{
				"KHR_materials_specular":{
					"specularFactor":0
				}
			},
			"name":"obj_wall03",
			"pbrMetallicRoughness":{
				"baseColorTexture":{
					"index":0
				},
				"metallicFactor":0
			}
		},
		{
			"doubleSided":true,
			"extensions":{
				"KHR_materials_specular":{
					"specularFactor":0
				}
			},
			"name":"obj_wall04",
			"pbrMetallicRoughness":{
				"baseColorTexture":{
					"index":1
				},
				"metallicFactor":0
			}
		},
		{
			"doubleSided":true,
			"extensions":{
				"KHR_materials_specular":{
					"specularFactor":0
				}
			},
			"name":"obj_wall01",
			"pbrMetallicRoughness":{
				"baseColorTexture":{
					"index":2
				},
				"metallicFactor":0
			}
		},
		{
			"doubleSided":true,
			"extensions":{
				"KHR_materials_specular":{
					"specularFactor":0
				}
			},
			"name":"obj_wall02",
			"pbrMetallicRoughness":{
				"baseColorTexture":{
					"index":3
				},
				"metallicFactor":0
			}
		}
	],
	"meshes":[
		{
			"name":"Cube.023",
			"primitives":[
				{
					"attributes":{
						"POSITION":0,
						"NORMAL":1,
						"TEXCOORD_0":2
					},
					"indices":3,
					"material":0
				},
				{
					"attributes":{
						"POSITION":4,
						"NORMAL":5,
						"TEXCOORD_0":6
					},
					"indices":7,
					"material":1
				},
				{
					"attributes":{
						"POSITION":8,
						"NORMAL":9,
						"TEXCOORD_0":10
					},
					"indices":11,
					"material":2
				},
				{
					"attributes":{
						"POSITION":12,
						"NORMAL":13,
						"TEXCOORD_0":14
					},
					"indices":15,
					"material":3
				}
			]
		},
		{
			"name":"Cube.002",
			"primitives":[
				{
					"attributes":{
						"POSITION":16,
						"NORMAL":17,
						"TEXCOORD_0":18
					},
					"indices":19
				}
			]
		}
	],
	"textures":[
		{
			"sampler":0,
			"source":0
		},
		{
			"sampler":0,
			"source":1
		},
		{
			"sampler":0,
			"source":2
		},
		{
			"sampler":0,
			"source":3
		}
	],
	"images":[
		{
			"mimeType":"image/png",
			"name":"obj_wall03",
			"uri":"textures/obj_wall03.png"
		},
		{
			"mimeType":"image/png",
			"name":"obj_wall04",
			"uri":"textures/obj_wall04.png"
		},
		{
			"mimeType":"image/png",
			"name":"obj_wall01",
			"uri":"textures/obj_wall01.png"
		},
		{
			"mimeType":"image/png",
			"name":"obj_wall02",
			"uri":"textures/obj_wall02.png"
		}
	],
	"accessors":[
		{
			"bufferView":0,
			"componentType":5126,
			"count":139,
			"max":[
				19.28931427001953,
				16.74843978881836,
				-17.65499496459961
			],
			"min":[
				-19.324533462524414,
				0.3856778144836426,
				-19.455101013183594
			],
			"type":"VEC3"
		},
		{
			"bufferView":1,
			"componentType":5126,
			"count":139,
			"type":"VEC3"
		},
		{
			"bufferView":2,
			"componentType":5126,
			"count":139,
			"type":"VEC2"
		},
		{
			"bufferView":3,
			"componentType":5123,
			"count":273,
			"type":"SCALAR"
		},
		{
			"bufferView":4,
			"componentType":5126,
			"count":97,
			"max":[
				19.28931427001953,
				16.74843978881836,
				-17.65499496459961
			],
			"min":[
				3.5684776306152344,
				0.3856775760650635,
				-19.455101013183594
			],
			"type":"VEC3"
		},
		{
			"bufferView":5,
			"componentType":5126,
			"count":97,
			"type":"VEC3"
		},
		{
			"bufferView":6,
			"componentType":5126,
			"count":97,
			"type":"VEC2"
		},
		{
			"bufferView":7,
			"componentType":5123,
			"count":195,
			"type":"SCALAR"
		},
		{
			"bufferView":8,
			"componentType":5126,
			"count":324,
			"max":[
				20.35549545288086,
				14.962810516357422,
				19.511289596557617
			],
			"min":[
				-20.35549545288086,
				0.38568881154060364,
				-19.455101013183594
			],
			"type":"VEC3"
		},
		{
			"bufferView":9,
			"componentType":5126,
			"count":324,
			"type":"VEC3"
		},
		{
			"bufferView":10,
			"componentType":5126,
			"count":324,
			"type":"VEC2"
		},
		{
			"bufferView":11,
			"componentType":5123,
			"count":588,
			"type":"SCALAR"
		},
		{
			"bufferView":12,
			"componentType":5126,
			"count":156,
			"max":[
				20.35549545288086,
				12.641284942626953,
				19.511289596557617
			],
			"min":[
				-20.35549545288086,
				2.3075337409973145,
				-8.959573745727539
			],
			"type":"VEC3"
		},
		{
			"bufferView":13,
			"componentType":5126,
			"count":156,
			"type":"VEC3"
		},
		{
			"bufferView":14,
			"componentType":5126,
			"count":156,
			"type":"VEC2"
		},
		{
			"bufferView":15,
			"componentType":5123,
			"count":396,
			"type":"SCALAR"
		},
		{
			"bufferView":16,
			"componentType":5126,
			"count":716,
			"max":[
				20.35549545288086,
				16.74843978881836,
				19.511289596557617
			],
			"min":[
				-20.35549545288086,
				0.3856775760650635,
				-19.455101013183594
			],
			"type":"VEC3"
		},
		{
			"bufferView":17,
			"componentType":5126,
			"count":716,
			"type":"VEC3"
		},
		{
			"bufferView":18,
			"componentType":5126,
			"count":716,
			"type":"VEC2"
		},
		{
			"bufferView":19,
			"componentType":5123,
			"count":1452,
			"type":"SCALAR"
		}
	],
	"bufferViews":[
		{
			"buffer":0,
			"byteLength":1668,
			"byteOffset":0,
			"target":34962
		},
		{
			"buffer":0,
			"byteLength":1668,
			"byteOffset":1668,
			"target":34962
		},
		{
			"buffer":0,
			"byteLength":1112,
			"byteOffset":3336,
			"target":34962
		},
		{
			"buffer":0,
			"byteLength":546,
			"byteOffset":4448,
			"target":34963
		},
		{
			"buffer":0,
			"byteLength":1164,
			"byteOffset":4996,
			"target":34962
		},
		{
			"buffer":0,
			"byteLength":1164,
			"byteOffset":6160,
			"target":34962
		},
		{
			"buffer":0,
			"byteLength":776,
			"byteOffset":7324,
			"target":34962
		},
		{
			"buffer":0,
			"byteLength":390,
			"byteOffset":8100,
			"target":34963
		},
		{
			"buffer":0,
			"byteLength":3888,
			"byteOffset":8492,
			"target":34962
		},
		{
			"buffer":0,
			"byteLength":3888,
			"byteOffset":12380,
			"target":34962
		},
		{
			"buffer":0,
			"byteLength":2592,
			"byteOffset":16268,
			"target":34962
		},
		{
			"buffer":0,
			"byteLength":1176,
			"byteOffset":18860,
			"target":34963
		},
		{
			"buffer":0,
			"byteLength":1872,
			"byteOffset":20036,
			"target":34962
		},
		{
			"buffer":0,
			"byteLength":1872,
			"byteOffset":21908,
			"target":34962
		},
		{
			"buffer":0,
			"byteLength":1248,
			"byteOffset":23780,
			"target":34962
		},
		{
			"buffer":0,
			"byteLength":792,
			"byteOffset":25028,
			"target":34963
		},
		{
			"buffer":0,
			"byteLength":8592,
			"byteOffset":25820,
			"target":34962
		},
		{
			"buffer":0,
			"byteLength":8592,
			"byteOffset":34412,
			"target":34962
		},
		{
			"buffer":0,
			"byteLength":5728,
			"byteOffset":43004,
			"target":34962
		},
		{
			"buffer":0,
			"byteLength":2904,
			"byteOffset":48732,
			"target":34963
		}
	],
	"samplers":[
		{
			"magFilter":9729,
			"minFilter":9987
		}
	],
	"buffers":[
		{
			"byteLength":51636,
			"uri":"obj_wall.bin"
		}
	]
}
