{
	"asset":{
		"generator":"Khronos glTF Blender I/O v4.3.47",
		"version":"2.0"
	},
	"extensionsUsed":[
		"KHR_materials_specular"
	],
	"scene":0,
	"scenes":[
		{
			"name":"Scene",
			"nodes":[
				0,
				1
			]
		}
	],
	"nodes":[
		{
			"mesh":0,
			"name":"obj_wall"
		},
		{
			"mesh":1,
			"name":"obj_wall_collider"
		}
	],
	"materials":[
		{
			"emissiveFactor":[
				0.20000000298023224,
				0.20000000298023224,
				0.20000000298023224
			],
			"emissiveTexture":{
				"index":0
			},
			"extensions":{
				"KHR_materials_specular":{
					"specularFactor":0
				}
			},
			"name":"obj_wall03",
			"pbrMetallicRoughness":{
				"baseColorTexture":{
					"index":1
				},
				"metallicFactor":0
			}
		},
		{
			"emissiveFactor":[
				0.20000000298023224,
				0.20000000298023224,
				0.20000000298023224
			],
			"emissiveTexture":{
				"index":2
			},
			"extensions":{
				"KHR_materials_specular":{
					"specularFactor":0
				}
			},
			"name":"obj_wall04",
			"pbrMetallicRoughness":{
				"baseColorTexture":{
					"index":3
				},
				"metallicFactor":0
			}
		},
		{
			"emissiveFactor":[
				0.20000000298023224,
				0.20000000298023224,
				0.20000000298023224
			],
			"emissiveTexture":{
				"index":4
			},
			"extensions":{
				"KHR_materials_specular":{
					"specularFactor":0
				}
			},
			"name":"obj_wall01",
			"pbrMetallicRoughness":{
				"baseColorTexture":{
					"index":5
				},
				"metallicFactor":0
			}
		},
		{
			"emissiveFactor":[
				0.20000000298023224,
				0.20000000298023224,
				0.20000000298023224
			],
			"emissiveTexture":{
				"index":6
			},
			"extensions":{
				"KHR_materials_specular":{
					"specularFactor":0
				}
			},
			"name":"obj_wall02",
			"pbrMetallicRoughness":{
				"baseColorTexture":{
					"index":7
				},
				"metallicFactor":0
			}
		}
	],
	"meshes":[
		{
			"name":"obj_wall",
			"primitives":[
				{
					"attributes":{
						"POSITION":0,
						"NORMAL":1,
						"TEXCOORD_0":2
					},
					"indices":3,
					"material":0
				},
				{
					"attributes":{
						"POSITION":4,
						"NORMAL":5,
						"TEXCOORD_0":6
					},
					"indices":7,
					"material":1
				},
				{
					"attributes":{
						"POSITION":8,
						"NORMAL":9,
						"TEXCOORD_0":10
					},
					"indices":11,
					"material":2
				},
				{
					"attributes":{
						"POSITION":12,
						"NORMAL":13,
						"TEXCOORD_0":14
					},
					"indices":15,
					"material":3
				}
			]
		},
		{
			"name":"obj_wall_collider",
			"primitives":[
				{
					"attributes":{
						"POSITION":16,
						"NORMAL":17,
						"TEXCOORD_0":18
					},
					"indices":19
				}
			]
		}
	],
	"textures":[
		{
			"sampler":0,
			"source":0
		},
		{
			"sampler":0,
			"source":0
		},
		{
			"sampler":0,
			"source":1
		},
		{
			"sampler":0,
			"source":1
		},
		{
			"sampler":0,
			"source":2
		},
		{
			"sampler":0,
			"source":2
		},
		{
			"sampler":0,
			"source":3
		},
		{
			"sampler":0,
			"source":3
		}
	],
	"images":[
		{
			"mimeType":"image/png",
			"name":"obj_wall03",
			"uri":"textures/obj_wall03.png"
		},
		{
			"mimeType":"image/png",
			"name":"obj_wall04",
			"uri":"textures/obj_wall04.png"
		},
		{
			"mimeType":"image/png",
			"name":"obj_wall01",
			"uri":"textures/obj_wall01.png"
		},
		{
			"mimeType":"image/png",
			"name":"obj_wall02",
			"uri":"textures/obj_wall02.png"
		}
	],
	"accessors":[
		{
			"bufferView":0,
			"componentType":5126,
			"count":156,
			"max":[
				-1.594807744026184,
				5.819291591644287,
				-6.866328239440918
			],
			"min":[
				-7.515639305114746,
				0.14999648928642273,
				-7.566420078277588
			],
			"type":"VEC3"
		},
		{
			"bufferView":1,
			"componentType":5126,
			"count":156,
			"type":"VEC3"
		},
		{
			"bufferView":2,
			"componentType":5126,
			"count":156,
			"type":"VEC2"
		},
		{
			"bufferView":3,
			"componentType":5123,
			"count":372,
			"type":"SCALAR"
		},
		{
			"bufferView":4,
			"componentType":5126,
			"count":140,
			"max":[
				7.5019426345825195,
				6.513753414154053,
				-6.866328239440918
			],
			"min":[
				1.3878417015075684,
				0.14999648928642273,
				-7.566420078277588
			],
			"type":"VEC3"
		},
		{
			"bufferView":5,
			"componentType":5126,
			"count":140,
			"type":"VEC3"
		},
		{
			"bufferView":6,
			"componentType":5126,
			"count":140,
			"type":"VEC2"
		},
		{
			"bufferView":7,
			"componentType":5123,
			"count":336,
			"type":"SCALAR"
		},
		{
			"bufferView":8,
			"componentType":5126,
			"count":332,
			"max":[
				7.916598796844482,
				5.819291591644287,
				7.588272571563721
			],
			"min":[
				-7.916598796844482,
				0.1500009447336197,
				-7.566420078277588
			],
			"type":"VEC3"
		},
		{
			"bufferView":9,
			"componentType":5126,
			"count":332,
			"type":"VEC3"
		},
		{
			"bufferView":10,
			"componentType":5126,
			"count":332,
			"type":"VEC2"
		},
		{
			"bufferView":11,
			"componentType":5123,
			"count":612,
			"type":"SCALAR"
		},
		{
			"bufferView":12,
			"componentType":5126,
			"count":156,
			"max":[
				7.916598796844482,
				4.91641092300415,
				7.588272571563721
			],
			"min":[
				-7.916598796844482,
				0.897439181804657,
				-3.4845306873321533
			],
			"type":"VEC3"
		},
		{
			"bufferView":13,
			"componentType":5126,
			"count":156,
			"type":"VEC3"
		},
		{
			"bufferView":14,
			"componentType":5126,
			"count":156,
			"type":"VEC2"
		},
		{
			"bufferView":15,
			"componentType":5123,
			"count":396,
			"type":"SCALAR"
		},
		{
			"bufferView":16,
			"componentType":5126,
			"count":716,
			"max":[
				7.916598796844482,
				6.513753414154053,
				7.588272571563721
			],
			"min":[
				-7.916598796844482,
				0.1499965786933899,
				-7.566420078277588
			],
			"type":"VEC3"
		},
		{
			"bufferView":17,
			"componentType":5126,
			"count":716,
			"type":"VEC3"
		},
		{
			"bufferView":18,
			"componentType":5126,
			"count":716,
			"type":"VEC2"
		},
		{
			"bufferView":19,
			"componentType":5123,
			"count":1452,
			"type":"SCALAR"
		}
	],
	"bufferViews":[
		{
			"buffer":0,
			"byteLength":1872,
			"byteOffset":0,
			"target":34962
		},
		{
			"buffer":0,
			"byteLength":1872,
			"byteOffset":1872,
			"target":34962
		},
		{
			"buffer":0,
			"byteLength":1248,
			"byteOffset":3744,
			"target":34962
		},
		{
			"buffer":0,
			"byteLength":744,
			"byteOffset":4992,
			"target":34963
		},
		{
			"buffer":0,
			"byteLength":1680,
			"byteOffset":5736,
			"target":34962
		},
		{
			"buffer":0,
			"byteLength":1680,
			"byteOffset":7416,
			"target":34962
		},
		{
			"buffer":0,
			"byteLength":1120,
			"byteOffset":9096,
			"target":34962
		},
		{
			"buffer":0,
			"byteLength":672,
			"byteOffset":10216,
			"target":34963
		},
		{
			"buffer":0,
			"byteLength":3984,
			"byteOffset":10888,
			"target":34962
		},
		{
			"buffer":0,
			"byteLength":3984,
			"byteOffset":14872,
			"target":34962
		},
		{
			"buffer":0,
			"byteLength":2656,
			"byteOffset":18856,
			"target":34962
		},
		{
			"buffer":0,
			"byteLength":1224,
			"byteOffset":21512,
			"target":34963
		},
		{
			"buffer":0,
			"byteLength":1872,
			"byteOffset":22736,
			"target":34962
		},
		{
			"buffer":0,
			"byteLength":1872,
			"byteOffset":24608,
			"target":34962
		},
		{
			"buffer":0,
			"byteLength":1248,
			"byteOffset":26480,
			"target":34962
		},
		{
			"buffer":0,
			"byteLength":792,
			"byteOffset":27728,
			"target":34963
		},
		{
			"buffer":0,
			"byteLength":8592,
			"byteOffset":28520,
			"target":34962
		},
		{
			"buffer":0,
			"byteLength":8592,
			"byteOffset":37112,
			"target":34962
		},
		{
			"buffer":0,
			"byteLength":5728,
			"byteOffset":45704,
			"target":34962
		},
		{
			"buffer":0,
			"byteLength":2904,
			"byteOffset":51432,
			"target":34963
		}
	],
	"samplers":[
		{
			"magFilter":9729,
			"minFilter":9987
		}
	],
	"buffers":[
		{
			"byteLength":54336,
			"uri":"obj_wall.bin"
		}
	]
}
