{
	"asset":{
		"generator":"Khronos glTF Blender I/O v4.2.57",
		"version":"2.0"
	},
	"extensionsUsed":[
		"KHR_materials_specular"
	],
	"scene":0,
	"scenes":[
		{
			"name":"Scene",
			"nodes":[
				0,
				1,
				2
			]
		}
	],
	"nodes":[
		{
			"mesh":0,
			"name":"obj_grameboy",
			"rotation":[
				0.707106351852417,
				0,
				0,
				0.7071071863174438
			]
		},
		{
			"mesh":1,
			"name":"obj_gameboy_collider",
			"rotation":[
				0.707106351852417,
				0,
				0,
				0.7071071863174438
			]
		},
		{
			"mesh":2,
			"name":"obj_button"
		}
	],
	"materials":[
		{
			"doubleSided":true,
			"emissiveFactor":[
				0.050000011920928955,
				0.050000011920928955,
				0.050000011920928955
			],
			"extensions":{
				"KHR_materials_specular":{
					"specularFactor":0
				}
			},
			"name":"obj_frame01",
			"pbrMetallicRoughness":{
				"baseColorTexture":{
					"index":0
				},
				"metallicFactor":0
			}
		},
		{
			"doubleSided":true,
			"extensions":{
				"KHR_materials_specular":{
					"specularFactor":0
				}
			},
			"name":"obj_frame02",
			"pbrMetallicRoughness":{
				"baseColorTexture":{
					"index":1
				},
				"metallicFactor":0
			}
		},
		{
			"doubleSided":true,
			"extensions":{
				"KHR_materials_specular":{
					"specularFactor":0
				}
			},
			"name":"obj_grid01",
			"pbrMetallicRoughness":{
				"baseColorTexture":{
					"index":2
				},
				"metallicFactor":0
			}
		},
		{
			"doubleSided":true,
			"extensions":{
				"KHR_materials_specular":{
					"specularFactor":0
				}
			},
			"name":"obj_button",
			"pbrMetallicRoughness":{
				"baseColorTexture":{
					"index":3
				},
				"metallicFactor":0
			}
		}
	],
	"meshes":[
		{
			"name":"Mesh.021",
			"primitives":[
				{
					"attributes":{
						"POSITION":0,
						"NORMAL":1,
						"TEXCOORD_0":2,
						"TEXCOORD_1":3
					},
					"indices":4,
					"material":0
				},
				{
					"attributes":{
						"POSITION":5,
						"NORMAL":6,
						"TEXCOORD_0":7,
						"TEXCOORD_1":8
					},
					"indices":9,
					"material":1
				},
				{
					"attributes":{
						"POSITION":10,
						"NORMAL":11,
						"TEXCOORD_0":12,
						"TEXCOORD_1":13
					},
					"indices":14,
					"material":2
				}
			]
		},
		{
			"name":"Mesh.016",
			"primitives":[
				{
					"attributes":{
						"POSITION":15,
						"NORMAL":16
					},
					"indices":17
				}
			]
		},
		{
			"name":"Plane.005",
			"primitives":[
				{
					"attributes":{
						"POSITION":18,
						"NORMAL":19,
						"TEXCOORD_0":20
					},
					"indices":21,
					"material":3
				}
			]
		}
	],
	"textures":[
		{
			"sampler":0,
			"source":0
		},
		{
			"sampler":0,
			"source":1
		},
		{
			"sampler":0,
			"source":2
		},
		{
			"sampler":0,
			"source":3
		}
	],
	"images":[
		{
			"mimeType":"image/png",
			"name":"obj_frame01",
			"uri":"textures/obj_frame01.png"
		},
		{
			"mimeType":"image/png",
			"name":"obj_frame02",
			"uri":"textures/obj_frame02.png"
		},
		{
			"mimeType":"image/png",
			"name":"obj_grid01",
			"uri":"textures/obj_grid01.png"
		},
		{
			"mimeType":"image/png",
			"name":"obj_button",
			"uri":"textures/obj_button.png"
		}
	],
	"accessors":[
		{
			"bufferView":0,
			"componentType":5126,
			"count":706,
			"max":[
				7.198040008544922,
				7.239399433135986,
				-0.19835948944091797
			],
			"min":[
				-7.193728446960449,
				-6.8945631980896,
				-7.096478462219238
			],
			"type":"VEC3"
		},
		{
			"bufferView":1,
			"componentType":5126,
			"count":706,
			"type":"VEC3"
		},
		{
			"bufferView":2,
			"componentType":5126,
			"count":706,
			"type":"VEC2"
		},
		{
			"bufferView":3,
			"componentType":5126,
			"count":706,
			"type":"VEC2"
		},
		{
			"bufferView":4,
			"componentType":5123,
			"count":2796,
			"type":"SCALAR"
		},
		{
			"bufferView":5,
			"componentType":5126,
			"count":3035,
			"max":[
				7.074365615844727,
				7.100409030914307,
				-0.34297215938568115
			],
			"min":[
				-7.074366092681885,
				-6.651447296142578,
				-8.610936164855957
			],
			"type":"VEC3"
		},
		{
			"bufferView":6,
			"componentType":5126,
			"count":3035,
			"type":"VEC3"
		},
		{
			"bufferView":7,
			"componentType":5126,
			"count":3035,
			"type":"VEC2"
		},
		{
			"bufferView":8,
			"componentType":5126,
			"count":3035,
			"type":"VEC2"
		},
		{
			"bufferView":9,
			"componentType":5123,
			"count":8388,
			"type":"SCALAR"
		},
		{
			"bufferView":10,
			"componentType":5126,
			"count":32,
			"max":[
				6.789465427398682,
				5.487546443939209,
				-0.8380768299102783
			],
			"min":[
				-6.789464950561523,
				-6.073153972625732,
				-5.907301425933838
			],
			"type":"VEC3"
		},
		{
			"bufferView":11,
			"componentType":5126,
			"count":32,
			"type":"VEC3"
		},
		{
			"bufferView":12,
			"componentType":5126,
			"count":32,
			"type":"VEC2"
		},
		{
			"bufferView":13,
			"componentType":5126,
			"count":32,
			"type":"VEC2"
		},
		{
			"bufferView":14,
			"componentType":5123,
			"count":90,
			"type":"SCALAR"
		},
		{
			"bufferView":15,
			"componentType":5126,
			"count":144,
			"max":[
				7.198040008544922,
				7.239399433135986,
				-0.19835948944091797
			],
			"min":[
				-7.193728446960449,
				-6.8945631980896,
				-8.610936164855957
			],
			"type":"VEC3"
		},
		{
			"bufferView":16,
			"componentType":5126,
			"count":144,
			"type":"VEC3"
		},
		{
			"bufferView":17,
			"componentType":5123,
			"count":216,
			"type":"SCALAR"
		},
		{
			"bufferView":18,
			"componentType":5126,
			"count":1488,
			"max":[
				6.855943202972412,
				4.868510723114014,
				6.879867076873779
			],
			"min":[
				-6.836297988891602,
				1.487217903137207,
				-6.173296928405762
			],
			"type":"VEC3"
		},
		{
			"bufferView":19,
			"componentType":5126,
			"count":1488,
			"type":"VEC3"
		},
		{
			"bufferView":20,
			"componentType":5126,
			"count":1488,
			"type":"VEC2"
		},
		{
			"bufferView":21,
			"componentType":5123,
			"count":6120,
			"type":"SCALAR"
		}
	],
	"bufferViews":[
		{
			"buffer":0,
			"byteLength":8472,
			"byteOffset":0,
			"target":34962
		},
		{
			"buffer":0,
			"byteLength":8472,
			"byteOffset":8472,
			"target":34962
		},
		{
			"buffer":0,
			"byteLength":5648,
			"byteOffset":16944,
			"target":34962
		},
		{
			"buffer":0,
			"byteLength":5648,
			"byteOffset":22592,
			"target":34962
		},
		{
			"buffer":0,
			"byteLength":5592,
			"byteOffset":28240,
			"target":34963
		},
		{
			"buffer":0,
			"byteLength":36420,
			"byteOffset":33832,
			"target":34962
		},
		{
			"buffer":0,
			"byteLength":36420,
			"byteOffset":70252,
			"target":34962
		},
		{
			"buffer":0,
			"byteLength":24280,
			"byteOffset":106672,
			"target":34962
		},
		{
			"buffer":0,
			"byteLength":24280,
			"byteOffset":130952,
			"target":34962
		},
		{
			"buffer":0,
			"byteLength":16776,
			"byteOffset":155232,
			"target":34963
		},
		{
			"buffer":0,
			"byteLength":384,
			"byteOffset":172008,
			"target":34962
		},
		{
			"buffer":0,
			"byteLength":384,
			"byteOffset":172392,
			"target":34962
		},
		{
			"buffer":0,
			"byteLength":256,
			"byteOffset":172776,
			"target":34962
		},
		{
			"buffer":0,
			"byteLength":256,
			"byteOffset":173032,
			"target":34962
		},
		{
			"buffer":0,
			"byteLength":180,
			"byteOffset":173288,
			"target":34963
		},
		{
			"buffer":0,
			"byteLength":1728,
			"byteOffset":173468,
			"target":34962
		},
		{
			"buffer":0,
			"byteLength":1728,
			"byteOffset":175196,
			"target":34962
		},
		{
			"buffer":0,
			"byteLength":432,
			"byteOffset":176924,
			"target":34963
		},
		{
			"buffer":0,
			"byteLength":17856,
			"byteOffset":177356,
			"target":34962
		},
		{
			"buffer":0,
			"byteLength":17856,
			"byteOffset":195212,
			"target":34962
		},
		{
			"buffer":0,
			"byteLength":11904,
			"byteOffset":213068,
			"target":34962
		},
		{
			"buffer":0,
			"byteLength":12240,
			"byteOffset":224972,
			"target":34963
		}
	],
	"samplers":[
		{
			"magFilter":9729,
			"minFilter":9987
		}
	],
	"buffers":[
		{
			"byteLength":237212,
			"uri":"obj_frame.bin"
		}
	]
}
