{
	"asset":{
		"generator":"Khronos glTF Blender I/O v4.3.47",
		"version":"2.0"
	},
	"extensionsUsed":[
		"KHR_materials_specular"
	],
	"scene":0,
	"scenes":[
		{
			"name":"Scene",
			"nodes":[
				0,
				1
			]
		}
	],
	"nodes":[
		{
			"mesh":0,
			"name":"obj_sofa_collider",
			"translation":[
				-3.801358699798584,
				0.4975111186504364,
				2.4485819339752197
			]
		},
		{
			"mesh":1,
			"name":"obj_sofa",
			"translation":[
				-3.801358699798584,
				0.4975111186504364,
				2.4485819339752197
			]
		}
	],
	"materials":[
		{
			"doubleSided":true,
			"emissiveFactor":[
				0.10000000149011612,
				0.10000000149011612,
				0.10000000149011612
			],
			"emissiveTexture":{
				"index":0
			},
			"extensions":{
				"KHR_materials_specular":{
					"specularFactor":0
				}
			},
			"name":"obj_sofa",
			"pbrMetallicRoughness":{
				"baseColorTexture":{
					"index":1
				},
				"metallicFactor":0
			}
		}
	],
	"meshes":[
		{
			"name":"Plane.007",
			"primitives":[
				{
					"attributes":{
						"POSITION":0,
						"NORMAL":1,
						"TEXCOORD_0":2
					},
					"indices":3
				}
			]
		},
		{
			"name":"Plane.003",
			"primitives":[
				{
					"attributes":{
						"POSITION":4,
						"NORMAL":5,
						"TEXCOORD_0":6
					},
					"indices":7,
					"material":0
				}
			]
		}
	],
	"textures":[
		{
			"sampler":0,
			"source":0
		},
		{
			"sampler":0,
			"source":0
		}
	],
	"images":[
		{
			"mimeType":"image/png",
			"name":"obj_sofa",
			"uri":"textures/obj_sofa.png"
		}
	],
	"accessors":[
		{
			"bufferView":0,
			"componentType":5126,
			"count":136,
			"max":[
				8.866491317749023,
				0.6103464961051941,
				0.5462263822555542
			],
			"min":[
				-1.2637732028961182,
				-0.3441137671470642,
				-0.6463226675987244
			],
			"type":"VEC3"
		},
		{
			"bufferView":1,
			"componentType":5126,
			"count":136,
			"type":"VEC3"
		},
		{
			"bufferView":2,
			"componentType":5126,
			"count":136,
			"type":"VEC2"
		},
		{
			"bufferView":3,
			"componentType":5123,
			"count":612,
			"type":"SCALAR"
		},
		{
			"bufferView":4,
			"componentType":5126,
			"count":1142,
			"max":[
				8.869721412658691,
				0.6102760434150696,
				0.5629070401191711
			],
			"min":[
				-1.267004132270813,
				-0.34684568643569946,
				-0.6449180841445923
			],
			"type":"VEC3"
		},
		{
			"bufferView":5,
			"componentType":5126,
			"count":1142,
			"type":"VEC3"
		},
		{
			"bufferView":6,
			"componentType":5126,
			"count":1142,
			"type":"VEC2"
		},
		{
			"bufferView":7,
			"componentType":5123,
			"count":3720,
			"type":"SCALAR"
		}
	],
	"bufferViews":[
		{
			"buffer":0,
			"byteLength":1632,
			"byteOffset":0,
			"target":34962
		},
		{
			"buffer":0,
			"byteLength":1632,
			"byteOffset":1632,
			"target":34962
		},
		{
			"buffer":0,
			"byteLength":1088,
			"byteOffset":3264,
			"target":34962
		},
		{
			"buffer":0,
			"byteLength":1224,
			"byteOffset":4352,
			"target":34963
		},
		{
			"buffer":0,
			"byteLength":13704,
			"byteOffset":5576,
			"target":34962
		},
		{
			"buffer":0,
			"byteLength":13704,
			"byteOffset":19280,
			"target":34962
		},
		{
			"buffer":0,
			"byteLength":9136,
			"byteOffset":32984,
			"target":34962
		},
		{
			"buffer":0,
			"byteLength":7440,
			"byteOffset":42120,
			"target":34963
		}
	],
	"samplers":[
		{
			"magFilter":9729,
			"minFilter":9987
		}
	],
	"buffers":[
		{
			"byteLength":49560,
			"uri":"obj_sofa.bin"
		}
	]
}
