{
	"asset":{
		"generator":"Khronos glTF Blender I/O v4.2.57",
		"version":"2.0"
	},
	"extensionsUsed":[
		"KHR_materials_specular"
	],
	"scene":0,
	"scenes":[
		{
			"name":"Scene",
			"nodes":[
				0,
				1
			]
		}
	],
	"nodes":[
		{
			"mesh":0,
			"name":"obj_terminal",
			"rotation":[
				0.7071068286895752,
				0,
				0,
				0.7071068286895752
			],
			"translation":[
				0.003577500581741333,
				0.15000098943710327,
				2.174895763397217
			]
		},
		{
			"mesh":1,
			"name":"obj_terminal_collider",
			"rotation":[
				0.7071068286895752,
				0,
				0,
				0.7071068286895752
			],
			"translation":[
				0.003577500581741333,
				0.15000098943710327,
				2.174895763397217
			]
		}
	],
	"materials":[
		{
			"doubleSided":true,
			"emissiveFactor":[
				0.10000000149011612,
				0.10000000149011612,
				0.10000000149011612
			],
			"emissiveTexture":{
				"index":0
			},
			"extensions":{
				"KHR_materials_specular":{
					"specularFactor":0
				}
			},
			"name":"obj_terminal",
			"pbrMetallicRoughness":{
				"baseColorTexture":{
					"index":1
				},
				"metallicFactor":0
			}
		}
	],
	"meshes":[
		{
			"name":"Cube_Cube.001",
			"primitives":[
				{
					"attributes":{
						"POSITION":0,
						"NORMAL":1,
						"TEXCOORD_0":2
					},
					"indices":3,
					"material":0
				}
			]
		},
		{
			"name":"Cube_Cube.003",
			"primitives":[
				{
					"attributes":{
						"POSITION":4,
						"NORMAL":5
					},
					"indices":6
				}
			]
		}
	],
	"textures":[
		{
			"sampler":0,
			"source":0
		},
		{
			"sampler":0,
			"source":0
		}
	],
	"images":[
		{
			"mimeType":"image/png",
			"name":"obj_terminal",
			"uri":"textures/obj_terminal.png"
		}
	],
	"accessors":[
		{
			"bufferView":0,
			"componentType":5126,
			"count":391,
			"max":[
				0.6069101095199585,
				0.38726043701171875,
				0.0009937882423400879
			],
			"min":[
				-0.6069105863571167,
				-0.3843841552734375,
				-1.817090392112732
			],
			"type":"VEC3"
		},
		{
			"bufferView":1,
			"componentType":5126,
			"count":391,
			"type":"VEC3"
		},
		{
			"bufferView":2,
			"componentType":5126,
			"count":391,
			"type":"VEC2"
		},
		{
			"bufferView":3,
			"componentType":5123,
			"count":1518,
			"type":"SCALAR"
		},
		{
			"bufferView":4,
			"componentType":5126,
			"count":24,
			"max":[
				0.6069101095199585,
				0.38726043701171875,
				0.0009937882423400879
			],
			"min":[
				-0.6069105863571167,
				-0.3843841552734375,
				-1.817090392112732
			],
			"type":"VEC3"
		},
		{
			"bufferView":5,
			"componentType":5126,
			"count":24,
			"type":"VEC3"
		},
		{
			"bufferView":6,
			"componentType":5123,
			"count":36,
			"type":"SCALAR"
		}
	],
	"bufferViews":[
		{
			"buffer":0,
			"byteLength":4692,
			"byteOffset":0,
			"target":34962
		},
		{
			"buffer":0,
			"byteLength":4692,
			"byteOffset":4692,
			"target":34962
		},
		{
			"buffer":0,
			"byteLength":3128,
			"byteOffset":9384,
			"target":34962
		},
		{
			"buffer":0,
			"byteLength":3036,
			"byteOffset":12512,
			"target":34963
		},
		{
			"buffer":0,
			"byteLength":288,
			"byteOffset":15548,
			"target":34962
		},
		{
			"buffer":0,
			"byteLength":288,
			"byteOffset":15836,
			"target":34962
		},
		{
			"buffer":0,
			"byteLength":72,
			"byteOffset":16124,
			"target":34963
		}
	],
	"samplers":[
		{
			"magFilter":9729,
			"minFilter":9987
		}
	],
	"buffers":[
		{
			"byteLength":16196,
			"uri":"obj_terminal.bin"
		}
	]
}
