{
	"asset":{
		"generator":"Khronos glTF Blender I/O v4.3.47",
		"version":"2.0"
	},
	"extensionsUsed":[
		"KHR_materials_specular"
	],
	"scene":0,
	"scenes":[
		{
			"name":"Scene",
			"nodes":[
				0,
				1
			]
		}
	],
	"nodes":[
		{
			"mesh":0,
			"name":"obj_floor"
		},
		{
			"mesh":1,
			"name":"obj_floor_collider"
		}
	],
	"materials":[
		{
			"doubleSided":true,
			"emissiveFactor":[
				0.10000000149011612,
				0.10000000149011612,
				0.10000000149011612
			],
			"emissiveTexture":{
				"index":0
			},
			"extensions":{
				"KHR_materials_specular":{
					"specularFactor":0
				}
			},
			"name":"obj_floor",
			"pbrMetallicRoughness":{
				"baseColorTexture":{
					"index":1
				},
				"metallicFactor":0
			}
		}
	],
	"meshes":[
		{
			"name":"Plane.026",
			"primitives":[
				{
					"attributes":{
						"POSITION":0,
						"NORMAL":1,
						"TEXCOORD_0":2
					},
					"indices":3,
					"material":0
				}
			]
		},
		{
			"name":"Plane.001",
			"primitives":[
				{
					"attributes":{
						"POSITION":4,
						"NORMAL":5,
						"TEXCOORD_0":6
					},
					"indices":3
				}
			]
		}
	],
	"textures":[
		{
			"sampler":0,
			"source":0
		},
		{
			"sampler":0,
			"source":0
		}
	],
	"images":[
		{
			"mimeType":"image/png",
			"name":"obj_floor",
			"uri":"textures/obj_floor.png"
		}
	],
	"accessors":[
		{
			"bufferView":0,
			"componentType":5126,
			"count":157,
			"max":[
				8,
				0.14999984204769135,
				8
			],
			"min":[
				-8,
				-4.157423973083496e-06,
				-8
			],
			"type":"VEC3"
		},
		{
			"bufferView":1,
			"componentType":5126,
			"count":157,
			"type":"VEC3"
		},
		{
			"bufferView":2,
			"componentType":5126,
			"count":157,
			"type":"VEC2"
		},
		{
			"bufferView":3,
			"componentType":5123,
			"count":414,
			"type":"SCALAR"
		},
		{
			"bufferView":4,
			"componentType":5126,
			"count":157,
			"max":[
				8,
				0.14999984204769135,
				8
			],
			"min":[
				-8,
				-4.157423973083496e-06,
				-8
			],
			"type":"VEC3"
		},
		{
			"bufferView":5,
			"componentType":5126,
			"count":157,
			"type":"VEC3"
		},
		{
			"bufferView":6,
			"componentType":5126,
			"count":157,
			"type":"VEC2"
		}
	],
	"bufferViews":[
		{
			"buffer":0,
			"byteLength":1884,
			"byteOffset":0,
			"target":34962
		},
		{
			"buffer":0,
			"byteLength":1884,
			"byteOffset":1884,
			"target":34962
		},
		{
			"buffer":0,
			"byteLength":1256,
			"byteOffset":3768,
			"target":34962
		},
		{
			"buffer":0,
			"byteLength":828,
			"byteOffset":5024,
			"target":34963
		},
		{
			"buffer":0,
			"byteLength":1884,
			"byteOffset":5852,
			"target":34962
		},
		{
			"buffer":0,
			"byteLength":1884,
			"byteOffset":7736,
			"target":34962
		},
		{
			"buffer":0,
			"byteLength":1256,
			"byteOffset":9620,
			"target":34962
		}
	],
	"samplers":[
		{
			"magFilter":9729,
			"minFilter":9987
		}
	],
	"buffers":[
		{
			"byteLength":10876,
			"uri":"obj_floor.bin"
		}
	]
}
