{
	"asset":{
		"generator":"Khronos glTF Blender I/O v4.3.47",
		"version":"2.0"
	},
	"extensionsUsed":[
		"KHR_materials_specular"
	],
	"scene":0,
	"scenes":[
		{
			"name":"Scene",
			"nodes":[
				0,
				1,
				2
			]
		}
	],
	"nodes":[
		{
			"mesh":0,
			"name":"obj_grameboy",
			"rotation":[
				0.707106351852417,
				0,
				0,
				0.7071071863174438
			]
		},
		{
			"mesh":1,
			"name":"obj_gameboy_collider",
			"rotation":[
				0.707106351852417,
				0,
				0,
				0.7071071863174438
			]
		},
		{
			"mesh":2,
			"name":"obj_button"
		}
	],
	"materials":[
		{
			"doubleSided":true,
			"emissiveFactor":[
				0.20000000298023224,
				0.20000000298023224,
				0.20000000298023224
			],
			"emissiveTexture":{
				"index":0
			},
			"extensions":{
				"KHR_materials_specular":{
					"specularFactor":0
				}
			},
			"name":"obj_frame01",
			"pbrMetallicRoughness":{
				"baseColorTexture":{
					"index":1
				},
				"metallicFactor":0
			}
		},
		{
			"doubleSided":true,
			"emissiveFactor":[
				0.20000000298023224,
				0.20000000298023224,
				0.20000000298023224
			],
			"emissiveTexture":{
				"index":2
			},
			"extensions":{
				"KHR_materials_specular":{
					"specularFactor":0
				}
			},
			"name":"obj_frame02",
			"pbrMetallicRoughness":{
				"baseColorTexture":{
					"index":3
				},
				"metallicFactor":0
			}
		},
		{
			"doubleSided":true,
			"emissiveFactor":[
				0.10000000149011612,
				0.10000000149011612,
				0.10000000149011612
			],
			"emissiveTexture":{
				"index":4
			},
			"extensions":{
				"KHR_materials_specular":{
					"specularFactor":0
				}
			},
			"name":"obj_grid01",
			"pbrMetallicRoughness":{
				"baseColorTexture":{
					"index":5
				},
				"metallicFactor":0
			}
		},
		{
			"doubleSided":true,
			"emissiveFactor":[
				0.10000000149011612,
				0.10000000149011612,
				0.10000000149011612
			],
			"emissiveTexture":{
				"index":6
			},
			"extensions":{
				"KHR_materials_specular":{
					"specularFactor":0
				}
			},
			"name":"obj_button",
			"pbrMetallicRoughness":{
				"baseColorTexture":{
					"index":7
				},
				"metallicFactor":0
			}
		}
	],
	"meshes":[
		{
			"name":"Mesh.021",
			"primitives":[
				{
					"attributes":{
						"POSITION":0,
						"NORMAL":1,
						"TEXCOORD_0":2,
						"TEXCOORD_1":3
					},
					"indices":4,
					"material":0
				},
				{
					"attributes":{
						"POSITION":5,
						"NORMAL":6,
						"TEXCOORD_0":7,
						"TEXCOORD_1":8
					},
					"indices":9,
					"material":1
				},
				{
					"attributes":{
						"POSITION":10,
						"NORMAL":11,
						"TEXCOORD_0":12,
						"TEXCOORD_1":13
					},
					"indices":14,
					"material":2
				}
			]
		},
		{
			"name":"Mesh.016",
			"primitives":[
				{
					"attributes":{
						"POSITION":15,
						"NORMAL":16
					},
					"indices":17
				}
			]
		},
		{
			"name":"Plane.005",
			"primitives":[
				{
					"attributes":{
						"POSITION":18,
						"NORMAL":19,
						"TEXCOORD_0":20
					},
					"indices":21,
					"material":3
				}
			]
		}
	],
	"textures":[
		{
			"sampler":0,
			"source":0
		},
		{
			"sampler":0,
			"source":0
		},
		{
			"sampler":0,
			"source":1
		},
		{
			"sampler":0,
			"source":1
		},
		{
			"sampler":0,
			"source":2
		},
		{
			"sampler":0,
			"source":2
		},
		{
			"sampler":0,
			"source":3
		},
		{
			"sampler":0,
			"source":3
		}
	],
	"images":[
		{
			"mimeType":"image/png",
			"name":"obj_frame01",
			"uri":"textures/obj_frame01.png"
		},
		{
			"mimeType":"image/png",
			"name":"obj_frame02",
			"uri":"textures/obj_frame02.png"
		},
		{
			"mimeType":"image/png",
			"name":"obj_grid01",
			"uri":"textures/obj_grid01.png"
		},
		{
			"mimeType":"image/png",
			"name":"obj_button",
			"uri":"textures/obj_button.png"
		}
	],
	"accessors":[
		{
			"bufferView":0,
			"componentType":5126,
			"count":706,
			"max":[
				7.198040008544922,
				7.239398956298828,
				-0.19835947453975677
			],
			"min":[
				-7.198040008544922,
				-6.8945631980896,
				-7.096478462219238
			],
			"type":"VEC3"
		},
		{
			"bufferView":1,
			"componentType":5126,
			"count":706,
			"type":"VEC3"
		},
		{
			"bufferView":2,
			"componentType":5126,
			"count":706,
			"type":"VEC2"
		},
		{
			"bufferView":3,
			"componentType":5126,
			"count":706,
			"type":"VEC2"
		},
		{
			"bufferView":4,
			"componentType":5123,
			"count":2796,
			"type":"SCALAR"
		},
		{
			"bufferView":5,
			"componentType":5126,
			"count":3052,
			"max":[
				7.074365615844727,
				7.100409030914307,
				-0.3429722785949707
			],
			"min":[
				-7.074366092681885,
				-6.651447296142578,
				-8.721710205078125
			],
			"type":"VEC3"
		},
		{
			"bufferView":6,
			"componentType":5126,
			"count":3052,
			"type":"VEC3"
		},
		{
			"bufferView":7,
			"componentType":5126,
			"count":3052,
			"type":"VEC2"
		},
		{
			"bufferView":8,
			"componentType":5126,
			"count":3052,
			"type":"VEC2"
		},
		{
			"bufferView":9,
			"componentType":5123,
			"count":8520,
			"type":"SCALAR"
		},
		{
			"bufferView":10,
			"componentType":5126,
			"count":24,
			"max":[
				6.764948844909668,
				5.770815849304199,
				-0.8380764722824097
			],
			"min":[
				-6.764900207519531,
				-6.011810779571533,
				-6.073144912719727
			],
			"type":"VEC3"
		},
		{
			"bufferView":11,
			"componentType":5126,
			"count":24,
			"type":"VEC3"
		},
		{
			"bufferView":12,
			"componentType":5126,
			"count":24,
			"type":"VEC2"
		},
		{
			"bufferView":13,
			"componentType":5126,
			"count":24,
			"type":"VEC2"
		},
		{
			"bufferView":14,
			"componentType":5123,
			"count":42,
			"type":"SCALAR"
		},
		{
			"bufferView":15,
			"componentType":5126,
			"count":144,
			"max":[
				7.198040008544922,
				7.239399433135986,
				-0.19835948944091797
			],
			"min":[
				-7.193728446960449,
				-6.8945631980896,
				-8.721710205078125
			],
			"type":"VEC3"
		},
		{
			"bufferView":16,
			"componentType":5126,
			"count":144,
			"type":"VEC3"
		},
		{
			"bufferView":17,
			"componentType":5123,
			"count":216,
			"type":"SCALAR"
		},
		{
			"bufferView":18,
			"componentType":5126,
			"count":496,
			"max":[
				-6.746710777282715,
				2.376755952835083,
				7.006378173828125
			],
			"min":[
				-6.855942726135254,
				1.4879894256591797,
				2.2324533462524414
			],
			"type":"VEC3"
		},
		{
			"bufferView":19,
			"componentType":5126,
			"count":496,
			"type":"VEC3"
		},
		{
			"bufferView":20,
			"componentType":5126,
			"count":496,
			"type":"VEC2"
		},
		{
			"bufferView":21,
			"componentType":5123,
			"count":2040,
			"type":"SCALAR"
		}
	],
	"bufferViews":[
		{
			"buffer":0,
			"byteLength":8472,
			"byteOffset":0,
			"target":34962
		},
		{
			"buffer":0,
			"byteLength":8472,
			"byteOffset":8472,
			"target":34962
		},
		{
			"buffer":0,
			"byteLength":5648,
			"byteOffset":16944,
			"target":34962
		},
		{
			"buffer":0,
			"byteLength":5648,
			"byteOffset":22592,
			"target":34962
		},
		{
			"buffer":0,
			"byteLength":5592,
			"byteOffset":28240,
			"target":34963
		},
		{
			"buffer":0,
			"byteLength":36624,
			"byteOffset":33832,
			"target":34962
		},
		{
			"buffer":0,
			"byteLength":36624,
			"byteOffset":70456,
			"target":34962
		},
		{
			"buffer":0,
			"byteLength":24416,
			"byteOffset":107080,
			"target":34962
		},
		{
			"buffer":0,
			"byteLength":24416,
			"byteOffset":131496,
			"target":34962
		},
		{
			"buffer":0,
			"byteLength":17040,
			"byteOffset":155912,
			"target":34963
		},
		{
			"buffer":0,
			"byteLength":288,
			"byteOffset":172952,
			"target":34962
		},
		{
			"buffer":0,
			"byteLength":288,
			"byteOffset":173240,
			"target":34962
		},
		{
			"buffer":0,
			"byteLength":192,
			"byteOffset":173528,
			"target":34962
		},
		{
			"buffer":0,
			"byteLength":192,
			"byteOffset":173720,
			"target":34962
		},
		{
			"buffer":0,
			"byteLength":84,
			"byteOffset":173912,
			"target":34963
		},
		{
			"buffer":0,
			"byteLength":1728,
			"byteOffset":173996,
			"target":34962
		},
		{
			"buffer":0,
			"byteLength":1728,
			"byteOffset":175724,
			"target":34962
		},
		{
			"buffer":0,
			"byteLength":432,
			"byteOffset":177452,
			"target":34963
		},
		{
			"buffer":0,
			"byteLength":5952,
			"byteOffset":177884,
			"target":34962
		},
		{
			"buffer":0,
			"byteLength":5952,
			"byteOffset":183836,
			"target":34962
		},
		{
			"buffer":0,
			"byteLength":3968,
			"byteOffset":189788,
			"target":34962
		},
		{
			"buffer":0,
			"byteLength":4080,
			"byteOffset":193756,
			"target":34963
		}
	],
	"samplers":[
		{
			"magFilter":9729,
			"minFilter":9987
		}
	],
	"buffers":[
		{
			"byteLength":197836,
			"uri":"obj_frame.bin"
		}
	]
}
