{
	"asset":{
		"generator":"Khronos glTF Blender I/O v4.3.47",
		"version":"2.0"
	},
	"extensionsUsed":[
		"KHR_materials_specular"
	],
	"scene":0,
	"scenes":[
		{
			"name":"Scene",
			"nodes":[
				0,
				1,
				2
			]
		}
	],
	"nodes":[
		{
			"mesh":0,
			"name":"obj_grameboy"
		},
		{
			"mesh":1,
			"name":"obj_gameboy_collider"
		},
		{
			"mesh":2,
			"name":"obj_button"
		}
	],
	"materials":[
		{
			"emissiveFactor":[
				0.20000000298023224,
				0.20000000298023224,
				0.20000000298023224
			],
			"emissiveTexture":{
				"index":0
			},
			"extensions":{
				"KHR_materials_specular":{
					"specularFactor":0
				}
			},
			"name":"obj_frame01",
			"pbrMetallicRoughness":{
				"baseColorTexture":{
					"index":1
				},
				"metallicFactor":0
			}
		},
		{
			"emissiveFactor":[
				0.20000000298023224,
				0.20000000298023224,
				0.20000000298023224
			],
			"emissiveTexture":{
				"index":2
			},
			"extensions":{
				"KHR_materials_specular":{
					"specularFactor":0
				}
			},
			"name":"obj_frame02",
			"pbrMetallicRoughness":{
				"baseColorTexture":{
					"index":3
				},
				"metallicFactor":0
			}
		},
		{
			"emissiveFactor":[
				0.10000000149011612,
				0.10000000149011612,
				0.10000000149011612
			],
			"emissiveTexture":{
				"index":4
			},
			"extensions":{
				"KHR_materials_specular":{
					"specularFactor":0
				}
			},
			"name":"obj_grid01",
			"pbrMetallicRoughness":{
				"baseColorTexture":{
					"index":5
				},
				"metallicFactor":0
			}
		},
		{
			"emissiveFactor":[
				0.10000000149011612,
				0.10000000149011612,
				0.10000000149011612
			],
			"emissiveTexture":{
				"index":6
			},
			"extensions":{
				"KHR_materials_specular":{
					"specularFactor":0
				}
			},
			"name":"obj_button",
			"pbrMetallicRoughness":{
				"baseColorTexture":{
					"index":7
				},
				"metallicFactor":0
			}
		}
	],
	"meshes":[
		{
			"name":"Mesh.021",
			"primitives":[
				{
					"attributes":{
						"POSITION":0,
						"NORMAL":1,
						"TEXCOORD_0":2,
						"TEXCOORD_1":3
					},
					"indices":4,
					"material":0
				},
				{
					"attributes":{
						"POSITION":5,
						"NORMAL":6,
						"TEXCOORD_0":7,
						"TEXCOORD_1":8
					},
					"indices":9,
					"material":1
				},
				{
					"attributes":{
						"POSITION":10,
						"NORMAL":11,
						"TEXCOORD_0":12,
						"TEXCOORD_1":13
					},
					"indices":14,
					"material":2
				}
			]
		},
		{
			"name":"Mesh.016",
			"primitives":[
				{
					"attributes":{
						"POSITION":15,
						"NORMAL":16
					},
					"indices":17
				}
			]
		},
		{
			"name":"Plane.005",
			"primitives":[
				{
					"attributes":{
						"POSITION":18,
						"NORMAL":19,
						"TEXCOORD_0":20
					},
					"indices":21,
					"material":3
				}
			]
		}
	],
	"textures":[
		{
			"sampler":0,
			"source":0
		},
		{
			"sampler":0,
			"source":0
		},
		{
			"sampler":0,
			"source":1
		},
		{
			"sampler":0,
			"source":1
		},
		{
			"sampler":0,
			"source":2
		},
		{
			"sampler":0,
			"source":2
		},
		{
			"sampler":0,
			"source":3
		},
		{
			"sampler":0,
			"source":3
		}
	],
	"images":[
		{
			"mimeType":"image/png",
			"name":"obj_frame01",
			"uri":"textures/obj_frame01.png"
		},
		{
			"mimeType":"image/png",
			"name":"obj_frame02",
			"uri":"textures/obj_frame02.png"
		},
		{
			"mimeType":"image/png",
			"name":"obj_grid01",
			"uri":"textures/obj_grid01.png"
		},
		{
			"mimeType":"image/png",
			"name":"obj_button",
			"uri":"textures/obj_button.png"
		}
	],
	"accessors":[
		{
			"bufferView":0,
			"componentType":5126,
			"count":678,
			"max":[
				7.196435451507568,
				7.096470355987549,
				7.624652862548828
			],
			"min":[
				-7.196436405181885,
				0.14604783058166504,
				-6.8945722579956055
			],
			"type":"VEC3"
		},
		{
			"bufferView":1,
			"componentType":5126,
			"count":678,
			"type":"VEC3"
		},
		{
			"bufferView":2,
			"componentType":5126,
			"count":678,
			"type":"VEC2"
		},
		{
			"bufferView":3,
			"componentType":5126,
			"count":678,
			"type":"VEC2"
		},
		{
			"bufferView":4,
			"componentType":5123,
			"count":2628,
			"type":"SCALAR"
		},
		{
			"bufferView":5,
			"componentType":5126,
			"count":3087,
			"max":[
				7.074365615844727,
				8.721701622009277,
				7.459853649139404
			],
			"min":[
				-7.074366092681885,
				0.31751322746276855,
				-6.651456832885742
			],
			"type":"VEC3"
		},
		{
			"bufferView":6,
			"componentType":5126,
			"count":3087,
			"type":"VEC3"
		},
		{
			"bufferView":7,
			"componentType":5126,
			"count":3087,
			"type":"VEC2"
		},
		{
			"bufferView":8,
			"componentType":5126,
			"count":3087,
			"type":"VEC2"
		},
		{
			"bufferView":9,
			"componentType":5123,
			"count":8592,
			"type":"SCALAR"
		},
		{
			"bufferView":10,
			"componentType":5126,
			"count":24,
			"max":[
				6.75189208984375,
				6.073137283325195,
				5.770812034606934
			],
			"min":[
				-6.752377986907959,
				0.8380813598632812,
				-6.011817455291748
			],
			"type":"VEC3"
		},
		{
			"bufferView":11,
			"componentType":5126,
			"count":24,
			"type":"VEC3"
		},
		{
			"bufferView":12,
			"componentType":5126,
			"count":24,
			"type":"VEC2"
		},
		{
			"bufferView":13,
			"componentType":5126,
			"count":24,
			"type":"VEC2"
		},
		{
			"bufferView":14,
			"componentType":5123,
			"count":42,
			"type":"SCALAR"
		},
		{
			"bufferView":15,
			"componentType":5126,
			"count":144,
			"max":[
				7.196436405181885,
				8.721701622009277,
				7.624652862548828
			],
			"min":[
				-7.196437835693359,
				0.1460477113723755,
				-6.8945722579956055
			],
			"type":"VEC3"
		},
		{
			"bufferView":16,
			"componentType":5126,
			"count":144,
			"type":"VEC3"
		},
		{
			"bufferView":17,
			"componentType":5123,
			"count":216,
			"type":"SCALAR"
		},
		{
			"bufferView":18,
			"componentType":5126,
			"count":496,
			"max":[
				-6.706363677978516,
				2.513244867324829,
				7.408470630645752
			],
			"min":[
				-6.8291778564453125,
				1.3429206609725952,
				1.902862548828125
			],
			"type":"VEC3"
		},
		{
			"bufferView":19,
			"componentType":5126,
			"count":496,
			"type":"VEC3"
		},
		{
			"bufferView":20,
			"componentType":5126,
			"count":496,
			"type":"VEC2"
		},
		{
			"bufferView":21,
			"componentType":5123,
			"count":2040,
			"type":"SCALAR"
		}
	],
	"bufferViews":[
		{
			"buffer":0,
			"byteLength":8136,
			"byteOffset":0,
			"target":34962
		},
		{
			"buffer":0,
			"byteLength":8136,
			"byteOffset":8136,
			"target":34962
		},
		{
			"buffer":0,
			"byteLength":5424,
			"byteOffset":16272,
			"target":34962
		},
		{
			"buffer":0,
			"byteLength":5424,
			"byteOffset":21696,
			"target":34962
		},
		{
			"buffer":0,
			"byteLength":5256,
			"byteOffset":27120,
			"target":34963
		},
		{
			"buffer":0,
			"byteLength":37044,
			"byteOffset":32376,
			"target":34962
		},
		{
			"buffer":0,
			"byteLength":37044,
			"byteOffset":69420,
			"target":34962
		},
		{
			"buffer":0,
			"byteLength":24696,
			"byteOffset":106464,
			"target":34962
		},
		{
			"buffer":0,
			"byteLength":24696,
			"byteOffset":131160,
			"target":34962
		},
		{
			"buffer":0,
			"byteLength":17184,
			"byteOffset":155856,
			"target":34963
		},
		{
			"buffer":0,
			"byteLength":288,
			"byteOffset":173040,
			"target":34962
		},
		{
			"buffer":0,
			"byteLength":288,
			"byteOffset":173328,
			"target":34962
		},
		{
			"buffer":0,
			"byteLength":192,
			"byteOffset":173616,
			"target":34962
		},
		{
			"buffer":0,
			"byteLength":192,
			"byteOffset":173808,
			"target":34962
		},
		{
			"buffer":0,
			"byteLength":84,
			"byteOffset":174000,
			"target":34963
		},
		{
			"buffer":0,
			"byteLength":1728,
			"byteOffset":174084,
			"target":34962
		},
		{
			"buffer":0,
			"byteLength":1728,
			"byteOffset":175812,
			"target":34962
		},
		{
			"buffer":0,
			"byteLength":432,
			"byteOffset":177540,
			"target":34963
		},
		{
			"buffer":0,
			"byteLength":5952,
			"byteOffset":177972,
			"target":34962
		},
		{
			"buffer":0,
			"byteLength":5952,
			"byteOffset":183924,
			"target":34962
		},
		{
			"buffer":0,
			"byteLength":3968,
			"byteOffset":189876,
			"target":34962
		},
		{
			"buffer":0,
			"byteLength":4080,
			"byteOffset":193844,
			"target":34963
		}
	],
	"samplers":[
		{
			"magFilter":9729,
			"minFilter":9987
		}
	],
	"buffers":[
		{
			"byteLength":197924,
			"uri":"obj_frame.bin"
		}
	]
}
