{
	"asset":{
		"generator":"Khronos glTF Blender I/O v4.2.57",
		"version":"2.0"
	},
	"extensionsUsed":[
		"KHR_materials_specular"
	],
	"scene":0,
	"scenes":[
		{
			"name":"Scene",
			"nodes":[
				0,
				1
			]
		}
	],
	"nodes":[
		{
			"mesh":0,
			"name":"obj_logo"
		},
		{
			"mesh":1,
			"name":"obj_logo_collider"
		}
	],
	"materials":[
		{
			"doubleSided":true,
			"emissiveFactor":[
				0.10000000149011612,
				0.10000000149011612,
				0.10000000149011612
			],
			"emissiveTexture":{
				"index":0
			},
			"extensions":{
				"KHR_materials_specular":{
					"specularFactor":0
				}
			},
			"name":"obj_logo",
			"pbrMetallicRoughness":{
				"baseColorTexture":{
					"index":1
				},
				"metallicFactor":0
			}
		}
	],
	"meshes":[
		{
			"name":"Mesh.024",
			"primitives":[
				{
					"attributes":{
						"POSITION":0,
						"NORMAL":1,
						"TEXCOORD_0":2
					},
					"indices":3,
					"material":0
				}
			]
		},
		{
			"name":"Mesh.025",
			"primitives":[
				{
					"attributes":{
						"POSITION":4,
						"NORMAL":5,
						"TEXCOORD_0":6
					},
					"indices":3
				}
			]
		}
	],
	"textures":[
		{
			"sampler":0,
			"source":0
		},
		{
			"sampler":0,
			"source":0
		}
	],
	"images":[
		{
			"mimeType":"image/png",
			"name":"obj_logo",
			"uri":"textures/obj_logo.png"
		}
	],
	"accessors":[
		{
			"bufferView":0,
			"componentType":5126,
			"count":1866,
			"max":[
				7.175417423248291,
				7.718666076660156,
				7.695427894592285
			],
			"min":[
				-7.175417423248291,
				5.422701835632324,
				-7.433422565460205
			],
			"type":"VEC3"
		},
		{
			"bufferView":1,
			"componentType":5126,
			"count":1866,
			"type":"VEC3"
		},
		{
			"bufferView":2,
			"componentType":5126,
			"count":1866,
			"type":"VEC2"
		},
		{
			"bufferView":3,
			"componentType":5123,
			"count":3648,
			"type":"SCALAR"
		},
		{
			"bufferView":4,
			"componentType":5126,
			"count":1866,
			"max":[
				7.175417423248291,
				7.718666076660156,
				7.695427894592285
			],
			"min":[
				-7.175417423248291,
				5.422701835632324,
				-7.433422565460205
			],
			"type":"VEC3"
		},
		{
			"bufferView":5,
			"componentType":5126,
			"count":1866,
			"type":"VEC3"
		},
		{
			"bufferView":6,
			"componentType":5126,
			"count":1866,
			"type":"VEC2"
		}
	],
	"bufferViews":[
		{
			"buffer":0,
			"byteLength":22392,
			"byteOffset":0,
			"target":34962
		},
		{
			"buffer":0,
			"byteLength":22392,
			"byteOffset":22392,
			"target":34962
		},
		{
			"buffer":0,
			"byteLength":14928,
			"byteOffset":44784,
			"target":34962
		},
		{
			"buffer":0,
			"byteLength":7296,
			"byteOffset":59712,
			"target":34963
		},
		{
			"buffer":0,
			"byteLength":22392,
			"byteOffset":67008,
			"target":34962
		},
		{
			"buffer":0,
			"byteLength":22392,
			"byteOffset":89400,
			"target":34962
		},
		{
			"buffer":0,
			"byteLength":14928,
			"byteOffset":111792,
			"target":34962
		}
	],
	"samplers":[
		{
			"magFilter":9729,
			"minFilter":9987
		}
	],
	"buffers":[
		{
			"byteLength":126720,
			"uri":"obj_logo.bin"
		}
	]
}
