{
	"asset":{
		"generator":"Khronos glTF Blender I/O v4.3.47",
		"version":"2.0"
	},
	"extensionsUsed":[
		"KHR_materials_specular"
	],
	"scene":0,
	"scenes":[
		{
			"name":"Scene",
			"nodes":[
				0,
				1
			]
		}
	],
	"nodes":[
		{
			"mesh":0,
			"name":"obj_whack"
		},
		{
			"mesh":1,
			"name":"obj_whack_collider"
		}
	],
	"materials":[
		{
			"emissiveFactor":[
				0.10000000149011612,
				0.10000000149011612,
				0.10000000149011612
			],
			"emissiveTexture":{
				"index":0
			},
			"extensions":{
				"KHR_materials_specular":{
					"specularFactor":0
				}
			},
			"name":"obj_wall",
			"pbrMetallicRoughness":{
				"baseColorTexture":{
					"index":1
				},
				"metallicFactor":0
			}
		},
		{
			"emissiveFactor":[
				0.10000000149011612,
				0.10000000149011612,
				0.10000000149011612
			],
			"emissiveTexture":{
				"index":2
			},
			"extensions":{
				"KHR_materials_specular":{
					"specularFactor":0
				}
			},
			"name":"obj_floor",
			"pbrMetallicRoughness":{
				"baseColorTexture":{
					"index":3
				},
				"metallicFactor":0
			}
		}
	],
	"meshes":[
		{
			"name":"obj_whack",
			"primitives":[
				{
					"attributes":{
						"POSITION":0,
						"NORMAL":1,
						"TEXCOORD_0":2
					},
					"indices":3,
					"material":0
				},
				{
					"attributes":{
						"POSITION":4,
						"NORMAL":5,
						"TEXCOORD_0":6
					},
					"indices":7,
					"material":1
				}
			]
		},
		{
			"name":"obj_whack_collider",
			"primitives":[
				{
					"attributes":{
						"POSITION":8,
						"NORMAL":9,
						"TEXCOORD_0":10
					},
					"indices":11
				}
			]
		}
	],
	"textures":[
		{
			"sampler":0,
			"source":0
		},
		{
			"sampler":0,
			"source":0
		},
		{
			"sampler":0,
			"source":1
		},
		{
			"sampler":0,
			"source":1
		}
	],
	"images":[
		{
			"mimeType":"image/png",
			"name":"obj_wall",
			"uri":"textures/obj_wall.png"
		},
		{
			"mimeType":"image/png",
			"name":"obj_floor",
			"uri":"textures/obj_floor.png"
		}
	],
	"accessors":[
		{
			"bufferView":0,
			"componentType":5126,
			"count":34,
			"max":[
				3.8304693698883057,
				0.505756139755249,
				-2.104036808013916
			],
			"min":[
				-3.8302085399627686,
				-0.012055429629981518,
				-7.050465106964111
			],
			"type":"VEC3"
		},
		{
			"bufferView":1,
			"componentType":5126,
			"count":34,
			"type":"VEC3"
		},
		{
			"bufferView":2,
			"componentType":5126,
			"count":34,
			"type":"VEC2"
		},
		{
			"bufferView":3,
			"componentType":5123,
			"count":54,
			"type":"SCALAR"
		},
		{
			"bufferView":4,
			"componentType":5126,
			"count":1768,
			"max":[
				3.1131138801574707,
				0.73961341381073,
				-2.7012529373168945
			],
			"min":[
				-3.113115072250366,
				0.5099995136260986,
				-6.6080756187438965
			],
			"type":"VEC3"
		},
		{
			"bufferView":5,
			"componentType":5126,
			"count":1768,
			"type":"VEC3"
		},
		{
			"bufferView":6,
			"componentType":5126,
			"count":1768,
			"type":"VEC2"
		},
		{
			"bufferView":7,
			"componentType":5123,
			"count":4992,
			"type":"SCALAR"
		},
		{
			"bufferView":8,
			"componentType":5126,
			"count":644,
			"max":[
				3.8304693698883057,
				0.7396126985549927,
				-2.104036808013916
			],
			"min":[
				-3.8302083015441895,
				-0.0120571069419384,
				-7.0504655838012695
			],
			"type":"VEC3"
		},
		{
			"bufferView":9,
			"componentType":5126,
			"count":644,
			"type":"VEC3"
		},
		{
			"bufferView":10,
			"componentType":5126,
			"count":644,
			"type":"VEC2"
		},
		{
			"bufferView":11,
			"componentType":5123,
			"count":996,
			"type":"SCALAR"
		}
	],
	"bufferViews":[
		{
			"buffer":0,
			"byteLength":408,
			"byteOffset":0,
			"target":34962
		},
		{
			"buffer":0,
			"byteLength":408,
			"byteOffset":408,
			"target":34962
		},
		{
			"buffer":0,
			"byteLength":272,
			"byteOffset":816,
			"target":34962
		},
		{
			"buffer":0,
			"byteLength":108,
			"byteOffset":1088,
			"target":34963
		},
		{
			"buffer":0,
			"byteLength":21216,
			"byteOffset":1196,
			"target":34962
		},
		{
			"buffer":0,
			"byteLength":21216,
			"byteOffset":22412,
			"target":34962
		},
		{
			"buffer":0,
			"byteLength":14144,
			"byteOffset":43628,
			"target":34962
		},
		{
			"buffer":0,
			"byteLength":9984,
			"byteOffset":57772,
			"target":34963
		},
		{
			"buffer":0,
			"byteLength":7728,
			"byteOffset":67756,
			"target":34962
		},
		{
			"buffer":0,
			"byteLength":7728,
			"byteOffset":75484,
			"target":34962
		},
		{
			"buffer":0,
			"byteLength":5152,
			"byteOffset":83212,
			"target":34962
		},
		{
			"buffer":0,
			"byteLength":1992,
			"byteOffset":88364,
			"target":34963
		}
	],
	"samplers":[
		{
			"magFilter":9729,
			"minFilter":9987
		}
	],
	"buffers":[
		{
			"byteLength":90356,
			"uri":"obj_whack.bin"
		}
	]
}
