{
	"asset":{
		"generator":"Khronos glTF Blender I/O v4.3.47",
		"version":"2.0"
	},
	"extensionsUsed":[
		"KHR_materials_specular"
	],
	"scene":0,
	"scenes":[
		{
			"name":"Scene",
			"nodes":[
				0,
				1
			]
		}
	],
	"nodes":[
		{
			"mesh":0,
			"name":"obj_logo"
		},
		{
			"mesh":1,
			"name":"obj_logo_collider"
		}
	],
	"materials":[
		{
			"emissiveFactor":[
				0.10000000149011612,
				0.10000000149011612,
				0.10000000149011612
			],
			"emissiveTexture":{
				"index":0
			},
			"extensions":{
				"KHR_materials_specular":{
					"specularFactor":0
				}
			},
			"name":"obj_logo01",
			"pbrMetallicRoughness":{
				"baseColorTexture":{
					"index":1
				},
				"metallicFactor":0
			}
		},
		{
			"emissiveFactor":[
				0.10000000149011612,
				0.10000000149011612,
				0.10000000149011612
			],
			"emissiveTexture":{
				"index":2
			},
			"extensions":{
				"KHR_materials_specular":{
					"specularFactor":0
				}
			},
			"name":"obj_logo02",
			"pbrMetallicRoughness":{
				"baseColorTexture":{
					"index":3
				},
				"metallicFactor":0
			}
		},
		{
			"emissiveFactor":[
				0.10000000149011612,
				0.10000000149011612,
				0.10000000149011612
			],
			"emissiveTexture":{
				"index":4
			},
			"extensions":{
				"KHR_materials_specular":{
					"specularFactor":0
				}
			},
			"name":"obj_logo03",
			"pbrMetallicRoughness":{
				"baseColorTexture":{
					"index":5
				},
				"metallicFactor":0
			}
		}
	],
	"meshes":[
		{
			"name":"obj_logo",
			"primitives":[
				{
					"attributes":{
						"POSITION":0,
						"NORMAL":1,
						"TEXCOORD_0":2
					},
					"indices":3,
					"material":0
				},
				{
					"attributes":{
						"POSITION":4,
						"NORMAL":5,
						"TEXCOORD_0":6
					},
					"indices":7,
					"material":1
				},
				{
					"attributes":{
						"POSITION":8,
						"NORMAL":9,
						"TEXCOORD_0":10
					},
					"indices":11,
					"material":2
				}
			]
		},
		{
			"name":"obj_logo_collider",
			"primitives":[
				{
					"attributes":{
						"POSITION":12,
						"NORMAL":13
					},
					"indices":14,
					"material":0
				},
				{
					"attributes":{
						"POSITION":15,
						"NORMAL":16
					},
					"indices":17,
					"material":1
				},
				{
					"attributes":{
						"POSITION":18,
						"NORMAL":19
					},
					"indices":17,
					"material":2
				}
			]
		}
	],
	"textures":[
		{
			"sampler":0,
			"source":0
		},
		{
			"sampler":0,
			"source":0
		},
		{
			"sampler":0,
			"source":1
		},
		{
			"sampler":0,
			"source":1
		},
		{
			"sampler":0,
			"source":2
		},
		{
			"sampler":0,
			"source":2
		}
	],
	"images":[
		{
			"mimeType":"image/png",
			"name":"obj_logo01",
			"uri":"textures/obj_logo01.png"
		},
		{
			"mimeType":"image/png",
			"name":"obj_logo02",
			"uri":"textures/obj_logo02.png"
		},
		{
			"mimeType":"image/png",
			"name":"obj_logo03",
			"uri":"textures/obj_logo03.png"
		}
	],
	"accessors":[
		{
			"bufferView":0,
			"componentType":5126,
			"count":698,
			"max":[
				3.528944730758667,
				6.123291969299316,
				-6.440060138702393
			],
			"min":[
				-3.551819086074829,
				5.308334827423096,
				-6.593245029449463
			],
			"type":"VEC3"
		},
		{
			"bufferView":1,
			"componentType":5126,
			"count":698,
			"type":"VEC3"
		},
		{
			"bufferView":2,
			"componentType":5126,
			"count":698,
			"type":"VEC2"
		},
		{
			"bufferView":3,
			"componentType":5123,
			"count":1296,
			"type":"SCALAR"
		},
		{
			"bufferView":4,
			"componentType":5126,
			"count":334,
			"max":[
				-6.699453353881836,
				4.426836967468262,
				5.66430139541626
			],
			"min":[
				-6.822530746459961,
				3.7615795135498047,
				3.152489185333252
			],
			"type":"VEC3"
		},
		{
			"bufferView":5,
			"componentType":5126,
			"count":334,
			"type":"VEC3"
		},
		{
			"bufferView":6,
			"componentType":5126,
			"count":334,
			"type":"VEC2"
		},
		{
			"bufferView":7,
			"componentType":5123,
			"count":624,
			"type":"SCALAR"
		},
		{
			"bufferView":8,
			"componentType":5126,
			"count":723,
			"max":[
				6.714789390563965,
				4.335026741027832,
				6.392552375793457
			],
			"min":[
				6.618725299835205,
				3.817472219467163,
				2.1490838527679443
			],
			"type":"VEC3"
		},
		{
			"bufferView":9,
			"componentType":5126,
			"count":723,
			"type":"VEC3"
		},
		{
			"bufferView":10,
			"componentType":5126,
			"count":723,
			"type":"VEC2"
		},
		{
			"bufferView":11,
			"componentType":5123,
			"count":1464,
			"type":"SCALAR"
		},
		{
			"bufferView":12,
			"componentType":5126,
			"count":24,
			"max":[
				3.5289900302886963,
				6.123319625854492,
				-6.440059661865234
			],
			"min":[
				-3.5517733097076416,
				5.3083624839782715,
				-6.593245029449463
			],
			"type":"VEC3"
		},
		{
			"bufferView":13,
			"componentType":5126,
			"count":24,
			"type":"VEC3"
		},
		{
			"bufferView":14,
			"componentType":5123,
			"count":36,
			"type":"SCALAR"
		},
		{
			"bufferView":15,
			"componentType":5126,
			"count":24,
			"max":[
				-6.699453830718994,
				4.4268364906311035,
				5.664300441741943
			],
			"min":[
				-6.822531223297119,
				3.7615785598754883,
				3.152489185333252
			],
			"type":"VEC3"
		},
		{
			"bufferView":16,
			"componentType":5126,
			"count":24,
			"type":"VEC3"
		},
		{
			"bufferView":17,
			"componentType":5123,
			"count":36,
			"type":"SCALAR"
		},
		{
			"bufferView":18,
			"componentType":5126,
			"count":24,
			"max":[
				6.714789867401123,
				4.335026741027832,
				6.392552375793457
			],
			"min":[
				6.618725776672363,
				3.817471504211426,
				2.149083375930786
			],
			"type":"VEC3"
		},
		{
			"bufferView":19,
			"componentType":5126,
			"count":24,
			"type":"VEC3"
		}
	],
	"bufferViews":[
		{
			"buffer":0,
			"byteLength":8376,
			"byteOffset":0,
			"target":34962
		},
		{
			"buffer":0,
			"byteLength":8376,
			"byteOffset":8376,
			"target":34962
		},
		{
			"buffer":0,
			"byteLength":5584,
			"byteOffset":16752,
			"target":34962
		},
		{
			"buffer":0,
			"byteLength":2592,
			"byteOffset":22336,
			"target":34963
		},
		{
			"buffer":0,
			"byteLength":4008,
			"byteOffset":24928,
			"target":34962
		},
		{
			"buffer":0,
			"byteLength":4008,
			"byteOffset":28936,
			"target":34962
		},
		{
			"buffer":0,
			"byteLength":2672,
			"byteOffset":32944,
			"target":34962
		},
		{
			"buffer":0,
			"byteLength":1248,
			"byteOffset":35616,
			"target":34963
		},
		{
			"buffer":0,
			"byteLength":8676,
			"byteOffset":36864,
			"target":34962
		},
		{
			"buffer":0,
			"byteLength":8676,
			"byteOffset":45540,
			"target":34962
		},
		{
			"buffer":0,
			"byteLength":5784,
			"byteOffset":54216,
			"target":34962
		},
		{
			"buffer":0,
			"byteLength":2928,
			"byteOffset":60000,
			"target":34963
		},
		{
			"buffer":0,
			"byteLength":288,
			"byteOffset":62928,
			"target":34962
		},
		{
			"buffer":0,
			"byteLength":288,
			"byteOffset":63216,
			"target":34962
		},
		{
			"buffer":0,
			"byteLength":72,
			"byteOffset":63504,
			"target":34963
		},
		{
			"buffer":0,
			"byteLength":288,
			"byteOffset":63576,
			"target":34962
		},
		{
			"buffer":0,
			"byteLength":288,
			"byteOffset":63864,
			"target":34962
		},
		{
			"buffer":0,
			"byteLength":72,
			"byteOffset":64152,
			"target":34963
		},
		{
			"buffer":0,
			"byteLength":288,
			"byteOffset":64224,
			"target":34962
		},
		{
			"buffer":0,
			"byteLength":288,
			"byteOffset":64512,
			"target":34962
		}
	],
	"samplers":[
		{
			"magFilter":9729,
			"minFilter":9987
		}
	],
	"buffers":[
		{
			"byteLength":64800,
			"uri":"obj_logo.bin"
		}
	]
}
