{
	"asset":{
		"generator":"Khronos glTF Blender I/O v4.3.47",
		"version":"2.0"
	},
	"extensionsUsed":[
		"KHR_materials_specular"
	],
	"scene":0,
	"scenes":[
		{
			"name":"Scene",
			"nodes":[
				0,
				1
			]
		}
	],
	"nodes":[
		{
			"mesh":0,
			"name":"obj_snake01"
		},
		{
			"mesh":1,
			"name":"obj_snake01_collider"
		}
	],
	"materials":[
		{
			"doubleSided":true,
			"emissiveFactor":[
				0.10000000149011612,
				0.10000000149011612,
				0.10000000149011612
			],
			"emissiveTexture":{
				"index":0
			},
			"extensions":{
				"KHR_materials_specular":{
					"specularFactor":0
				}
			},
			"name":"obj_snake01",
			"pbrMetallicRoughness":{
				"baseColorTexture":{
					"index":1
				},
				"metallicFactor":0
			}
		}
	],
	"meshes":[
		{
			"name":"obj_snake01",
			"primitives":[
				{
					"attributes":{
						"POSITION":0,
						"NORMAL":1,
						"TEXCOORD_0":2
					},
					"indices":3,
					"material":0
				}
			]
		},
		{
			"name":"obj_snake01_collider",
			"primitives":[
				{
					"attributes":{
						"POSITION":4,
						"NORMAL":5,
						"TEXCOORD_0":6
					},
					"indices":7
				}
			]
		}
	],
	"textures":[
		{
			"sampler":0,
			"source":0
		},
		{
			"sampler":0,
			"source":0
		}
	],
	"images":[
		{
			"mimeType":"image/png",
			"name":"obj_snake01",
			"uri":"textures/obj_snake01.png"
		}
	],
	"accessors":[
		{
			"bufferView":0,
			"componentType":5126,
			"count":606,
			"max":[
				0.3730378746986389,
				-0.11095452308654785,
				0.46111923456192017
			],
			"min":[
				-0.3590986728668213,
				-1.4155614376068115,
				-0.36982104182243347
			],
			"type":"VEC3"
		},
		{
			"bufferView":1,
			"componentType":5126,
			"count":606,
			"type":"VEC3"
		},
		{
			"bufferView":2,
			"componentType":5126,
			"count":606,
			"type":"VEC2"
		},
		{
			"bufferView":3,
			"componentType":5123,
			"count":2616,
			"type":"SCALAR"
		},
		{
			"bufferView":4,
			"componentType":5126,
			"count":73,
			"max":[
				0.37735816836357117,
				-0.07842743396759033,
				0.45738333463668823
			],
			"min":[
				-0.37434133887290955,
				-1.434145450592041,
				-0.3779579699039459
			],
			"type":"VEC3"
		},
		{
			"bufferView":5,
			"componentType":5126,
			"count":73,
			"type":"VEC3"
		},
		{
			"bufferView":6,
			"componentType":5126,
			"count":73,
			"type":"VEC2"
		},
		{
			"bufferView":7,
			"componentType":5123,
			"count":288,
			"type":"SCALAR"
		}
	],
	"bufferViews":[
		{
			"buffer":0,
			"byteLength":7272,
			"byteOffset":0,
			"target":34962
		},
		{
			"buffer":0,
			"byteLength":7272,
			"byteOffset":7272,
			"target":34962
		},
		{
			"buffer":0,
			"byteLength":4848,
			"byteOffset":14544,
			"target":34962
		},
		{
			"buffer":0,
			"byteLength":5232,
			"byteOffset":19392,
			"target":34963
		},
		{
			"buffer":0,
			"byteLength":876,
			"byteOffset":24624,
			"target":34962
		},
		{
			"buffer":0,
			"byteLength":876,
			"byteOffset":25500,
			"target":34962
		},
		{
			"buffer":0,
			"byteLength":584,
			"byteOffset":26376,
			"target":34962
		},
		{
			"buffer":0,
			"byteLength":576,
			"byteOffset":26960,
			"target":34963
		}
	],
	"samplers":[
		{
			"magFilter":9729,
			"minFilter":9987
		}
	],
	"buffers":[
		{
			"byteLength":27536,
			"uri":"obj_snake01.bin"
		}
	]
}
