{
	"asset":{
		"generator":"Khronos glTF Blender I/O v4.3.47",
		"version":"2.0"
	},
	"extensionsUsed":[
		"KHR_materials_specular"
	],
	"scene":0,
	"scenes":[
		{
			"name":"Scene",
			"nodes":[
				0,
				1
			]
		}
	],
	"nodes":[
		{
			"mesh":0,
			"name":"obj_fence"
		},
		{
			"mesh":1,
			"name":"obj_fence_collider"
		}
	],
	"materials":[
		{
			"doubleSided":true,
			"emissiveFactor":[
				0.10000000149011612,
				0.10000000149011612,
				0.10000000149011612
			],
			"emissiveTexture":{
				"index":0
			},
			"extensions":{
				"KHR_materials_specular":{
					"specularFactor":0
				}
			},
			"name":"obj_fence",
			"pbrMetallicRoughness":{
				"baseColorTexture":{
					"index":1
				},
				"metallicFactor":0
			}
		}
	],
	"meshes":[
		{
			"name":"obj_fence",
			"primitives":[
				{
					"attributes":{
						"POSITION":0,
						"NORMAL":1,
						"TEXCOORD_0":2
					},
					"indices":3,
					"material":0
				}
			]
		},
		{
			"name":"obj_fence_collider",
			"primitives":[
				{
					"attributes":{
						"POSITION":4,
						"NORMAL":5,
						"TEXCOORD_0":6
					},
					"indices":7
				}
			]
		}
	],
	"textures":[
		{
			"sampler":0,
			"source":0
		},
		{
			"sampler":0,
			"source":0
		}
	],
	"images":[
		{
			"mimeType":"image/png",
			"name":"obj_fence",
			"uri":"textures/obj_fence.png"
		}
	],
	"accessors":[
		{
			"bufferView":0,
			"componentType":5126,
			"count":11470,
			"max":[
				7.585867881774902,
				7.871672630310059,
				7.579733848571777
			],
			"min":[
				-7.674807548522949,
				0.1062844768166542,
				-7.735874652862549
			],
			"type":"VEC3"
		},
		{
			"bufferView":1,
			"componentType":5126,
			"count":11470,
			"type":"VEC3"
		},
		{
			"bufferView":2,
			"componentType":5126,
			"count":11470,
			"type":"VEC2"
		},
		{
			"bufferView":3,
			"componentType":5123,
			"count":21846,
			"type":"SCALAR"
		},
		{
			"bufferView":4,
			"componentType":5126,
			"count":36,
			"max":[
				7.497219562530518,
				1.4234161376953125,
				7.5268049240112305
			],
			"min":[
				-7.673430442810059,
				0.08397196233272552,
				1.231809377670288
			],
			"type":"VEC3"
		},
		{
			"bufferView":5,
			"componentType":5126,
			"count":36,
			"type":"VEC3"
		},
		{
			"bufferView":6,
			"componentType":5126,
			"count":36,
			"type":"VEC2"
		},
		{
			"bufferView":7,
			"componentType":5123,
			"count":90,
			"type":"SCALAR"
		}
	],
	"bufferViews":[
		{
			"buffer":0,
			"byteLength":137640,
			"byteOffset":0,
			"target":34962
		},
		{
			"buffer":0,
			"byteLength":137640,
			"byteOffset":137640,
			"target":34962
		},
		{
			"buffer":0,
			"byteLength":91760,
			"byteOffset":275280,
			"target":34962
		},
		{
			"buffer":0,
			"byteLength":43692,
			"byteOffset":367040,
			"target":34963
		},
		{
			"buffer":0,
			"byteLength":432,
			"byteOffset":410732,
			"target":34962
		},
		{
			"buffer":0,
			"byteLength":432,
			"byteOffset":411164,
			"target":34962
		},
		{
			"buffer":0,
			"byteLength":288,
			"byteOffset":411596,
			"target":34962
		},
		{
			"buffer":0,
			"byteLength":180,
			"byteOffset":411884,
			"target":34963
		}
	],
	"samplers":[
		{
			"magFilter":9729,
			"minFilter":9987
		}
	],
	"buffers":[
		{
			"byteLength":412064,
			"uri":"obj_fence.bin"
		}
	]
}
