{
	"asset":{
		"generator":"Khronos glTF Blender I/O v4.2.57",
		"version":"2.0"
	},
	"extensionsUsed":[
		"KHR_materials_specular",
		"KHR_materials_ior"
	],
	"scene":0,
	"scenes":[
		{
			"name":"Scene",
			"nodes":[
				0,
				1
			]
		}
	],
	"nodes":[
		{
			"mesh":0,
			"name":"obj_frog01",
			"rotation":[
				0.7071068286895752,
				0,
				0,
				0.7071068286895752
			],
			"scale":[
				0.009999999776482582,
				0.009999999776482582,
				0.009999999776482582
			]
		},
		{
			"mesh":1,
			"name":"obj_frog01_collider",
			"rotation":[
				0.7071068286895752,
				0,
				0,
				0.7071068286895752
			],
			"scale":[
				0.009999999776482582,
				0.009999999776482582,
				0.009999999776482582
			]
		}
	],
	"materials":[
		{
			"doubleSided":true,
			"extensions":{
				"KHR_materials_specular":{
					"specularFactor":0
				},
				"KHR_materials_ior":{
					"ior":1.4500000476837158
				}
			},
			"name":"lambert3",
			"pbrMetallicRoughness":{
				"baseColorFactor":[
					0.04565392807126045,
					0.7002376317977905,
					0.04565392807126045,
					1
				],
				"metallicFactor":0
			}
		}
	],
	"meshes":[
		{
			"name":"Mesh.236",
			"primitives":[
				{
					"attributes":{
						"POSITION":0,
						"NORMAL":1,
						"TEXCOORD_0":2
					},
					"indices":3,
					"material":0
				}
			]
		},
		{
			"name":"Mesh.388",
			"primitives":[
				{
					"attributes":{
						"POSITION":4,
						"NORMAL":5,
						"TEXCOORD_0":6
					},
					"indices":3
				}
			]
		}
	],
	"accessors":[
		{
			"bufferView":0,
			"componentType":5126,
			"count":4547,
			"max":[
				41.45785903930664,
				40.8216552734375,
				44.95698547363281
			],
			"min":[
				-41.46052932739258,
				-36.149169921875,
				-36.553863525390625
			],
			"type":"VEC3"
		},
		{
			"bufferView":1,
			"componentType":5126,
			"count":4547,
			"type":"VEC3"
		},
		{
			"bufferView":2,
			"componentType":5126,
			"count":4547,
			"type":"VEC2"
		},
		{
			"bufferView":3,
			"componentType":5123,
			"count":24948,
			"type":"SCALAR"
		},
		{
			"bufferView":4,
			"componentType":5126,
			"count":4547,
			"max":[
				41.45785903930664,
				40.8216552734375,
				44.95698547363281
			],
			"min":[
				-41.46052932739258,
				-36.149169921875,
				-36.553863525390625
			],
			"type":"VEC3"
		},
		{
			"bufferView":5,
			"componentType":5126,
			"count":4547,
			"type":"VEC3"
		},
		{
			"bufferView":6,
			"componentType":5126,
			"count":4547,
			"type":"VEC2"
		}
	],
	"bufferViews":[
		{
			"buffer":0,
			"byteLength":54564,
			"byteOffset":0,
			"target":34962
		},
		{
			"buffer":0,
			"byteLength":54564,
			"byteOffset":54564,
			"target":34962
		},
		{
			"buffer":0,
			"byteLength":36376,
			"byteOffset":109128,
			"target":34962
		},
		{
			"buffer":0,
			"byteLength":49896,
			"byteOffset":145504,
			"target":34963
		},
		{
			"buffer":0,
			"byteLength":54564,
			"byteOffset":195400,
			"target":34962
		},
		{
			"buffer":0,
			"byteLength":54564,
			"byteOffset":249964,
			"target":34962
		},
		{
			"buffer":0,
			"byteLength":36376,
			"byteOffset":304528,
			"target":34962
		}
	],
	"buffers":[
		{
			"byteLength":340904,
			"uri":"obj_frog01.bin"
		}
	]
}
