{
	"asset":{
		"generator":"Khronos glTF Blender I/O v4.2.57",
		"version":"2.0"
	},
	"extensionsUsed":[
		"KHR_materials_specular"
	],
	"scene":0,
	"scenes":[
		{
			"name":"Scene",
			"nodes":[
				0,
				1
			]
		}
	],
	"nodes":[
		{
			"mesh":0,
			"name":"obj_grass"
		},
		{
			"mesh":1,
			"name":"obj_grass_collider"
		}
	],
	"materials":[
		{
			"doubleSided":true,
			"emissiveFactor":[
				0.10000000149011612,
				0.10000000149011612,
				0.10000000149011612
			],
			"emissiveTexture":{
				"index":0
			},
			"extensions":{
				"KHR_materials_specular":{
					"specularFactor":0
				}
			},
			"name":"obj_grass",
			"pbrMetallicRoughness":{
				"baseColorTexture":{
					"index":1
				},
				"metallicFactor":0
			}
		}
	],
	"meshes":[
		{
			"name":"Mesh.399",
			"primitives":[
				{
					"attributes":{
						"POSITION":0,
						"NORMAL":1,
						"TEXCOORD_0":2
					},
					"indices":3,
					"material":0
				}
			]
		},
		{
			"name":"Mesh.003",
			"primitives":[
				{
					"attributes":{
						"POSITION":4,
						"NORMAL":5,
						"TEXCOORD_0":6
					},
					"indices":3
				}
			]
		}
	],
	"textures":[
		{
			"sampler":0,
			"source":0
		},
		{
			"sampler":0,
			"source":0
		}
	],
	"images":[
		{
			"mimeType":"image/png",
			"name":"obj_grass",
			"uri":"textures/obj_grass.png"
		}
	],
	"accessors":[
		{
			"bufferView":0,
			"componentType":5126,
			"count":7831,
			"max":[
				7.930132865905762,
				4.591128826141357,
				7.517632961273193
			],
			"min":[
				-7.930132865905762,
				-0.09402231872081757,
				-7.749398231506348
			],
			"type":"VEC3"
		},
		{
			"bufferView":1,
			"componentType":5126,
			"count":7831,
			"type":"VEC3"
		},
		{
			"bufferView":2,
			"componentType":5126,
			"count":7831,
			"type":"VEC2"
		},
		{
			"bufferView":3,
			"componentType":5123,
			"count":25734,
			"type":"SCALAR"
		},
		{
			"bufferView":4,
			"componentType":5126,
			"count":7831,
			"max":[
				7.930132865905762,
				4.591128826141357,
				7.517632961273193
			],
			"min":[
				-7.930132865905762,
				-0.09402231872081757,
				-7.749398231506348
			],
			"type":"VEC3"
		},
		{
			"bufferView":5,
			"componentType":5126,
			"count":7831,
			"type":"VEC3"
		},
		{
			"bufferView":6,
			"componentType":5126,
			"count":7831,
			"type":"VEC2"
		}
	],
	"bufferViews":[
		{
			"buffer":0,
			"byteLength":93972,
			"byteOffset":0,
			"target":34962
		},
		{
			"buffer":0,
			"byteLength":93972,
			"byteOffset":93972,
			"target":34962
		},
		{
			"buffer":0,
			"byteLength":62648,
			"byteOffset":187944,
			"target":34962
		},
		{
			"buffer":0,
			"byteLength":51468,
			"byteOffset":250592,
			"target":34963
		},
		{
			"buffer":0,
			"byteLength":93972,
			"byteOffset":302060,
			"target":34962
		},
		{
			"buffer":0,
			"byteLength":93972,
			"byteOffset":396032,
			"target":34962
		},
		{
			"buffer":0,
			"byteLength":62648,
			"byteOffset":490004,
			"target":34962
		}
	],
	"samplers":[
		{
			"magFilter":9729,
			"minFilter":9987
		}
	],
	"buffers":[
		{
			"byteLength":552652,
			"uri":"obj_grass.bin"
		}
	]
}
