{
	"asset":{
		"generator":"Khronos glTF Blender I/O v4.3.47",
		"version":"2.0"
	},
	"extensionsUsed":[
		"KHR_materials_specular"
	],
	"scene":0,
	"scenes":[
		{
			"name":"Scene",
			"nodes":[
				2
			]
		}
	],
	"nodes":[
		{
			"mesh":0,
			"name":"obj_reward_collider",
			"translation":[
				-9.004143976198975e-06,
				-1.9766262994380668e-05,
				0
			]
		},
		{
			"mesh":1,
			"name":"obj_reward_text",
			"rotation":[
				0.01527903601527214,
				0.8542808294296265,
				-0.0092916926369071,
				0.5195040702819824
			],
			"scale":[
				48.50518798828125,
				48.50518798828125,
				48.505184173583984
			],
			"translation":[
				1.5295994281768799,
				0.7829912304878235,
				-76.74620819091797
			]
		},
		{
			"children":[
				0,
				1
			],
			"mesh":2,
			"name":"obj_reward",
			"rotation":[
				0.6978592276573181,
				-0.11398589611053467,
				0.11398594081401825,
				0.6978588700294495
			],
			"scale":[
				0.012770505622029305,
				0.012770505622029305,
				0.012770506553351879
			],
			"translation":[
				1.6099059581756592,
				1.0764901638031006,
				3.0453333854675293
			]
		}
	],
	"animations":[
		{
			"channels":[
				{
					"sampler":0,
					"target":{
						"node":2,
						"path":"translation"
					}
				},
				{
					"sampler":1,
					"target":{
						"node":2,
						"path":"rotation"
					}
				}
			],
			"name":"obj_wearableAction",
			"samplers":[
				{
					"input":11,
					"interpolation":"LINEAR",
					"output":12
				},
				{
					"input":11,
					"interpolation":"LINEAR",
					"output":13
				}
			]
		}
	],
	"materials":[
		{
			"doubleSided":true,
			"emissiveFactor":[
				1,
				1,
				1
			],
			"emissiveTexture":{
				"index":0
			},
			"extensions":{
				"KHR_materials_specular":{
					"specularFactor":0,
					"specularColorFactor":[
						0.0,
						0.0,
						0.0
					]
				}
			},
			"name":"obj_reward",
			"pbrMetallicRoughness":{
				"baseColorTexture":{
					"index":1
				},
				"metallicFactor":0
			}
		},
		{
			"emissiveFactor":[
				1,
				0.3419147729873657,
				0.028426136821508408
			],
			"extensions":{
				"KHR_materials_specular":{
					"specularFactor":0
				}
			},
			"name":"obj_emission01",
			"pbrMetallicRoughness":{
				"baseColorFactor":[
					1,
					0.5088714957237244,
					0.0003034516121260822,
					1
				],
				"metallicFactor":0
			}
		}
	],
	"meshes":[
		{
			"name":"obj_wearable.001",
			"primitives":[
				{
					"attributes":{
						"POSITION":0,
						"NORMAL":1
					},
					"indices":2,
					"material":0
				}
			]
		},
		{
			"name":"Text",
			"primitives":[
				{
					"attributes":{
						"POSITION":3,
						"NORMAL":4,
						"TEXCOORD_0":5
					},
					"indices":6,
					"material":1
				}
			]
		},
		{
			"name":"obj_wearable",
			"primitives":[
				{
					"attributes":{
						"POSITION":7,
						"NORMAL":8,
						"TEXCOORD_0":9
					},
					"indices":10,
					"material":0
				}
			]
		}
	],
	"textures":[
		{
			"sampler":0,
			"source":0
		},
		{
			"sampler":0,
			"source":1
		}
	],
	"images":[
		{
			"mimeType":"image/png",
			"name":"obj_reward_emission",
			"uri":"textures/obj_reward_emission.png"
		},
		{
			"mimeType":"image/png",
			"name":"obj_reward",
			"uri":"textures/obj_reward.png"
		}
	],
	"accessors":[
		{
			"bufferView":0,
			"componentType":5126,
			"count":24,
			"max":[
				34.7486572265625,
				22.235382080078125,
				0.03755950927734375
			],
			"min":[
				-33.67066955566406,
				-17.16858673095703,
				-60.39216613769531
			],
			"type":"VEC3"
		},
		{
			"bufferView":1,
			"componentType":5126,
			"count":24,
			"type":"VEC3"
		},
		{
			"bufferView":2,
			"componentType":5123,
			"count":36,
			"type":"SCALAR"
		},
		{
			"bufferView":3,
			"componentType":5126,
			"count":306,
			"max":[
				1.4162538051605225,
				0.03700679540634155,
				1.3094418048858643
			],
			"min":[
				-0.007999997586011887,
				-0.03700707480311394,
				-0.376656711101532
			],
			"type":"VEC3"
		},
		{
			"bufferView":4,
			"componentType":5126,
			"count":306,
			"type":"VEC3"
		},
		{
			"bufferView":5,
			"componentType":5126,
			"count":306,
			"type":"VEC2"
		},
		{
			"bufferView":6,
			"componentType":5123,
			"count":882,
			"type":"SCALAR"
		},
		{
			"bufferView":7,
			"componentType":5126,
			"count":1501,
			"max":[
				34.74864196777344,
				22.235368728637695,
				0.03755950927734375
			],
			"min":[
				-33.67066955566406,
				-17.1685791015625,
				-60.39215850830078
			],
			"type":"VEC3"
		},
		{
			"bufferView":8,
			"componentType":5126,
			"count":1501,
			"type":"VEC3"
		},
		{
			"bufferView":9,
			"componentType":5126,
			"count":1501,
			"type":"VEC2"
		},
		{
			"bufferView":10,
			"componentType":5123,
			"count":4266,
			"type":"SCALAR"
		},
		{
			"bufferView":11,
			"componentType":5126,
			"count":180,
			"max":[
				7.5
			],
			"min":[
				0.041666666666666664
			],
			"type":"SCALAR"
		},
		{
			"bufferView":12,
			"componentType":5126,
			"count":180,
			"type":"VEC3"
		},
		{
			"bufferView":13,
			"componentType":5126,
			"count":180,
			"type":"VEC4"
		}
	],
	"bufferViews":[
		{
			"buffer":0,
			"byteLength":288,
			"byteOffset":0,
			"target":34962
		},
		{
			"buffer":0,
			"byteLength":288,
			"byteOffset":288,
			"target":34962
		},
		{
			"buffer":0,
			"byteLength":72,
			"byteOffset":576,
			"target":34963
		},
		{
			"buffer":0,
			"byteLength":3672,
			"byteOffset":648,
			"target":34962
		},
		{
			"buffer":0,
			"byteLength":3672,
			"byteOffset":4320,
			"target":34962
		},
		{
			"buffer":0,
			"byteLength":2448,
			"byteOffset":7992,
			"target":34962
		},
		{
			"buffer":0,
			"byteLength":1764,
			"byteOffset":10440,
			"target":34963
		},
		{
			"buffer":0,
			"byteLength":18012,
			"byteOffset":12204,
			"target":34962
		},
		{
			"buffer":0,
			"byteLength":18012,
			"byteOffset":30216,
			"target":34962
		},
		{
			"buffer":0,
			"byteLength":12008,
			"byteOffset":48228,
			"target":34962
		},
		{
			"buffer":0,
			"byteLength":8532,
			"byteOffset":60236,
			"target":34963
		},
		{
			"buffer":0,
			"byteLength":720,
			"byteOffset":68768
		},
		{
			"buffer":0,
			"byteLength":2160,
			"byteOffset":69488
		},
		{
			"buffer":0,
			"byteLength":2880,
			"byteOffset":71648
		}
	],
	"samplers":[
		{
			"magFilter":9729,
			"minFilter":9987
		}
	],
	"buffers":[
		{
			"byteLength":74528,
			"uri":"obj_reward.bin"
		}
	]
}
