{
	"asset":{
		"generator":"Khronos glTF Blender I/O v4.2.57",
		"version":"2.0"
	},
	"extensionsUsed":[
		"KHR_materials_specular"
	],
	"scene":0,
	"scenes":[
		{
			"name":"Scene",
			"nodes":[
				0,
				1
			]
		}
	],
	"nodes":[
		{
			"mesh":0,
			"name":"obj_frog01"
		},
		{
			"mesh":1,
			"name":"obj_frog01_collider"
		}
	],
	"materials":[
		{
			"doubleSided":true,
			"extensions":{
				"KHR_materials_specular":{
					"specularFactor":0
				}
			},
			"name":"obj_frame",
			"pbrMetallicRoughness":{
				"baseColorTexture":{
					"index":0
				},
				"metallicFactor":0
			}
		}
	],
	"meshes":[
		{
			"name":"Mesh.011",
			"primitives":[
				{
					"attributes":{
						"POSITION":0,
						"NORMAL":1,
						"TEXCOORD_0":2
					},
					"indices":3,
					"material":0
				}
			]
		},
		{
			"name":"Mesh.008",
			"primitives":[
				{
					"attributes":{
						"POSITION":4,
						"NORMAL":5,
						"TEXCOORD_0":6
					},
					"indices":3
				}
			]
		}
	],
	"textures":[
		{
			"sampler":0,
			"source":0
		}
	],
	"images":[
		{
			"mimeType":"image/png",
			"name":"obj_frame",
			"uri":"textures/obj_frame.png"
		}
	],
	"accessors":[
		{
			"bufferView":0,
			"componentType":5126,
			"count":844,
			"max":[
				0.42784494161605835,
				0.42037132382392883,
				0.43949094414711
			],
			"min":[
				-0.42784473299980164,
				-0.41802436113357544,
				-0.35402005910873413
			],
			"type":"VEC3"
		},
		{
			"bufferView":1,
			"componentType":5126,
			"count":844,
			"type":"VEC3"
		},
		{
			"bufferView":2,
			"componentType":5126,
			"count":844,
			"type":"VEC2"
		},
		{
			"bufferView":3,
			"componentType":5123,
			"count":3858,
			"type":"SCALAR"
		},
		{
			"bufferView":4,
			"componentType":5126,
			"count":844,
			"max":[
				0.42784494161605835,
				0.42037132382392883,
				0.43949094414711
			],
			"min":[
				-0.42784473299980164,
				-0.41802436113357544,
				-0.35402005910873413
			],
			"type":"VEC3"
		},
		{
			"bufferView":5,
			"componentType":5126,
			"count":844,
			"type":"VEC3"
		},
		{
			"bufferView":6,
			"componentType":5126,
			"count":844,
			"type":"VEC2"
		}
	],
	"bufferViews":[
		{
			"buffer":0,
			"byteLength":10128,
			"byteOffset":0,
			"target":34962
		},
		{
			"buffer":0,
			"byteLength":10128,
			"byteOffset":10128,
			"target":34962
		},
		{
			"buffer":0,
			"byteLength":6752,
			"byteOffset":20256,
			"target":34962
		},
		{
			"buffer":0,
			"byteLength":7716,
			"byteOffset":27008,
			"target":34963
		},
		{
			"buffer":0,
			"byteLength":10128,
			"byteOffset":34724,
			"target":34962
		},
		{
			"buffer":0,
			"byteLength":10128,
			"byteOffset":44852,
			"target":34962
		},
		{
			"buffer":0,
			"byteLength":6752,
			"byteOffset":54980,
			"target":34962
		}
	],
	"samplers":[
		{
			"magFilter":9729,
			"minFilter":9987
		}
	],
	"buffers":[
		{
			"byteLength":61732,
			"uri":"obj_frog01.bin"
		}
	]
}
