{
	"asset":{
		"generator":"Khronos glTF Blender I/O v4.3.47",
		"version":"2.0"
	},
	"extensionsUsed":[
		"KHR_materials_specular"
	],
	"scene":0,
	"scenes":[
		{
			"name":"Scene",
			"nodes":[
				0,
				1
			]
		}
	],
	"nodes":[
		{
			"mesh":0,
			"name":"obj_snake01"
		},
		{
			"mesh":1,
			"name":"obj_snake01_collider"
		}
	],
	"materials":[
		{
			"emissiveFactor":[
				0.10000000149011612,
				0.10000000149011612,
				0.10000000149011612
			],
			"emissiveTexture":{
				"index":0
			},
			"extensions":{
				"KHR_materials_specular":{
					"specularFactor":0
				}
			},
			"name":"obj_snake01",
			"pbrMetallicRoughness":{
				"baseColorTexture":{
					"index":1
				},
				"metallicFactor":0
			}
		}
	],
	"meshes":[
		{
			"name":"obj_snake01",
			"primitives":[
				{
					"attributes":{
						"POSITION":0,
						"NORMAL":1,
						"TEXCOORD_0":2
					},
					"indices":3,
					"material":0
				}
			]
		},
		{
			"name":"obj_snake01_collider",
			"primitives":[
				{
					"attributes":{
						"POSITION":4,
						"NORMAL":5,
						"TEXCOORD_0":6
					},
					"indices":3,
					"material":0
				}
			]
		}
	],
	"textures":[
		{
			"sampler":0,
			"source":0
		},
		{
			"sampler":0,
			"source":0
		}
	],
	"images":[
		{
			"mimeType":"image/png",
			"name":"obj_snake01",
			"uri":"textures/obj_snake01.png"
		}
	],
	"accessors":[
		{
			"bufferView":0,
			"componentType":5126,
			"count":345,
			"max":[
				0.33784085512161255,
				0,
				0.41378873586654663
			],
			"min":[
				-0.3378407955169678,
				-0.6840970516204834,
				-0.41599011421203613
			],
			"type":"VEC3"
		},
		{
			"bufferView":1,
			"componentType":5126,
			"count":345,
			"type":"VEC3"
		},
		{
			"bufferView":2,
			"componentType":5126,
			"count":345,
			"type":"VEC2"
		},
		{
			"bufferView":3,
			"componentType":5123,
			"count":1614,
			"type":"SCALAR"
		},
		{
			"bufferView":4,
			"componentType":5126,
			"count":345,
			"max":[
				0.33784085512161255,
				0,
				0.41378873586654663
			],
			"min":[
				-0.3378407955169678,
				-0.6840970516204834,
				-0.41599011421203613
			],
			"type":"VEC3"
		},
		{
			"bufferView":5,
			"componentType":5126,
			"count":345,
			"type":"VEC3"
		},
		{
			"bufferView":6,
			"componentType":5126,
			"count":345,
			"type":"VEC2"
		}
	],
	"bufferViews":[
		{
			"buffer":0,
			"byteLength":4140,
			"byteOffset":0,
			"target":34962
		},
		{
			"buffer":0,
			"byteLength":4140,
			"byteOffset":4140,
			"target":34962
		},
		{
			"buffer":0,
			"byteLength":2760,
			"byteOffset":8280,
			"target":34962
		},
		{
			"buffer":0,
			"byteLength":3228,
			"byteOffset":11040,
			"target":34963
		},
		{
			"buffer":0,
			"byteLength":4140,
			"byteOffset":14268,
			"target":34962
		},
		{
			"buffer":0,
			"byteLength":4140,
			"byteOffset":18408,
			"target":34962
		},
		{
			"buffer":0,
			"byteLength":2760,
			"byteOffset":22548,
			"target":34962
		}
	],
	"samplers":[
		{
			"magFilter":9729,
			"minFilter":9987
		}
	],
	"buffers":[
		{
			"byteLength":25308,
			"uri":"obj_snake01.bin"
		}
	]
}
