{
	"asset":{
		"generator":"Khronos glTF Blender I/O v4.3.47",
		"version":"2.0"
	},
	"extensionsUsed":[
		"KHR_materials_specular"
	],
	"scene":0,
	"scenes":[
		{
			"name":"Scene",
			"nodes":[
				0,
				1
			]
		}
	],
	"nodes":[
		{
			"mesh":0,
			"name":"obj_gifts"
		},
		{
			"mesh":1,
			"name":"obj_gifts_collider"
		}
	],
	"materials":[
		{
			"doubleSided":true,
			"emissiveFactor":[
				0.10000000149011612,
				0.10000000149011612,
				0.10000000149011612
			],
			"emissiveTexture":{
				"index":0
			},
			"extensions":{
				"KHR_materials_specular":{
					"specularFactor":0
				}
			},
			"name":"obj_gifts01",
			"pbrMetallicRoughness":{
				"baseColorTexture":{
					"index":1
				},
				"metallicFactor":0
			}
		}
	],
	"meshes":[
		{
			"name":"obj_gifts",
			"primitives":[
				{
					"attributes":{
						"POSITION":0,
						"NORMAL":1,
						"TEXCOORD_0":2
					},
					"indices":3,
					"material":0
				}
			]
		},
		{
			"name":"obj_gifts_collider",
			"primitives":[
				{
					"attributes":{
						"POSITION":4,
						"NORMAL":5,
						"TEXCOORD_0":6
					},
					"indices":7
				}
			]
		}
	],
	"textures":[
		{
			"sampler":0,
			"source":0
		},
		{
			"sampler":0,
			"source":0
		}
	],
	"images":[
		{
			"mimeType":"image/png",
			"name":"obj_gifts01",
			"uri":"textures/obj_gifts01.png"
		}
	],
	"accessors":[
		{
			"bufferView":0,
			"componentType":5126,
			"count":1421,
			"max":[
				6.11428165435791,
				1.3640029430389404,
				3.5730981826782227
			],
			"min":[
				-5.0153632164001465,
				0.1387055516242981,
				1.538370132446289
			],
			"type":"VEC3"
		},
		{
			"bufferView":1,
			"componentType":5126,
			"count":1421,
			"type":"VEC3"
		},
		{
			"bufferView":2,
			"componentType":5126,
			"count":1421,
			"type":"VEC2"
		},
		{
			"bufferView":3,
			"componentType":5123,
			"count":4056,
			"type":"SCALAR"
		},
		{
			"bufferView":4,
			"componentType":5126,
			"count":126,
			"max":[
				6.1149582862854,
				1.1753894090652466,
				3.577946186065674
			],
			"min":[
				-5.016648292541504,
				0.14456282556056976,
				1.5286085605621338
			],
			"type":"VEC3"
		},
		{
			"bufferView":5,
			"componentType":5126,
			"count":126,
			"type":"VEC3"
		},
		{
			"bufferView":6,
			"componentType":5126,
			"count":126,
			"type":"VEC2"
		},
		{
			"bufferView":7,
			"componentType":5123,
			"count":462,
			"type":"SCALAR"
		}
	],
	"bufferViews":[
		{
			"buffer":0,
			"byteLength":17052,
			"byteOffset":0,
			"target":34962
		},
		{
			"buffer":0,
			"byteLength":17052,
			"byteOffset":17052,
			"target":34962
		},
		{
			"buffer":0,
			"byteLength":11368,
			"byteOffset":34104,
			"target":34962
		},
		{
			"buffer":0,
			"byteLength":8112,
			"byteOffset":45472,
			"target":34963
		},
		{
			"buffer":0,
			"byteLength":1512,
			"byteOffset":53584,
			"target":34962
		},
		{
			"buffer":0,
			"byteLength":1512,
			"byteOffset":55096,
			"target":34962
		},
		{
			"buffer":0,
			"byteLength":1008,
			"byteOffset":56608,
			"target":34962
		},
		{
			"buffer":0,
			"byteLength":924,
			"byteOffset":57616,
			"target":34963
		}
	],
	"samplers":[
		{
			"magFilter":9729,
			"minFilter":9987
		}
	],
	"buffers":[
		{
			"byteLength":58540,
			"uri":"obj_gifts.bin"
		}
	]
}
