{
	"asset":{
		"generator":"Khronos glTF Blender I/O v4.3.47",
		"version":"2.0"
	},
	"extensionsUsed":[
		"KHR_materials_specular"
	],
	"scene":0,
	"scenes":[
		{
			"name":"Scene",
			"nodes":[
				0,
				1
			]
		}
	],
	"nodes":[
		{
			"mesh":0,
			"name":"obj_terminal"
		},
		{
			"mesh":1,
			"name":"obj_terminal_collider"
		}
	],
	"materials":[
		{
			"emissiveFactor":[
				0.10000000149011612,
				0.10000000149011612,
				0.10000000149011612
			],
			"emissiveTexture":{
				"index":0
			},
			"extensions":{
				"KHR_materials_specular":{
					"specularFactor":0
				}
			},
			"name":"obj_gifts02",
			"pbrMetallicRoughness":{
				"baseColorTexture":{
					"index":1
				},
				"metallicFactor":0
			}
		},
		{
			"emissiveFactor":[
				0.10000000149011612,
				0.10000000149011612,
				0.10000000149011612
			],
			"emissiveTexture":{
				"index":2
			},
			"extensions":{
				"KHR_materials_specular":{
					"specularFactor":0
				}
			},
			"name":"obj_terminal",
			"pbrMetallicRoughness":{
				"baseColorTexture":{
					"index":3
				},
				"metallicFactor":0
			}
		}
	],
	"meshes":[
		{
			"name":"obj_terminal",
			"primitives":[
				{
					"attributes":{
						"POSITION":0,
						"NORMAL":1,
						"TEXCOORD_0":2
					},
					"indices":3,
					"material":0
				},
				{
					"attributes":{
						"POSITION":4,
						"NORMAL":5,
						"TEXCOORD_0":6
					},
					"indices":7,
					"material":1
				}
			]
		},
		{
			"name":"obj_terminal_collider",
			"primitives":[
				{
					"attributes":{
						"POSITION":8,
						"NORMAL":9,
						"TEXCOORD_0":10
					},
					"indices":11
				}
			]
		}
	],
	"textures":[
		{
			"sampler":0,
			"source":0
		},
		{
			"sampler":0,
			"source":0
		},
		{
			"sampler":0,
			"source":1
		},
		{
			"sampler":0,
			"source":1
		}
	],
	"images":[
		{
			"mimeType":"image/png",
			"name":"obj_gifts02",
			"uri":"textures/obj_gifts02.png"
		},
		{
			"mimeType":"image/png",
			"name":"obj_terminal",
			"uri":"textures/obj_terminal.png"
		}
	],
	"accessors":[
		{
			"bufferView":0,
			"componentType":5126,
			"count":685,
			"max":[
				0.35484886169433594,
				1.7865842580795288,
				2.046180486679077
			],
			"min":[
				-0.3864821195602417,
				1.2543970346450806,
				1.6877796649932861
			],
			"type":"VEC3"
		},
		{
			"bufferView":1,
			"componentType":5126,
			"count":685,
			"type":"VEC3"
		},
		{
			"bufferView":2,
			"componentType":5126,
			"count":685,
			"type":"VEC2"
		},
		{
			"bufferView":3,
			"componentType":5123,
			"count":2034,
			"type":"SCALAR"
		},
		{
			"bufferView":4,
			"componentType":5126,
			"count":560,
			"max":[
				0.6518016457557678,
				1.753727674484253,
				2.7684502601623535
			],
			"min":[
				-0.6518016457557678,
				0.15038269758224487,
				1.5324695110321045
			],
			"type":"VEC3"
		},
		{
			"bufferView":5,
			"componentType":5126,
			"count":560,
			"type":"VEC3"
		},
		{
			"bufferView":6,
			"componentType":5126,
			"count":560,
			"type":"VEC2"
		},
		{
			"bufferView":7,
			"componentType":5123,
			"count":1470,
			"type":"SCALAR"
		},
		{
			"bufferView":8,
			"componentType":5126,
			"count":192,
			"max":[
				0.6612613797187805,
				1.7753689289093018,
				2.762319564819336
			],
			"min":[
				-0.6565510630607605,
				0.1503831297159195,
				1.5324689149856567
			],
			"type":"VEC3"
		},
		{
			"bufferView":9,
			"componentType":5126,
			"count":192,
			"type":"VEC3"
		},
		{
			"bufferView":10,
			"componentType":5126,
			"count":192,
			"type":"VEC2"
		},
		{
			"bufferView":11,
			"componentType":5123,
			"count":522,
			"type":"SCALAR"
		}
	],
	"bufferViews":[
		{
			"buffer":0,
			"byteLength":8220,
			"byteOffset":0,
			"target":34962
		},
		{
			"buffer":0,
			"byteLength":8220,
			"byteOffset":8220,
			"target":34962
		},
		{
			"buffer":0,
			"byteLength":5480,
			"byteOffset":16440,
			"target":34962
		},
		{
			"buffer":0,
			"byteLength":4068,
			"byteOffset":21920,
			"target":34963
		},
		{
			"buffer":0,
			"byteLength":6720,
			"byteOffset":25988,
			"target":34962
		},
		{
			"buffer":0,
			"byteLength":6720,
			"byteOffset":32708,
			"target":34962
		},
		{
			"buffer":0,
			"byteLength":4480,
			"byteOffset":39428,
			"target":34962
		},
		{
			"buffer":0,
			"byteLength":2940,
			"byteOffset":43908,
			"target":34963
		},
		{
			"buffer":0,
			"byteLength":2304,
			"byteOffset":46848,
			"target":34962
		},
		{
			"buffer":0,
			"byteLength":2304,
			"byteOffset":49152,
			"target":34962
		},
		{
			"buffer":0,
			"byteLength":1536,
			"byteOffset":51456,
			"target":34962
		},
		{
			"buffer":0,
			"byteLength":1044,
			"byteOffset":52992,
			"target":34963
		}
	],
	"samplers":[
		{
			"magFilter":9729,
			"minFilter":9987
		}
	],
	"buffers":[
		{
			"byteLength":54036,
			"uri":"obj_terminal.bin"
		}
	]
}
