{
	"asset":{
		"generator":"Khronos glTF Blender I/O v4.3.47",
		"version":"2.0"
	},
	"extensionsUsed":[
		"KHR_materials_specular"
	],
	"scene":0,
	"scenes":[
		{
			"name":"Scene",
			"nodes":[
				0,
				1
			]
		}
	],
	"nodes":[
		{
			"mesh":0,
			"name":"obj_frame"
		},
		{
			"mesh":1,
			"name":"obj_frame_collider"
		}
	],
	"materials":[
		{
			"emissiveFactor":[
				0.10000000149011612,
				0.10000000149011612,
				0.10000000149011612
			],
			"emissiveTexture":{
				"index":0
			},
			"extensions":{
				"KHR_materials_specular":{
					"specularFactor":0
				}
			},
			"name":"obj_frame",
			"pbrMetallicRoughness":{
				"baseColorTexture":{
					"index":1
				},
				"metallicFactor":0
			}
		}
	],
	"meshes":[
		{
			"name":"obj_frame",
			"primitives":[
				{
					"attributes":{
						"POSITION":0,
						"NORMAL":1,
						"TEXCOORD_0":2
					},
					"indices":3,
					"material":0
				}
			]
		},
		{
			"name":"obj_frame_collider",
			"primitives":[
				{
					"attributes":{
						"POSITION":4,
						"NORMAL":5,
						"TEXCOORD_0":6
					},
					"indices":7
				}
			]
		}
	],
	"textures":[
		{
			"sampler":0,
			"source":0
		},
		{
			"sampler":0,
			"source":0
		}
	],
	"images":[
		{
			"mimeType":"image/png",
			"name":"obj_frame",
			"uri":"textures/obj_frame.png"
		}
	],
	"accessors":[
		{
			"bufferView":0,
			"componentType":5126,
			"count":1901,
			"max":[
				7.460275650024414,
				3.041011095046997,
				5.721058368682861
			],
			"min":[
				-7.460275650024414,
				-0.0775798037648201,
				-7.289271831512451
			],
			"type":"VEC3"
		},
		{
			"bufferView":1,
			"componentType":5126,
			"count":1901,
			"type":"VEC3"
		},
		{
			"bufferView":2,
			"componentType":5126,
			"count":1901,
			"type":"VEC2"
		},
		{
			"bufferView":3,
			"componentType":5123,
			"count":8136,
			"type":"SCALAR"
		},
		{
			"bufferView":4,
			"componentType":5126,
			"count":936,
			"max":[
				7.398538589477539,
				3.041012763977051,
				5.721058368682861
			],
			"min":[
				-7.408270835876465,
				-0.10798318684101105,
				-7.273892879486084
			],
			"type":"VEC3"
		},
		{
			"bufferView":5,
			"componentType":5126,
			"count":936,
			"type":"VEC3"
		},
		{
			"bufferView":6,
			"componentType":5126,
			"count":936,
			"type":"VEC2"
		},
		{
			"bufferView":7,
			"componentType":5123,
			"count":1500,
			"type":"SCALAR"
		}
	],
	"bufferViews":[
		{
			"buffer":0,
			"byteLength":22812,
			"byteOffset":0,
			"target":34962
		},
		{
			"buffer":0,
			"byteLength":22812,
			"byteOffset":22812,
			"target":34962
		},
		{
			"buffer":0,
			"byteLength":15208,
			"byteOffset":45624,
			"target":34962
		},
		{
			"buffer":0,
			"byteLength":16272,
			"byteOffset":60832,
			"target":34963
		},
		{
			"buffer":0,
			"byteLength":11232,
			"byteOffset":77104,
			"target":34962
		},
		{
			"buffer":0,
			"byteLength":11232,
			"byteOffset":88336,
			"target":34962
		},
		{
			"buffer":0,
			"byteLength":7488,
			"byteOffset":99568,
			"target":34962
		},
		{
			"buffer":0,
			"byteLength":3000,
			"byteOffset":107056,
			"target":34963
		}
	],
	"samplers":[
		{
			"magFilter":9729,
			"minFilter":9987
		}
	],
	"buffers":[
		{
			"byteLength":110056,
			"uri":"obj_frame.bin"
		}
	]
}
