{
	"asset":{
		"generator":"Khronos glTF Blender I/O v4.2.57",
		"version":"2.0"
	},
	"extensionsUsed":[
		"KHR_materials_specular"
	],
	"scene":0,
	"scenes":[
		{
			"name":"obj_floor",
			"nodes":[
				0,
				1
			]
		}
	],
	"nodes":[
		{
			"mesh":0,
			"name":"obj_floor"
		},
		{
			"mesh":1,
			"name":"obj_floor_collider"
		}
	],
	"materials":[
		{
			"doubleSided":true,
			"extensions":{
				"KHR_materials_specular":{
					"specularFactor":0
				}
			},
			"name":"obj_floor",
			"pbrMetallicRoughness":{
				"baseColorTexture":{
					"index":0
				},
				"metallicFactor":0
			}
		}
	],
	"meshes":[
		{
			"name":"Mesh.250",
			"primitives":[
				{
					"attributes":{
						"POSITION":0,
						"NORMAL":1,
						"TEXCOORD_0":2
					},
					"indices":3,
					"material":0
				}
			]
		},
		{
			"name":"Mesh.002",
			"primitives":[
				{
					"attributes":{
						"POSITION":4,
						"NORMAL":5,
						"TEXCOORD_0":6
					},
					"indices":3
				}
			]
		}
	],
	"textures":[
		{
			"sampler":0,
			"source":0
		}
	],
	"images":[
		{
			"mimeType":"image/png",
			"name":"obj_floor",
			"uri":"textures/obj_floor.png"
		}
	],
	"accessors":[
		{
			"bufferView":0,
			"componentType":5126,
			"count":1844,
			"max":[
				7.656919002532959,
				0.73961341381073,
				7.690885543823242
			],
			"min":[
				-7.656919002532959,
				-5.7675372033827443e-08,
				-6.6080756187438965
			],
			"type":"VEC3"
		},
		{
			"bufferView":1,
			"componentType":5126,
			"count":1844,
			"type":"VEC3"
		},
		{
			"bufferView":2,
			"componentType":5126,
			"count":1844,
			"type":"VEC2"
		},
		{
			"bufferView":3,
			"componentType":5123,
			"count":5328,
			"type":"SCALAR"
		},
		{
			"bufferView":4,
			"componentType":5126,
			"count":1844,
			"max":[
				7.656919002532959,
				0.73961341381073,
				7.690885543823242
			],
			"min":[
				-7.656919002532959,
				-5.7675372033827443e-08,
				-6.6080756187438965
			],
			"type":"VEC3"
		},
		{
			"bufferView":5,
			"componentType":5126,
			"count":1844,
			"type":"VEC3"
		},
		{
			"bufferView":6,
			"componentType":5126,
			"count":1844,
			"type":"VEC2"
		}
	],
	"bufferViews":[
		{
			"buffer":0,
			"byteLength":22128,
			"byteOffset":0,
			"target":34962
		},
		{
			"buffer":0,
			"byteLength":22128,
			"byteOffset":22128,
			"target":34962
		},
		{
			"buffer":0,
			"byteLength":14752,
			"byteOffset":44256,
			"target":34962
		},
		{
			"buffer":0,
			"byteLength":10656,
			"byteOffset":59008,
			"target":34963
		},
		{
			"buffer":0,
			"byteLength":22128,
			"byteOffset":69664,
			"target":34962
		},
		{
			"buffer":0,
			"byteLength":22128,
			"byteOffset":91792,
			"target":34962
		},
		{
			"buffer":0,
			"byteLength":14752,
			"byteOffset":113920,
			"target":34962
		}
	],
	"samplers":[
		{
			"magFilter":9729,
			"minFilter":9987
		}
	],
	"buffers":[
		{
			"byteLength":128672,
			"uri":"obj_floor.bin"
		}
	]
}
