{
	"asset":{
		"generator":"Khronos glTF Blender I/O v4.2.57",
		"version":"2.0"
	},
	"extensionsUsed":[
		"KHR_materials_specular"
	],
	"scene":0,
	"scenes":[
		{
			"name":"obj_ground",
			"nodes":[
				0
			]
		}
	],
	"nodes":[
		{
			"mesh":0,
			"name":"obj_ground"
		}
	],
	"materials":[
		{
			"doubleSided":true,
			"extensions":{
				"KHR_materials_specular":{
					"specularFactor":0
				}
			},
			"name":"obj_ground",
			"pbrMetallicRoughness":{
				"baseColorTexture":{
					"index":0
				},
				"metallicFactor":0
			}
		}
	],
	"meshes":[
		{
			"name":"Mesh.396",
			"primitives":[
				{
					"attributes":{
						"POSITION":0,
						"NORMAL":1,
						"TEXCOORD_0":2
					},
					"indices":3,
					"material":0
				}
			]
		}
	],
	"textures":[
		{
			"sampler":0,
			"source":0
		}
	],
	"images":[
		{
			"mimeType":"image/png",
			"name":"obj_ground",
			"uri":"textures/obj_ground.png"
		}
	],
	"accessors":[
		{
			"bufferView":0,
			"componentType":5126,
			"count":632,
			"max":[
				8,
				0.7381060719490051,
				8
			],
			"min":[
				-8,
				-1.220703097715159e-06,
				-7.999998569488525
			],
			"type":"VEC3"
		},
		{
			"bufferView":1,
			"componentType":5126,
			"count":632,
			"type":"VEC3"
		},
		{
			"bufferView":2,
			"componentType":5126,
			"count":632,
			"type":"VEC2"
		},
		{
			"bufferView":3,
			"componentType":5123,
			"count":2232,
			"type":"SCALAR"
		}
	],
	"bufferViews":[
		{
			"buffer":0,
			"byteLength":7584,
			"byteOffset":0,
			"target":34962
		},
		{
			"buffer":0,
			"byteLength":7584,
			"byteOffset":7584,
			"target":34962
		},
		{
			"buffer":0,
			"byteLength":5056,
			"byteOffset":15168,
			"target":34962
		},
		{
			"buffer":0,
			"byteLength":4464,
			"byteOffset":20224,
			"target":34963
		}
	],
	"samplers":[
		{
			"magFilter":9729,
			"minFilter":9987
		}
	],
	"buffers":[
		{
			"byteLength":24688,
			"uri":"obj_ground.bin"
		}
	]
}
