{
	"asset":{
		"generator":"Khronos glTF Blender I/O v4.3.47",
		"version":"2.0"
	},
	"extensionsUsed":[
		"KHR_materials_specular"
	],
	"scene":0,
	"scenes":[
		{
			"name":"Scene",
			"nodes":[
				0,
				1
			]
		}
	],
	"nodes":[
		{
			"mesh":0,
			"name":"obj_snow"
		},
		{
			"mesh":1,
			"name":"obj_snow_collider"
		}
	],
	"materials":[
		{
			"doubleSided":true,
			"emissiveFactor":[
				0.10000000149011612,
				0.10000000149011612,
				0.10000000149011612
			],
			"emissiveTexture":{
				"index":0
			},
			"extensions":{
				"KHR_materials_specular":{
					"specularFactor":0
				}
			},
			"name":"obj_snow",
			"pbrMetallicRoughness":{
				"baseColorTexture":{
					"index":1
				},
				"metallicFactor":0
			}
		}
	],
	"meshes":[
		{
			"name":"obj_snow",
			"primitives":[
				{
					"attributes":{
						"POSITION":0,
						"NORMAL":1,
						"TEXCOORD_0":2
					},
					"indices":3,
					"material":0
				}
			]
		},
		{
			"name":"obj_snow_collider",
			"primitives":[
				{
					"attributes":{
						"POSITION":4,
						"NORMAL":5,
						"TEXCOORD_0":6
					},
					"indices":7
				}
			]
		}
	],
	"textures":[
		{
			"sampler":0,
			"source":0
		},
		{
			"sampler":0,
			"source":0
		}
	],
	"images":[
		{
			"mimeType":"image/png",
			"name":"obj_snow",
			"uri":"textures/obj_snow.png"
		}
	],
	"accessors":[
		{
			"bufferView":0,
			"componentType":5126,
			"count":811,
			"max":[
				7.85529899597168,
				1.392482876777649,
				7.377908706665039
			],
			"min":[
				-7.855297565460205,
				-0.18465137481689453,
				-7.827078819274902
			],
			"type":"VEC3"
		},
		{
			"bufferView":1,
			"componentType":5126,
			"count":811,
			"type":"VEC3"
		},
		{
			"bufferView":2,
			"componentType":5126,
			"count":811,
			"type":"VEC2"
		},
		{
			"bufferView":3,
			"componentType":5123,
			"count":3909,
			"type":"SCALAR"
		},
		{
			"bufferView":4,
			"componentType":5126,
			"count":217,
			"max":[
				7.9272260665893555,
				1.5107533931732178,
				7.362770080566406
			],
			"min":[
				-7.9272260665893555,
				-0.20969834923744202,
				-7.870354652404785
			],
			"type":"VEC3"
		},
		{
			"bufferView":5,
			"componentType":5126,
			"count":217,
			"type":"VEC3"
		},
		{
			"bufferView":6,
			"componentType":5126,
			"count":217,
			"type":"VEC2"
		},
		{
			"bufferView":7,
			"componentType":5123,
			"count":774,
			"type":"SCALAR"
		}
	],
	"bufferViews":[
		{
			"buffer":0,
			"byteLength":9732,
			"byteOffset":0,
			"target":34962
		},
		{
			"buffer":0,
			"byteLength":9732,
			"byteOffset":9732,
			"target":34962
		},
		{
			"buffer":0,
			"byteLength":6488,
			"byteOffset":19464,
			"target":34962
		},
		{
			"buffer":0,
			"byteLength":7818,
			"byteOffset":25952,
			"target":34963
		},
		{
			"buffer":0,
			"byteLength":2604,
			"byteOffset":33772,
			"target":34962
		},
		{
			"buffer":0,
			"byteLength":2604,
			"byteOffset":36376,
			"target":34962
		},
		{
			"buffer":0,
			"byteLength":1736,
			"byteOffset":38980,
			"target":34962
		},
		{
			"buffer":0,
			"byteLength":1548,
			"byteOffset":40716,
			"target":34963
		}
	],
	"samplers":[
		{
			"magFilter":9729,
			"minFilter":9987
		}
	],
	"buffers":[
		{
			"byteLength":42264,
			"uri":"obj_snow.bin"
		}
	]
}
