{
	"asset":{
		"generator":"Khronos glTF Blender I/O v4.2.57",
		"version":"2.0"
	},
	"extensionsUsed":[
		"KHR_materials_specular"
	],
	"scene":0,
	"scenes":[
		{
			"name":"Scene",
			"nodes":[
				0,
				1
			]
		}
	],
	"nodes":[
		{
			"mesh":0,
			"name":"obj_wall"
		},
		{
			"mesh":1,
			"name":"obj_wall_collider"
		}
	],
	"materials":[
		{
			"doubleSided":true,
			"emissiveFactor":[
				0.10000000149011612,
				0.10000000149011612,
				0.10000000149011612
			],
			"emissiveTexture":{
				"index":0
			},
			"extensions":{
				"KHR_materials_specular":{
					"specularFactor":0
				}
			},
			"name":"obj_wall",
			"pbrMetallicRoughness":{
				"baseColorTexture":{
					"index":1
				},
				"metallicFactor":0
			}
		}
	],
	"meshes":[
		{
			"name":"Mesh.249",
			"primitives":[
				{
					"attributes":{
						"POSITION":0,
						"NORMAL":1,
						"TEXCOORD_0":2
					},
					"indices":3,
					"material":0
				}
			]
		},
		{
			"name":"Mesh.005",
			"primitives":[
				{
					"attributes":{
						"POSITION":4,
						"NORMAL":5,
						"TEXCOORD_0":6
					},
					"indices":3
				}
			]
		}
	],
	"textures":[
		{
			"sampler":0,
			"source":0
		},
		{
			"sampler":0,
			"source":0
		}
	],
	"images":[
		{
			"mimeType":"image/png",
			"name":"obj_wall",
			"uri":"textures/obj_wall.png"
		}
	],
	"accessors":[
		{
			"bufferView":0,
			"componentType":5126,
			"count":1396,
			"max":[
				7.375781059265137,
				6.334876537322998,
				7.503549575805664
			],
			"min":[
				-7.375781059265137,
				-0.012055477127432823,
				-7.6649088859558105
			],
			"type":"VEC3"
		},
		{
			"bufferView":1,
			"componentType":5126,
			"count":1396,
			"type":"VEC3"
		},
		{
			"bufferView":2,
			"componentType":5126,
			"count":1396,
			"type":"VEC2"
		},
		{
			"bufferView":3,
			"componentType":5123,
			"count":4464,
			"type":"SCALAR"
		},
		{
			"bufferView":4,
			"componentType":5126,
			"count":1396,
			"max":[
				7.375781059265137,
				6.334876537322998,
				7.503549575805664
			],
			"min":[
				-7.375781059265137,
				-0.012055477127432823,
				-7.6649088859558105
			],
			"type":"VEC3"
		},
		{
			"bufferView":5,
			"componentType":5126,
			"count":1396,
			"type":"VEC3"
		},
		{
			"bufferView":6,
			"componentType":5126,
			"count":1396,
			"type":"VEC2"
		}
	],
	"bufferViews":[
		{
			"buffer":0,
			"byteLength":16752,
			"byteOffset":0,
			"target":34962
		},
		{
			"buffer":0,
			"byteLength":16752,
			"byteOffset":16752,
			"target":34962
		},
		{
			"buffer":0,
			"byteLength":11168,
			"byteOffset":33504,
			"target":34962
		},
		{
			"buffer":0,
			"byteLength":8928,
			"byteOffset":44672,
			"target":34963
		},
		{
			"buffer":0,
			"byteLength":16752,
			"byteOffset":53600,
			"target":34962
		},
		{
			"buffer":0,
			"byteLength":16752,
			"byteOffset":70352,
			"target":34962
		},
		{
			"buffer":0,
			"byteLength":11168,
			"byteOffset":87104,
			"target":34962
		}
	],
	"samplers":[
		{
			"magFilter":9729,
			"minFilter":9987
		}
	],
	"buffers":[
		{
			"byteLength":98272,
			"uri":"obj_wall.bin"
		}
	]
}
