{
	"asset":{
		"generator":"Khronos glTF Blender I/O v4.3.47",
		"version":"2.0"
	},
	"extensionsUsed":[
		"KHR_materials_specular"
	],
	"scene":0,
	"scenes":[
		{
			"name":"Scene",
			"nodes":[
				0,
				1
			]
		}
	],
	"nodes":[
		{
			"mesh":0,
			"name":"obj_logo",
			"scale":[
				0.9957591891288757,
				0.9957591891288757,
				0.9957591891288757
			],
			"translation":[
				-0.02373337559401989,
				8.361653327941895,
				-6.038637638092041
			]
		},
		{
			"mesh":1,
			"name":"obj_logo_collider",
			"scale":[
				0.9957591891288757,
				0.9957591891288757,
				0.9957591891288757
			],
			"translation":[
				-0.011388294398784637,
				8.369170188903809,
				-6.038637638092041
			]
		}
	],
	"materials":[
		{
			"emissiveFactor":[
				0.10000000149011612,
				0.10000000149011612,
				0.10000000149011612
			],
			"emissiveTexture":{
				"index":0
			},
			"extensions":{
				"KHR_materials_specular":{
					"specularFactor":0
				}
			},
			"name":"obj_logo01",
			"pbrMetallicRoughness":{
				"baseColorTexture":{
					"index":1
				},
				"metallicFactor":0
			}
		},
		{
			"emissiveFactor":[
				0.10000000149011612,
				0.10000000149011612,
				0.10000000149011612
			],
			"emissiveTexture":{
				"index":2
			},
			"extensions":{
				"KHR_materials_specular":{
					"specularFactor":0
				}
			},
			"name":"obj_logo02",
			"pbrMetallicRoughness":{
				"baseColorTexture":{
					"index":3
				},
				"metallicFactor":0
			}
		},
		{
			"emissiveFactor":[
				0.10000000149011612,
				0.10000000149011612,
				0.10000000149011612
			],
			"emissiveTexture":{
				"index":4
			},
			"extensions":{
				"KHR_materials_specular":{
					"specularFactor":0
				}
			},
			"name":"obj_logo03",
			"pbrMetallicRoughness":{
				"baseColorTexture":{
					"index":5
				},
				"metallicFactor":0
			}
		}
	],
	"meshes":[
		{
			"name":"obj_logo01",
			"primitives":[
				{
					"attributes":{
						"POSITION":0,
						"NORMAL":1,
						"TEXCOORD_0":2
					},
					"indices":3,
					"material":0
				},
				{
					"attributes":{
						"POSITION":4,
						"NORMAL":5,
						"TEXCOORD_0":6
					},
					"indices":7,
					"material":1
				},
				{
					"attributes":{
						"POSITION":8,
						"NORMAL":9,
						"TEXCOORD_0":10
					},
					"indices":11,
					"material":2
				}
			]
		},
		{
			"name":"obj_logo01_collider",
			"primitives":[
				{
					"attributes":{
						"POSITION":12,
						"NORMAL":13
					},
					"indices":14,
					"material":0
				},
				{
					"attributes":{
						"POSITION":15,
						"NORMAL":16
					},
					"indices":17,
					"material":1
				},
				{
					"attributes":{
						"POSITION":18,
						"NORMAL":19
					},
					"indices":17,
					"material":2
				}
			]
		}
	],
	"textures":[
		{
			"sampler":0,
			"source":0
		},
		{
			"sampler":0,
			"source":0
		},
		{
			"sampler":0,
			"source":1
		},
		{
			"sampler":0,
			"source":1
		},
		{
			"sampler":0,
			"source":2
		},
		{
			"sampler":0,
			"source":2
		}
	],
	"images":[
		{
			"mimeType":"image/png",
			"name":"obj_logo01",
			"uri":"textures/obj_logo01.png"
		},
		{
			"mimeType":"image/png",
			"name":"obj_logo02",
			"uri":"textures/obj_logo02.png"
		},
		{
			"mimeType":"image/png",
			"name":"obj_logo03",
			"uri":"textures/obj_logo03.png"
		}
	],
	"accessors":[
		{
			"bufferView":0,
			"componentType":5126,
			"count":698,
			"max":[
				4.0888166427612305,
				0.4766968786716461,
				0.08819007873535156
			],
			"min":[
				-4.064126968383789,
				-0.4616623818874359,
				-0.08819007873535156
			],
			"type":"VEC3"
		},
		{
			"bufferView":1,
			"componentType":5126,
			"count":698,
			"type":"VEC3"
		},
		{
			"bufferView":2,
			"componentType":5126,
			"count":698,
			"type":"VEC2"
		},
		{
			"bufferView":3,
			"componentType":5123,
			"count":1296,
			"type":"SCALAR"
		},
		{
			"bufferView":4,
			"componentType":5126,
			"count":334,
			"max":[
				-6.340058326721191,
				-2.400761604309082,
				11.752779960632324
			],
			"min":[
				-6.463659763336182,
				-3.0688529014587402,
				9.230270385742188
			],
			"type":"VEC3"
		},
		{
			"bufferView":5,
			"componentType":5126,
			"count":334,
			"type":"VEC3"
		},
		{
			"bufferView":6,
			"componentType":5126,
			"count":334,
			"type":"VEC2"
		},
		{
			"bufferView":7,
			"componentType":5123,
			"count":624,
			"type":"SCALAR"
		},
		{
			"bufferView":8,
			"componentType":5126,
			"count":722,
			"max":[
				6.511427402496338,
				-2.4033212661743164,
				13.195505142211914
			],
			"min":[
				6.3889641761779785,
				-3.0631043910980225,
				7.785894870758057
			],
			"type":"VEC3"
		},
		{
			"bufferView":9,
			"componentType":5126,
			"count":722,
			"type":"VEC3"
		},
		{
			"bufferView":10,
			"componentType":5126,
			"count":722,
			"type":"VEC2"
		},
		{
			"bufferView":11,
			"componentType":5123,
			"count":1464,
			"type":"SCALAR"
		},
		{
			"bufferView":12,
			"componentType":5126,
			"count":24,
			"max":[
				4.07647180557251,
				0.4691801071166992,
				0.08819055557250977
			],
			"min":[
				-4.07647180557251,
				-0.4691791534423828,
				-0.08819007873535156
			],
			"type":"VEC3"
		},
		{
			"bufferView":13,
			"componentType":5126,
			"count":24,
			"type":"VEC3"
		},
		{
			"bufferView":14,
			"componentType":5123,
			"count":36,
			"type":"SCALAR"
		},
		{
			"bufferView":15,
			"componentType":5126,
			"count":24,
			"max":[
				-6.352456092834473,
				-2.408311128616333,
				11.752779006958008
			],
			"min":[
				-6.476058006286621,
				-3.076402425765991,
				9.230270385742188
			],
			"type":"VEC3"
		},
		{
			"bufferView":16,
			"componentType":5126,
			"count":24,
			"type":"VEC3"
		},
		{
			"bufferView":17,
			"componentType":5123,
			"count":36,
			"type":"SCALAR"
		},
		{
			"bufferView":18,
			"componentType":5126,
			"count":24,
			"max":[
				6.499030590057373,
				-2.4108705520629883,
				13.195505142211914
			],
			"min":[
				6.376567363739014,
				-3.0706539154052734,
				7.785894393920898
			],
			"type":"VEC3"
		},
		{
			"bufferView":19,
			"componentType":5126,
			"count":24,
			"type":"VEC3"
		}
	],
	"bufferViews":[
		{
			"buffer":0,
			"byteLength":8376,
			"byteOffset":0,
			"target":34962
		},
		{
			"buffer":0,
			"byteLength":8376,
			"byteOffset":8376,
			"target":34962
		},
		{
			"buffer":0,
			"byteLength":5584,
			"byteOffset":16752,
			"target":34962
		},
		{
			"buffer":0,
			"byteLength":2592,
			"byteOffset":22336,
			"target":34963
		},
		{
			"buffer":0,
			"byteLength":4008,
			"byteOffset":24928,
			"target":34962
		},
		{
			"buffer":0,
			"byteLength":4008,
			"byteOffset":28936,
			"target":34962
		},
		{
			"buffer":0,
			"byteLength":2672,
			"byteOffset":32944,
			"target":34962
		},
		{
			"buffer":0,
			"byteLength":1248,
			"byteOffset":35616,
			"target":34963
		},
		{
			"buffer":0,
			"byteLength":8664,
			"byteOffset":36864,
			"target":34962
		},
		{
			"buffer":0,
			"byteLength":8664,
			"byteOffset":45528,
			"target":34962
		},
		{
			"buffer":0,
			"byteLength":5776,
			"byteOffset":54192,
			"target":34962
		},
		{
			"buffer":0,
			"byteLength":2928,
			"byteOffset":59968,
			"target":34963
		},
		{
			"buffer":0,
			"byteLength":288,
			"byteOffset":62896,
			"target":34962
		},
		{
			"buffer":0,
			"byteLength":288,
			"byteOffset":63184,
			"target":34962
		},
		{
			"buffer":0,
			"byteLength":72,
			"byteOffset":63472,
			"target":34963
		},
		{
			"buffer":0,
			"byteLength":288,
			"byteOffset":63544,
			"target":34962
		},
		{
			"buffer":0,
			"byteLength":288,
			"byteOffset":63832,
			"target":34962
		},
		{
			"buffer":0,
			"byteLength":72,
			"byteOffset":64120,
			"target":34963
		},
		{
			"buffer":0,
			"byteLength":288,
			"byteOffset":64192,
			"target":34962
		},
		{
			"buffer":0,
			"byteLength":288,
			"byteOffset":64480,
			"target":34962
		}
	],
	"samplers":[
		{
			"magFilter":9729,
			"minFilter":9987
		}
	],
	"buffers":[
		{
			"byteLength":64768,
			"uri":"obj_logo.bin"
		}
	]
}
