{
	"asset":{
		"generator":"Khronos glTF Blender I/O v4.2.57",
		"version":"2.0"
	},
	"extensionsUsed":[
		"KHR_materials_specular"
	],
	"scene":0,
	"scenes":[
		{
			"name":"obj_frame",
			"nodes":[
				0
			]
		}
	],
	"nodes":[
		{
			"mesh":0,
			"name":"obj_frame"
		}
	],
	"materials":[
		{
			"doubleSided":true,
			"extensions":{
				"KHR_materials_specular":{
					"specularFactor":0
				}
			},
			"name":"obj_frame",
			"pbrMetallicRoughness":{
				"baseColorTexture":{
					"index":0
				},
				"metallicFactor":0
			}
		}
	],
	"meshes":[
		{
			"name":"Mesh.390",
			"primitives":[
				{
					"attributes":{
						"POSITION":0,
						"NORMAL":1,
						"TEXCOORD_0":2
					},
					"indices":3,
					"material":0
				}
			]
		}
	],
	"textures":[
		{
			"sampler":0,
			"source":0
		}
	],
	"images":[
		{
			"mimeType":"image/png",
			"name":"obj_frame",
			"uri":"textures/obj_frame.png"
		}
	],
	"accessors":[
		{
			"bufferView":0,
			"componentType":5126,
			"count":1901,
			"max":[
				7.460275650024414,
				3.041011095046997,
				5.386879920959473
			],
			"min":[
				-7.460275650024414,
				-0.0775798037648201,
				-7.289271831512451
			],
			"type":"VEC3"
		},
		{
			"bufferView":1,
			"componentType":5126,
			"count":1901,
			"type":"VEC3"
		},
		{
			"bufferView":2,
			"componentType":5126,
			"count":1901,
			"type":"VEC2"
		},
		{
			"bufferView":3,
			"componentType":5123,
			"count":8136,
			"type":"SCALAR"
		}
	],
	"bufferViews":[
		{
			"buffer":0,
			"byteLength":22812,
			"byteOffset":0,
			"target":34962
		},
		{
			"buffer":0,
			"byteLength":22812,
			"byteOffset":22812,
			"target":34962
		},
		{
			"buffer":0,
			"byteLength":15208,
			"byteOffset":45624,
			"target":34962
		},
		{
			"buffer":0,
			"byteLength":16272,
			"byteOffset":60832,
			"target":34963
		}
	],
	"samplers":[
		{
			"magFilter":9729,
			"minFilter":9987
		}
	],
	"buffers":[
		{
			"byteLength":77104,
			"uri":"obj_frame.bin"
		}
	]
}
