{
	"asset":{
		"generator":"Khronos glTF Blender I/O v4.2.57",
		"version":"2.0"
	},
	"extensionsUsed":[
		"KHR_materials_specular"
	],
	"scene":0,
	"scenes":[
		{
			"name":"Scene",
			"nodes":[
				0,
				1
			]
		}
	],
	"nodes":[
		{
			"mesh":0,
			"name":"obj_hammer"
		},
		{
			"mesh":1,
			"name":"obj_hammer_collider"
		}
	],
	"materials":[
		{
			"doubleSided":true,
			"emissiveFactor":[
				0.10000000149011612,
				0.10000000149011612,
				0.10000000149011612
			],
			"emissiveTexture":{
				"index":0
			},
			"extensions":{
				"KHR_materials_specular":{
					"specularFactor":0
				}
			},
			"name":"obj_frame",
			"pbrMetallicRoughness":{
				"baseColorTexture":{
					"index":1
				},
				"metallicFactor":0
			}
		}
	],
	"meshes":[
		{
			"name":"Mesh.397",
			"primitives":[
				{
					"attributes":{
						"POSITION":0,
						"NORMAL":1,
						"TEXCOORD_0":2
					},
					"indices":3,
					"material":0
				}
			]
		},
		{
			"name":"Mesh.007",
			"primitives":[
				{
					"attributes":{
						"POSITION":4,
						"NORMAL":5,
						"TEXCOORD_0":6
					},
					"indices":3
				}
			]
		}
	],
	"textures":[
		{
			"sampler":0,
			"source":0
		},
		{
			"sampler":0,
			"source":0
		}
	],
	"images":[
		{
			"mimeType":"image/png",
			"name":"obj_frame",
			"uri":"textures/obj_frame.png"
		}
	],
	"accessors":[
		{
			"bufferView":0,
			"componentType":5126,
			"count":122,
			"max":[
				0.2822946310043335,
				0.8977329134941101,
				0.28229308128356934
			],
			"min":[
				-1.4813200235366821,
				-1.2429291018634103e-06,
				-0.28229430317878723
			],
			"type":"VEC3"
		},
		{
			"bufferView":1,
			"componentType":5126,
			"count":122,
			"type":"VEC3"
		},
		{
			"bufferView":2,
			"componentType":5126,
			"count":122,
			"type":"VEC2"
		},
		{
			"bufferView":3,
			"componentType":5123,
			"count":384,
			"type":"SCALAR"
		},
		{
			"bufferView":4,
			"componentType":5126,
			"count":122,
			"max":[
				0.2822946310043335,
				0.8977329134941101,
				0.28229308128356934
			],
			"min":[
				-1.4813200235366821,
				-1.2429291018634103e-06,
				-0.28229430317878723
			],
			"type":"VEC3"
		},
		{
			"bufferView":5,
			"componentType":5126,
			"count":122,
			"type":"VEC3"
		},
		{
			"bufferView":6,
			"componentType":5126,
			"count":122,
			"type":"VEC2"
		}
	],
	"bufferViews":[
		{
			"buffer":0,
			"byteLength":1464,
			"byteOffset":0,
			"target":34962
		},
		{
			"buffer":0,
			"byteLength":1464,
			"byteOffset":1464,
			"target":34962
		},
		{
			"buffer":0,
			"byteLength":976,
			"byteOffset":2928,
			"target":34962
		},
		{
			"buffer":0,
			"byteLength":768,
			"byteOffset":3904,
			"target":34963
		},
		{
			"buffer":0,
			"byteLength":1464,
			"byteOffset":4672,
			"target":34962
		},
		{
			"buffer":0,
			"byteLength":1464,
			"byteOffset":6136,
			"target":34962
		},
		{
			"buffer":0,
			"byteLength":976,
			"byteOffset":7600,
			"target":34962
		}
	],
	"samplers":[
		{
			"magFilter":9729,
			"minFilter":9987
		}
	],
	"buffers":[
		{
			"byteLength":8576,
			"uri":"obj_hammer.bin"
		}
	]
}
