{
	"asset":{
		"generator":"Khronos glTF Blender I/O v4.3.47",
		"version":"2.0"
	},
	"extensionsUsed":[
		"KHR_materials_specular"
	],
	"scene":0,
	"scenes":[
		{
			"name":"Scene",
			"nodes":[
				0,
				1
			]
		}
	],
	"nodes":[
		{
			"mesh":0,
			"name":"obj_snowman"
		},
		{
			"mesh":1,
			"name":"obj_snowman_collider"
		}
	],
	"materials":[
		{
			"doubleSided":true,
			"emissiveFactor":[
				0.10000000149011612,
				0.10000000149011612,
				0.10000000149011612
			],
			"emissiveTexture":{
				"index":0
			},
			"extensions":{
				"KHR_materials_specular":{
					"specularFactor":0
				}
			},
			"name":"obj_snowman",
			"pbrMetallicRoughness":{
				"baseColorTexture":{
					"index":1
				},
				"metallicFactor":0
			}
		}
	],
	"meshes":[
		{
			"name":"obj_snowman",
			"primitives":[
				{
					"attributes":{
						"POSITION":0,
						"NORMAL":1,
						"TEXCOORD_0":2
					},
					"indices":3,
					"material":0
				}
			]
		},
		{
			"name":"obj_snowman_collider",
			"primitives":[
				{
					"attributes":{
						"POSITION":4,
						"NORMAL":5,
						"TEXCOORD_0":6
					},
					"indices":7
				}
			]
		}
	],
	"textures":[
		{
			"sampler":0,
			"source":0
		},
		{
			"sampler":0,
			"source":0
		}
	],
	"images":[
		{
			"mimeType":"image/png",
			"name":"obj_snowman",
			"uri":"textures/obj_snowman.png"
		}
	],
	"accessors":[
		{
			"bufferView":0,
			"componentType":5126,
			"count":904,
			"max":[
				5.697097301483154,
				2.829414129257202,
				-0.8829660415649414
			],
			"min":[
				4.352630138397217,
				-0.058350227773189545,
				-2.285515785217285
			],
			"type":"VEC3"
		},
		{
			"bufferView":1,
			"componentType":5126,
			"count":904,
			"type":"VEC3"
		},
		{
			"bufferView":2,
			"componentType":5126,
			"count":904,
			"type":"VEC2"
		},
		{
			"bufferView":3,
			"componentType":5123,
			"count":3558,
			"type":"SCALAR"
		},
		{
			"bufferView":4,
			"componentType":5126,
			"count":301,
			"max":[
				5.724484920501709,
				2.831094980239868,
				-0.8734688758850098
			],
			"min":[
				4.32524299621582,
				-0.0003457298444118351,
				-2.2920801639556885
			],
			"type":"VEC3"
		},
		{
			"bufferView":5,
			"componentType":5126,
			"count":301,
			"type":"VEC3"
		},
		{
			"bufferView":6,
			"componentType":5126,
			"count":301,
			"type":"VEC2"
		},
		{
			"bufferView":7,
			"componentType":5123,
			"count":1068,
			"type":"SCALAR"
		}
	],
	"bufferViews":[
		{
			"buffer":0,
			"byteLength":10848,
			"byteOffset":0,
			"target":34962
		},
		{
			"buffer":0,
			"byteLength":10848,
			"byteOffset":10848,
			"target":34962
		},
		{
			"buffer":0,
			"byteLength":7232,
			"byteOffset":21696,
			"target":34962
		},
		{
			"buffer":0,
			"byteLength":7116,
			"byteOffset":28928,
			"target":34963
		},
		{
			"buffer":0,
			"byteLength":3612,
			"byteOffset":36044,
			"target":34962
		},
		{
			"buffer":0,
			"byteLength":3612,
			"byteOffset":39656,
			"target":34962
		},
		{
			"buffer":0,
			"byteLength":2408,
			"byteOffset":43268,
			"target":34962
		},
		{
			"buffer":0,
			"byteLength":2136,
			"byteOffset":45676,
			"target":34963
		}
	],
	"samplers":[
		{
			"magFilter":9729,
			"minFilter":9987
		}
	],
	"buffers":[
		{
			"byteLength":47812,
			"uri":"obj_snowman.bin"
		}
	]
}
