{
	"asset":{
		"generator":"Khronos glTF Blender I/O v4.3.47",
		"version":"2.0"
	},
	"extensionsUsed":[
		"KHR_materials_specular"
	],
	"scene":0,
	"scenes":[
		{
			"name":"Scene",
			"nodes":[
				0,
				1
			]
		}
	],
	"nodes":[
		{
			"mesh":0,
			"name":"obj_ground"
		},
		{
			"mesh":1,
			"name":"obj_ground_collider"
		}
	],
	"materials":[
		{
			"emissiveFactor":[
				0.10000000149011612,
				0.10000000149011612,
				0.10000000149011612
			],
			"emissiveTexture":{
				"index":0
			},
			"extensions":{
				"KHR_materials_specular":{
					"specularFactor":0
				}
			},
			"name":"obj_ground",
			"pbrMetallicRoughness":{
				"baseColorTexture":{
					"index":1
				},
				"metallicFactor":0
			}
		},
		{
			"emissiveFactor":[
				1,
				0.3419147729873657,
				0.028426136821508408
			],
			"name":"obj_emission01",
			"pbrMetallicRoughness":{
				"baseColorFactor":[
					1,
					0.3419147729873657,
					0.028426136821508408,
					1
				],
				"metallicFactor":0
			}
		}
	],
	"meshes":[
		{
			"name":"obj_ground",
			"primitives":[
				{
					"attributes":{
						"POSITION":0,
						"NORMAL":1,
						"TEXCOORD_0":2
					},
					"indices":3,
					"material":0
				},
				{
					"attributes":{
						"POSITION":4,
						"NORMAL":5,
						"TEXCOORD_0":6
					},
					"indices":7,
					"material":1
				}
			]
		},
		{
			"name":"obj_ground_collider",
			"primitives":[
				{
					"attributes":{
						"POSITION":8,
						"NORMAL":9,
						"TEXCOORD_0":10
					},
					"indices":11
				}
			]
		}
	],
	"textures":[
		{
			"sampler":0,
			"source":0
		},
		{
			"sampler":0,
			"source":0
		}
	],
	"images":[
		{
			"mimeType":"image/png",
			"name":"obj_ground",
			"uri":"textures/obj_ground.png"
		}
	],
	"accessors":[
		{
			"bufferView":0,
			"componentType":5126,
			"count":528,
			"max":[
				8,
				0.7381060719490051,
				8
			],
			"min":[
				-8,
				0,
				-7.999998569488525
			],
			"type":"VEC3"
		},
		{
			"bufferView":1,
			"componentType":5126,
			"count":528,
			"type":"VEC3"
		},
		{
			"bufferView":2,
			"componentType":5126,
			"count":528,
			"type":"VEC2"
		},
		{
			"bufferView":3,
			"componentType":5123,
			"count":1944,
			"type":"SCALAR"
		},
		{
			"bufferView":4,
			"componentType":5126,
			"count":104,
			"max":[
				7.874030590057373,
				0.04330317676067352,
				7.882829189300537
			],
			"min":[
				-7.874035358428955,
				-1.220703097715159e-06,
				-7.882829189300537
			],
			"type":"VEC3"
		},
		{
			"bufferView":5,
			"componentType":5126,
			"count":104,
			"type":"VEC3"
		},
		{
			"bufferView":6,
			"componentType":5126,
			"count":104,
			"type":"VEC2"
		},
		{
			"bufferView":7,
			"componentType":5123,
			"count":288,
			"type":"SCALAR"
		},
		{
			"bufferView":8,
			"componentType":5126,
			"count":320,
			"max":[
				7.874030590057373,
				0.7381066679954529,
				7.882829189300537
			],
			"min":[
				-7.874035358428955,
				-1.220703097715159e-06,
				-7.882829189300537
			],
			"type":"VEC3"
		},
		{
			"bufferView":9,
			"componentType":5126,
			"count":320,
			"type":"VEC3"
		},
		{
			"bufferView":10,
			"componentType":5126,
			"count":320,
			"type":"VEC2"
		},
		{
			"bufferView":11,
			"componentType":5123,
			"count":864,
			"type":"SCALAR"
		}
	],
	"bufferViews":[
		{
			"buffer":0,
			"byteLength":6336,
			"byteOffset":0,
			"target":34962
		},
		{
			"buffer":0,
			"byteLength":6336,
			"byteOffset":6336,
			"target":34962
		},
		{
			"buffer":0,
			"byteLength":4224,
			"byteOffset":12672,
			"target":34962
		},
		{
			"buffer":0,
			"byteLength":3888,
			"byteOffset":16896,
			"target":34963
		},
		{
			"buffer":0,
			"byteLength":1248,
			"byteOffset":20784,
			"target":34962
		},
		{
			"buffer":0,
			"byteLength":1248,
			"byteOffset":22032,
			"target":34962
		},
		{
			"buffer":0,
			"byteLength":832,
			"byteOffset":23280,
			"target":34962
		},
		{
			"buffer":0,
			"byteLength":576,
			"byteOffset":24112,
			"target":34963
		},
		{
			"buffer":0,
			"byteLength":3840,
			"byteOffset":24688,
			"target":34962
		},
		{
			"buffer":0,
			"byteLength":3840,
			"byteOffset":28528,
			"target":34962
		},
		{
			"buffer":0,
			"byteLength":2560,
			"byteOffset":32368,
			"target":34962
		},
		{
			"buffer":0,
			"byteLength":1728,
			"byteOffset":34928,
			"target":34963
		}
	],
	"samplers":[
		{
			"magFilter":9729,
			"minFilter":9987
		}
	],
	"buffers":[
		{
			"byteLength":36656,
			"uri":"obj_ground.bin"
		}
	]
}
