{
	"asset":{
		"generator":"Khronos glTF Blender I/O v4.1.63",
		"version":"2.0"
	},
	"scene":0,
	"scenes":[
		{
			"name":"Scene",
			"nodes":[
				0
			]
		}
	],
	"nodes":[
		{
			"mesh":0,
			"name":"target1_4"
		}
	],
	"meshes":[
		{
			"name":"Mesh.113",
			"primitives":[
				{
					"attributes":{
						"POSITION":0,
						"NORMAL":1,
						"TEXCOORD_0":2
					},
					"indices":3
				}
			]
		}
	],
	"accessors":[
		{
			"bufferView":0,
			"componentType":5126,
			"count":44,
			"max":[
				0.046333082020282745,
				0.09534209966659546,
				-7.386420008970163e-08
			],
			"min":[
				-0.04633314907550812,
				-0.09534195065498352,
				-8.826044961551816e-08
			],
			"type":"VEC3"
		},
		{
			"bufferView":1,
			"componentType":5126,
			"count":44,
			"type":"VEC3"
		},
		{
			"bufferView":2,
			"componentType":5126,
			"count":44,
			"type":"VEC2"
		},
		{
			"bufferView":3,
			"componentType":5123,
			"count":126,
			"type":"SCALAR"
		}
	],
	"bufferViews":[
		{
			"buffer":0,
			"byteLength":528,
			"byteOffset":0,
			"target":34962
		},
		{
			"buffer":0,
			"byteLength":528,
			"byteOffset":528,
			"target":34962
		},
		{
			"buffer":0,
			"byteLength":352,
			"byteOffset":1056,
			"target":34962
		},
		{
			"buffer":0,
			"byteLength":252,
			"byteOffset":1408,
			"target":34963
		}
	],
	"buffers":[
		{
			"byteLength":1660,
			"uri":"target1_4.bin"
		}
	]
}
