{
	"asset":{
		"generator":"Khronos glTF Blender I/O v4.1.63",
		"version":"2.0"
	},
	"scene":0,
	"scenes":[
		{
			"name":"Scene",
			"nodes":[
				21
			]
		}
	],
	"nodes":[
		{
			"mesh":0,
			"name":"bootle_false"
		},
		{
			"mesh":1,
			"name":"chair3_false"
		},
		{
			"mesh":2,
			"name":"chair_false"
		},
		{
			"mesh":3,
			"name":"chair_true"
		},
		{
			"mesh":4,
			"name":"emblem_false"
		},
		{
			"mesh":5,
			"name":"gears2_false"
		},
		{
			"mesh":6,
			"name":"gears_true"
		},
		{
			"mesh":7,
			"name":"lamp1_false"
		},
		{
			"mesh":8,
			"name":"lamp2_false"
		},
		{
			"mesh":9,
			"name":"lamp3_false"
		},
		{
			"mesh":10,
			"name":"lamp_false"
		},
		{
			"mesh":11,
			"name":"lamp_true"
		},
		{
			"mesh":12,
			"name":"man1_true"
		},
		{
			"mesh":13,
			"name":"man2_false"
		},
		{
			"mesh":14,
			"name":"man2_true"
		},
		{
			"mesh":15,
			"name":"man_false"
		},
		{
			"mesh":16,
			"name":"roof1_false"
		},
		{
			"mesh":17,
			"name":"roof1_true"
		},
		{
			"mesh":18,
			"name":"roof2_false"
		},
		{
			"mesh":19,
			"name":"roof3_false"
		},
		{
			"mesh":20,
			"name":"tuberoof2_false"
		},
		{
			"children":[
				0,
				1,
				2,
				3,
				4,
				5,
				6,
				7,
				8,
				9,
				10,
				11,
				12,
				13,
				14,
				15,
				16,
				17,
				18,
				19,
				20
			],
			"name":"image1",
			"rotation":[
				0.7071068286895752,
				0,
				0,
				0.7071068286895752
			],
			"scale":[
				0.009999999776482582,
				0.009999999776482582,
				0.009999999776482582
			]
		}
	],
	"meshes":[
		{
			"name":"Mesh.009",
			"primitives":[
				{
					"attributes":{
						"POSITION":0,
						"NORMAL":1,
						"TEXCOORD_0":2
					},
					"indices":3
				}
			]
		},
		{
			"name":"Mesh.012",
			"primitives":[
				{
					"attributes":{
						"POSITION":4,
						"NORMAL":5,
						"TEXCOORD_0":6
					},
					"indices":7
				}
			]
		},
		{
			"name":"Mesh.008",
			"primitives":[
				{
					"attributes":{
						"POSITION":8,
						"NORMAL":9,
						"TEXCOORD_0":10
					},
					"indices":11
				}
			]
		},
		{
			"name":"Mesh.003",
			"primitives":[
				{
					"attributes":{
						"POSITION":12,
						"NORMAL":13,
						"TEXCOORD_0":14
					},
					"indices":7
				}
			]
		},
		{
			"name":"Mesh.013",
			"primitives":[
				{
					"attributes":{
						"POSITION":15,
						"NORMAL":16,
						"TEXCOORD_0":17
					},
					"indices":18
				}
			]
		},
		{
			"name":"Mesh.011",
			"primitives":[
				{
					"attributes":{
						"POSITION":19,
						"NORMAL":20,
						"TEXCOORD_0":21
					},
					"indices":22
				}
			]
		},
		{
			"name":"Mesh.001",
			"primitives":[
				{
					"attributes":{
						"POSITION":23,
						"NORMAL":24,
						"TEXCOORD_0":25
					},
					"indices":26
				}
			]
		},
		{
			"name":"Mesh.014",
			"primitives":[
				{
					"attributes":{
						"POSITION":27,
						"NORMAL":28,
						"TEXCOORD_0":29
					},
					"indices":22
				}
			]
		},
		{
			"name":"Mesh.015",
			"primitives":[
				{
					"attributes":{
						"POSITION":30,
						"NORMAL":31,
						"TEXCOORD_0":32
					},
					"indices":22
				}
			]
		},
		{
			"name":"Mesh.018",
			"primitives":[
				{
					"attributes":{
						"POSITION":33,
						"NORMAL":34,
						"TEXCOORD_0":35
					},
					"indices":36
				}
			]
		},
		{
			"name":"Mesh.006",
			"primitives":[
				{
					"attributes":{
						"POSITION":37,
						"NORMAL":38,
						"TEXCOORD_0":39
					},
					"indices":36
				}
			]
		},
		{
			"name":"Mesh",
			"primitives":[
				{
					"attributes":{
						"POSITION":40,
						"NORMAL":41,
						"TEXCOORD_0":42
					},
					"indices":43
				}
			]
		},
		{
			"name":"Mesh.004",
			"primitives":[
				{
					"attributes":{
						"POSITION":44,
						"NORMAL":45,
						"TEXCOORD_0":46
					},
					"indices":47
				}
			]
		},
		{
			"name":"Mesh.010",
			"primitives":[
				{
					"attributes":{
						"POSITION":48,
						"NORMAL":49,
						"TEXCOORD_0":50
					},
					"indices":51
				}
			]
		},
		{
			"name":"Mesh.005",
			"primitives":[
				{
					"attributes":{
						"POSITION":52,
						"NORMAL":53,
						"TEXCOORD_0":54
					},
					"indices":55
				}
			]
		},
		{
			"name":"Mesh.007",
			"primitives":[
				{
					"attributes":{
						"POSITION":56,
						"NORMAL":57,
						"TEXCOORD_0":58
					},
					"indices":59
				}
			]
		},
		{
			"name":"Mesh.016",
			"primitives":[
				{
					"attributes":{
						"POSITION":60,
						"NORMAL":61,
						"TEXCOORD_0":62
					},
					"indices":63
				}
			]
		},
		{
			"name":"Mesh.002",
			"primitives":[
				{
					"attributes":{
						"POSITION":64,
						"NORMAL":65,
						"TEXCOORD_0":66
					},
					"indices":67
				}
			]
		},
		{
			"name":"Mesh.017",
			"primitives":[
				{
					"attributes":{
						"POSITION":68,
						"NORMAL":69,
						"TEXCOORD_0":70
					},
					"indices":71
				}
			]
		},
		{
			"name":"Mesh.019",
			"primitives":[
				{
					"attributes":{
						"POSITION":72,
						"NORMAL":73,
						"TEXCOORD_0":74
					},
					"indices":63
				}
			]
		},
		{
			"name":"Mesh.020",
			"primitives":[
				{
					"attributes":{
						"POSITION":75,
						"NORMAL":76,
						"TEXCOORD_0":77
					},
					"indices":78
				}
			]
		}
	],
	"accessors":[
		{
			"bufferView":0,
			"componentType":5126,
			"count":18,
			"max":[
				-106.36097717285156,
				3.6006693840026855,
				-107.97037506103516
			],
			"min":[
				-118.00414276123047,
				3.6006693840026855,
				-120.07421112060547
			],
			"type":"VEC3"
		},
		{
			"bufferView":1,
			"componentType":5126,
			"count":18,
			"type":"VEC3"
		},
		{
			"bufferView":2,
			"componentType":5126,
			"count":18,
			"type":"VEC2"
		},
		{
			"bufferView":3,
			"componentType":5123,
			"count":45,
			"type":"SCALAR"
		},
		{
			"bufferView":4,
			"componentType":5126,
			"count":24,
			"max":[
				45.21057891845703,
				3.6006693840026855,
				-14.27055549621582
			],
			"min":[
				15.594712257385254,
				3.6006693840026855,
				-72.85332489013672
			],
			"type":"VEC3"
		},
		{
			"bufferView":5,
			"componentType":5126,
			"count":24,
			"type":"VEC3"
		},
		{
			"bufferView":6,
			"componentType":5126,
			"count":24,
			"type":"VEC2"
		},
		{
			"bufferView":7,
			"componentType":5123,
			"count":63,
			"type":"SCALAR"
		},
		{
			"bufferView":8,
			"componentType":5126,
			"count":22,
			"max":[
				-60.431060791015625,
				3.6006693840026855,
				-13.965141296386719
			],
			"min":[
				-97.44307708740234,
				3.6006693840026855,
				-64.91102600097656
			],
			"type":"VEC3"
		},
		{
			"bufferView":9,
			"componentType":5126,
			"count":22,
			"type":"VEC3"
		},
		{
			"bufferView":10,
			"componentType":5126,
			"count":22,
			"type":"VEC2"
		},
		{
			"bufferView":11,
			"componentType":5123,
			"count":57,
			"type":"SCALAR"
		},
		{
			"bufferView":12,
			"componentType":5126,
			"count":24,
			"max":[
				-1.249039649963379,
				3.6006693840026855,
				-13.842817306518555
			],
			"min":[
				-41.819217681884766,
				3.6006693840026855,
				-56.01313018798828
			],
			"type":"VEC3"
		},
		{
			"bufferView":13,
			"componentType":5126,
			"count":24,
			"type":"VEC3"
		},
		{
			"bufferView":14,
			"componentType":5126,
			"count":24,
			"type":"VEC2"
		},
		{
			"bufferView":15,
			"componentType":5126,
			"count":18,
			"max":[
				7.7822065353393555,
				3.6006693840026855,
				-53.97514343261719
			],
			"min":[
				-3.125763177871704,
				3.6006693840026855,
				-68.65591430664062
			],
			"type":"VEC3"
		},
		{
			"bufferView":16,
			"componentType":5126,
			"count":18,
			"type":"VEC3"
		},
		{
			"bufferView":17,
			"componentType":5126,
			"count":18,
			"type":"VEC2"
		},
		{
			"bufferView":18,
			"componentType":5123,
			"count":45,
			"type":"SCALAR"
		},
		{
			"bufferView":19,
			"componentType":5126,
			"count":19,
			"max":[
				28.905149459838867,
				3.6006693840026855,
				-163.52716064453125
			],
			"min":[
				11.56352424621582,
				3.6006693840026855,
				-183.82456970214844
			],
			"type":"VEC3"
		},
		{
			"bufferView":20,
			"componentType":5126,
			"count":19,
			"type":"VEC3"
		},
		{
			"bufferView":21,
			"componentType":5126,
			"count":19,
			"type":"VEC2"
		},
		{
			"bufferView":22,
			"componentType":5123,
			"count":48,
			"type":"SCALAR"
		},
		{
			"bufferView":23,
			"componentType":5126,
			"count":21,
			"max":[
				43.9011344909668,
				3.6006693840026855,
				-233.47540283203125
			],
			"min":[
				23.878887176513672,
				3.6006693840026855,
				-247.82774353027344
			],
			"type":"VEC3"
		},
		{
			"bufferView":24,
			"componentType":5126,
			"count":21,
			"type":"VEC3"
		},
		{
			"bufferView":25,
			"componentType":5126,
			"count":21,
			"type":"VEC2"
		},
		{
			"bufferView":26,
			"componentType":5123,
			"count":60,
			"type":"SCALAR"
		},
		{
			"bufferView":27,
			"componentType":5126,
			"count":19,
			"max":[
				61.067108154296875,
				3.6006693840026855,
				-162.24510192871094
			],
			"min":[
				53.47617721557617,
				3.6006693840026855,
				-169.79959106445312
			],
			"type":"VEC3"
		},
		{
			"bufferView":28,
			"componentType":5126,
			"count":19,
			"type":"VEC3"
		},
		{
			"bufferView":29,
			"componentType":5126,
			"count":19,
			"type":"VEC2"
		},
		{
			"bufferView":30,
			"componentType":5126,
			"count":19,
			"max":[
				42.902259826660156,
				3.6006693840026855,
				-154.4796142578125
			],
			"min":[
				32.555416107177734,
				3.6006693840026855,
				-168.9677276611328
			],
			"type":"VEC3"
		},
		{
			"bufferView":31,
			"componentType":5126,
			"count":19,
			"type":"VEC3"
		},
		{
			"bufferView":32,
			"componentType":5126,
			"count":19,
			"type":"VEC2"
		},
		{
			"bufferView":33,
			"componentType":5126,
			"count":65,
			"max":[
				60.83269500732422,
				3.6006693840026855,
				-139.23974609375
			],
			"min":[
				55.528907775878906,
				3.6006693840026855,
				-159.29054260253906
			],
			"type":"VEC3"
		},
		{
			"bufferView":34,
			"componentType":5126,
			"count":65,
			"type":"VEC3"
		},
		{
			"bufferView":35,
			"componentType":5126,
			"count":65,
			"type":"VEC2"
		},
		{
			"bufferView":36,
			"componentType":5123,
			"count":117,
			"type":"SCALAR"
		},
		{
			"bufferView":37,
			"componentType":5126,
			"count":65,
			"max":[
				-6.6793622970581055,
				3.6006693840026855,
				-168.72540283203125
			],
			"min":[
				-20.468128204345703,
				3.6006693840026855,
				-249.91372680664062
			],
			"type":"VEC3"
		},
		{
			"bufferView":38,
			"componentType":5126,
			"count":65,
			"type":"VEC3"
		},
		{
			"bufferView":39,
			"componentType":5126,
			"count":65,
			"type":"VEC2"
		},
		{
			"bufferView":40,
			"componentType":5126,
			"count":69,
			"max":[
				-80.50028228759766,
				3.6006693840026855,
				-158.73178100585938
			],
			"min":[
				-92.54893493652344,
				3.6006693840026855,
				-220.2636260986328
			],
			"type":"VEC3"
		},
		{
			"bufferView":41,
			"componentType":5126,
			"count":69,
			"type":"VEC3"
		},
		{
			"bufferView":42,
			"componentType":5126,
			"count":69,
			"type":"VEC2"
		},
		{
			"bufferView":43,
			"componentType":5123,
			"count":123,
			"type":"SCALAR"
		},
		{
			"bufferView":44,
			"componentType":5126,
			"count":44,
			"max":[
				17.13715362548828,
				3.6006693840026855,
				-107.32347106933594
			],
			"min":[
				3.899125099182129,
				3.6006693840026855,
				-134.5640411376953
			],
			"type":"VEC3"
		},
		{
			"bufferView":45,
			"componentType":5126,
			"count":44,
			"type":"VEC3"
		},
		{
			"bufferView":46,
			"componentType":5126,
			"count":44,
			"type":"VEC2"
		},
		{
			"bufferView":47,
			"componentType":5123,
			"count":126,
			"type":"SCALAR"
		},
		{
			"bufferView":48,
			"componentType":5126,
			"count":72,
			"max":[
				59.406455993652344,
				3.6006693840026855,
				-71.87018585205078
			],
			"min":[
				17.108280181884766,
				3.6006693840026855,
				-135.86375427246094
			],
			"type":"VEC3"
		},
		{
			"bufferView":49,
			"componentType":5126,
			"count":72,
			"type":"VEC3"
		},
		{
			"bufferView":50,
			"componentType":5126,
			"count":72,
			"type":"VEC2"
		},
		{
			"bufferView":51,
			"componentType":5123,
			"count":210,
			"type":"SCALAR"
		},
		{
			"bufferView":52,
			"componentType":5126,
			"count":19,
			"max":[
				110.92692565917969,
				3.6006693840026855,
				-111.62100219726562
			],
			"min":[
				99.6475830078125,
				3.6006693840026855,
				-128.79446411132812
			],
			"type":"VEC3"
		},
		{
			"bufferView":53,
			"componentType":5126,
			"count":19,
			"type":"VEC3"
		},
		{
			"bufferView":54,
			"componentType":5126,
			"count":19,
			"type":"VEC2"
		},
		{
			"bufferView":55,
			"componentType":5123,
			"count":51,
			"type":"SCALAR"
		},
		{
			"bufferView":56,
			"componentType":5126,
			"count":36,
			"max":[
				-71.06265258789062,
				3.6006693840026855,
				-103.42324829101562
			],
			"min":[
				-91.81269836425781,
				3.6006693840026855,
				-138.411865234375
			],
			"type":"VEC3"
		},
		{
			"bufferView":57,
			"componentType":5126,
			"count":36,
			"type":"VEC3"
		},
		{
			"bufferView":58,
			"componentType":5126,
			"count":36,
			"type":"VEC2"
		},
		{
			"bufferView":59,
			"componentType":5123,
			"count":102,
			"type":"SCALAR"
		},
		{
			"bufferView":60,
			"componentType":5126,
			"count":8,
			"max":[
				37.694522857666016,
				3.6006693840026855,
				-183.473876953125
			],
			"min":[
				33.24567794799805,
				3.6006693840026855,
				-216.76051330566406
			],
			"type":"VEC3"
		},
		{
			"bufferView":61,
			"componentType":5126,
			"count":8,
			"type":"VEC3"
		},
		{
			"bufferView":62,
			"componentType":5126,
			"count":8,
			"type":"VEC2"
		},
		{
			"bufferView":63,
			"componentType":5123,
			"count":12,
			"type":"SCALAR"
		},
		{
			"bufferView":64,
			"componentType":5126,
			"count":30,
			"max":[
				60.77164840698242,
				3.6006693840026855,
				-196.36019897460938
			],
			"min":[
				56.10202407836914,
				3.6006693840026855,
				-225.67672729492188
			],
			"type":"VEC3"
		},
		{
			"bufferView":65,
			"componentType":5126,
			"count":30,
			"type":"VEC3"
		},
		{
			"bufferView":66,
			"componentType":5126,
			"count":30,
			"type":"VEC2"
		},
		{
			"bufferView":67,
			"componentType":5123,
			"count":48,
			"type":"SCALAR"
		},
		{
			"bufferView":68,
			"componentType":5126,
			"count":13,
			"max":[
				49.41876983642578,
				3.6006693840026855,
				-182.62667846679688
			],
			"min":[
				43.95745849609375,
				3.6006693840026855,
				-221.0262451171875
			],
			"type":"VEC3"
		},
		{
			"bufferView":69,
			"componentType":5126,
			"count":13,
			"type":"VEC3"
		},
		{
			"bufferView":70,
			"componentType":5126,
			"count":13,
			"type":"VEC2"
		},
		{
			"bufferView":71,
			"componentType":5123,
			"count":27,
			"type":"SCALAR"
		},
		{
			"bufferView":72,
			"componentType":5126,
			"count":8,
			"max":[
				85.5732192993164,
				3.6006693840026855,
				-155.6917266845703
			],
			"min":[
				83.70887756347656,
				3.6006693840026855,
				-176.04067993164062
			],
			"type":"VEC3"
		},
		{
			"bufferView":73,
			"componentType":5126,
			"count":8,
			"type":"VEC3"
		},
		{
			"bufferView":74,
			"componentType":5126,
			"count":8,
			"type":"VEC2"
		},
		{
			"bufferView":75,
			"componentType":5126,
			"count":10,
			"max":[
				116.25032043457031,
				3.6006693840026855,
				-158.41346740722656
			],
			"min":[
				90.82752227783203,
				3.6006693840026855,
				-249.75961303710938
			],
			"type":"VEC3"
		},
		{
			"bufferView":76,
			"componentType":5126,
			"count":10,
			"type":"VEC3"
		},
		{
			"bufferView":77,
			"componentType":5126,
			"count":10,
			"type":"VEC2"
		},
		{
			"bufferView":78,
			"componentType":5123,
			"count":18,
			"type":"SCALAR"
		}
	],
	"bufferViews":[
		{
			"buffer":0,
			"byteLength":216,
			"byteOffset":0,
			"target":34962
		},
		{
			"buffer":0,
			"byteLength":216,
			"byteOffset":216,
			"target":34962
		},
		{
			"buffer":0,
			"byteLength":144,
			"byteOffset":432,
			"target":34962
		},
		{
			"buffer":0,
			"byteLength":90,
			"byteOffset":576,
			"target":34963
		},
		{
			"buffer":0,
			"byteLength":288,
			"byteOffset":668,
			"target":34962
		},
		{
			"buffer":0,
			"byteLength":288,
			"byteOffset":956,
			"target":34962
		},
		{
			"buffer":0,
			"byteLength":192,
			"byteOffset":1244,
			"target":34962
		},
		{
			"buffer":0,
			"byteLength":126,
			"byteOffset":1436,
			"target":34963
		},
		{
			"buffer":0,
			"byteLength":264,
			"byteOffset":1564,
			"target":34962
		},
		{
			"buffer":0,
			"byteLength":264,
			"byteOffset":1828,
			"target":34962
		},
		{
			"buffer":0,
			"byteLength":176,
			"byteOffset":2092,
			"target":34962
		},
		{
			"buffer":0,
			"byteLength":114,
			"byteOffset":2268,
			"target":34963
		},
		{
			"buffer":0,
			"byteLength":288,
			"byteOffset":2384,
			"target":34962
		},
		{
			"buffer":0,
			"byteLength":288,
			"byteOffset":2672,
			"target":34962
		},
		{
			"buffer":0,
			"byteLength":192,
			"byteOffset":2960,
			"target":34962
		},
		{
			"buffer":0,
			"byteLength":216,
			"byteOffset":3152,
			"target":34962
		},
		{
			"buffer":0,
			"byteLength":216,
			"byteOffset":3368,
			"target":34962
		},
		{
			"buffer":0,
			"byteLength":144,
			"byteOffset":3584,
			"target":34962
		},
		{
			"buffer":0,
			"byteLength":90,
			"byteOffset":3728,
			"target":34963
		},
		{
			"buffer":0,
			"byteLength":228,
			"byteOffset":3820,
			"target":34962
		},
		{
			"buffer":0,
			"byteLength":228,
			"byteOffset":4048,
			"target":34962
		},
		{
			"buffer":0,
			"byteLength":152,
			"byteOffset":4276,
			"target":34962
		},
		{
			"buffer":0,
			"byteLength":96,
			"byteOffset":4428,
			"target":34963
		},
		{
			"buffer":0,
			"byteLength":252,
			"byteOffset":4524,
			"target":34962
		},
		{
			"buffer":0,
			"byteLength":252,
			"byteOffset":4776,
			"target":34962
		},
		{
			"buffer":0,
			"byteLength":168,
			"byteOffset":5028,
			"target":34962
		},
		{
			"buffer":0,
			"byteLength":120,
			"byteOffset":5196,
			"target":34963
		},
		{
			"buffer":0,
			"byteLength":228,
			"byteOffset":5316,
			"target":34962
		},
		{
			"buffer":0,
			"byteLength":228,
			"byteOffset":5544,
			"target":34962
		},
		{
			"buffer":0,
			"byteLength":152,
			"byteOffset":5772,
			"target":34962
		},
		{
			"buffer":0,
			"byteLength":228,
			"byteOffset":5924,
			"target":34962
		},
		{
			"buffer":0,
			"byteLength":228,
			"byteOffset":6152,
			"target":34962
		},
		{
			"buffer":0,
			"byteLength":152,
			"byteOffset":6380,
			"target":34962
		},
		{
			"buffer":0,
			"byteLength":780,
			"byteOffset":6532,
			"target":34962
		},
		{
			"buffer":0,
			"byteLength":780,
			"byteOffset":7312,
			"target":34962
		},
		{
			"buffer":0,
			"byteLength":520,
			"byteOffset":8092,
			"target":34962
		},
		{
			"buffer":0,
			"byteLength":234,
			"byteOffset":8612,
			"target":34963
		},
		{
			"buffer":0,
			"byteLength":780,
			"byteOffset":8848,
			"target":34962
		},
		{
			"buffer":0,
			"byteLength":780,
			"byteOffset":9628,
			"target":34962
		},
		{
			"buffer":0,
			"byteLength":520,
			"byteOffset":10408,
			"target":34962
		},
		{
			"buffer":0,
			"byteLength":828,
			"byteOffset":10928,
			"target":34962
		},
		{
			"buffer":0,
			"byteLength":828,
			"byteOffset":11756,
			"target":34962
		},
		{
			"buffer":0,
			"byteLength":552,
			"byteOffset":12584,
			"target":34962
		},
		{
			"buffer":0,
			"byteLength":246,
			"byteOffset":13136,
			"target":34963
		},
		{
			"buffer":0,
			"byteLength":528,
			"byteOffset":13384,
			"target":34962
		},
		{
			"buffer":0,
			"byteLength":528,
			"byteOffset":13912,
			"target":34962
		},
		{
			"buffer":0,
			"byteLength":352,
			"byteOffset":14440,
			"target":34962
		},
		{
			"buffer":0,
			"byteLength":252,
			"byteOffset":14792,
			"target":34963
		},
		{
			"buffer":0,
			"byteLength":864,
			"byteOffset":15044,
			"target":34962
		},
		{
			"buffer":0,
			"byteLength":864,
			"byteOffset":15908,
			"target":34962
		},
		{
			"buffer":0,
			"byteLength":576,
			"byteOffset":16772,
			"target":34962
		},
		{
			"buffer":0,
			"byteLength":420,
			"byteOffset":17348,
			"target":34963
		},
		{
			"buffer":0,
			"byteLength":228,
			"byteOffset":17768,
			"target":34962
		},
		{
			"buffer":0,
			"byteLength":228,
			"byteOffset":17996,
			"target":34962
		},
		{
			"buffer":0,
			"byteLength":152,
			"byteOffset":18224,
			"target":34962
		},
		{
			"buffer":0,
			"byteLength":102,
			"byteOffset":18376,
			"target":34963
		},
		{
			"buffer":0,
			"byteLength":432,
			"byteOffset":18480,
			"target":34962
		},
		{
			"buffer":0,
			"byteLength":432,
			"byteOffset":18912,
			"target":34962
		},
		{
			"buffer":0,
			"byteLength":288,
			"byteOffset":19344,
			"target":34962
		},
		{
			"buffer":0,
			"byteLength":204,
			"byteOffset":19632,
			"target":34963
		},
		{
			"buffer":0,
			"byteLength":96,
			"byteOffset":19836,
			"target":34962
		},
		{
			"buffer":0,
			"byteLength":96,
			"byteOffset":19932,
			"target":34962
		},
		{
			"buffer":0,
			"byteLength":64,
			"byteOffset":20028,
			"target":34962
		},
		{
			"buffer":0,
			"byteLength":24,
			"byteOffset":20092,
			"target":34963
		},
		{
			"buffer":0,
			"byteLength":360,
			"byteOffset":20116,
			"target":34962
		},
		{
			"buffer":0,
			"byteLength":360,
			"byteOffset":20476,
			"target":34962
		},
		{
			"buffer":0,
			"byteLength":240,
			"byteOffset":20836,
			"target":34962
		},
		{
			"buffer":0,
			"byteLength":96,
			"byteOffset":21076,
			"target":34963
		},
		{
			"buffer":0,
			"byteLength":156,
			"byteOffset":21172,
			"target":34962
		},
		{
			"buffer":0,
			"byteLength":156,
			"byteOffset":21328,
			"target":34962
		},
		{
			"buffer":0,
			"byteLength":104,
			"byteOffset":21484,
			"target":34962
		},
		{
			"buffer":0,
			"byteLength":54,
			"byteOffset":21588,
			"target":34963
		},
		{
			"buffer":0,
			"byteLength":96,
			"byteOffset":21644,
			"target":34962
		},
		{
			"buffer":0,
			"byteLength":96,
			"byteOffset":21740,
			"target":34962
		},
		{
			"buffer":0,
			"byteLength":64,
			"byteOffset":21836,
			"target":34962
		},
		{
			"buffer":0,
			"byteLength":120,
			"byteOffset":21900,
			"target":34962
		},
		{
			"buffer":0,
			"byteLength":120,
			"byteOffset":22020,
			"target":34962
		},
		{
			"buffer":0,
			"byteLength":80,
			"byteOffset":22140,
			"target":34962
		},
		{
			"buffer":0,
			"byteLength":36,
			"byteOffset":22220,
			"target":34963
		}
	],
	"buffers":[
		{
			"byteLength":22256,
			"uri":"Image1.bin"
		}
	]
}
