{
	"asset":{
		"generator":"Khronos glTF Blender I/O v4.2.57",
		"version":"2.0"
	},
	"extensionsUsed":[
		"KHR_materials_specular"
	],
	"scene":0,
	"scenes":[
		{
			"name":"Scene",
			"nodes":[
				0
			]
		}
	],
	"nodes":[
		{
			"mesh":0,
			"name":"obj_text_base"
		}
	],
	"materials":[
		{
			"alphaMode":"BLEND",
			"emissiveFactor":[
				1,
				0.3419147729873657,
				0.028426136821508408
			],
			"extensions":{
				"KHR_materials_specular":{
					"specularFactor":0
				}
			},
			"name":"obj_text02",
			"pbrMetallicRoughness":{
				"baseColorFactor":[
					1,
					0.3419147729873657,
					0.028426136821508408,
					1
				],
				"baseColorTexture":{
					"index":0
				},
				"metallicFactor":0
			}
		},
		{
			"emissiveFactor":[
				1,
				0.3419147729873657,
				0.028426136821508408
			],
			"extensions":{
				"KHR_materials_specular":{
					"specularFactor":0
				}
			},
			"name":"obj_emission01",
			"pbrMetallicRoughness":{
				"baseColorFactor":[
					1,
					0.3419147729873657,
					0.028426136821508408,
					1
				],
				"metallicFactor":0
			}
		}
	],
	"meshes":[
		{
			"name":"Plane.009",
			"primitives":[
				{
					"attributes":{
						"POSITION":0,
						"NORMAL":1,
						"TEXCOORD_0":2
					},
					"indices":3,
					"material":0
				},
				{
					"attributes":{
						"POSITION":4,
						"NORMAL":5,
						"TEXCOORD_0":6
					},
					"indices":7,
					"material":1
				}
			]
		}
	],
	"textures":[
		{
			"sampler":0,
			"source":0
		}
	],
	"images":[
		{
			"mimeType":"image/png",
			"name":"obj_text02",
			"uri":"textures/obj_text02.png"
		}
	],
	"accessors":[
		{
			"bufferView":0,
			"componentType":5126,
			"count":20,
			"max":[
				1.6552529335021973,
				1.3066076040267944,
				6.628204822540283
			],
			"min":[
				-1.65525484085083,
				0.0037529468536376953,
				-3.50869083404541
			],
			"type":"VEC3"
		},
		{
			"bufferView":1,
			"componentType":5126,
			"count":20,
			"type":"VEC3"
		},
		{
			"bufferView":2,
			"componentType":5126,
			"count":20,
			"type":"VEC2"
		},
		{
			"bufferView":3,
			"componentType":5123,
			"count":30,
			"type":"SCALAR"
		},
		{
			"bufferView":4,
			"componentType":5126,
			"count":693,
			"max":[
				7.348447322845459,
				7.924554824829102,
				5.784306049346924
			],
			"min":[
				-7.350149631500244,
				3.1673154830932617,
				-6.896683692932129
			],
			"type":"VEC3"
		},
		{
			"bufferView":5,
			"componentType":5126,
			"count":693,
			"type":"VEC3"
		},
		{
			"bufferView":6,
			"componentType":5126,
			"count":693,
			"type":"VEC2"
		},
		{
			"bufferView":7,
			"componentType":5123,
			"count":1845,
			"type":"SCALAR"
		}
	],
	"bufferViews":[
		{
			"buffer":0,
			"byteLength":240,
			"byteOffset":0,
			"target":34962
		},
		{
			"buffer":0,
			"byteLength":240,
			"byteOffset":240,
			"target":34962
		},
		{
			"buffer":0,
			"byteLength":160,
			"byteOffset":480,
			"target":34962
		},
		{
			"buffer":0,
			"byteLength":60,
			"byteOffset":640,
			"target":34963
		},
		{
			"buffer":0,
			"byteLength":8316,
			"byteOffset":700,
			"target":34962
		},
		{
			"buffer":0,
			"byteLength":8316,
			"byteOffset":9016,
			"target":34962
		},
		{
			"buffer":0,
			"byteLength":5544,
			"byteOffset":17332,
			"target":34962
		},
		{
			"buffer":0,
			"byteLength":3690,
			"byteOffset":22876,
			"target":34963
		}
	],
	"samplers":[
		{
			"magFilter":9729,
			"minFilter":9987
		}
	],
	"buffers":[
		{
			"byteLength":26568,
			"uri":"obj_text_base.bin"
		}
	]
}
