{
	"asset":{
		"generator":"Khronos glTF Blender I/O v4.1.63",
		"version":"2.0"
	},
	"extensionsUsed":[
		"KHR_materials_specular"
	],
	"scene":0,
	"scenes":[
		{
			"name":"Scene",
			"nodes":[
				0,
				1,
				2,
				3
			]
		}
	],
	"nodes":[
		{
			"mesh":0,
			"name":"obj_display_base",
			"rotation":[
				0.7071068286895752,
				0,
				0,
				0.7071068286895752
			],
			"scale":[
				0.007000000216066837,
				0.009999999776482582,
				0.007000000216066837
			],
			"translation":[
				-1.2000000476837158,
				1.7063829898834229,
				-4.280198097229004
			]
		},
		{
			"mesh":1,
			"name":"obj_image",
			"rotation":[
				0.7071068286895752,
				0,
				0,
				0.7071068286895752
			],
			"scale":[
				0.007000000216066837,
				0.009999999776482582,
				0.007000000216066837
			],
			"translation":[
				-1.2020312547683716,
				1.7063829898834229,
				-4.280198097229004
			]
		},
		{
			"mesh":2,
			"name":"obj_display_base.001",
			"rotation":[
				0.7071068286895752,
				0,
				0,
				0.7071068286895752
			],
			"scale":[
				0.007000000216066837,
				0.009999999776482582,
				0.007000000216066837
			],
			"translation":[
				1.2000000476837158,
				1.7063829898834229,
				-4.280198097229004
			]
		},
		{
			"mesh":3,
			"name":"obj_image.001",
			"rotation":[
				0.7071068286895752,
				0,
				0,
				0.7071068286895752
			],
			"scale":[
				0.007000000216066837,
				0.009999999776482582,
				0.007000000216066837
			],
			"translation":[
				1.2000000476837158,
				1.7063829898834229,
				-4.280198097229004
			]
		}
	],
	"materials":[
		{
			"doubleSided":true,
			"emissiveFactor":[
				0.10000000149011612,
				0.10000000149011612,
				0.10000000149011612
			],
			"emissiveTexture":{
				"index":0
			},
			"extensions":{
				"KHR_materials_specular":{
					"specularFactor":0
				}
			},
			"name":"obj_frame_base",
			"pbrMetallicRoughness":{
				"baseColorTexture":{
					"index":1
				},
				"metallicFactor":0
			}
		},
		{
			"doubleSided":true,
			"extensions":{
				"KHR_materials_specular":{
					"specularColorFactor":[
						2.0,
						2.0,
						2.0
					]
				}
			},
			"name":"lambert1",
			"pbrMetallicRoughness":{
				"baseColorFactor":[
					0.5,
					0.5,
					0.5,
					1
				],
				"roughnessFactor":0.5527864098548889
			}
		}
	],
	"meshes":[
		{
			"name":"Mesh.049",
			"primitives":[
				{
					"attributes":{
						"POSITION":0,
						"NORMAL":1,
						"TEXCOORD_0":2
					},
					"indices":3,
					"material":0
				}
			]
		},
		{
			"name":"Mesh.050",
			"primitives":[
				{
					"attributes":{
						"POSITION":4,
						"NORMAL":5,
						"TEXCOORD_0":6
					},
					"indices":7,
					"material":1
				}
			]
		},
		{
			"name":"Mesh.052",
			"primitives":[
				{
					"attributes":{
						"POSITION":8,
						"NORMAL":9,
						"TEXCOORD_0":10
					},
					"indices":3,
					"material":0
				}
			]
		},
		{
			"name":"Mesh.053",
			"primitives":[
				{
					"attributes":{
						"POSITION":11,
						"NORMAL":12,
						"TEXCOORD_0":13
					},
					"indices":7,
					"material":1
				}
			]
		}
	],
	"textures":[
		{
			"sampler":0,
			"source":0
		},
		{
			"sampler":0,
			"source":0
		}
	],
	"images":[
		{
			"mimeType":"image/png",
			"name":"obj_frame_base",
			"uri":"textures/obj_frame_base.png"
		}
	],
	"accessors":[
		{
			"bufferView":0,
			"componentType":5126,
			"count":2310,
			"max":[
				133.4007110595703,
				9.50580883026123,
				1.56498384475708
			],
			"min":[
				-133.4005584716797,
				-9.50578784942627,
				-262.2342834472656
			],
			"type":"VEC3"
		},
		{
			"bufferView":1,
			"componentType":5126,
			"count":2310,
			"type":"VEC3"
		},
		{
			"bufferView":2,
			"componentType":5126,
			"count":2310,
			"type":"VEC2"
		},
		{
			"bufferView":3,
			"componentType":5123,
			"count":4008,
			"type":"SCALAR"
		},
		{
			"bufferView":4,
			"componentType":5126,
			"count":4,
			"max":[
				118.17156982421875,
				1.466644287109375,
				-13.62631607055664
			],
			"min":[
				-118.17156982421875,
				1.466644287109375,
				-249.969482421875
			],
			"type":"VEC3"
		},
		{
			"bufferView":5,
			"componentType":5126,
			"count":4,
			"type":"VEC3"
		},
		{
			"bufferView":6,
			"componentType":5126,
			"count":4,
			"type":"VEC2"
		},
		{
			"bufferView":7,
			"componentType":5123,
			"count":6,
			"type":"SCALAR"
		},
		{
			"bufferView":8,
			"componentType":5126,
			"count":2310,
			"max":[
				133.4007110595703,
				9.50580883026123,
				1.56498384475708
			],
			"min":[
				-133.4005584716797,
				-9.50578784942627,
				-262.2342834472656
			],
			"type":"VEC3"
		},
		{
			"bufferView":9,
			"componentType":5126,
			"count":2310,
			"type":"VEC3"
		},
		{
			"bufferView":10,
			"componentType":5126,
			"count":2310,
			"type":"VEC2"
		},
		{
			"bufferView":11,
			"componentType":5126,
			"count":4,
			"max":[
				118.17156982421875,
				1.466644287109375,
				-13.62631607055664
			],
			"min":[
				-118.17156982421875,
				1.466644287109375,
				-249.969482421875
			],
			"type":"VEC3"
		},
		{
			"bufferView":12,
			"componentType":5126,
			"count":4,
			"type":"VEC3"
		},
		{
			"bufferView":13,
			"componentType":5126,
			"count":4,
			"type":"VEC2"
		}
	],
	"bufferViews":[
		{
			"buffer":0,
			"byteLength":27720,
			"byteOffset":0,
			"target":34962
		},
		{
			"buffer":0,
			"byteLength":27720,
			"byteOffset":27720,
			"target":34962
		},
		{
			"buffer":0,
			"byteLength":18480,
			"byteOffset":55440,
			"target":34962
		},
		{
			"buffer":0,
			"byteLength":8016,
			"byteOffset":73920,
			"target":34963
		},
		{
			"buffer":0,
			"byteLength":48,
			"byteOffset":81936,
			"target":34962
		},
		{
			"buffer":0,
			"byteLength":48,
			"byteOffset":81984,
			"target":34962
		},
		{
			"buffer":0,
			"byteLength":32,
			"byteOffset":82032,
			"target":34962
		},
		{
			"buffer":0,
			"byteLength":12,
			"byteOffset":82064,
			"target":34963
		},
		{
			"buffer":0,
			"byteLength":27720,
			"byteOffset":82076,
			"target":34962
		},
		{
			"buffer":0,
			"byteLength":27720,
			"byteOffset":109796,
			"target":34962
		},
		{
			"buffer":0,
			"byteLength":18480,
			"byteOffset":137516,
			"target":34962
		},
		{
			"buffer":0,
			"byteLength":48,
			"byteOffset":155996,
			"target":34962
		},
		{
			"buffer":0,
			"byteLength":48,
			"byteOffset":156044,
			"target":34962
		},
		{
			"buffer":0,
			"byteLength":32,
			"byteOffset":156092,
			"target":34962
		}
	],
	"samplers":[
		{
			"magFilter":9729,
			"minFilter":9987
		}
	],
	"buffers":[
		{
			"byteLength":156124,
			"uri":"scene_spot_the_difference.bin"
		}
	]
}
