{
	"asset":{
		"generator":"Khronos glTF Blender I/O v4.1.63",
		"version":"2.0"
	},
	"scene":0,
	"scenes":[
		{
			"name":"Scene",
			"nodes":[
				0
			]
		}
	],
	"nodes":[
		{
			"mesh":0,
			"name":"target3_19"
		}
	],
	"meshes":[
		{
			"name":"Mesh.075",
			"primitives":[
				{
					"attributes":{
						"POSITION":0,
						"NORMAL":1,
						"TEXCOORD_0":2
					},
					"indices":3
				}
			]
		}
	],
	"accessors":[
		{
			"bufferView":0,
			"componentType":5126,
			"count":26,
			"max":[
				0.026440849527716637,
				0.14200621843338013,
				1.0721171506133942e-08
			],
			"min":[
				-0.026440810412168503,
				-0.14200621843338013,
				-1.0721171506133942e-08
			],
			"type":"VEC3"
		},
		{
			"bufferView":1,
			"componentType":5126,
			"count":26,
			"type":"VEC3"
		},
		{
			"bufferView":2,
			"componentType":5126,
			"count":26,
			"type":"VEC2"
		},
		{
			"bufferView":3,
			"componentType":5123,
			"count":72,
			"type":"SCALAR"
		}
	],
	"bufferViews":[
		{
			"buffer":0,
			"byteLength":312,
			"byteOffset":0,
			"target":34962
		},
		{
			"buffer":0,
			"byteLength":312,
			"byteOffset":312,
			"target":34962
		},
		{
			"buffer":0,
			"byteLength":208,
			"byteOffset":624,
			"target":34962
		},
		{
			"buffer":0,
			"byteLength":144,
			"byteOffset":832,
			"target":34963
		}
	],
	"buffers":[
		{
			"byteLength":976,
			"uri":"target3_19.bin"
		}
	]
}
