{
	"asset":{
		"generator":"Khronos glTF Blender I/O v4.3.47",
		"version":"2.0"
	},
	"extensionsUsed":[
		"KHR_materials_specular"
	],
	"scene":0,
	"scenes":[
		{
			"name":"Scene",
			"nodes":[
				0,
				1
			]
		}
	],
	"nodes":[
		{
			"mesh":0,
			"name":"obj_bench"
		},
		{
			"mesh":1,
			"name":"obj_bench_collider"
		}
	],
	"materials":[
		{
			"doubleSided":true,
			"emissiveFactor":[
				0.10000000149011612,
				0.10000000149011612,
				0.10000000149011612
			],
			"emissiveTexture":{
				"index":0
			},
			"extensions":{
				"KHR_materials_specular":{
					"specularFactor":0
				}
			},
			"name":"obj_bench",
			"pbrMetallicRoughness":{
				"baseColorTexture":{
					"index":1
				},
				"metallicFactor":0
			}
		}
	],
	"meshes":[
		{
			"name":"obj_bench",
			"primitives":[
				{
					"attributes":{
						"POSITION":0,
						"NORMAL":1,
						"TEXCOORD_0":2
					},
					"indices":3,
					"material":0
				}
			]
		},
		{
			"name":"obj_bench_collider",
			"primitives":[
				{
					"attributes":{
						"POSITION":4,
						"NORMAL":5,
						"TEXCOORD_0":6
					},
					"indices":7
				}
			]
		}
	],
	"textures":[
		{
			"sampler":0,
			"source":0
		},
		{
			"sampler":0,
			"source":0
		}
	],
	"images":[
		{
			"mimeType":"image/png",
			"name":"obj_bench",
			"uri":"textures/obj_bench.png"
		}
	],
	"accessors":[
		{
			"bufferView":0,
			"componentType":5126,
			"count":1000,
			"max":[
				6.518919467926025,
				1.4915632009506226,
				7.235389232635498
			],
			"min":[
				-6.491387367248535,
				0.40000006556510925,
				1.536237359046936
			],
			"type":"VEC3"
		},
		{
			"bufferView":1,
			"componentType":5126,
			"count":1000,
			"type":"VEC3"
		},
		{
			"bufferView":2,
			"componentType":5126,
			"count":1000,
			"type":"VEC2"
		},
		{
			"bufferView":3,
			"componentType":5123,
			"count":1950,
			"type":"SCALAR"
		},
		{
			"bufferView":4,
			"componentType":5126,
			"count":80,
			"max":[
				6.5120368003845215,
				1.4915632009506226,
				7.235389232635498
			],
			"min":[
				-6.491387367248535,
				0.40000003576278687,
				1.536237359046936
			],
			"type":"VEC3"
		},
		{
			"bufferView":5,
			"componentType":5126,
			"count":80,
			"type":"VEC3"
		},
		{
			"bufferView":6,
			"componentType":5126,
			"count":80,
			"type":"VEC2"
		},
		{
			"bufferView":7,
			"componentType":5123,
			"count":120,
			"type":"SCALAR"
		}
	],
	"bufferViews":[
		{
			"buffer":0,
			"byteLength":12000,
			"byteOffset":0,
			"target":34962
		},
		{
			"buffer":0,
			"byteLength":12000,
			"byteOffset":12000,
			"target":34962
		},
		{
			"buffer":0,
			"byteLength":8000,
			"byteOffset":24000,
			"target":34962
		},
		{
			"buffer":0,
			"byteLength":3900,
			"byteOffset":32000,
			"target":34963
		},
		{
			"buffer":0,
			"byteLength":960,
			"byteOffset":35900,
			"target":34962
		},
		{
			"buffer":0,
			"byteLength":960,
			"byteOffset":36860,
			"target":34962
		},
		{
			"buffer":0,
			"byteLength":640,
			"byteOffset":37820,
			"target":34962
		},
		{
			"buffer":0,
			"byteLength":240,
			"byteOffset":38460,
			"target":34963
		}
	],
	"samplers":[
		{
			"magFilter":9729,
			"minFilter":9987
		}
	],
	"buffers":[
		{
			"byteLength":38700,
			"uri":"obj_bench.bin"
		}
	]
}
