{
	"asset":{
		"generator":"Khronos glTF Blender I/O v4.3.47",
		"version":"2.0"
	},
	"extensionsUsed":[
		"KHR_materials_specular"
	],
	"scene":0,
	"scenes":[
		{
			"name":"Scene",
			"nodes":[
				0
			]
		}
	],
	"nodes":[
		{
			"mesh":0,
			"name":"obj_terminal",
			"translation":[
				0,
				0.40000027418136597,
				2.259101629257202
			]
		}
	],
	"materials":[
		{
			"doubleSided":true,
			"emissiveFactor":[
				0.10000000149011612,
				0.10000000149011612,
				0.10000000149011612
			],
			"emissiveTexture":{
				"index":0
			},
			"extensions":{
				"KHR_materials_specular":{
					"specularFactor":0
				}
			},
			"name":"obj_terminal",
			"pbrMetallicRoughness":{
				"baseColorTexture":{
					"index":1
				},
				"metallicFactor":0
			}
		}
	],
	"meshes":[
		{
			"name":"obj_terminal",
			"primitives":[
				{
					"attributes":{
						"POSITION":0,
						"NORMAL":1,
						"TEXCOORD_0":2
					},
					"indices":3,
					"material":0
				}
			]
		}
	],
	"textures":[
		{
			"sampler":0,
			"source":0
		},
		{
			"sampler":0,
			"source":0
		}
	],
	"images":[
		{
			"mimeType":"image/png",
			"name":"obj_terminal",
			"uri":"textures/obj_terminal.png"
		}
	],
	"accessors":[
		{
			"bufferView":0,
			"componentType":5126,
			"count":1168,
			"max":[
				0.575485348701477,
				1.1098947525024414,
				0.3361021876335144
			],
			"min":[
				-0.5753936767578125,
				0,
				-0.48861056566238403
			],
			"type":"VEC3"
		},
		{
			"bufferView":1,
			"componentType":5126,
			"count":1168,
			"type":"VEC3"
		},
		{
			"bufferView":2,
			"componentType":5126,
			"count":1168,
			"type":"VEC2"
		},
		{
			"bufferView":3,
			"componentType":5123,
			"count":2202,
			"type":"SCALAR"
		}
	],
	"bufferViews":[
		{
			"buffer":0,
			"byteLength":14016,
			"byteOffset":0,
			"target":34962
		},
		{
			"buffer":0,
			"byteLength":14016,
			"byteOffset":14016,
			"target":34962
		},
		{
			"buffer":0,
			"byteLength":9344,
			"byteOffset":28032,
			"target":34962
		},
		{
			"buffer":0,
			"byteLength":4404,
			"byteOffset":37376,
			"target":34963
		}
	],
	"samplers":[
		{
			"magFilter":9729,
			"minFilter":9987
		}
	],
	"buffers":[
		{
			"byteLength":41780,
			"uri":"obj_terminal.bin"
		}
	]
}
