{
	"asset":{
		"generator":"Khronos glTF Blender I/O v4.3.47",
		"version":"2.0"
	},
	"extensionsUsed":[
		"KHR_materials_specular"
	],
	"scene":0,
	"scenes":[
		{
			"name":"Scene",
			"nodes":[
				0,
				1
			]
		}
	],
	"nodes":[
		{
			"mesh":0,
			"name":"obj_lamp"
		},
		{
			"mesh":1,
			"name":"obj_lamp_collider"
		}
	],
	"materials":[
		{
			"doubleSided":true,
			"emissiveFactor":[
				0.10000000149011612,
				0.10000000149011612,
				0.10000000149011612
			],
			"emissiveTexture":{
				"index":0
			},
			"extensions":{
				"KHR_materials_specular":{
					"specularFactor":0
				}
			},
			"name":"obj_light",
			"pbrMetallicRoughness":{
				"baseColorTexture":{
					"index":1
				},
				"metallicFactor":0
			}
		},
		{
			"doubleSided":true,
			"emissiveFactor":[
				0.23357154428958893,
				0.5207391381263733,
				1
			],
			"extensions":{
				"KHR_materials_specular":{
					"specularFactor":0
				}
			},
			"name":"obj_emission01",
			"pbrMetallicRoughness":{
				"baseColorFactor":[
					0.05951007083058357,
					0.28744083642959595,
					1,
					1
				],
				"metallicFactor":0
			}
		}
	],
	"meshes":[
		{
			"name":"obj_lamp",
			"primitives":[
				{
					"attributes":{
						"POSITION":0,
						"NORMAL":1,
						"TEXCOORD_0":2
					},
					"indices":3,
					"material":0
				},
				{
					"attributes":{
						"POSITION":4,
						"NORMAL":5,
						"TEXCOORD_0":6
					},
					"indices":7,
					"material":1
				}
			]
		},
		{
			"name":"obj_lamp_collider",
			"primitives":[
				{
					"attributes":{
						"POSITION":8,
						"NORMAL":9,
						"TEXCOORD_0":10
					},
					"indices":11
				}
			]
		}
	],
	"textures":[
		{
			"sampler":0,
			"source":0
		},
		{
			"sampler":0,
			"source":0
		}
	],
	"images":[
		{
			"mimeType":"image/png",
			"name":"obj_light",
			"uri":"textures/obj_light.png"
		}
	],
	"accessors":[
		{
			"bufferView":0,
			"componentType":5126,
			"count":2398,
			"max":[
				6.298701286315918,
				4.364388465881348,
				7.17953634262085
			],
			"min":[
				-6.303258419036865,
				0.40000027418136597,
				1.4778947830200195
			],
			"type":"VEC3"
		},
		{
			"bufferView":1,
			"componentType":5126,
			"count":2398,
			"type":"VEC3"
		},
		{
			"bufferView":2,
			"componentType":5126,
			"count":2398,
			"type":"VEC2"
		},
		{
			"bufferView":3,
			"componentType":5123,
			"count":4464,
			"type":"SCALAR"
		},
		{
			"bufferView":4,
			"componentType":5126,
			"count":160,
			"max":[
				6.2928876876831055,
				4.313870429992676,
				6.9623494148254395
			],
			"min":[
				-6.297444820404053,
				3.5003037452697754,
				1.7006386518478394
			],
			"type":"VEC3"
		},
		{
			"bufferView":5,
			"componentType":5126,
			"count":160,
			"type":"VEC3"
		},
		{
			"bufferView":6,
			"componentType":5126,
			"count":160,
			"type":"VEC2"
		},
		{
			"bufferView":7,
			"componentType":5123,
			"count":264,
			"type":"SCALAR"
		},
		{
			"bufferView":8,
			"componentType":5126,
			"count":424,
			"max":[
				6.313580513000488,
				4.366247177124023,
				7.180092811584473
			],
			"min":[
				-6.318408489227295,
				0.40000027418136597,
				1.477338433265686
			],
			"type":"VEC3"
		},
		{
			"bufferView":9,
			"componentType":5126,
			"count":424,
			"type":"VEC3"
		},
		{
			"bufferView":10,
			"componentType":5126,
			"count":424,
			"type":"VEC2"
		},
		{
			"bufferView":11,
			"componentType":5123,
			"count":1008,
			"type":"SCALAR"
		}
	],
	"bufferViews":[
		{
			"buffer":0,
			"byteLength":28776,
			"byteOffset":0,
			"target":34962
		},
		{
			"buffer":0,
			"byteLength":28776,
			"byteOffset":28776,
			"target":34962
		},
		{
			"buffer":0,
			"byteLength":19184,
			"byteOffset":57552,
			"target":34962
		},
		{
			"buffer":0,
			"byteLength":8928,
			"byteOffset":76736,
			"target":34963
		},
		{
			"buffer":0,
			"byteLength":1920,
			"byteOffset":85664,
			"target":34962
		},
		{
			"buffer":0,
			"byteLength":1920,
			"byteOffset":87584,
			"target":34962
		},
		{
			"buffer":0,
			"byteLength":1280,
			"byteOffset":89504,
			"target":34962
		},
		{
			"buffer":0,
			"byteLength":528,
			"byteOffset":90784,
			"target":34963
		},
		{
			"buffer":0,
			"byteLength":5088,
			"byteOffset":91312,
			"target":34962
		},
		{
			"buffer":0,
			"byteLength":5088,
			"byteOffset":96400,
			"target":34962
		},
		{
			"buffer":0,
			"byteLength":3392,
			"byteOffset":101488,
			"target":34962
		},
		{
			"buffer":0,
			"byteLength":2016,
			"byteOffset":104880,
			"target":34963
		}
	],
	"samplers":[
		{
			"magFilter":9729,
			"minFilter":9987
		}
	],
	"buffers":[
		{
			"byteLength":106896,
			"uri":"obj_lamp.bin"
		}
	]
}
