{
	"asset":{
		"generator":"Khronos glTF Blender I/O v4.3.47",
		"version":"2.0"
	},
	"extensionsUsed":[
		"KHR_materials_specular"
	],
	"scene":0,
	"scenes":[
		{
			"name":"Scene",
			"nodes":[
				0,
				1
			]
		}
	],
	"nodes":[
		{
			"mesh":0,
			"name":"obj_railings"
		},
		{
			"mesh":1,
			"name":"obj_railings_collider",
			"rotation":[
				0.7071068286895752,
				0,
				0,
				0.7071068286895752
			],
			"scale":[
				0.009999999776482582,
				0.009999999776482582,
				0.009999999776482582
			]
		}
	],
	"materials":[
		{
			"doubleSided":true,
			"emissiveFactor":[
				0.10000000149011612,
				0.10000000149011612,
				0.10000000149011612
			],
			"emissiveTexture":{
				"index":0
			},
			"extensions":{
				"KHR_materials_specular":{
					"specularFactor":0
				}
			},
			"name":"obj_railings",
			"pbrMetallicRoughness":{
				"baseColorTexture":{
					"index":1
				},
				"metallicFactor":0
			}
		}
	],
	"meshes":[
		{
			"name":"obj_railings",
			"primitives":[
				{
					"attributes":{
						"POSITION":0,
						"NORMAL":1,
						"TEXCOORD_0":2
					},
					"indices":3,
					"material":0
				}
			]
		},
		{
			"name":"obj_railings_collider",
			"primitives":[
				{
					"attributes":{
						"POSITION":4,
						"NORMAL":5,
						"TEXCOORD_0":6
					},
					"indices":7
				}
			]
		}
	],
	"textures":[
		{
			"sampler":0,
			"source":0
		},
		{
			"sampler":0,
			"source":0
		}
	],
	"images":[
		{
			"mimeType":"image/png",
			"name":"obj_railings",
			"uri":"textures/obj_railings.png"
		}
	],
	"accessors":[
		{
			"bufferView":0,
			"componentType":5126,
			"count":330,
			"max":[
				7.29902982711792,
				1.7413877248764038,
				1.6920266151428223
			],
			"min":[
				-7.29902982711792,
				0.40000006556510925,
				1.1827718019485474
			],
			"type":"VEC3"
		},
		{
			"bufferView":1,
			"componentType":5126,
			"count":330,
			"type":"VEC3"
		},
		{
			"bufferView":2,
			"componentType":5126,
			"count":330,
			"type":"VEC2"
		},
		{
			"bufferView":3,
			"componentType":5123,
			"count":1008,
			"type":"SCALAR"
		},
		{
			"bufferView":4,
			"componentType":5126,
			"count":72,
			"max":[
				729.6952514648438,
				169.19595336914062,
				-40
			],
			"min":[
				-729.6952514648438,
				118.29885864257812,
				-174.12979125976562
			],
			"type":"VEC3"
		},
		{
			"bufferView":5,
			"componentType":5126,
			"count":72,
			"type":"VEC3"
		},
		{
			"bufferView":6,
			"componentType":5126,
			"count":72,
			"type":"VEC2"
		},
		{
			"bufferView":7,
			"componentType":5123,
			"count":132,
			"type":"SCALAR"
		}
	],
	"bufferViews":[
		{
			"buffer":0,
			"byteLength":3960,
			"byteOffset":0,
			"target":34962
		},
		{
			"buffer":0,
			"byteLength":3960,
			"byteOffset":3960,
			"target":34962
		},
		{
			"buffer":0,
			"byteLength":2640,
			"byteOffset":7920,
			"target":34962
		},
		{
			"buffer":0,
			"byteLength":2016,
			"byteOffset":10560,
			"target":34963
		},
		{
			"buffer":0,
			"byteLength":864,
			"byteOffset":12576,
			"target":34962
		},
		{
			"buffer":0,
			"byteLength":864,
			"byteOffset":13440,
			"target":34962
		},
		{
			"buffer":0,
			"byteLength":576,
			"byteOffset":14304,
			"target":34962
		},
		{
			"buffer":0,
			"byteLength":264,
			"byteOffset":14880,
			"target":34963
		}
	],
	"samplers":[
		{
			"magFilter":9729,
			"minFilter":9987
		}
	],
	"buffers":[
		{
			"byteLength":15144,
			"uri":"obj_railings.bin"
		}
	]
}
