{
	"asset":{
		"generator":"Khronos glTF Blender I/O v4.3.47",
		"version":"2.0"
	},
	"extensionsUsed":[
		"KHR_materials_specular"
	],
	"scene":0,
	"scenes":[
		{
			"name":"Scene",
			"nodes":[
				0,
				1
			]
		}
	],
	"nodes":[
		{
			"mesh":0,
			"name":"obj_wall"
		},
		{
			"mesh":1,
			"name":"obj_wall_collider"
		}
	],
	"materials":[
		{
			"doubleSided":true,
			"emissiveFactor":[
				0.10000000149011612,
				0.10000000149011612,
				0.10000000149011612
			],
			"emissiveTexture":{
				"index":0
			},
			"extensions":{
				"KHR_materials_specular":{
					"specularFactor":0
				}
			},
			"name":"obj_wall01",
			"pbrMetallicRoughness":{
				"baseColorTexture":{
					"index":1
				},
				"metallicFactor":0
			}
		},
		{
			"doubleSided":true,
			"emissiveFactor":[
				0.10000000149011612,
				0.10000000149011612,
				0.10000000149011612
			],
			"emissiveTexture":{
				"index":2
			},
			"extensions":{
				"KHR_materials_specular":{
					"specularFactor":0
				}
			},
			"name":"obj_wall02",
			"pbrMetallicRoughness":{
				"baseColorTexture":{
					"index":3
				},
				"metallicFactor":0
			}
		},
		{
			"doubleSided":true,
			"emissiveFactor":[
				0.10000000149011612,
				0.10000000149011612,
				0.10000000149011612
			],
			"emissiveTexture":{
				"index":4
			},
			"extensions":{
				"KHR_materials_specular":{
					"specularFactor":0
				}
			},
			"name":"obj_wall03",
			"pbrMetallicRoughness":{
				"baseColorTexture":{
					"index":5
				},
				"metallicFactor":0
			}
		},
		{
			"doubleSided":true,
			"emissiveFactor":[
				0.10000000149011612,
				0.10000000149011612,
				0.10000000149011612
			],
			"emissiveTexture":{
				"index":6
			},
			"extensions":{
				"KHR_materials_specular":{
					"specularFactor":0
				}
			},
			"name":"obj_wall04",
			"pbrMetallicRoughness":{
				"baseColorTexture":{
					"index":7
				},
				"metallicFactor":0
			}
		},
		{
			"doubleSided":true,
			"emissiveFactor":[
				0.10000000149011612,
				0.10000000149011612,
				0.10000000149011612
			],
			"emissiveTexture":{
				"index":8
			},
			"extensions":{
				"KHR_materials_specular":{
					"specularFactor":0
				}
			},
			"name":"obj_wall05",
			"pbrMetallicRoughness":{
				"baseColorTexture":{
					"index":9
				},
				"metallicFactor":0
			}
		}
	],
	"meshes":[
		{
			"name":"obj_wall",
			"primitives":[
				{
					"attributes":{
						"POSITION":0,
						"NORMAL":1,
						"TEXCOORD_0":2
					},
					"indices":3,
					"material":0
				},
				{
					"attributes":{
						"POSITION":4,
						"NORMAL":5,
						"TEXCOORD_0":6
					},
					"indices":7,
					"material":1
				},
				{
					"attributes":{
						"POSITION":8,
						"NORMAL":9,
						"TEXCOORD_0":10
					},
					"indices":11,
					"material":2
				},
				{
					"attributes":{
						"POSITION":12,
						"NORMAL":13,
						"TEXCOORD_0":14
					},
					"indices":15,
					"material":3
				},
				{
					"attributes":{
						"POSITION":16,
						"NORMAL":17,
						"TEXCOORD_0":18
					},
					"indices":19,
					"material":4
				}
			]
		},
		{
			"name":"obj_wall_collider",
			"primitives":[
				{
					"attributes":{
						"POSITION":20,
						"NORMAL":21,
						"TEXCOORD_0":22
					},
					"indices":23
				}
			]
		}
	],
	"textures":[
		{
			"sampler":0,
			"source":0
		},
		{
			"sampler":0,
			"source":0
		},
		{
			"sampler":0,
			"source":1
		},
		{
			"sampler":0,
			"source":1
		},
		{
			"sampler":0,
			"source":2
		},
		{
			"sampler":0,
			"source":2
		},
		{
			"sampler":0,
			"source":3
		},
		{
			"sampler":0,
			"source":3
		},
		{
			"sampler":0,
			"source":4
		},
		{
			"sampler":0,
			"source":4
		}
	],
	"images":[
		{
			"mimeType":"image/png",
			"name":"obj_wall01",
			"uri":"textures/obj_wall01.png"
		},
		{
			"mimeType":"image/png",
			"name":"obj_wall02",
			"uri":"textures/obj_wall02.png"
		},
		{
			"mimeType":"image/png",
			"name":"obj_wall03",
			"uri":"textures/obj_wall03.png"
		},
		{
			"mimeType":"image/png",
			"name":"obj_wall04",
			"uri":"textures/obj_wall04.png"
		},
		{
			"mimeType":"image/png",
			"name":"obj_wall05",
			"uri":"textures/obj_wall05.png"
		}
	],
	"accessors":[
		{
			"bufferView":0,
			"componentType":5126,
			"count":1307,
			"max":[
				5.226178169250488,
				7.333903789520264,
				-6.57807731628418
			],
			"min":[
				-5.226178169250488,
				7.177392831181351e-07,
				-8.000001907348633
			],
			"type":"VEC3"
		},
		{
			"bufferView":1,
			"componentType":5126,
			"count":1307,
			"type":"VEC3"
		},
		{
			"bufferView":2,
			"componentType":5126,
			"count":1307,
			"type":"VEC2"
		},
		{
			"bufferView":3,
			"componentType":5123,
			"count":3084,
			"type":"SCALAR"
		},
		{
			"bufferView":4,
			"componentType":5126,
			"count":2744,
			"max":[
				7.950001239776611,
				5.412341594696045,
				7.261041641235352
			],
			"min":[
				-7.950001239776611,
				0.40000006556510925,
				1.510583758354187
			],
			"type":"VEC3"
		},
		{
			"bufferView":5,
			"componentType":5126,
			"count":2744,
			"type":"VEC3"
		},
		{
			"bufferView":6,
			"componentType":5126,
			"count":2744,
			"type":"VEC2"
		},
		{
			"bufferView":7,
			"componentType":5123,
			"count":6096,
			"type":"SCALAR"
		},
		{
			"bufferView":8,
			"componentType":5126,
			"count":884,
			"max":[
				8.00042724609375,
				1.5661028623580933,
				-4.216313362121582
			],
			"min":[
				-8.00042724609375,
				-6.039830964255088e-07,
				-7.999998569488525
			],
			"type":"VEC3"
		},
		{
			"bufferView":9,
			"componentType":5126,
			"count":884,
			"type":"VEC3"
		},
		{
			"bufferView":10,
			"componentType":5126,
			"count":884,
			"type":"VEC2"
		},
		{
			"bufferView":11,
			"componentType":5123,
			"count":1524,
			"type":"SCALAR"
		},
		{
			"bufferView":12,
			"componentType":5126,
			"count":1048,
			"max":[
				8.00042724609375,
				1.5661033391952515,
				1.0807397365570068
			],
			"min":[
				-8.00042724609375,
				-3.1832283298172115e-07,
				-4.21631383895874
			],
			"type":"VEC3"
		},
		{
			"bufferView":13,
			"componentType":5126,
			"count":1048,
			"type":"VEC3"
		},
		{
			"bufferView":14,
			"componentType":5126,
			"count":1048,
			"type":"VEC2"
		},
		{
			"bufferView":15,
			"componentType":5123,
			"count":1848,
			"type":"SCALAR"
		},
		{
			"bufferView":16,
			"componentType":5126,
			"count":488,
			"max":[
				7.949999809265137,
				1.6807646751403809,
				7.661041259765625
			],
			"min":[
				-7.949999809265137,
				0.40000051259994507,
				7.261041164398193
			],
			"type":"VEC3"
		},
		{
			"bufferView":17,
			"componentType":5126,
			"count":488,
			"type":"VEC3"
		},
		{
			"bufferView":18,
			"componentType":5126,
			"count":488,
			"type":"VEC2"
		},
		{
			"bufferView":19,
			"componentType":5123,
			"count":936,
			"type":"SCALAR"
		},
		{
			"bufferView":20,
			"componentType":5126,
			"count":2849,
			"max":[
				8,
				7.333903789520264,
				7.661041259765625
			],
			"min":[
				-8,
				-6.230565645637398e-07,
				-8.000001907348633
			],
			"type":"VEC3"
		},
		{
			"bufferView":21,
			"componentType":5126,
			"count":2849,
			"type":"VEC3"
		},
		{
			"bufferView":22,
			"componentType":5126,
			"count":2849,
			"type":"VEC2"
		},
		{
			"bufferView":23,
			"componentType":5123,
			"count":5616,
			"type":"SCALAR"
		}
	],
	"bufferViews":[
		{
			"buffer":0,
			"byteLength":15684,
			"byteOffset":0,
			"target":34962
		},
		{
			"buffer":0,
			"byteLength":15684,
			"byteOffset":15684,
			"target":34962
		},
		{
			"buffer":0,
			"byteLength":10456,
			"byteOffset":31368,
			"target":34962
		},
		{
			"buffer":0,
			"byteLength":6168,
			"byteOffset":41824,
			"target":34963
		},
		{
			"buffer":0,
			"byteLength":32928,
			"byteOffset":47992,
			"target":34962
		},
		{
			"buffer":0,
			"byteLength":32928,
			"byteOffset":80920,
			"target":34962
		},
		{
			"buffer":0,
			"byteLength":21952,
			"byteOffset":113848,
			"target":34962
		},
		{
			"buffer":0,
			"byteLength":12192,
			"byteOffset":135800,
			"target":34963
		},
		{
			"buffer":0,
			"byteLength":10608,
			"byteOffset":147992,
			"target":34962
		},
		{
			"buffer":0,
			"byteLength":10608,
			"byteOffset":158600,
			"target":34962
		},
		{
			"buffer":0,
			"byteLength":7072,
			"byteOffset":169208,
			"target":34962
		},
		{
			"buffer":0,
			"byteLength":3048,
			"byteOffset":176280,
			"target":34963
		},
		{
			"buffer":0,
			"byteLength":12576,
			"byteOffset":179328,
			"target":34962
		},
		{
			"buffer":0,
			"byteLength":12576,
			"byteOffset":191904,
			"target":34962
		},
		{
			"buffer":0,
			"byteLength":8384,
			"byteOffset":204480,
			"target":34962
		},
		{
			"buffer":0,
			"byteLength":3696,
			"byteOffset":212864,
			"target":34963
		},
		{
			"buffer":0,
			"byteLength":5856,
			"byteOffset":216560,
			"target":34962
		},
		{
			"buffer":0,
			"byteLength":5856,
			"byteOffset":222416,
			"target":34962
		},
		{
			"buffer":0,
			"byteLength":3904,
			"byteOffset":228272,
			"target":34962
		},
		{
			"buffer":0,
			"byteLength":1872,
			"byteOffset":232176,
			"target":34963
		},
		{
			"buffer":0,
			"byteLength":34188,
			"byteOffset":234048,
			"target":34962
		},
		{
			"buffer":0,
			"byteLength":34188,
			"byteOffset":268236,
			"target":34962
		},
		{
			"buffer":0,
			"byteLength":22792,
			"byteOffset":302424,
			"target":34962
		},
		{
			"buffer":0,
			"byteLength":11232,
			"byteOffset":325216,
			"target":34963
		}
	],
	"samplers":[
		{
			"magFilter":9729,
			"minFilter":9987
		}
	],
	"buffers":[
		{
			"byteLength":336448,
			"uri":"obj_wall.bin"
		}
	]
}
