{
	"asset":{
		"generator":"Khronos glTF Blender I/O v4.3.47",
		"version":"2.0"
	},
	"extensionsUsed":[
		"KHR_materials_specular"
	],
	"scene":0,
	"scenes":[
		{
			"name":"Scene",
			"nodes":[
				0,
				1
			]
		}
	],
	"nodes":[
		{
			"mesh":0,
			"name":"obj_ground"
		},
		{
			"mesh":1,
			"name":"obj_ground_collider"
		}
	],
	"materials":[
		{
			"emissiveFactor":[
				0.10000000149011612,
				0.10000000149011612,
				0.10000000149011612
			],
			"emissiveTexture":{
				"index":0
			},
			"extensions":{
				"KHR_materials_specular":{
					"specularFactor":0
				}
			},
			"name":"obj_road01",
			"pbrMetallicRoughness":{
				"baseColorTexture":{
					"index":1
				},
				"metallicFactor":0
			}
		},
		{
			"emissiveFactor":[
				0.10000000149011612,
				0.10000000149011612,
				0.10000000149011612
			],
			"emissiveTexture":{
				"index":2
			},
			"extensions":{
				"KHR_materials_specular":{
					"specularFactor":0
				}
			},
			"name":"obj_border01",
			"pbrMetallicRoughness":{
				"baseColorTexture":{
					"index":3
				},
				"metallicFactor":0
			}
		},
		{
			"emissiveFactor":[
				0.10000000149011612,
				0.10000000149011612,
				0.10000000149011612
			],
			"emissiveTexture":{
				"index":4
			},
			"extensions":{
				"KHR_materials_specular":{
					"specularFactor":0
				}
			},
			"name":"obj_border02",
			"pbrMetallicRoughness":{
				"baseColorTexture":{
					"index":5
				},
				"metallicFactor":0
			}
		},
		{
			"emissiveFactor":[
				0.10000000149011612,
				0.10000000149011612,
				0.10000000149011612
			],
			"emissiveTexture":{
				"index":6
			},
			"extensions":{
				"KHR_materials_specular":{
					"specularFactor":0
				}
			},
			"name":"obj_road02",
			"pbrMetallicRoughness":{
				"baseColorTexture":{
					"index":7
				},
				"metallicFactor":0
			}
		},
		{
			"emissiveFactor":[
				0.7529424428939819,
				0.7529424428939819,
				0.0802198275923729
			],
			"extensions":{
				"KHR_materials_specular":{
					"specularFactor":0
				}
			},
			"name":"obj_emission02",
			"pbrMetallicRoughness":{
				"baseColorFactor":[
					0.7529424428939819,
					0.7529424428939819,
					0.0802198275923729,
					1
				],
				"metallicFactor":0
			}
		},
		{
			"emissiveFactor":[
				0.10702310502529144,
				0.34670406579971313,
				0.6444798707962036
			],
			"extensions":{
				"KHR_materials_specular":{
					"specularFactor":0
				}
			},
			"name":"obj_emission03",
			"pbrMetallicRoughness":{
				"baseColorFactor":[
					0.10771886259317398,
					0.3468792140483856,
					0.6470901370048523,
					1
				],
				"metallicFactor":0
			}
		},
		{
			"emissiveFactor":[
				0.7454043626785278,
				0.038204375654459,
				0.6514057517051697
			],
			"extensions":{
				"KHR_materials_specular":{
					"specularFactor":0
				}
			},
			"name":"obj_emission04",
			"pbrMetallicRoughness":{
				"baseColorFactor":[
					0.7454043626785278,
					0.038204375654459,
					0.6514057517051697,
					1
				],
				"metallicFactor":0
			}
		}
	],
	"meshes":[
		{
			"name":"obj_ground",
			"primitives":[
				{
					"attributes":{
						"POSITION":0,
						"NORMAL":1,
						"TEXCOORD_0":2
					},
					"indices":3,
					"material":0
				},
				{
					"attributes":{
						"POSITION":4,
						"NORMAL":5,
						"TEXCOORD_0":6
					},
					"indices":7,
					"material":1
				},
				{
					"attributes":{
						"POSITION":8,
						"NORMAL":9,
						"TEXCOORD_0":10
					},
					"indices":11,
					"material":2
				},
				{
					"attributes":{
						"POSITION":12,
						"NORMAL":13,
						"TEXCOORD_0":14
					},
					"indices":15,
					"material":3
				},
				{
					"attributes":{
						"POSITION":16,
						"NORMAL":17,
						"TEXCOORD_0":18
					},
					"indices":19,
					"material":4
				},
				{
					"attributes":{
						"POSITION":20,
						"NORMAL":21,
						"TEXCOORD_0":22
					},
					"indices":23,
					"material":5
				},
				{
					"attributes":{
						"POSITION":24,
						"NORMAL":25,
						"TEXCOORD_0":26
					},
					"indices":27,
					"material":6
				}
			]
		},
		{
			"name":"obj_ground_collider",
			"primitives":[
				{
					"attributes":{
						"POSITION":28,
						"NORMAL":29,
						"TEXCOORD_0":30
					},
					"indices":31
				}
			]
		}
	],
	"textures":[
		{
			"sampler":0,
			"source":0
		},
		{
			"sampler":0,
			"source":0
		},
		{
			"sampler":0,
			"source":1
		},
		{
			"sampler":0,
			"source":1
		},
		{
			"sampler":0,
			"source":2
		},
		{
			"sampler":0,
			"source":2
		},
		{
			"sampler":0,
			"source":3
		},
		{
			"sampler":0,
			"source":3
		}
	],
	"images":[
		{
			"mimeType":"image/jpeg",
			"name":"obj_road01",
			"uri":"textures/obj_road01.jpg"
		},
		{
			"mimeType":"image/jpeg",
			"name":"obj_border01",
			"uri":"textures/obj_border01.jpg"
		},
		{
			"mimeType":"image/jpeg",
			"name":"obj_border02",
			"uri":"textures/obj_border02.jpg"
		},
		{
			"mimeType":"image/jpeg",
			"name":"obj_road02",
			"uri":"textures/obj_road02.jpg"
		}
	],
	"accessors":[
		{
			"bufferView":0,
			"componentType":5126,
			"count":4,
			"max":[
				8,
				0,
				8
			],
			"min":[
				-8,
				0,
				-8
			],
			"type":"VEC3"
		},
		{
			"bufferView":1,
			"componentType":5126,
			"count":4,
			"type":"VEC3"
		},
		{
			"bufferView":2,
			"componentType":5126,
			"count":4,
			"type":"VEC2"
		},
		{
			"bufferView":3,
			"componentType":5123,
			"count":6,
			"type":"SCALAR"
		},
		{
			"bufferView":4,
			"componentType":5126,
			"count":112,
			"max":[
				8.000001907348633,
				0.09844165295362473,
				7.998500823974609
			],
			"min":[
				-7.999990463256836,
				-0.0015839134575799108,
				-7.999180793762207
			],
			"type":"VEC3"
		},
		{
			"bufferView":5,
			"componentType":5126,
			"count":112,
			"type":"VEC3"
		},
		{
			"bufferView":6,
			"componentType":5126,
			"count":112,
			"type":"VEC2"
		},
		{
			"bufferView":7,
			"componentType":5123,
			"count":282,
			"type":"SCALAR"
		},
		{
			"bufferView":8,
			"componentType":5126,
			"count":174,
			"max":[
				7.928116798400879,
				0.09728597849607468,
				8.000140190124512
			],
			"min":[
				-7.928116798400879,
				-0.0014865770936012268,
				-7.88504695892334
			],
			"type":"VEC3"
		},
		{
			"bufferView":9,
			"componentType":5126,
			"count":174,
			"type":"VEC3"
		},
		{
			"bufferView":10,
			"componentType":5126,
			"count":174,
			"type":"VEC2"
		},
		{
			"bufferView":11,
			"componentType":5123,
			"count":324,
			"type":"SCALAR"
		},
		{
			"bufferView":12,
			"componentType":5126,
			"count":24,
			"max":[
				7.953707695007324,
				0.07351257652044296,
				7.963711738586426
			],
			"min":[
				-7.953707695007324,
				0.07351238280534744,
				-7.846149444580078
			],
			"type":"VEC3"
		},
		{
			"bufferView":13,
			"componentType":5126,
			"count":24,
			"type":"VEC3"
		},
		{
			"bufferView":14,
			"componentType":5126,
			"count":24,
			"type":"VEC2"
		},
		{
			"bufferView":15,
			"componentType":5123,
			"count":54,
			"type":"SCALAR"
		},
		{
			"bufferView":16,
			"componentType":5126,
			"count":116,
			"max":[
				7.9597392082214355,
				0.7934855222702026,
				7.989169120788574
			],
			"min":[
				-7.9597392082214355,
				0.5182941555976868,
				-7.9578962326049805
			],
			"type":"VEC3"
		},
		{
			"bufferView":17,
			"componentType":5126,
			"count":116,
			"type":"VEC3"
		},
		{
			"bufferView":18,
			"componentType":5126,
			"count":116,
			"type":"VEC2"
		},
		{
			"bufferView":19,
			"componentType":5123,
			"count":408,
			"type":"SCALAR"
		},
		{
			"bufferView":20,
			"componentType":5126,
			"count":123,
			"max":[
				7.9597392082214355,
				0.5834656953811646,
				7.989409446716309
			],
			"min":[
				-7.9597392082214355,
				0.3083515465259552,
				-7.9578962326049805
			],
			"type":"VEC3"
		},
		{
			"bufferView":21,
			"componentType":5126,
			"count":123,
			"type":"VEC3"
		},
		{
			"bufferView":22,
			"componentType":5126,
			"count":123,
			"type":"VEC2"
		},
		{
			"bufferView":23,
			"componentType":5123,
			"count":408,
			"type":"SCALAR"
		},
		{
			"bufferView":24,
			"componentType":5126,
			"count":123,
			"max":[
				7.9597392082214355,
				0.3735414147377014,
				7.989409446716309
			],
			"min":[
				-7.9597392082214355,
				0.09842730313539505,
				-7.9578962326049805
			],
			"type":"VEC3"
		},
		{
			"bufferView":25,
			"componentType":5126,
			"count":123,
			"type":"VEC3"
		},
		{
			"bufferView":26,
			"componentType":5126,
			"count":123,
			"type":"VEC2"
		},
		{
			"bufferView":27,
			"componentType":5123,
			"count":414,
			"type":"SCALAR"
		},
		{
			"bufferView":28,
			"componentType":5126,
			"count":141,
			"max":[
				8.000001907348633,
				0.8171742558479309,
				8.000140190124512
			],
			"min":[
				-8,
				-0.003387058386579156,
				-8
			],
			"type":"VEC3"
		},
		{
			"bufferView":29,
			"componentType":5126,
			"count":141,
			"type":"VEC3"
		},
		{
			"bufferView":30,
			"componentType":5126,
			"count":141,
			"type":"VEC2"
		},
		{
			"bufferView":31,
			"componentType":5123,
			"count":255,
			"type":"SCALAR"
		}
	],
	"bufferViews":[
		{
			"buffer":0,
			"byteLength":48,
			"byteOffset":0,
			"target":34962
		},
		{
			"buffer":0,
			"byteLength":48,
			"byteOffset":48,
			"target":34962
		},
		{
			"buffer":0,
			"byteLength":32,
			"byteOffset":96,
			"target":34962
		},
		{
			"buffer":0,
			"byteLength":12,
			"byteOffset":128,
			"target":34963
		},
		{
			"buffer":0,
			"byteLength":1344,
			"byteOffset":140,
			"target":34962
		},
		{
			"buffer":0,
			"byteLength":1344,
			"byteOffset":1484,
			"target":34962
		},
		{
			"buffer":0,
			"byteLength":896,
			"byteOffset":2828,
			"target":34962
		},
		{
			"buffer":0,
			"byteLength":564,
			"byteOffset":3724,
			"target":34963
		},
		{
			"buffer":0,
			"byteLength":2088,
			"byteOffset":4288,
			"target":34962
		},
		{
			"buffer":0,
			"byteLength":2088,
			"byteOffset":6376,
			"target":34962
		},
		{
			"buffer":0,
			"byteLength":1392,
			"byteOffset":8464,
			"target":34962
		},
		{
			"buffer":0,
			"byteLength":648,
			"byteOffset":9856,
			"target":34963
		},
		{
			"buffer":0,
			"byteLength":288,
			"byteOffset":10504,
			"target":34962
		},
		{
			"buffer":0,
			"byteLength":288,
			"byteOffset":10792,
			"target":34962
		},
		{
			"buffer":0,
			"byteLength":192,
			"byteOffset":11080,
			"target":34962
		},
		{
			"buffer":0,
			"byteLength":108,
			"byteOffset":11272,
			"target":34963
		},
		{
			"buffer":0,
			"byteLength":1392,
			"byteOffset":11380,
			"target":34962
		},
		{
			"buffer":0,
			"byteLength":1392,
			"byteOffset":12772,
			"target":34962
		},
		{
			"buffer":0,
			"byteLength":928,
			"byteOffset":14164,
			"target":34962
		},
		{
			"buffer":0,
			"byteLength":816,
			"byteOffset":15092,
			"target":34963
		},
		{
			"buffer":0,
			"byteLength":1476,
			"byteOffset":15908,
			"target":34962
		},
		{
			"buffer":0,
			"byteLength":1476,
			"byteOffset":17384,
			"target":34962
		},
		{
			"buffer":0,
			"byteLength":984,
			"byteOffset":18860,
			"target":34962
		},
		{
			"buffer":0,
			"byteLength":816,
			"byteOffset":19844,
			"target":34963
		},
		{
			"buffer":0,
			"byteLength":1476,
			"byteOffset":20660,
			"target":34962
		},
		{
			"buffer":0,
			"byteLength":1476,
			"byteOffset":22136,
			"target":34962
		},
		{
			"buffer":0,
			"byteLength":984,
			"byteOffset":23612,
			"target":34962
		},
		{
			"buffer":0,
			"byteLength":828,
			"byteOffset":24596,
			"target":34963
		},
		{
			"buffer":0,
			"byteLength":1692,
			"byteOffset":25424,
			"target":34962
		},
		{
			"buffer":0,
			"byteLength":1692,
			"byteOffset":27116,
			"target":34962
		},
		{
			"buffer":0,
			"byteLength":1128,
			"byteOffset":28808,
			"target":34962
		},
		{
			"buffer":0,
			"byteLength":510,
			"byteOffset":29936,
			"target":34963
		}
	],
	"samplers":[
		{
			"magFilter":9729,
			"minFilter":9987
		}
	],
	"buffers":[
		{
			"byteLength":30448,
			"uri":"obj_ground.bin"
		}
	]
}
