{
	"asset":{
		"generator":"Khronos glTF Blender I/O v4.2.57",
		"version":"2.0"
	},
	"extensionsUsed":[
		"KHR_materials_specular",
		"KHR_materials_ior"
	],
	"scene":0,
	"scenes":[
		{
			"name":"Scene",
			"nodes":[
				0,
				1
			]
		}
	],
	"nodes":[
		{
			"mesh":0,
			"name":"obj_wall"
		},
		{
			"mesh":1,
			"name":"obj_wall_collider"
		}
	],
	"materials":[
		{
			"doubleSided":true,
			"emissiveFactor":[
				0.5,
				0.5,
				0.5
			],
			"emissiveTexture":{
				"index":0
			},
			"extensions":{
				"KHR_materials_specular":{
					"specularColorFactor":[
						0.0,
						0.0,
						0.0
					]
				},
				"KHR_materials_ior":{
					"ior":1.4500000476837158
				}
			},
			"name":"obj_wall",
			"pbrMetallicRoughness":{
				"baseColorTexture":{
					"index":1
				},
				"metallicFactor":0
			}
		}
	],
	"meshes":[
		{
			"name":"Torus.006",
			"primitives":[
				{
					"attributes":{
						"POSITION":0,
						"NORMAL":1,
						"TEXCOORD_0":2
					},
					"indices":3,
					"material":0
				}
			]
		},
		{
			"name":"Bounding Box Mesh",
			"primitives":[
				{
					"attributes":{
						"POSITION":4,
						"NORMAL":5
					},
					"indices":6
				}
			]
		}
	],
	"textures":[
		{
			"sampler":0,
			"source":0
		},
		{
			"sampler":0,
			"source":1
		}
	],
	"images":[
		{
			"mimeType":"image/png",
			"name":"obj_wall_emission",
			"uri":"textures/obj_wall_emission.png"
		},
		{
			"mimeType":"image/png",
			"name":"obj_wall",
			"uri":"textures/obj_wall.png"
		}
	],
	"accessors":[
		{
			"bufferView":0,
			"componentType":5126,
			"count":6339,
			"max":[
				7.7893853187561035,
				4.797542095184326,
				5.633542060852051
			],
			"min":[
				-7.7893805503845215,
				0.03565202280879021,
				-7.8484978675842285
			],
			"type":"VEC3"
		},
		{
			"bufferView":1,
			"componentType":5126,
			"count":6339,
			"type":"VEC3"
		},
		{
			"bufferView":2,
			"componentType":5126,
			"count":6339,
			"type":"VEC2"
		},
		{
			"bufferView":3,
			"componentType":5123,
			"count":17586,
			"type":"SCALAR"
		},
		{
			"bufferView":4,
			"componentType":5126,
			"count":72,
			"max":[
				7.831806659698486,
				4.5353193283081055,
				5.633542060852051
			],
			"min":[
				-7.8318071365356445,
				0,
				-7.870057106018066
			],
			"type":"VEC3"
		},
		{
			"bufferView":5,
			"componentType":5126,
			"count":72,
			"type":"VEC3"
		},
		{
			"bufferView":6,
			"componentType":5123,
			"count":108,
			"type":"SCALAR"
		}
	],
	"bufferViews":[
		{
			"buffer":0,
			"byteLength":76068,
			"byteOffset":0,
			"target":34962
		},
		{
			"buffer":0,
			"byteLength":76068,
			"byteOffset":76068,
			"target":34962
		},
		{
			"buffer":0,
			"byteLength":50712,
			"byteOffset":152136,
			"target":34962
		},
		{
			"buffer":0,
			"byteLength":35172,
			"byteOffset":202848,
			"target":34963
		},
		{
			"buffer":0,
			"byteLength":864,
			"byteOffset":238020,
			"target":34962
		},
		{
			"buffer":0,
			"byteLength":864,
			"byteOffset":238884,
			"target":34962
		},
		{
			"buffer":0,
			"byteLength":216,
			"byteOffset":239748,
			"target":34963
		}
	],
	"samplers":[
		{
			"magFilter":9729,
			"minFilter":9987
		}
	],
	"buffers":[
		{
			"byteLength":239964,
			"uri":"obj_wall.bin"
		}
	]
}
