{
	"asset":{
		"generator":"Khronos glTF Blender I/O v4.3.47",
		"version":"2.0"
	},
	"extensionsUsed":[
		"KHR_materials_specular",
		"KHR_materials_ior"
	],
	"scene":0,
	"scenes":[
		{
			"name":"Scene",
			"nodes":[
				0,
				1
			]
		}
	],
	"nodes":[
		{
			"mesh":0,
			"name":"obj_wall"
		},
		{
			"mesh":1,
			"name":"obj_wall_collider"
		}
	],
	"materials":[
		{
			"emissiveFactor":[
				0.10000000149011612,
				0.10000000149011612,
				0.10000000149011612
			],
			"emissiveTexture":{
				"index":0
			},
			"extensions":{
				"KHR_materials_specular":{
					"specularFactor":0,
					"specularColorFactor":[
						0.0,
						0.0,
						0.0
					]
				},
				"KHR_materials_ior":{
					"ior":1.4500000476837158
				}
			},
			"name":"obj_wall",
			"pbrMetallicRoughness":{
				"baseColorTexture":{
					"index":1
				},
				"metallicFactor":0
			}
		}
	],
	"meshes":[
		{
			"name":"obj_wall",
			"primitives":[
				{
					"attributes":{
						"POSITION":0,
						"NORMAL":1,
						"TEXCOORD_0":2
					},
					"indices":3,
					"material":0
				}
			]
		},
		{
			"name":"obj_wall_collider",
			"primitives":[
				{
					"attributes":{
						"POSITION":4,
						"NORMAL":5,
						"TEXCOORD_0":6
					},
					"indices":7
				}
			]
		}
	],
	"textures":[
		{
			"sampler":0,
			"source":0
		},
		{
			"sampler":0,
			"source":0
		}
	],
	"images":[
		{
			"mimeType":"image/png",
			"name":"obj_wall",
			"uri":"textures/obj_wall.png"
		}
	],
	"accessors":[
		{
			"bufferView":0,
			"componentType":5126,
			"count":6351,
			"max":[
				7.7893853187561035,
				4.797542095184326,
				5.633542060852051
			],
			"min":[
				-7.7893805503845215,
				0.03565202280879021,
				-7.8484978675842285
			],
			"type":"VEC3"
		},
		{
			"bufferView":1,
			"componentType":5126,
			"count":6351,
			"type":"VEC3"
		},
		{
			"bufferView":2,
			"componentType":5126,
			"count":6351,
			"type":"VEC2"
		},
		{
			"bufferView":3,
			"componentType":5123,
			"count":17604,
			"type":"SCALAR"
		},
		{
			"bufferView":4,
			"componentType":5126,
			"count":1131,
			"max":[
				7.821157455444336,
				4.81550407409668,
				5.664395809173584
			],
			"min":[
				-7.821157932281494,
				-0.0015502721071243286,
				-7.861547946929932
			],
			"type":"VEC3"
		},
		{
			"bufferView":5,
			"componentType":5126,
			"count":1131,
			"type":"VEC3"
		},
		{
			"bufferView":6,
			"componentType":5126,
			"count":1131,
			"type":"VEC2"
		},
		{
			"bufferView":7,
			"componentType":5123,
			"count":3024,
			"type":"SCALAR"
		}
	],
	"bufferViews":[
		{
			"buffer":0,
			"byteLength":76212,
			"byteOffset":0,
			"target":34962
		},
		{
			"buffer":0,
			"byteLength":76212,
			"byteOffset":76212,
			"target":34962
		},
		{
			"buffer":0,
			"byteLength":50808,
			"byteOffset":152424,
			"target":34962
		},
		{
			"buffer":0,
			"byteLength":35208,
			"byteOffset":203232,
			"target":34963
		},
		{
			"buffer":0,
			"byteLength":13572,
			"byteOffset":238440,
			"target":34962
		},
		{
			"buffer":0,
			"byteLength":13572,
			"byteOffset":252012,
			"target":34962
		},
		{
			"buffer":0,
			"byteLength":9048,
			"byteOffset":265584,
			"target":34962
		},
		{
			"buffer":0,
			"byteLength":6048,
			"byteOffset":274632,
			"target":34963
		}
	],
	"samplers":[
		{
			"magFilter":9729,
			"minFilter":9987
		}
	],
	"buffers":[
		{
			"byteLength":280680,
			"uri":"obj_wall.bin"
		}
	]
}
