{
	"asset":{
		"generator":"Khronos glTF Blender I/O v4.2.57",
		"version":"2.0"
	},
	"scene":0,
	"scenes":[
		{
			"name":"Scene",
			"nodes":[
				0,
				1
			]
		}
	],
	"nodes":[
		{
			"mesh":0,
			"name":"obj_frame"
		},
		{
			"mesh":1,
			"name":"obj_frame_collider"
		}
	],
	"materials":[
		{
			"doubleSided":true,
			"emissiveFactor":[
				1,
				1,
				1
			],
			"emissiveTexture":{
				"index":0
			},
			"name":"obj_frame",
			"pbrMetallicRoughness":{
				"baseColorTexture":{
					"index":1
				},
				"metallicFactor":0
			}
		},
		{
			"doubleSided":true,
			"emissiveFactor":[
				0.15000000596046448,
				0.15000000596046448,
				0.15000000596046448
			],
			"emissiveTexture":{
				"index":2
			},
			"name":"obj_background",
			"pbrMetallicRoughness":{
				"baseColorTexture":{
					"index":3
				},
				"metallicFactor":0
			}
		}
	],
	"meshes":[
		{
			"name":"Mesh.020",
			"primitives":[
				{
					"attributes":{
						"POSITION":0,
						"NORMAL":1,
						"TEXCOORD_0":2
					},
					"indices":3,
					"material":0
				},
				{
					"attributes":{
						"POSITION":4,
						"NORMAL":5,
						"TEXCOORD_0":6
					},
					"indices":7,
					"material":1
				}
			]
		},
		{
			"name":"Mesh.025",
			"primitives":[
				{
					"attributes":{
						"POSITION":8,
						"NORMAL":9,
						"TEXCOORD_0":10
					},
					"indices":11
				}
			]
		}
	],
	"textures":[
		{
			"sampler":0,
			"source":0
		},
		{
			"sampler":0,
			"source":1
		},
		{
			"sampler":0,
			"source":2
		},
		{
			"sampler":0,
			"source":2
		}
	],
	"images":[
		{
			"mimeType":"image/jpeg",
			"name":"obj_frame_emission",
			"uri":"textures/obj_frame_emission.jpg"
		},
		{
			"mimeType":"image/jpeg",
			"name":"obj_frame",
			"uri":"textures/obj_frame.jpg"
		},
		{
			"mimeType":"image/jpeg",
			"name":"obj_background",
			"uri":"textures/obj_background.jpg"
		}
	],
	"accessors":[
		{
			"bufferView":0,
			"componentType":5126,
			"count":8502,
			"max":[
				7.02784538269043,
				2.7105352878570557,
				4.669408798217773
			],
			"min":[
				-7.027846813201904,
				0.24960553646087646,
				-7.04581356048584
			],
			"type":"VEC3"
		},
		{
			"bufferView":1,
			"componentType":5126,
			"count":8502,
			"type":"VEC3"
		},
		{
			"bufferView":2,
			"componentType":5126,
			"count":8502,
			"type":"VEC2"
		},
		{
			"bufferView":3,
			"componentType":5123,
			"count":23832,
			"type":"SCALAR"
		},
		{
			"bufferView":4,
			"componentType":5126,
			"count":54,
			"max":[
				6.995550155639648,
				2.5728068351745605,
				4.5327863693237305
			],
			"min":[
				-6.995550155639648,
				0.38733410835266113,
				-7.013516902923584
			],
			"type":"VEC3"
		},
		{
			"bufferView":5,
			"componentType":5126,
			"count":54,
			"type":"VEC3"
		},
		{
			"bufferView":6,
			"componentType":5126,
			"count":54,
			"type":"VEC2"
		},
		{
			"bufferView":7,
			"componentType":5123,
			"count":144,
			"type":"SCALAR"
		},
		{
			"bufferView":8,
			"componentType":5126,
			"count":8556,
			"max":[
				7.02784538269043,
				2.7105352878570557,
				4.669408798217773
			],
			"min":[
				-7.027846813201904,
				0.24960553646087646,
				-7.04581356048584
			],
			"type":"VEC3"
		},
		{
			"bufferView":9,
			"componentType":5126,
			"count":8556,
			"type":"VEC3"
		},
		{
			"bufferView":10,
			"componentType":5126,
			"count":8556,
			"type":"VEC2"
		},
		{
			"bufferView":11,
			"componentType":5123,
			"count":23976,
			"type":"SCALAR"
		}
	],
	"bufferViews":[
		{
			"buffer":0,
			"byteLength":102024,
			"byteOffset":0,
			"target":34962
		},
		{
			"buffer":0,
			"byteLength":102024,
			"byteOffset":102024,
			"target":34962
		},
		{
			"buffer":0,
			"byteLength":68016,
			"byteOffset":204048,
			"target":34962
		},
		{
			"buffer":0,
			"byteLength":47664,
			"byteOffset":272064,
			"target":34963
		},
		{
			"buffer":0,
			"byteLength":648,
			"byteOffset":319728,
			"target":34962
		},
		{
			"buffer":0,
			"byteLength":648,
			"byteOffset":320376,
			"target":34962
		},
		{
			"buffer":0,
			"byteLength":432,
			"byteOffset":321024,
			"target":34962
		},
		{
			"buffer":0,
			"byteLength":288,
			"byteOffset":321456,
			"target":34963
		},
		{
			"buffer":0,
			"byteLength":102672,
			"byteOffset":321744,
			"target":34962
		},
		{
			"buffer":0,
			"byteLength":102672,
			"byteOffset":424416,
			"target":34962
		},
		{
			"buffer":0,
			"byteLength":68448,
			"byteOffset":527088,
			"target":34962
		},
		{
			"buffer":0,
			"byteLength":47952,
			"byteOffset":595536,
			"target":34963
		}
	],
	"samplers":[
		{
			"magFilter":9729,
			"minFilter":9987
		}
	],
	"buffers":[
		{
			"byteLength":643488,
			"uri":"obj_frame.bin"
		}
	]
}
