{
	"asset":{
		"generator":"Khronos glTF Blender I/O v4.2.57",
		"version":"2.0"
	},
	"extensionsUsed":[
		"KHR_materials_specular",
		"KHR_materials_ior"
	],
	"scene":0,
	"scenes":[
		{
			"name":"Scene",
			"nodes":[
				0,
				1
			]
		}
	],
	"nodes":[
		{
			"mesh":0,
			"name":"obj_wall"
		},
		{
			"mesh":1,
			"name":"obj_wall_collider"
		}
	],
	"materials":[
		{
			"doubleSided":true,
			"emissiveFactor":[
				0.5,
				0.5,
				0.5
			],
			"emissiveTexture":{
				"index":0
			},
			"extensions":{
				"KHR_materials_specular":{
					"specularColorFactor":[
						0.0,
						0.0,
						0.0
					]
				},
				"KHR_materials_ior":{
					"ior":1.4500000476837158
				}
			},
			"name":"obj_wall",
			"pbrMetallicRoughness":{
				"baseColorTexture":{
					"index":1
				},
				"metallicFactor":0
			}
		}
	],
	"meshes":[
		{
			"name":"Torus.005",
			"primitives":[
				{
					"attributes":{
						"POSITION":0,
						"NORMAL":1,
						"TEXCOORD_0":2
					},
					"indices":3,
					"material":0
				}
			]
		},
		{
			"name":"Torus.008",
			"primitives":[
				{
					"attributes":{
						"POSITION":4,
						"NORMAL":5,
						"TEXCOORD_0":6
					},
					"indices":3
				}
			]
		}
	],
	"textures":[
		{
			"sampler":0,
			"source":0
		},
		{
			"sampler":0,
			"source":1
		}
	],
	"images":[
		{
			"mimeType":"image/png",
			"name":"obj_wall_emission",
			"uri":"textures/obj_wall_emission.png"
		},
		{
			"mimeType":"image/png",
			"name":"obj_wall",
			"uri":"textures/obj_wall.png"
		}
	],
	"accessors":[
		{
			"bufferView":0,
			"componentType":5126,
			"count":10117,
			"max":[
				7.7893853187561035,
				4.458832740783691,
				5.633542060852051
			],
			"min":[
				-7.7893805503845215,
				0.03565202280879021,
				-7.8484978675842285
			],
			"type":"VEC3"
		},
		{
			"bufferView":1,
			"componentType":5126,
			"count":10117,
			"type":"VEC3"
		},
		{
			"bufferView":2,
			"componentType":5126,
			"count":10117,
			"type":"VEC2"
		},
		{
			"bufferView":3,
			"componentType":5123,
			"count":31770,
			"type":"SCALAR"
		},
		{
			"bufferView":4,
			"componentType":5126,
			"count":10117,
			"max":[
				7.7893853187561035,
				4.458832740783691,
				5.633542060852051
			],
			"min":[
				-7.7893805503845215,
				0.03565202280879021,
				-7.8484978675842285
			],
			"type":"VEC3"
		},
		{
			"bufferView":5,
			"componentType":5126,
			"count":10117,
			"type":"VEC3"
		},
		{
			"bufferView":6,
			"componentType":5126,
			"count":10117,
			"type":"VEC2"
		}
	],
	"bufferViews":[
		{
			"buffer":0,
			"byteLength":121404,
			"byteOffset":0,
			"target":34962
		},
		{
			"buffer":0,
			"byteLength":121404,
			"byteOffset":121404,
			"target":34962
		},
		{
			"buffer":0,
			"byteLength":80936,
			"byteOffset":242808,
			"target":34962
		},
		{
			"buffer":0,
			"byteLength":63540,
			"byteOffset":323744,
			"target":34963
		},
		{
			"buffer":0,
			"byteLength":121404,
			"byteOffset":387284,
			"target":34962
		},
		{
			"buffer":0,
			"byteLength":121404,
			"byteOffset":508688,
			"target":34962
		},
		{
			"buffer":0,
			"byteLength":80936,
			"byteOffset":630092,
			"target":34962
		}
	],
	"samplers":[
		{
			"magFilter":9729,
			"minFilter":9987
		}
	],
	"buffers":[
		{
			"byteLength":711028,
			"uri":"obj_wall.bin"
		}
	]
}
