{
	"asset":{
		"generator":"Khronos glTF Blender I/O v4.2.57",
		"version":"2.0"
	},
	"scene":0,
	"scenes":[
		{
			"name":"Scene",
			"nodes":[
				0,
				1
			]
		}
	],
	"nodes":[
		{
			"mesh":0,
			"name":"obj_terminal"
		},
		{
			"mesh":1,
			"name":"obj_terminal_collider"
		}
	],
	"materials":[
		{
			"doubleSided":true,
			"emissiveFactor":[
				0.25,
				0.25,
				0.25
			],
			"emissiveTexture":{
				"index":0
			},
			"name":"obj_terminal02",
			"pbrMetallicRoughness":{
				"baseColorTexture":{
					"index":1
				},
				"metallicFactor":0
			}
		},
		{
			"doubleSided":true,
			"name":"obj_terminal01",
			"pbrMetallicRoughness":{
				"baseColorTexture":{
					"index":2
				},
				"metallicFactor":0
			}
		},
		{
			"doubleSided":true,
			"emissiveFactor":[
				0.15000000596046448,
				0.15000000596046448,
				0.15000000596046448
			],
			"emissiveTexture":{
				"index":3
			},
			"name":"obj_background",
			"pbrMetallicRoughness":{
				"baseColorTexture":{
					"index":4
				},
				"metallicFactor":0
			}
		}
	],
	"meshes":[
		{
			"name":"Cube.009",
			"primitives":[
				{
					"attributes":{
						"POSITION":0,
						"NORMAL":1,
						"TEXCOORD_0":2,
						"TEXCOORD_1":3
					},
					"indices":4,
					"material":0
				},
				{
					"attributes":{
						"POSITION":5,
						"NORMAL":6,
						"TEXCOORD_0":7,
						"TEXCOORD_1":8
					},
					"indices":9,
					"material":1
				},
				{
					"attributes":{
						"POSITION":10,
						"NORMAL":11,
						"TEXCOORD_0":12,
						"TEXCOORD_1":13
					},
					"indices":14,
					"material":2
				}
			]
		},
		{
			"name":"Cube.010",
			"primitives":[
				{
					"attributes":{
						"POSITION":15,
						"NORMAL":16,
						"TEXCOORD_0":17,
						"TEXCOORD_1":18
					},
					"indices":19
				}
			]
		}
	],
	"textures":[
		{
			"sampler":0,
			"source":0
		},
		{
			"sampler":0,
			"source":0
		},
		{
			"sampler":0,
			"source":1
		},
		{
			"sampler":0,
			"source":2
		},
		{
			"sampler":0,
			"source":2
		}
	],
	"images":[
		{
			"mimeType":"image/jpeg",
			"name":"obj_terminal02",
			"uri":"textures/obj_terminal02.jpg"
		},
		{
			"mimeType":"image/jpeg",
			"name":"obj_terminal01",
			"uri":"textures/obj_terminal01.jpg"
		},
		{
			"mimeType":"image/jpeg",
			"name":"obj_background",
			"uri":"textures/obj_background.jpg"
		}
	],
	"accessors":[
		{
			"bufferView":0,
			"componentType":5126,
			"count":96,
			"max":[
				0.5750125050544739,
				1.359708547592163,
				1.2557628154754639
			],
			"min":[
				-0.5803680419921875,
				0.637834906578064,
				1.203399658203125
			],
			"type":"VEC3"
		},
		{
			"bufferView":1,
			"componentType":5126,
			"count":96,
			"type":"VEC3"
		},
		{
			"bufferView":2,
			"componentType":5126,
			"count":96,
			"type":"VEC2"
		},
		{
			"bufferView":3,
			"componentType":5126,
			"count":96,
			"type":"VEC2"
		},
		{
			"bufferView":4,
			"componentType":5123,
			"count":216,
			"type":"SCALAR"
		},
		{
			"bufferView":5,
			"componentType":5126,
			"count":564,
			"max":[
				0.7166577577590942,
				1.5008571147918701,
				1.2505805492401123
			],
			"min":[
				-0.720523476600647,
				0.04611862078309059,
				0.8813629150390625
			],
			"type":"VEC3"
		},
		{
			"bufferView":6,
			"componentType":5126,
			"count":564,
			"type":"VEC3"
		},
		{
			"bufferView":7,
			"componentType":5126,
			"count":564,
			"type":"VEC2"
		},
		{
			"bufferView":8,
			"componentType":5126,
			"count":564,
			"type":"VEC2"
		},
		{
			"bufferView":9,
			"componentType":5123,
			"count":1902,
			"type":"SCALAR"
		},
		{
			"bufferView":10,
			"componentType":5126,
			"count":16,
			"max":[
				0.53794926404953,
				1.3226268291473389,
				1.203399896621704
			],
			"min":[
				-0.5427178740501404,
				0.6739827990531921,
				1.203399658203125
			],
			"type":"VEC3"
		},
		{
			"bufferView":11,
			"componentType":5126,
			"count":16,
			"type":"VEC3"
		},
		{
			"bufferView":12,
			"componentType":5126,
			"count":16,
			"type":"VEC2"
		},
		{
			"bufferView":13,
			"componentType":5126,
			"count":16,
			"type":"VEC2"
		},
		{
			"bufferView":14,
			"componentType":5123,
			"count":54,
			"type":"SCALAR"
		},
		{
			"bufferView":15,
			"componentType":5126,
			"count":676,
			"max":[
				0.716657817363739,
				1.5008571147918701,
				1.2557626962661743
			],
			"min":[
				-0.7205234169960022,
				0.04611861705780029,
				0.8813628554344177
			],
			"type":"VEC3"
		},
		{
			"bufferView":16,
			"componentType":5126,
			"count":676,
			"type":"VEC3"
		},
		{
			"bufferView":17,
			"componentType":5126,
			"count":676,
			"type":"VEC2"
		},
		{
			"bufferView":18,
			"componentType":5126,
			"count":676,
			"type":"VEC2"
		},
		{
			"bufferView":19,
			"componentType":5123,
			"count":2172,
			"type":"SCALAR"
		}
	],
	"bufferViews":[
		{
			"buffer":0,
			"byteLength":1152,
			"byteOffset":0,
			"target":34962
		},
		{
			"buffer":0,
			"byteLength":1152,
			"byteOffset":1152,
			"target":34962
		},
		{
			"buffer":0,
			"byteLength":768,
			"byteOffset":2304,
			"target":34962
		},
		{
			"buffer":0,
			"byteLength":768,
			"byteOffset":3072,
			"target":34962
		},
		{
			"buffer":0,
			"byteLength":432,
			"byteOffset":3840,
			"target":34963
		},
		{
			"buffer":0,
			"byteLength":6768,
			"byteOffset":4272,
			"target":34962
		},
		{
			"buffer":0,
			"byteLength":6768,
			"byteOffset":11040,
			"target":34962
		},
		{
			"buffer":0,
			"byteLength":4512,
			"byteOffset":17808,
			"target":34962
		},
		{
			"buffer":0,
			"byteLength":4512,
			"byteOffset":22320,
			"target":34962
		},
		{
			"buffer":0,
			"byteLength":3804,
			"byteOffset":26832,
			"target":34963
		},
		{
			"buffer":0,
			"byteLength":192,
			"byteOffset":30636,
			"target":34962
		},
		{
			"buffer":0,
			"byteLength":192,
			"byteOffset":30828,
			"target":34962
		},
		{
			"buffer":0,
			"byteLength":128,
			"byteOffset":31020,
			"target":34962
		},
		{
			"buffer":0,
			"byteLength":128,
			"byteOffset":31148,
			"target":34962
		},
		{
			"buffer":0,
			"byteLength":108,
			"byteOffset":31276,
			"target":34963
		},
		{
			"buffer":0,
			"byteLength":8112,
			"byteOffset":31384,
			"target":34962
		},
		{
			"buffer":0,
			"byteLength":8112,
			"byteOffset":39496,
			"target":34962
		},
		{
			"buffer":0,
			"byteLength":5408,
			"byteOffset":47608,
			"target":34962
		},
		{
			"buffer":0,
			"byteLength":5408,
			"byteOffset":53016,
			"target":34962
		},
		{
			"buffer":0,
			"byteLength":4344,
			"byteOffset":58424,
			"target":34963
		}
	],
	"samplers":[
		{
			"magFilter":9729,
			"minFilter":9987
		}
	],
	"buffers":[
		{
			"byteLength":62768,
			"uri":"obj_terminal.bin"
		}
	]
}
