{
	"asset":{
		"generator":"Khronos glTF Blender I/O v4.2.57",
		"version":"2.0"
	},
	"scene":0,
	"scenes":[
		{
			"name":"Scene",
			"nodes":[
				0,
				1
			]
		}
	],
	"nodes":[
		{
			"mesh":0,
			"name":"obj_candies"
		},
		{
			"mesh":1,
			"name":"obj_candies_collider"
		}
	],
	"materials":[
		{
			"doubleSided":true,
			"name":"obj_candies01",
			"pbrMetallicRoughness":{
				"baseColorTexture":{
					"index":0
				},
				"metallicFactor":0
			}
		},
		{
			"alphaMode":"BLEND",
			"doubleSided":true,
			"name":"obj_candies01_alpha",
			"pbrMetallicRoughness":{
				"baseColorTexture":{
					"index":1
				},
				"metallicFactor":0
			}
		}
	],
	"meshes":[
		{
			"name":"mesh.001",
			"primitives":[
				{
					"attributes":{
						"POSITION":0,
						"NORMAL":1,
						"TEXCOORD_0":2
					},
					"indices":3,
					"material":0
				},
				{
					"attributes":{
						"POSITION":4,
						"NORMAL":5,
						"TEXCOORD_0":6
					},
					"indices":7,
					"material":1
				}
			]
		},
		{
			"name":"mesh.002",
			"primitives":[
				{
					"attributes":{
						"POSITION":8,
						"NORMAL":9,
						"TEXCOORD_0":10
					},
					"indices":11
				}
			]
		}
	],
	"textures":[
		{
			"sampler":0,
			"source":0
		},
		{
			"sampler":0,
			"source":1
		}
	],
	"images":[
		{
			"mimeType":"image/jpeg",
			"name":"obj_candies01",
			"uri":"textures/obj_candies01.jpg"
		},
		{
			"mimeType":"image/png",
			"name":"obj_candies01_alpha",
			"uri":"textures/obj_candies01_alpha.png"
		}
	],
	"accessors":[
		{
			"bufferView":0,
			"componentType":5126,
			"count":1847,
			"max":[
				-1.3657946586608887,
				1.7673455476760864,
				1.425941824913025
			],
			"min":[
				-2.0078091621398926,
				0.03937042877078056,
				0.783869743347168
			],
			"type":"VEC3"
		},
		{
			"bufferView":1,
			"componentType":5126,
			"count":1847,
			"type":"VEC3"
		},
		{
			"bufferView":2,
			"componentType":5126,
			"count":1847,
			"type":"VEC2"
		},
		{
			"bufferView":3,
			"componentType":5123,
			"count":5553,
			"type":"SCALAR"
		},
		{
			"bufferView":4,
			"componentType":5126,
			"count":95,
			"max":[
				-1.427013635635376,
				1.6967077255249023,
				1.3649650812149048
			],
			"min":[
				-1.991816759109497,
				0.43643832206726074,
				0.8004929423332214
			],
			"type":"VEC3"
		},
		{
			"bufferView":5,
			"componentType":5126,
			"count":95,
			"type":"VEC3"
		},
		{
			"bufferView":6,
			"componentType":5126,
			"count":95,
			"type":"VEC2"
		},
		{
			"bufferView":7,
			"componentType":5123,
			"count":408,
			"type":"SCALAR"
		},
		{
			"bufferView":8,
			"componentType":5126,
			"count":1942,
			"max":[
				-1.3657946586608887,
				1.7673455476760864,
				1.425941824913025
			],
			"min":[
				-2.0078091621398926,
				0.03937042877078056,
				0.783869743347168
			],
			"type":"VEC3"
		},
		{
			"bufferView":9,
			"componentType":5126,
			"count":1942,
			"type":"VEC3"
		},
		{
			"bufferView":10,
			"componentType":5126,
			"count":1942,
			"type":"VEC2"
		},
		{
			"bufferView":11,
			"componentType":5123,
			"count":5961,
			"type":"SCALAR"
		}
	],
	"bufferViews":[
		{
			"buffer":0,
			"byteLength":22164,
			"byteOffset":0,
			"target":34962
		},
		{
			"buffer":0,
			"byteLength":22164,
			"byteOffset":22164,
			"target":34962
		},
		{
			"buffer":0,
			"byteLength":14776,
			"byteOffset":44328,
			"target":34962
		},
		{
			"buffer":0,
			"byteLength":11106,
			"byteOffset":59104,
			"target":34963
		},
		{
			"buffer":0,
			"byteLength":1140,
			"byteOffset":70212,
			"target":34962
		},
		{
			"buffer":0,
			"byteLength":1140,
			"byteOffset":71352,
			"target":34962
		},
		{
			"buffer":0,
			"byteLength":760,
			"byteOffset":72492,
			"target":34962
		},
		{
			"buffer":0,
			"byteLength":816,
			"byteOffset":73252,
			"target":34963
		},
		{
			"buffer":0,
			"byteLength":23304,
			"byteOffset":74068,
			"target":34962
		},
		{
			"buffer":0,
			"byteLength":23304,
			"byteOffset":97372,
			"target":34962
		},
		{
			"buffer":0,
			"byteLength":15536,
			"byteOffset":120676,
			"target":34962
		},
		{
			"buffer":0,
			"byteLength":11922,
			"byteOffset":136212,
			"target":34963
		}
	],
	"samplers":[
		{
			"magFilter":9729,
			"minFilter":9987
		}
	],
	"buffers":[
		{
			"byteLength":148136,
			"uri":"obj_candies.bin"
		}
	]
}
