{
	"asset":{
		"generator":"Khronos glTF Blender I/O v4.2.57",
		"version":"2.0"
	},
	"scene":0,
	"scenes":[
		{
			"name":"Scene",
			"nodes":[
				0,
				1
			]
		}
	],
	"nodes":[
		{
			"mesh":0,
			"name":"obj_terminal"
		},
		{
			"mesh":1,
			"name":"obj_terminal_collider"
		}
	],
	"materials":[
		{
			"doubleSided":true,
			"emissiveFactor":[
				0.25,
				0.25,
				0.25
			],
			"emissiveTexture":{
				"index":0
			},
			"name":"obj_terminal02",
			"pbrMetallicRoughness":{
				"baseColorTexture":{
					"index":1
				},
				"metallicFactor":0
			}
		},
		{
			"doubleSided":true,
			"name":"obj_terminal01",
			"pbrMetallicRoughness":{
				"baseColorTexture":{
					"index":2
				},
				"metallicFactor":0
			}
		}
	],
	"meshes":[
		{
			"name":"Cube.009",
			"primitives":[
				{
					"attributes":{
						"POSITION":0,
						"NORMAL":1,
						"TEXCOORD_0":2,
						"TEXCOORD_1":3
					},
					"indices":4,
					"material":0
				},
				{
					"attributes":{
						"POSITION":5,
						"NORMAL":6,
						"TEXCOORD_0":7,
						"TEXCOORD_1":8
					},
					"indices":9,
					"material":1
				}
			]
		},
		{
			"name":"Cube.010",
			"primitives":[
				{
					"attributes":{
						"POSITION":10,
						"NORMAL":11,
						"TEXCOORD_0":12,
						"TEXCOORD_1":13
					},
					"indices":14
				}
			]
		}
	],
	"textures":[
		{
			"sampler":0,
			"source":0
		},
		{
			"sampler":0,
			"source":0
		},
		{
			"sampler":0,
			"source":1
		}
	],
	"images":[
		{
			"mimeType":"image/jpeg",
			"name":"obj_terminal02",
			"uri":"textures/obj_terminal02.jpg"
		},
		{
			"mimeType":"image/jpeg",
			"name":"obj_terminal01",
			"uri":"textures/obj_terminal01.jpg"
		}
	],
	"accessors":[
		{
			"bufferView":0,
			"componentType":5126,
			"count":112,
			"max":[
				0.6109358072280884,
				1.4413487911224365,
				1.2674039602279663
			],
			"min":[
				-0.6162521839141846,
				0.6746103763580322,
				1.2117865085601807
			],
			"type":"VEC3"
		},
		{
			"bufferView":1,
			"componentType":5126,
			"count":112,
			"type":"VEC3"
		},
		{
			"bufferView":2,
			"componentType":5126,
			"count":112,
			"type":"VEC2"
		},
		{
			"bufferView":3,
			"componentType":5126,
			"count":112,
			"type":"VEC2"
		},
		{
			"bufferView":4,
			"componentType":5123,
			"count":270,
			"type":"SCALAR"
		},
		{
			"bufferView":5,
			"componentType":5126,
			"count":564,
			"max":[
				0.7613844275474548,
				1.591269850730896,
				1.2618995904922485
			],
			"min":[
				-0.7651183009147644,
				0.0461186021566391,
				0.8697349429130554
			],
			"type":"VEC3"
		},
		{
			"bufferView":6,
			"componentType":5126,
			"count":564,
			"type":"VEC3"
		},
		{
			"bufferView":7,
			"componentType":5126,
			"count":564,
			"type":"VEC2"
		},
		{
			"bufferView":8,
			"componentType":5126,
			"count":564,
			"type":"VEC2"
		},
		{
			"bufferView":9,
			"componentType":5123,
			"count":1902,
			"type":"SCALAR"
		},
		{
			"bufferView":10,
			"componentType":5126,
			"count":676,
			"max":[
				0.7613844275474548,
				1.591269850730896,
				1.2674039602279663
			],
			"min":[
				-0.7651183009147644,
				0.0461186021566391,
				0.8697349429130554
			],
			"type":"VEC3"
		},
		{
			"bufferView":11,
			"componentType":5126,
			"count":676,
			"type":"VEC3"
		},
		{
			"bufferView":12,
			"componentType":5126,
			"count":676,
			"type":"VEC2"
		},
		{
			"bufferView":13,
			"componentType":5126,
			"count":676,
			"type":"VEC2"
		},
		{
			"bufferView":14,
			"componentType":5123,
			"count":2172,
			"type":"SCALAR"
		}
	],
	"bufferViews":[
		{
			"buffer":0,
			"byteLength":1344,
			"byteOffset":0,
			"target":34962
		},
		{
			"buffer":0,
			"byteLength":1344,
			"byteOffset":1344,
			"target":34962
		},
		{
			"buffer":0,
			"byteLength":896,
			"byteOffset":2688,
			"target":34962
		},
		{
			"buffer":0,
			"byteLength":896,
			"byteOffset":3584,
			"target":34962
		},
		{
			"buffer":0,
			"byteLength":540,
			"byteOffset":4480,
			"target":34963
		},
		{
			"buffer":0,
			"byteLength":6768,
			"byteOffset":5020,
			"target":34962
		},
		{
			"buffer":0,
			"byteLength":6768,
			"byteOffset":11788,
			"target":34962
		},
		{
			"buffer":0,
			"byteLength":4512,
			"byteOffset":18556,
			"target":34962
		},
		{
			"buffer":0,
			"byteLength":4512,
			"byteOffset":23068,
			"target":34962
		},
		{
			"buffer":0,
			"byteLength":3804,
			"byteOffset":27580,
			"target":34963
		},
		{
			"buffer":0,
			"byteLength":8112,
			"byteOffset":31384,
			"target":34962
		},
		{
			"buffer":0,
			"byteLength":8112,
			"byteOffset":39496,
			"target":34962
		},
		{
			"buffer":0,
			"byteLength":5408,
			"byteOffset":47608,
			"target":34962
		},
		{
			"buffer":0,
			"byteLength":5408,
			"byteOffset":53016,
			"target":34962
		},
		{
			"buffer":0,
			"byteLength":4344,
			"byteOffset":58424,
			"target":34963
		}
	],
	"samplers":[
		{
			"magFilter":9729,
			"minFilter":9987
		}
	],
	"buffers":[
		{
			"byteLength":62768,
			"uri":"obj_terminal.bin"
		}
	]
}
