{
	"asset":{
		"generator":"Khronos glTF Blender I/O v4.3.47",
		"version":"2.0"
	},
	"extensionsUsed":[
		"KHR_materials_specular"
	],
	"scene":0,
	"scenes":[
		{
			"name":"Scene",
			"nodes":[
				0,
				1
			]
		}
	],
	"nodes":[
		{
			"mesh":0,
			"name":"obj_trash"
		},
		{
			"mesh":1,
			"name":"obj_trash_collider"
		}
	],
	"materials":[
		{
			"emissiveFactor":[
				0.10000000149011612,
				0.10000000149011612,
				0.10000000149011612
			],
			"emissiveTexture":{
				"index":0
			},
			"extensions":{
				"KHR_materials_specular":{
					"specularFactor":0
				}
			},
			"name":"obj_trash",
			"pbrMetallicRoughness":{
				"baseColorTexture":{
					"index":1
				},
				"metallicFactor":0
			}
		}
	],
	"meshes":[
		{
			"name":"obj_trash",
			"primitives":[
				{
					"attributes":{
						"POSITION":0,
						"NORMAL":1,
						"TEXCOORD_0":2
					},
					"indices":3,
					"material":0
				}
			]
		},
		{
			"name":"obj_trash_collider",
			"primitives":[
				{
					"attributes":{
						"POSITION":4,
						"NORMAL":5,
						"TEXCOORD_0":6
					},
					"indices":7
				}
			]
		}
	],
	"textures":[
		{
			"sampler":0,
			"source":0
		},
		{
			"sampler":0,
			"source":0
		}
	],
	"images":[
		{
			"mimeType":"image/jpeg",
			"name":"obj_trash",
			"uri":"textures/obj_trash.jpg"
		}
	],
	"accessors":[
		{
			"bufferView":0,
			"componentType":5126,
			"count":2130,
			"max":[
				7.467422962188721,
				0.5778083801269531,
				0.19784235954284668
			],
			"min":[
				-7.4375762939453125,
				0.02549220807850361,
				-7.784465789794922
			],
			"type":"VEC3"
		},
		{
			"bufferView":1,
			"componentType":5126,
			"count":2130,
			"type":"VEC3"
		},
		{
			"bufferView":2,
			"componentType":5126,
			"count":2130,
			"type":"VEC2"
		},
		{
			"bufferView":3,
			"componentType":5123,
			"count":4890,
			"type":"SCALAR"
		},
		{
			"bufferView":4,
			"componentType":5126,
			"count":490,
			"max":[
				7.461954116821289,
				0.5778083801269531,
				0.19784259796142578
			],
			"min":[
				-7.442965507507324,
				0.02549220807850361,
				-7.784465789794922
			],
			"type":"VEC3"
		},
		{
			"bufferView":5,
			"componentType":5126,
			"count":490,
			"type":"VEC3"
		},
		{
			"bufferView":6,
			"componentType":5126,
			"count":490,
			"type":"VEC2"
		},
		{
			"bufferView":7,
			"componentType":5123,
			"count":870,
			"type":"SCALAR"
		}
	],
	"bufferViews":[
		{
			"buffer":0,
			"byteLength":25560,
			"byteOffset":0,
			"target":34962
		},
		{
			"buffer":0,
			"byteLength":25560,
			"byteOffset":25560,
			"target":34962
		},
		{
			"buffer":0,
			"byteLength":17040,
			"byteOffset":51120,
			"target":34962
		},
		{
			"buffer":0,
			"byteLength":9780,
			"byteOffset":68160,
			"target":34963
		},
		{
			"buffer":0,
			"byteLength":5880,
			"byteOffset":77940,
			"target":34962
		},
		{
			"buffer":0,
			"byteLength":5880,
			"byteOffset":83820,
			"target":34962
		},
		{
			"buffer":0,
			"byteLength":3920,
			"byteOffset":89700,
			"target":34962
		},
		{
			"buffer":0,
			"byteLength":1740,
			"byteOffset":93620,
			"target":34963
		}
	],
	"samplers":[
		{
			"magFilter":9729,
			"minFilter":9987
		}
	],
	"buffers":[
		{
			"byteLength":95360,
			"uri":"obj_trash.bin"
		}
	]
}
