{
	"asset":{
		"generator":"Khronos glTF Blender I/O v4.2.57",
		"version":"2.0"
	},
	"extensionsUsed":[
		"KHR_materials_specular"
	],
	"scene":0,
	"scenes":[
		{
			"name":"Scene",
			"nodes":[
				0,
				1
			]
		}
	],
	"nodes":[
		{
			"mesh":0,
			"name":"obj_grid",
			"scale":[
				0.8661460876464844,
				0.8661460876464844,
				0.8661460876464844
			],
			"translation":[
				0,
				0.00709475576877594,
				-3.785848617553711
			]
		},
		{
			"mesh":1,
			"name":"obj_grid_collider",
			"scale":[
				0.8661460876464844,
				0.8661460876464844,
				0.8661460876464844
			],
			"translation":[
				0,
				0.00709475576877594,
				-3.785848617553711
			]
		}
	],
	"materials":[
		{
			"alphaMode":"BLEND",
			"doubleSided":true,
			"extensions":{
				"KHR_materials_specular":{
					"specularFactor":0
				}
			},
			"name":"obj_grid",
			"pbrMetallicRoughness":{
				"baseColorTexture":{
					"index":0
				},
				"metallicFactor":0
			}
		},
		{
			"doubleSided":true,
			"name":"obj_stripes",
			"pbrMetallicRoughness":{
				"metallicFactor":0
			}
		}
	],
	"meshes":[
		{
			"name":"Plane.004",
			"primitives":[
				{
					"attributes":{
						"POSITION":0,
						"NORMAL":1,
						"TEXCOORD_0":2
					},
					"indices":3,
					"material":0
				},
				{
					"attributes":{
						"POSITION":4,
						"NORMAL":5,
						"TEXCOORD_0":6
					},
					"indices":7,
					"material":1
				}
			]
		},
		{
			"name":"Plane.002",
			"primitives":[
				{
					"attributes":{
						"POSITION":8,
						"NORMAL":9,
						"TEXCOORD_0":10
					},
					"indices":7
				}
			]
		}
	],
	"textures":[
		{
			"sampler":0,
			"source":0
		}
	],
	"images":[
		{
			"mimeType":"image/png",
			"name":"obj_grid",
			"uri":"textures/obj_grid.png"
		}
	],
	"accessors":[
		{
			"bufferView":0,
			"componentType":5126,
			"count":152,
			"max":[
				5,
				0,
				3
			],
			"min":[
				-3,
				0,
				-3
			],
			"type":"VEC3"
		},
		{
			"bufferView":1,
			"componentType":5126,
			"count":152,
			"type":"VEC3"
		},
		{
			"bufferView":2,
			"componentType":5126,
			"count":152,
			"type":"VEC2"
		},
		{
			"bufferView":3,
			"componentType":5123,
			"count":228,
			"type":"SCALAR"
		},
		{
			"bufferView":4,
			"componentType":5126,
			"count":420,
			"max":[
				4.624119281768799,
				0.013198651373386383,
				2.837956190109253
			],
			"min":[
				-4.624118804931641,
				-0.010831810534000397,
				-2.840759754180908
			],
			"type":"VEC3"
		},
		{
			"bufferView":5,
			"componentType":5126,
			"count":420,
			"type":"VEC3"
		},
		{
			"bufferView":6,
			"componentType":5126,
			"count":420,
			"type":"VEC2"
		},
		{
			"bufferView":7,
			"componentType":5123,
			"count":630,
			"type":"SCALAR"
		},
		{
			"bufferView":8,
			"componentType":5126,
			"count":420,
			"max":[
				4.624119281768799,
				0.013198651373386383,
				2.837956190109253
			],
			"min":[
				-4.624118804931641,
				-0.010831810534000397,
				-2.840759754180908
			],
			"type":"VEC3"
		},
		{
			"bufferView":9,
			"componentType":5126,
			"count":420,
			"type":"VEC3"
		},
		{
			"bufferView":10,
			"componentType":5126,
			"count":420,
			"type":"VEC2"
		}
	],
	"bufferViews":[
		{
			"buffer":0,
			"byteLength":1824,
			"byteOffset":0,
			"target":34962
		},
		{
			"buffer":0,
			"byteLength":1824,
			"byteOffset":1824,
			"target":34962
		},
		{
			"buffer":0,
			"byteLength":1216,
			"byteOffset":3648,
			"target":34962
		},
		{
			"buffer":0,
			"byteLength":456,
			"byteOffset":4864,
			"target":34963
		},
		{
			"buffer":0,
			"byteLength":5040,
			"byteOffset":5320,
			"target":34962
		},
		{
			"buffer":0,
			"byteLength":5040,
			"byteOffset":10360,
			"target":34962
		},
		{
			"buffer":0,
			"byteLength":3360,
			"byteOffset":15400,
			"target":34962
		},
		{
			"buffer":0,
			"byteLength":1260,
			"byteOffset":18760,
			"target":34963
		},
		{
			"buffer":0,
			"byteLength":5040,
			"byteOffset":20020,
			"target":34962
		},
		{
			"buffer":0,
			"byteLength":5040,
			"byteOffset":25060,
			"target":34962
		},
		{
			"buffer":0,
			"byteLength":3360,
			"byteOffset":30100,
			"target":34962
		}
	],
	"samplers":[
		{
			"magFilter":9729,
			"minFilter":9987
		}
	],
	"buffers":[
		{
			"byteLength":33460,
			"uri":"obj_grid.bin"
		}
	]
}
