{
	"asset":{
		"generator":"Khronos glTF Blender I/O v4.2.57",
		"version":"2.0"
	},
	"scene":0,
	"scenes":[
		{
			"name":"Scene",
			"nodes":[
				0,
				1
			]
		}
	],
	"nodes":[
		{
			"mesh":0,
			"name":"obj_frame"
		},
		{
			"mesh":1,
			"name":"obj_frame_collider"
		}
	],
	"materials":[
		{
			"doubleSided":true,
			"emissiveFactor":[
				1,
				1,
				1
			],
			"emissiveTexture":{
				"index":0
			},
			"name":"obj_frame",
			"pbrMetallicRoughness":{
				"baseColorTexture":{
					"index":1
				},
				"metallicFactor":0
			}
		},
		{
			"doubleSided":true,
			"emissiveFactor":[
				0.15000000596046448,
				0.15000000596046448,
				0.15000000596046448
			],
			"emissiveTexture":{
				"index":2
			},
			"name":"obj_background",
			"pbrMetallicRoughness":{
				"baseColorTexture":{
					"index":3
				},
				"metallicFactor":0
			}
		},
		{
			"doubleSided":true,
			"emissiveFactor":[
				1,
				1,
				1
			],
			"emissiveTexture":{
				"index":4
			},
			"name":"obj_wings",
			"pbrMetallicRoughness":{
				"baseColorTexture":{
					"index":5
				},
				"metallicFactor":0
			}
		},
		{
			"emissiveFactor":[
				1,
				1,
				1
			],
			"emissiveTexture":{
				"index":6
			},
			"name":"obj_clock",
			"pbrMetallicRoughness":{
				"baseColorTexture":{
					"index":7
				},
				"metallicFactor":0
			}
		}
	],
	"meshes":[
		{
			"name":"Mesh.020",
			"primitives":[
				{
					"attributes":{
						"POSITION":0,
						"NORMAL":1,
						"TEXCOORD_0":2
					},
					"indices":3,
					"material":0
				},
				{
					"attributes":{
						"POSITION":4,
						"NORMAL":5,
						"TEXCOORD_0":6
					},
					"indices":7,
					"material":1
				},
				{
					"attributes":{
						"POSITION":8,
						"NORMAL":9,
						"TEXCOORD_0":10
					},
					"indices":11,
					"material":2
				},
				{
					"attributes":{
						"POSITION":12,
						"NORMAL":13,
						"TEXCOORD_0":14
					},
					"indices":15,
					"material":3
				}
			]
		},
		{
			"name":"Mesh.028",
			"primitives":[
				{
					"attributes":{
						"POSITION":16,
						"NORMAL":17,
						"TEXCOORD_0":18
					},
					"indices":19
				}
			]
		}
	],
	"textures":[
		{
			"sampler":0,
			"source":0
		},
		{
			"sampler":0,
			"source":1
		},
		{
			"sampler":0,
			"source":2
		},
		{
			"sampler":0,
			"source":2
		},
		{
			"sampler":0,
			"source":3
		},
		{
			"sampler":0,
			"source":4
		},
		{
			"sampler":0,
			"source":5
		},
		{
			"sampler":0,
			"source":6
		}
	],
	"images":[
		{
			"mimeType":"image/jpeg",
			"name":"obj_frame_emission",
			"uri":"textures/obj_frame_emission.jpg"
		},
		{
			"mimeType":"image/jpeg",
			"name":"obj_frame",
			"uri":"textures/obj_frame.jpg"
		},
		{
			"mimeType":"image/jpeg",
			"name":"obj_background",
			"uri":"textures/obj_background.jpg"
		},
		{
			"mimeType":"image/jpeg",
			"name":"obj_wings_emission",
			"uri":"textures/obj_wings_emission.jpg"
		},
		{
			"mimeType":"image/jpeg",
			"name":"obj_wings",
			"uri":"textures/obj_wings.jpg"
		},
		{
			"mimeType":"image/jpeg",
			"name":"obj_clock_emission",
			"uri":"textures/obj_clock_emission.jpg"
		},
		{
			"mimeType":"image/jpeg",
			"name":"obj_clock",
			"uri":"textures/obj_clock.jpg"
		}
	],
	"accessors":[
		{
			"bufferView":0,
			"componentType":5126,
			"count":19143,
			"max":[
				7.02784538269043,
				3.434868335723877,
				4.669408798217773
			],
			"min":[
				-7.027846813201904,
				0.24960553646087646,
				-7.04581356048584
			],
			"type":"VEC3"
		},
		{
			"bufferView":1,
			"componentType":5126,
			"count":19143,
			"type":"VEC3"
		},
		{
			"bufferView":2,
			"componentType":5126,
			"count":19143,
			"type":"VEC2"
		},
		{
			"bufferView":3,
			"componentType":5123,
			"count":54504,
			"type":"SCALAR"
		},
		{
			"bufferView":4,
			"componentType":5126,
			"count":85,
			"max":[
				6.995550155639648,
				3.313272476196289,
				4.5327863693237305
			],
			"min":[
				-6.995550155639648,
				0.38733410835266113,
				-7.012383937835693
			],
			"type":"VEC3"
		},
		{
			"bufferView":5,
			"componentType":5126,
			"count":85,
			"type":"VEC3"
		},
		{
			"bufferView":6,
			"componentType":5126,
			"count":85,
			"type":"VEC2"
		},
		{
			"bufferView":7,
			"componentType":5123,
			"count":228,
			"type":"SCALAR"
		},
		{
			"bufferView":8,
			"componentType":5126,
			"count":5604,
			"max":[
				7.0326738357543945,
				3.7734718322753906,
				4.56149435043335
			],
			"min":[
				-7.03267240524292,
				3.3303020000457764,
				-7.053690433502197
			],
			"type":"VEC3"
		},
		{
			"bufferView":9,
			"componentType":5126,
			"count":5604,
			"type":"VEC3"
		},
		{
			"bufferView":10,
			"componentType":5126,
			"count":5604,
			"type":"VEC2"
		},
		{
			"bufferView":11,
			"componentType":5123,
			"count":16056,
			"type":"SCALAR"
		},
		{
			"bufferView":12,
			"componentType":5126,
			"count":1029,
			"max":[
				7.086460113525391,
				4.021086692810059,
				3.785386800765991
			],
			"min":[
				-7.086459159851074,
				3.1889116764068604,
				-7.107476711273193
			],
			"type":"VEC3"
		},
		{
			"bufferView":13,
			"componentType":5126,
			"count":1029,
			"type":"VEC3"
		},
		{
			"bufferView":14,
			"componentType":5126,
			"count":1029,
			"type":"VEC2"
		},
		{
			"bufferView":15,
			"componentType":5123,
			"count":3798,
			"type":"SCALAR"
		},
		{
			"bufferView":16,
			"componentType":5126,
			"count":25854,
			"max":[
				7.086460113525391,
				4.021086692810059,
				4.669408798217773
			],
			"min":[
				-7.086459159851074,
				0.24960553646087646,
				-7.107476711273193
			],
			"type":"VEC3"
		},
		{
			"bufferView":17,
			"componentType":5126,
			"count":25854,
			"type":"VEC3"
		},
		{
			"bufferView":18,
			"componentType":5126,
			"count":25854,
			"type":"VEC2"
		},
		{
			"bufferView":19,
			"componentType":5123,
			"count":74538,
			"type":"SCALAR"
		}
	],
	"bufferViews":[
		{
			"buffer":0,
			"byteLength":229716,
			"byteOffset":0,
			"target":34962
		},
		{
			"buffer":0,
			"byteLength":229716,
			"byteOffset":229716,
			"target":34962
		},
		{
			"buffer":0,
			"byteLength":153144,
			"byteOffset":459432,
			"target":34962
		},
		{
			"buffer":0,
			"byteLength":109008,
			"byteOffset":612576,
			"target":34963
		},
		{
			"buffer":0,
			"byteLength":1020,
			"byteOffset":721584,
			"target":34962
		},
		{
			"buffer":0,
			"byteLength":1020,
			"byteOffset":722604,
			"target":34962
		},
		{
			"buffer":0,
			"byteLength":680,
			"byteOffset":723624,
			"target":34962
		},
		{
			"buffer":0,
			"byteLength":456,
			"byteOffset":724304,
			"target":34963
		},
		{
			"buffer":0,
			"byteLength":67248,
			"byteOffset":724760,
			"target":34962
		},
		{
			"buffer":0,
			"byteLength":67248,
			"byteOffset":792008,
			"target":34962
		},
		{
			"buffer":0,
			"byteLength":44832,
			"byteOffset":859256,
			"target":34962
		},
		{
			"buffer":0,
			"byteLength":32112,
			"byteOffset":904088,
			"target":34963
		},
		{
			"buffer":0,
			"byteLength":12348,
			"byteOffset":936200,
			"target":34962
		},
		{
			"buffer":0,
			"byteLength":12348,
			"byteOffset":948548,
			"target":34962
		},
		{
			"buffer":0,
			"byteLength":8232,
			"byteOffset":960896,
			"target":34962
		},
		{
			"buffer":0,
			"byteLength":7596,
			"byteOffset":969128,
			"target":34963
		},
		{
			"buffer":0,
			"byteLength":310248,
			"byteOffset":976724,
			"target":34962
		},
		{
			"buffer":0,
			"byteLength":310248,
			"byteOffset":1286972,
			"target":34962
		},
		{
			"buffer":0,
			"byteLength":206832,
			"byteOffset":1597220,
			"target":34962
		},
		{
			"buffer":0,
			"byteLength":149076,
			"byteOffset":1804052,
			"target":34963
		}
	],
	"samplers":[
		{
			"magFilter":9729,
			"minFilter":9987
		}
	],
	"buffers":[
		{
			"byteLength":1953128,
			"uri":"obj_frame.bin"
		}
	]
}
