{
	"asset":{
		"generator":"Khronos glTF Blender I/O v4.3.47",
		"version":"2.0"
	},
	"extensionsUsed":[
		"KHR_materials_specular"
	],
	"scene":0,
	"scenes":[
		{
			"name":"Scene",
			"nodes":[
				0,
				1
			]
		}
	],
	"nodes":[
		{
			"mesh":0,
			"name":"obj_car03",
			"translation":[
				0,
				0.5,
				0
			]
		},
		{
			"mesh":1,
			"name":"obj_car03_collider",
			"translation":[
				0,
				0,
				-0.5014827847480774
			]
		}
	],
	"materials":[
		{
			"emissiveFactor":[
				0.10000000149011612,
				0.10000000149011612,
				0.10000000149011612
			],
			"emissiveTexture":{
				"index":0
			},
			"extensions":{
				"KHR_materials_specular":{
					"specularFactor":0
				}
			},
			"name":"obj_car03",
			"pbrMetallicRoughness":{
				"baseColorTexture":{
					"index":1
				},
				"metallicFactor":0
			}
		}
	],
	"meshes":[
		{
			"name":"obj_car03",
			"primitives":[
				{
					"attributes":{
						"POSITION":0,
						"NORMAL":1,
						"TEXCOORD_0":2
					},
					"indices":3,
					"material":0
				}
			]
		},
		{
			"name":"obj_car03_collider",
			"primitives":[
				{
					"attributes":{
						"POSITION":4,
						"NORMAL":5
					},
					"indices":6
				}
			]
		}
	],
	"textures":[
		{
			"sampler":0,
			"source":0
		},
		{
			"sampler":0,
			"source":0
		}
	],
	"images":[
		{
			"mimeType":"image/png",
			"name":"obj_car03",
			"uri":"textures/obj_car03.png"
		}
	],
	"accessors":[
		{
			"bufferView":0,
			"componentType":5126,
			"count":1924,
			"max":[
				0.4938931465148926,
				0.32142531871795654,
				0.47070884704589844
			],
			"min":[
				-0.49389350414276123,
				-0.5021726489067078,
				-1.4736711978912354
			],
			"type":"VEC3"
		},
		{
			"bufferView":1,
			"componentType":5126,
			"count":1924,
			"type":"VEC3"
		},
		{
			"bufferView":2,
			"componentType":5126,
			"count":1924,
			"type":"VEC2"
		},
		{
			"bufferView":3,
			"componentType":5123,
			"count":6294,
			"type":"SCALAR"
		},
		{
			"bufferView":4,
			"componentType":5126,
			"count":124,
			"max":[
				0.4914820194244385,
				0.8235979676246643,
				1.0218702554702759
			],
			"min":[
				-0.4914820194244385,
				0,
				-1.0233393907546997
			],
			"type":"VEC3"
		},
		{
			"bufferView":5,
			"componentType":5126,
			"count":124,
			"type":"VEC3"
		},
		{
			"bufferView":6,
			"componentType":5123,
			"count":204,
			"type":"SCALAR"
		}
	],
	"bufferViews":[
		{
			"buffer":0,
			"byteLength":23088,
			"byteOffset":0,
			"target":34962
		},
		{
			"buffer":0,
			"byteLength":23088,
			"byteOffset":23088,
			"target":34962
		},
		{
			"buffer":0,
			"byteLength":15392,
			"byteOffset":46176,
			"target":34962
		},
		{
			"buffer":0,
			"byteLength":12588,
			"byteOffset":61568,
			"target":34963
		},
		{
			"buffer":0,
			"byteLength":1488,
			"byteOffset":74156,
			"target":34962
		},
		{
			"buffer":0,
			"byteLength":1488,
			"byteOffset":75644,
			"target":34962
		},
		{
			"buffer":0,
			"byteLength":408,
			"byteOffset":77132,
			"target":34963
		}
	],
	"samplers":[
		{
			"magFilter":9729,
			"minFilter":9987
		}
	],
	"buffers":[
		{
			"byteLength":77540,
			"uri":"obj_car03.bin"
		}
	]
}
