{
	"asset":{
		"generator":"Khronos glTF Blender I/O v4.3.47",
		"version":"2.0"
	},
	"extensionsUsed":[
		"KHR_materials_specular",
		"KHR_materials_ior"
	],
	"scene":0,
	"scenes":[
		{
			"name":"Scene",
			"nodes":[
				0,
				1
			]
		}
	],
	"nodes":[
		{
			"mesh":0,
			"name":"obj_frame"
		},
		{
			"mesh":1,
			"name":"obj_frame_collider"
		}
	],
	"materials":[
		{
			"emissiveFactor":[
				1,
				1,
				1
			],
			"emissiveTexture":{
				"index":0
			},
			"extensions":{
				"KHR_materials_specular":{
					"specularFactor":0
				},
				"KHR_materials_ior":{
					"ior":1.4500000476837158
				}
			},
			"name":"obj_frame",
			"pbrMetallicRoughness":{
				"baseColorTexture":{
					"index":1
				},
				"metallicFactor":0
			}
		},
		{
			"emissiveFactor":[
				0.10000000149011612,
				0.10000000149011612,
				0.10000000149011612
			],
			"emissiveTexture":{
				"index":2
			},
			"extensions":{
				"KHR_materials_specular":{
					"specularFactor":0
				},
				"KHR_materials_ior":{
					"ior":1.4500000476837158
				}
			},
			"name":"obj_background",
			"pbrMetallicRoughness":{
				"baseColorTexture":{
					"index":3
				},
				"metallicFactor":0
			}
		},
		{
			"emissiveFactor":[
				1,
				1,
				1
			],
			"emissiveTexture":{
				"index":4
			},
			"extensions":{
				"KHR_materials_specular":{
					"specularFactor":0
				}
			},
			"name":"obj_wings",
			"pbrMetallicRoughness":{
				"baseColorTexture":{
					"index":5
				},
				"metallicFactor":0
			}
		},
		{
			"emissiveFactor":[
				1,
				1,
				1
			],
			"emissiveTexture":{
				"index":6
			},
			"extensions":{
				"KHR_materials_specular":{
					"specularFactor":0
				}
			},
			"name":"obj_clock",
			"pbrMetallicRoughness":{
				"baseColorTexture":{
					"index":7
				},
				"metallicFactor":0
			}
		}
	],
	"meshes":[
		{
			"name":"obj_frame",
			"primitives":[
				{
					"attributes":{
						"POSITION":0,
						"NORMAL":1,
						"TEXCOORD_0":2
					},
					"indices":3,
					"material":0
				},
				{
					"attributes":{
						"POSITION":4,
						"NORMAL":5,
						"TEXCOORD_0":6
					},
					"indices":7,
					"material":1
				},
				{
					"attributes":{
						"POSITION":8,
						"NORMAL":9,
						"TEXCOORD_0":10
					},
					"indices":11,
					"material":2
				},
				{
					"attributes":{
						"POSITION":12,
						"NORMAL":13,
						"TEXCOORD_0":14
					},
					"indices":15,
					"material":3
				}
			]
		},
		{
			"name":"obj_frame_collider",
			"primitives":[
				{
					"attributes":{
						"POSITION":16,
						"NORMAL":17
					},
					"indices":18
				}
			]
		}
	],
	"textures":[
		{
			"sampler":0,
			"source":0
		},
		{
			"sampler":0,
			"source":1
		},
		{
			"sampler":0,
			"source":2
		},
		{
			"sampler":0,
			"source":2
		},
		{
			"sampler":0,
			"source":3
		},
		{
			"sampler":0,
			"source":4
		},
		{
			"sampler":0,
			"source":5
		},
		{
			"sampler":0,
			"source":6
		}
	],
	"images":[
		{
			"mimeType":"image/jpeg",
			"name":"obj_frame_emission",
			"uri":"textures/obj_frame_emission.jpg"
		},
		{
			"mimeType":"image/jpeg",
			"name":"obj_frame",
			"uri":"textures/obj_frame.jpg"
		},
		{
			"mimeType":"image/jpeg",
			"name":"obj_background",
			"uri":"textures/obj_background.jpg"
		},
		{
			"mimeType":"image/jpeg",
			"name":"obj_wings_emission",
			"uri":"textures/obj_wings_emission.jpg"
		},
		{
			"mimeType":"image/jpeg",
			"name":"obj_wings",
			"uri":"textures/obj_wings.jpg"
		},
		{
			"mimeType":"image/jpeg",
			"name":"obj_clock_emission",
			"uri":"textures/obj_clock_emission.jpg"
		},
		{
			"mimeType":"image/jpeg",
			"name":"obj_clock",
			"uri":"textures/obj_clock.jpg"
		}
	],
	"accessors":[
		{
			"bufferView":0,
			"componentType":5126,
			"count":6600,
			"max":[
				7.041520595550537,
				3.73539662361145,
				4.670353412628174
			],
			"min":[
				-7.041521072387695,
				0.24960541725158691,
				-7.061399936676025
			],
			"type":"VEC3"
		},
		{
			"bufferView":1,
			"componentType":5126,
			"count":6600,
			"type":"VEC3"
		},
		{
			"bufferView":2,
			"componentType":5126,
			"count":6600,
			"type":"VEC2"
		},
		{
			"bufferView":3,
			"componentType":5123,
			"count":16920,
			"type":"SCALAR"
		},
		{
			"bufferView":4,
			"componentType":5126,
			"count":174,
			"max":[
				6.997621059417725,
				3.3520548343658447,
				4.533730983734131
			],
			"min":[
				-6.997621059417725,
				0.38733410835266113,
				-7.0174994468688965
			],
			"type":"VEC3"
		},
		{
			"bufferView":5,
			"componentType":5126,
			"count":174,
			"type":"VEC3"
		},
		{
			"bufferView":6,
			"componentType":5126,
			"count":174,
			"type":"VEC2"
		},
		{
			"bufferView":7,
			"componentType":5123,
			"count":612,
			"type":"SCALAR"
		},
		{
			"bufferView":8,
			"componentType":5126,
			"count":1401,
			"max":[
				7.0327677726745605,
				3.79626202583313,
				4.561500072479248
			],
			"min":[
				-7.032767295837402,
				3.3285036087036133,
				-7.052646160125732
			],
			"type":"VEC3"
		},
		{
			"bufferView":9,
			"componentType":5126,
			"count":1401,
			"type":"VEC3"
		},
		{
			"bufferView":10,
			"componentType":5126,
			"count":1401,
			"type":"VEC2"
		},
		{
			"bufferView":11,
			"componentType":5123,
			"count":3456,
			"type":"SCALAR"
		},
		{
			"bufferView":12,
			"componentType":5126,
			"count":522,
			"max":[
				7.088771343231201,
				4.05233097076416,
				3.7757256031036377
			],
			"min":[
				-7.088771820068359,
				3.1822562217712402,
				-7.1086506843566895
			],
			"type":"VEC3"
		},
		{
			"bufferView":13,
			"componentType":5126,
			"count":522,
			"type":"VEC3"
		},
		{
			"bufferView":14,
			"componentType":5126,
			"count":522,
			"type":"VEC2"
		},
		{
			"bufferView":15,
			"componentType":5123,
			"count":1404,
			"type":"SCALAR"
		},
		{
			"bufferView":16,
			"componentType":5126,
			"count":402,
			"max":[
				7.092599868774414,
				4.048530101776123,
				4.669409275054932
			],
			"min":[
				-7.092598915100098,
				0.24960732460021973,
				-7.112477779388428
			],
			"type":"VEC3"
		},
		{
			"bufferView":17,
			"componentType":5126,
			"count":402,
			"type":"VEC3"
		},
		{
			"bufferView":18,
			"componentType":5123,
			"count":558,
			"type":"SCALAR"
		}
	],
	"bufferViews":[
		{
			"buffer":0,
			"byteLength":79200,
			"byteOffset":0,
			"target":34962
		},
		{
			"buffer":0,
			"byteLength":79200,
			"byteOffset":79200,
			"target":34962
		},
		{
			"buffer":0,
			"byteLength":52800,
			"byteOffset":158400,
			"target":34962
		},
		{
			"buffer":0,
			"byteLength":33840,
			"byteOffset":211200,
			"target":34963
		},
		{
			"buffer":0,
			"byteLength":2088,
			"byteOffset":245040,
			"target":34962
		},
		{
			"buffer":0,
			"byteLength":2088,
			"byteOffset":247128,
			"target":34962
		},
		{
			"buffer":0,
			"byteLength":1392,
			"byteOffset":249216,
			"target":34962
		},
		{
			"buffer":0,
			"byteLength":1224,
			"byteOffset":250608,
			"target":34963
		},
		{
			"buffer":0,
			"byteLength":16812,
			"byteOffset":251832,
			"target":34962
		},
		{
			"buffer":0,
			"byteLength":16812,
			"byteOffset":268644,
			"target":34962
		},
		{
			"buffer":0,
			"byteLength":11208,
			"byteOffset":285456,
			"target":34962
		},
		{
			"buffer":0,
			"byteLength":6912,
			"byteOffset":296664,
			"target":34963
		},
		{
			"buffer":0,
			"byteLength":6264,
			"byteOffset":303576,
			"target":34962
		},
		{
			"buffer":0,
			"byteLength":6264,
			"byteOffset":309840,
			"target":34962
		},
		{
			"buffer":0,
			"byteLength":4176,
			"byteOffset":316104,
			"target":34962
		},
		{
			"buffer":0,
			"byteLength":2808,
			"byteOffset":320280,
			"target":34963
		},
		{
			"buffer":0,
			"byteLength":4824,
			"byteOffset":323088,
			"target":34962
		},
		{
			"buffer":0,
			"byteLength":4824,
			"byteOffset":327912,
			"target":34962
		},
		{
			"buffer":0,
			"byteLength":1116,
			"byteOffset":332736,
			"target":34963
		}
	],
	"samplers":[
		{
			"magFilter":9729,
			"minFilter":9987
		}
	],
	"buffers":[
		{
			"byteLength":333852,
			"uri":"obj_frame.bin"
		}
	]
}
