{
	"asset":{
		"generator":"Khronos glTF Blender I/O v4.2.57",
		"version":"2.0"
	},
	"scene":0,
	"scenes":[
		{
			"name":"Scene",
			"nodes":[
				0,
				1
			]
		}
	],
	"nodes":[
		{
			"mesh":0,
			"name":"obj_lamp"
		},
		{
			"mesh":1,
			"name":"obj_lamp_collider"
		}
	],
	"materials":[
		{
			"doubleSided":true,
			"name":"obj_lamp",
			"pbrMetallicRoughness":{
				"baseColorTexture":{
					"index":0
				},
				"metallicFactor":0
			}
		},
		{
			"doubleSided":true,
			"emissiveFactor":[
				1,
				0.6866855025291443,
				0.2874409258365631
			],
			"name":"obj_emission01",
			"pbrMetallicRoughness":{
				"baseColorFactor":[
					1,
					0.6880671381950378,
					0.2889302968978882,
					1
				],
				"metallicFactor":0
			}
		}
	],
	"meshes":[
		{
			"name":"Mesh.014",
			"primitives":[
				{
					"attributes":{
						"POSITION":0,
						"NORMAL":1,
						"TEXCOORD_0":2
					},
					"indices":3,
					"material":0
				},
				{
					"attributes":{
						"POSITION":4,
						"NORMAL":5,
						"TEXCOORD_0":6
					},
					"indices":7,
					"material":1
				}
			]
		},
		{
			"name":"Mesh.015",
			"primitives":[
				{
					"attributes":{
						"POSITION":8,
						"NORMAL":9,
						"TEXCOORD_0":10
					},
					"indices":11
				}
			]
		}
	],
	"textures":[
		{
			"sampler":0,
			"source":0
		}
	],
	"images":[
		{
			"mimeType":"image/jpeg",
			"name":"obj_lamp",
			"uri":"textures/obj_lamp.jpg"
		}
	],
	"accessors":[
		{
			"bufferView":0,
			"componentType":5126,
			"count":2456,
			"max":[
				7.7633867263793945,
				2.6059069633483887,
				0.19727563858032227
			],
			"min":[
				-7.764301776885986,
				0.07212962955236435,
				-7.768972873687744
			],
			"type":"VEC3"
		},
		{
			"bufferView":1,
			"componentType":5126,
			"count":2456,
			"type":"VEC3"
		},
		{
			"bufferView":2,
			"componentType":5126,
			"count":2456,
			"type":"VEC2"
		},
		{
			"bufferView":3,
			"componentType":5123,
			"count":7800,
			"type":"SCALAR"
		},
		{
			"bufferView":4,
			"componentType":5126,
			"count":48,
			"max":[
				6.964626312255859,
				2.1530237197875977,
				-0.23594141006469727
			],
			"min":[
				-6.984410762786865,
				2.0299487113952637,
				-7.335755825042725
			],
			"type":"VEC3"
		},
		{
			"bufferView":5,
			"componentType":5126,
			"count":48,
			"type":"VEC3"
		},
		{
			"bufferView":6,
			"componentType":5126,
			"count":48,
			"type":"VEC2"
		},
		{
			"bufferView":7,
			"componentType":5123,
			"count":120,
			"type":"SCALAR"
		},
		{
			"bufferView":8,
			"componentType":5126,
			"count":2504,
			"max":[
				7.7633867263793945,
				2.6059069633483887,
				0.19727563858032227
			],
			"min":[
				-7.764301776885986,
				0.07212962955236435,
				-7.768972873687744
			],
			"type":"VEC3"
		},
		{
			"bufferView":9,
			"componentType":5126,
			"count":2504,
			"type":"VEC3"
		},
		{
			"bufferView":10,
			"componentType":5126,
			"count":2504,
			"type":"VEC2"
		},
		{
			"bufferView":11,
			"componentType":5123,
			"count":7920,
			"type":"SCALAR"
		}
	],
	"bufferViews":[
		{
			"buffer":0,
			"byteLength":29472,
			"byteOffset":0,
			"target":34962
		},
		{
			"buffer":0,
			"byteLength":29472,
			"byteOffset":29472,
			"target":34962
		},
		{
			"buffer":0,
			"byteLength":19648,
			"byteOffset":58944,
			"target":34962
		},
		{
			"buffer":0,
			"byteLength":15600,
			"byteOffset":78592,
			"target":34963
		},
		{
			"buffer":0,
			"byteLength":576,
			"byteOffset":94192,
			"target":34962
		},
		{
			"buffer":0,
			"byteLength":576,
			"byteOffset":94768,
			"target":34962
		},
		{
			"buffer":0,
			"byteLength":384,
			"byteOffset":95344,
			"target":34962
		},
		{
			"buffer":0,
			"byteLength":240,
			"byteOffset":95728,
			"target":34963
		},
		{
			"buffer":0,
			"byteLength":30048,
			"byteOffset":95968,
			"target":34962
		},
		{
			"buffer":0,
			"byteLength":30048,
			"byteOffset":126016,
			"target":34962
		},
		{
			"buffer":0,
			"byteLength":20032,
			"byteOffset":156064,
			"target":34962
		},
		{
			"buffer":0,
			"byteLength":15840,
			"byteOffset":176096,
			"target":34963
		}
	],
	"samplers":[
		{
			"magFilter":9729,
			"minFilter":9987
		}
	],
	"buffers":[
		{
			"byteLength":191936,
			"uri":"obj_lamp.bin"
		}
	]
}
