{
	"asset":{
		"generator":"Khronos glTF Blender I/O v4.2.57",
		"version":"2.0"
	},
	"scene":0,
	"scenes":[
		{
			"name":"Scene",
			"nodes":[
				0
			]
		}
	],
	"nodes":[
		{
			"mesh":0,
			"name":"obj_car02",
			"rotation":[
				0,
				-0.7071068286895752,
				0,
				0.7071068286895752
			],
			"scale":[
				0.375,
				0.375,
				0.375
			],
			"translation":[
				0,
				0,
				0.375
			]
		}
	],
	"materials":[
		{
			"doubleSided":true,
			"name":"Car.002",
			"pbrMetallicRoughness":{
				"baseColorTexture":{
					"index":0
				},
				"metallicFactor":0
			}
		},
		{
			"doubleSided":true,
			"name":"Car2.001",
			"pbrMetallicRoughness":{
				"baseColorTexture":{
					"index":1
				},
				"metallicFactor":0
			}
		},
		{
			"alphaMode":"BLEND",
			"doubleSided":true,
			"name":"Car.003",
			"pbrMetallicRoughness":{
				"baseColorFactor":[
					1,
					1,
					1,
					0.6224489808082581
				],
				"baseColorTexture":{
					"index":2
				},
				"metallicFactor":0
			}
		}
	],
	"meshes":[
		{
			"name":"Cube.050",
			"primitives":[
				{
					"attributes":{
						"POSITION":0,
						"NORMAL":1,
						"TEXCOORD_0":2
					},
					"indices":3,
					"material":0
				},
				{
					"attributes":{
						"POSITION":4,
						"NORMAL":5,
						"TEXCOORD_0":6
					},
					"indices":7,
					"material":1
				},
				{
					"attributes":{
						"POSITION":8,
						"NORMAL":9,
						"TEXCOORD_0":10
					},
					"indices":11,
					"material":2
				}
			]
		}
	],
	"textures":[
		{
			"sampler":0,
			"source":0
		},
		{
			"sampler":0,
			"source":1
		},
		{
			"sampler":0,
			"source":2
		}
	],
	"images":[
		{
			"mimeType":"image/jpeg",
			"name":"1",
			"uri":"textures/1.jpg"
		},
		{
			"mimeType":"image/jpeg",
			"name":"2",
			"uri":"textures/2.jpg"
		},
		{
			"mimeType":"image/png",
			"name":"2",
			"uri":"textures/2.png"
		}
	],
	"accessors":[
		{
			"bufferView":0,
			"componentType":5126,
			"count":544,
			"max":[
				0.9550538063049316,
				0.9840072393417358,
				0.8686529994010925
			],
			"min":[
				-2.954660415649414,
				0.18621300160884857,
				-0.8473491668701172
			],
			"type":"VEC3"
		},
		{
			"bufferView":1,
			"componentType":5126,
			"count":544,
			"type":"VEC3"
		},
		{
			"bufferView":2,
			"componentType":5126,
			"count":544,
			"type":"VEC2"
		},
		{
			"bufferView":3,
			"componentType":5123,
			"count":1740,
			"type":"SCALAR"
		},
		{
			"bufferView":4,
			"componentType":5126,
			"count":1929,
			"max":[
				0.7871081829071045,
				1.3486055135726929,
				0.8538026213645935
			],
			"min":[
				-2.9386069774627686,
				-0.03039497509598732,
				-0.8459787368774414
			],
			"type":"VEC3"
		},
		{
			"bufferView":5,
			"componentType":5126,
			"count":1929,
			"type":"VEC3"
		},
		{
			"bufferView":6,
			"componentType":5126,
			"count":1929,
			"type":"VEC2"
		},
		{
			"bufferView":7,
			"componentType":5123,
			"count":6696,
			"type":"SCALAR"
		},
		{
			"bufferView":8,
			"componentType":5126,
			"count":44,
			"max":[
				-0.5235297679901123,
				1.3075592517852783,
				0.6613236665725708
			],
			"min":[
				-0.8859604597091675,
				0.9689316153526306,
				-0.6595034003257751
			],
			"type":"VEC3"
		},
		{
			"bufferView":9,
			"componentType":5126,
			"count":44,
			"type":"VEC3"
		},
		{
			"bufferView":10,
			"componentType":5126,
			"count":44,
			"type":"VEC2"
		},
		{
			"bufferView":11,
			"componentType":5123,
			"count":120,
			"type":"SCALAR"
		}
	],
	"bufferViews":[
		{
			"buffer":0,
			"byteLength":6528,
			"byteOffset":0,
			"target":34962
		},
		{
			"buffer":0,
			"byteLength":6528,
			"byteOffset":6528,
			"target":34962
		},
		{
			"buffer":0,
			"byteLength":4352,
			"byteOffset":13056,
			"target":34962
		},
		{
			"buffer":0,
			"byteLength":3480,
			"byteOffset":17408,
			"target":34963
		},
		{
			"buffer":0,
			"byteLength":23148,
			"byteOffset":20888,
			"target":34962
		},
		{
			"buffer":0,
			"byteLength":23148,
			"byteOffset":44036,
			"target":34962
		},
		{
			"buffer":0,
			"byteLength":15432,
			"byteOffset":67184,
			"target":34962
		},
		{
			"buffer":0,
			"byteLength":13392,
			"byteOffset":82616,
			"target":34963
		},
		{
			"buffer":0,
			"byteLength":528,
			"byteOffset":96008,
			"target":34962
		},
		{
			"buffer":0,
			"byteLength":528,
			"byteOffset":96536,
			"target":34962
		},
		{
			"buffer":0,
			"byteLength":352,
			"byteOffset":97064,
			"target":34962
		},
		{
			"buffer":0,
			"byteLength":240,
			"byteOffset":97416,
			"target":34963
		}
	],
	"samplers":[
		{
			"magFilter":9729,
			"minFilter":9987
		}
	],
	"buffers":[
		{
			"byteLength":97656,
			"uri":"obj_car02.bin"
		}
	]
}
