{
	"asset":{
		"generator":"Khronos glTF Blender I/O v4.2.57",
		"version":"2.0"
	},
	"extensionsUsed":[
		"KHR_materials_specular"
	],
	"scene":0,
	"scenes":[
		{
			"name":"Scene",
			"nodes":[
				0,
				1
			]
		}
	],
	"nodes":[
		{
			"mesh":0,
			"name":"obj_car01",
			"translation":[
				0,
				0.5,
				0
			]
		},
		{
			"mesh":1,
			"name":"obj_car01_collider",
			"translation":[
				0,
				0.5,
				0
			]
		}
	],
	"materials":[
		{
			"doubleSided":true,
			"extensions":{
				"KHR_materials_specular":{
					"specularFactor":0
				}
			},
			"name":"obj_car01",
			"pbrMetallicRoughness":{
				"baseColorTexture":{
					"index":0
				},
				"metallicFactor":0
			}
		}
	],
	"meshes":[
		{
			"name":"Cube",
			"primitives":[
				{
					"attributes":{
						"POSITION":0,
						"NORMAL":1,
						"TEXCOORD_0":2
					},
					"indices":3,
					"material":0
				}
			]
		},
		{
			"name":"Cube.002",
			"primitives":[
				{
					"attributes":{
						"POSITION":4,
						"NORMAL":5,
						"TEXCOORD_0":6
					},
					"indices":3
				}
			]
		}
	],
	"textures":[
		{
			"sampler":0,
			"source":0
		}
	],
	"images":[
		{
			"mimeType":"image/png",
			"name":"obj_car01",
			"uri":"textures/obj_car01.png"
		}
	],
	"accessors":[
		{
			"bufferView":0,
			"componentType":5126,
			"count":1869,
			"max":[
				0.5045239925384521,
				0.28600800037384033,
				0.4699409008026123
			],
			"min":[
				-0.5045239925384521,
				-0.5019930601119995,
				-2.4803929328918457
			],
			"type":"VEC3"
		},
		{
			"bufferView":1,
			"componentType":5126,
			"count":1869,
			"type":"VEC3"
		},
		{
			"bufferView":2,
			"componentType":5126,
			"count":1869,
			"type":"VEC2"
		},
		{
			"bufferView":3,
			"componentType":5123,
			"count":6234,
			"type":"SCALAR"
		},
		{
			"bufferView":4,
			"componentType":5126,
			"count":1869,
			"max":[
				0.5045239925384521,
				0.28600800037384033,
				0.4699409008026123
			],
			"min":[
				-0.5045239925384521,
				-0.5019930601119995,
				-2.4803929328918457
			],
			"type":"VEC3"
		},
		{
			"bufferView":5,
			"componentType":5126,
			"count":1869,
			"type":"VEC3"
		},
		{
			"bufferView":6,
			"componentType":5126,
			"count":1869,
			"type":"VEC2"
		}
	],
	"bufferViews":[
		{
			"buffer":0,
			"byteLength":22428,
			"byteOffset":0,
			"target":34962
		},
		{
			"buffer":0,
			"byteLength":22428,
			"byteOffset":22428,
			"target":34962
		},
		{
			"buffer":0,
			"byteLength":14952,
			"byteOffset":44856,
			"target":34962
		},
		{
			"buffer":0,
			"byteLength":12468,
			"byteOffset":59808,
			"target":34963
		},
		{
			"buffer":0,
			"byteLength":22428,
			"byteOffset":72276,
			"target":34962
		},
		{
			"buffer":0,
			"byteLength":22428,
			"byteOffset":94704,
			"target":34962
		},
		{
			"buffer":0,
			"byteLength":14952,
			"byteOffset":117132,
			"target":34962
		}
	],
	"samplers":[
		{
			"magFilter":9729,
			"minFilter":9987
		}
	],
	"buffers":[
		{
			"byteLength":132084,
			"uri":"obj_car01.bin"
		}
	]
}
