{
	"asset":{
		"generator":"Khronos glTF Blender I/O v4.2.57",
		"version":"2.0"
	},
	"extensionsUsed":[
		"KHR_materials_specular"
	],
	"scene":0,
	"scenes":[
		{
			"name":"Scene",
			"nodes":[
				0,
				1
			]
		}
	],
	"nodes":[
		{
			"mesh":0,
			"name":"obj_cars"
		},
		{
			"mesh":1,
			"name":"obj_cars_collider"
		}
	],
	"materials":[
		{
			"doubleSided":true,
			"extensions":{
				"KHR_materials_specular":{
					"specularFactor":0
				}
			},
			"name":"obj_car03",
			"pbrMetallicRoughness":{
				"baseColorTexture":{
					"index":0
				},
				"metallicFactor":0
			}
		}
	],
	"meshes":[
		{
			"name":"Cube.038",
			"primitives":[
				{
					"attributes":{
						"POSITION":0,
						"NORMAL":1,
						"TEXCOORD_0":2
					},
					"indices":3,
					"material":0
				}
			]
		},
		{
			"name":"Cube.039",
			"primitives":[
				{
					"attributes":{
						"POSITION":4,
						"NORMAL":5,
						"TEXCOORD_0":6
					},
					"indices":3,
					"material":0
				}
			]
		}
	],
	"textures":[
		{
			"sampler":0,
			"source":0
		}
	],
	"images":[
		{
			"mimeType":"image/png",
			"name":"obj_car03",
			"uri":"textures/obj_car03.png"
		}
	],
	"accessors":[
		{
			"bufferView":0,
			"componentType":5126,
			"count":7696,
			"max":[
				7.093493461608887,
				1.0780469179153442,
				6.268970489501953
			],
			"min":[
				-7.099475860595703,
				0.04611843824386597,
				0.5450155735015869
			],
			"type":"VEC3"
		},
		{
			"bufferView":1,
			"componentType":5126,
			"count":7696,
			"type":"VEC3"
		},
		{
			"bufferView":2,
			"componentType":5126,
			"count":7696,
			"type":"VEC2"
		},
		{
			"bufferView":3,
			"componentType":5123,
			"count":25176,
			"type":"SCALAR"
		},
		{
			"bufferView":4,
			"componentType":5126,
			"count":7696,
			"max":[
				7.093493461608887,
				1.0780469179153442,
				6.268970489501953
			],
			"min":[
				-7.099475860595703,
				0.04611843824386597,
				0.5450155735015869
			],
			"type":"VEC3"
		},
		{
			"bufferView":5,
			"componentType":5126,
			"count":7696,
			"type":"VEC3"
		},
		{
			"bufferView":6,
			"componentType":5126,
			"count":7696,
			"type":"VEC2"
		}
	],
	"bufferViews":[
		{
			"buffer":0,
			"byteLength":92352,
			"byteOffset":0,
			"target":34962
		},
		{
			"buffer":0,
			"byteLength":92352,
			"byteOffset":92352,
			"target":34962
		},
		{
			"buffer":0,
			"byteLength":61568,
			"byteOffset":184704,
			"target":34962
		},
		{
			"buffer":0,
			"byteLength":50352,
			"byteOffset":246272,
			"target":34963
		},
		{
			"buffer":0,
			"byteLength":92352,
			"byteOffset":296624,
			"target":34962
		},
		{
			"buffer":0,
			"byteLength":92352,
			"byteOffset":388976,
			"target":34962
		},
		{
			"buffer":0,
			"byteLength":61568,
			"byteOffset":481328,
			"target":34962
		}
	],
	"samplers":[
		{
			"magFilter":9729,
			"minFilter":9987
		}
	],
	"buffers":[
		{
			"byteLength":542896,
			"uri":"obj_cars.bin"
		}
	]
}
