{
	"asset":{
		"generator":"Khronos glTF Blender I/O v4.2.57",
		"version":"2.0"
	},
	"extensionsUsed":[
		"KHR_materials_specular"
	],
	"scene":0,
	"scenes":[
		{
			"name":"Scene",
			"nodes":[
				0
			]
		}
	],
	"nodes":[
		{
			"mesh":0,
			"name":"obj_text"
		}
	],
	"materials":[
		{
			"alphaMode":"MASK",
			"doubleSided":true,
			"extensions":{
				"KHR_materials_specular":{
					"specularFactor":0
				}
			},
			"name":"obj_text01",
			"pbrMetallicRoughness":{
				"baseColorFactor":[
					0.7379237413406372,
					0.03954564034938812,
					0.04373428598046303,
					1
				],
				"baseColorTexture":{
					"index":0
				},
				"metallicFactor":0
			}
		},
		{
			"alphaMode":"MASK",
			"extensions":{
				"KHR_materials_specular":{
					"specularFactor":0
				}
			},
			"name":"obj_text02",
			"pbrMetallicRoughness":{
				"baseColorTexture":{
					"index":1
				},
				"metallicFactor":0
			}
		},
		{
			"doubleSided":true,
			"extensions":{
				"KHR_materials_specular":{
					"specularFactor":0
				}
			},
			"name":"obj_text03",
			"pbrMetallicRoughness":{
				"baseColorFactor":[
					0.7379237413406372,
					0.03954564034938812,
					0.04373428598046303,
					1
				],
				"metallicFactor":0
			}
		}
	],
	"meshes":[
		{
			"name":"Plane.008",
			"primitives":[
				{
					"attributes":{
						"POSITION":0,
						"NORMAL":1,
						"TEXCOORD_0":2
					},
					"indices":3,
					"material":0
				},
				{
					"attributes":{
						"POSITION":4,
						"NORMAL":5,
						"TEXCOORD_0":6
					},
					"indices":7,
					"material":1
				},
				{
					"attributes":{
						"POSITION":8,
						"NORMAL":9,
						"TEXCOORD_0":10
					},
					"indices":11,
					"material":2
				}
			]
		}
	],
	"textures":[
		{
			"sampler":0,
			"source":0
		},
		{
			"sampler":0,
			"source":1
		}
	],
	"images":[
		{
			"mimeType":"image/png",
			"name":"obj_text01",
			"uri":"textures/obj_text01.png"
		},
		{
			"mimeType":"image/png",
			"name":"obj_text02",
			"uri":"textures/obj_text02.png"
		}
	],
	"accessors":[
		{
			"bufferView":0,
			"componentType":5126,
			"count":4,
			"max":[
				-6.92179012298584,
				2.4650166034698486,
				4.553231239318848
			],
			"min":[
				-6.92179012298584,
				0.360867977142334,
				2.2607531547546387
			],
			"type":"VEC3"
		},
		{
			"bufferView":1,
			"componentType":5126,
			"count":4,
			"type":"VEC3"
		},
		{
			"bufferView":2,
			"componentType":5126,
			"count":4,
			"type":"VEC2"
		},
		{
			"bufferView":3,
			"componentType":5123,
			"count":6,
			"type":"SCALAR"
		},
		{
			"bufferView":4,
			"componentType":5126,
			"count":16,
			"max":[
				1.09714937210083,
				0.07448279112577438,
				6.093242645263672
			],
			"min":[
				-1.0971498489379883,
				0.0468849241733551,
				-1.0953400135040283
			],
			"type":"VEC3"
		},
		{
			"bufferView":5,
			"componentType":5126,
			"count":16,
			"type":"VEC3"
		},
		{
			"bufferView":6,
			"componentType":5126,
			"count":16,
			"type":"VEC2"
		},
		{
			"bufferView":7,
			"componentType":5123,
			"count":24,
			"type":"SCALAR"
		},
		{
			"bufferView":8,
			"componentType":5126,
			"count":745,
			"max":[
				6.920620918273926,
				3.2028276920318604,
				4.121727466583252
			],
			"min":[
				-6.920616149902344,
				2.897310733795166,
				-6.936429977416992
			],
			"type":"VEC3"
		},
		{
			"bufferView":9,
			"componentType":5126,
			"count":745,
			"type":"VEC3"
		},
		{
			"bufferView":10,
			"componentType":5126,
			"count":745,
			"type":"VEC2"
		},
		{
			"bufferView":11,
			"componentType":5123,
			"count":1623,
			"type":"SCALAR"
		}
	],
	"bufferViews":[
		{
			"buffer":0,
			"byteLength":48,
			"byteOffset":0,
			"target":34962
		},
		{
			"buffer":0,
			"byteLength":48,
			"byteOffset":48,
			"target":34962
		},
		{
			"buffer":0,
			"byteLength":32,
			"byteOffset":96,
			"target":34962
		},
		{
			"buffer":0,
			"byteLength":12,
			"byteOffset":128,
			"target":34963
		},
		{
			"buffer":0,
			"byteLength":192,
			"byteOffset":140,
			"target":34962
		},
		{
			"buffer":0,
			"byteLength":192,
			"byteOffset":332,
			"target":34962
		},
		{
			"buffer":0,
			"byteLength":128,
			"byteOffset":524,
			"target":34962
		},
		{
			"buffer":0,
			"byteLength":48,
			"byteOffset":652,
			"target":34963
		},
		{
			"buffer":0,
			"byteLength":8940,
			"byteOffset":700,
			"target":34962
		},
		{
			"buffer":0,
			"byteLength":8940,
			"byteOffset":9640,
			"target":34962
		},
		{
			"buffer":0,
			"byteLength":5960,
			"byteOffset":18580,
			"target":34962
		},
		{
			"buffer":0,
			"byteLength":3246,
			"byteOffset":24540,
			"target":34963
		}
	],
	"samplers":[
		{
			"magFilter":9729,
			"minFilter":9987
		}
	],
	"buffers":[
		{
			"byteLength":27788,
			"uri":"obj_text.bin"
		}
	]
}
