{
	"asset":{
		"generator":"Khronos glTF Blender I/O v4.2.57",
		"version":"2.0"
	},
	"extensionsUsed":[
		"KHR_materials_specular"
	],
	"scene":0,
	"scenes":[
		{
			"name":"Scene",
			"nodes":[
				0,
				1
			]
		}
	],
	"nodes":[
		{
			"mesh":0,
			"name":"obj_grid"
		},
		{
			"mesh":1,
			"name":"obj_grid_collider"
		}
	],
	"materials":[
		{
			"alphaMode":"BLEND",
			"doubleSided":true,
			"extensions":{
				"KHR_materials_specular":{
					"specularFactor":0
				}
			},
			"name":"obj_grid",
			"pbrMetallicRoughness":{
				"baseColorTexture":{
					"index":0
				},
				"metallicFactor":0
			}
		},
		{
			"doubleSided":true,
			"name":"obj_stripes",
			"pbrMetallicRoughness":{
				"metallicFactor":0
			}
		}
	],
	"meshes":[
		{
			"name":"Plane.004",
			"primitives":[
				{
					"attributes":{
						"POSITION":0,
						"NORMAL":1,
						"TEXCOORD_0":2
					},
					"indices":3,
					"material":0
				},
				{
					"attributes":{
						"POSITION":4,
						"NORMAL":5,
						"TEXCOORD_0":6
					},
					"indices":7,
					"material":1
				}
			]
		},
		{
			"name":"Plane.002",
			"primitives":[
				{
					"attributes":{
						"POSITION":8,
						"NORMAL":9,
						"TEXCOORD_0":10
					},
					"indices":11
				}
			]
		}
	],
	"textures":[
		{
			"sampler":0,
			"source":0
		}
	],
	"images":[
		{
			"mimeType":"image/png",
			"name":"obj_grid",
			"uri":"textures/obj_grid.png"
		}
	],
	"accessors":[
		{
			"bufferView":0,
			"componentType":5126,
			"count":152,
			"max":[
				4.330730438232422,
				0.00709475576877594,
				-1.1874103546142578
			],
			"min":[
				-2.598438262939453,
				0.00709475576877594,
				-6.384286880493164
			],
			"type":"VEC3"
		},
		{
			"bufferView":1,
			"componentType":5126,
			"count":152,
			"type":"VEC3"
		},
		{
			"bufferView":2,
			"componentType":5126,
			"count":152,
			"type":"VEC2"
		},
		{
			"bufferView":3,
			"componentType":5123,
			"count":228,
			"type":"SCALAR"
		},
		{
			"bufferView":4,
			"componentType":5126,
			"count":420,
			"max":[
				4.005162715911865,
				0.018526716157794,
				-1.3277640342712402
			],
			"min":[
				-4.005162239074707,
				-0.0022871745750308037,
				-6.24636173248291
			],
			"type":"VEC3"
		},
		{
			"bufferView":5,
			"componentType":5126,
			"count":420,
			"type":"VEC3"
		},
		{
			"bufferView":6,
			"componentType":5126,
			"count":420,
			"type":"VEC2"
		},
		{
			"bufferView":7,
			"componentType":5123,
			"count":630,
			"type":"SCALAR"
		},
		{
			"bufferView":8,
			"componentType":5126,
			"count":444,
			"max":[
				4.005162715911865,
				10.206844329833984,
				-1.1874103546142578
			],
			"min":[
				-4.005162239074707,
				-0.0022871745750308037,
				-6.384286880493164
			],
			"type":"VEC3"
		},
		{
			"bufferView":9,
			"componentType":5126,
			"count":444,
			"type":"VEC3"
		},
		{
			"bufferView":10,
			"componentType":5126,
			"count":444,
			"type":"VEC2"
		},
		{
			"bufferView":11,
			"componentType":5123,
			"count":666,
			"type":"SCALAR"
		}
	],
	"bufferViews":[
		{
			"buffer":0,
			"byteLength":1824,
			"byteOffset":0,
			"target":34962
		},
		{
			"buffer":0,
			"byteLength":1824,
			"byteOffset":1824,
			"target":34962
		},
		{
			"buffer":0,
			"byteLength":1216,
			"byteOffset":3648,
			"target":34962
		},
		{
			"buffer":0,
			"byteLength":456,
			"byteOffset":4864,
			"target":34963
		},
		{
			"buffer":0,
			"byteLength":5040,
			"byteOffset":5320,
			"target":34962
		},
		{
			"buffer":0,
			"byteLength":5040,
			"byteOffset":10360,
			"target":34962
		},
		{
			"buffer":0,
			"byteLength":3360,
			"byteOffset":15400,
			"target":34962
		},
		{
			"buffer":0,
			"byteLength":1260,
			"byteOffset":18760,
			"target":34963
		},
		{
			"buffer":0,
			"byteLength":5328,
			"byteOffset":20020,
			"target":34962
		},
		{
			"buffer":0,
			"byteLength":5328,
			"byteOffset":25348,
			"target":34962
		},
		{
			"buffer":0,
			"byteLength":3552,
			"byteOffset":30676,
			"target":34962
		},
		{
			"buffer":0,
			"byteLength":1332,
			"byteOffset":34228,
			"target":34963
		}
	],
	"samplers":[
		{
			"magFilter":9729,
			"minFilter":9987
		}
	],
	"buffers":[
		{
			"byteLength":35560,
			"uri":"obj_grid.bin"
		}
	]
}
