{
	"asset":{
		"generator":"Khronos glTF Blender I/O v4.3.47",
		"version":"2.0"
	},
	"extensionsUsed":[
		"KHR_materials_specular",
		"KHR_materials_ior"
	],
	"scene":0,
	"scenes":[
		{
			"name":"Scene",
			"nodes":[
				0,
				1
			]
		}
	],
	"nodes":[
		{
			"mesh":0,
			"name":"obj_bench_collider"
		},
		{
			"mesh":1,
			"name":"obj_bench"
		}
	],
	"materials":[
		{
			"emissiveFactor":[
				0.10000000149011612,
				0.10000000149011612,
				0.10000000149011612
			],
			"emissiveTexture":{
				"index":0
			},
			"extensions":{
				"KHR_materials_specular":{
					"specularFactor":0
				},
				"KHR_materials_ior":{
					"ior":1.4500000476837158
				}
			},
			"name":"obj_bench",
			"pbrMetallicRoughness":{
				"baseColorTexture":{
					"index":1
				},
				"metallicFactor":0
			}
		}
	],
	"meshes":[
		{
			"name":"obj_bench_collider",
			"primitives":[
				{
					"attributes":{
						"POSITION":0,
						"NORMAL":1
					},
					"indices":2
				}
			]
		},
		{
			"name":"obj_bench",
			"primitives":[
				{
					"attributes":{
						"POSITION":3,
						"NORMAL":4,
						"TEXCOORD_0":5
					},
					"indices":6,
					"material":0
				}
			]
		}
	],
	"textures":[
		{
			"sampler":0,
			"source":0
		},
		{
			"sampler":0,
			"source":0
		}
	],
	"images":[
		{
			"mimeType":"image/jpeg",
			"name":"obj_bench",
			"uri":"textures/obj_bench.jpg"
		}
	],
	"accessors":[
		{
			"bufferView":0,
			"componentType":5126,
			"count":108,
			"max":[
				4.264519691467285,
				1.0082042217254639,
				1.3632909059524536
			],
			"min":[
				-4.267836570739746,
				-0.01340009830892086,
				0.8119546175003052
			],
			"type":"VEC3"
		},
		{
			"bufferView":1,
			"componentType":5126,
			"count":108,
			"type":"VEC3"
		},
		{
			"bufferView":2,
			"componentType":5123,
			"count":180,
			"type":"SCALAR"
		},
		{
			"bufferView":3,
			"componentType":5126,
			"count":858,
			"max":[
				4.267167091369629,
				1.0082042217254639,
				1.3632909059524536
			],
			"min":[
				-4.267167091369629,
				-0.01340009830892086,
				0.8119546175003052
			],
			"type":"VEC3"
		},
		{
			"bufferView":4,
			"componentType":5126,
			"count":858,
			"type":"VEC3"
		},
		{
			"bufferView":5,
			"componentType":5126,
			"count":858,
			"type":"VEC2"
		},
		{
			"bufferView":6,
			"componentType":5123,
			"count":1854,
			"type":"SCALAR"
		}
	],
	"bufferViews":[
		{
			"buffer":0,
			"byteLength":1296,
			"byteOffset":0,
			"target":34962
		},
		{
			"buffer":0,
			"byteLength":1296,
			"byteOffset":1296,
			"target":34962
		},
		{
			"buffer":0,
			"byteLength":360,
			"byteOffset":2592,
			"target":34963
		},
		{
			"buffer":0,
			"byteLength":10296,
			"byteOffset":2952,
			"target":34962
		},
		{
			"buffer":0,
			"byteLength":10296,
			"byteOffset":13248,
			"target":34962
		},
		{
			"buffer":0,
			"byteLength":6864,
			"byteOffset":23544,
			"target":34962
		},
		{
			"buffer":0,
			"byteLength":3708,
			"byteOffset":30408,
			"target":34963
		}
	],
	"samplers":[
		{
			"magFilter":9729,
			"minFilter":9987
		}
	],
	"buffers":[
		{
			"byteLength":34116,
			"uri":"obj_bench.bin"
		}
	]
}
