{
	"asset":{
		"generator":"Khronos glTF Blender I/O v4.2.57",
		"version":"2.0"
	},
	"scene":0,
	"scenes":[
		{
			"name":"Scene",
			"nodes":[
				0,
				1
			]
		}
	],
	"nodes":[
		{
			"mesh":0,
			"name":"obj_ground"
		},
		{
			"mesh":1,
			"name":"obj_ground_collider"
		}
	],
	"materials":[
		{
			"doubleSided":true,
			"name":"obj_road01",
			"pbrMetallicRoughness":{
				"baseColorTexture":{
					"index":0
				},
				"metallicFactor":0
			}
		},
		{
			"doubleSided":true,
			"name":"obj_border01",
			"pbrMetallicRoughness":{
				"baseColorTexture":{
					"index":1
				},
				"metallicFactor":0
			}
		},
		{
			"doubleSided":true,
			"name":"obj_border02",
			"pbrMetallicRoughness":{
				"baseColorTexture":{
					"index":2
				},
				"metallicFactor":0
			}
		},
		{
			"doubleSided":true,
			"name":"obj_road02",
			"pbrMetallicRoughness":{
				"baseColorTexture":{
					"index":3
				},
				"metallicFactor":0
			}
		}
	],
	"meshes":[
		{
			"name":"Plane.001",
			"primitives":[
				{
					"attributes":{
						"POSITION":0,
						"NORMAL":1,
						"TEXCOORD_0":2
					},
					"indices":3,
					"material":0
				},
				{
					"attributes":{
						"POSITION":4,
						"NORMAL":5,
						"TEXCOORD_0":6
					},
					"indices":7,
					"material":1
				},
				{
					"attributes":{
						"POSITION":8,
						"NORMAL":9,
						"TEXCOORD_0":10
					},
					"indices":11,
					"material":2
				},
				{
					"attributes":{
						"POSITION":12,
						"NORMAL":13,
						"TEXCOORD_0":14
					},
					"indices":15,
					"material":3
				}
			]
		},
		{
			"name":"Plane.005",
			"primitives":[
				{
					"attributes":{
						"POSITION":16,
						"NORMAL":17,
						"TEXCOORD_0":18
					},
					"indices":19
				}
			]
		}
	],
	"textures":[
		{
			"sampler":0,
			"source":0
		},
		{
			"sampler":0,
			"source":1
		},
		{
			"sampler":0,
			"source":2
		},
		{
			"sampler":0,
			"source":3
		}
	],
	"images":[
		{
			"mimeType":"image/jpeg",
			"name":"obj_road01",
			"uri":"textures/obj_road01.jpg"
		},
		{
			"mimeType":"image/jpeg",
			"name":"obj_border01",
			"uri":"textures/obj_border01.jpg"
		},
		{
			"mimeType":"image/jpeg",
			"name":"obj_border02",
			"uri":"textures/obj_border02.jpg"
		},
		{
			"mimeType":"image/jpeg",
			"name":"obj_road02",
			"uri":"textures/obj_road02.jpg"
		}
	],
	"accessors":[
		{
			"bufferView":0,
			"componentType":5126,
			"count":12,
			"max":[
				7.99998664855957,
				0,
				7.999998092651367
			],
			"min":[
				-8,
				-3.941352588299196e-06,
				-8
			],
			"type":"VEC3"
		},
		{
			"bufferView":1,
			"componentType":5126,
			"count":12,
			"type":"VEC3"
		},
		{
			"bufferView":2,
			"componentType":5126,
			"count":12,
			"type":"VEC2"
		},
		{
			"bufferView":3,
			"componentType":5123,
			"count":30,
			"type":"SCALAR"
		},
		{
			"bufferView":4,
			"componentType":5126,
			"count":2956,
			"max":[
				8.000001907348633,
				0.2822490930557251,
				7.998500823974609
			],
			"min":[
				-7.999990463256836,
				-0.0015839134575799108,
				-7.999180793762207
			],
			"type":"VEC3"
		},
		{
			"bufferView":5,
			"componentType":5126,
			"count":2956,
			"type":"VEC3"
		},
		{
			"bufferView":6,
			"componentType":5126,
			"count":2956,
			"type":"VEC2"
		},
		{
			"bufferView":7,
			"componentType":5123,
			"count":7494,
			"type":"SCALAR"
		},
		{
			"bufferView":8,
			"componentType":5126,
			"count":174,
			"max":[
				7.928116798400879,
				0.09728597849607468,
				8.000140190124512
			],
			"min":[
				-7.928116798400879,
				-0.0014865770936012268,
				-7.88504695892334
			],
			"type":"VEC3"
		},
		{
			"bufferView":9,
			"componentType":5126,
			"count":174,
			"type":"VEC3"
		},
		{
			"bufferView":10,
			"componentType":5126,
			"count":174,
			"type":"VEC2"
		},
		{
			"bufferView":11,
			"componentType":5123,
			"count":324,
			"type":"SCALAR"
		},
		{
			"bufferView":12,
			"componentType":5126,
			"count":24,
			"max":[
				7.953707695007324,
				0.07351257652044296,
				7.963711738586426
			],
			"min":[
				-7.953707695007324,
				0.07351238280534744,
				-7.846149444580078
			],
			"type":"VEC3"
		},
		{
			"bufferView":13,
			"componentType":5126,
			"count":24,
			"type":"VEC3"
		},
		{
			"bufferView":14,
			"componentType":5126,
			"count":24,
			"type":"VEC2"
		},
		{
			"bufferView":15,
			"componentType":5123,
			"count":54,
			"type":"SCALAR"
		},
		{
			"bufferView":16,
			"componentType":5126,
			"count":3154,
			"max":[
				8.000001907348633,
				0.2822490930557251,
				8.000140190124512
			],
			"min":[
				-7.999990463256836,
				-0.0015839134575799108,
				-7.999180793762207
			],
			"type":"VEC3"
		},
		{
			"bufferView":17,
			"componentType":5126,
			"count":3154,
			"type":"VEC3"
		},
		{
			"bufferView":18,
			"componentType":5126,
			"count":3154,
			"type":"VEC2"
		},
		{
			"bufferView":19,
			"componentType":5123,
			"count":7872,
			"type":"SCALAR"
		}
	],
	"bufferViews":[
		{
			"buffer":0,
			"byteLength":144,
			"byteOffset":0,
			"target":34962
		},
		{
			"buffer":0,
			"byteLength":144,
			"byteOffset":144,
			"target":34962
		},
		{
			"buffer":0,
			"byteLength":96,
			"byteOffset":288,
			"target":34962
		},
		{
			"buffer":0,
			"byteLength":60,
			"byteOffset":384,
			"target":34963
		},
		{
			"buffer":0,
			"byteLength":35472,
			"byteOffset":444,
			"target":34962
		},
		{
			"buffer":0,
			"byteLength":35472,
			"byteOffset":35916,
			"target":34962
		},
		{
			"buffer":0,
			"byteLength":23648,
			"byteOffset":71388,
			"target":34962
		},
		{
			"buffer":0,
			"byteLength":14988,
			"byteOffset":95036,
			"target":34963
		},
		{
			"buffer":0,
			"byteLength":2088,
			"byteOffset":110024,
			"target":34962
		},
		{
			"buffer":0,
			"byteLength":2088,
			"byteOffset":112112,
			"target":34962
		},
		{
			"buffer":0,
			"byteLength":1392,
			"byteOffset":114200,
			"target":34962
		},
		{
			"buffer":0,
			"byteLength":648,
			"byteOffset":115592,
			"target":34963
		},
		{
			"buffer":0,
			"byteLength":288,
			"byteOffset":116240,
			"target":34962
		},
		{
			"buffer":0,
			"byteLength":288,
			"byteOffset":116528,
			"target":34962
		},
		{
			"buffer":0,
			"byteLength":192,
			"byteOffset":116816,
			"target":34962
		},
		{
			"buffer":0,
			"byteLength":108,
			"byteOffset":117008,
			"target":34963
		},
		{
			"buffer":0,
			"byteLength":37848,
			"byteOffset":117116,
			"target":34962
		},
		{
			"buffer":0,
			"byteLength":37848,
			"byteOffset":154964,
			"target":34962
		},
		{
			"buffer":0,
			"byteLength":25232,
			"byteOffset":192812,
			"target":34962
		},
		{
			"buffer":0,
			"byteLength":15744,
			"byteOffset":218044,
			"target":34963
		}
	],
	"samplers":[
		{
			"magFilter":9729,
			"minFilter":9987
		}
	],
	"buffers":[
		{
			"byteLength":233788,
			"uri":"obj_ground.bin"
		}
	]
}
