{
	"asset":{
		"generator":"Khronos glTF Blender I/O v4.3.47",
		"version":"2.0"
	},
	"extensionsUsed":[
		"KHR_materials_specular",
		"KHR_materials_ior"
	],
	"scene":0,
	"scenes":[
		{
			"name":"Scene",
			"nodes":[
				0,
				1
			]
		}
	],
	"nodes":[
		{
			"mesh":0,
			"name":"obj_terminal"
		},
		{
			"mesh":1,
			"name":"obj_terminal_collider"
		}
	],
	"materials":[
		{
			"emissiveFactor":[
				0.10000000149011612,
				0.10000000149011612,
				0.10000000149011612
			],
			"emissiveTexture":{
				"index":0
			},
			"extensions":{
				"KHR_materials_specular":{
					"specularFactor":0
				}
			},
			"name":"obj_terminal02",
			"pbrMetallicRoughness":{
				"baseColorTexture":{
					"index":1
				},
				"metallicFactor":0
			}
		},
		{
			"emissiveFactor":[
				0.10000000149011612,
				0.10000000149011612,
				0.10000000149011612
			],
			"emissiveTexture":{
				"index":2
			},
			"extensions":{
				"KHR_materials_specular":{
					"specularFactor":0
				}
			},
			"name":"obj_terminal01",
			"pbrMetallicRoughness":{
				"baseColorTexture":{
					"index":3
				},
				"metallicFactor":0
			}
		},
		{
			"emissiveFactor":[
				0.10000000149011612,
				0.10000000149011612,
				0.10000000149011612
			],
			"emissiveTexture":{
				"index":4
			},
			"extensions":{
				"KHR_materials_specular":{
					"specularFactor":0
				},
				"KHR_materials_ior":{
					"ior":1.4500000476837158
				}
			},
			"name":"obj_background",
			"pbrMetallicRoughness":{
				"baseColorTexture":{
					"index":5
				},
				"metallicFactor":0
			}
		}
	],
	"meshes":[
		{
			"name":"obj_terminal",
			"primitives":[
				{
					"attributes":{
						"POSITION":0,
						"NORMAL":1,
						"TEXCOORD_0":2
					},
					"indices":3,
					"material":0
				},
				{
					"attributes":{
						"POSITION":4,
						"NORMAL":5,
						"TEXCOORD_0":6
					},
					"indices":7,
					"material":1
				},
				{
					"attributes":{
						"POSITION":8,
						"NORMAL":9,
						"TEXCOORD_0":10
					},
					"indices":11,
					"material":2
				}
			]
		},
		{
			"name":"obj_terminal_collider",
			"primitives":[
				{
					"attributes":{
						"POSITION":12,
						"NORMAL":13
					},
					"indices":14
				}
			]
		}
	],
	"textures":[
		{
			"sampler":0,
			"source":0
		},
		{
			"sampler":0,
			"source":0
		},
		{
			"sampler":0,
			"source":1
		},
		{
			"sampler":0,
			"source":1
		},
		{
			"sampler":0,
			"source":2
		},
		{
			"sampler":0,
			"source":2
		}
	],
	"images":[
		{
			"mimeType":"image/jpeg",
			"name":"obj_terminal02",
			"uri":"textures/obj_terminal02.jpg"
		},
		{
			"mimeType":"image/jpeg",
			"name":"obj_terminal01",
			"uri":"textures/obj_terminal01.jpg"
		},
		{
			"mimeType":"image/jpeg",
			"name":"obj_background",
			"uri":"textures/obj_background.jpg"
		}
	],
	"accessors":[
		{
			"bufferView":0,
			"componentType":5126,
			"count":213,
			"max":[
				0.5750125050544739,
				1.4961402416229248,
				1.2557628154754639
			],
			"min":[
				-0.5803680419921875,
				0.637834906578064,
				0.9743471145629883
			],
			"type":"VEC3"
		},
		{
			"bufferView":1,
			"componentType":5126,
			"count":213,
			"type":"VEC3"
		},
		{
			"bufferView":2,
			"componentType":5126,
			"count":213,
			"type":"VEC2"
		},
		{
			"bufferView":3,
			"componentType":5123,
			"count":504,
			"type":"SCALAR"
		},
		{
			"bufferView":4,
			"componentType":5126,
			"count":638,
			"max":[
				0.7166577577590942,
				1.4814982414245605,
				1.2505805492401123
			],
			"min":[
				-0.720523476600647,
				0.04611861705780029,
				0.8813629150390625
			],
			"type":"VEC3"
		},
		{
			"bufferView":5,
			"componentType":5126,
			"count":638,
			"type":"VEC3"
		},
		{
			"bufferView":6,
			"componentType":5126,
			"count":638,
			"type":"VEC2"
		},
		{
			"bufferView":7,
			"componentType":5123,
			"count":1962,
			"type":"SCALAR"
		},
		{
			"bufferView":8,
			"componentType":5126,
			"count":16,
			"max":[
				0.53794926404953,
				1.3226268291473389,
				1.203399896621704
			],
			"min":[
				-0.5427178740501404,
				0.6739827990531921,
				1.203399658203125
			],
			"type":"VEC3"
		},
		{
			"bufferView":9,
			"componentType":5126,
			"count":16,
			"type":"VEC3"
		},
		{
			"bufferView":10,
			"componentType":5126,
			"count":16,
			"type":"VEC2"
		},
		{
			"bufferView":11,
			"componentType":5123,
			"count":54,
			"type":"SCALAR"
		},
		{
			"bufferView":12,
			"componentType":5126,
			"count":24,
			"max":[
				0.7162657380104065,
				1.4961402416229248,
				1.25892972946167
			],
			"min":[
				-0.7209154963493347,
				0.04611867666244507,
				0.8845298290252686
			],
			"type":"VEC3"
		},
		{
			"bufferView":13,
			"componentType":5126,
			"count":24,
			"type":"VEC3"
		},
		{
			"bufferView":14,
			"componentType":5123,
			"count":36,
			"type":"SCALAR"
		}
	],
	"bufferViews":[
		{
			"buffer":0,
			"byteLength":2556,
			"byteOffset":0,
			"target":34962
		},
		{
			"buffer":0,
			"byteLength":2556,
			"byteOffset":2556,
			"target":34962
		},
		{
			"buffer":0,
			"byteLength":1704,
			"byteOffset":5112,
			"target":34962
		},
		{
			"buffer":0,
			"byteLength":1008,
			"byteOffset":6816,
			"target":34963
		},
		{
			"buffer":0,
			"byteLength":7656,
			"byteOffset":7824,
			"target":34962
		},
		{
			"buffer":0,
			"byteLength":7656,
			"byteOffset":15480,
			"target":34962
		},
		{
			"buffer":0,
			"byteLength":5104,
			"byteOffset":23136,
			"target":34962
		},
		{
			"buffer":0,
			"byteLength":3924,
			"byteOffset":28240,
			"target":34963
		},
		{
			"buffer":0,
			"byteLength":192,
			"byteOffset":32164,
			"target":34962
		},
		{
			"buffer":0,
			"byteLength":192,
			"byteOffset":32356,
			"target":34962
		},
		{
			"buffer":0,
			"byteLength":128,
			"byteOffset":32548,
			"target":34962
		},
		{
			"buffer":0,
			"byteLength":108,
			"byteOffset":32676,
			"target":34963
		},
		{
			"buffer":0,
			"byteLength":288,
			"byteOffset":32784,
			"target":34962
		},
		{
			"buffer":0,
			"byteLength":288,
			"byteOffset":33072,
			"target":34962
		},
		{
			"buffer":0,
			"byteLength":72,
			"byteOffset":33360,
			"target":34963
		}
	],
	"samplers":[
		{
			"magFilter":9729,
			"minFilter":9987
		}
	],
	"buffers":[
		{
			"byteLength":33432,
			"uri":"obj_terminal.bin"
		}
	]
}
