{
	"asset":{
		"generator":"Khronos glTF Blender I/O v4.3.47",
		"version":"2.0"
	},
	"extensionsUsed":[
		"KHR_materials_specular"
	],
	"scene":0,
	"scenes":[
		{
			"name":"Scene",
			"nodes":[
				0,
				1
			]
		}
	],
	"nodes":[
		{
			"mesh":0,
			"name":"obj_lamp"
		},
		{
			"mesh":1,
			"name":"obj_lamp_collider"
		}
	],
	"materials":[
		{
			"emissiveFactor":[
				0.10000000149011612,
				0.10000000149011612,
				0.10000000149011612
			],
			"emissiveTexture":{
				"index":0
			},
			"extensions":{
				"KHR_materials_specular":{
					"specularFactor":0
				}
			},
			"name":"obj_lamp",
			"pbrMetallicRoughness":{
				"baseColorTexture":{
					"index":1
				},
				"metallicFactor":0
			}
		},
		{
			"emissiveFactor":[
				1,
				0.6866855025291443,
				0.2874409258365631
			],
			"extensions":{
				"KHR_materials_specular":{
					"specularFactor":0
				}
			},
			"name":"obj_emission01",
			"pbrMetallicRoughness":{
				"baseColorFactor":[
					1,
					0.6880671381950378,
					0.2889302968978882,
					1
				],
				"metallicFactor":0
			}
		}
	],
	"meshes":[
		{
			"name":"obj_lamp",
			"primitives":[
				{
					"attributes":{
						"POSITION":0,
						"NORMAL":1,
						"TEXCOORD_0":2
					},
					"indices":3,
					"material":0
				},
				{
					"attributes":{
						"POSITION":4,
						"NORMAL":5,
						"TEXCOORD_0":6
					},
					"indices":7,
					"material":1
				}
			]
		},
		{
			"name":"obj_lamp_collider",
			"primitives":[
				{
					"attributes":{
						"POSITION":8,
						"NORMAL":9,
						"TEXCOORD_0":10
					},
					"indices":11
				}
			]
		}
	],
	"textures":[
		{
			"sampler":0,
			"source":0
		},
		{
			"sampler":0,
			"source":0
		}
	],
	"images":[
		{
			"mimeType":"image/jpeg",
			"name":"obj_lamp",
			"uri":"textures/obj_lamp.jpg"
		}
	],
	"accessors":[
		{
			"bufferView":0,
			"componentType":5126,
			"count":1842,
			"max":[
				7.7633867263793945,
				2.6059069633483887,
				-0.21008062362670898
			],
			"min":[
				-7.764301776885986,
				0.07212962955236435,
				-7.768972873687744
			],
			"type":"VEC3"
		},
		{
			"bufferView":1,
			"componentType":5126,
			"count":1842,
			"type":"VEC3"
		},
		{
			"bufferView":2,
			"componentType":5126,
			"count":1842,
			"type":"VEC2"
		},
		{
			"bufferView":3,
			"componentType":5123,
			"count":5850,
			"type":"SCALAR"
		},
		{
			"bufferView":4,
			"componentType":5126,
			"count":36,
			"max":[
				6.964626312255859,
				2.1530237197875977,
				-0.23594141006469727
			],
			"min":[
				-6.984410762786865,
				2.0299487113952637,
				-7.335755825042725
			],
			"type":"VEC3"
		},
		{
			"bufferView":5,
			"componentType":5126,
			"count":36,
			"type":"VEC3"
		},
		{
			"bufferView":6,
			"componentType":5126,
			"count":36,
			"type":"VEC2"
		},
		{
			"bufferView":7,
			"componentType":5123,
			"count":90,
			"type":"SCALAR"
		},
		{
			"bufferView":8,
			"componentType":5126,
			"count":666,
			"max":[
				7.7711358070373535,
				2.6059069633483887,
				-0.20701391994953156
			],
			"min":[
				-7.790655136108398,
				0.06547164916992188,
				-7.788791656494141
			],
			"type":"VEC3"
		},
		{
			"bufferView":9,
			"componentType":5126,
			"count":666,
			"type":"VEC3"
		},
		{
			"bufferView":10,
			"componentType":5126,
			"count":666,
			"type":"VEC2"
		},
		{
			"bufferView":11,
			"componentType":5123,
			"count":2394,
			"type":"SCALAR"
		}
	],
	"bufferViews":[
		{
			"buffer":0,
			"byteLength":22104,
			"byteOffset":0,
			"target":34962
		},
		{
			"buffer":0,
			"byteLength":22104,
			"byteOffset":22104,
			"target":34962
		},
		{
			"buffer":0,
			"byteLength":14736,
			"byteOffset":44208,
			"target":34962
		},
		{
			"buffer":0,
			"byteLength":11700,
			"byteOffset":58944,
			"target":34963
		},
		{
			"buffer":0,
			"byteLength":432,
			"byteOffset":70644,
			"target":34962
		},
		{
			"buffer":0,
			"byteLength":432,
			"byteOffset":71076,
			"target":34962
		},
		{
			"buffer":0,
			"byteLength":288,
			"byteOffset":71508,
			"target":34962
		},
		{
			"buffer":0,
			"byteLength":180,
			"byteOffset":71796,
			"target":34963
		},
		{
			"buffer":0,
			"byteLength":7992,
			"byteOffset":71976,
			"target":34962
		},
		{
			"buffer":0,
			"byteLength":7992,
			"byteOffset":79968,
			"target":34962
		},
		{
			"buffer":0,
			"byteLength":5328,
			"byteOffset":87960,
			"target":34962
		},
		{
			"buffer":0,
			"byteLength":4788,
			"byteOffset":93288,
			"target":34963
		}
	],
	"samplers":[
		{
			"magFilter":9729,
			"minFilter":9987
		}
	],
	"buffers":[
		{
			"byteLength":98076,
			"uri":"obj_lamp.bin"
		}
	]
}
