{
	"asset":{
		"generator":"Khronos glTF Blender I/O v4.3.47",
		"version":"2.0"
	},
	"extensionsUsed":[
		"KHR_materials_specular",
		"KHR_materials_ior"
	],
	"scene":0,
	"scenes":[
		{
			"name":"Scene",
			"nodes":[
				0,
				1
			]
		}
	],
	"nodes":[
		{
			"mesh":0,
			"name":"obj_wall"
		},
		{
			"mesh":1,
			"name":"obj_wall_collider"
		}
	],
	"materials":[
		{
			"emissiveFactor":[
				0.10000000149011612,
				0.10000000149011612,
				0.10000000149011612
			],
			"emissiveTexture":{
				"index":0
			},
			"extensions":{
				"KHR_materials_specular":{
					"specularFactor":0,
					"specularColorFactor":[
						0.0,
						0.0,
						0.0
					]
				},
				"KHR_materials_ior":{
					"ior":1.4500000476837158
				}
			},
			"name":"obj_wall",
			"pbrMetallicRoughness":{
				"baseColorTexture":{
					"index":1
				},
				"metallicFactor":0
			}
		}
	],
	"meshes":[
		{
			"name":"obj_wall",
			"primitives":[
				{
					"attributes":{
						"POSITION":0,
						"NORMAL":1,
						"TEXCOORD_0":2
					},
					"indices":3,
					"material":0
				}
			]
		},
		{
			"name":"obj_wall_collider",
			"primitives":[
				{
					"attributes":{
						"POSITION":4,
						"NORMAL":5,
						"TEXCOORD_0":6
					},
					"indices":7
				}
			]
		}
	],
	"textures":[
		{
			"sampler":0,
			"source":0
		},
		{
			"sampler":0,
			"source":0
		}
	],
	"images":[
		{
			"mimeType":"image/png",
			"name":"obj_wall",
			"uri":"textures/obj_wall.png"
		}
	],
	"accessors":[
		{
			"bufferView":0,
			"componentType":5126,
			"count":5745,
			"max":[
				7.7893853187561035,
				3.957582950592041,
				5.253911972045898
			],
			"min":[
				-7.7893805503845215,
				0.03565202280879021,
				-7.8484978675842285
			],
			"type":"VEC3"
		},
		{
			"bufferView":1,
			"componentType":5126,
			"count":5745,
			"type":"VEC3"
		},
		{
			"bufferView":2,
			"componentType":5126,
			"count":5745,
			"type":"VEC2"
		},
		{
			"bufferView":3,
			"componentType":5123,
			"count":15876,
			"type":"SCALAR"
		},
		{
			"bufferView":4,
			"componentType":5126,
			"count":681,
			"max":[
				7.821157455444336,
				3.9740822315216064,
				5.2568206787109375
			],
			"min":[
				-7.821157932281494,
				-0.0015502721071243286,
				-7.861547946929932
			],
			"type":"VEC3"
		},
		{
			"bufferView":5,
			"componentType":5126,
			"count":681,
			"type":"VEC3"
		},
		{
			"bufferView":6,
			"componentType":5126,
			"count":681,
			"type":"VEC2"
		},
		{
			"bufferView":7,
			"componentType":5123,
			"count":1908,
			"type":"SCALAR"
		}
	],
	"bufferViews":[
		{
			"buffer":0,
			"byteLength":68940,
			"byteOffset":0,
			"target":34962
		},
		{
			"buffer":0,
			"byteLength":68940,
			"byteOffset":68940,
			"target":34962
		},
		{
			"buffer":0,
			"byteLength":45960,
			"byteOffset":137880,
			"target":34962
		},
		{
			"buffer":0,
			"byteLength":31752,
			"byteOffset":183840,
			"target":34963
		},
		{
			"buffer":0,
			"byteLength":8172,
			"byteOffset":215592,
			"target":34962
		},
		{
			"buffer":0,
			"byteLength":8172,
			"byteOffset":223764,
			"target":34962
		},
		{
			"buffer":0,
			"byteLength":5448,
			"byteOffset":231936,
			"target":34962
		},
		{
			"buffer":0,
			"byteLength":3816,
			"byteOffset":237384,
			"target":34963
		}
	],
	"samplers":[
		{
			"magFilter":9729,
			"minFilter":9987
		}
	],
	"buffers":[
		{
			"byteLength":241200,
			"uri":"obj_wall.bin"
		}
	]
}
