{
	"asset":{
		"generator":"Khronos glTF Blender I/O v4.2.57",
		"version":"2.0"
	},
	"scene":0,
	"scenes":[
		{
			"name":"Scene",
			"nodes":[
				0
			]
		}
	],
	"nodes":[
		{
			"mesh":0,
			"name":"Plane.009"
		}
	],
	"materials":[
		{
			"doubleSided":true,
			"name":"purple",
			"pbrMetallicRoughness":{
				"baseColorFactor":[
					0.25415199995040894,
					0.2122267186641693,
					1,
					1
				],
				"metallicFactor":0,
				"roughnessFactor":0.5
			}
		}
	],
	"meshes":[
		{
			"name":"Plane.006",
			"primitives":[
				{
					"attributes":{
						"POSITION":0,
						"NORMAL":1,
						"TEXCOORD_0":2
					},
					"indices":3,
					"material":0
				}
			]
		}
	],
	"accessors":[
		{
			"bufferView":0,
			"componentType":5126,
			"count":5018,
			"max":[
				6.5506415367126465,
				2.0870933532714844,
				-2.0885045528411865
			],
			"min":[
				-6.5506415367126465,
				0.16693828999996185,
				-4.999668598175049
			],
			"type":"VEC3"
		},
		{
			"bufferView":1,
			"componentType":5126,
			"count":5018,
			"type":"VEC3"
		},
		{
			"bufferView":2,
			"componentType":5126,
			"count":5018,
			"type":"VEC2"
		},
		{
			"bufferView":3,
			"componentType":5123,
			"count":29016,
			"type":"SCALAR"
		}
	],
	"bufferViews":[
		{
			"buffer":0,
			"byteLength":60216,
			"byteOffset":0,
			"target":34962
		},
		{
			"buffer":0,
			"byteLength":60216,
			"byteOffset":60216,
			"target":34962
		},
		{
			"buffer":0,
			"byteLength":40144,
			"byteOffset":120432,
			"target":34962
		},
		{
			"buffer":0,
			"byteLength":58032,
			"byteOffset":160576,
			"target":34963
		}
	],
	"buffers":[
		{
			"byteLength":218608,
			"uri":"obj_bus.bin"
		}
	]
}
