{
	"asset":{
		"generator":"Khronos glTF Blender I/O v4.2.57",
		"version":"2.0"
	},
	"scene":0,
	"scenes":[
		{
			"name":"Scene",
			"nodes":[
				0
			]
		}
	],
	"nodes":[
		{
			"mesh":0,
			"name":"obj_rocket"
		}
	],
	"materials":[
		{
			"doubleSided":true,
			"name":"purple",
			"pbrMetallicRoughness":{
				"baseColorFactor":[
					0.25415199995040894,
					0.2122267186641693,
					1,
					1
				],
				"metallicFactor":0,
				"roughnessFactor":0.5
			}
		},
		{
			"doubleSided":true,
			"name":"yellow",
			"pbrMetallicRoughness":{
				"baseColorFactor":[
					1,
					0.7304738759994507,
					0.2122267186641693,
					1
				],
				"metallicFactor":0,
				"roughnessFactor":0.5
			}
		}
	],
	"meshes":[
		{
			"name":"Cube.002",
			"primitives":[
				{
					"attributes":{
						"POSITION":0,
						"NORMAL":1,
						"TEXCOORD_0":2
					},
					"indices":3,
					"material":0
				},
				{
					"attributes":{
						"POSITION":4,
						"NORMAL":5,
						"TEXCOORD_0":6
					},
					"indices":7,
					"material":1
				}
			]
		}
	],
	"accessors":[
		{
			"bufferView":0,
			"componentType":5126,
			"count":652,
			"max":[
				1.038373351097107,
				4.432305335998535,
				-3.552211284637451
			],
			"min":[
				-1.038373351097107,
				0.17678403854370117,
				-5.718122959136963
			],
			"type":"VEC3"
		},
		{
			"bufferView":1,
			"componentType":5126,
			"count":652,
			"type":"VEC3"
		},
		{
			"bufferView":2,
			"componentType":5126,
			"count":652,
			"type":"VEC2"
		},
		{
			"bufferView":3,
			"componentType":5123,
			"count":2064,
			"type":"SCALAR"
		},
		{
			"bufferView":4,
			"componentType":5126,
			"count":380,
			"max":[
				1.3449375629425049,
				3.460893154144287,
				-3.57883620262146
			],
			"min":[
				-1.3449374437332153,
				0.011878609657287598,
				-5.691497802734375
			],
			"type":"VEC3"
		},
		{
			"bufferView":5,
			"componentType":5126,
			"count":380,
			"type":"VEC3"
		},
		{
			"bufferView":6,
			"componentType":5126,
			"count":380,
			"type":"VEC2"
		},
		{
			"bufferView":7,
			"componentType":5123,
			"count":768,
			"type":"SCALAR"
		}
	],
	"bufferViews":[
		{
			"buffer":0,
			"byteLength":7824,
			"byteOffset":0,
			"target":34962
		},
		{
			"buffer":0,
			"byteLength":7824,
			"byteOffset":7824,
			"target":34962
		},
		{
			"buffer":0,
			"byteLength":5216,
			"byteOffset":15648,
			"target":34962
		},
		{
			"buffer":0,
			"byteLength":4128,
			"byteOffset":20864,
			"target":34963
		},
		{
			"buffer":0,
			"byteLength":4560,
			"byteOffset":24992,
			"target":34962
		},
		{
			"buffer":0,
			"byteLength":4560,
			"byteOffset":29552,
			"target":34962
		},
		{
			"buffer":0,
			"byteLength":3040,
			"byteOffset":34112,
			"target":34962
		},
		{
			"buffer":0,
			"byteLength":1536,
			"byteOffset":37152,
			"target":34963
		}
	],
	"buffers":[
		{
			"byteLength":38688,
			"uri":"obj_rocket.bin"
		}
	]
}
