{
	"asset":{
		"generator":"Khronos glTF Blender I/O v4.2.57",
		"version":"2.0"
	},
	"scene":0,
	"scenes":[
		{
			"name":"Scene",
			"nodes":[
				0
			]
		}
	],
	"nodes":[
		{
			"mesh":0,
			"name":"obj_bus"
		}
	],
	"materials":[
		{
			"doubleSided":true,
			"name":"purple",
			"pbrMetallicRoughness":{
				"baseColorFactor":[
					0.25415199995040894,
					0.2122267186641693,
					1,
					1
				],
				"metallicFactor":0,
				"roughnessFactor":0.5
			}
		}
	],
	"meshes":[
		{
			"name":"B\u00e9zierCircle.003",
			"primitives":[
				{
					"attributes":{
						"POSITION":0,
						"NORMAL":1,
						"TEXCOORD_0":2
					},
					"indices":3,
					"material":0
				}
			]
		}
	],
	"accessors":[
		{
			"bufferView":0,
			"componentType":5126,
			"count":5216,
			"max":[
				6.709690570831299,
				2.0870933532714844,
				-3.1299948692321777
			],
			"min":[
				-6.709690570831299,
				0.16693828999996185,
				-6.041159152984619
			],
			"type":"VEC3"
		},
		{
			"bufferView":1,
			"componentType":5126,
			"count":5216,
			"type":"VEC3"
		},
		{
			"bufferView":2,
			"componentType":5126,
			"count":5216,
			"type":"VEC2"
		},
		{
			"bufferView":3,
			"componentType":5123,
			"count":29568,
			"type":"SCALAR"
		}
	],
	"bufferViews":[
		{
			"buffer":0,
			"byteLength":62592,
			"byteOffset":0,
			"target":34962
		},
		{
			"buffer":0,
			"byteLength":62592,
			"byteOffset":62592,
			"target":34962
		},
		{
			"buffer":0,
			"byteLength":41728,
			"byteOffset":125184,
			"target":34962
		},
		{
			"buffer":0,
			"byteLength":59136,
			"byteOffset":166912,
			"target":34963
		}
	],
	"buffers":[
		{
			"byteLength":226048,
			"uri":"obj_bus.bin"
		}
	]
}
